<?xml version="1.0" standalone="no"?>
<!DOCTYPE svg PUBLIC "-//W3C//DTD SVG 1.1//EN" "http://www.w3.org/Graphics/SVG/1.1/DTD/svg11.dtd" >
<svg>
<metadata>
Created by FontForge 20120731 at Sun Jun 25 04:31:26 2023
 By www
Copyright (c) 2013 by Mika Melvas. All rights reserved.
</metadata>
<defs>
<font id="RionaSansW04-BoldItalic" horiz-adv-x="719" >
  <font-face 
    font-family="RionaSansW04-BoldItalic"
    font-weight="700"
    font-style="italic"
    font-stretch="normal"
    units-per-em="1000"
    panose-1="2 0 0 0 0 0 0 0 0 0"
    ascent="800"
    descent="-200"
    x-height="527"
    cap-height="707"
    bbox="-118 -343 1253 989"
    underline-thickness="50"
    underline-position="-75"
    slope="-9"
    unicode-range="U+0020-FB04"
  />
<missing-glyph horiz-adv-x="685" 
d="M629 706v-705h-513v705h513zM156 637v-571l193 286zM589 68v568l-193 -284zM373 386l190 282h-381zM184 39h377l-188 278z" />
    <glyph glyph-name="uniFB00" unicode="ff" horiz-adv-x="800" 
d="M861 612q-6 2 -14 4q-7 2 -17.5 3.5t-23.5 1.5q-39 0 -63.5 -15.5t-32.5 -63.5l-2 -15h138l-19 -122h-139l-67 -414q-10 -62 -32 -102t-53 -63t-67.5 -32t-75.5 -9q-21 0 -38 2t-29 4q-14 3 -24 7l25 117q5 -3 13 -5q6 -2 15.5 -3t22.5 -1q39 0 60 20t29 65l66 414h-227
l-67 -414q-10 -62 -32 -102t-53 -63t-67.5 -32t-75.5 -9q-21 0 -38 2t-29 4q-14 3 -24 7l25 117q5 -3 13 -5q6 -2 15.5 -3t22.5 -1q39 0 60 20t29 65l66 414h-62l19 122h62l3 20q9 62 33.5 100t57.5 59t72 28.5t78 7.5q23 0 42.5 -2.5t33.5 -4.5q16 -4 29 -7l-40 -116
q-6 2 -14 4q-7 2 -17.5 3.5t-23.5 1.5q-39 0 -63.5 -15.5t-32.5 -63.5l-2 -15h226l3 20q9 62 33.5 100t57.5 59t72 28.5t78 7.5q23 0 42.5 -2.5t33.5 -4.5q16 -4 29 -7l-40 -116v0z" />
    <glyph glyph-name="uniFB01" unicode="fi" horiz-adv-x="696" 
d="M481 0l83 527h155l-83 -527h-155zM755 678q0 -38 -23.5 -65.5t-78.5 -27.5q-41 0 -58.5 18t-17.5 47q0 38 23.5 65t78.5 27q41 0 58.5 -17.5t17.5 -46.5zM479 612q-6 2 -14 4q-7 2 -17.5 3.5t-23.5 1.5q-39 0 -63.5 -15.5t-32.5 -63.5l-2 -15h138l-19 -122h-139l-67 -414
q-10 -62 -32 -102t-53 -63t-67.5 -32t-75.5 -9q-21 0 -38 2t-29 4q-14 3 -24 7l25 117q5 -3 13 -5q6 -2 15.5 -3t22.5 -1q39 0 60 20t29 65l66 414h-62l19 122h62l3 20q9 62 33.5 100t57.5 59t72 28.5t78 7.5q23 0 42.5 -2.5t33.5 -4.5q16 -4 29 -7z" />
    <glyph glyph-name="uniFB02" unicode="fl" horiz-adv-x="763" 
d="M756 731l-89 -560q-1 -8 -1.5 -14t-0.5 -11q0 -40 33 -40q8 0 16 1t15 3t14 5v-101q-14 -8 -32 -13q-16 -5 -38 -8.5t-48 -3.5q-64 0 -91.5 34.5t-27.5 88.5q0 11 1 22.5t3 22.5l90 574h156zM479 612q-6 2 -14 4q-7 2 -17.5 3.5t-23.5 1.5q-39 0 -63.5 -15.5t-32.5 -63.5
l-2 -15h138l-19 -122h-139l-67 -414q-10 -62 -32 -102t-53 -63t-67.5 -32t-75.5 -9q-21 0 -38 2t-29 4q-14 3 -24 7l25 117q5 -3 13 -5q6 -2 15.5 -3t22.5 -1q39 0 60 20t29 65l66 414h-62l19 122h62l3 20q9 62 33.5 100t57.5 59t72 28.5t78 7.5q23 0 42.5 -2.5t33.5 -4.5
q16 -4 29 -7z" />
    <glyph glyph-name="uniFB03" unicode="ffi" horiz-adv-x="1079" 
d="M865 0l83 527h155l-83 -527h-155zM1139 678q0 -38 -23.5 -65.5t-78.5 -27.5q-41 0 -58.5 18t-17.5 47q0 38 23.5 65t78.5 27q41 0 58.5 -17.5t17.5 -46.5zM861 612q-6 2 -14 4q-7 2 -17.5 3.5t-23.5 1.5q-39 0 -63.5 -15.5t-32.5 -63.5l-2 -15h138l-19 -122h-139
l-67 -414q-10 -62 -32 -102t-53 -63t-67.5 -32t-75.5 -9q-21 0 -38 2t-29 4q-14 3 -24 7l25 117q5 -3 13 -5q6 -2 15.5 -3t22.5 -1q39 0 60 20t29 65l66 414h-227l-67 -414q-10 -62 -32 -102t-53 -63t-67.5 -32t-75.5 -9q-21 0 -38 2t-29 4q-14 3 -24 7l25 117q5 -3 13 -5
q6 -2 15.5 -3t22.5 -1q39 0 60 20t29 65l66 414h-62l19 122h62l3 20q9 62 33.5 100t57.5 59t72 28.5t78 7.5q23 0 42.5 -2.5t33.5 -4.5q16 -4 29 -7l-40 -116q-6 2 -14 4q-7 2 -17.5 3.5t-23.5 1.5q-39 0 -63.5 -15.5t-32.5 -63.5l-2 -15h226l3 20q9 62 33.5 100t57.5 59
t72 28.5t78 7.5q23 0 42.5 -2.5t33.5 -4.5q16 -4 29 -7z" />
    <glyph glyph-name="uniFB04" unicode="ffl" horiz-adv-x="1144" 
d="M1138 731l-89 -560q-1 -8 -1.5 -14t-0.5 -11q0 -40 33 -40q8 0 16 1t14 3q7 2 14 5v-101q-14 -8 -32 -13q-16 -5 -37.5 -8.5t-47.5 -3.5q-64 0 -92 34.5t-28 89.5q0 11 1 22t3 22l91 574h156zM861 612q-6 2 -14 4q-7 2 -17.5 3.5t-23.5 1.5q-39 0 -63.5 -15.5
t-32.5 -63.5l-2 -15h138l-19 -122h-139l-67 -414q-10 -62 -32 -102t-53 -63t-67.5 -32t-75.5 -9q-21 0 -38 2t-29 4q-14 3 -24 7l25 117q5 -3 13 -5q6 -2 15.5 -3t22.5 -1q39 0 60 20t29 65l66 414h-227l-67 -414q-10 -62 -32 -102t-53 -63t-67.5 -32t-75.5 -9q-21 0 -38 2
t-29 4q-14 3 -24 7l25 117q5 -3 13 -5q6 -2 15.5 -3t22.5 -1q39 0 60 20t29 65l66 414h-62l19 122h62l3 20q9 62 33.5 100t57.5 59t72 28.5t78 7.5q23 0 42.5 -2.5t33.5 -4.5q16 -4 29 -7l-40 -116q-6 2 -14 4q-7 2 -17.5 3.5t-23.5 1.5q-39 0 -63.5 -15.5t-32.5 -63.5
l-2 -15h226l3 20q9 62 33.5 100t57.5 59t72 28.5t78 7.5q23 0 42.5 -2.5t33.5 -4.5q16 -4 29 -7z" />
    <glyph glyph-name=".notdef" horiz-adv-x="685" 
d="M629 706v-705h-513v705h513zM156 637v-571l193 286zM589 68v568l-193 -284zM373 386l190 282h-381zM184 39h377l-188 278z" />
    <glyph glyph-name="glyph1" horiz-adv-x="0" 
 />
    <glyph glyph-name="glyph1" horiz-adv-x="0" 
 />
    <glyph glyph-name="nonmarkingreturn" horiz-adv-x="333" 
 />
    <glyph glyph-name="space" unicode=" " horiz-adv-x="210" 
 />
    <glyph glyph-name="exclam" unicode="!" horiz-adv-x="310" 
d="M117 219l65 512h178l-96 -512h-147zM256 90q0 -20 -5.5 -38.5t-18.5 -32.5t-33 -22t-48 -8q-42 0 -59.5 19t-17.5 50q0 21 6 39.5t18.5 32.5t32.5 22t48 8q42 0 59.5 -20t17.5 -50z" />
    <glyph glyph-name="quotedbl" unicode="&#x22;" horiz-adv-x="413" 
d="M132 463l26 268h139l-58 -268h-107zM321 463l27 268h139l-58 -268h-108z" />
    <glyph glyph-name="numbersign" unicode="#" horiz-adv-x="762" 
d="M408 0l47 177h-132l-47 -177h-135l47 177h-100l16 105h113l35 134h-94l17 105h106l50 187h136l-51 -187h132l50 187h136l-51 -187h102l-17 -105h-114l-36 -134h96l-16 -105h-108l-47 -177h-135zM519 416h-131l-37 -134h132z" />
    <glyph glyph-name="dollar" unicode="$" horiz-adv-x="575" 
d="M220 -94l15 95q-40 3 -71.5 10.5t-54.5 15.5q-26 10 -46 21l48 117q21 -12 48 -22q23 -8 55 -14.5t72 -6.5q66 0 95.5 20.5t29.5 58.5q0 19 -7 32t-19 22.5t-28.5 16.5t-36.5 15q-36 14 -70.5 30t-62 39.5t-44.5 57.5t-17 84q0 88 56 141.5t162 64.5l16 94h114l-15 -95
q32 -4 58.5 -10t45.5 -13q22 -8 39 -16l-37 -111q-19 9 -45 16q-22 6 -53 11t-69 5q-57 0 -89 -17.5t-32 -55.5q0 -15 6 -26.5t20 -21.5t36 -20t55 -23q34 -14 64.5 -29t53.5 -37t36.5 -53.5t13.5 -79.5q0 -94 -54 -149t-157 -69l-17 -102z" />
    <glyph glyph-name="percent" unicode="%" horiz-adv-x="887" 
d="M271 361q-63 0 -103 35.5t-40 110.5q0 45 14.5 84t40 67t61.5 44t79 16q71 0 109 -40.5t38 -109.5q0 -45 -14.5 -82.5t-40.5 -65.5t-62.5 -43.5t-81.5 -15.5zM284 444q33 0 56.5 32.5t23.5 89.5q0 68 -49 68q-33 0 -56.5 -32t-23.5 -91q0 -34 11.5 -49.5t37.5 -17.5z
M160 0l587 707h95l-587 -707h-95zM673 -11q-63 0 -103 35.5t-40 110.5q0 45 14.5 84t40 67t61.5 44t80 16q70 0 108 -40.5t38 -109.5q0 -45 -14 -83t-40.5 -65.5t-63 -43t-81.5 -15.5zM686 72q33 0 56.5 32.5t23.5 89.5q0 68 -48 68q-33 0 -57 -32t-24 -92q0 -33 11.5 -48.5
t37.5 -17.5z" />
    <glyph glyph-name="ampersand" unicode="&#x26;" horiz-adv-x="733" 
d="M732 314h-37q-15 0 -33 1q0 -8 1 -17q0 -8 0.5 -17t0.5 -18q0 -53 -14.5 -102.5t-51 -87.5t-98 -61t-155.5 -23q-74 0 -123.5 14.5t-79.5 39.5t-42.5 58.5t-12.5 72.5q0 58 22 96.5t50 62t55 34.5t38 13q-8 3 -21.5 14t-26 29.5t-21.5 45.5t-9 63q0 42 15.5 80t50 67
t90 46t135.5 17q44 0 77.5 -5t56.5 -10q26 -6 46 -14l-39 -113q-16 6 -36 10q-17 4 -41 7t-53 3q-44 0 -73 -7.5t-46.5 -21t-25 -31t-7.5 -37.5q0 -48 35.5 -67t102.5 -19h34h57t66.5 0.5t63.5 0.5h48h20zM524 318h-136q-66 0 -102 -33.5t-36 -85.5q0 -43 27 -65.5t85 -22.5
q80 0 121 44t41 135v28z" />
    <glyph glyph-name="quotesingle" unicode="'" horiz-adv-x="219" 
d="M130 463l26 268h139l-58 -268h-107z" />
    <glyph glyph-name="parenleft" unicode="(" horiz-adv-x="332" 
d="M147 -235q-20 43 -36 98q-14 48 -24.5 115t-10.5 153q0 74 10 140.5t26 124.5t36.5 108t41.5 91q50 96 115 169l112 -52q-53 -67 -93 -157q-18 -38 -34.5 -85t-29.5 -101.5t-21 -117t-8 -131.5q0 -72 7 -127.5t15 -94.5q10 -46 23 -80z" />
    <glyph glyph-name="parenright" unicode=")" horiz-adv-x="332" 
d="M-1 -182q52 67 93 157q17 38 34 84.5t30 101t21 117t8 131.5q0 72 -7.5 128t-15.5 95q-10 46 -22 80l129 52q20 -43 36 -98q14 -48 25 -115t11 -153q0 -74 -10 -140.5t-26 -124.5t-37 -108t-42 -91q-50 -96 -114 -169z" />
    <glyph glyph-name="asterisk" unicode="*" horiz-adv-x="398" 
d="M322 414l-42 97l-72 -97l-72 58l89 83l-97 23l45 95l88 -42l5 100h99l-26 -100l100 42l15 -95l-105 -23l63 -83z" />
    <glyph glyph-name="plus" unicode="+" horiz-adv-x="601" 
d="M246 63l30 187h-184l20 128h184l29 187h129l-30 -187h184l-21 -128h-183l-29 -187h-129z" />
    <glyph glyph-name="comma" unicode="," horiz-adv-x="266" 
d="M25 -107q8 4 21 16t26.5 27.5t25 32t15.5 30.5q-31 1 -42.5 18.5t-11.5 41.5q0 41 23.5 69t78.5 28q32 0 52.5 -19t20.5 -61q0 -44 -19 -82.5t-43.5 -68.5t-49 -50t-35.5 -26z" />
    <glyph glyph-name="hyphen" unicode="-" horiz-adv-x="384" 
d="M84 220l20 126h285l-20 -126h-285z" />
    <glyph glyph-name="period" unicode="." horiz-adv-x="260" 
d="M231 88q0 -40 -24 -69.5t-78 -29.5q-41 0 -59 19t-18 49q0 41 23.5 69.5t78.5 28.5q41 0 59 -19t18 -48z" />
    <glyph glyph-name="slash" unicode="/" horiz-adv-x="459" 
d="M34 0l355 707h148l-356 -707h-147z" />
    <glyph glyph-name="zero" unicode="0" horiz-adv-x="658" 
d="M430 718q129 0 190 -69.5t61 -195.5q0 -50 -8 -104t-24.5 -105.5t-43.5 -97.5t-65.5 -81t-88.5 -55.5t-114 -20.5q-119 0 -183.5 67t-64.5 196q0 50 7.5 104t24.5 105.5t43.5 98.5t64.5 82t87.5 55.5t113.5 20.5zM421 592q-34 0 -60.5 -17t-45.5 -45.5t-32 -64t-21 -73
t-11.5 -73t-3.5 -63.5q0 -63 23 -102t81 -39q34 0 60 17.5t45 46t32 65t20.5 74.5t11 73.5t3.5 63.5q0 66 -23.5 101.5t-78.5 35.5z" />
    <glyph glyph-name="one" unicode="1" horiz-adv-x="409" 
d="M160 0l89 567l-127 -34l-7 107l219 67h95l-112 -707h-157z" />
    <glyph glyph-name="two" unicode="2" horiz-adv-x="586" 
d="M53 0l9 127q17 10 52.5 31t78.5 50.5t89 65.5t83.5 74.5t61.5 78t24 76.5q0 39 -28.5 64t-94.5 25q-33 0 -62 -5.5t-51 -12.5q-26 -8 -48 -18l-12 114q30 13 66 24q31 9 72 16.5t89 7.5q64 0 108 -15.5t71.5 -41.5t39.5 -60.5t12 -72.5q0 -57 -21.5 -108t-54.5 -94.5
t-73 -78.5t-76 -61t-64 -43t-37 -23l71 7h184l-20 -127h-469z" />
    <glyph glyph-name="three" unicode="3" horiz-adv-x="568" 
d="M77 141q18 -8 41 -13q20 -5 48 -9t63 -4q76 0 123 23t47 77q0 41 -31.5 61.5t-107.5 20.5q-12 0 -24 -0.5t-21 -1.5q-11 -1 -20 -1l20 125q8 -1 17 -1q8 -1 17.5 -1h20.5q35 0 65.5 4.5t53 16t35 30t12.5 47.5q0 42 -30 59.5t-98 17.5q-32 0 -58.5 -3.5t-46.5 -7.5
q-23 -4 -42 -10l-9 116q25 8 58 15q28 6 65.5 11t84.5 5q64 0 109.5 -12t74.5 -34t42.5 -52t13.5 -67q0 -69 -37 -116.5t-102 -70.5q16 -6 33.5 -17.5t31.5 -29.5t23 -43.5t9 -60.5q0 -110 -78.5 -168t-237.5 -58q-47 0 -82 4t-60 9q-29 6 -50 14z" />
    <glyph glyph-name="four" unicode="4" horiz-adv-x="623" 
d="M55 270l371 437h192l-70 -436h93l-19 -123h-93l-23 -148h-158l23 148h-317zM390 271l35 217l15 69l-244 -286h194z" />
    <glyph glyph-name="five" unicode="5" horiz-adv-x="576" 
d="M84 139q16 -8 38 -13q19 -5 46 -9t62 -4q51 0 86 10t56.5 26.5t31 38t9.5 44.5q0 27 -11 45t-31.5 29.5t-49.5 16.5t-64 5q-22 0 -44.5 -1.5t-42 -4t-34.5 -5t-22 -3.5l77 393h414l-21 -127h-267l-26 -134q10 2 24.5 3t31.5 1q45 0 85.5 -11t72 -35t50 -63t18.5 -95
q0 -48 -16.5 -94.5t-55.5 -82.5t-103 -58t-159 -22q-44 0 -78 4t-57 9q-27 5 -48 13z" />
    <glyph glyph-name="six" unicode="6" horiz-adv-x="598" 
d="M581 572q-11 6 -26 10q-13 4 -32 7t-45 3q-90 0 -138.5 -47t-70.5 -129q4 3 17 9t32.5 12t45 11t54.5 5q48 0 83 -14.5t58 -40.5t34 -62t11 -78q0 -54 -18 -102.5t-53.5 -85.5t-89 -59t-125.5 -22q-69 0 -114.5 20.5t-71.5 56.5t-36.5 84t-10.5 102q0 51 8.5 105
t26.5 106t48 98t73 81t100 55.5t131 20.5q35 0 61.5 -4t45.5 -9q22 -6 38 -13zM247 300q-6 -38 -6 -71q0 -50 18.5 -82.5t67.5 -32.5q23 0 44.5 8.5t38 25t26.5 41t10 56.5q0 49 -23 69t-61 20q-19 0 -37.5 -4t-34 -9.5t-27 -11t-16.5 -9.5z" />
    <glyph glyph-name="seven" unicode="7" horiz-adv-x="523" 
d="M76 0l288 497l56 83h-299l20 127h461l-13 -118l-341 -589h-172z" />
    <glyph glyph-name="eight" unicode="8" horiz-adv-x="628" 
d="M520 364q8 -3 24 -13t32.5 -29t29 -48t12.5 -70q0 -51 -21.5 -90.5t-61.5 -67.5t-96.5 -42.5t-125.5 -14.5q-126 0 -185 46t-59 127q0 50 19.5 86.5t45 60.5t50 36.5t34.5 15.5q-7 3 -20.5 13t-27 27.5t-23.5 43.5t-10 61q0 45 18.5 83.5t54.5 67t89.5 45t124.5 16.5
q64 0 108.5 -13t72.5 -35.5t41 -52t13 -62.5q0 -46 -19 -80.5t-43.5 -58.5t-47 -37t-29.5 -15zM344 301q-23 -6 -43.5 -17t-36 -26t-25 -33.5t-9.5 -39.5q0 -35 26 -54.5t75 -19.5q63 0 95.5 27t32.5 68q0 20 -9 34.5t-24.5 25t-36.5 19t-45 16.5zM398 418q48 22 74 49
t26 65q0 35 -24.5 52t-66.5 17q-49 0 -81 -22.5t-32 -67.5q0 -20 8 -34.5t21.5 -25t32.5 -18.5t42 -15z" />
    <glyph glyph-name="nine" unicode="9" horiz-adv-x="598" 
d="M131 135q11 -6 26 -10q13 -4 31.5 -7t44.5 -3q45 0 79.5 12t59.5 35t42.5 55.5t28.5 73.5q-4 -3 -17 -9t-33 -12t-45.5 -11t-54.5 -5q-48 0 -83 14.5t-58 40.5t-34 62t-11 78q0 54 18 102.5t53.5 85.5t89.5 59t126 22q69 0 114 -20.5t71.5 -56.5t37 -84t10.5 -102
q0 -51 -8.5 -105t-27 -106t-48.5 -98t-73 -81t-100.5 -55.5t-130.5 -20.5q-35 0 -61.5 4t-45.5 9q-22 5 -38 13zM465 407q6 37 6 70q0 51 -19 83.5t-68 32.5q-23 0 -44.5 -8.5t-38 -25t-26 -41t-9.5 -56.5q0 -49 22.5 -69t60.5 -20q19 0 37.5 4t34 9.5t27 11t17.5 9.5z" />
    <glyph glyph-name="colon" unicode=":" horiz-adv-x="314" 
d="M258 88q0 -40 -24 -69.5t-78 -29.5q-41 0 -58.5 19t-17.5 49q0 41 23.5 69.5t78.5 28.5q40 0 58 -19t18 -48zM314 442q0 -39 -23.5 -68.5t-78.5 -29.5q-40 0 -58 19t-18 49q0 40 24 69t79 29q40 0 57.5 -19.5t17.5 -48.5z" />
    <glyph glyph-name="semicolon" unicode=";" horiz-adv-x="322" 
d="M321 442q0 -39 -24 -68.5t-79 -29.5q-40 0 -57.5 19t-17.5 49q0 40 23.5 69t78.5 29q40 0 58 -19.5t18 -48.5zM53 -107q8 4 21 16t26.5 27.5t25 32t15.5 30.5q-31 1 -42.5 18.5t-11.5 41.5q0 41 23.5 69t78.5 28q32 0 52.5 -19t20.5 -61q0 -44 -19 -82.5t-44 -68.5
t-49.5 -50t-34.5 -26z" />
    <glyph glyph-name="less" unicode="&#x3c;" horiz-adv-x="580" 
d="M92 209l24 148l482 201l-22 -146l-306 -129l265 -129l-24 -145z" />
    <glyph glyph-name="equal" unicode="=" horiz-adv-x="577" 
d="M113 359l20 126h464l-20 -126h-464zM79 146l20 125h464l-20 -125h-464z" />
    <glyph glyph-name="greater" unicode="&#x3e;" horiz-adv-x="580" 
d="M67 9l23 145l305 129l-264 129l23 146l419 -200l-23 -149z" />
    <glyph glyph-name="question" unicode="?" horiz-adv-x="555" 
d="M188 218q-1 5 -1 9q-1 5 -1 21q0 56 18.5 93t46 62t59.5 41t59.5 31t46 32.5t18.5 44.5q0 30 -26 46.5t-91 16.5q-33 0 -58.5 -4.5t-43.5 -10t-29.5 -10.5t-17.5 -7l-16 121q7 3 25 9t45.5 12.5t63 11.5t78.5 5q112 0 171.5 -42.5t59.5 -130.5q0 -53 -19 -87.5
t-47.5 -58.5t-61.5 -41.5t-61.5 -36t-47.5 -43t-19 -61.5v-16q0 -4 1 -7h-152zM333 89q0 -20 -6 -38t-18.5 -31.5t-32.5 -22t-48 -8.5q-42 0 -59.5 19.5t-17.5 51.5q0 19 5.5 37.5t18 32t32.5 22t48 8.5q42 0 60 -19.5t18 -51.5z" />
    <glyph glyph-name="at" unicode="@" horiz-adv-x="1009" 
d="M445 78q-54 2 -85 39.5t-31 98.5q0 38 12.5 87.5t43 94t82.5 75.5t131 31q34 0 66.5 -6t57.5 -13q29 -8 55 -18l-69 -230q-2 -7 -3 -12.5t-1 -11.5q0 -41 45 -41q36 0 61.5 24.5t42 60.5t24 77t7.5 74q0 41 -13 80t-44 69.5t-81.5 49t-126.5 18.5q-103 0 -178.5 -34.5
t-125 -91t-74 -129.5t-24.5 -149q0 -56 14 -104.5t48.5 -85.5t92 -58t143.5 -21q44 0 78 4.5t58 10.5q28 7 49 16l12 -112q-27 -10 -61 -17q-29 -7 -69.5 -12t-90.5 -5q-108 0 -184.5 30t-125 81.5t-71.5 120.5t-23 147q0 98 33.5 192.5t100.5 168.5t168 119t236 45
q107 0 181.5 -28.5t121 -74.5t67 -105t20.5 -120q0 -63 -20 -125t-57.5 -111.5t-90 -80t-116.5 -30.5q-48 0 -74 14t-40 31q-16 20 -20 46l-9.5 -12.5t-28.5 -27.5t-47.5 -27t-66.5 -12zM496 183q15 0 28 6t24 14.5t20.5 19t15.5 19.5l48 158q-8 2 -18 4q-8 2 -18 3t-20 1
q-35 0 -58.5 -19.5t-37 -47t-19 -56.5t-5.5 -48q0 -24 9 -38.5t31 -15.5z" />
    <glyph glyph-name="A" unicode="A" 
d="M569 707l129 -707h-159l-27 161h-250l-78 -161h-163l353 707h195zM417 482l-104 -205h183l-38 205l-7 83z" />
    <glyph glyph-name="B" unicode="B" horiz-adv-x="675" 
d="M68 0l112 707h283q51 0 93 -8t72 -26t46.5 -46.5t16.5 -70.5q0 -27 -6.5 -55t-20.5 -52.5t-37.5 -45t-56.5 -33.5q48 -15 71 -51t23 -86q0 -108 -74 -170.5t-231 -62.5h-291zM367 121q42 0 69 8.5t42.5 23.5t21.5 35.5t6 44.5q0 37 -25 53.5t-86 16.5h-121l-29 -182h122z
M406 413q72 0 101.5 27.5t29.5 80.5q0 36 -24.5 51t-78.5 15h-115l-28 -174h115z" />
    <glyph glyph-name="C" unicode="C" horiz-adv-x="621" 
d="M506 586q-56 0 -102 -19t-79 -54t-51 -84t-18 -109q0 -54 15 -92t41 -61.5t61 -34.5t76 -11q26 0 47 3t37 8q18 5 34 12l9 -127q-17 -8 -40 -14q-20 -5 -49.5 -9.5t-69.5 -4.5q-163 0 -243.5 83.5t-80.5 231.5q0 88 27.5 163.5t79.5 131t127 87.5t170 32q42 0 75.5 -5.5
t56.5 -11.5q27 -8 48 -17l-45 -124l-9 4t-25.5 9t-40 9t-51.5 4z" />
    <glyph glyph-name="D" unicode="D" horiz-adv-x="718" 
d="M180 707h257q84 0 142 -21t93 -58.5t50.5 -88.5t15.5 -111q0 -52 -8 -104.5t-27 -100t-50 -88.5t-77 -71t-108 -47t-143 -17h-257zM368 131q54 0 93.5 23.5t65 62t38 89t12.5 104.5q0 36 -7.5 67t-24 53t-43 34.5t-64.5 12.5h-120l-71 -446h121z" />
    <glyph glyph-name="E" unicode="E" horiz-adv-x="627" 
d="M68 0l112 707h502l-20 -130h-344l-25 -155h297l-20 -131h-298l-25 -160h344l-21 -131h-502z" />
    <glyph glyph-name="F" unicode="F" horiz-adv-x="608" 
d="M269 268l-43 -268h-158l112 707h494l-20 -130h-336l-28 -179h292l-21 -130h-292z" />
    <glyph glyph-name="G" unicode="G" horiz-adv-x="678" 
d="M512 585q-65 0 -114 -23t-81.5 -61.5t-49 -89t-16.5 -104.5q0 -52 15 -87.5t41.5 -57.5t61.5 -31.5t75 -9.5h20t19 1l36 227h152l-52 -326q-24 -10 -55 -17q-26 -7 -62 -12t-80 -5q-85 0 -147 22.5t-102.5 63t-60 97.5t-19.5 126q0 89 28.5 165.5t82 133t130.5 89
t174 32.5q44 0 80.5 -5.5t62.5 -12.5q31 -8 56 -17l-43 -126q-20 8 -45 14q-21 5 -48.5 9.5t-58.5 4.5z" />
    <glyph glyph-name="H" unicode="H" horiz-adv-x="734" 
d="M508 0l44 279h-282l-44 -279h-158l112 707h158l-45 -286h282l45 286h158l-112 -707h-158z" />
    <glyph glyph-name="I" unicode="I" horiz-adv-x="299" 
d="M70 0l112 707h159l-112 -707h-159z" />
    <glyph glyph-name="J" unicode="J" horiz-adv-x="438" 
d="M329 707h158l-77 -482q-8 -52 -25 -95t-46 -74.5t-71.5 -49t-102.5 -17.5q-33 0 -57.5 5t-41.5 12q-19 7 -32 17l40 118q7 -7 18 -11q9 -5 22.5 -8t31.5 -3q51 0 75 27t32 80z" />
    <glyph glyph-name="K" unicode="K" horiz-adv-x="684" 
d="M478 0l-161 275h-47l-44 -275h-158l112 707h158l-48 -305q22 3 33 6q6 2 9 4q12 12 29 30.5t37 41.5t41.5 48.5t42.5 50.5q48 58 102 124h176q-6 -11 -26 -37t-48 -59.5t-60.5 -72t-64.5 -75t-60 -68.5t-46 -53l197 -342h-174z" />
    <glyph glyph-name="L" unicode="L" horiz-adv-x="558" 
d="M68 0l112 707h158l-91 -573h291l-21 -134h-449z" />
    <glyph glyph-name="M" unicode="M" horiz-adv-x="903" 
d="M398 707l101 -402l229 402h179l-57 -707h-158l33 402l13 88l-209 -364h-111l-98 358l-13 -82l-94 -402h-161l167 707h179z" />
    <glyph glyph-name="N" unicode="N" horiz-adv-x="739" 
d="M518 0l-231 445l-7 -79l-58 -366h-154l112 707h150l232 -458l8 81l60 377h153l-112 -707h-153z" />
    <glyph glyph-name="O" unicode="O" horiz-adv-x="762" 
d="M387 -11q-66 0 -120 18.5t-92.5 55.5t-60 92.5t-21.5 130.5q0 97 28 176.5t79 136.5t122 88t156 31q78 0 135.5 -22t94.5 -61t55 -94t18 -121q0 -95 -27 -174t-78 -136t-124 -89t-165 -32zM252 296q0 -38 8 -70.5t26 -56.5t47.5 -37.5t71.5 -13.5q46 0 86 20.5t69.5 59
t46.5 93.5t17 124q0 86 -40 129t-117 43q-45 0 -84 -19.5t-68.5 -57t-46 -91.5t-16.5 -123z" />
    <glyph glyph-name="P" unicode="P" horiz-adv-x="671" 
d="M68 0l112 707h281q68 0 114.5 -15t74.5 -40.5t40 -60.5t12 -75q0 -51 -13.5 -103t-48.5 -93.5t-97.5 -68t-159.5 -26.5h-121l-36 -225h-158zM398 355q41 0 68.5 10t44 28t23.5 43.5t7 55.5q0 38 -23 61.5t-84 23.5h-116l-36 -222h116z" />
    <glyph glyph-name="Q" unicode="Q" horiz-adv-x="762" 
d="M552 -201q-12 -5 -40.5 -9.5t-57.5 -4.5q-50 0 -80 16.5t-46 41t-20 53.5t-2 54q0 14 2.5 26t4.5 20q-101 18 -160.5 90t-59.5 200q0 97 28 176.5t79 136.5t122 88t156 31q78 0 135.5 -22t94.5 -61t55 -94t18 -121q0 -90 -24.5 -166.5t-70.5 -132.5t-113 -90t-151 -40
q-4 -41 15.5 -61t59.5 -20q28 0 46 5q10 2 17 5zM252 296q0 -38 8 -70.5t26 -56.5t47.5 -37.5t71.5 -13.5q46 0 86 20.5t69.5 59t46.5 93.5t17 124q0 86 -40 129t-117 43q-45 0 -84 -19.5t-68.5 -57t-46 -91.5t-16.5 -123z" />
    <glyph glyph-name="R" unicode="R" horiz-adv-x="687" 
d="M469 707q68 0 114.5 -13.5t74.5 -38.5t40 -59t12 -74q0 -42 -9 -81t-29.5 -72t-53 -59t-78.5 -42l103 -268h-163l-92 245h-123l-39 -245h-158l112 707h289zM285 370h114q84 0 116.5 32.5t32.5 93.5q0 39 -25 60.5t-92 21.5h-113z" />
    <glyph glyph-name="S" unicode="S" horiz-adv-x="595" 
d="M102 177q25 -18 56 -31q26 -11 62 -20.5t81 -9.5q56 0 89 19.5t33 60.5q0 36 -26.5 53t-69.5 34q-44 17 -82 34.5t-67 41.5t-45.5 58t-16.5 84q0 104 72.5 160.5t207.5 56.5q54 0 95.5 -8t70.5 -18q33 -11 58 -25l-49 -114q-18 10 -43 19q-21 8 -52 14t-72 6
q-58 0 -94 -17t-36 -60q0 -15 6 -25.5t20.5 -20.5t39.5 -21.5t64 -27.5q40 -17 73.5 -34t57 -40t36.5 -54.5t13 -76.5q0 -104 -72.5 -165t-214.5 -61q-63 0 -109 10t-77 22q-36 14 -61 33z" />
    <glyph glyph-name="T" unicode="T" horiz-adv-x="629" 
d="M235 0l90 569h-214l22 138h587l-22 -138h-214l-90 -569h-159z" />
    <glyph glyph-name="U" unicode="U" 
d="M610 707h157l-65 -414q-12 -74 -36 -131t-65 -95.5t-101 -58t-143 -19.5q-129 0 -191.5 57t-62.5 168q0 19 1.5 38.5t5.5 40.5l66 414h157l-66 -419q-2 -15 -3.5 -29.5t-1.5 -27.5q0 -52 25.5 -82t90.5 -30q40 0 69 12t48 34.5t30.5 53.5t17.5 69z" />
    <glyph glyph-name="V" unicode="V" horiz-adv-x="693" 
d="M288 707l71 -474l9 -91l37 91l221 474h163l-342 -707h-201l-117 707h159z" />
    <glyph glyph-name="W" unicode="W" horiz-adv-x="987" 
d="M292 707l23 -444l1 -97l33 95l185 446h140l43 -446l5 -95l30 95l163 446h167l-284 -707h-173l-46 392l-9 99l-37 -97l-171 -394h-173l-60 707h163z" />
    <glyph glyph-name="X" unicode="X" horiz-adv-x="736" 
d="M532 0l-123 233l-199 -233h-181l301 355l-178 352h174l115 -245l199 245h177l-301 -363l191 -344h-175z" />
    <glyph glyph-name="Y" unicode="Y" horiz-adv-x="676" 
d="M259 0l41 256l-176 451h164l92 -257l16 -62l37 64l169 255h174l-317 -450l-42 -257h-158z" />
    <glyph glyph-name="Z" unicode="Z" horiz-adv-x="642" 
d="M52 0l21 131l413 450l-72 -4h-261l20 130h524l-21 -130l-415 -451l75 4h276l-21 -130h-539z" />
    <glyph glyph-name="bracketleft" unicode="[" horiz-adv-x="378" 
d="M46 -189l152 960h262l-21 -134h-115l-110 -693h112l-20 -133h-260z" />
    <glyph glyph-name="backslash" unicode="\" horiz-adv-x="459" 
d="M278 0l-132 707h148l131 -707h-147z" />
    <glyph glyph-name="bracketright" unicode="]" horiz-adv-x="378" 
d="M12 -189l21 133h112l111 693h-116l22 134h261l-151 -960h-260z" />
    <glyph glyph-name="asciicircum" unicode="^" horiz-adv-x="566" 
d="M448 440l-72 161l-121 -161h-145l215 291h145l122 -291h-144z" />
    <glyph glyph-name="underscore" unicode="_" horiz-adv-x="553" 
d="M-32 -176l21 126h561l-20 -126h-562z" />
    <glyph glyph-name="grave" unicode="`" horiz-adv-x="322" 
d="M255 592l-99 167h160l64 -167h-125z" />
    <glyph glyph-name="a" unicode="a" horiz-adv-x="595" 
d="M534 0h-125l-5 73q-5 -6 -17 -20t-32.5 -28.5t-49 -25t-64.5 -10.5q-75 0 -122 52.5t-47 158.5q0 67 20 128.5t60.5 108t101 74t140.5 27.5q42 0 81.5 -7t70.5 -15q36 -10 68 -21zM445 407q-11 3 -23 6q-11 2 -23.5 4t-25.5 2q-37 0 -64.5 -17t-45.5 -45t-27 -63.5
t-9 -72.5q0 -31 5.5 -51.5t15.5 -33t23 -17.5t27 -5q22 0 41.5 12t34.5 27.5t25.5 31t14.5 22.5z" />
    <glyph glyph-name="b" unicode="b" horiz-adv-x="593" 
d="M174 731h155l-32 -206l-16 -62q9 12 23 25t33.5 24t44.5 18.5t56 7.5q36 0 66.5 -14t53 -41t35 -66.5t12.5 -90.5q0 -67 -20 -128t-60.5 -107.5t-101 -74t-141.5 -27.5q-42 0 -81.5 6.5t-70.5 14.5q-36 10 -67 22zM232 120q11 -3 23 -6q11 -2 23 -4t26 -2q37 0 64.5 17
t45.5 45t27 63.5t9 72.5q0 31 -6 51.5t-15.5 33t-22.5 17.5t-27 5q-23 0 -42.5 -12t-34.5 -27.5t-25.5 -31t-14.5 -22.5z" />
    <glyph glyph-name="c" unicode="c" horiz-adv-x="494" 
d="M486 394q-12 6 -26 11q-12 4 -29 7.5t-37 3.5q-38 0 -69 -13.5t-52.5 -37.5t-33 -57t-11.5 -73q0 -68 33.5 -96.5t92.5 -28.5q20 0 37 2.5t28 5.5q13 4 24 9l10 -114q-15 -7 -35 -12q-17 -5 -42.5 -8.5t-58.5 -3.5q-56 0 -101 13.5t-77 41.5t-49.5 72t-17.5 105
q0 68 21.5 126t61.5 100.5t98 66.5t130 24q34 0 60.5 -5t45.5 -10q22 -7 39 -15l-42 -114v0z" />
    <glyph glyph-name="d" unicode="d" horiz-adv-x="594" 
d="M409 0l-5 73q-6 -8 -18.5 -22t-33 -27.5t-49 -24t-64.5 -10.5q-35 0 -65.5 13t-53 39.5t-35.5 65.5t-13 91q0 66 20 127.5t60.5 109t100.5 75.5t140 28q20 0 38 -2t35 -5l2 27l27 173h155l-116 -731h-125zM445 407q-11 3 -23 6q-11 2 -23.5 4t-25.5 2q-37 0 -64.5 -17
t-45.5 -45t-27 -63.5t-9 -72.5q0 -31 5.5 -51.5t15.5 -33t23 -17.5t27 -5q22 0 41.5 12t34.5 27.5t25.5 31t14.5 22.5z" />
    <glyph glyph-name="e" unicode="e" horiz-adv-x="545" 
d="M383 538q92 0 137 -42t45 -106q0 -38 -17 -70.5t-53 -56.5t-91.5 -37.5t-132.5 -13.5h-20t-21 1q0 -4 -0.5 -7.5t-0.5 -6.5q0 -47 25.5 -69t80.5 -22q30 0 57 5t47 12q24 8 43 18l17 -111q-23 -12 -51 -22q-25 -8 -59 -14.5t-78 -6.5q-123 0 -180 60t-57 162
q0 66 21.5 125.5t61.5 104t97.5 71t128.5 26.5zM241 308q82 0 130.5 17t48.5 55q0 20 -14.5 34t-43.5 14q-42 0 -76 -31.5t-45 -88.5z" />
    <glyph glyph-name="f" unicode="f" horiz-adv-x="416" 
d="M479 612q-6 2 -14 4q-7 2 -17.5 3.5t-23.5 1.5q-39 0 -63.5 -15.5t-32.5 -63.5l-2 -15h138l-19 -122h-139l-67 -414q-10 -62 -32 -102t-53 -63t-67.5 -32t-75.5 -9q-21 0 -38 2t-29 4q-14 3 -24 7l25 117q5 -3 13 -5q6 -2 15.5 -3t22.5 -1q39 0 60 20t29 65l66 414h-62
l19 122h62l3 20q9 62 33.5 100t57.5 59t72 28.5t78 7.5q23 0 42.5 -2.5t33.5 -4.5q16 -4 29 -7l-40 -116v0z" />
    <glyph glyph-name="g" unicode="g" horiz-adv-x="595" 
d="M540 26q-3 -20 -10 -45.5t-20.5 -52.5t-35 -52.5t-54 -45.5t-78 -32.5t-105.5 -12.5q-37 0 -65 4t-48 9q-23 5 -40 13l26 113q15 -7 33 -11q16 -4 37.5 -7t47.5 -3q78 0 117 33t45 92l5 46q-9 -12 -23 -25.5t-34 -25t-45.5 -19t-57.5 -7.5q-34 0 -63.5 12t-51.5 36.5
t-35 63t-13 91.5q0 67 20 128.5t60.5 108t101 74t140.5 27.5q42 0 81.5 -7t70.5 -15q36 -10 68 -21zM445 407q-11 3 -23 6q-11 2 -23.5 4t-25.5 2q-38 0 -65.5 -17t-45.5 -45t-26.5 -62.5t-8.5 -69.5q0 -30 5.5 -49.5t15.5 -31.5t22.5 -17t27.5 -5q22 0 41.5 10.5t34.5 25
t25.5 28.5t14.5 21z" />
    <glyph glyph-name="h" unicode="h" horiz-adv-x="605" 
d="M331 731l-34 -216l-13 -60q7 8 22.5 22t38.5 27.5t53.5 23.5t68.5 10q70 0 106 -39.5t36 -108.5q0 -25 -4 -48l-54 -342h-155l52 328q1 7 1.5 13t0.5 11q0 61 -55 61q-26 0 -48.5 -13t-40.5 -28q-21 -18 -39 -40l-52 -332h-155l116 731h155z" />
    <glyph glyph-name="i" unicode="i" horiz-adv-x="275" 
d="M60 0l83 527h155l-83 -527h-155zM334 678q0 -38 -23.5 -65.5t-78.5 -27.5q-41 0 -58.5 18t-17.5 47q0 38 23.5 65t78.5 27q41 0 58.5 -17.5t17.5 -46.5z" />
    <glyph glyph-name="j" unicode="j" horiz-adv-x="281" 
d="M-61 -87q5 -2 12 -4q6 -2 13.5 -3t18.5 -1q34 0 54 19t28 65l85 538h154l-85 -536q-33 -206 -220 -206q-35 0 -60 5q-13 2 -23 5zM340 678q0 -38 -23.5 -65.5t-78.5 -27.5q-41 0 -58.5 18t-17.5 47q0 38 23.5 65t78.5 27q41 0 58.5 -17.5t17.5 -46.5z" />
    <glyph glyph-name="k" unicode="k" horiz-adv-x="579" 
d="M397 0l-121 210h-28l-33 -210h-155l116 731h155l-66 -415q12 3 19 4.5t15 4.5q6 6 16.5 17.5t23.5 26.5t27.5 32.5t29.5 35.5q33 41 73 90h168q-7 -14 -34.5 -48.5t-62 -75t-69 -79.5t-55.5 -63l150 -261h-169z" />
    <glyph glyph-name="l" unicode="l" horiz-adv-x="334" 
d="M314 14q-14 -8 -32 -13q-16 -5 -38 -8.5t-48 -3.5q-64 0 -91.5 34.5t-27.5 88.5q0 11 1 22.5t3 22.5l91 574h155l-88 -560q-3 -15 -3 -27q0 -38 33 -38q8 0 16 1t15 3q8 2 15 5z" />
    <glyph glyph-name="m" unicode="m" horiz-adv-x="915" 
d="M268 527l6 -73q16 24 41 42q21 16 54 29t78 13q54 0 89 -23t50 -65q6 7 20.5 21.5t37.5 29.5t55 26t71 11q72 0 110.5 -40t38.5 -111q0 -11 -1 -22t-3 -23l-54 -342h-155l52 328q1 6 1.5 12t0.5 11q0 32 -15.5 47t-41.5 15q-25 0 -46 -13.5t-36 -30.5q-18 -19 -32 -44
l-51 -325h-155l53 338q0 4 0.5 7t0.5 6q0 31 -15.5 46.5t-41.5 15.5t-46.5 -13.5t-35.5 -30.5q-18 -19 -32 -44l-51 -325h-155l83 527h125z" />
    <glyph glyph-name="n" unicode="n" horiz-adv-x="605" 
d="M268 527l6 -73q20 24 48 42q23 16 58 29t80 13q72 0 110.5 -40t38.5 -111q0 -11 -1 -22t-3 -23l-54 -342h-155l52 328q1 6 1.5 12t0.5 11q0 32 -15.5 47t-41.5 15t-49 -13.5t-40 -30.5q-20 -19 -38 -44l-51 -325h-155l83 527h125z" />
    <glyph glyph-name="o" unicode="o" horiz-adv-x="596" 
d="M305 -11q-52 0 -95 14.5t-73.5 43t-47.5 72t-17 101.5q0 71 21 129.5t59 100.5t92 65t120 23q124 0 184 -60t60 -170q0 -69 -20.5 -127.5t-59 -101t-95 -66.5t-128.5 -24zM227 221q0 -51 21.5 -81.5t71.5 -30.5q31 0 56 15t42.5 41.5t26.5 63t9 79.5q0 53 -21.5 81.5
t-73.5 28.5q-31 0 -55.5 -15t-41.5 -41t-26 -62.5t-9 -78.5z" />
    <glyph glyph-name="p" unicode="p" horiz-adv-x="594" 
d="M269 527l5 -73q6 7 18.5 21.5t33 28t49 24t64.5 10.5q35 0 65.5 -13.5t53 -39.5t35.5 -65t13 -91q0 -66 -20 -127.5t-60.5 -109t-100.5 -75.5t-140 -28q-20 0 -38 2t-35 5l-2 -27l-27 -173h-155l116 731h125zM233 120q11 -3 23 -6q11 -2 23.5 -4t25.5 -2q37 0 64.5 17
t45.5 45t27 63.5t9 72.5q0 31 -6 51.5t-15.5 33t-22.5 17.5t-27 5q-22 0 -41.5 -12t-34.5 -27.5t-25.5 -31t-14.5 -22.5z" />
    <glyph glyph-name="q" unicode="q" horiz-adv-x="595" 
d="M503 -204h-155l32 206l16 62q-9 -12 -23 -25t-33.5 -24t-44.5 -18.5t-56 -7.5q-36 0 -66.5 14t-53 41t-35 66.5t-12.5 90.5q0 67 20 128t60.5 107.5t101 74t141.5 27.5q42 0 81 -7t70 -15q36 -10 68 -21zM445 407q-11 3 -23 6q-11 2 -23.5 4t-25.5 2q-37 0 -64.5 -17
t-45.5 -45t-27 -63.5t-9 -72.5q0 -31 5.5 -51.5t15.5 -33t23 -17.5t27 -5q22 0 42 12t35 27.5t25.5 31t14.5 22.5z" />
    <glyph glyph-name="r" unicode="r" horiz-adv-x="402" 
d="M268 527l7 -74q10 13 27.5 27.5t41.5 27.5t54 21.5t66 8.5l-27 -137q-2 0 -6 1q-3 0 -8.5 0.5t-12.5 0.5q-33 0 -59.5 -12t-45.5 -26q-22 -17 -39 -37l-51 -328h-155l83 527h125z" />
    <glyph glyph-name="s" unicode="s" horiz-adv-x="495" 
d="M99 148q19 -12 44 -22q21 -8 49.5 -14.5t63.5 -6.5q74 0 74 40q0 11 -5.5 18.5t-16.5 13t-27 10.5t-37 13q-31 11 -57.5 25t-45.5 33.5t-29.5 46t-10.5 63.5q0 76 55 123t174 47q48 0 81.5 -7t55 -15t31.5 -14t10 -5l-42 -111q0 -1 -9 4.5t-26 12t-42.5 12t-59.5 5.5
q-79 0 -79 -38q0 -13 7.5 -22t20.5 -15.5t29 -12t34 -11.5q36 -13 62.5 -27.5t44 -33.5t25.5 -43t8 -55q0 -85 -58.5 -129t-170.5 -44q-50 0 -87 7t-61.5 16t-36.5 16.5t-12 8.5z" />
    <glyph glyph-name="t" unicode="t" horiz-adv-x="416" 
d="M384 16q-17 -8 -36 -14q-17 -5 -40 -9t-52 -4q-71 0 -110 32.5t-39 104.5q0 11 1 23.5t3 26.5l37 229h-61l18 122h65l40 136h135l-22 -136h135l-24 -122h-128l-37 -229q-1 -5 -1.5 -9.5t-0.5 -8.5q0 -45 55 -45q27 0 46 7q10 3 17 7z" />
    <glyph glyph-name="u" unicode="u" horiz-adv-x="605" 
d="M293 527l-52 -328q-1 -6 -1.5 -12t-0.5 -11q0 -32 15.5 -47t41.5 -15q25 0 48.5 13.5t40.5 30.5q20 19 38 44l51 325h155l-83 -527h-125l-6 73q-21 -24 -48 -42q-24 -16 -58.5 -29t-79.5 -13q-72 0 -110.5 40t-38.5 111q0 11 1 22t3 23l54 342h155z" />
    <glyph glyph-name="v" unicode="v" horiz-adv-x="559" 
d="M252 527l39 -295l3 -121l41 121l133 295h160l-248 -527h-201l-82 527h155z" />
    <glyph glyph-name="w" unicode="w" horiz-adv-x="837" 
d="M247 527l24 -285l-2 -130l41 131l118 284h143l29 -286v-129l40 131l112 284h161l-226 -527h-179l-26 205l-7 154l-55 -154l-90 -205h-179l-61 527h157z" />
    <glyph glyph-name="x" unicode="x" horiz-adv-x="545" 
d="M247 527l77 -165l130 165h165l-214 -266l131 -261h-157l-78 161l-129 -161h-165l215 262l-131 265h156z" />
    <glyph glyph-name="y" unicode="y" horiz-adv-x="558" 
d="M22 -86q6 -3 15 -5q7 -2 17 -3t21 -1q31 0 52.5 11t36 26.5t22.5 32t14 27.5l-102 525h160l36 -284l2 -113l174 397h157l-279 -543q-25 -49 -51.5 -86.5t-57.5 -62.5t-68.5 -37.5t-85.5 -12.5q-22 0 -38 2t-27 4q-13 3 -22 7z" />
    <glyph glyph-name="z" unicode="z" horiz-adv-x="527" 
d="M139 527h422l-16 -119l-288 -288l56 3h185l-19 -123h-432l19 119l286 288l-54 -3h-176z" />
    <glyph glyph-name="braceleft" unicode="{" horiz-adv-x="379" 
d="M338 -75q-2 -14 -5.5 -34t-6.5 -39q-4 -22 -8 -46q-55 0 -93.5 9.5t-62.5 28.5t-35 46.5t-11 63.5q0 11 1 23.5t3 26.5l21 132q1 7 1.5 13.5t0.5 12.5q0 30 -16 51.5t-58 21.5l17 105q25 0 43 8.5t30.5 22.5t19.5 31.5t10 36.5l21 133q8 48 24 85t45.5 62t76 38t115.5 13
q-3 -24 -7 -46q-3 -19 -6 -39.5t-5 -34.5q-26 0 -43 -5.5t-28 -16.5t-17 -28t-10 -40l-22 -135q-9 -58 -39 -90t-71 -48q30 -13 50 -38t20 -68q0 -15 -3 -31l-21 -134q-3 -20 -3 -34q0 -29 15 -43t57 -14z" />
    <glyph glyph-name="bar" unicode="|" horiz-adv-x="357" 
d="M80 -204l150 946h133l-150 -946h-133z" />
    <glyph glyph-name="braceright" unicode="}" horiz-adv-x="379" 
d="M0 -194q3 24 7 46q3 19 6 39t5 34q25 0 42.5 5.5t28.5 17t17 28.5t10 40l21 134q9 58 39 90t71 48q-30 13 -50 38t-20 68q0 14 3 31l22 135q3 18 3 33q0 29 -15.5 43t-56.5 14q2 14 5 34.5t6 39.5q4 22 8 46q58 0 97 -9t62.5 -26.5t33.5 -43.5t10 -60q0 -14 -1.5 -28.5
t-3.5 -30.5l-21 -133q-1 -6 -1.5 -12.5t-0.5 -12.5q0 -30 16 -52t58 -22l-17 -105q-25 0 -43 -8.5t-30.5 -22.5t-19.5 -31.5t-10 -36.5l-21 -132q-8 -48 -23.5 -85t-45 -62t-76 -38t-115.5 -13z" />
    <glyph glyph-name="asciitilde" unicode="~" horiz-adv-x="590" 
d="M86 190q-2 8 -2.5 21t-0.5 22q0 33 10 63t30 52t49 35t68 13q36 0 63.5 -11.5t49 -25t39.5 -25t35 -11.5q20 0 29 14t9 33q0 7 -0.5 14t-1.5 9h134q1 -7 1 -15.5v-16.5q0 -39 -10.5 -70.5t-31 -54.5t-49 -35.5t-64.5 -12.5t-62.5 11.5t-48.5 25t-39.5 25t-35.5 11.5
q-19 0 -28.5 -13.5t-9.5 -35.5q0 -6 0.5 -11.5t1.5 -10.5h-135z" />
    <glyph glyph-name="uni00A0" unicode="&#xa0;" horiz-adv-x="210" 
 />
    <glyph glyph-name="exclamdown" unicode="&#xa1;" horiz-adv-x="310" 
d="M34 -204l96 512h148l-66 -512h-178zM320 469q0 -21 -6 -39.5t-18.5 -32.5t-32.5 -22t-48 -8q-42 0 -59.5 20t-17.5 50q0 20 5.5 38.5t18 32.5t32.5 22t48 8q42 0 60 -19t18 -50z" />
    <glyph glyph-name="cent" unicode="&#xa2;" horiz-adv-x="523" 
d="M453 613q23 -3 41.5 -7t31.5 -9q15 -5 26 -11l-42 -114q-12 6 -26 10q-12 4 -29 7.5t-38 3.5q-76 0 -120.5 -45.5t-44.5 -123.5q0 -34 9 -56.5t25.5 -36t40 -19t53.5 -5.5q23 0 39 2.5t27 6.5q12 4 21 9l10 -115q-12 -6 -28 -10q-14 -4 -33.5 -7.5t-45.5 -5.5l-14 -87
h-115l14 93q-74 16 -116.5 67t-42.5 149q0 60 16.5 110.5t48 89.5t76 65t101.5 36l15 97h115z" />
    <glyph glyph-name="sterling" unicode="&#xa3;" horiz-adv-x="616" 
d="M573 61q-27 -33 -66.5 -47t-78.5 -14q-26 0 -48.5 5t-45 11t-45 11t-46.5 5q-25 0 -44 -5t-33 -11q-16 -7 -29 -16l-52 131q26 17 47.5 62t34.5 107h-72l17 114h75q0 6 1 10q0 4 0.5 7.5t0.5 5.5q13 139 83 210t211 71q37 0 66.5 -4t49.5 -9q24 -5 42 -12l-42 -121
q-13 4 -29 8q-14 3 -33 6t-42 3q-61 0 -98.5 -24.5t-47.5 -87.5q-3 -15 -5 -38q-1 -12 -2 -25h164l-18 -114h-171q-11 -48 -28 -86t-39 -64q6 2 18 4t27 2q21 0 39.5 -4t36 -8.5t35 -8.5t37.5 -4q21 0 36 5t26 12q12 8 21 18z" />
    <glyph glyph-name="currency" unicode="&#xa4;" horiz-adv-x="656" 
d="M534 58l-82 103q-50 -21 -112 -21q-53 0 -90 18l-110 -100l-81 95l111 91q-5 13 -8.5 30.5t-3.5 36.5q0 44 12.5 79.5t34.5 66.5l-83 91l110 94l80 -102q46 20 102 20t97 -22l115 104l81 -94l-119 -96q10 -28 10 -65q0 -73 -41 -138l87 -96zM364 259q45 0 72 27.5
t27 86.5q0 32 -16.5 50.5t-52.5 18.5q-48 0 -74.5 -30.5t-26.5 -81.5q0 -35 16.5 -53t54.5 -18z" />
    <glyph glyph-name="yen" unicode="&#xa5;" horiz-adv-x="666" 
d="M434 128l-20 -128h-161l20 128h-169l14 90h170l8 56h-169l14 89h138l-137 344h171l86 -280l171 280h177l-245 -344h136l-15 -89h-166l-8 -56h166l-15 -90h-166z" />
    <glyph glyph-name="brokenbar" unicode="&#xa6;" horiz-adv-x="357" 
d="M80 -204l60 380h133l-60 -380h-133zM170 362l60 380h133l-60 -380h-133z" />
    <glyph glyph-name="section" unicode="&#xa7;" horiz-adv-x="609" 
d="M95 -52q19 -10 45 -18q22 -7 54 -12t73 -5q122 0 122 70q0 17 -7 29t-20.5 21.5t-33.5 17.5l-45 18q-30 12 -62 26.5t-58.5 36.5t-44 53.5t-17.5 77.5q0 31 8 56t21.5 43.5t30.5 32t35 22.5q-23 25 -36.5 56.5t-13.5 73.5q0 94 69.5 144.5t205.5 50.5q50 0 87 -6t62 -13
q29 -8 50 -18l-40 -119q-19 8 -44 14q-21 5 -50 10t-64 5q-57 0 -88.5 -16t-31.5 -51q0 -16 7 -27t21.5 -21t37 -19t53.5 -21q26 -10 56 -23.5t55.5 -35t42.5 -52.5t17 -76q0 -54 -26 -90.5t-66 -59.5q23 -23 36 -53t13 -72q0 -47 -16.5 -86t-51.5 -67.5t-88.5 -44
t-128.5 -15.5q-51 0 -89 6t-65 14q-32 9 -55 20zM341 334q-9 3 -17 6t-16 7q-20 -11 -34.5 -27t-14.5 -40q0 -17 8 -29t22.5 -21.5t33.5 -17.5t41 -16q5 -2 10 -3.5t10 -3.5q23 10 35.5 26.5t12.5 38.5q0 33 -26.5 49.5t-64.5 30.5z" />
    <glyph glyph-name="dieresis" unicode="&#xa8;" horiz-adv-x="444" 
d="M296 686q0 -36 -20.5 -62.5t-69.5 -26.5q-35 0 -50 17t-15 43q0 37 20.5 63t68.5 26q35 0 50.5 -17t15.5 -43zM517 685q0 -35 -21.5 -61.5t-68.5 -26.5q-36 0 -51 16.5t-15 43.5q0 36 20 62.5t69 26.5q35 0 51 -17.5t16 -43.5z" />
    <glyph glyph-name="copyright" unicode="&#xa9;" horiz-adv-x="827" 
d="M511 742q80 0 142.5 -22t105 -62.5t65 -99t22.5 -131.5q0 -102 -32.5 -183t-89 -138t-133 -87t-164.5 -30q-70 0 -131 20.5t-106 60t-70.5 99t-25.5 137.5q0 102 33 183t89.5 137t132.5 86t162 30zM500 638q-62 0 -116.5 -21t-95 -62.5t-64 -102t-23.5 -138.5
q0 -50 15 -91t45 -70t74.5 -45t102.5 -16q62 0 116.5 21.5t95.5 63.5t64.5 103t23.5 139q0 106 -60 162.5t-178 56.5zM572 453q0 -1 -18 6t-45 7q-54 0 -86.5 -32t-32.5 -92q0 -39 23 -59.5t62 -20.5q28 0 50 5.5t22 6.5v-89q-7 -3 -33.5 -9.5t-59.5 -6.5q-78 0 -125.5 40
t-47.5 119q0 52 16 95t45 73.5t69.5 47t90.5 16.5q35 0 60.5 -6.5t38.5 -11.5z" />
    <glyph glyph-name="ordfeminine" unicode="&#xaa;" horiz-adv-x="468" 
d="M73 159l16 99h372l-16 -99h-372zM367 321l-3 42q-20 -21 -55 -35.5t-75 -14.5q-58 0 -86.5 27t-28.5 69q0 37 14.5 62.5t40.5 42t61.5 24t76.5 7.5q14 0 25 -1t20 -2q10 -1 19 -2l5 31q1 3 1 8q0 20 -20 31t-57 11q-24 0 -45 -3.5t-37 -7.5q-18 -5 -34 -11l-10 93
q8 3 24.5 7.5t39 8.5t49.5 7t56 3q31 0 60 -5t51.5 -17.5t35.5 -33.5t13 -53v-13t-2 -14l-41 -261h-98zM366 470q-5 1 -12 2q-6 1 -14.5 2t-19.5 1q-37 0 -57 -11.5t-20 -36.5q0 -20 13.5 -26.5t27.5 -6.5q29 0 49 11.5t25 17.5z" />
    <glyph glyph-name="guillemotleft" unicode="&#xab;" horiz-adv-x="643" 
d="M193 96l-86 190l146 190h151l-145 -190l85 -190h-151zM445 96l-86 190l147 190h151l-146 -190l86 -190h-152z" />
    <glyph glyph-name="logicalnot" unicode="&#xac;" horiz-adv-x="628" 
d="M451 64l26 165h-392l21 133h525l-47 -298h-133z" />
    <glyph glyph-name="uni00AD" unicode="&#xad;" horiz-adv-x="384" 
d="M85 229l21 133h286l-21 -133h-286z" />
    <glyph glyph-name="registered" unicode="&#xae;" horiz-adv-x="827" 
d="M498 189l-39 117h-49l-18 -117h-95l55 353h159q35 0 58.5 -9t37.5 -23.5t19.5 -32.5t5.5 -37q0 -36 -18 -69t-65 -51l52 -131h-103zM467 372q35 0 50.5 16.5t15.5 45.5q0 18 -11 29t-39 11h-46l-16 -102h46zM427 -11q-70 0 -131 20.5t-106 60t-70.5 99t-25.5 137.5
q0 102 33 183t89.5 137t132.5 86t162 30q80 0 142.5 -22t105 -62.5t65 -99t22.5 -131.5q0 -102 -32.5 -183t-89 -138t-133 -87t-164.5 -30zM201 314q0 -50 15 -91t45 -70t74.5 -45t102.5 -16q62 0 116.5 21.5t95.5 63.5t64.5 103t23.5 139q0 106 -60 162.5t-178 56.5
q-62 0 -116.5 -21t-95 -62.5t-64 -102t-23.5 -138.5z" />
    <glyph glyph-name="macron" unicode="&#xaf;" horiz-adv-x="397" 
d="M131 603l17 111h327l-17 -111h-327z" />
    <glyph glyph-name="degree" unicode="&#xb0;" horiz-adv-x="392" 
d="M265 443q-27 0 -51 7.5t-42 23t-28.5 39t-10.5 55.5q0 37 12.5 69t36 55.5t56 36.5t72.5 13q69 0 102 -35t33 -91q0 -37 -12.5 -68.5t-35.5 -55t-56.5 -36.5t-75.5 -13zM279 526q28 0 48.5 19t20.5 63q0 24 -12.5 38t-35.5 14q-29 0 -49 -20t-20 -62q0 -49 48 -52z" />
    <glyph glyph-name="plusminus" unicode="&#xb1;" horiz-adv-x="601" 
d="M427 392l-28 -177h-129l28 177h-184l21 128h184l27 174h129l-27 -174h183l-21 -128h-183zM56 23l21 129h495l-20 -129h-496z" />
    <glyph glyph-name="uni00B2" unicode="&#xb2;" horiz-adv-x="375" 
d="M98 371l7 89q13 8 34.5 19t47 25t51.5 31t46.5 36t34 40t13.5 44q0 25 -17.5 40t-59.5 15q-20 0 -37 -3t-30 -7q-15 -4 -28 -9l-7 80q20 7 44 12q20 5 45.5 9t54.5 4q40 0 69 -10t47 -26.5t26.5 -39t8.5 -47.5q0 -33 -13 -61t-32.5 -51.5t-43 -42t-44.5 -32t-37.5 -22
t-21.5 -11.5l42 4h111l-13 -86h-298z" />
    <glyph glyph-name="uni00B3" unicode="&#xb3;" horiz-adv-x="370" 
d="M112 465q8 -5 21 -9q11 -3 29.5 -5.5t44.5 -2.5q42 0 70.5 11t28.5 43q0 22 -17.5 32.5t-66.5 10.5q-10 0 -17 -0.5t-12 -0.5q-6 -1 -10 -1l12 78q4 -1 8 -1q5 -1 26 -1q19 0 36.5 2t31 7.5t21.5 15.5t8 27q0 22 -17 31.5t-61 9.5q-22 0 -39 -2t-29 -4q-14 -3 -24 -6
l-6 78q16 5 36 9q17 3 40 6t52 3q83 0 122 -26.5t39 -74.5q0 -72 -84 -104q29 -9 44.5 -30.5t15.5 -59.5q0 -136 -203 -136q-30 0 -52 2.5t-37 5.5q-18 4 -29 9z" />
    <glyph glyph-name="acute" unicode="&#xb4;" horiz-adv-x="322" 
d="M129 592l117 167h161l-152 -167h-126z" />
    <glyph glyph-name="uni00B5" unicode="&#xb5;" horiz-adv-x="611" 
d="M299 527l-53 -332q-1 -6 -1.5 -11.5t-0.5 -10.5q0 -30 15 -44.5t40 -14.5q26 0 48.5 12t40.5 27q20 17 39 39l53 335h155l-83 -527h-126l-5 86l-3 -3q-5 -6 -20.5 -20.5t-38.5 -30.5t-52 -28t-62 -12q-11 0 -21 2l-8 2l-34 -200h-154l116 731h155z" />
    <glyph glyph-name="paragraph" unicode="&#xb6;" horiz-adv-x="718" 
d="M489 -204l128 810h-106l-128 -810h-131l74 467q-61 0 -103 15.5t-68 42t-37.5 61.5t-11.5 75q0 53 14 103t48 88.5t90.5 62t142.5 23.5h367l-148 -938h-131z" />
    <glyph glyph-name="periodcentered" unicode="&#xb7;" horiz-adv-x="272" 
d="M270 294q0 -39 -24 -68.5t-79 -29.5q-41 0 -58 18.5t-17 48.5q0 41 23.5 70t78.5 29q41 0 58.5 -19t17.5 -49z" />
    <glyph glyph-name="cedilla" unicode="&#xb8;" horiz-adv-x="294" 
d="M157 16l-26 -63h6q2 0 4 0.5t3 0.5q40 0 67.5 -17t27.5 -58q0 -23 -7.5 -42.5t-25.5 -34.5t-47.5 -23.5t-72.5 -8.5q-19 0 -32.5 1t-21.5 3q-10 2 -16 5l7 67q6 -2 15 -4q15 -3 42 -3q25 0 46 7t21 27q0 14 -15 19t-38 5q-22 0 -41.5 -2t-22.5 -4l55 132z" />
    <glyph glyph-name="uni00B9" unicode="&#xb9;" horiz-adv-x="258" 
d="M160 371l51 325l-77 -18l4 75l130 36h66l-66 -418h-108z" />
    <glyph glyph-name="ordmasculine" unicode="&#xba;" horiz-adv-x="484" 
d="M347 718q48 0 81.5 -12t54 -33t30 -50t9.5 -64q0 -51 -13.5 -96t-41 -78.5t-70.5 -53t-103 -19.5q-36 0 -67 8.5t-53.5 27.5t-35 48.5t-12.5 71.5q0 55 14.5 101t43 79t69.5 51.5t94 18.5zM339 620q-41 0 -66 -38t-25 -104q0 -32 14.5 -49t46.5 -17q41 0 65.5 36
t24.5 105q0 67 -60 67zM455 158h-372l17 108h372z" />
    <glyph glyph-name="guillemotright" unicode="&#xbb;" horiz-adv-x="643" 
d="M77 96l145 190l-85 190h151l86 -190l-146 -190h-151zM329 96l145 190l-85 190h152l86 -190l-147 -190h-151z" />
    <glyph glyph-name="onequarter" unicode="&#xbc;" horiz-adv-x="922" 
d="M298 289h-109l52 325l-77 -19l4 76l130 36h66zM857 707l-587 -707h-95l587 707h95zM553 163l217 256h123l-40 -256h48l-12 -77h-49l-13 -85h-108l13 85h-181zM745 163l19 124l9 42l-139 -166h111z" />
    <glyph glyph-name="onehalf" unicode="&#xbd;" horiz-adv-x="1022" 
d="M200 0l587 707h94l-587 -707h-94zM214 289l51 325l-77 -19l3 76l131 36h66l-66 -418h-108zM673 0l7 89q13 8 34.5 19t47 25t51.5 30.5t46.5 35.5t34 40t13.5 44q0 25 -17.5 40.5t-59.5 15.5q-20 0 -37 -3t-30 -7q-15 -4 -28 -9l-7 79q20 7 44 13q20 5 45.5 9t54.5 4
q40 0 69 -10t47 -26.5t26.5 -39t8.5 -47.5q0 -33 -13 -61.5t-32.5 -52t-43 -41.5t-44.5 -31.5t-37.5 -22t-21.5 -11.5l41 4h112l-14 -86h-297z" />
    <glyph glyph-name="threequarters" unicode="&#xbe;" horiz-adv-x="1004" 
d="M166 696q16 5 36 9q17 3 40 6t52 3q83 0 122 -27t39 -75q0 -72 -84 -104q29 -9 44.5 -30.5t15.5 -59.5q0 -66 -50 -101t-153 -35q-30 0 -52 2.5t-37 5.5q-18 4 -29 9l18 83q8 -4 21 -8q11 -3 29.5 -5.5t45.5 -2.5q42 0 70 10.5t28 42.5q0 22 -17.5 33t-66.5 11
q-10 0 -17 -0.5t-12 -0.5q-6 -1 -10 -1l12 77q3 -1 8 -1q4 -1 10.5 -1h15.5q19 0 36.5 2t31 7.5t21.5 15.5t8 27q0 22 -17 32t-60 10q-23 0 -39.5 -2t-28.5 -4q-14 -3 -24 -6zM924 707l-587 -707h-95l587 707h95zM619 163l218 256h123l-41 -256h49l-12 -77h-49l-13 -85h-108
l13 85h-181zM811 163l21 124l9 42l-140 -166h110z" />
    <glyph glyph-name="questiondown" unicode="&#xbf;" horiz-adv-x="484" 
d="M426 309q0 -5 1 -9q0 -4 0.5 -9.5t0.5 -11.5q0 -56 -18.5 -92.5t-45.5 -60.5t-59.5 -39.5t-59.5 -30t-45.5 -31t-18.5 -43.5q0 -30 25.5 -46.5t90.5 -16.5q33 0 58.5 4t43.5 9.5t29.5 11t17.5 7.5l16 -121q-29 -11 -63 -19q-29 -8 -67.5 -13.5t-81.5 -5.5
q-111 0 -171 42.5t-60 130.5q0 53 19 87t47 57.5t61.5 40t61.5 34t47 41t19 61.5q0 5 -0.5 9t-0.5 7v7h153zM281 438q0 19 5.5 37.5t18.5 32t32.5 22t48.5 8.5q42 0 59.5 -19.5t17.5 -51.5q0 -20 -6 -38t-18.5 -31.5t-32 -22t-47.5 -8.5q-42 0 -60 19.5t-18 51.5z" />
    <glyph glyph-name="Agrave" unicode="&#xc0;" 
d="M435 760l-100 167h161l64 -167h-125zM569 707l129 -707h-159l-27 161h-250l-78 -161h-163l353 707h195zM417 482l-104 -205h183l-38 205l-7 83z" />
    <glyph glyph-name="Aacute" unicode="&#xc1;" 
d="M401 760l117 167h160l-152 -167h-125zM569 707l129 -707h-159l-27 161h-250l-78 -161h-163l353 707h195zM417 482l-104 -205h183l-38 205l-7 83z" />
    <glyph glyph-name="Acircumflex" unicode="&#xc2;" 
d="M568 927l98 -168h-119l-52 88l-79 -88h-120l151 168h121zM569 707l129 -707h-159l-27 161h-250l-78 -161h-163l353 707h195zM417 482l-104 -205h183l-38 205l-7 83z" />
    <glyph glyph-name="Atilde" unicode="&#xc3;" 
d="M569 707l129 -707h-159l-27 161h-250l-78 -161h-163l353 707h195zM299 761v15q0 27 8.5 53.5t25 47t41 33t56.5 12.5q24 0 42 -9t32 -19.5l26 -19.5t24 -9q32 0 32 40q0 3 -0.5 5.5t-0.5 4.5v5h105v-4q0 -2 0.5 -4t0.5 -4q0 -29 -8.5 -56t-25 -47.5t-41.5 -33t-57 -12.5
q-24 0 -41.5 8.5t-31.5 19l-26 19.5t-25 9q-14 0 -22.5 -10t-8.5 -30v-14h-105zM417 482l-104 -205h183l-38 205l-7 83z" />
    <glyph glyph-name="Adieresis" unicode="&#xc4;" 
d="M464 860q0 -36 -20.5 -62.5t-69.5 -26.5q-35 0 -50 17t-15 43q0 37 20.5 62.5t68.5 25.5q35 0 50.5 -16.5t15.5 -42.5zM685 859q0 -35 -21.5 -61.5t-68.5 -26.5q-36 0 -51 16.5t-15 42.5q0 18 4.5 34t15 28.5t27.5 19.5t42 7q35 0 51 -17t16 -43zM569 707l129 -707h-159
l-27 161h-250l-78 -161h-163l353 707h195zM417 482l-104 -205h183l-38 205l-7 83z" />
    <glyph glyph-name="Aring" unicode="&#xc5;" 
d="M477 748q-56 0 -82.5 26.5t-26.5 71.5q0 66 42 104.5t110 38.5q54 0 81.5 -26.5t27.5 -72.5q0 -31 -9 -57t-27.5 -45t-47.5 -29.5t-68 -10.5zM492 823q25 0 37.5 15.5t12.5 40.5q0 16 -8.5 25.5t-26.5 9.5q-25 0 -38.5 -15t-13.5 -40q0 -17 9 -26.5t28 -9.5zM569 707
l129 -707h-159l-27 161h-250l-78 -161h-163l353 707h195zM417 482l-104 -205h183l-38 205l-7 83z" />
    <glyph glyph-name="AE" unicode="&#xc6;" horiz-adv-x="1025" 
d="M466 0l25 161h-198l-109 -161h-163l481 707h577l-20 -130h-344l-25 -155h298l-21 -131h-297l-25 -160h343l-21 -131h-501zM555 562l-192 -285h146z" />
    <glyph glyph-name="Ccedilla" unicode="&#xc7;" horiz-adv-x="624" 
d="M495 586q-56 0 -102 -19t-79 -54t-51 -84t-18 -109q0 -54 15 -92t41 -61.5t61 -34.5t76 -11q26 0 47 3t37 8q18 5 34 12l9 -127q-17 -8 -40 -14q-20 -5 -49.5 -9.5t-69.5 -4.5h-5l-15 -36q2 0 7.5 0.5t7.5 0.5q39 0 66 -16t27 -57q0 -23 -8 -43.5t-26 -35.5t-47.5 -23.5
t-72.5 -8.5q-33 0 -48.5 3.5t-20.5 5.5l8 67q3 -1 19 -4t38 -3q25 0 46 7t21 27q0 14 -15.5 19t-37.5 5t-41.5 -2t-23.5 -4l43 104q-125 20 -185.5 99.5t-60.5 209.5q0 88 27.5 163.5t79.5 131t127 87.5t170 32q42 0 75.5 -5.5t56.5 -11.5q27 -8 48 -17l-45 -124l-9 4
t-25.5 9t-40 9t-51.5 4z" />
    <glyph glyph-name="Egrave" unicode="&#xc8;" horiz-adv-x="627" 
d="M396 760l-100 167h161l64 -167h-125zM68 0l112 707h502l-20 -130h-344l-25 -155h297l-20 -131h-298l-25 -160h344l-21 -131h-502z" />
    <glyph glyph-name="Eacute" unicode="&#xc9;" horiz-adv-x="627" 
d="M369 760l117 167h161l-153 -167h-125zM68 0l112 707h502l-20 -130h-344l-25 -155h297l-20 -131h-298l-25 -160h344l-21 -131h-502z" />
    <glyph glyph-name="Ecircumflex" unicode="&#xca;" horiz-adv-x="627" 
d="M529 927l98 -168h-119l-53 88l-79 -88h-119l150 168h122zM68 0l112 707h502l-20 -130h-344l-25 -155h297l-20 -131h-298l-25 -160h344l-21 -131h-502z" />
    <glyph glyph-name="Edieresis" unicode="&#xcb;" horiz-adv-x="627" 
d="M414 864q0 -36 -20.5 -62.5t-69.5 -26.5q-35 0 -50 16.5t-15 43.5q0 36 20.5 62t68.5 26q35 0 50.5 -16.5t15.5 -42.5zM635 863q0 -36 -21 -62t-69 -26q-36 0 -51 16t-15 43q0 36 20 62.5t69 26.5q35 0 51 -17t16 -43zM68 0l112 707h502l-20 -130h-344l-25 -155h297
l-20 -131h-298l-25 -160h344l-21 -131h-502z" />
    <glyph glyph-name="Igrave" unicode="&#xcc;" horiz-adv-x="299" 
d="M229 0h-159l112 707h159zM211 760l-100 167h161l64 -167h-125z" />
    <glyph glyph-name="Iacute" unicode="&#xcd;" horiz-adv-x="299" 
d="M229 0h-159l112 707h159zM203 760l117 167h160l-152 -167h-125z" />
    <glyph glyph-name="Icircumflex" unicode="&#xce;" horiz-adv-x="299" 
d="M341 707l-112 -707h-159l112 707h159zM352 927l98 -168h-119l-52 88l-79 -88h-120l151 168h121z" />
    <glyph glyph-name="Idieresis" unicode="&#xcf;" horiz-adv-x="299" 
d="M70 0l112 707h159l-112 -707h-159zM252 863q0 -36 -20.5 -62.5t-69.5 -26.5q-35 0 -50 16.5t-15 43.5q0 37 20.5 62.5t68.5 25.5q36 0 51 -16.5t15 -42.5zM473 862q0 -35 -21.5 -61.5t-68.5 -26.5q-36 0 -51 16t-15 43q0 18 4.5 34t15 28.5t27.5 19.5t42 7q35 0 51 -17
t16 -43z" />
    <glyph glyph-name="Eth" unicode="&#xd0;" horiz-adv-x="718" 
d="M76 413h57l47 294h257q84 0 142 -21t93 -58.5t50.5 -88.5t15.5 -111q0 -52 -8 -104.5t-27 -100t-50 -88.5t-77 -71t-108 -47t-143 -17h-257l46 289h-58zM368 131q54 0 93.5 23.5t65 62t38 89t12.5 104.5q0 36 -7.5 67t-24 53t-43 34.5t-64.5 12.5h-120l-26 -164h135
l-19 -124h-136l-25 -158h121z" />
    <glyph glyph-name="Ntilde" unicode="&#xd1;" horiz-adv-x="739" 
d="M518 0l-231 445l-7 -79l-58 -366h-154l112 707h150l232 -458l8 81l60 377h153l-112 -707h-153zM313 761v15q0 27 8.5 53.5t25 47t41 33t56.5 12.5q24 0 41.5 -9t32 -19.5t26.5 -19.5t24 -9q32 0 32 40q0 3 -0.5 5.5t-0.5 4.5v5h105v-4q0 -2 0.5 -4t0.5 -4q0 -29 -8.5 -56
t-25 -47.5t-41.5 -33t-57 -12.5q-24 0 -41.5 8.5t-31.5 19l-26 19.5t-25 9q-14 0 -22.5 -10t-8.5 -30v-14h-105z" />
    <glyph glyph-name="Ograve" unicode="&#xd2;" horiz-adv-x="762" 
d="M457 760l-99 167h160l65 -167h-126zM387 -11q-66 0 -120 18.5t-92.5 55.5t-60 92.5t-21.5 130.5q0 97 28 176.5t79 136.5t122 88t156 31q78 0 135.5 -22t94.5 -61t55 -94t18 -121q0 -95 -27 -174t-78 -136t-124 -89t-165 -32zM252 296q0 -38 8 -70.5t26 -56.5t47.5 -37.5
t71.5 -13.5q46 0 86 20.5t69.5 59t46.5 93.5t17 124q0 86 -40 129t-117 43q-45 0 -84 -19.5t-68.5 -57t-46 -91.5t-16.5 -123z" />
    <glyph glyph-name="Oacute" unicode="&#xd3;" horiz-adv-x="762" 
d="M415 760l117 167h161l-153 -167h-125zM387 -11q-66 0 -120 18.5t-92.5 55.5t-60 92.5t-21.5 130.5q0 97 28 176.5t79 136.5t122 88t156 31q78 0 135.5 -22t94.5 -61t55 -94t18 -121q0 -95 -27 -174t-78 -136t-124 -89t-165 -32zM252 296q0 -38 8 -70.5t26 -56.5
t47.5 -37.5t71.5 -13.5q46 0 86 20.5t69.5 59t46.5 93.5t17 124q0 86 -40 129t-117 43q-45 0 -84 -19.5t-68.5 -57t-46 -91.5t-16.5 -123z" />
    <glyph glyph-name="Ocircumflex" unicode="&#xd4;" horiz-adv-x="762" 
d="M581 927l98 -168h-119l-52 88l-79 -88h-120l151 168h121zM387 -11q-66 0 -120 18.5t-92.5 55.5t-60 92.5t-21.5 130.5q0 97 28 176.5t79 136.5t122 88t156 31q78 0 135.5 -22t94.5 -61t55 -94t18 -121q0 -95 -27 -174t-78 -136t-124 -89t-165 -32zM252 296q0 -38 8 -70.5
t26 -56.5t47.5 -37.5t71.5 -13.5q46 0 86 20.5t69.5 59t46.5 93.5t17 124q0 86 -40 129t-117 43q-45 0 -84 -19.5t-68.5 -57t-46 -91.5t-16.5 -123z" />
    <glyph glyph-name="Otilde" unicode="&#xd5;" horiz-adv-x="762" 
d="M387 -11q-66 0 -120 18.5t-92.5 55.5t-60 92.5t-21.5 130.5q0 97 28 176.5t79 136.5t122 88t156 31q78 0 135.5 -22t94.5 -61t55 -94t18 -121q0 -95 -27 -174t-78 -136t-124 -89t-165 -32zM252 296q0 -38 8 -70.5t26 -56.5t47.5 -37.5t71.5 -13.5q46 0 86 20.5t69.5 59
t46.5 93.5t17 124q0 86 -40 129t-117 43q-45 0 -84 -19.5t-68.5 -57t-46 -91.5t-16.5 -123zM312 761v15q0 27 8.5 53.5t25 47t41.5 33t57 12.5q24 0 41.5 -9t32 -19.5t26 -19.5t23.5 -9q15 0 24 10t9 30q0 3 -0.5 5.5t-0.5 4.5q-1 3 -1 5h106v-12q0 -29 -8.5 -56t-25 -47.5
t-41 -33t-56.5 -12.5q-25 0 -42.5 8.5t-31.5 19l-26 19.5t-25 9q-14 0 -22.5 -10t-8.5 -30v-14h-105z" />
    <glyph glyph-name="Odieresis" unicode="&#xd6;" horiz-adv-x="762" 
d="M487 864q0 -36 -20.5 -62.5t-69.5 -26.5q-35 0 -50.5 16.5t-15.5 43.5q0 36 21 62t69 26q35 0 50.5 -16.5t15.5 -42.5zM708 863q0 -36 -21.5 -62t-68.5 -26q-36 0 -51 16t-15 43q0 18 4.5 34t15 28.5t27.5 19.5t42 7q35 0 51 -17t16 -43zM387 -11q-66 0 -120 18.5
t-92.5 55.5t-60 92.5t-21.5 130.5q0 97 28 176.5t79 136.5t122 88t156 31q78 0 135.5 -22t94.5 -61t55 -94t18 -121q0 -95 -27 -174t-78 -136t-124 -89t-165 -32zM252 296q0 -38 8 -70.5t26 -56.5t47.5 -37.5t71.5 -13.5q46 0 86 20.5t69.5 59t46.5 93.5t17 124
q0 86 -40 129t-117 43q-45 0 -84 -19.5t-68.5 -57t-46 -91.5t-16.5 -123z" />
    <glyph glyph-name="multiply" unicode="&#xd7;" horiz-adv-x="578" 
d="M327 242l-175 -150l-71 87l173 150l-126 150l99 87l127 -151l175 151l72 -87l-174 -150l126 -150l-99 -87z" />
    <glyph glyph-name="Oslash" unicode="&#xd8;" horiz-adv-x="762" 
d="M387 -11q-44 0 -79 7l-41 -78h-128l64 121q-52 36 -81 97.5t-29 149.5q0 97 28 176.5t79 136.5t122 88t156 31q23 0 43 -2t39 -6l39 73h129l-61 -114q58 -39 86 -103t28 -146q0 -95 -27 -174t-78 -136t-124 -89t-165 -32zM624 415q0 74 -30 116l-219 -411q7 -1 14.5 -1.5
t15.5 -0.5q46 0 86 20.5t69.5 59t46.5 93.5t17 124zM252 296q0 -34 6 -63.5t20 -52.5l216 405q-7 1 -13.5 1.5t-13.5 0.5q-45 0 -84 -19.5t-68.5 -57t-46 -91.5t-16.5 -123z" />
    <glyph glyph-name="Ugrave" unicode="&#xd9;" 
d="M427 760l-100 167h161l64 -167h-125zM610 707h157l-65 -414q-12 -74 -36 -131t-65 -95.5t-101 -58t-143 -19.5q-129 0 -191.5 57t-62.5 168q0 19 1.5 38.5t5.5 40.5l66 414h157l-66 -419q-2 -15 -3.5 -29.5t-1.5 -27.5q0 -52 25.5 -82t90.5 -30q40 0 69 12t48 34.5
t30.5 53.5t17.5 69z" />
    <glyph glyph-name="Uacute" unicode="&#xda;" 
d="M410 760l117 167h160l-152 -167h-125zM610 707h157l-65 -414q-12 -74 -36 -131t-65 -95.5t-101 -58t-143 -19.5q-129 0 -191.5 57t-62.5 168q0 19 1.5 38.5t5.5 40.5l66 414h157l-66 -419q-2 -15 -3.5 -29.5t-1.5 -27.5q0 -52 25.5 -82t90.5 -30q40 0 69 12t48 34.5
t30.5 53.5t17.5 69z" />
    <glyph glyph-name="Ucircumflex" unicode="&#xdb;" 
d="M566 927l98 -168h-119l-52 88l-80 -88h-119l151 168h121zM610 707h157l-65 -414q-12 -74 -36 -131t-65 -95.5t-101 -58t-143 -19.5q-129 0 -191.5 57t-62.5 168q0 19 1.5 38.5t5.5 40.5l66 414h157l-66 -419q-2 -15 -3.5 -29.5t-1.5 -27.5q0 -52 25.5 -82t90.5 -30
q40 0 69 12t48 34.5t30.5 53.5t17.5 69z" />
    <glyph glyph-name="Udieresis" unicode="&#xdc;" 
d="M463 864q0 -36 -20 -62.5t-69 -26.5q-35 0 -50.5 16.5t-15.5 43.5q0 36 20.5 62t68.5 26q35 0 50.5 -16.5t15.5 -42.5zM684 863q0 -36 -21 -62t-69 -26q-35 0 -50 16t-15 43q0 18 4.5 34t15 28.5t27.5 19.5t42 7q35 0 50.5 -17t15.5 -43zM610 707h157l-65 -414
q-12 -74 -36 -131t-65 -95.5t-101 -58t-143 -19.5q-129 0 -191.5 57t-62.5 168q0 19 1.5 38.5t5.5 40.5l66 414h157l-66 -419q-2 -15 -3.5 -29.5t-1.5 -27.5q0 -52 25.5 -82t90.5 -30q40 0 69 12t48 34.5t30.5 53.5t17.5 69z" />
    <glyph glyph-name="Yacute" unicode="&#xdd;" horiz-adv-x="676" 
d="M381 760l117 167h160l-152 -167h-125zM259 0l41 256l-176 451h164l92 -257l16 -62l37 64l169 255h174l-317 -450l-42 -257h-158z" />
    <glyph glyph-name="Thorn" unicode="&#xde;" horiz-adv-x="651" 
d="M338 707l-15 -97h119q69 0 115 -14.5t74.5 -40.5t40.5 -61t12 -75q0 -51 -13.5 -103t-48.5 -93.5t-97 -68t-159 -26.5h-120l-20 -128h-158l112 707h158zM268 258h113q40 0 67.5 10t44 28t23.5 43.5t7 55.5q0 38 -23 61t-85 23h-113z" />
    <glyph glyph-name="germandbls" unicode="&#xdf;" horiz-adv-x="653" 
d="M155 514q11 70 42 114t72 69.5t88 35t91 9.5q61 0 104.5 -14.5t71.5 -39t41 -57t13 -68.5q0 -43 -16 -75t-37.5 -54t-43 -34.5t-32.5 -16.5q8 -2 24.5 -11t33 -28.5t29 -50t12.5 -75.5q0 -46 -15 -87.5t-47 -73t-81.5 -50t-117.5 -18.5q-25 0 -43.5 2t-31.5 5
q-15 3 -26 7l25 116q6 -3 14 -5q7 -2 17 -3t24 -1q63 0 95.5 33.5t32.5 90.5q0 49 -24 67.5t-71 18.5q-8 0 -16 -0.5t-15 -1.5q-8 -1 -15 -1l18 117q4 -1 9 -1h20q57 0 90 26.5t33 80.5q0 40 -20.5 60.5t-68.5 20.5q-18 0 -38 -4.5t-37 -17t-30 -34.5t-19 -56l-83 -519
q-10 -62 -32 -102t-53 -63t-67.5 -32t-74.5 -9q-22 0 -38.5 2t-28.5 4q-14 3 -24 7l25 117q5 -3 12 -5q6 -2 15.5 -3t22.5 -1q39 0 60 20t28 65z" />
    <glyph glyph-name="agrave" unicode="&#xe0;" horiz-adv-x="595" 
d="M351 592l-100 167h160l65 -167h-125zM534 0h-125l-5 73q-5 -6 -17 -20t-32.5 -28.5t-49 -25t-64.5 -10.5q-75 0 -122 52.5t-47 158.5q0 67 20 128.5t60.5 108t101 74t140.5 27.5q42 0 81.5 -7t70.5 -15q36 -10 68 -21zM445 407q-11 3 -23 6q-11 2 -23.5 4t-25.5 2
q-37 0 -64.5 -17t-45.5 -45t-27 -63.5t-9 -72.5q0 -31 5.5 -51.5t15.5 -33t23 -17.5t27 -5q22 0 41.5 12t34.5 27.5t25.5 31t14.5 22.5z" />
    <glyph glyph-name="aacute" unicode="&#xe1;" horiz-adv-x="595" 
d="M321 592l117 167h160l-152 -167h-125zM534 0h-125l-5 73q-5 -6 -17 -20t-32.5 -28.5t-49 -25t-64.5 -10.5q-75 0 -122 52.5t-47 158.5q0 67 20 128.5t60.5 108t101 74t140.5 27.5q42 0 81.5 -7t70.5 -15q36 -10 68 -21zM445 407q-11 3 -23 6q-11 2 -23.5 4t-25.5 2
q-37 0 -64.5 -17t-45.5 -45t-27 -63.5t-9 -72.5q0 -31 5.5 -51.5t15.5 -33t23 -17.5t27 -5q22 0 41.5 12t34.5 27.5t25.5 31t14.5 22.5z" />
    <glyph glyph-name="acircumflex" unicode="&#xe2;" horiz-adv-x="595" 
d="M496 759l98 -167h-119l-52 87l-79 -87h-120l151 167h121zM534 0h-125l-5 73q-5 -6 -17 -20t-32.5 -28.5t-49 -25t-64.5 -10.5q-75 0 -122 52.5t-47 158.5q0 67 20 128.5t60.5 108t101 74t140.5 27.5q42 0 81.5 -7t70.5 -15q36 -10 68 -21zM445 407q-11 3 -23 6
q-11 2 -23.5 4t-25.5 2q-37 0 -64.5 -17t-45.5 -45t-27 -63.5t-9 -72.5q0 -31 5.5 -51.5t15.5 -33t23 -17.5t27 -5q22 0 41.5 12t34.5 27.5t25.5 31t14.5 22.5z" />
    <glyph glyph-name="atilde" unicode="&#xe3;" horiz-adv-x="595" 
d="M534 0h-125l-5 73q-5 -6 -17 -20t-32.5 -28.5t-49 -25t-64.5 -10.5q-75 0 -122 52.5t-47 158.5q0 67 20 128.5t60.5 108t101 74t140.5 27.5q42 0 81.5 -7t70.5 -15q36 -10 68 -21zM445 407q-11 3 -23 6q-11 2 -23.5 4t-25.5 2q-37 0 -64.5 -17t-45.5 -45t-27 -63.5
t-9 -72.5q0 -31 5.5 -51.5t15.5 -33t23 -17.5t27 -5q22 0 41.5 12t34.5 27.5t25.5 31t14.5 22.5zM214 590q-1 1 -1 4v11q0 27 8.5 53.5t25 46.5t41.5 32.5t57 12.5q24 0 41.5 -9t32 -19.5t26 -19t23.5 -8.5q15 0 24 10t9 30q0 2 -0.5 5t-0.5 5v4h105v-11q0 -29 -8.5 -56
t-25 -47.5t-41 -33t-56.5 -12.5q-25 0 -42.5 8.5t-31.5 19l-26 19.5t-25 9q-14 0 -22.5 -10.5t-8.5 -30.5v-9q0 -2 1 -4h-105z" />
    <glyph glyph-name="adieresis" unicode="&#xe4;" horiz-adv-x="595" 
d="M386 680q0 -35 -20.5 -62t-70.5 -27q-35 0 -50 17t-15 43q0 37 20.5 63t68.5 26q35 0 51 -17t16 -43zM606 680q0 -36 -21 -62.5t-69 -26.5q-35 0 -50.5 16.5t-15.5 43.5q0 36 20 62.5t69 26.5q35 0 51 -17t16 -43zM534 0h-125l-5 73q-5 -6 -17 -20t-32.5 -28.5t-49 -25
t-64.5 -10.5q-75 0 -122 52.5t-47 158.5q0 67 20 128.5t60.5 108t101 74t140.5 27.5q42 0 81.5 -7t70.5 -15q36 -10 68 -21zM445 407q-11 3 -23 6q-11 2 -23.5 4t-25.5 2q-37 0 -64.5 -17t-45.5 -45t-27 -63.5t-9 -72.5q0 -31 5.5 -51.5t15.5 -33t23 -17.5t27 -5
q22 0 41.5 12t34.5 27.5t25.5 31t14.5 22.5z" />
    <glyph glyph-name="aring" unicode="&#xe5;" horiz-adv-x="595" 
d="M400 588q-56 0 -82 27t-26 71q0 67 41.5 105.5t110.5 38.5q54 0 81 -26.5t27 -72.5q0 -62 -36.5 -102.5t-115.5 -40.5zM415 665q26 0 38 15t12 39q0 35 -34 35q-25 0 -38.5 -14.5t-13.5 -38.5q0 -36 36 -36zM534 0h-125l-5 73q-5 -6 -17 -20t-32.5 -28.5t-49 -25
t-64.5 -10.5q-75 0 -122 52.5t-47 158.5q0 67 20 128.5t60.5 108t101 74t140.5 27.5q42 0 81.5 -7t70.5 -15q36 -10 68 -21zM445 407q-11 3 -23 6q-11 2 -23.5 4t-25.5 2q-37 0 -64.5 -17t-45.5 -45t-27 -63.5t-9 -72.5q0 -31 5.5 -51.5t15.5 -33t23 -17.5t27 -5
q22 0 41.5 12t34.5 27.5t25.5 31t14.5 22.5z" />
    <glyph glyph-name="ae" unicode="&#xe6;" horiz-adv-x="852" 
d="M691 538q92 0 136.5 -42.5t44.5 -105.5q0 -38 -17 -70t-53.5 -55t-94.5 -36t-139 -13h-31q0 -4 -0.5 -8t-0.5 -8q0 -92 106 -92q31 0 58 5t47 12q24 8 43 18l16 -112q-23 -12 -52 -21q-25 -8 -59.5 -14.5t-78.5 -6.5q-125 0 -183 63q-12 -9 -31 -20t-45.5 -20.5t-60 -16
t-73.5 -6.5q-83 0 -123.5 36.5t-40.5 99.5q0 90 77 135t222 45q8 0 17.5 -0.5t17.5 -0.5q3 12 7 24t9 23q0 35 -22 50.5t-75 15.5q-33 0 -61 -5t-49 -11q-25 -7 -44 -16l-17 115q24 10 57 19q27 7 66 13t87 6q57 0 100 -11.5t69 -38.5q35 24 78 37t93 13zM390 132
q-9 34 -9 77v5q-10 1 -22 2t-26 1q-24 0 -45.5 -3.5t-37 -12t-25 -22t-9.5 -33.5q0 -30 20.5 -40t44.5 -10q21 0 39.5 4.5t32.5 10.5t23.5 12t13.5 9zM548 307q82 0 131 17.5t49 55.5q0 20 -14.5 34t-44.5 14q-42 0 -76 -32t-45 -89z" />
    <glyph glyph-name="ccedilla" unicode="&#xe7;" horiz-adv-x="501" 
d="M477 394q-12 6 -26 11q-12 4 -29 7.5t-37 3.5q-38 0 -69 -13.5t-52.5 -37.5t-33 -57t-11.5 -73q0 -68 33.5 -96.5t92.5 -28.5q20 0 37 2.5t28 5.5q13 4 24 9l10 -114q-14 -6 -32 -11q-16 -5 -39 -8.5t-53 -4.5l-15 -36h6q2 0 4 0.5t3 0.5q40 0 67 -17t27 -58
q0 -23 -7.5 -42.5t-25.5 -34.5t-47 -23.5t-72 -8.5q-19 0 -32.5 1t-21.5 3q-10 2 -16 5l7 67q6 -2 15 -4q15 -3 42 -3q25 0 46 7t21 27q0 14 -15.5 19t-37.5 5t-41.5 -2t-23.5 -4l42 103q-85 13 -133.5 67.5t-48.5 159.5q0 68 21.5 126t61.5 100.5t98 66.5t130 24
q34 0 60.5 -5t45.5 -10q22 -7 39 -15l-42 -114v0z" />
    <glyph glyph-name="egrave" unicode="&#xe8;" horiz-adv-x="545" 
d="M337 592l-100 167h161l64 -167h-125zM383 538q92 0 137 -42t45 -106q0 -38 -17 -70.5t-53 -56.5t-91.5 -37.5t-132.5 -13.5h-20t-21 1q0 -4 -0.5 -7.5t-0.5 -6.5q0 -47 25.5 -69t80.5 -22q30 0 57 5t47 12q24 8 43 18l17 -111q-23 -12 -51 -22q-25 -8 -59 -14.5t-78 -6.5
q-123 0 -180 60t-57 162q0 66 21.5 125.5t61.5 104t97.5 71t128.5 26.5zM241 308q82 0 130.5 17t48.5 55q0 20 -14.5 34t-43.5 14q-42 0 -76 -31.5t-45 -88.5z" />
    <glyph glyph-name="eacute" unicode="&#xe9;" horiz-adv-x="545" 
d="M290 592l117 167h161l-152 -167h-126zM383 538q92 0 137 -42t45 -106q0 -38 -17 -70.5t-53 -56.5t-91.5 -37.5t-132.5 -13.5h-20t-21 1q0 -4 -0.5 -7.5t-0.5 -6.5q0 -47 25.5 -69t80.5 -22q30 0 57 5t47 12q24 8 43 18l17 -111q-23 -12 -51 -22q-25 -8 -59 -14.5
t-78 -6.5q-123 0 -180 60t-57 162q0 66 21.5 125.5t61.5 104t97.5 71t128.5 26.5zM241 308q82 0 130.5 17t48.5 55q0 20 -14.5 34t-43.5 14q-42 0 -76 -31.5t-45 -88.5z" />
    <glyph glyph-name="ecircumflex" unicode="&#xea;" horiz-adv-x="545" 
d="M454 759l99 -167h-120l-52 87l-79 -87h-120l151 167h121zM383 538q92 0 137 -42t45 -106q0 -38 -17 -70.5t-53 -56.5t-91.5 -37.5t-132.5 -13.5h-20t-21 1q0 -4 -0.5 -7.5t-0.5 -6.5q0 -47 25.5 -69t80.5 -22q30 0 57 5t47 12q24 8 43 18l17 -111q-23 -12 -51 -22
q-25 -8 -59 -14.5t-78 -6.5q-123 0 -180 60t-57 162q0 66 21.5 125.5t61.5 104t97.5 71t128.5 26.5zM241 308q82 0 130.5 17t48.5 55q0 20 -14.5 34t-43.5 14q-42 0 -76 -31.5t-45 -88.5z" />
    <glyph glyph-name="edieresis" unicode="&#xeb;" horiz-adv-x="545" 
d="M352 680q0 -18 -5 -34t-15.5 -28t-27.5 -19.5t-42 -7.5q-35 0 -50 17t-15 43q0 37 20.5 63t68.5 26q35 0 50.5 -17t15.5 -43zM573 680q0 -36 -21 -62.5t-69 -26.5q-35 0 -50.5 16.5t-15.5 43.5q0 18 5 34t15.5 28.5t27.5 19.5t42 7q35 0 50.5 -17t15.5 -43zM383 538
q92 0 137 -42t45 -106q0 -38 -17 -70.5t-53 -56.5t-91.5 -37.5t-132.5 -13.5h-20t-21 1q0 -4 -0.5 -7.5t-0.5 -6.5q0 -47 25.5 -69t80.5 -22q30 0 57 5t47 12q24 8 43 18l17 -111q-23 -12 -51 -22q-25 -8 -59 -14.5t-78 -6.5q-123 0 -180 60t-57 162q0 66 21.5 125.5
t61.5 104t97.5 71t128.5 26.5zM241 308q82 0 130.5 17t48.5 55q0 20 -14.5 34t-43.5 14q-42 0 -76 -31.5t-45 -88.5z" />
    <glyph glyph-name="igrave" unicode="&#xec;" horiz-adv-x="275" 
d="M60 0l83 527h155l-83 -527h-155zM174 592l-100 167h160l65 -167h-125z" />
    <glyph glyph-name="iacute" unicode="&#xed;" horiz-adv-x="275" 
d="M215 0h-155l83 527h155zM156 592l117 167h160l-152 -167h-125z" />
    <glyph glyph-name="icircumflex" unicode="&#xee;" horiz-adv-x="276" 
d="M299 527l-84 -527h-155l84 527h155zM314 759l98 -167h-119l-53 87l-78 -87h-120l150 167h122z" />
    <glyph glyph-name="idieresis" unicode="&#xef;" horiz-adv-x="275" 
d="M60 0l84 527h154l-83 -527h-155zM212 680q0 -35 -20.5 -62t-69.5 -27q-35 0 -50.5 17t-15.5 43q0 37 20.5 63t68.5 26q36 0 51.5 -17t15.5 -43zM432 680q0 -36 -21 -62.5t-69 -26.5q-35 0 -50 16.5t-15 43.5q0 18 4.5 34t15 28.5t27.5 19.5t42 7q35 0 50.5 -17t15.5 -43z
" />
    <glyph glyph-name="eth" unicode="&#xf0;" horiz-adv-x="602" 
d="M273 619l62 54q-14 11 -30.5 22.5t-34.5 23.5l91 82q20 -11 37.5 -21.5t34.5 -22.5l68 60l38 -45l-59 -52q70 -67 102 -156t32 -192q0 -75 -16 -144t-53 -122.5t-97.5 -85t-149.5 -31.5q-114 0 -170 59t-56 170q0 64 17.5 122.5t52 102t85.5 69.5t118 26q26 0 44.5 -3.5
t31 -8t18.5 -9t8 -5.5q-10 34 -26 63t-43 58l-68 -59zM454 390q-13 7 -27 13q-12 5 -27.5 9.5t-32.5 4.5q-41 0 -68 -19t-42.5 -48t-22 -62.5t-6.5 -62.5q0 -53 21.5 -84t68.5 -31q30 0 55 17t43 45.5t28 65.5t10 78v74z" />
    <glyph glyph-name="ntilde" unicode="&#xf1;" horiz-adv-x="605" 
d="M268 527l6 -73q20 24 48 42q23 16 58 29t80 13q72 0 110.5 -40t38.5 -111q0 -11 -1 -22t-3 -23l-54 -342h-155l52 328q1 6 1.5 12t0.5 11q0 32 -15.5 47t-41.5 15t-49 -13.5t-40 -30.5q-20 -19 -38 -44l-51 -325h-155l83 527h125zM209 590q-1 1 -1 4v11q0 27 8.5 53.5
t25 46.5t41.5 32.5t57 12.5q24 0 41.5 -9t32 -19.5t26.5 -19t24 -8.5q14 0 23 10t9 30q0 2 -0.5 5t-0.5 5v4h105v-11q0 -29 -8.5 -56t-25 -47.5t-41 -33t-56.5 -12.5q-25 0 -42.5 8.5t-31.5 19l-26 19.5t-25 9q-14 0 -22.5 -10.5t-8.5 -30.5v-13h-104z" />
    <glyph glyph-name="ograve" unicode="&#xf2;" horiz-adv-x="596" 
d="M341 592l-99 167h160l65 -167h-126zM305 -11q-52 0 -95 14.5t-73.5 43t-47.5 72t-17 101.5q0 71 21 129.5t59 100.5t92 65t120 23q124 0 184 -60t60 -170q0 -69 -20.5 -127.5t-59 -101t-95 -66.5t-128.5 -24zM227 221q0 -51 21.5 -81.5t71.5 -30.5q31 0 56 15t42.5 41.5
t26.5 63t9 79.5q0 53 -21.5 81.5t-73.5 28.5q-31 0 -55.5 -15t-41.5 -41t-26 -62.5t-9 -78.5z" />
    <glyph glyph-name="oacute" unicode="&#xf3;" horiz-adv-x="596" 
d="M302 592l117 167h161l-152 -167h-126zM305 -11q-52 0 -95 14.5t-73.5 43t-47.5 72t-17 101.5q0 71 21 129.5t59 100.5t92 65t120 23q124 0 184 -60t60 -170q0 -69 -20.5 -127.5t-59 -101t-95 -66.5t-128.5 -24zM227 221q0 -51 21.5 -81.5t71.5 -30.5q31 0 56 15
t42.5 41.5t26.5 63t9 79.5q0 53 -21.5 81.5t-73.5 28.5q-31 0 -55.5 -15t-41.5 -41t-26 -62.5t-9 -78.5z" />
    <glyph glyph-name="ocircumflex" unicode="&#xf4;" horiz-adv-x="596" 
d="M468 759l98 -167h-120l-52 87l-79 -87h-119l150 167h122zM305 -11q-52 0 -95 14.5t-73.5 43t-47.5 72t-17 101.5q0 71 21 129.5t59 100.5t92 65t120 23q124 0 184 -60t60 -170q0 -69 -20.5 -127.5t-59 -101t-95 -66.5t-128.5 -24zM227 221q0 -51 21.5 -81.5t71.5 -30.5
q31 0 56 15t42.5 41.5t26.5 63t9 79.5q0 53 -21.5 81.5t-73.5 28.5q-31 0 -55.5 -15t-41.5 -41t-26 -62.5t-9 -78.5z" />
    <glyph glyph-name="otilde" unicode="&#xf5;" horiz-adv-x="596" 
d="M305 -11q-52 0 -95 14.5t-73.5 43t-47.5 72t-17 101.5q0 71 21 129.5t59 100.5t92 65t120 23q124 0 184 -60t60 -170q0 -69 -20.5 -127.5t-59 -101t-95 -66.5t-128.5 -24zM227 221q0 -51 21.5 -81.5t71.5 -30.5q31 0 56 15t42.5 41.5t26.5 63t9 79.5q0 53 -21.5 81.5
t-73.5 28.5q-31 0 -55.5 -15t-41.5 -41t-26 -62.5t-9 -78.5zM200 590v15q0 27 8.5 53.5t25 46.5t41 32.5t56.5 12.5q24 0 41.5 -9t32 -19.5t26.5 -19t24 -8.5q32 0 32 40q0 2 -0.5 5t-0.5 5v4h105v-4q0 -2 0.5 -3.5t0.5 -3.5q0 -29 -8.5 -56t-25 -47.5t-41.5 -33t-57 -12.5
q-25 0 -42.5 8.5t-31.5 19l-26 19.5t-25 9t-22 -10.5t-9 -30.5v-9q0 -2 1 -4h-105z" />
    <glyph glyph-name="odieresis" unicode="&#xf6;" horiz-adv-x="596" 
d="M363 677q0 -35 -20 -61.5t-70 -26.5q-35 0 -50 16.5t-15 43.5q0 36 20.5 62t68.5 26q35 0 50.5 -17t15.5 -43zM584 677q0 -36 -21 -62t-69 -26q-35 0 -50 16t-15 43q0 18 4.5 34t15 28.5t27.5 19.5t42 7q35 0 50.5 -17t15.5 -43zM305 -11q-52 0 -95 14.5t-73.5 43
t-47.5 72t-17 101.5q0 71 21 129.5t59 100.5t92 65t120 23q124 0 184 -60t60 -170q0 -69 -20.5 -127.5t-59 -101t-95 -66.5t-128.5 -24zM227 221q0 -51 21.5 -81.5t71.5 -30.5q31 0 56 15t42.5 41.5t26.5 63t9 79.5q0 53 -21.5 81.5t-73.5 28.5q-31 0 -55.5 -15t-41.5 -41
t-26 -62.5t-9 -78.5z" />
    <glyph glyph-name="divide" unicode="&#xf7;" horiz-adv-x="594" 
d="M396 103q0 -36 -23 -62t-74 -26q-38 0 -55 17t-17 46q0 35 22.5 61.5t74.5 26.5q38 0 55 -17.5t17 -45.5zM461 512q0 -36 -23 -62.5t-74 -26.5q-38 0 -55.5 17.5t-17.5 44.5q0 37 22.5 63t74.5 26q38 0 55.5 -17.5t17.5 -44.5zM93 240l18 111h484l-17 -111h-485z" />
    <glyph glyph-name="oslash" unicode="&#xf8;" horiz-adv-x="596" 
d="M305 -11q-15 0 -28.5 1.5t-27.5 3.5l-45 -86h-107l63 119q-42 28 -65 76t-23 117q0 71 21 129.5t59 100.5t92 65t120 23q17 0 33 -1.5t31 -3.5l41 76h108l-58 -109q45 -29 67 -77.5t22 -114.5q0 -69 -20.5 -127.5t-59 -101t-95 -66.5t-128.5 -24zM454 308q0 29 -8 55
l-135 -254h9q31 0 56 15t42.5 41.5t26.5 63t9 79.5zM227 221q0 -33 7 -54l133 251h-8q-31 0 -55.5 -15t-41.5 -41t-26 -62.5t-9 -78.5z" />
    <glyph glyph-name="ugrave" unicode="&#xf9;" horiz-adv-x="605" 
d="M345 592l-100 167h161l64 -167h-125zM293 527l-52 -328q-1 -6 -1.5 -12t-0.5 -11q0 -32 15.5 -47t41.5 -15q25 0 48.5 13.5t40.5 30.5q20 19 38 44l51 325h155l-83 -527h-125l-6 73q-21 -24 -48 -42q-24 -16 -58.5 -29t-79.5 -13q-72 0 -110.5 40t-38.5 111q0 11 1 22
t3 23l54 342h155z" />
    <glyph glyph-name="uacute" unicode="&#xfa;" horiz-adv-x="605" 
d="M319 592l117 167h161l-152 -167h-126zM293 527l-52 -328q-1 -6 -1.5 -12t-0.5 -11q0 -32 15.5 -47t41.5 -15q25 0 48.5 13.5t40.5 30.5q20 19 38 44l51 325h155l-83 -527h-125l-6 73q-21 -24 -48 -42q-24 -16 -58.5 -29t-79.5 -13q-72 0 -110.5 40t-38.5 111q0 11 1 22
t3 23l54 342h155z" />
    <glyph glyph-name="ucircumflex" unicode="&#xfb;" horiz-adv-x="605" 
d="M480 759l98 -167h-119l-52 87l-79 -87h-120l151 167h121zM293 527l-52 -328q-1 -6 -1.5 -12t-0.5 -11q0 -32 15.5 -47t41.5 -15q25 0 48.5 13.5t40.5 30.5q20 19 38 44l51 325h155l-83 -527h-125l-6 73q-21 -24 -48 -42q-24 -16 -58.5 -29t-79.5 -13q-72 0 -110.5 40
t-38.5 111q0 11 1 22t3 23l54 342h155z" />
    <glyph glyph-name="udieresis" unicode="&#xfc;" horiz-adv-x="605" 
d="M375 680q0 -35 -20.5 -62t-69.5 -27q-35 0 -50.5 17t-15.5 43q0 37 21 63t69 26q35 0 50.5 -17t15.5 -43zM596 680q0 -36 -21.5 -62.5t-68.5 -26.5q-36 0 -51 16.5t-15 43.5q0 36 20 62.5t69 26.5q35 0 51 -17t16 -43zM293 527l-52 -328q-1 -6 -1.5 -12t-0.5 -11
q0 -32 15.5 -47t41.5 -15q25 0 48.5 13.5t40.5 30.5q20 19 38 44l51 325h155l-83 -527h-125l-6 73q-21 -24 -48 -42q-24 -16 -58.5 -29t-79.5 -13q-72 0 -110.5 40t-38.5 111q0 11 1 22t3 23l54 342h155z" />
    <glyph glyph-name="yacute" unicode="&#xfd;" horiz-adv-x="558" 
d="M302 592l117 167h160l-152 -167h-125zM22 -86q6 -3 15 -5q7 -2 17 -3t21 -1q31 0 52.5 11t36 26.5t22.5 32t14 27.5l-102 525h160l36 -284l2 -113l174 397h157l-279 -543q-25 -49 -51.5 -86.5t-57.5 -62.5t-68.5 -37.5t-85.5 -12.5q-22 0 -38 2t-27 4q-13 3 -22 7z" />
    <glyph glyph-name="thorn" unicode="&#xfe;" horiz-adv-x="594" 
d="M329 730l-43 -263q9 11 23.5 23.5t33.5 23t43.5 17.5t53.5 7q36 0 66.5 -13.5t52.5 -40.5t34.5 -66.5t12.5 -91.5q0 -66 -20 -126.5t-60.5 -107.5t-100.5 -75t-139 -28q-25 0 -45.5 3.5t-28.5 4.5l-2 -28l-27 -173h-155l148 934h153zM234 120q11 -3 23 -6q10 -2 22.5 -4
t25.5 -2q37 0 64.5 17t46 45t27.5 63.5t9 71.5q0 61 -21.5 84t-50.5 23q-23 0 -42 -11.5t-34 -26.5t-25.5 -30.5t-14.5 -23.5z" />
    <glyph glyph-name="ydieresis" unicode="&#xff;" horiz-adv-x="558" 
d="M357 677q0 -35 -20 -61.5t-70 -26.5q-35 0 -50.5 16.5t-15.5 43.5q0 36 20.5 62t68.5 26q35 0 51 -17t16 -43zM577 677q0 -36 -21 -62t-69 -26q-35 0 -50 16t-15 43q0 18 4.5 34t15 28.5t27.5 19.5t42 7q35 0 50.5 -17t15.5 -43zM22 -86q6 -3 15 -5q7 -2 17 -3t21 -1
q31 0 52.5 11t36 26.5t22.5 32t14 27.5l-102 525h160l36 -284l2 -113l174 397h157l-279 -543q-25 -49 -51.5 -86.5t-57.5 -62.5t-68.5 -37.5t-85.5 -12.5q-22 0 -38 2t-27 4q-13 3 -22 7z" />
    <glyph glyph-name="Amacron" unicode="&#x100;" 
d="M317 776l16 97h326l-15 -97h-327zM569 707l129 -707h-159l-27 161h-250l-78 -161h-163l353 707h195zM417 482l-104 -205h183l-38 205l-7 83z" />
    <glyph glyph-name="amacron" unicode="&#x101;" horiz-adv-x="595" 
d="M246 615l15 98h327l-15 -98h-327zM534 0h-125l-5 73q-5 -6 -17 -20t-32.5 -28.5t-49 -25t-64.5 -10.5q-75 0 -122 52.5t-47 158.5q0 67 20 128.5t60.5 108t101 74t140.5 27.5q42 0 81.5 -7t70.5 -15q36 -10 68 -21zM445 407q-11 3 -23 6q-11 2 -23.5 4t-25.5 2
q-37 0 -64.5 -17t-45.5 -45t-27 -63.5t-9 -72.5q0 -31 5.5 -51.5t15.5 -33t23 -17.5t27 -5q22 0 41.5 12t34.5 27.5t25.5 31t14.5 22.5z" />
    <glyph glyph-name="Abreve" unicode="&#x102;" 
d="M674 927q-4 -26 -18.5 -55.5t-39 -54.5t-59 -41.5t-78.5 -16.5q-40 0 -66 11t-42.5 28t-24 37t-10 39t-2 33.5t1.5 19.5h101v-13t5.5 -23.5t17.5 -22.5t35 -10q18 0 31.5 7.5t23.5 18t15.5 22.5t7.5 21h101zM569 707l129 -707h-159l-27 161h-250l-78 -161h-163l353 707
h195zM417 482l-104 -205h183l-38 205l-7 83z" />
    <glyph glyph-name="abreve" unicode="&#x103;" horiz-adv-x="595" 
d="M604 757q-4 -26 -18.5 -55.5t-39 -54.5t-59 -41.5t-78.5 -16.5q-40 0 -66 11t-42.5 28t-24 37t-10 39t-2 33.5t1.5 19.5h101v-13t5.5 -23.5t17.5 -22.5t35 -10q18 0 31.5 7.5t23.5 18t15.5 22.5t7.5 21h101zM534 0h-125l-5 73q-5 -6 -17 -20t-32.5 -28.5t-49 -25
t-64.5 -10.5q-75 0 -122 52.5t-47 158.5q0 67 20 128.5t60.5 108t101 74t140.5 27.5q42 0 81.5 -7t70.5 -15q36 -10 68 -21zM445 407q-11 3 -23 6q-11 2 -23.5 4t-25.5 2q-37 0 -64.5 -17t-45.5 -45t-27 -63.5t-9 -72.5q0 -31 5.5 -51.5t15.5 -33t23 -17.5t27 -5
q22 0 41.5 12t34.5 27.5t25.5 31t14.5 22.5z" />
    <glyph glyph-name="Aogonek" unicode="&#x104;" 
d="M569 707l129 -707q-16 -3 -35.5 -11.5t-36 -20.5t-27.5 -26.5t-11 -29.5q0 -11 9.5 -19.5t32.5 -8.5q16 0 32.5 4t28.5 6l-12 -89q-21 -8 -50 -14.5t-61 -6.5q-54 0 -86 21t-32 57q0 24 12 45t30 38.5t39 31.5t38 23h-30l-27 161h-250l-78 -161h-163l353 707h195z
M417 482l-104 -205h183l-38 205l-7 83z" />
    <glyph glyph-name="aogonek" unicode="&#x105;" horiz-adv-x="595" 
d="M534 0q-16 -3 -35 -11.5t-35.5 -20.5t-28 -26.5t-11.5 -29.5q0 -11 10 -19.5t33 -8.5q15 0 31.5 4t28.5 6l-11 -89q-22 -8 -50.5 -14.5t-60.5 -6.5q-54 0 -86.5 21t-32.5 57q0 29 14.5 52t34.5 40.5t40.5 29t33.5 17.5l-5 72q-5 -6 -17 -20t-32.5 -28.5t-49 -25
t-64.5 -10.5q-75 0 -122 52.5t-47 158.5q0 67 20 128.5t60.5 108t101 74t140.5 27.5q42 0 81.5 -7t70.5 -15q36 -10 68 -21zM445 407q-11 3 -23 6q-11 2 -23.5 4t-25.5 2q-37 0 -64.5 -17t-45.5 -45t-27 -63.5t-9 -72.5q0 -31 5.5 -51.5t15.5 -33t23 -17.5t27 -5
q22 0 41.5 12t34.5 27.5t25.5 31t14.5 22.5z" />
    <glyph glyph-name="Cacute" unicode="&#x106;" horiz-adv-x="621" 
d="M410 760l117 167h161l-153 -167h-125zM506 586q-56 0 -102 -19t-79 -54t-51 -84t-18 -109q0 -54 15 -92t41 -61.5t61 -34.5t76 -11q26 0 47 3t37 8q18 5 34 12l9 -127q-17 -8 -40 -14q-20 -5 -49.5 -9.5t-69.5 -4.5q-163 0 -243.5 83.5t-80.5 231.5q0 88 27.5 163.5
t79.5 131t127 87.5t170 32q42 0 75.5 -5.5t56.5 -11.5q27 -8 48 -17l-45 -124l-9 4t-25.5 9t-40 9t-51.5 4z" />
    <glyph glyph-name="cacute" unicode="&#x107;" horiz-adv-x="494" 
d="M286 592l117 167h160l-152 -167h-125zM486 394q-12 6 -26 11q-12 4 -29 7.5t-37 3.5q-38 0 -69 -13.5t-52.5 -37.5t-33 -57t-11.5 -73q0 -68 33.5 -96.5t92.5 -28.5q20 0 37 2.5t28 5.5q13 4 24 9l10 -114q-15 -7 -35 -12q-17 -5 -42.5 -8.5t-58.5 -3.5q-56 0 -101 13.5
t-77 41.5t-49.5 72t-17.5 105q0 68 21.5 126t61.5 100.5t98 66.5t130 24q34 0 60.5 -5t45.5 -10q22 -7 39 -15z" />
    <glyph glyph-name="Ccircumflex" unicode="&#x108;" horiz-adv-x="621" 
d="M576 927l98 -168h-119l-52 88l-79 -88h-120l151 168h121zM506 586q-56 0 -102 -19t-79 -54t-51 -84t-18 -109q0 -54 15 -92t41 -61.5t61 -34.5t76 -11q26 0 47 3t37 8q18 5 34 12l9 -127q-17 -8 -40 -14q-20 -5 -49.5 -9.5t-69.5 -4.5q-163 0 -243.5 83.5t-80.5 231.5
q0 88 27.5 163.5t79.5 131t127 87.5t170 32q42 0 75.5 -5.5t56.5 -11.5q27 -8 48 -17l-45 -124l-9 4t-25.5 9t-40 9t-51.5 4z" />
    <glyph glyph-name="ccircumflex" unicode="&#x109;" horiz-adv-x="494" 
d="M449 759l98 -167h-119l-53 87l-79 -87h-119l150 167h122zM486 394q-12 6 -26 11q-12 4 -29 7.5t-37 3.5q-38 0 -69 -13.5t-52.5 -37.5t-33 -57t-11.5 -73q0 -68 33.5 -96.5t92.5 -28.5q20 0 37 2.5t28 5.5q13 4 24 9l10 -114q-15 -7 -35 -12q-17 -5 -42.5 -8.5
t-58.5 -3.5q-56 0 -101 13.5t-77 41.5t-49.5 72t-17.5 105q0 68 21.5 126t61.5 100.5t98 66.5t130 24q34 0 60.5 -5t45.5 -10q22 -7 39 -15z" />
    <glyph glyph-name="Cdotaccent" unicode="&#x10a;" horiz-adv-x="621" 
d="M591 863q0 -38 -23 -65t-75 -27q-38 0 -55.5 17.5t-17.5 45.5q0 38 22.5 65t75.5 27q38 0 55.5 -17.5t17.5 -45.5zM506 586q-56 0 -102 -19t-79 -54t-51 -84t-18 -109q0 -54 15 -92t41 -61.5t61 -34.5t76 -11q26 0 47 3t37 8q18 5 34 12l9 -127q-17 -8 -40 -14
q-20 -5 -49.5 -9.5t-69.5 -4.5q-163 0 -243.5 83.5t-80.5 231.5q0 88 27.5 163.5t79.5 131t127 87.5t170 32q42 0 75.5 -5.5t56.5 -11.5q27 -8 48 -17l-45 -124l-9 4t-25.5 9t-40 9t-51.5 4z" />
    <glyph glyph-name="cdotaccent" unicode="&#x10b;" horiz-adv-x="494" 
d="M476 694q0 -38 -22.5 -65t-74.5 -27q-39 0 -56 17.5t-17 46.5q0 38 22.5 64.5t75.5 26.5q38 0 55 -17.5t17 -45.5zM486 394q-12 6 -26 11q-12 4 -29 7.5t-37 3.5q-38 0 -69 -13.5t-52.5 -37.5t-33 -57t-11.5 -73q0 -68 33.5 -96.5t92.5 -28.5q20 0 37 2.5t28 5.5
q13 4 24 9l10 -114q-15 -7 -35 -12q-17 -5 -42.5 -8.5t-58.5 -3.5q-56 0 -101 13.5t-77 41.5t-49.5 72t-17.5 105q0 68 21.5 126t61.5 100.5t98 66.5t130 24q34 0 60.5 -5t45.5 -10q22 -7 39 -15z" />
    <glyph glyph-name="Ccaron" unicode="&#x10c;" horiz-adv-x="621" 
d="M428 759l-98 168h120l52 -88l79 88h120l-151 -168h-122zM506 586q-56 0 -102 -19t-79 -54t-51 -84t-18 -109q0 -54 15 -92t41 -61.5t61 -34.5t76 -11q26 0 47 3t37 8q18 5 34 12l9 -127q-17 -8 -40 -14q-20 -5 -49.5 -9.5t-69.5 -4.5q-163 0 -243.5 83.5t-80.5 231.5
q0 88 27.5 163.5t79.5 131t127 87.5t170 32q42 0 75.5 -5.5t56.5 -11.5q27 -8 48 -17l-45 -124l-9 4t-25.5 9t-40 9t-51.5 4z" />
    <glyph glyph-name="ccaron" unicode="&#x10d;" horiz-adv-x="494" 
d="M319 592l-99 167h120l52 -87l79 87h120l-151 -167h-121zM486 394q-12 6 -26 11q-12 4 -29 7.5t-37 3.5q-38 0 -69 -13.5t-52.5 -37.5t-33 -57t-11.5 -73q0 -68 33.5 -96.5t92.5 -28.5q20 0 37 2.5t28 5.5q13 4 24 9l10 -114q-15 -7 -35 -12q-17 -5 -42.5 -8.5t-58.5 -3.5
q-56 0 -101 13.5t-77 41.5t-49.5 72t-17.5 105q0 68 21.5 126t61.5 100.5t98 66.5t130 24q34 0 60.5 -5t45.5 -10q22 -7 39 -15z" />
    <glyph glyph-name="Dcaron" unicode="&#x10e;" horiz-adv-x="718" 
d="M371 759l-99 168h120l52 -88l80 88h119l-151 -168h-121zM180 707h257q84 0 142 -21t93 -58.5t50.5 -88.5t15.5 -111q0 -52 -8 -104.5t-27 -100t-50 -88.5t-77 -71t-108 -47t-143 -17h-257zM368 131q54 0 93.5 23.5t65 62t38 89t12.5 104.5q0 36 -7.5 67t-24 53t-43 34.5
t-64.5 12.5h-120l-71 -446h121z" />
    <glyph glyph-name="dcaron" unicode="&#x10f;" horiz-adv-x="738" 
d="M672 503q7 4 19 15t24 25t22.5 29.5t13.5 27.5q-28 2 -38.5 17.5t-10.5 37.5q0 36 21 61.5t71 25.5q29 0 47 -17.5t18 -55.5q0 -39 -17 -74t-39 -62t-44 -45t-32 -24zM409 0l-5 73q-6 -8 -18.5 -22t-33 -27.5t-49 -24t-64.5 -10.5q-35 0 -65.5 13t-53 39.5t-35.5 65.5
t-13 91q0 66 20 127.5t60.5 109t100.5 75.5t140 28q20 0 38 -2t35 -5l2 27l27 173h155l-116 -731h-125zM445 407q-11 3 -23 6q-11 2 -23.5 4t-25.5 2q-37 0 -64.5 -17t-45.5 -45t-27 -63.5t-9 -72.5q0 -31 5.5 -51.5t15.5 -33t23 -17.5t27 -5q22 0 41.5 12t34.5 27.5
t25.5 31t14.5 22.5z" />
    <glyph glyph-name="Dcroat" unicode="&#x110;" horiz-adv-x="718" 
d="M76 413h57l47 294h257q84 0 142 -21t93 -58.5t50.5 -88.5t15.5 -111q0 -52 -8 -104.5t-27 -100t-50 -88.5t-77 -71t-108 -47t-143 -17h-257l46 289h-58zM368 131q54 0 93.5 23.5t65 62t38 89t12.5 104.5q0 36 -7.5 67t-24 53t-43 34.5t-64.5 12.5h-120l-26 -164h135
l-19 -124h-136l-25 -158h121z" />
    <glyph glyph-name="dcroat" unicode="&#x111;" horiz-adv-x="594" 
d="M359 672h127l9 59h155l-10 -59h72l-14 -86h-71l-93 -586h-125l-5 73q-6 -8 -18.5 -22t-33 -27.5t-49 -24t-64.5 -10.5q-35 0 -65.5 13t-53 39.5t-35.5 65.5t-13 91q0 66 20 127.5t60.5 109t100.5 75.5t140 28q20 0 38 -2t35 -5l2 27l4 28h-127zM445 407q-11 3 -23 6
q-11 2 -23.5 4t-25.5 2q-37 0 -64.5 -17t-45.5 -45t-27 -63.5t-9 -72.5q0 -31 5.5 -51.5t15.5 -33t23 -17.5t27 -5q22 0 41.5 12t34.5 27.5t25.5 31t14.5 22.5z" />
    <glyph glyph-name="Emacron" unicode="&#x112;" horiz-adv-x="627" 
d="M284 776l16 97h326l-15 -97h-327zM68 0l112 707h502l-20 -130h-344l-25 -155h297l-20 -131h-298l-25 -160h344l-21 -131h-502z" />
    <glyph glyph-name="emacron" unicode="&#x113;" horiz-adv-x="545" 
d="M219 615l15 98h327l-16 -98h-326zM383 538q92 0 137 -42t45 -106q0 -38 -17 -70.5t-53 -56.5t-91.5 -37.5t-132.5 -13.5h-20t-21 1q0 -4 -0.5 -7.5t-0.5 -6.5q0 -47 25.5 -69t80.5 -22q30 0 57 5t47 12q24 8 43 18l17 -111q-23 -12 -51 -22q-25 -8 -59 -14.5t-78 -6.5
q-123 0 -180 60t-57 162q0 66 21.5 125.5t61.5 104t97.5 71t128.5 26.5zM241 308q82 0 130.5 17t48.5 55q0 20 -14.5 34t-43.5 14q-42 0 -76 -31.5t-45 -88.5z" />
    <glyph glyph-name="Ebreve" unicode="&#x114;" horiz-adv-x="627" 
d="M641 927q-4 -26 -18.5 -55.5t-39 -54.5t-59 -41.5t-78.5 -16.5q-40 0 -66 11t-42.5 28t-24 37t-10 39t-2 33.5t1.5 19.5h102v-13t5 -23.5t17 -22.5t35 -10q18 0 32 7.5t23.5 18t15 22.5t7.5 21h101zM68 0l112 707h502l-20 -130h-344l-25 -155h297l-20 -131h-298l-25 -160
h344l-21 -131h-502z" />
    <glyph glyph-name="ebreve" unicode="&#x115;" horiz-adv-x="545" 
d="M578 757q-4 -26 -18.5 -55.5t-39 -54t-59 -41t-78.5 -16.5q-60 0 -90.5 23t-42.5 52.5t-11.5 56.5t1.5 35h101v-13t5.5 -23.5t17 -22.5t34.5 -10q18 0 32 7.5t24 18t15.5 22.5t6.5 21h102zM383 538q92 0 137 -42t45 -106q0 -38 -17 -70.5t-53 -56.5t-91.5 -37.5
t-132.5 -13.5h-20t-21 1q0 -4 -0.5 -7.5t-0.5 -6.5q0 -47 25.5 -69t80.5 -22q30 0 57 5t47 12q24 8 43 18l17 -111q-23 -12 -51 -22q-25 -8 -59 -14.5t-78 -6.5q-123 0 -180 60t-57 162q0 66 21.5 125.5t61.5 104t97.5 71t128.5 26.5zM241 308q82 0 130.5 17t48.5 55
q0 20 -14.5 34t-43.5 14q-42 0 -76 -31.5t-45 -88.5z" />
    <glyph glyph-name="Edotaccent" unicode="&#x116;" horiz-adv-x="627" 
d="M546 863q0 -38 -22.5 -65t-74.5 -27q-39 0 -56 17.5t-17 45.5q0 38 22.5 65t75.5 27q38 0 55 -17.5t17 -45.5zM68 0l112 707h502l-20 -130h-344l-25 -155h297l-20 -131h-298l-25 -160h344l-21 -131h-502z" />
    <glyph glyph-name="edotaccent" unicode="&#x117;" horiz-adv-x="545" 
d="M475 694q0 -38 -23 -65t-75 -27q-39 0 -56 17.5t-17 46.5q0 38 22.5 64.5t75.5 26.5q38 0 55.5 -17.5t17.5 -45.5zM383 538q92 0 137 -42t45 -106q0 -38 -17 -70.5t-53 -56.5t-91.5 -37.5t-132.5 -13.5h-20t-21 1q0 -4 -0.5 -7.5t-0.5 -6.5q0 -47 25.5 -69t80.5 -22
q30 0 57 5t47 12q24 8 43 18l17 -111q-23 -12 -51 -22q-25 -8 -59 -14.5t-78 -6.5q-123 0 -180 60t-57 162q0 66 21.5 125.5t61.5 104t97.5 71t128.5 26.5zM241 308q82 0 130.5 17t48.5 55q0 20 -14.5 34t-43.5 14q-42 0 -76 -31.5t-45 -88.5z" />
    <glyph glyph-name="Eogonek" unicode="&#x118;" horiz-adv-x="627" 
d="M570 0q-16 -3 -35 -11.5t-35.5 -20.5t-28 -26.5t-11.5 -29.5q0 -11 9.5 -19.5t32.5 -8.5q16 0 32.5 4t28.5 6l-12 -89q-21 -8 -50 -14.5t-61 -6.5q-54 0 -86 21t-32 57q0 24 12 45t30 38.5t39 31.5t38 23h-373l112 707h502l-20 -130h-344l-25 -155h297l-20 -131h-298
l-25 -160h344l-21 -131v0z" />
    <glyph glyph-name="eogonek" unicode="&#x119;" horiz-adv-x="545" 
d="M383 538q92 0 137 -42t45 -106q0 -38 -17 -70.5t-53 -56.5t-91.5 -37.5t-132.5 -13.5h-20t-21 1q0 -4 -0.5 -7.5t-0.5 -6.5q0 -47 25.5 -69t80.5 -22q30 0 57 5t47 12q24 8 43 18l17 -111q-12 -7 -28 -13q-14 -5 -32.5 -11t-42.5 -11q-16 -5 -33.5 -13.5t-31.5 -19.5
t-23.5 -24.5t-9.5 -27.5q0 -11 9.5 -19.5t32.5 -8.5q15 0 32 4t28 6l-11 -89q-21 -8 -50 -14.5t-61 -6.5q-54 0 -86 21t-32 57q0 21 10 40.5t25.5 36t34 30t35.5 23.5q-100 11 -145.5 68.5t-45.5 150.5q0 66 21.5 125.5t61.5 104t97.5 71t128.5 26.5zM241 308q82 0 130.5 17
t48.5 55q0 20 -14.5 34t-43.5 14q-42 0 -76 -31.5t-45 -88.5z" />
    <glyph glyph-name="Ecaron" unicode="&#x11a;" horiz-adv-x="627" 
d="M384 759l-99 168h120l52 -88l79 88h120l-151 -168h-121zM68 0l112 707h502l-20 -130h-344l-25 -155h297l-20 -131h-298l-25 -160h344l-21 -131h-502z" />
    <glyph glyph-name="ecaron" unicode="&#x11b;" horiz-adv-x="545" 
d="M311 592l-98 167h120l52 -87l79 87h120l-151 -167h-122zM383 538q92 0 137 -42t45 -106q0 -38 -17 -70.5t-53 -56.5t-91.5 -37.5t-132.5 -13.5h-20t-21 1q0 -4 -0.5 -7.5t-0.5 -6.5q0 -47 25.5 -69t80.5 -22q30 0 57 5t47 12q24 8 43 18l17 -111q-23 -12 -51 -22
q-25 -8 -59 -14.5t-78 -6.5q-123 0 -180 60t-57 162q0 66 21.5 125.5t61.5 104t97.5 71t128.5 26.5zM241 308q82 0 130.5 17t48.5 55q0 20 -14.5 34t-43.5 14q-42 0 -76 -31.5t-45 -88.5z" />
    <glyph glyph-name="Gcircumflex" unicode="&#x11c;" horiz-adv-x="678" 
d="M586 927l98 -168h-119l-52 88l-80 -88h-119l151 168h121zM512 585q-65 0 -114 -23t-81.5 -61.5t-49 -89t-16.5 -104.5q0 -52 15 -87.5t41.5 -57.5t61.5 -31.5t75 -9.5h20t19 1l36 227h152l-52 -326q-24 -10 -55 -17q-26 -7 -62 -12t-80 -5q-85 0 -147 22.5t-102.5 63
t-60 97.5t-19.5 126q0 89 28.5 165.5t82 133t130.5 89t174 32.5q44 0 80.5 -5.5t62.5 -12.5q31 -8 56 -17l-43 -126q-20 8 -45 14q-21 5 -48.5 9.5t-58.5 4.5z" />
    <glyph glyph-name="gcircumflex" unicode="&#x11d;" horiz-adv-x="595" 
d="M493 759l98 -167h-119l-53 87l-78 -87h-120l151 167h121zM540 26q-3 -20 -10 -45.5t-20.5 -52.5t-35 -52.5t-54 -45.5t-78 -32.5t-105.5 -12.5q-37 0 -65 4t-48 9q-23 5 -40 13l26 113q15 -7 33 -11q16 -4 37.5 -7t47.5 -3q78 0 117 33t45 92l5 46q-9 -12 -23 -25.5
t-34 -25t-45.5 -19t-57.5 -7.5q-34 0 -63.5 12t-51.5 36.5t-35 63t-13 91.5q0 67 20 128.5t60.5 108t101 74t140.5 27.5q42 0 81.5 -7t70.5 -15q36 -10 68 -21zM445 407q-11 3 -23 6q-11 2 -23.5 4t-25.5 2q-38 0 -65.5 -17t-45.5 -45t-26.5 -62.5t-8.5 -69.5
q0 -30 5.5 -49.5t15.5 -31.5t22.5 -17t27.5 -5q22 0 41.5 10.5t34.5 25t25.5 28.5t14.5 21z" />
    <glyph glyph-name="Gbreve" unicode="&#x11e;" horiz-adv-x="678" 
d="M693 927q-4 -26 -18.5 -55.5t-39 -54.5t-59 -41.5t-78.5 -16.5q-40 0 -66.5 11t-42.5 28t-23.5 37t-10 39t-2 33.5t1.5 19.5h101v-13t5.5 -23.5t17 -22.5t34.5 -10q18 0 32 7.5t24 18t15.5 22.5t6.5 21h102zM512 585q-65 0 -114 -23t-81.5 -61.5t-49 -89t-16.5 -104.5
q0 -52 15 -87.5t41.5 -57.5t61.5 -31.5t75 -9.5h20t19 1l36 227h152l-52 -326q-24 -10 -55 -17q-26 -7 -62 -12t-80 -5q-85 0 -147 22.5t-102.5 63t-60 97.5t-19.5 126q0 89 28.5 165.5t82 133t130.5 89t174 32.5q44 0 80.5 -5.5t62.5 -12.5q31 -8 56 -17l-43 -126
q-20 8 -45 14q-21 5 -48.5 9.5t-58.5 4.5z" />
    <glyph glyph-name="gbreve" unicode="&#x11f;" horiz-adv-x="596" 
d="M613 763q-4 -26 -18 -55.5t-39 -54.5t-59.5 -41.5t-78.5 -16.5q-40 0 -66 11t-42.5 28t-24 37t-10 39t-2 33.5t1.5 19.5h101q0 -2 0.5 -13t6 -23.5t17 -22.5t34.5 -10q18 0 32 7.5t23.5 18t15 22.5t7.5 21h101zM540 26q-3 -20 -10 -45.5t-20.5 -52.5t-35 -52.5t-54 -45.5
t-78 -32.5t-105.5 -12.5q-37 0 -65 4t-48 9q-23 5 -40 13l26 113q15 -7 33 -11q16 -4 37.5 -7t47.5 -3q78 0 117 33t45 92l5 46q-9 -12 -23 -25.5t-34 -25t-45.5 -19t-57.5 -7.5q-34 0 -63.5 12t-51.5 36.5t-35 63t-13 91.5q0 67 20 128.5t60.5 108t101 74t140.5 27.5
q42 0 81.5 -7t70.5 -15q36 -10 68 -21zM445 407q-11 3 -23 6q-11 2 -23.5 4t-25.5 2q-38 0 -65.5 -17t-45.5 -45t-26.5 -62.5t-8.5 -69.5q0 -30 5.5 -49.5t15.5 -31.5t22.5 -17t27.5 -5q22 0 41.5 10.5t34.5 25t25.5 28.5t14.5 21z" />
    <glyph glyph-name="Gdotaccent" unicode="&#x120;" horiz-adv-x="678" 
d="M611 863q0 -38 -23 -65t-75 -27q-38 0 -55 17.5t-17 45.5q0 38 22 65t75 27q39 0 56 -17.5t17 -45.5zM512 585q-65 0 -114 -23t-81.5 -61.5t-49 -89t-16.5 -104.5q0 -52 15 -87.5t41.5 -57.5t61.5 -31.5t75 -9.5h20t19 1l36 227h152l-52 -326q-24 -10 -55 -17
q-26 -7 -62 -12t-80 -5q-85 0 -147 22.5t-102.5 63t-60 97.5t-19.5 126q0 89 28.5 165.5t82 133t130.5 89t174 32.5q44 0 80.5 -5.5t62.5 -12.5q31 -8 56 -17l-43 -126q-20 8 -45 14q-21 5 -48.5 9.5t-58.5 4.5z" />
    <glyph glyph-name="gdotaccent" unicode="&#x121;" horiz-adv-x="595" 
d="M508 694q0 -38 -23 -65t-75 -27q-38 0 -55.5 17.5t-17.5 46.5q0 38 22.5 64.5t75.5 26.5q38 0 55.5 -17.5t17.5 -45.5zM540 26q-3 -20 -10 -45.5t-20.5 -52.5t-35 -52.5t-54 -45.5t-78 -32.5t-105.5 -12.5q-37 0 -65 4t-48 9q-23 5 -40 13l26 113q15 -7 33 -11
q16 -4 37.5 -7t47.5 -3q78 0 117 33t45 92l5 46q-9 -12 -23 -25.5t-34 -25t-45.5 -19t-57.5 -7.5q-34 0 -63.5 12t-51.5 36.5t-35 63t-13 91.5q0 67 20 128.5t60.5 108t101 74t140.5 27.5q42 0 81.5 -7t70.5 -15q36 -10 68 -21zM445 407q-11 3 -23 6q-11 2 -23.5 4t-25.5 2
q-38 0 -65.5 -17t-45.5 -45t-26.5 -62.5t-8.5 -69.5q0 -30 5.5 -49.5t15.5 -31.5t22.5 -17t27.5 -5q22 0 41.5 10.5t34.5 25t25.5 28.5t14.5 21z" />
    <glyph glyph-name="Gcommaaccent" unicode="&#x122;" horiz-adv-x="678" 
d="M279 -304q7 4 19 15.5t24.5 25.5t22.5 29t14 27q-28 2 -38.5 17.5t-10.5 37.5q0 36 21 61.5t71 25.5q28 0 46.5 -17t18.5 -55q0 -40 -17 -75t-39.5 -62t-44.5 -44.5t-32 -23.5zM512 585q-65 0 -114 -23t-81.5 -61.5t-49 -89t-16.5 -104.5q0 -52 15 -87.5t41.5 -57.5
t61.5 -31.5t75 -9.5h20t19 1l36 227h152l-52 -326q-24 -10 -55 -17q-26 -7 -62 -12t-80 -5q-85 0 -147 22.5t-102.5 63t-60 97.5t-19.5 126q0 89 28.5 165.5t82 133t130.5 89t174 32.5q44 0 80.5 -5.5t62.5 -12.5q31 -8 56 -17l-43 -126q-20 8 -45 14q-21 5 -48.5 9.5
t-58.5 4.5z" />
    <glyph glyph-name="gcommaaccent" unicode="&#x123;" horiz-adv-x="595" 
d="M534 835q-7 -4 -19 -15t-24 -25t-22.5 -29t-14.5 -28q28 -1 38.5 -17t10.5 -37q0 -36 -21 -61.5t-71 -25.5q-29 0 -47 17t-18 55q0 40 17 74.5t39.5 61.5t44.5 45t32 24zM540 26q-3 -20 -10 -45.5t-20.5 -52.5t-35 -52.5t-54 -45.5t-78 -32.5t-105.5 -12.5q-37 0 -65 4
t-48 9q-23 5 -40 13l26 113q15 -7 33 -11q16 -4 37.5 -7t47.5 -3q78 0 117 33t45 92l5 46q-9 -12 -23 -25.5t-34 -25t-45.5 -19t-57.5 -7.5q-34 0 -63.5 12t-51.5 36.5t-35 63t-13 91.5q0 67 20 128.5t60.5 108t101 74t140.5 27.5q42 0 81.5 -7t70.5 -15q36 -10 68 -21z
M445 407q-11 3 -23 6q-11 2 -23.5 4t-25.5 2q-38 0 -65.5 -17t-45.5 -45t-26.5 -62.5t-8.5 -69.5q0 -30 5.5 -49.5t15.5 -31.5t22.5 -17t27.5 -5q22 0 41.5 10.5t34.5 25t25.5 28.5t14.5 21z" />
    <glyph glyph-name="Hcircumflex" unicode="&#x124;" horiz-adv-x="734" 
d="M570 927l98 -168h-119l-52 88l-80 -88h-119l151 168h121zM508 0l44 279h-282l-44 -279h-158l112 707h158l-45 -286h282l45 286h158l-112 -707h-158z" />
    <glyph glyph-name="hcircumflex" unicode="&#x125;" horiz-adv-x="605" 
d="M342 949l98 -168h-119l-53 88l-78 -88h-120l150 168h122zM331 731l-34 -216l-13 -60q7 8 22.5 22t38.5 27.5t53.5 23.5t68.5 10q70 0 106 -39.5t36 -108.5q0 -25 -4 -48l-54 -342h-155l52 328q1 7 1.5 13t0.5 11q0 61 -55 61q-26 0 -48.5 -13t-40.5 -28q-21 -18 -39 -40
l-52 -332h-155l116 731h155z" />
    <glyph glyph-name="Hbar" unicode="&#x126;" horiz-adv-x="734" 
d="M508 0l44 279h-282l-44 -279h-158l84 529h-52l14 90h52l14 88h158l-14 -88h282l14 88h158l-14 -88h52l-14 -90h-52l-84 -529h-158zM575 421l17 108h-282l-17 -108h282z" />
    <glyph glyph-name="hbar" unicode="&#x127;" horiz-adv-x="605" 
d="M331 731l-10 -59h130l-14 -86h-129l-11 -71l-13 -60q7 8 22.5 22t38.5 27.5t53.5 23.5t68.5 10q70 0 106 -39.5t36 -108.5q0 -25 -4 -48l-54 -342h-155l52 328q1 7 1.5 13t0.5 11q0 61 -55 61q-26 0 -48.5 -13t-40.5 -28q-21 -18 -39 -40l-52 -332h-155l93 586h-69l14 86
h68l10 59h155z" />
    <glyph glyph-name="Itilde" unicode="&#x128;" horiz-adv-x="299" 
d="M70 0l112 707h159l-112 -707h-159zM85 761v15q0 27 8.5 53.5t25 47t41 33t56.5 12.5q24 0 42 -9t32 -19.5l26 -19.5t24 -9q15 0 24 10t9 30q0 3 -0.5 5.5t-0.5 4.5q-1 3 -1 5h106v-12q0 -29 -8.5 -56t-25 -47.5t-41 -33t-56.5 -12.5q-25 0 -42.5 8.5t-31.5 19l-26 19.5
t-25 9q-14 0 -22.5 -10t-8.5 -30v-14h-105z" />
    <glyph glyph-name="itilde" unicode="&#x129;" horiz-adv-x="276" 
d="M60 0l83 527h155l-83 -527h-155zM47 590v15q0 27 8.5 53.5t25 46.5t41 32.5t56.5 12.5q24 0 42 -9t32 -19.5t26 -19t24 -8.5q15 0 24 10t9 30q0 2 -0.5 5t-0.5 5q-1 3 -1 4h106v-11q0 -29 -8.5 -56t-25 -47.5t-41 -33t-56.5 -12.5q-25 0 -42.5 8.5t-31.5 19l-26 19.5
t-25 9q-14 0 -22.5 -10.5t-8.5 -30.5v-13h-105z" />
    <glyph glyph-name="Imacron" unicode="&#x12a;" horiz-adv-x="299" 
d="M70 0l112 707h159l-112 -707h-159zM107 776l15 97h326l-15 -97h-326z" />
    <glyph glyph-name="imacron" unicode="&#x12b;" horiz-adv-x="276" 
d="M72 615l16 98h315l-16 -98h-315zM215 0h-155l83 527h155z" />
    <glyph glyph-name="Ibreve" unicode="&#x12c;" horiz-adv-x="299" 
d="M70 0l112 707h159l-112 -707h-159zM467 927q-4 -26 -18.5 -55.5t-39 -54.5t-59 -41.5t-78.5 -16.5q-40 0 -66.5 11t-42.5 28t-23.5 37t-10 39t-2 33.5t1.5 19.5h101v-13t5.5 -23.5t17 -22.5t34.5 -10q18 0 32 7.5t24 18t15.5 22.5t6.5 21h102z" />
    <glyph glyph-name="ibreve" unicode="&#x12d;" horiz-adv-x="275" 
d="M60 0l83 527h155l-83 -527h-155zM427 757q-4 -26 -18 -55.5t-39 -54t-59.5 -41t-78.5 -16.5q-40 0 -66 11t-42.5 27.5t-24 37t-10 39t-2 33t1.5 19.5h101q0 -2 0.5 -13t6 -23.5t17 -22.5t34.5 -10q18 0 32 7.5t23.5 18t15 22.5t7.5 21h101z" />
    <glyph glyph-name="Iogonek" unicode="&#x12e;" horiz-adv-x="299" 
d="M230 0q-16 -3 -35 -11.5t-35.5 -20.5t-28 -26.5t-11.5 -29.5q0 -11 9.5 -19.5t32.5 -8.5q15 0 32 4t28 6l-11 -89q-21 -8 -50 -14.5t-61 -6.5q-54 0 -86 21t-32 57q0 24 12 45t30 38.5t39 31.5t38 23h-31l112 707h159l-112 -707h1z" />
    <glyph glyph-name="iogonek" unicode="&#x12f;" horiz-adv-x="274" 
d="M215 0q-17 -4 -36 -12.5t-35.5 -20.5t-27.5 -26t-11 -29q0 -11 10 -19.5t33 -8.5q15 0 31.5 4t28.5 6l-12 -89q-21 -8 -50 -14.5t-61 -6.5q-53 0 -85.5 21t-32.5 57q0 24 12 44.5t30 38t40 31.5t43 24h-32l83 527h155zM334 678q0 -38 -23.5 -65.5t-78.5 -27.5
q-41 0 -58.5 18t-17.5 47q0 38 23.5 65t78.5 27q41 0 58.5 -17.5t17.5 -46.5z" />
    <glyph glyph-name="Idotaccent" unicode="&#x130;" horiz-adv-x="299" 
d="M70 0l112 707h159l-112 -707h-159zM368 852q0 -38 -22.5 -65t-74.5 -27q-39 0 -56 17.5t-17 45.5q0 38 22.5 65t74.5 27q39 0 56 -17.5t17 -45.5z" />
    <glyph glyph-name="dotlessi" unicode="&#x131;" horiz-adv-x="260" 
d="M53 0l83 527h155l-83 -527h-155z" />
    <glyph glyph-name="IJ" unicode="&#x132;" horiz-adv-x="762" 
d="M70 0l112 707h159l-112 -707h-159zM652 707h158l-77 -482q-8 -52 -25 -95t-46 -74.5t-71.5 -49t-102.5 -17.5q-33 0 -57.5 5t-41.5 12q-19 7 -32 17l40 118q7 -7 18 -11q9 -5 22.5 -8t31.5 -3q51 0 75 27t32 80z" />
    <glyph glyph-name="ij" unicode="&#x133;" horiz-adv-x="558" 
d="M60 0l83 527h155l-83 -527h-155zM216 -87q5 -2 12 -4q6 -2 13.5 -3t18.5 -1q34 0 54 19t28 65l85 538h154l-85 -536q-33 -206 -220 -206q-35 0 -60 5q-13 2 -23 5zM334 678q0 -38 -23.5 -65.5t-78.5 -27.5q-41 0 -58.5 18t-17.5 47q0 38 23.5 65t78.5 27q41 0 58.5 -17.5
t17.5 -46.5zM618 678q0 -38 -23.5 -65.5t-78.5 -27.5q-41 0 -58.5 18t-17.5 47q0 38 23.5 65t78.5 27q41 0 58.5 -17.5t17.5 -46.5z" />
    <glyph glyph-name="Jcircumflex" unicode="&#x134;" horiz-adv-x="446" 
d="M510 927l98 -168h-120l-52 88l-79 -88h-119l150 168h122zM336 707h158l-77 -482q-8 -52 -25 -95t-46 -74.5t-71.5 -49t-102.5 -17.5q-33 0 -57.5 5t-41.5 12q-19 7 -32 17l40 118q7 -7 18 -11q9 -5 22.5 -8t31.5 -3q51 0 75 27t32 80z" />
    <glyph glyph-name="jcircumflex" unicode="&#x135;" horiz-adv-x="281" 
d="M292 592l-52 87l-79 -87h-120l151 167h122l98 -167h-120zM-61 -87q5 -2 12 -4q6 -2 13.5 -3t18.5 -1q34 0 54 19t28 65l85 538h154l-85 -536q-33 -206 -220 -206q-35 0 -60 5q-13 2 -23 5z" />
    <glyph glyph-name="Kcommaaccent" unicode="&#x136;" horiz-adv-x="684" 
d="M216 -304q7 4 19 15.5t24 25.5t22.5 29t13.5 27q-28 2 -38.5 17.5t-10.5 37.5q0 36 21 61.5t71 25.5q28 0 46.5 -17t18.5 -55q0 -40 -17 -75t-39 -62t-44 -44.5t-32 -23.5zM478 0l-161 275h-47l-44 -275h-158l112 707h158l-48 -305q22 3 33 6q6 2 9 4q12 12 29 30.5
t37 41.5t41.5 48.5t42.5 50.5q48 58 102 124h176q-6 -11 -26 -37t-48 -59.5t-60.5 -72t-64.5 -75t-60 -68.5t-46 -53l197 -342h-174z" />
    <glyph glyph-name="kcommaaccent" unicode="&#x137;" horiz-adv-x="579" 
d="M170 -304q7 4 19 15.5t24 25.5t22 29t14 27q-28 2 -38.5 17.5t-10.5 37.5q0 36 21 61.5t71 25.5q28 0 46.5 -17t18.5 -55q0 -40 -17 -75t-39.5 -62t-44 -44.5t-31.5 -23.5zM397 0l-121 210h-28l-33 -210h-155l116 731h155l-66 -415q12 3 19 4.5t15 4.5q6 6 16.5 17.5
t23.5 26.5t27.5 32.5t29.5 35.5q33 41 73 90h168q-7 -14 -34.5 -48.5t-62 -75t-69 -79.5t-55.5 -63l150 -261h-169z" />
    <glyph glyph-name="kgreenlandic" unicode="&#x138;" horiz-adv-x="579" 
d="M396 0l-121 210h-27l-33 -210h-155l84 527h154l-33 -211q12 3 19 4.5t15 4.5q6 6 16.5 17.5t23.5 26.5t27.5 32.5t29.5 35.5q34 41 74 90h167q-7 -14 -34.5 -48t-61.5 -74.5t-68.5 -80t-56.5 -63.5l150 -261h-170z" />
    <glyph glyph-name="Lacute" unicode="&#x139;" horiz-adv-x="558" 
d="M197 760l117 167h161l-153 -167h-125zM68 0l112 707h158l-91 -573h291l-21 -134h-449z" />
    <glyph glyph-name="lacute" unicode="&#x13a;" horiz-adv-x="341" 
d="M185 781l117 167h161l-152 -167h-126zM314 14q-14 -8 -32 -13q-16 -5 -38 -8.5t-48 -3.5q-64 0 -91.5 34.5t-27.5 88.5q0 11 1 22.5t3 22.5l91 574h155l-88 -560q-3 -15 -3 -27q0 -38 33 -38q8 0 16 1t15 3q8 2 15 5z" />
    <glyph glyph-name="Lcommaaccent" unicode="&#x13b;" horiz-adv-x="558" 
d="M170 -304q7 4 19 15.5t24.5 25.5t22.5 29t14 27q-28 2 -38.5 17.5t-10.5 37.5q0 36 20.5 61.5t70.5 25.5q29 0 47.5 -17t18.5 -55q0 -40 -17 -75t-39.5 -62t-44.5 -44.5t-32 -23.5zM68 0l112 707h158l-91 -573h291l-21 -134h-449z" />
    <glyph glyph-name="lcommaaccent" unicode="&#x13c;" horiz-adv-x="343" 
d="M66 -304q7 4 19 15.5t24 25.5t22 29t14 27q-28 2 -38.5 17.5t-10.5 37.5q0 36 21 61.5t71 25.5q28 0 46.5 -17t18.5 -55q0 -40 -17 -75t-39.5 -62t-44 -44.5t-31.5 -23.5zM314 14q-14 -8 -32 -13q-16 -5 -38 -8.5t-48 -3.5q-64 0 -91.5 34.5t-27.5 88.5q0 11 1 22.5
t3 22.5l91 574h155l-88 -560q-3 -15 -3 -27q0 -38 33 -38q8 0 16 1t15 3q8 2 15 5z" />
    <glyph glyph-name="Lcaron" unicode="&#x13d;" horiz-adv-x="558" 
d="M437 504q7 4 19 15t24.5 25t22.5 29t14 28q-28 1 -38.5 17t-10.5 37q0 37 20.5 62t70.5 25q29 0 47.5 -17t18.5 -55q0 -40 -17 -74.5t-39.5 -61.5t-44.5 -45t-32 -24zM68 0l112 707h158l-91 -573h291l-21 -134h-449z" />
    <glyph glyph-name="lcaron" unicode="&#x13e;" horiz-adv-x="453" 
d="M364 504q7 4 19 15t24 25t22.5 29t13.5 28q-28 1 -38.5 17t-10.5 37q0 37 21 62t71 25q28 0 46.5 -17t18.5 -55q0 -40 -17 -74.5t-39 -61.5t-44 -45t-32 -24zM314 14q-14 -8 -32 -13q-16 -5 -38 -8.5t-48 -3.5q-64 0 -91.5 34.5t-27.5 88.5q0 11 1 22.5t3 22.5l91 574
h155l-88 -560q-3 -15 -3 -27q0 -38 33 -38q8 0 16 1t15 3q8 2 15 5z" />
    <glyph glyph-name="Ldot" unicode="&#x13f;" horiz-adv-x="571" 
d="M574 385q0 -39 -23.5 -68.5t-78.5 -29.5q-41 0 -58.5 18.5t-17.5 48.5q0 41 23.5 70t78.5 29q41 0 58.5 -19t17.5 -49zM68 0l112 707h158l-91 -573h291l-21 -134h-449z" />
    <glyph glyph-name="ldot" unicode="&#x140;" horiz-adv-x="542" 
d="M553 385q0 -39 -23.5 -68.5t-78.5 -29.5q-41 0 -58.5 18.5t-17.5 48.5q0 41 23.5 70t78.5 29q42 0 59 -19t17 -49zM314 14q-14 -8 -32 -13q-16 -5 -38 -8.5t-48 -3.5q-64 0 -91.5 34.5t-27.5 88.5q0 11 1 22.5t3 22.5l91 574h155l-88 -560q-3 -15 -3 -27q0 -38 33 -38
q8 0 16 1t15 3q8 2 15 5z" />
    <glyph glyph-name="Lslash" unicode="&#x141;" horiz-adv-x="558" 
d="M68 0l45 283l-70 -19l-13 120l103 27l47 296h158l-40 -252l114 31l12 -119l-147 -40l-30 -193h291l-21 -134h-449z" />
    <glyph glyph-name="lslash" unicode="&#x142;" horiz-adv-x="341" 
d="M314 14q-14 -8 -32 -13q-16 -5 -38 -8.5t-48 -3.5q-64 0 -91.5 34.5t-27.5 88.5q0 11 1 22.5t3 22.5l19 124l-63 -17l-13 120l97 26l51 321h155l-44 -277l119 32l12 -120l-151 -41l-24 -154q-3 -15 -3 -27q0 -38 33 -38q8 0 16 1t15 3q8 2 15 5z" />
    <glyph glyph-name="Nacute" unicode="&#x143;" horiz-adv-x="739" 
d="M420 760l117 167h160l-152 -167h-125zM518 0l-231 445l-7 -79l-58 -366h-154l112 707h150l232 -458l8 81l60 377h153l-112 -707h-153z" />
    <glyph glyph-name="nacute" unicode="&#x144;" horiz-adv-x="605" 
d="M314 592l117 167h161l-153 -167h-125zM268 527l6 -73q20 24 48 42q23 16 58 29t80 13q72 0 110.5 -40t38.5 -111q0 -11 -1 -22t-3 -23l-54 -342h-155l52 328q1 6 1.5 12t0.5 11q0 32 -15.5 47t-41.5 15t-49 -13.5t-40 -30.5q-20 -19 -38 -44l-51 -325h-155l83 527h125z
" />
    <glyph glyph-name="Ncommaaccent" unicode="&#x145;" horiz-adv-x="739" 
d="M242 -304q7 4 19 15.5t24 25.5t22.5 29t13.5 27q-27 2 -38 17.5t-11 37.5q0 36 21 61.5t71 25.5q28 0 46.5 -17t18.5 -55q0 -40 -17 -75t-39 -62t-44 -44.5t-32 -23.5zM518 0l-231 445l-7 -79l-58 -366h-154l112 707h150l232 -458l8 81l60 377h153l-112 -707h-153z" />
    <glyph glyph-name="ncommaaccent" unicode="&#x146;" horiz-adv-x="605" 
d="M175 -304q7 4 19 15.5t24 25.5t22 29t14 27q-28 2 -38.5 17.5t-10.5 37.5q0 36 21 61.5t71 25.5q28 0 46.5 -17t18.5 -55q0 -40 -17 -75t-39.5 -62t-44 -44.5t-31.5 -23.5zM268 527l6 -73q20 24 48 42q23 16 58 29t80 13q72 0 110.5 -40t38.5 -111q0 -11 -1 -22t-3 -23
l-54 -342h-155l52 328q1 6 1.5 12t0.5 11q0 32 -15.5 47t-41.5 15t-49 -13.5t-40 -30.5q-20 -19 -38 -44l-51 -325h-155l83 527h125z" />
    <glyph glyph-name="Ncaron" unicode="&#x147;" horiz-adv-x="739" 
d="M450 927l52 -88l79 88h120l-151 -168h-122l-98 168h120zM518 0l-231 445l-7 -79l-58 -366h-154l112 707h150l232 -458l8 81l60 377h153l-112 -707h-153z" />
    <glyph glyph-name="ncaron" unicode="&#x148;" horiz-adv-x="605" 
d="M334 592l-98 167h119l52 -87l79 87h120l-151 -167h-121zM268 527l6 -73q20 24 48 42q23 16 58 29t80 13q72 0 110.5 -40t38.5 -111q0 -11 -1 -22t-3 -23l-54 -342h-155l52 328q1 6 1.5 12t0.5 11q0 32 -15.5 47t-41.5 15t-49 -13.5t-40 -30.5q-20 -19 -38 -44l-51 -325
h-155l83 527h125z" />
    <glyph glyph-name="napostrophe" unicode="&#x149;" horiz-adv-x="780" 
d="M93 504q7 4 19 15t24 25t22 29t14 28q-28 1 -38.5 17t-10.5 37q0 37 21 62t71 25q29 0 47 -17t18 -55q0 -40 -17 -74.5t-39.5 -61.5t-44 -45t-31.5 -24zM442 527l6 -73q20 24 48 42q23 16 58 29t80 13q72 0 110.5 -40t38.5 -111q0 -11 -1 -22t-3 -23l-54 -342h-155
l52 328q1 6 1.5 12t0.5 11q0 32 -15.5 47t-41.5 15t-49 -13.5t-40 -30.5q-20 -19 -38 -44l-51 -325h-155l83 527h125z" />
    <glyph glyph-name="Eng" unicode="&#x14a;" horiz-adv-x="739" 
d="M346 -79q8 -4 18 -7q8 -2 20 -4t28 -2q41 0 68.5 20.5t37.5 71.5l-231 445l-7 -79l-58 -366h-154l112 707h150l232 -458l8 81l60 377h153l-114 -719q-5 -33 -21.5 -68.5t-45.5 -65.5t-72.5 -49.5t-103.5 -19.5q-28 0 -48 3t-34 7q-16 4 -27 10z" />
    <glyph glyph-name="eng" unicode="&#x14b;" horiz-adv-x="606" 
d="M268 527l5 -87q24 27 54 49q26 18 61.5 33.5t80.5 15.5q70 0 105 -38.5t35 -107.5q0 -12 -1 -24t-3 -26l-49 -311q-8 -53 -23.5 -98t-43 -78t-69.5 -51.5t-102 -18.5q-27 0 -46.5 3t-33.5 7q-16 4 -27 10l29 113q6 -4 15 -7q17 -7 46 -7q43 0 65 25t32 85l50 314
q1 7 1.5 13t0.5 11q0 61 -55 61q-26 0 -48.5 -12.5t-40.5 -26.5q-21 -18 -39 -39l-52 -335h-155l83 527h125z" />
    <glyph glyph-name="Omacron" unicode="&#x14c;" horiz-adv-x="762" 
d="M326 776l16 97h326l-15 -97h-327zM387 -11q-66 0 -120 18.5t-92.5 55.5t-60 92.5t-21.5 130.5q0 97 28 176.5t79 136.5t122 88t156 31q78 0 135.5 -22t94.5 -61t55 -94t18 -121q0 -95 -27 -174t-78 -136t-124 -89t-165 -32zM252 296q0 -38 8 -70.5t26 -56.5t47.5 -37.5
t71.5 -13.5q46 0 86 20.5t69.5 59t46.5 93.5t17 124q0 86 -40 129t-117 43q-45 0 -84 -19.5t-68.5 -57t-46 -91.5t-16.5 -123z" />
    <glyph glyph-name="omacron" unicode="&#x14d;" horiz-adv-x="596" 
d="M223 615l16 98h326l-15 -98h-327zM305 -11q-52 0 -95 14.5t-73.5 43t-47.5 72t-17 101.5q0 71 21 129.5t59 100.5t92 65t120 23q124 0 184 -60t60 -170q0 -69 -20.5 -127.5t-59 -101t-95 -66.5t-128.5 -24zM227 221q0 -51 21.5 -81.5t71.5 -30.5q31 0 56 15t42.5 41.5
t26.5 63t9 79.5q0 53 -21.5 81.5t-73.5 28.5q-31 0 -55.5 -15t-41.5 -41t-26 -62.5t-9 -78.5z" />
    <glyph glyph-name="Obreve" unicode="&#x14e;" horiz-adv-x="762" 
d="M682 927q-4 -26 -18 -55.5t-39 -54.5t-59.5 -41.5t-78.5 -16.5q-40 0 -66 11t-42 28t-24 37t-10.5 39t-2 33.5t1.5 19.5h102v-13t5.5 -23.5t17.5 -22.5t35 -10q18 0 31.5 7.5t23.5 18t15.5 22.5t6.5 21h101zM387 -11q-66 0 -120 18.5t-92.5 55.5t-60 92.5t-21.5 130.5
q0 97 28 176.5t79 136.5t122 88t156 31q78 0 135.5 -22t94.5 -61t55 -94t18 -121q0 -95 -27 -174t-78 -136t-124 -89t-165 -32zM252 296q0 -38 8 -70.5t26 -56.5t47.5 -37.5t71.5 -13.5q46 0 86 20.5t69.5 59t46.5 93.5t17 124q0 86 -40 129t-117 43q-45 0 -84 -19.5
t-68.5 -57t-46 -91.5t-16.5 -123z" />
    <glyph glyph-name="obreve" unicode="&#x14f;" horiz-adv-x="596" 
d="M573 757q-4 -26 -18.5 -55.5t-39 -54t-59 -41t-78.5 -16.5q-60 0 -90.5 23t-42.5 52.5t-11.5 56.5t1.5 35h101v-13t5.5 -23.5t17.5 -22.5t35 -10q18 0 31.5 7.5t23.5 18t15.5 22.5t7.5 21h101zM305 -11q-52 0 -95 14.5t-73.5 43t-47.5 72t-17 101.5q0 71 21 129.5
t59 100.5t92 65t120 23q124 0 184 -60t60 -170q0 -69 -20.5 -127.5t-59 -101t-95 -66.5t-128.5 -24zM227 221q0 -51 21.5 -81.5t71.5 -30.5q31 0 56 15t42.5 41.5t26.5 63t9 79.5q0 53 -21.5 81.5t-73.5 28.5q-31 0 -55.5 -15t-41.5 -41t-26 -62.5t-9 -78.5z" />
    <glyph glyph-name="Ohungarumlaut" unicode="&#x150;" horiz-adv-x="762" 
d="M329 760l95 167h125l-101 -167h-119zM513 760l94 167h133l-121 -167h-106zM387 -11q-66 0 -120 18.5t-92.5 55.5t-60 92.5t-21.5 130.5q0 97 28 176.5t79 136.5t122 88t156 31q78 0 135.5 -22t94.5 -61t55 -94t18 -121q0 -95 -27 -174t-78 -136t-124 -89t-165 -32z
M252 296q0 -38 8 -70.5t26 -56.5t47.5 -37.5t71.5 -13.5q46 0 86 20.5t69.5 59t46.5 93.5t17 124q0 86 -40 129t-117 43q-45 0 -84 -19.5t-68.5 -57t-46 -91.5t-16.5 -123z" />
    <glyph glyph-name="ohungarumlaut" unicode="&#x151;" horiz-adv-x="596" 
d="M216 592l95 167h125l-100 -167h-120zM401 592l94 167h133l-122 -167h-105zM305 -11q-52 0 -95 14.5t-73.5 43t-47.5 72t-17 101.5q0 71 21 129.5t59 100.5t92 65t120 23q124 0 184 -60t60 -170q0 -69 -20.5 -127.5t-59 -101t-95 -66.5t-128.5 -24zM227 221
q0 -51 21.5 -81.5t71.5 -30.5q31 0 56 15t42.5 41.5t26.5 63t9 79.5q0 53 -21.5 81.5t-73.5 28.5q-31 0 -55.5 -15t-41.5 -41t-26 -62.5t-9 -78.5z" />
    <glyph glyph-name="OE" unicode="&#x152;" horiz-adv-x="1122" 
d="M478 718q75 0 125.5 -23.5t79.5 -65.5l13 78h480l-20 -130h-344l-25 -155h297l-20 -131h-297l-26 -160h344l-21 -131h-480l9 62q-37 -33 -90.5 -53t-118.5 -20q-66 0 -119.5 19t-91.5 56t-59 92.5t-21 129.5q0 97 28 176.5t79 136.5t122 88t156 31zM469 587
q-45 0 -84.5 -19.5t-69 -57t-46 -91.5t-16.5 -123q0 -37 8 -69.5t26.5 -56.5t47.5 -38t71 -14q46 0 86.5 20.5t69.5 59t46 93.5t17 124q0 86 -39.5 129t-116.5 43z" />
    <glyph glyph-name="oe" unicode="&#x153;" horiz-adv-x="921" 
d="M759 538q92 0 137 -42.5t45 -105.5q0 -40 -18.5 -73.5t-59 -56.5t-104 -35t-153.5 -9q-5 -55 20 -81.5t85 -26.5q30 0 57 5t47 12q24 8 43 18l17 -112q-23 -12 -52 -21q-25 -8 -60 -14.5t-79 -6.5q-66 0 -111.5 17t-73.5 49q-35 -32 -83.5 -49t-110.5 -17q-52 0 -95 14.5
t-73.5 43t-47.5 72t-17 101.5q0 71 20.5 129.5t59 100.5t92 65t119.5 23q69 0 115.5 -20.5t72.5 -58.5q39 37 91.5 58t116.5 21zM227 221q0 -51 21.5 -81.5t71.5 -30.5q31 0 56 15t42.5 41.5t26.5 63t9 79.5q0 53 -21.5 81.5t-73.5 28.5q-31 0 -55.5 -15t-41.5 -41
t-26 -62.5t-9 -78.5zM617 307q81 0 130 17.5t49 55.5q0 20 -14.5 34t-43.5 14q-42 0 -76 -32t-45 -89z" />
    <glyph glyph-name="Racute" unicode="&#x154;" horiz-adv-x="687" 
d="M366 760l117 167h161l-152 -167h-126zM469 707q68 0 114.5 -13.5t74.5 -38.5t40 -59t12 -74q0 -42 -9 -81t-29.5 -72t-53 -59t-78.5 -42l103 -268h-163l-92 245h-123l-39 -245h-158l112 707h289zM285 370h114q84 0 116.5 32.5t32.5 93.5q0 39 -25 60.5t-92 21.5h-113z
" />
    <glyph glyph-name="racute" unicode="&#x155;" horiz-adv-x="402" 
d="M188 592l117 167h160l-152 -167h-125zM268 527l7 -74q10 13 27.5 27.5t41.5 27.5t54 21.5t66 8.5l-27 -137q-2 0 -6 1q-3 0 -8.5 0.5t-12.5 0.5q-33 0 -59.5 -12t-45.5 -26q-22 -17 -39 -37l-51 -328h-155l83 527h125z" />
    <glyph glyph-name="Rcommaaccent" unicode="&#x156;" horiz-adv-x="687" 
d="M219 -304q7 4 19 15t24 25t22.5 29t13.5 28q-27 1 -38 17t-11 37q0 37 21 62t71 25q29 0 47.5 -16.5t18.5 -54.5q0 -40 -17 -75t-39.5 -62t-44.5 -45t-32 -24zM469 707q68 0 114.5 -13.5t74.5 -38.5t40 -59t12 -74q0 -42 -9 -81t-29.5 -72t-53 -59t-78.5 -42l103 -268
h-163l-92 245h-123l-39 -245h-158l112 707h289zM285 370h114q84 0 116.5 32.5t32.5 93.5q0 39 -25 60.5t-92 21.5h-113z" />
    <glyph glyph-name="rcommaaccent" unicode="&#x157;" horiz-adv-x="402" 
d="M11 -304q7 4 19 15.5t24 25.5t22 29t14 27q-28 2 -38.5 17.5t-10.5 37.5q0 36 21 61.5t71 25.5q28 0 46.5 -17t18.5 -55q0 -40 -17 -75t-39.5 -62t-44 -44.5t-31.5 -23.5zM268 527l7 -74q10 13 27.5 27.5t41.5 27.5t54 21.5t66 8.5l-27 -137q-2 0 -6 1q-3 0 -8.5 0.5
t-12.5 0.5q-33 0 -59.5 -12t-45.5 -26q-22 -17 -39 -37l-51 -328h-155l83 527h125z" />
    <glyph glyph-name="Rcaron" unicode="&#x158;" horiz-adv-x="687" 
d="M387 759l-98 168h119l52 -88l80 88h119l-151 -168h-121zM469 707q68 0 114.5 -13.5t74.5 -38.5t40 -59t12 -74q0 -42 -9 -81t-29.5 -72t-53 -59t-78.5 -42l103 -268h-163l-92 245h-123l-39 -245h-158l112 707h289zM285 370h114q84 0 116.5 32.5t32.5 93.5q0 39 -25 60.5
t-92 21.5h-113z" />
    <glyph glyph-name="rcaron" unicode="&#x159;" horiz-adv-x="402" 
d="M241 592l-99 167h120l52 -87l80 87h119l-151 -167h-121zM268 527l7 -74q10 13 27.5 27.5t41.5 27.5t54 21.5t66 8.5l-27 -137q-2 0 -6 1q-3 0 -8.5 0.5t-12.5 0.5q-33 0 -59.5 -12t-45.5 -26q-22 -17 -39 -37l-51 -328h-155l83 527h125z" />
    <glyph glyph-name="Sacute" unicode="&#x15a;" horiz-adv-x="606" 
d="M338 759l117 167h160l-151 -167h-126zM102 177q25 -18 56 -31q26 -11 62 -20.5t81 -9.5q56 0 89 19.5t33 60.5q0 36 -26.5 53t-69.5 34q-44 17 -82 34.5t-67 41.5t-45.5 58t-16.5 84q0 104 72.5 160.5t207.5 56.5q54 0 95.5 -8t70.5 -18q33 -11 58 -25l-49 -114
q-18 10 -43 19q-21 8 -52 14t-72 6q-58 0 -94 -17t-36 -60q0 -15 6 -25.5t20.5 -20.5t39.5 -21.5t64 -27.5q40 -17 73.5 -34t57 -40t36.5 -54.5t13 -76.5q0 -104 -72.5 -165t-214.5 -61q-63 0 -109 10t-77 22q-36 14 -61 33z" />
    <glyph glyph-name="sacute" unicode="&#x15b;" horiz-adv-x="495" 
d="M261 592l117 167h160l-152 -167h-125zM99 148q19 -12 44 -22q21 -8 49.5 -14.5t63.5 -6.5q74 0 74 40q0 11 -5.5 18.5t-16.5 13t-27 10.5t-37 13q-31 11 -57.5 25t-45.5 33.5t-29.5 46t-10.5 63.5q0 76 55 123t174 47q48 0 81.5 -7t55 -15t31.5 -14t10 -5l-42 -111
q0 -1 -9 4.5t-26 12t-42.5 12t-59.5 5.5q-79 0 -79 -38q0 -13 7.5 -22t20.5 -15.5t29 -12t34 -11.5q36 -13 62.5 -27.5t44 -33.5t25.5 -43t8 -55q0 -85 -58.5 -129t-170.5 -44q-50 0 -87 7t-61.5 16t-36.5 16.5t-12 8.5z" />
    <glyph glyph-name="Scircumflex" unicode="&#x15c;" horiz-adv-x="595" 
d="M504 927l98 -168h-119l-52 88l-79 -88h-120l151 168h121zM102 177q25 -18 56 -31q26 -11 62 -20.5t81 -9.5q56 0 89 19.5t33 60.5q0 36 -26.5 53t-69.5 34q-44 17 -82 34.5t-67 41.5t-45.5 58t-16.5 84q0 104 72.5 160.5t207.5 56.5q54 0 95.5 -8t70.5 -18q33 -11 58 -25
l-49 -114q-18 10 -43 19q-21 8 -52 14t-72 6q-58 0 -94 -17t-36 -60q0 -15 6 -25.5t20.5 -20.5t39.5 -21.5t64 -27.5q40 -17 73.5 -34t57 -40t36.5 -54.5t13 -76.5q0 -104 -72.5 -165t-214.5 -61q-63 0 -109 10t-77 22q-36 14 -61 33z" />
    <glyph glyph-name="scircumflex" unicode="&#x15d;" horiz-adv-x="495" 
d="M430 759l99 -167h-120l-52 87l-79 -87h-119l150 167h121zM99 148q19 -12 44 -22q21 -8 49.5 -14.5t63.5 -6.5q74 0 74 40q0 11 -5.5 18.5t-16.5 13t-27 10.5t-37 13q-31 11 -57.5 25t-45.5 33.5t-29.5 46t-10.5 63.5q0 76 55 123t174 47q48 0 81.5 -7t55 -15t31.5 -14
t10 -5l-42 -111q0 -1 -9 4.5t-26 12t-42.5 12t-59.5 5.5q-79 0 -79 -38q0 -13 7.5 -22t20.5 -15.5t29 -12t34 -11.5q36 -13 62.5 -27.5t44 -33.5t25.5 -43t8 -55q0 -85 -58.5 -129t-170.5 -44q-50 0 -87 7t-61.5 16t-36.5 16.5t-12 8.5z" />
    <glyph glyph-name="Scedilla" unicode="&#x15e;" horiz-adv-x="595" 
d="M102 177q25 -18 56 -31q26 -11 62 -20.5t81 -9.5q56 0 89 19.5t33 60.5q0 36 -26.5 53t-69.5 34q-44 17 -82 34.5t-67 41.5t-45.5 58t-16.5 84q0 104 72.5 160.5t207.5 56.5q54 0 95.5 -8t70.5 -18q33 -11 58 -25l-49 -114q-18 10 -43 19q-21 8 -52 14t-72 6
q-58 0 -94 -17t-36 -60q0 -15 6 -25.5t20.5 -20.5t39.5 -21.5t64 -27.5q40 -17 73.5 -34t57 -40t36.5 -54.5t13 -76.5q0 -98 -64 -157.5t-189 -67.5l-15 -37h6q2 0 4 0.5t3 0.5q40 0 67 -17t27 -58q0 -23 -7.5 -42.5t-25.5 -34.5t-47 -23.5t-72 -8.5q-19 0 -32.5 1t-21.5 3
q-10 2 -16 5l7 67q6 -2 15 -4q15 -3 42 -3q25 0 46 7t21 27q0 14 -15.5 19t-37.5 5t-41.5 -2t-23.5 -4l41 100q-52 3 -90 13.5t-64 21.5q-30 13 -51 28z" />
    <glyph glyph-name="scedilla" unicode="&#x15f;" horiz-adv-x="495" 
d="M99 148q19 -12 44 -22q21 -8 49.5 -14.5t63.5 -6.5q74 0 74 40q0 11 -5.5 18.5t-16.5 13t-27 10.5t-37 13q-31 11 -57.5 25t-45.5 33.5t-29.5 46t-10.5 63.5q0 76 55 123t174 47q48 0 81.5 -7t55 -15t31.5 -14t10 -5l-42 -111q0 -1 -9 4.5t-26 12t-42.5 12t-59.5 5.5
q-79 0 -79 -38q0 -13 7.5 -22t20.5 -15.5t29 -12t34 -11.5q36 -13 62.5 -27.5t44 -33.5t25.5 -43t8 -55q0 -78 -49 -121t-143 -50l-15 -38h6q2 0 4.5 0.5t3.5 0.5q40 0 67 -17t27 -58q0 -23 -7.5 -42.5t-25.5 -34.5t-47 -23.5t-72 -8.5q-19 0 -32.5 1t-21.5 3q-11 2 -17 5
l8 67q6 -2 15 -4q15 -3 42 -3q25 0 46 7t21 27q0 14 -15.5 19t-37.5 5t-41.5 -2t-22.5 -4l39 100q-40 3 -70 10t-49.5 15t-29 14t-9.5 7z" />
    <glyph glyph-name="Scaron" unicode="&#x160;" horiz-adv-x="595" 
d="M363 759l-99 168h120l52 -88l79 88h120l-151 -168h-121zM102 177q25 -18 56 -31q26 -11 62 -20.5t81 -9.5q56 0 89 19.5t33 60.5q0 36 -26.5 53t-69.5 34q-44 17 -82 34.5t-67 41.5t-45.5 58t-16.5 84q0 104 72.5 160.5t207.5 56.5q54 0 95.5 -8t70.5 -18q33 -11 58 -25
l-49 -114q-18 10 -43 19q-21 8 -52 14t-72 6q-58 0 -94 -17t-36 -60q0 -15 6 -25.5t20.5 -20.5t39.5 -21.5t64 -27.5q40 -17 73.5 -34t57 -40t36.5 -54.5t13 -76.5q0 -104 -72.5 -165t-214.5 -61q-63 0 -109 10t-77 22q-36 14 -61 33z" />
    <glyph glyph-name="scaron" unicode="&#x161;" horiz-adv-x="495" 
d="M284 592l-98 167h119l52 -87l79 87h120l-151 -167h-121zM99 148q19 -12 44 -22q21 -8 49.5 -14.5t63.5 -6.5q74 0 74 40q0 11 -5.5 18.5t-16.5 13t-27 10.5t-37 13q-31 11 -57.5 25t-45.5 33.5t-29.5 46t-10.5 63.5q0 76 55 123t174 47q48 0 81.5 -7t55 -15t31.5 -14
t10 -5l-42 -111q0 -1 -9 4.5t-26 12t-42.5 12t-59.5 5.5q-79 0 -79 -38q0 -13 7.5 -22t20.5 -15.5t29 -12t34 -11.5q36 -13 62.5 -27.5t44 -33.5t25.5 -43t8 -55q0 -85 -58.5 -129t-170.5 -44q-50 0 -87 7t-61.5 16t-36.5 16.5t-12 8.5z" />
    <glyph glyph-name="Tcommaaccent" unicode="&#x162;" horiz-adv-x="629" 
d="M354 0l-20 -47h6q2 0 4.5 0.5t3.5 0.5q39 0 66.5 -17t27.5 -58q0 -23 -7.5 -42.5t-25.5 -34.5t-47 -23.5t-72 -8.5q-19 0 -32.5 1t-21.5 3q-11 2 -17 5l8 67q6 -2 15 -4q15 -3 42 -3q25 0 45.5 7t20.5 27q0 14 -15 19t-38 5q-22 0 -41.5 -2t-22.5 -4l45 109h-43l90 569
h-214l22 138h587l-22 -138h-214l-90 -569h-40z" />
    <glyph glyph-name="tcommaaccent" unicode="&#x163;" horiz-adv-x="415" 
d="M384 16q-13 -7 -31 -12q-15 -5 -36 -9t-46 -5l-15 -37h6q2 0 4 0.5t3 0.5q41 0 68 -17t27 -58q0 -23 -7.5 -42.5t-25.5 -34.5t-47.5 -23.5t-72.5 -8.5q-19 0 -32 1t-21 3q-10 2 -17 5l7 67q7 -2 16 -4q15 -3 42 -3q25 0 45.5 7t20.5 27q0 14 -15 19t-38 5q-21 0 -40.5 -2
t-23.5 -4l43 105q-44 11 -67.5 42t-23.5 88q0 11 1 23.5t3 26.5l37 229h-61l18 122h65l40 136h135l-22 -136h135l-24 -122h-128l-37 -229q-1 -5 -1.5 -9.5t-0.5 -8.5q0 -45 55 -45q27 0 46 7q10 3 17 7z" />
    <glyph glyph-name="Tcaron" unicode="&#x164;" horiz-adv-x="629" 
d="M376 759l-99 168h120l52 -88l79 88h120l-151 -168h-121zM235 0l90 569h-214l22 138h587l-22 -138h-214l-90 -569h-159z" />
    <glyph glyph-name="tcaron" unicode="&#x165;" horiz-adv-x="556" 
d="M497 503q7 4 19 15t24 25t22.5 29.5t13.5 27.5q-27 2 -38 17.5t-11 37.5q0 36 21 61.5t71 25.5q29 0 47.5 -17.5t18.5 -55.5q0 -39 -17 -74t-39.5 -62t-44.5 -45t-32 -24zM384 16q-17 -8 -36 -14q-17 -5 -40 -9t-52 -4q-71 0 -110 32.5t-39 104.5q0 11 1 23.5t3 26.5
l37 229h-61l18 122h65l40 136h135l-22 -136h135l-24 -122h-128l-37 -229q-1 -5 -1.5 -9.5t-0.5 -8.5q0 -45 55 -45q27 0 46 7q10 3 17 7z" />
    <glyph glyph-name="Tbar" unicode="&#x166;" horiz-adv-x="629" 
d="M235 0l47 296h-133l18 117h133l25 156h-214l22 138h587l-22 -138h-214l-25 -156h132l-18 -117h-132l-47 -296h-159z" />
    <glyph glyph-name="tbar" unicode="&#x167;" horiz-adv-x="424" 
d="M392 16q-17 -8 -36 -14q-17 -5 -40 -9t-52 -4q-71 0 -110 32.5t-39 104.5q0 11 1 23.5t3 26.5l10 66h-59l13 81h59l14 82h-61l18 122h65l40 136h135l-22 -136h135l-24 -122h-128l-14 -82h126l-14 -81h-125l-10 -66q-1 -5 -1.5 -9.5t-0.5 -8.5q0 -45 55 -45q27 0 46 7
q10 3 17 7z" />
    <glyph glyph-name="Utilde" unicode="&#x168;" 
d="M610 707h157l-65 -414q-12 -74 -36 -131t-65 -95.5t-101 -58t-143 -19.5q-129 0 -191.5 57t-62.5 168q0 19 1.5 38.5t5.5 40.5l66 414h157l-66 -419q-2 -15 -3.5 -29.5t-1.5 -27.5q0 -52 25.5 -82t90.5 -30q40 0 69 12t48 34.5t30.5 53.5t17.5 69zM302 761q-1 1 -1 4v11
q0 27 8.5 53.5t25 47t41.5 33t57 12.5q24 0 41.5 -9t32 -19.5t26 -19.5t23.5 -9q15 0 24 10t9 30q0 3 -0.5 5.5t-0.5 4.5v5h105v-12q0 -29 -8.5 -56t-25 -47.5t-41 -33t-56.5 -12.5q-25 0 -42.5 8.5t-31.5 19l-26 19.5t-25 9q-14 0 -22.5 -10t-8.5 -30v-10q0 -3 1 -4h-105z
" />
    <glyph glyph-name="utilde" unicode="&#x169;" horiz-adv-x="605" 
d="M293 527l-52 -328q-1 -6 -1.5 -12t-0.5 -11q0 -32 15.5 -47t41.5 -15q25 0 48.5 13.5t40.5 30.5q20 19 38 44l51 325h155l-83 -527h-125l-6 73q-21 -24 -48 -42q-24 -16 -58.5 -29t-79.5 -13q-72 0 -110.5 40t-38.5 111q0 11 1 22t3 23l54 342h155zM213 590v15
q0 27 8.5 53.5t25 46.5t41 32.5t57.5 12.5q24 0 41.5 -9t32 -19.5t26 -19t23.5 -8.5q15 0 24 10t9 30q0 2 -0.5 5t-0.5 5v4h105v-11q0 -29 -8.5 -56t-25 -47.5t-41 -33t-56.5 -12.5q-25 0 -42.5 8.5t-31.5 19l-26 19.5t-25 9q-14 0 -22.5 -10.5t-8.5 -30.5v-13h-105z" />
    <glyph glyph-name="Umacron" unicode="&#x16a;" 
d="M322 776l15 97h327l-16 -97h-326zM610 707h157l-65 -414q-12 -74 -36 -131t-65 -95.5t-101 -58t-143 -19.5q-129 0 -191.5 57t-62.5 168q0 19 1.5 38.5t5.5 40.5l66 414h157l-66 -419q-2 -15 -3.5 -29.5t-1.5 -27.5q0 -52 25.5 -82t90.5 -30q40 0 69 12t48 34.5
t30.5 53.5t17.5 69z" />
    <glyph glyph-name="umacron" unicode="&#x16b;" horiz-adv-x="605" 
d="M233 615l15 98h326l-15 -98h-326zM293 527l-52 -328q-1 -6 -1.5 -12t-0.5 -11q0 -32 15.5 -47t41.5 -15q25 0 48.5 13.5t40.5 30.5q20 19 38 44l51 325h155l-83 -527h-125l-6 73q-21 -24 -48 -42q-24 -16 -58.5 -29t-79.5 -13q-72 0 -110.5 40t-38.5 111q0 11 1 22t3 23
l54 342h155z" />
    <glyph glyph-name="Ubreve" unicode="&#x16c;" 
d="M672 927q-4 -26 -18.5 -55.5t-39 -54.5t-59 -41.5t-78.5 -16.5q-40 0 -66.5 11t-42.5 28t-23.5 37t-10 39t-2 33.5t1.5 19.5h101v-13t5.5 -23.5t17 -22.5t34.5 -10q18 0 32 7.5t24 18t15.5 22.5t6.5 21h102zM610 707h157l-65 -414q-12 -74 -36 -131t-65 -95.5t-101 -58
t-143 -19.5q-129 0 -191.5 57t-62.5 168q0 19 1.5 38.5t5.5 40.5l66 414h157l-66 -419q-2 -15 -3.5 -29.5t-1.5 -27.5q0 -52 25.5 -82t90.5 -30q40 0 69 12t48 34.5t30.5 53.5t17.5 69z" />
    <glyph glyph-name="ubreve" unicode="&#x16d;" horiz-adv-x="605" 
d="M586 757q-4 -26 -18 -55.5t-39 -54t-59.5 -41t-78.5 -16.5q-40 0 -66 11t-42.5 27.5t-24 37t-10 39t-2 33t1.5 19.5h101q0 -2 0.5 -13t6 -23.5t17 -22.5t34.5 -10q18 0 32 7.5t23.5 18t15 22.5t7.5 21h101zM293 527l-52 -328q-1 -6 -1.5 -12t-0.5 -11q0 -32 15.5 -47
t41.5 -15q25 0 48.5 13.5t40.5 30.5q20 19 38 44l51 325h155l-83 -527h-125l-6 73q-21 -24 -48 -42q-24 -16 -58.5 -29t-79.5 -13q-72 0 -110.5 40t-38.5 111q0 11 1 22t3 23l54 342h155z" />
    <glyph glyph-name="Uring" unicode="&#x16e;" 
d="M474 748q-56 0 -82.5 26.5t-26.5 71.5q0 66 42 104.5t110 38.5q54 0 81 -26.5t27 -72.5q0 -31 -9 -57t-27.5 -45t-47 -29.5t-67.5 -10.5zM489 823q25 0 37.5 15.5t12.5 40.5q0 16 -8.5 25.5t-26.5 9.5q-25 0 -38 -15t-13 -40q0 -17 9 -26.5t27 -9.5zM610 707h157
l-65 -414q-12 -74 -36 -131t-65 -95.5t-101 -58t-143 -19.5q-129 0 -191.5 57t-62.5 168q0 19 1.5 38.5t5.5 40.5l66 414h157l-66 -419q-2 -15 -3.5 -29.5t-1.5 -27.5q0 -52 25.5 -82t90.5 -30q40 0 69 12t48 34.5t30.5 53.5t17.5 69z" />
    <glyph glyph-name="uring" unicode="&#x16f;" horiz-adv-x="605" 
d="M391 588q-56 0 -82.5 27t-26.5 71q0 67 42 105.5t110 38.5q54 0 81.5 -26.5t27.5 -72.5q0 -31 -9 -57t-27.5 -45t-47.5 -30t-68 -11zM406 665q26 0 38 15t12 39q0 35 -34 35q-26 0 -39 -14.5t-13 -38.5q0 -36 36 -36zM293 527l-52 -328q-1 -6 -1.5 -12t-0.5 -11
q0 -32 15.5 -47t41.5 -15q25 0 48.5 13.5t40.5 30.5q20 19 38 44l51 325h155l-83 -527h-125l-6 73q-21 -24 -48 -42q-24 -16 -58.5 -29t-79.5 -13q-72 0 -110.5 40t-38.5 111q0 11 1 22t3 23l54 342h155z" />
    <glyph glyph-name="Uhungarumlaut" unicode="&#x170;" 
d="M324 760l95 167h125l-100 -167h-120zM509 760l94 167h133l-122 -167h-105zM610 707h157l-65 -414q-12 -74 -36 -131t-65 -95.5t-101 -58t-143 -19.5q-129 0 -191.5 57t-62.5 168q0 19 1.5 38.5t5.5 40.5l66 414h157l-66 -419q-2 -15 -3.5 -29.5t-1.5 -27.5
q0 -52 25.5 -82t90.5 -30q40 0 69 12t48 34.5t30.5 53.5t17.5 69z" />
    <glyph glyph-name="uhungarumlaut" unicode="&#x171;" horiz-adv-x="605" 
d="M235 592l95 167h125l-100 -167h-120zM420 592l94 167h133l-122 -167h-105zM293 527l-52 -328q-1 -6 -1.5 -12t-0.5 -11q0 -32 15.5 -47t41.5 -15q25 0 48.5 13.5t40.5 30.5q20 19 38 44l51 325h155l-83 -527h-125l-6 73q-21 -24 -48 -42q-24 -16 -58.5 -29t-79.5 -13
q-72 0 -110.5 40t-38.5 111q0 11 1 22t3 23l54 342h155z" />
    <glyph glyph-name="Uogonek" unicode="&#x172;" 
d="M610 707h157l-65 -414q-10 -63 -28.5 -113t-48.5 -87t-72.5 -61.5t-100.5 -34.5q-16 -5 -32.5 -14t-30 -20.5t-22 -24.5t-8.5 -26q0 -11 10 -19.5t33 -8.5q15 0 32 4t28 6l-11 -89q-21 -8 -50 -14.5t-61 -6.5q-54 0 -86 21t-32 57q0 21 9 39.5t23.5 35t32 30t34.5 24.5
q-218 15 -218 223q0 19 1.5 38.5t5.5 40.5l66 414h157l-66 -419q-2 -15 -3.5 -29.5t-1.5 -27.5q0 -52 25.5 -82t90.5 -30q40 0 69 12t48 34.5t30.5 53.5t17.5 69z" />
    <glyph glyph-name="uogonek" unicode="&#x173;" horiz-adv-x="605" 
d="M293 527l-52 -328q-1 -6 -1.5 -12t-0.5 -11q0 -32 15.5 -47t41.5 -15q25 0 48.5 13.5t40.5 30.5q20 19 38 44l51 325h155l-83 -527q-16 -3 -35.5 -11.5t-36 -20.5t-27.5 -26.5t-11 -29.5q0 -11 9.5 -19.5t32.5 -8.5q16 0 32.5 4t28.5 6l-12 -89q-21 -8 -50 -14.5
t-61 -6.5q-54 0 -86 21t-32 57q0 24 12.5 46t31 40t40 32.5t38.5 23.5l-5 69q-21 -24 -48 -42q-24 -16 -58.5 -29t-79.5 -13q-72 0 -110.5 40t-38.5 111q0 11 1 22t3 23l54 342h155z" />
    <glyph glyph-name="Wcircumflex" unicode="&#x174;" horiz-adv-x="987" 
d="M701 927l99 -168h-120l-52 88l-79 -88h-120l151 168h121zM292 707l23 -444l1 -97l33 95l185 446h140l43 -446l5 -95l30 95l163 446h167l-284 -707h-173l-46 392l-9 99l-37 -97l-171 -394h-173l-60 707h163z" />
    <glyph glyph-name="wcircumflex" unicode="&#x175;" horiz-adv-x="837" 
d="M594 758l98 -167h-119l-52 88l-79 -88h-120l151 167h121zM247 527l24 -285l-2 -130l41 131l118 284h143l29 -286v-129l40 131l112 284h161l-226 -527h-179l-26 205l-7 154l-55 -154l-90 -205h-179l-61 527h157z" />
    <glyph glyph-name="Ycircumflex" unicode="&#x176;" horiz-adv-x="676" 
d="M543 927l99 -168h-120l-52 88l-79 -88h-120l151 168h121zM259 0l41 256l-176 451h164l92 -257l16 -62l37 64l169 255h174l-317 -450l-42 -257h-158z" />
    <glyph glyph-name="ycircumflex" unicode="&#x177;" horiz-adv-x="558" 
d="M460 747l99 -168h-120l-52 87l-79 -87h-120l151 168h121zM22 -86q6 -3 15 -5q7 -2 17 -3t21 -1q31 0 52.5 11t36 26.5t22.5 32t14 27.5l-102 525h160l36 -284l2 -113l174 397h157l-279 -543q-25 -49 -51.5 -86.5t-57.5 -62.5t-68.5 -37.5t-85.5 -12.5q-22 0 -38 2t-27 4
q-13 3 -22 7z" />
    <glyph glyph-name="Ydieresis" unicode="&#x178;" horiz-adv-x="679" 
d="M439 864q0 -36 -20.5 -62.5t-69.5 -26.5q-35 0 -50.5 16.5t-15.5 43.5q0 36 21 62t69 26q35 0 50.5 -16.5t15.5 -42.5zM660 863q0 -36 -21 -62t-69 -26q-35 0 -50.5 16t-15.5 43q0 18 4.5 34t15 28.5t27.5 19.5t42 7q35 0 51 -17t16 -43zM260 0l40 253l-176 454h176
l88 -238l15 -71l39 72l159 237h178l-318 -452l-40 -255h-161z" />
    <glyph glyph-name="Zacute" unicode="&#x179;" horiz-adv-x="642" 
d="M363 760l117 167h160l-152 -167h-125zM52 0l21 131l413 450l-72 -4h-261l20 130h524l-21 -130l-415 -451l75 4h276l-21 -130h-539z" />
    <glyph glyph-name="zacute" unicode="&#x17a;" horiz-adv-x="535" 
d="M279 592l117 167h160l-152 -167h-125zM139 527h422l-16 -119l-288 -288l56 3h185l-19 -123h-432l19 119l286 288l-54 -3h-176z" />
    <glyph glyph-name="Zdotaccent" unicode="&#x17b;" horiz-adv-x="642" 
d="M541 863q0 -38 -23 -65t-75 -27q-38 0 -55 17.5t-17 45.5q0 38 22.5 65t74.5 27q39 0 56 -17.5t17 -45.5zM52 0l21 131l413 450l-72 -4h-261l20 130h524l-21 -130l-415 -451l75 4h276l-21 -130h-539z" />
    <glyph glyph-name="zdotaccent" unicode="&#x17c;" horiz-adv-x="527" 
d="M465 694q0 -38 -23 -65t-75 -27q-38 0 -55.5 17.5t-17.5 46.5q0 38 22.5 64.5t75.5 26.5q39 0 56 -17.5t17 -45.5zM139 527h422l-16 -119l-288 -288l56 3h185l-19 -123h-432l19 119l286 288l-54 -3h-176z" />
    <glyph glyph-name="Zcaron" unicode="&#x17d;" horiz-adv-x="642" 
d="M384 759l-98 168h119l53 -88l79 88h119l-150 -168h-122zM52 0l21 131l413 450l-72 -4h-261l20 130h524l-21 -130l-415 -451l75 4h276l-21 -130h-539z" />
    <glyph glyph-name="zcaron" unicode="&#x17e;" horiz-adv-x="527" 
d="M305 592l-98 167h120l52 -87l79 87h120l-151 -167h-122zM139 527h422l-16 -119l-288 -288l56 3h185l-19 -123h-432l19 119l286 288l-54 -3h-176z" />
    <glyph glyph-name="longs" unicode="&#x17f;" horiz-adv-x="384" 
d="M76 0l65 407h-61l18 120h61l6 35q10 62 35.5 101t59.5 61.5t73.5 31t78.5 8.5q23 0 41.5 -2.5t31.5 -4.5q15 -4 27 -7l-40 -116q-6 2 -14 4q-7 2 -17 3.5t-23 1.5q-39 0 -64.5 -19t-33.5 -67l-89 -557h-155z" />
    <glyph glyph-name="florin" unicode="&#x192;" horiz-adv-x="565" 
d="M602 613q-8 2 -18 4q-8 2 -19 3t-23 1q-38 0 -68 -19.5t-44 -74.5l-36 -148h146l-19 -121h-156l-68 -279q-15 -60 -41 -97.5t-59 -59t-71 -29.5t-75 -8q-20 0 -37.5 2t-30.5 4q-15 3 -28 6l28 116q8 -2 17 -4q8 -2 18 -3t21 -1q39 0 68.5 19.5t42.5 69.5l65 264h-124
l18 121h135l42 167q15 60 41.5 98t59.5 59.5t71 30t75 8.5q22 0 41.5 -2.5t33.5 -4.5q17 -3 31 -6l-37 -116v0z" />
    <glyph glyph-name="Scommaaccent" unicode="&#x218;" horiz-adv-x="595" 
d="M178 -304q7 4 19 15.5t24 25.5t22.5 29t13.5 27q-27 2 -37.5 17.5t-10.5 37.5q0 36 20.5 61.5t70.5 25.5q29 0 47.5 -17t18.5 -55q0 -40 -17 -75t-39.5 -62t-44.5 -44.5t-32 -23.5zM102 177q25 -18 56 -31q26 -11 62 -20.5t81 -9.5q56 0 89 19.5t33 60.5q0 36 -26.5 53
t-69.5 34q-44 17 -82 34.5t-67 41.5t-45.5 58t-16.5 84q0 104 72.5 160.5t207.5 56.5q54 0 95.5 -8t70.5 -18q33 -11 58 -25l-49 -114q-18 10 -43 19q-21 8 -52 14t-72 6q-58 0 -94 -17t-36 -60q0 -15 6 -25.5t20.5 -20.5t39.5 -21.5t64 -27.5q40 -17 73.5 -34t57 -40
t36.5 -54.5t13 -76.5q0 -104 -72.5 -165t-214.5 -61q-63 0 -109 10t-77 22q-36 14 -61 33z" />
    <glyph glyph-name="scommaaccent" unicode="&#x219;" horiz-adv-x="495" 
d="M135 -304q7 4 19 15.5t24 25.5t22 29t14 27q-27 2 -38 17.5t-11 37.5q0 36 21 61.5t71 25.5q28 0 47 -17t19 -55q0 -40 -17 -75t-39.5 -62t-44.5 -44.5t-32 -23.5zM99 148q19 -12 44 -22q21 -8 49.5 -14.5t63.5 -6.5q74 0 74 40q0 11 -5.5 18.5t-16.5 13t-27 10.5t-37 13
q-31 11 -57.5 25t-45.5 33.5t-29.5 46t-10.5 63.5q0 76 55 123t174 47q48 0 81.5 -7t55 -15t31.5 -14t10 -5l-42 -111q0 -1 -9 4.5t-26 12t-42.5 12t-59.5 5.5q-79 0 -79 -38q0 -13 7.5 -22t20.5 -15.5t29 -12t34 -11.5q36 -13 62.5 -27.5t44 -33.5t25.5 -43t8 -55
q0 -85 -58.5 -129t-170.5 -44q-50 0 -87 7t-61.5 16t-36.5 16.5t-12 8.5z" />
    <glyph glyph-name="uni021A" unicode="&#x21a;" horiz-adv-x="595" 
d="M150 -304q7 4 19 15.5t24.5 25.5t22.5 29t14 27q-28 2 -38.5 17.5t-10.5 37.5q0 36 21 61.5t71 25.5q28 0 46.5 -17t18.5 -55q0 -40 -17 -75t-39.5 -62t-44.5 -44.5t-32 -23.5zM201 0l90 569h-214l22 138h587l-22 -138h-214l-90 -569h-159z" />
    <glyph glyph-name="uni021B" unicode="&#x21b;" horiz-adv-x="416" 
d="M123 -304q7 4 19 15.5t24 25.5t22.5 29t13.5 27q-28 2 -38.5 17.5t-10.5 37.5q0 36 21 61.5t71 25.5q29 0 47.5 -17t18.5 -55q0 -40 -17 -75t-39.5 -62t-44.5 -44.5t-32 -23.5zM384 16q-17 -8 -36 -14q-17 -5 -40 -9t-52 -4q-71 0 -110 32.5t-39 104.5q0 11 1 23.5
t3 26.5l37 229h-61l18 122h65l40 136h135l-22 -136h135l-24 -122h-128l-37 -229q-1 -5 -1.5 -9.5t-0.5 -8.5q0 -45 55 -45q27 0 46 7q10 3 17 7z" />
    <glyph glyph-name="uni0237" unicode="&#x237;" horiz-adv-x="278" 
d="M-61 -87q5 -2 12 -4q6 -2 13.5 -3t18.5 -1q34 0 54 19t28 65l85 538h154l-85 -536q-31 -206 -220 -206q-34 0 -59 5q-13 2 -24 5z" />
    <glyph glyph-name="circumflex" unicode="&#x2c6;" horiz-adv-x="431" 
d="M397 759l98 -167h-120l-52 87l-79 -87h-120l151 167h122z" />
    <glyph glyph-name="caron" unicode="&#x2c7;" horiz-adv-x="425" 
d="M247 592l-98 167h120l52 -87l79 87h120l-151 -167h-122z" />
    <glyph glyph-name="uni02C9" unicode="&#x2c9;" horiz-adv-x="397" 
d="M131 603l17 111h327l-17 -111h-327z" />
    <glyph glyph-name="breve" unicode="&#x2d8;" horiz-adv-x="410" 
d="M493 757q-4 -26 -18 -55.5t-39 -54t-59.5 -41t-78.5 -16.5q-40 0 -66 11t-42 27.5t-24 37t-10.5 39t-2 33t1.5 19.5h102v-13t5.5 -23.5t17 -22.5t34.5 -10q18 0 32 7.5t24 18t15.5 22.5t6.5 21h101v0z" />
    <glyph glyph-name="dotaccent" unicode="&#x2d9;" horiz-adv-x="238" 
d="M312 694q0 -38 -22.5 -65t-74.5 -27q-39 0 -56.5 17.5t-17.5 46.5q0 38 23 64.5t75 26.5q39 0 56 -17.5t17 -45.5z" />
    <glyph glyph-name="ring" unicode="&#x2da;" horiz-adv-x="327" 
d="M253 588q-56 0 -82 27t-26 71q0 67 41.5 105.5t110.5 38.5q54 0 81.5 -26.5t27.5 -72.5q0 -62 -37 -102.5t-116 -40.5zM269 665q25 0 37 15t12 39q0 35 -34 35q-25 0 -38 -14.5t-13 -38.5q0 -36 36 -36z" />
    <glyph glyph-name="ogonek" unicode="&#x2db;" horiz-adv-x="311" 
d="M263 -2q-16 -3 -35 -11.5t-35.5 -20t-28 -25.5t-11.5 -29q0 -11 10 -19.5t33 -8.5q15 0 31.5 4t28.5 6l-11 -89q-22 -8 -51 -14.5t-61 -6.5q-53 0 -85.5 21t-32.5 57q0 30 17.5 55.5t43.5 46t55.5 35t53.5 21.5z" />
    <glyph glyph-name="tilde" unicode="&#x2dc;" horiz-adv-x="446" 
d="M133 590v16q0 27 8.5 53t25 46.5t41 33t56.5 12.5q24 0 42 -9t32 -19.5t26 -19t24 -8.5q32 0 32 38v7.5t-2 8.5h106q1 -3 1 -8v-9q0 -27 -8.5 -53t-25 -46t-41 -32.5t-56.5 -12.5q-25 0 -42.5 9t-31.5 19.5l-26 19.5t-25 9q-14 0 -22.5 -10.5t-8.5 -27.5q0 -3 0.5 -7.5
t0.5 -9.5h-106z" />
    <glyph glyph-name="hungarumlaut" unicode="&#x2dd;" horiz-adv-x="470" 
d="M129 592l95 167h133l-101 -167h-127zM321 592l94 167h140l-121 -167h-113z" />
    <glyph glyph-name="Delta" unicode="&#x394;" horiz-adv-x="674" 
d="M0 0l344 707h209l120 -707h-673zM420 548l-195 -410h261z" />
    <glyph glyph-name="Omega" unicode="&#x3a9;" horiz-adv-x="707" 
d="M388 0l21 130q15 7 42 32t54 65t46.5 93t19.5 117q0 69 -29.5 110t-98.5 41q-45 0 -79 -18.5t-56.5 -50.5t-34 -76.5t-11.5 -95.5q0 -48 8.5 -86t20.5 -65t25.5 -43.5t22.5 -22.5l-20 -130h-283l20 130h126q-8 6 -22 23.5t-27.5 46t-23.5 69t-10 92.5q0 70 21.5 134.5
t65.5 114t111 79t158 29.5q76 0 130 -21.5t87.5 -57.5t49 -84.5t15.5 -102.5q0 -71 -21 -127t-49.5 -96.5t-56.5 -65.5t-42 -33h123l-20 -130h-283z" />
    <glyph glyph-name="mu" unicode="&#x3bc;" horiz-adv-x="611" 
d="M299 527l-53 -332q-1 -6 -1.5 -11.5t-0.5 -10.5q0 -30 15 -44.5t40 -14.5q26 0 48.5 12t40.5 27q20 17 39 39l53 335h155l-83 -527h-126l-5 86l-3 -3q-5 -6 -20.5 -20.5t-38.5 -30.5t-52 -28t-62 -12q-11 0 -21 2l-8 2l-34 -200h-154l116 731h155z" />
    <glyph glyph-name="pi" unicode="&#x3c0;" horiz-adv-x="742" 
d="M705 12q-11 -7 -27 -12q-14 -5 -35 -8t-51 -3q-67 0 -104.5 29.5t-37.5 102.5q0 13 1.5 26.5t3.5 28.5l36 228h-147l-63 -404h-156l64 404h-106l19 123h672l-20 -123h-106l-36 -228q-1 -5 -1.5 -9.5t-0.5 -8.5q0 -45 49 -45q22 0 35 5q7 3 12 6z" />
    <glyph glyph-name="Wgrave" unicode="&#x1e80;" horiz-adv-x="987" 
d="M546 760l-100 167h160l65 -167h-125zM292 707l23 -444l1 -97l33 95l185 446h140l43 -446l5 -95l30 95l163 446h167l-284 -707h-173l-46 392l-9 99l-37 -97l-171 -394h-173l-60 707h163z" />
    <glyph glyph-name="wgrave" unicode="&#x1e81;" horiz-adv-x="837" 
d="M448 592l-100 167h161l64 -167h-125zM247 527l24 -285l-2 -130l41 131l118 284h143l29 -286v-129l40 131l112 284h161l-226 -527h-179l-26 205l-7 154l-55 -154l-90 -205h-179l-61 527h157z" />
    <glyph glyph-name="Wacute" unicode="&#x1e82;" horiz-adv-x="987" 
d="M551 760l117 167h160l-152 -167h-125zM292 707l23 -444l1 -97l33 95l185 446h140l43 -446l5 -95l30 95l163 446h167l-284 -707h-173l-46 392l-9 99l-37 -97l-171 -394h-173l-60 707h163z" />
    <glyph glyph-name="wacute" unicode="&#x1e83;" horiz-adv-x="837" 
d="M449 592l117 167h160l-152 -167h-125zM247 527l24 -285l-2 -130l41 131l118 284h143l29 -286v-129l40 131l112 284h161l-226 -527h-179l-26 205l-7 154l-55 -154l-90 -205h-179l-61 527h157z" />
    <glyph glyph-name="Wdieresis" unicode="&#x1e84;" horiz-adv-x="987" 
d="M595 864q0 -36 -20.5 -62.5t-69.5 -26.5q-35 0 -50.5 16.5t-15.5 43.5q0 36 20.5 62t68.5 26q36 0 51.5 -16.5t15.5 -42.5zM816 863q0 -36 -21.5 -62t-69.5 -26q-35 0 -50 16t-15 43q0 18 4.5 34t15 28.5t27.5 19.5t42 7q35 0 51 -17t16 -43zM292 707l23 -444l1 -97
l33 95l185 446h140l43 -446l5 -95l30 95l163 446h167l-284 -707h-173l-46 392l-9 99l-37 -97l-171 -394h-173l-60 707h163z" />
    <glyph glyph-name="wdieresis" unicode="&#x1e85;" horiz-adv-x="837" 
d="M492 680q0 -18 -5 -34t-15.5 -28t-27.5 -19.5t-41 -7.5q-35 0 -51 17t-16 43q0 37 21 63t69 26q35 0 50.5 -17t15.5 -43zM713 680q0 -36 -21 -62.5t-69 -26.5q-35 0 -50.5 16.5t-15.5 43.5q0 18 5 34t15.5 28.5t27.5 19.5t42 7q35 0 50.5 -17t15.5 -43zM247 527l24 -285
l-2 -130l41 131l118 284h143l29 -286v-129l40 131l112 284h161l-226 -527h-179l-26 205l-7 154l-55 -154l-90 -205h-179l-61 527h157z" />
    <glyph glyph-name="Ygrave" unicode="&#x1ef2;" horiz-adv-x="676" 
d="M259 0l41 256l-176 451h164l92 -257l16 -62l37 64l169 255h174l-317 -450l-42 -257h-158zM386 760l-100 167h160l65 -167h-125z" />
    <glyph glyph-name="ygrave" unicode="&#x1ef3;" horiz-adv-x="558" 
d="M308 592l-100 167h161l64 -167h-125zM22 -86q6 -3 15 -5q7 -2 17 -3t21 -1q31 0 52.5 11t36 26.5t22.5 32t14 27.5l-102 525h160l36 -284l2 -113l174 397h157l-279 -543q-25 -49 -51.5 -86.5t-57.5 -62.5t-68.5 -37.5t-85.5 -12.5q-22 0 -38 2t-27 4q-13 3 -22 7z" />
    <glyph glyph-name="uni2009" unicode="&#x2009;" horiz-adv-x="0" 
 />
    <glyph glyph-name="endash" unicode="&#x2013;" horiz-adv-x="659" 
d="M85 229l20 126h561l-20 -126h-561z" />
    <glyph glyph-name="emdash" unicode="&#x2014;" horiz-adv-x="926" 
d="M85 229l20 126h828l-20 -126h-828z" />
    <glyph glyph-name="quoteleft" unicode="&#x2018;" horiz-adv-x="254" 
d="M329 698q-8 -4 -21.5 -16t-27 -27t-24.5 -31.5t-15 -30.5q30 -2 42 -19.5t12 -41.5q0 -40 -23.5 -68.5t-78.5 -28.5q-32 0 -52.5 19.5t-20.5 61.5q0 44 19 82.5t43.5 68t49 49.5t35.5 26z" />
    <glyph glyph-name="quoteright" unicode="&#x2019;" horiz-adv-x="254" 
d="M113 479q8 4 21 16t26.5 27t24.5 32t15 31q-30 1 -41.5 18.5t-11.5 41.5q0 41 23 69t78 28q32 0 52.5 -19t20.5 -61q0 -44 -19 -82.5t-43.5 -68.5t-49 -50t-35.5 -26z" />
    <glyph glyph-name="quotesinglbase" unicode="&#x201a;" horiz-adv-x="266" 
d="M25 -107q8 4 21 16t26.5 27.5t25 32t15.5 30.5q-31 1 -42.5 18.5t-11.5 41.5q0 41 23.5 69t78.5 28q32 0 52.5 -19t20.5 -61q0 -44 -19 -82.5t-43.5 -68.5t-49 -50t-35.5 -26z" />
    <glyph glyph-name="quotedblleft" unicode="&#x201c;" horiz-adv-x="468" 
d="M329 698q-8 -4 -21.5 -16t-27 -27t-24.5 -31.5t-15 -30.5q30 -2 42 -19.5t12 -41.5q0 -40 -23.5 -68.5t-78.5 -28.5q-32 0 -52.5 19.5t-20.5 61.5q0 44 19 82.5t43.5 68t49 49.5t35.5 26zM542 698q-8 -4 -21 -16t-26.5 -27t-25 -31.5t-15.5 -30.5q30 -2 42 -19.5
t12 -41.5q0 -40 -23.5 -68.5t-78.5 -28.5q-32 0 -52.5 19.5t-20.5 61.5q0 44 19 82.5t44 68t49 49.5t35 26z" />
    <glyph glyph-name="quotedblright" unicode="&#x201d;" horiz-adv-x="468" 
d="M113 479q8 4 21 16t26.5 27t24.5 32t15 31q-30 1 -41.5 18.5t-11.5 41.5q0 41 23 69t78 28q32 0 52.5 -19t20.5 -61q0 -44 -19 -82.5t-43.5 -68.5t-49 -50t-35.5 -26zM326 479q8 4 21 16t26.5 27t25 32t15.5 31q-31 1 -42.5 18.5t-11.5 41.5q0 41 23 69t78 28
q32 0 53 -19t21 -61q0 -44 -19 -82.5t-44 -68.5t-49.5 -50t-35.5 -26z" />
    <glyph glyph-name="quotedblbase" unicode="&#x201e;" horiz-adv-x="479" 
d="M26 -106q8 4 21 16t26.5 27t24.5 31.5t15 30.5q-30 2 -41.5 19.5t-11.5 41.5q0 20 5.5 37.5t17.5 31t31.5 21t47.5 7.5q31 0 52 -19.5t21 -61.5q0 -44 -19 -82.5t-44 -68.5t-49.5 -49.5t-34.5 -25.5zM239 -106q8 4 21 16t26.5 27t25 31.5t15.5 30.5q-31 2 -42.5 19.5
t-11.5 41.5q0 20 5.5 37.5t17.5 31t31.5 21t47.5 7.5q32 0 52.5 -19.5t20.5 -61.5q0 -44 -19 -82.5t-44 -68.5t-49.5 -49.5t-34.5 -25.5z" />
    <glyph glyph-name="dagger" unicode="&#x2020;" horiz-adv-x="473" 
d="M161 -132l39 375l27 168l-112 -9l21 133l109 -9l32 205h150l-32 -205l111 9l-21 -133l-109 9l-26 -167l-79 -376h-110z" />
    <glyph glyph-name="daggerdbl" unicode="&#x2021;" horiz-adv-x="473" 
d="M160 -132l21 216l-118 -10l21 134l109 -10l34 213l-112 -9l21 133l109 -9l32 205h150l-32 -205l111 9l-21 -133l-109 9l-33 -213l112 10l-21 -134l-116 10l-47 -216h-111z" />
    <glyph glyph-name="bullet" unicode="&#x2022;" horiz-adv-x="398" 
d="M404 331q0 -35 -10 -67t-32 -56t-56 -38.5t-83 -14.5q-72 0 -103 33.5t-31 87.5q0 35 10 67t31.5 56t56 38t83.5 14q72 0 103 -34t31 -86z" />
    <glyph glyph-name="ellipsis" unicode="&#x2026;" horiz-adv-x="795" 
d="M231 88q0 -40 -24 -69.5t-78 -29.5q-41 0 -59 19t-18 49q0 41 23.5 69.5t78.5 28.5q41 0 59 -19t18 -48zM498 88q0 -20 -5.5 -38t-18 -31.5t-32 -21.5t-46.5 -8q-41 0 -58.5 19t-17.5 49q0 41 23.5 69.5t78.5 28.5q41 0 58.5 -19t17.5 -48zM766 88q0 -20 -5.5 -38
t-18 -31.5t-32 -21.5t-46.5 -8q-41 0 -58.5 19t-17.5 49q0 41 23.5 69.5t78.5 28.5q41 0 58.5 -19t17.5 -48z" />
    <glyph glyph-name="perthousand" unicode="&#x2030;" horiz-adv-x="1264" 
d="M271 361q-63 0 -103 35.5t-40 110.5q0 45 14.5 84t40 67t61.5 44t79 16q71 0 109 -40.5t38 -109.5q0 -45 -14.5 -82.5t-40.5 -65.5t-62.5 -43.5t-81.5 -15.5zM284 444q33 0 56.5 32.5t23.5 89.5q0 68 -49 68q-33 0 -56.5 -32t-23.5 -91q0 -34 11.5 -49.5t37.5 -17.5z
M160 0l587 707h95l-587 -707h-95zM673 -11q-63 0 -103 35.5t-40 110.5q0 45 14.5 84t40 67t61.5 44t80 16q70 0 108 -40.5t38 -109.5q0 -45 -14 -83t-40.5 -65.5t-63 -43t-81.5 -15.5zM686 72q33 0 56.5 32.5t23.5 89.5q0 68 -48 68q-33 0 -57 -32t-24 -92q0 -33 11.5 -48.5
t37.5 -17.5zM1054 -11q-63 0 -103.5 35.5t-40.5 110.5q0 45 14.5 84t40.5 67t62 44t80 16q70 0 108 -40.5t38 -109.5q0 -45 -14.5 -83t-40.5 -65.5t-62.5 -43t-81.5 -15.5zM1067 72q33 0 56 32.5t23 89.5q0 68 -47 68q-34 0 -57.5 -32t-23.5 -92q0 -33 11.5 -48.5
t37.5 -17.5z" />
    <glyph glyph-name="guilsinglleft" unicode="&#x2039;" horiz-adv-x="391" 
d="M193 96l-86 190l146 190h151l-145 -190l85 -190h-151z" />
    <glyph glyph-name="guilsinglright" unicode="&#x203a;" horiz-adv-x="391" 
d="M77 96l145 190l-85 190h151l86 -190l-146 -190h-151z" />
    <glyph glyph-name="fraction" unicode="&#x2044;" horiz-adv-x="255" 
d="M-118 0l489 707h107l-489 -707h-107z" />
    <glyph glyph-name="uni2070" unicode="&#x2070;" horiz-adv-x="441" 
d="M337 796q87 0 126.5 -43t39.5 -119q0 -131 -58 -200t-164 -69q-73 0 -117 39.5t-44 120.5q0 131 57.5 201t159.5 70zM333 710q-48 0 -76.5 -45.5t-28.5 -136.5q0 -37 15 -57t49 -21q28 1 48 18t32.5 43.5t18 58.5t5.5 64q0 37 -14.5 56.5t-48.5 19.5z" />
    <glyph glyph-name="uni2074" unicode="&#x2074;" horiz-adv-x="391" 
d="M102 533l217 256h123l-40 -255h48l-12 -78h-48l-14 -85h-108l14 85h-182zM294 534l19 124l9 38l-135 -162h107z" />
    <glyph glyph-name="uni2075" unicode="&#x2075;" horiz-adv-x="378" 
d="M121 464q9 -4 22 -8q11 -3 28 -5t40 -2q32 0 53 5t34 14t18 20.5t5 24.5q0 31 -25.5 40.5t-66.5 9.5q-19 0 -36 -1t-31 -3q-16 -2 -29 -4l47 235h266l-13 -84h-173l-14 -71q5 0 11 1q5 0 11.5 0.5t14.5 0.5q28 0 54.5 -6t47 -19.5t33 -35.5t12.5 -55q0 -24 -9 -51.5
t-33 -50.5t-66 -38.5t-108 -15.5q-28 0 -49 2.5t-36 5.5q-18 4 -30 8z" />
    <glyph glyph-name="uni2076" unicode="&#x2076;" horiz-adv-x="400" 
d="M440 694q-11 3 -23 7q-11 3 -26 5.5t-35 2.5q-50 0 -77 -21t-39 -65q6 3 30 10.5t59 7.5q63 0 95.5 -31.5t32.5 -84.5q0 -34 -12.5 -63t-36 -50.5t-57.5 -34t-77 -12.5q-42 0 -71.5 12.5t-48.5 34.5t-27.5 52.5t-8.5 65.5q0 57 16.5 105.5t47 84t75 55.5t100.5 20
q23 0 43 -3t34 -7q17 -4 31 -9zM226 545q-2 -9 -2.5 -15.5t-0.5 -14.5q0 -30 14 -48t43 -18q28 0 48.5 16.5t20.5 49.5q0 47 -54 47q-24 0 -43 -6t-26 -11z" />
    <glyph glyph-name="uni2077" unicode="&#x2077;" horiz-adv-x="337" 
d="M141 789h294l-8 -80l-207 -338h-119l178 293l28 40h-179z" />
    <glyph glyph-name="uni2078" unicode="&#x2078;" horiz-adv-x="416" 
d="M332 796q77 0 113 -30t36 -72q0 -26 -10.5 -45t-24.5 -32.5t-27.5 -21t-19.5 -9.5q4 -2 15 -8t21.5 -17.5t19 -29t8.5 -41.5q0 -62 -53 -93.5t-143 -31.5q-81 0 -121.5 26.5t-40.5 76.5q0 30 12.5 51.5t29 35.5t32.5 21.5t23 9.5q-4 1 -12.5 7t-17 16t-15 25t-6.5 36
q0 56 47 91t134 35zM322 719q-30 0 -50 -11.5t-20 -36.5q0 -14 7.5 -22t18 -13.5t21.5 -8.5t19 -6q26 11 42.5 24t16.5 36q0 19 -14.5 28.5t-40.5 9.5zM284 546q-11 -3 -23 -8t-22 -11.5t-16.5 -16.5t-6.5 -24q0 -20 15.5 -31t47.5 -11q38 0 57.5 13.5t19.5 36.5
q0 14 -8.5 22.5t-20 14t-24 9t-19.5 6.5z" />
    <glyph glyph-name="uni2079" unicode="&#x2079;" horiz-adv-x="403" 
d="M146 466q10 -4 23 -8q11 -3 26 -5t35 -2q50 0 77 21.5t39 65.5q-6 -4 -30 -11.5t-59 -7.5q-63 0 -95.5 32t-32.5 84q0 34 12.5 63t35.5 50.5t57 34t77 12.5q42 0 72 -12.5t49 -34.5t27.5 -52t8.5 -66q0 -57 -16.5 -105.5t-47 -84t-75 -55.5t-100.5 -20q-23 0 -43 2.5
t-34 6.5q-17 4 -31 10zM360 616q3 16 3 29q0 30 -14 48t-42 18q-29 0 -49.5 -16.5t-20.5 -49.5q0 -47 54 -47q24 0 43 6.5t26 11.5z" />
    <glyph glyph-name="uni2080" unicode="&#x2080;" horiz-adv-x="440" 
d="M258 296q87 0 126.5 -43t39.5 -119q0 -131 -57.5 -200t-163.5 -69q-73 0 -117.5 38.5t-44.5 121.5q0 131 57.5 201t159.5 70zM255 210q-49 0 -77.5 -45.5t-28.5 -136.5q0 -37 15.5 -57t50.5 -20q28 0 47.5 17t31.5 43.5t17.5 58.5t5.5 64q0 37 -14.5 56.5t-47.5 19.5z
" />
    <glyph glyph-name="uni2081" unicode="&#x2081;" horiz-adv-x="255" 
d="M74 -128l51 324l-76 -18l3 75l130 37h66l-65 -418h-109z" />
    <glyph glyph-name="uni2082" unicode="&#x2082;" horiz-adv-x="375" 
d="M20 -128l7 88q13 8 34.5 19.5t46.5 25.5t51 30.5t47 35.5t34 40t13 44q0 25 -17 40t-59 15q-20 0 -37 -3t-30 -6q-15 -4 -28 -9l-7 79q20 7 44 13q20 5 45.5 9t54.5 4q40 0 68.5 -10t46.5 -26.5t26.5 -39.5t8.5 -48q0 -33 -12.5 -61t-32 -51.5t-43 -41.5t-45 -31.5
t-38 -22t-21.5 -11.5l42 4h112l-14 -86h-297z" />
    <glyph glyph-name="uni2083" unicode="&#x2083;" horiz-adv-x="370" 
d="M33 -35q8 -4 21 -8q11 -3 29.5 -5.5t44.5 -2.5q42 0 70.5 10.5t28.5 42.5q0 22 -18 32.5t-67 10.5q-9 0 -16.5 -0.5t-12.5 -0.5q-6 -1 -10 -1l12 78q3 -1 8 -1q4 -1 10.5 -1h15.5q19 0 37 2t31.5 7.5t21.5 15.5t8 27q0 22 -17.5 32t-60.5 10q-22 0 -39 -2t-29 -4
q-14 -3 -24 -6l-6 77q16 5 35 9q17 3 40 6t52 3q84 0 122.5 -26.5t38.5 -74.5q0 -72 -84 -104q29 -9 45 -30.5t16 -59.5q0 -136 -203 -136q-30 0 -52 2.5t-37 5.5q-18 4 -29 9z" />
    <glyph glyph-name="uni2084" unicode="&#x2084;" horiz-adv-x="391" 
d="M23 33l217 257h123l-40 -256h48l-12 -78h-49l-13 -84h-108l13 84h-181zM215 34l19 124l10 41l-138 -165h109z" />
    <glyph glyph-name="uni2085" unicode="&#x2085;" horiz-adv-x="378" 
d="M42 -37q9 -4 22 -7q11 -3 27.5 -5t39.5 -2q32 0 53 5t34 14t18 20.5t5 24.5q0 30 -25.5 40t-65.5 10q-20 0 -36.5 -1t-30.5 -3q-16 -2 -29 -4l46 235h267l-14 -85h-172l-15 -71q5 0 11 1q5 0 11.5 0.5t14.5 0.5q28 0 54.5 -6t47 -19.5t33 -35.5t12.5 -54q0 -24 -9 -51.5
t-33 -50.5t-66 -38.5t-108 -15.5q-27 0 -48.5 2t-35.5 5q-18 4 -30 8z" />
    <glyph glyph-name="uni2086" unicode="&#x2086;" horiz-adv-x="401" 
d="M362 194q-10 3 -23 7q-11 3 -26.5 5.5t-34.5 2.5q-51 0 -77.5 -21t-38.5 -65q5 4 29 11.5t59 7.5q64 0 96.5 -32t32.5 -84q0 -34 -12.5 -63t-36 -50.5t-57.5 -34t-77 -12.5q-42 0 -72 12.5t-49 34.5t-27.5 52t-8.5 66q0 57 16.5 105.5t47.5 84t75.5 55.5t100.5 20
q23 0 42.5 -3t33.5 -7q17 -4 31 -9zM147 45q-2 -8 -2.5 -15t-0.5 -15q0 -29 14 -47t43 -18t49 16.5t20 49.5q0 47 -53 47q-24 0 -43.5 -6.5t-26.5 -11.5z" />
    <glyph glyph-name="uni2087" unicode="&#x2087;" horiz-adv-x="337" 
d="M63 290h294l-8 -82l-208 -336h-118l178 292l28 40h-179z" />
    <glyph glyph-name="uni2088" unicode="&#x2088;" horiz-adv-x="415" 
d="M252 296q77 0 113 -30t36 -72q0 -26 -10.5 -45t-24.5 -32.5t-27.5 -21t-19.5 -9.5q4 -2 15 -8t21.5 -17t19 -28.5t8.5 -41.5q0 -63 -53.5 -94.5t-142.5 -31.5q-81 0 -121.5 26.5t-40.5 76.5q0 30 12.5 51.5t29 35.5t32 21.5t22.5 9.5q-3 1 -11.5 6.5t-17 15.5t-15 25.5
t-6.5 36.5q0 56 47 91t134 35zM242 220q-29 0 -49.5 -12t-20.5 -37q0 -14 7.5 -22t18 -13.5t21.5 -8.5t19 -6q26 11 42.5 24t16.5 36q0 19 -14.5 29t-40.5 10zM204 46q-12 -3 -24 -8t-21.5 -11.5t-16 -16.5t-6.5 -24q0 -20 15.5 -31t47.5 -11q38 0 57 14t19 37q0 13 -8.5 22
t-19.5 14t-23.5 8.5t-19.5 6.5z" />
    <glyph glyph-name="uni2089" unicode="&#x2089;" horiz-adv-x="400" 
d="M65 -31q10 -4 23 -8q11 -3 26 -5t35 -2q50 0 77 21t38 65q-5 -4 -29 -11.5t-60 -7.5q-63 0 -95.5 31.5t-32.5 83.5q0 34 12.5 63t35.5 51t57 34.5t78 12.5q43 0 72.5 -12.5t48 -34.5t27 -52.5t8.5 -66.5q0 -57 -16 -105.5t-46.5 -83.5t-75 -55t-100.5 -20q-23 0 -43 2.5
t-34 6.5q-17 4 -31 10zM278 118q3 16 3 32q0 30 -13.5 46.5t-43.5 16.5q-28 0 -48.5 -16.5t-20.5 -49.5q0 -47 54 -47q24 0 43 6.5t26 11.5z" />
    <glyph glyph-name="franc" unicode="&#x20a3;" horiz-adv-x="619" 
d="M101 1l17 101h-76l17 106h76l78 499h462l-22 -137h-298l-25 -161h252l-20 -129h-252l-12 -72h93l-17 -106h-92l-17 -101h-164z" />
    <glyph glyph-name="lira" unicode="&#x20a4;" horiz-adv-x="623" 
d="M299 239q-10 -29 -21.5 -50t-24.5 -38q6 1 19 3.5t27 2.5q22 0 39 -4.5t33 -9.5t32 -9.5t36 -4.5q26 0 50.5 9t44.5 26l44 -99q-37 -40 -76.5 -52.5t-71.5 -12.5q-24 0 -46.5 5t-45 11t-45.5 11t-48 5q-33 0 -61.5 -11t-44.5 -21l-49 131q25 20 39.5 46t24.5 62h-69
l14 87h74l10 66h-74l14 87h75q21 115 91 177t205 62q37 0 64.5 -4t47.5 -9q22 -5 39 -12l-42 -121q-11 4 -27 8q-14 3 -33 6t-42 3q-59 0 -98.5 -24t-49.5 -86h160l-13 -87h-161l-15 -66h165l-14 -87h-176z" />
    <glyph glyph-name="Euro" unicode="&#x20ac;" horiz-adv-x="654" 
d="M653 553q-16 6 -35 10q-17 4 -40 7.5t-49 3.5q-61 0 -108.5 -23.5t-73.5 -78.5h184l-14 -87h-205q-3 -17 -4.5 -31t-2.5 -31h202l-14 -87h-178q11 -57 51 -80.5t112 -23.5q45 0 73 6.5t37 9.5l11 -122q-2 -1 -12.5 -5t-30.5 -8.5t-48.5 -8.5t-64.5 -4q-71 0 -123.5 17
t-88 48t-55 74.5t-25.5 96.5h-69l14 87h52q2 17 3 31t5 31h-51l15 87h59q19 52 49 95t73 74t98.5 48.5t124.5 17.5q40 0 71.5 -5.5t53.5 -12.5t33.5 -12l11.5 -5l-41 -119v0z" />
    <glyph glyph-name="afii61289" unicode="&#x2113;" horiz-adv-x="517" 
d="M439 27q-17 -11 -40 -19q-20 -8 -47 -13.5t-59 -5.5q-33 0 -62.5 7.5t-52.5 24.5t-37.5 44t-17.5 66q-32 -12 -57 -20l10 95q2 1 9.5 4t16.5 7t17 7.5t10 4.5l47 301q17 107 76 159.5t150 52.5q78 0 115 -40.5t37 -109.5q0 -68 -24 -126t-63.5 -107t-90 -88.5
t-102.5 -70.5q-2 -46 15.5 -65.5t54.5 -19.5q18 0 34 4t27 9q13 5 25 13zM291 325q32 26 59.5 53.5t47 57t30.5 62.5t11 71q0 35 -13.5 46t-31.5 11q-23 0 -42 -17.5t-27 -61.5q-2 -14 -6.5 -43t-10 -62.5t-10 -65.5t-7.5 -51z" />
    <glyph glyph-name="trademark" unicode="&#x2122;" horiz-adv-x="711" 
d="M643 410l21 184l-68 -142h-58l-24 142l-36 -184h-91l65 297h105l25 -155l74 155h105l-29 -297h-89zM182 410l34 215h-84l12 82h257l-13 -82h-83l-34 -215h-89z" />
    <glyph glyph-name="uni2126" unicode="&#x2126;" horiz-adv-x="707" 
d="M388 0l21 130q15 7 42 32t54 65t46.5 93t19.5 117q0 69 -29.5 110t-98.5 41q-45 0 -79 -18.5t-56.5 -50.5t-34 -76.5t-11.5 -95.5q0 -48 8.5 -86t20.5 -65t25.5 -43.5t22.5 -22.5l-20 -130h-283l20 130h126q-8 6 -22 23.5t-27.5 46t-23.5 69t-10 92.5q0 70 21.5 134.5
t65.5 114t111 79t158 29.5q76 0 130 -21.5t87.5 -57.5t49 -84.5t15.5 -102.5q0 -71 -21 -127t-49.5 -96.5t-56.5 -65.5t-42 -33h123l-20 -130h-283z" />
    <glyph glyph-name="estimated" unicode="&#x212e;" horiz-adv-x="852" 
d="M751 135q-63 -66 -145 -105.5t-175 -39.5q-70 0 -129.5 25t-103 68.5t-68 102t-24.5 125.5q0 84 36.5 158.5t97.5 130.5t140 89t164 33q76 0 138.5 -27.5t104.5 -76t60 -116t6 -146.5l-3 -19h-571l-34 -216q35 -35 84 -54.5t108 -19.5q64 0 124 24t109 64h81zM718 589
q-34 35 -80 55t-103 20q-59 0 -114 -19t-101 -54l-34 -208h399z" />
    <glyph glyph-name="onethird" unicode="&#x2153;" horiz-adv-x="1016" 
d="M179 0l587 707h94l-587 -707h-94zM189 289l52 325l-77 -19l4 76l130 36h66l-66 -418h-109zM673 94q9 -4 22 -8q11 -3 29.5 -5.5t44.5 -2.5q41 0 69.5 10.5t28.5 42.5q0 22 -17.5 33t-66.5 11q-9 0 -16.5 -0.5t-12.5 -0.5q-6 -1 -10 -1l12 77q3 -1 8 -1q4 -1 10.5 -1h15.5
q19 0 37 2t31.5 7.5t21.5 15.5t8 27q0 22 -17.5 32t-60.5 10q-23 0 -39.5 -2t-28.5 -4q-14 -3 -24 -6l-7 78q16 5 36 9q17 3 40 6t52 3q83 0 122 -27t39 -75q0 -72 -84 -103q29 -10 44.5 -31.5t15.5 -59.5q0 -66 -50 -101t-153 -35q-30 0 -52 2.5t-37 5.5q-18 4 -29 9z" />
    <glyph glyph-name="twothirds" unicode="&#x2154;" horiz-adv-x="1103" 
d="M950 707l-587 -707h-94l587 707h94zM169 688q20 7 44 13q20 5 45.5 9t54.5 4q40 0 69 -10t47 -26.5t26.5 -39.5t8.5 -48q0 -33 -13 -61t-32.5 -51.5t-43 -41.5t-44.5 -31.5t-37.5 -22t-21.5 -11.5l41 4h112l-14 -86h-297l7 88q13 8 34.5 19t47 25.5t51.5 31t46.5 35.5
t34 40t13.5 44q0 25 -17.5 40t-59.5 15q-20 0 -37 -3t-30 -7q-15 -4 -28 -9zM799 408q16 5 35 9q17 3 40 6t52 3q83 0 122 -27t39 -75q0 -73 -84 -103q29 -10 45 -31.5t16 -59.5q0 -66 -50.5 -101t-153.5 -35q-29 0 -51 2.5t-37 5.5q-18 4 -30 9l18 83q9 -4 22 -8
q11 -3 29.5 -5.5t44.5 -2.5q41 0 69.5 10.5t28.5 42.5q0 22 -17.5 33t-66.5 11q-10 0 -17 -0.5t-12 -0.5q-6 -1 -10 -1l12 77q3 -1 8 -1q4 -1 10.5 -1h15.5q19 0 36.5 2t31 7.5t21.5 15.5t8 27q0 22 -17 32t-60 10q-23 0 -39.5 -2t-28.5 -4q-14 -3 -24 -6z" />
    <glyph glyph-name="oneeighth" unicode="&#x215b;" horiz-adv-x="1021" 
d="M298 289h-109l52 325l-77 -19l4 76l130 36h66zM860 707l-587 -707h-94l587 707h94zM847 425q77 0 113 -30t36 -72q0 -26 -10.5 -45t-24.5 -32.5t-27.5 -21t-19.5 -9.5q4 -2 15 -8t22 -17.5t19.5 -29t8.5 -41.5q0 -62 -54 -94t-143 -32q-81 0 -121.5 27t-40.5 76
q0 30 12.5 52t29 36t32.5 21.5t22 9.5q-3 1 -11.5 6.5t-17 15.5t-15 25.5t-6.5 36.5q0 55 47 90.5t134 35.5zM837 348q-30 0 -49.5 -11.5t-19.5 -36.5q0 -14 7.5 -22.5t17.5 -13.5t21 -8.5t19 -6.5q27 12 43 24.5t16 35.5q0 39 -55 39zM799 174q-11 -3 -23 -7.5t-22 -11.5
t-16.5 -17t-6.5 -24q0 -19 15.5 -30t47.5 -11q38 0 57.5 13.5t19.5 36.5q0 13 -8.5 22t-20 14.5t-24 8.5t-19.5 6z" />
    <glyph glyph-name="threeeighths" unicode="&#x215c;" horiz-adv-x="1081" 
d="M166 696q16 5 36 9q17 3 40 6t52 3q83 0 122 -27t39 -75q0 -72 -84 -104q29 -9 44.5 -30.5t15.5 -59.5q0 -66 -50 -101t-153 -35q-30 0 -52 2.5t-37 5.5q-18 4 -29 9l18 83q8 -4 21 -8q11 -3 29.5 -5.5t45.5 -2.5q42 0 70 10.5t28 42.5q0 22 -17.5 33t-66.5 11
q-10 0 -17 -0.5t-12 -0.5q-6 -1 -10 -1l12 77q3 -1 8 -1q4 -1 10.5 -1h15.5q19 0 36.5 2t31 7.5t21.5 15.5t8 27q0 22 -17 32t-60 10q-23 0 -39.5 -2t-28.5 -4q-14 -3 -24 -6zM920 707l-587 -707h-94l587 707h94zM908 425q77 0 113 -30t36 -72q0 -26 -10.5 -45t-24.5 -32.5
t-27.5 -21t-19.5 -9.5q4 -2 15 -8t22 -17.5t19.5 -29t8.5 -41.5q0 -62 -54 -94t-143 -32q-81 0 -121.5 27t-40.5 76q0 30 12.5 52t29 36t32 21.5t22.5 9.5q-3 1 -11.5 6.5t-17 15.5t-15 25.5t-6.5 36.5q0 55 47 90.5t134 35.5zM898 348q-30 0 -50 -11.5t-20 -36.5
q0 -14 7.5 -22.5t18 -13.5t21.5 -8.5t19 -6.5q26 12 42.5 24.5t16.5 35.5q0 20 -14.5 29.5t-40.5 9.5zM860 174q-11 -3 -23 -7.5t-22 -11.5t-16.5 -17t-6.5 -24q0 -19 15.5 -30t47.5 -11q38 0 57 13.5t19 36.5q0 13 -8.5 22t-19.5 14.5t-23.5 8.5t-19.5 6z" />
    <glyph glyph-name="fiveeighths" unicode="&#x215d;" horiz-adv-x="1080" 
d="M457 707l-14 -84h-173l-14 -71q5 0 11 1q5 0 11.5 0.5t14.5 0.5q28 0 54.5 -6t47 -19.5t33 -35.5t12.5 -55q0 -24 -9 -51.5t-33 -50.5t-66 -38.5t-108 -15.5q-28 0 -49 2.5t-35 5.5q-17 4 -30 8l21 83q10 -4 23 -8q11 -3 27.5 -5t39.5 -2q32 0 53 5.5t34 14.5t18 20.5
t5 24.5q0 30 -25.5 40t-65.5 10q-20 0 -37 -1.5t-31 -3.5q-16 -2 -29 -4l47 235h267zM920 707l-587 -707h-94l587 707h94zM906 425q77 0 113.5 -30t36.5 -72q0 -26 -10.5 -45t-24.5 -32.5t-27.5 -21t-19.5 -9.5q4 -2 15 -8t21.5 -17.5t19 -29t8.5 -41.5q0 -63 -53.5 -94.5
t-142.5 -31.5q-81 0 -121.5 27t-40.5 76q0 30 12.5 52t29 36t32 21.5t22.5 9.5q-4 1 -12 6.5t-16.5 15.5t-15 25.5t-6.5 36.5q0 55 47 90.5t133 35.5zM897 348q-30 0 -50 -11.5t-20 -36.5q0 -14 7.5 -22.5t18 -13.5t21.5 -8.5t19 -6.5q26 12 42 24.5t16 35.5q0 20 -14 29.5
t-40 9.5zM859 174q-12 -3 -24 -7.5t-21.5 -11.5t-16 -17t-6.5 -24q0 -19 15 -30t48 -11q37 0 56.5 13.5t19.5 36.5q0 13 -8.5 22t-20 14.5t-23.5 8.5t-19 6z" />
    <glyph glyph-name="seveneighths" unicode="&#x215e;" horiz-adv-x="1016" 
d="M467 707l-8 -81l-207 -337h-119l178 293l27 39h-179l14 86h294zM856 707l-587 -707h-94l587 707h94zM842 425q77 0 113.5 -30t36.5 -72q0 -26 -10.5 -45t-25 -32.5t-28 -21t-19.5 -9.5q4 -2 15 -8t22 -17.5t19.5 -29t8.5 -41.5q0 -62 -54 -94t-143 -32q-81 0 -121.5 27
t-40.5 76q0 30 12.5 52t29 36t32.5 21.5t23 9.5q-4 1 -12.5 6.5t-17 15.5t-15 25.5t-6.5 36.5q0 55 47 90.5t134 35.5zM832 348q-29 0 -49 -11.5t-20 -36.5q0 -14 7.5 -22.5t17.5 -13.5t21 -8.5t19 -6.5q27 12 43 24.5t16 35.5q0 39 -55 39zM795 174q-12 -3 -24 -7.5
t-22 -11.5t-16.5 -17t-6.5 -24q0 -19 15.5 -30t47.5 -11q38 0 57.5 13.5t19.5 36.5q0 13 -8.5 22t-20 14.5t-23.5 8.5t-19 6z" />
    <glyph glyph-name="arrowleft" unicode="&#x2190;" horiz-adv-x="776" 
d="M304 292l216 -256h-152l-265 316l365 315h152l-297 -256h472l-19 -119h-472z" />
    <glyph glyph-name="arrowup" unicode="&#x2191;" horiz-adv-x="783" 
d="M409 484l-297 -256l24 152l366 315l265 -315l-24 -152l-216 256l-74 -471h-119z" />
    <glyph glyph-name="arrowright" unicode="&#x2192;" horiz-adv-x="776" 
d="M520 667l265 -315l-365 -316h-152l297 256h-471l18 119h472l-216 256h152z" />
    <glyph glyph-name="arrowdown" unicode="&#x2193;" horiz-adv-x="783" 
d="M486 223l297 257l-25 -152l-365 -315l-265 315l24 152l216 -257l74 472h119z" />
    <glyph glyph-name="uni2196" unicode="&#x2196;" horiz-adv-x="740" 
d="M271 404l-58 -363l-89 108l71 446h445l91 -107h-363l281 -334l-97 -84z" />
    <glyph glyph-name="uni2197" unicode="&#x2197;" horiz-adv-x="740" 
d="M663 149l-123 -108l57 363l-387 -334l-70 84l387 334h-364l126 107h445z" />
    <glyph glyph-name="uni2198" unicode="&#x2198;" horiz-adv-x="740" 
d="M570 231l58 364l89 -109l-71 -445h-445l-91 106h363l-281 334l96 84z" />
    <glyph glyph-name="uni2199" unicode="&#x2199;" horiz-adv-x="740" 
d="M630 565l71 -84l-387 -334h363l-125 -106h-445l71 445l122 109l-57 -364z" />
    <glyph glyph-name="partialdiff" unicode="&#x2202;" horiz-adv-x="587" 
d="M321 766q17 2 32.5 3t29.5 1q77 0 127 -26t79.5 -66.5t41.5 -91.5t12 -100q0 -55 -9 -113t-28.5 -113.5t-50.5 -104.5t-74.5 -86t-100.5 -58.5t-128 -21.5q-50 0 -87.5 15t-62.5 41.5t-37 63t-12 80.5q0 76 20.5 140.5t61 110.5t100.5 72t140 26q48 0 74.5 -12.5
t40.5 -23.5q-3 32 -12.5 58.5t-27.5 46t-45 30.5t-66 11h-21t-23 -2zM481 383q-17 12 -43 22t-60 10q-79 0 -123 -56.5t-44 -153.5q0 -86 80 -86q43 0 74.5 21.5t54 58t37.5 84.5t24 100z" />
    <glyph glyph-name="uni2206" unicode="&#x2206;" horiz-adv-x="674" 
d="M0 0l344 707h209l120 -707h-673zM420 548l-195 -410h261z" />
    <glyph glyph-name="product" unicode="&#x220f;" horiz-adv-x="861" 
d="M522 -204l127 803h-248l-127 -803h-156l127 803h-96l21 132h753l-21 -132h-97l-127 -803h-156z" />
    <glyph glyph-name="summation" unicode="&#x2211;" horiz-adv-x="616" 
d="M21 -204l22 140l267 327l-164 327l23 140h510l-22 -140h-339l163 -327l-267 -327h340l-23 -140h-510z" />
    <glyph glyph-name="minus" unicode="&#x2212;" horiz-adv-x="594" 
d="M85 229l21 133h496l-21 -133h-496z" />
    <glyph glyph-name="uni2215" unicode="&#x2215;" horiz-adv-x="617" 
d="M-1 0l587 707h144l-587 -707h-144z" />
    <glyph glyph-name="uni2219" unicode="&#x2219;" horiz-adv-x="272" 
d="M284 385q0 -39 -23.5 -68.5t-78.5 -29.5q-42 0 -59 18.5t-17 48.5q0 41 23.5 70t78.5 29q41 0 58.5 -19t17.5 -49z" />
    <glyph glyph-name="radical" unicode="&#x221a;" horiz-adv-x="705" 
d="M264 0l-61 405h-132l20 122h264l29 -399l298 694h161l-376 -822h-203z" />
    <glyph glyph-name="infinity" unicode="&#x221e;" horiz-adv-x="985" 
d="M106 309q0 58 23 102t58.5 73t78 43.5t82.5 14.5q42 0 78.5 -14.5t65 -33.5t46.5 -37.5t24 -25.5q8 7 31.5 25.5t57.5 37.5t74.5 33.5t82.5 14.5q36 0 68 -12t56.5 -35t39 -56t14.5 -75q0 -60 -23.5 -103.5t-59 -71.5t-78 -41.5t-80.5 -13.5q-43 0 -80 14.5t-65.5 33
t-46.5 36t-22 23.5q-8 -8 -32 -25.5t-58 -35.5t-75.5 -32t-83.5 -14q-35 0 -67 11.5t-56 34t-38.5 55t-14.5 74.5zM245 327q0 -30 21 -47t50 -17q36 0 73 22t69 52q-23 29 -52.5 51t-67.5 22q-18 0 -35 -6t-30 -17.5t-20.5 -26.5t-7.5 -33zM637 337q9 -13 21.5 -26
t27.5 -23.5t32 -17.5t36 -7q18 0 35 6t30.5 16.5t21.5 26t8 35.5q0 30 -20.5 47t-50.5 17q-35 -2 -72 -23t-69 -51z" />
    <glyph glyph-name="integral" unicode="&#x222b;" horiz-adv-x="536" 
d="M572 616q-6 1 -14 3q-7 2 -16 3t-19 1q-38 0 -61 -19t-31 -70l-85 -531q-11 -68 -37 -110.5t-60.5 -66.5t-74 -32.5t-76.5 -8.5q-18 0 -33.5 1t-26.5 3q-13 2 -24 5l35 126q7 -2 15 -3q13 -3 34 -3q38 0 61.5 20t31.5 71l85 531q11 68 37 110t60 65.5t73 31.5t76 8
q18 0 33.5 -1.5t26.5 -3.5q13 -2 25 -4l-35 -126v0z" />
    <glyph glyph-name="approxequal" unicode="&#x2248;" horiz-adv-x="626" 
d="M116 329q6 37 20 70t37 57.5t54 38.5t71 14q29 0 51.5 -9t41 -19.5t35 -19t34.5 -8.5q19 0 33.5 13t19.5 42h130q-6 -38 -20.5 -71t-37.5 -57t-54.5 -38t-71.5 -14q-30 0 -51.5 8.5t-39.5 19t-34.5 19t-34.5 8.5q-45 0 -53 -54h-130zM80 105q6 38 20.5 71t37.5 57.5
t54 38.5t71 14q29 0 51.5 -9t41 -19.5t34.5 -19t34 -8.5q19 0 34 13t19 42h131q-6 -38 -20.5 -71t-37.5 -57t-54.5 -38t-71.5 -14q-30 0 -51.5 8.5t-39.5 19t-34.5 19t-34.5 8.5q-45 0 -54 -55h-130z" />
    <glyph glyph-name="notequal" unicode="&#x2260;" horiz-adv-x="577" 
d="M296 146l-68 -123h-118l68 123h-99l20 125h149l50 88h-185l20 126h234l63 110h119l-63 -110h111l-20 -126h-161l-49 -88h196l-20 -125h-247z" />
    <glyph glyph-name="lessequal" unicode="&#x2264;" horiz-adv-x="571" 
d="M114 338l23 149l479 172l-24 -146l-280 -101l248 -99l-23 -146zM60 0l20 126h452l-21 -126h-451z" />
    <glyph glyph-name="greaterequal" unicode="&#x2265;" horiz-adv-x="571" 
d="M86 167l24 146l280 99l-248 101l22 146l424 -172l-23 -149zM60 0l20 126h451l-20 -126h-451z" />
    <glyph glyph-name="lozenge" unicode="&#x25ca;" horiz-adv-x="637" 
d="M236 0l-143 366l259 365h165l142 -365l-258 -366h-165zM505 366l-93 232l-164 -232l91 -233z" />
    <glyph glyph-name="zero.oldstyle" horiz-adv-x="621" 
d="M384 538q121 0 183.5 -60t62.5 -164q0 -76 -23.5 -136t-65.5 -102t-100.5 -64.5t-128.5 -22.5q-50 0 -93 13.5t-75 42t-50.5 71t-18.5 101.5q0 74 23 133.5t64 101t97.5 64t124.5 22.5zM375 417q-30 0 -56.5 -13t-46 -37.5t-30.5 -60t-11 -81.5q0 -54 24 -84.5t75 -30.5
q30 0 56.5 13t46 38.5t30.5 61.5t11 83q0 52 -25 81.5t-74 29.5z" />
    <glyph glyph-name="one.oldstyle" horiz-adv-x="396" 
d="M158 0l61 387l-126 -34l-9 107l221 67h95l-84 -527h-158z" />
    <glyph glyph-name="two.oldstyle" horiz-adv-x="567" 
d="M60 0l9 131q93 26 166 59q31 14 61 31.5t53.5 37t38 41.5t14.5 46q0 14 -5.5 26.5t-18 21.5t-34 14.5t-53.5 5.5q-33 0 -61 -5t-48 -11q-24 -7 -43 -15l-13 112q29 11 64 21q30 8 70.5 15t88.5 7q59 0 100 -12.5t67 -35t38 -52.5t12 -64q0 -50 -20.5 -90t-54 -71
t-76.5 -54t-87 -39l41 4h167l-20 -124h-456z" />
    <glyph glyph-name="three.oldstyle" horiz-adv-x="562" 
d="M42 -39q18 -8 41 -13q20 -5 48 -9t63 -4q76 0 123 23t47 77q0 41 -31.5 61.5t-107.5 20.5q-12 0 -24 -0.5t-21 -1.5q-11 -1 -20 -1l20 125q8 -1 17 -1q8 -1 17.5 -1h20.5q35 0 65.5 4.5t53 16t35 30t12.5 47.5q0 42 -30 59.5t-98 17.5q-32 0 -58.5 -3.5t-46.5 -7.5
q-23 -4 -42 -10l-9 116q25 8 58 15q28 6 65.5 11t84.5 5q64 0 109.5 -12t74.5 -34t42.5 -52t13.5 -67q0 -69 -37 -116.5t-102 -70.5q16 -6 33.5 -17.5t31.5 -29.5t23 -43.5t9 -60.5q0 -110 -78.5 -168t-237.5 -58q-47 0 -82 4t-60 9q-29 6 -50 14z" />
    <glyph glyph-name="four.oldstyle" horiz-adv-x="627" 
d="M45 122l360 405h192l-64 -404h93l-19 -123h-93l-23 -148h-158l23 148h-312zM375 123l30 185l15 73l-230 -258h185z" />
    <glyph glyph-name="five.oldstyle" horiz-adv-x="558" 
d="M49 -41q16 -8 38 -13q19 -5 46 -9t62 -4q51 0 86 10t56.5 26.5t31 38t9.5 44.5q0 27 -11 45t-31.5 29.5t-49.5 16.5t-64 5q-22 0 -44.5 -1.5t-42 -4t-34.5 -5t-22 -3.5l77 393h414l-21 -127h-267l-26 -134q10 2 24.5 3t31.5 1q45 0 85.5 -11t72 -35t50 -63t18.5 -95
q0 -48 -16.5 -94.5t-55.5 -82.5t-103 -58t-159 -22q-44 0 -78 4t-57 9q-27 5 -48 13z" />
    <glyph glyph-name="six.oldstyle" horiz-adv-x="598" 
d="M581 572q-11 6 -26 10q-13 4 -32 7t-45 3q-90 0 -138.5 -47t-70.5 -129q4 3 17 9t32.5 12t45 11t54.5 5q48 0 83 -14.5t58 -40.5t34 -62t11 -78q0 -54 -18 -102.5t-53.5 -85.5t-89 -59t-125.5 -22q-69 0 -114.5 20.5t-71.5 56.5t-36.5 84t-10.5 102q0 51 8.5 105
t26.5 106t48 98t73 81t100 55.5t131 20.5q35 0 61.5 -4t45.5 -9q22 -6 38 -13zM247 300q-6 -38 -6 -71q0 -50 18.5 -82.5t67.5 -32.5q23 0 44.5 8.5t38 25t26.5 41t10 56.5q0 49 -23 69t-61 20q-19 0 -37.5 -4t-34 -9.5t-27 -11t-16.5 -9.5z" />
    <glyph glyph-name="seven.oldstyle" horiz-adv-x="521" 
d="M46 -180l288 497l56 83h-299l20 127h461l-13 -118l-341 -589h-172z" />
    <glyph glyph-name="eight.oldstyle" horiz-adv-x="625" 
d="M518 364q8 -3 24 -13t32.5 -29t29 -48t12.5 -70q0 -51 -21.5 -90.5t-61.5 -67.5t-96.5 -42.5t-125.5 -14.5q-126 0 -185 46t-59 127q0 50 19.5 86.5t45 60.5t50 36.5t34.5 15.5q-7 3 -20.5 13t-27 27.5t-23.5 43.5t-10 61q0 45 18.5 83.5t54.5 67t89.5 45t124.5 16.5
q64 0 108.5 -13t72.5 -35.5t41 -52t13 -62.5q0 -46 -19 -80.5t-43.5 -58.5t-47 -37t-29.5 -15zM342 301q-23 -6 -43.5 -17t-36 -26t-25 -33.5t-9.5 -39.5q0 -35 26 -54.5t75 -19.5q63 0 95.5 27t32.5 68q0 20 -9 34.5t-24.5 25t-36.5 19t-45 16.5zM396 418q48 22 74 49
t26 65q0 35 -24.5 52t-66.5 17q-49 0 -81 -22.5t-32 -67.5q0 -20 8 -34.5t21.5 -25t32.5 -18.5t42 -15z" />
    <glyph glyph-name="nine.oldstyle" horiz-adv-x="598" 
d="M102 -44q11 -6 26 -10q13 -4 31.5 -7t44.5 -3q45 0 79.5 12t59.5 34.5t42.5 55t28.5 73.5q-4 -2 -17 -8t-33 -12.5t-45.5 -11.5t-54.5 -5q-48 0 -83 14.5t-58 40.5t-34 62t-11 78q0 54 18 102.5t53.5 86t89.5 59.5t126 22q69 0 114 -20.5t71.5 -56.5t37 -84t10.5 -103
q0 -51 -8.5 -105t-27 -106t-48.5 -98t-73 -81t-100.5 -55.5t-130.5 -20.5q-35 0 -61.5 4t-45.5 9q-22 5 -38 13zM436 227q6 37 6 70q0 51 -19 84t-68 33q-23 0 -44.5 -8.5t-38 -25t-26 -41t-9.5 -56.5q0 -50 22.5 -70t60.5 -20q19 0 37.5 4t34 9.5t27 11.5t17.5 9z" />
    <glyph glyph-name="exclam.aalt" horiz-adv-x="289" 
d="M106 175l50 397h159l-76 -397h-133zM234 69q0 -32 -24.5 -55t-67.5 -23q-35 0 -52 16t-17 42q0 33 23.5 56t67.5 23q34 0 52 -16.5t18 -42.5z" />
    <glyph glyph-name="numbersign.aalt" horiz-adv-x="644" 
d="M345 0l38 142h-110l-38 -142h-108l38 142h-83l13 84h92l30 107h-78l14 84h87l40 149h109l-40 -149h109l39 149h110l-40 -149h83l-13 -84h-92l-31 -107h79l-14 -84h-87l-38 -142h-109zM435 333h-109l-30 -107h110z" />
    <glyph glyph-name="dollar.aalt" horiz-adv-x="514" 
d="M199 -77l12 79q-32 2 -58 8t-46 12q-23 7 -41 16l35 106q21 -10 47 -18q22 -7 49.5 -12t59.5 -5q90 0 90 54q0 26 -18.5 37t-49.5 22q-36 12 -67.5 26t-54.5 33t-36.5 45.5t-13.5 65.5q0 72 48 116.5t142 53.5l13 78h101l-13 -78q28 -2 51.5 -8t40.5 -11q20 -7 36 -14
l-41 -109l-11 5t-30 11t-44.5 11t-54.5 5q-40 0 -65 -11t-25 -38q0 -25 23.5 -37t68.5 -27q32 -11 59.5 -23t48 -30t32 -43.5t11.5 -62.5q0 -69 -44.5 -116.5t-141.5 -59.5l-13 -81h-100z" />
    <glyph glyph-name="percent.aalt" horiz-adv-x="722" 
d="M122 0l477 566h86l-478 -566h-85zM223 290q-31 1 -52.5 10t-35 24.5t-20 36t-6.5 45.5q0 38 12 69.5t33.5 53.5t50.5 34t62 12q65 0 94 -32t29 -86q0 -38 -12 -68.5t-33.5 -52.5t-52.5 -34t-69 -12zM240 368q26 0 43 19.5t17 60.5q0 23 -9.5 35.5t-29.5 12.5
q-26 0 -43 -20.5t-17 -62.5q0 -22 8.5 -33t30.5 -12zM536 -9q-62 2 -88 34t-26 82q0 39 12 70t33 53t50 34t63 12q65 0 94 -32t29 -86q0 -38 -12 -68.5t-33.5 -52.5t-52.5 -34t-69 -12zM552 69q26 0 43.5 20t17.5 60q0 23 -9.5 35.5t-30.5 12.5q-26 0 -43 -20.5t-17 -62.5
q0 -22 9 -33t30 -12z" />
    <glyph glyph-name="ampersand.aalt" horiz-adv-x="655" 
d="M641 243h-31q-12 0 -28 1q1 -7 3 -16q1 -8 2 -17t1 -20q0 -35 -12.5 -70.5t-44 -64.5t-85.5 -47t-136 -18q-67 0 -111 12.5t-70.5 33.5t-37 48.5t-10.5 58.5q0 44 17 74t39.5 48t44.5 26.5t31 10.5q-8 3 -19 11t-21.5 21.5t-18 32t-7.5 43.5q0 34 13 64t42.5 52t78 35
t120.5 13q43 0 74 -3.5t52 -8.5q24 -5 41 -12l-31 -99q-18 4 -39 8q-18 3 -41 5.5t-49 2.5q-113 0 -113 -68q0 -32 26.5 -42t81.5 -10h256zM346 245q-55 0 -83.5 -22t-28.5 -61q0 -35 22.5 -50t68.5 -15q66 0 94 29t28 86q0 11 -1 21t-1 12h-99z" />
    <glyph glyph-name="section.aalt" horiz-adv-x="549" 
d="M88 -57q21 -8 46 -13q21 -5 49 -9t60 -4q54 0 77 14t23 40q0 27 -22.5 38t-55.5 21q-38 11 -70 24t-54.5 31t-35 42.5t-12.5 59.5q0 26 6.5 46t17.5 35.5t25 26.5t29 19q-20 17 -31.5 41.5t-11.5 58.5q0 76 63 118.5t176 42.5q38 0 71 -4.5t56 -9.5q27 -6 49 -13
l-32 -100q-16 6 -38 10q-19 4 -45.5 7.5t-58.5 3.5q-44 0 -72 -11t-28 -38q0 -13 8.5 -22t23.5 -16.5t36.5 -15t47.5 -17.5q27 -10 51.5 -21.5t43.5 -27.5t30 -39t11 -57q0 -84 -72 -127q17 -16 27 -38t10 -53q0 -35 -14.5 -67t-44.5 -56t-77 -38t-111 -14q-38 0 -71 4
t-57 9q-28 6 -51 14zM271 260q-15 -8 -27 -21t-12 -32q0 -14 7.5 -24.5t20.5 -18.5t31 -14.5t40 -13.5l9 -3q39 17 39 51q0 25 -18.5 37.5t-48.5 23.5z" />
    <glyph glyph-name="paragraph.aalt" horiz-adv-x="603" 
d="M409 -134l96 606h-87l-96 -606h-106l52 331q-50 0 -84 12.5t-55 33.5t-30.5 49.5t-9.5 60.5q0 42 11.5 82t39 71t73.5 49.5t115 18.5h299l-112 -708h-106z" />
    <glyph glyph-name="parenleft.aalt" horiz-adv-x="296" 
d="M140 -117q-17 33 -29 78q-11 38 -20 93t-9 124q0 58 8 111t21 99.5t29.5 86t33.5 72.5q40 77 92 135l103 -42q-43 -54 -76 -125q-29 -61 -52 -147.5t-23 -197.5q0 -58 5.5 -103t13.5 -77q8 -37 19 -64z" />
    <glyph glyph-name="slash.sc" horiz-adv-x="406" 
d="M34 0l288 566h140l-290 -566h-138z" />
    <glyph glyph-name="parenright.aalt" horiz-adv-x="296" 
d="M16 -74q42 53 75 124q29 60 52.5 147t23.5 198q0 58 -6 103.5t-13 77.5q-9 37 -19 64l116 42q16 -33 29 -78q11 -38 20.5 -92.5t9.5 -123.5q0 -59 -8 -112t-21 -99.5t-30 -86t-34 -72.5q-40 -77 -92 -135z" />
    <glyph glyph-name="bracketleft.aalt" horiz-adv-x="349" 
d="M408 652l-17 -108h-95l-81 -515h93l-18 -109h-226l115 732h229z" />
    <glyph glyph-name="backslash.aalt" horiz-adv-x="406" 
d="M234 0l-110 566h140l108 -566h-138z" />
    <glyph glyph-name="bracketright.aalt" horiz-adv-x="349" 
d="M376 652l-117 -732h-226l17 109h93l81 515h-95l17 108h230z" />
    <glyph glyph-name="braceleft.aalt" horiz-adv-x="332" 
d="M390 552q-38 0 -56.5 -17.5t-24.5 -54.5l-14 -87q-8 -46 -32 -72t-57 -38q25 -11 40.5 -31t15.5 -54q0 -6 -0.5 -12.5t-1.5 -13.5l-13 -87q-1 -6 -1.5 -11.5t-0.5 -10.5q0 -26 14 -38t46 -12q-2 -11 -4.5 -27t-5.5 -32q-4 -18 -7 -38q-91 0 -135 25t-44 89q0 9 1 19.5
t3 21.5l14 90q1 5 1.5 10.5t0.5 10.5q0 23 -12.5 40t-46.5 17l13 87q21 0 35.5 6.5t24.5 17.5t15.5 25t7.5 29l14 90q7 44 23.5 73.5t44 47.5t66 26t90.5 8q-3 -19 -6 -37q-2 -16 -4 -32.5t-4 -27.5z" />
    <glyph glyph-name="bar.aalt" horiz-adv-x="333" 
d="M98 -92l117 738h109l-117 -738h-109z" />
    <glyph glyph-name="braceright.aalt" horiz-adv-x="332" 
d="M117 552q2 11 4 27.5t5 32.5q3 18 7 37q91 0 135 -25t44 -90q0 -9 -1 -19t-3 -21l-14 -90q-1 -5 -1.5 -10.5t-0.5 -10.5q0 -23 12.5 -40t46.5 -17l-13 -87q-41 0 -60 -24t-23 -54l-14 -90q-7 -44 -23.5 -73.5t-44 -47.5t-66 -26t-90.5 -8q2 20 5 38q2 16 4.5 32t4.5 27
q38 0 56.5 17.5t24.5 54.5l14 87q8 47 32 72.5t57 38.5q-25 11 -40.5 30.5t-15.5 53.5q0 6 0.5 12.5t1.5 13.5l14 87q1 6 1.5 11.5t0.5 10.5q0 26 -14 38t-46 12z" />
    <glyph glyph-name="zero.sc" horiz-adv-x="600" 
d="M298 -9q-49 0 -89.5 14t-69 41.5t-44 69.5t-15.5 99q0 89 23.5 156.5t64 112.5t94.5 68t115 23q109 0 169.5 -57.5t60.5 -169.5q0 -78 -20.5 -144t-59.5 -113t-96.5 -73.5t-132.5 -26.5zM316 108q41 1 68 25t43.5 60.5t23 79t6.5 79.5q0 51 -20.5 78.5t-66.5 27.5
q-63 0 -101 -63.5t-38 -179.5q0 -52 20 -79t65 -28z" />
    <glyph glyph-name="one.sc" horiz-adv-x="379" 
d="M142 0l69 439l-103 -26l4 104l176 49h93l-89 -566h-150z" />
    <glyph glyph-name="two.sc" horiz-adv-x="524" 
d="M54 0l9 113q15 10 44 25.5t64.5 35.5t72 44t67 51t49.5 56.5t19 59.5q0 33 -23.5 53t-76.5 20q-27 0 -52 -5t-44 -10q-22 -6 -41 -14l-10 109q26 10 57 18q26 7 61.5 13t76.5 6q106 0 156.5 -44t50.5 -116q0 -43 -16.5 -81.5t-42 -71t-56.5 -59t-59.5 -46t-51 -32.5
t-31.5 -19l68 5h135l-17 -111h-409z" />
    <glyph glyph-name="three.sc" horiz-adv-x="514" 
d="M66 124q16 -7 38 -11q18 -4 44.5 -7t58.5 -3q59 0 96.5 15.5t37.5 57.5q0 28 -25.5 43.5t-87.5 15.5q-12 0 -23 -0.5t-20 -1.5q-11 -1 -19 -1l17 106q7 -1 16 -1q8 -1 18 -1h21q28 0 52 3t41.5 11t27.5 21.5t10 35.5q0 29 -25.5 42t-79.5 13q-28 0 -51.5 -2.5t-40.5 -5.5
q-20 -4 -38 -7l-6 103q23 7 52 12q25 5 58 9t72 4q109 0 162 -35.5t53 -98.5q0 -47 -27.5 -85.5t-84.5 -59.5q34 -11 56 -40.5t22 -80.5q0 -93 -72.5 -138.5t-203.5 -45.5q-39 0 -71 3t-55 8q-27 4 -48 11z" />
    <glyph glyph-name="four.sc" horiz-adv-x="563" 
d="M64 216l295 350h190l-55 -349h70l-17 -108h-70l-17 -109h-150l17 109h-265zM344 217l28 174l14 53l-192 -227h150z" />
    <glyph glyph-name="five.sc" horiz-adv-x="512" 
d="M75 123q17 -6 38 -10q18 -4 42.5 -7t55.5 -3q75 0 109 22.5t34 63.5q0 43 -34 58t-94 15q-27 0 -50 -2t-40 -4q-20 -3 -37 -5l61 315h367l-18 -113h-229l-20 -96q7 1 17 2q8 1 18 1.5t21 0.5q40 0 75 -9t60.5 -29t40 -51t14.5 -74q0 -40 -14.5 -77t-48.5 -66t-91 -46.5
t-141 -17.5q-38 0 -68.5 3t-51.5 7q-25 4 -43 10z" />
    <glyph glyph-name="six.sc" horiz-adv-x="540" 
d="M510 442q-12 6 -28 10q-14 4 -34 7t-45 3q-64 0 -103 -31t-54 -90q8 5 40.5 15.5t81.5 10.5q42 0 74 -11.5t53 -32.5t32 -49.5t11 -62.5q0 -51 -18 -91.5t-50.5 -69t-78.5 -43.5t-102 -15q-59 0 -99 16.5t-65 45t-36 67t-11 82.5q0 78 20.5 145.5t62 118t103 79.5
t143.5 29q33 0 58.5 -4t43.5 -9q20 -5 36 -12zM227 234q-1 -4 -2.5 -16t-1.5 -28q0 -41 16.5 -65t56.5 -24q16 0 32 5t29 17t21 31t8 48q0 32 -18 45t-47 13q-16 0 -31 -3t-27.5 -7.5t-22 -8.5t-13.5 -7z" />
    <glyph glyph-name="seven.sc" horiz-adv-x="463" 
d="M119 566h397l-12 -104l-274 -462h-161l233 398l36 50h-238z" />
    <glyph glyph-name="eight.sc" horiz-adv-x="570" 
d="M477 292q6 -2 19.5 -9t26.5 -21.5t23 -37.5t10 -56q0 -47 -21 -80t-57.5 -55t-87 -32t-109.5 -10q-50 0 -90 8t-69 25t-44.5 43.5t-15.5 63.5q0 40 15.5 68.5t36 48t41 29.5t29.5 13q-6 2 -17 9.5t-22.5 21.5t-20 34.5t-8.5 49.5q0 42 19 74t53 53.5t81 32t103 10.5
q106 0 161.5 -37.5t55.5 -97.5q0 -36 -15.5 -63t-35 -45t-37.5 -28t-24 -12zM310 239q-38 -11 -66 -32t-28 -56q0 -27 21.5 -43t62.5 -16q50 0 77.5 21t27.5 54q0 16 -7.5 27t-20 19t-30 14t-37.5 12zM353 335q37 16 60 36t23 52q0 27 -21.5 38.5t-53.5 11.5
q-38 0 -66.5 -15.5t-28.5 -51.5q0 -31 25 -46t62 -25z" />
    <glyph glyph-name="nine.sc" horiz-adv-x="540" 
d="M119 124l7.5 -2.5t21 -6.5t33 -7t44.5 -3q127 0 158 121q-8 -5 -40.5 -15.5t-81.5 -10.5q-42 0 -73.5 12t-53 33t-32 50t-10.5 63q0 50 18 90t50.5 68.5t78 43.5t101.5 15q58 0 98.5 -16.5t65.5 -45t36 -67.5t11 -83q0 -77 -20.5 -145t-62 -118t-103 -79t-143.5 -29
q-33 0 -59 3.5t-43 8.5q-21 5 -36 13zM402 332q0 5 2 17t2 27q0 41 -16.5 65t-56.5 24q-16 0 -32 -5t-29 -17t-21 -31t-8 -47q0 -32 17.5 -45t46.5 -13q32 0 59 10t36 15z" />
    <glyph glyph-name="question.aalt" horiz-adv-x="509" 
d="M176 175q-1 3 -1 9.5v12.5q0 44 15 72.5t37 46.5t48 29t48 21t37 22t15 32q0 23 -22.5 32.5t-69.5 9.5q-28 0 -54.5 -3.5t-47.5 -8.5q-25 -5 -48 -11l-14 108q12 4 64.5 16t140.5 12q61 0 102 -10t66 -28t35.5 -41.5t10.5 -50.5q0 -43 -15.5 -69.5t-39.5 -43.5t-51 -29.5
t-51 -26.5t-39.5 -34t-15.5 -53v-14h-150zM317 71q0 -40 -25 -60t-70 -20q-35 0 -54 14t-19 43q0 42 25 61t69 19q35 0 54.5 -14t19.5 -43z" />
    <glyph glyph-name="a.aalt" horiz-adv-x="650" 
d="M517 566l112 -566h-154l-22 119h-214l-60 -119h-158l291 566h205zM371 386l-83 -162h149l-32 162l-7 63z" />
    <glyph glyph-name="b.aalt" horiz-adv-x="625" 
d="M68 0l90 566h270q44 0 81 -7t64 -22t42 -39.5t15 -59.5q0 -42 -23 -82t-78 -60q42 -13 59.5 -44.5t17.5 -72.5q0 -88 -66 -133.5t-200 -45.5h-272zM341 108q34 0 56.5 5.5t35.5 16t18 24.5t5 32q0 29 -20 42t-75 13h-104l-21 -133h105zM370 332q60 0 84 18t24 56
q0 30 -19 42t-69 12h-99l-20 -128h99z" />
    <glyph glyph-name="c.aalt" horiz-adv-x="568" 
d="M431 452q-93 0 -144.5 -54.5t-51.5 -147.5q0 -42 12.5 -68.5t34 -42t50.5 -21.5t63 -6q24 0 44 2.5t35 5.5q18 4 32 9l5 -116q-21 -7 -45 -11q-21 -5 -48 -8t-59 -3q-73 0 -125.5 17.5t-86 49.5t-49 77t-15.5 100q0 75 23.5 137.5t67.5 107.5t108.5 70t145.5 25
q40 0 71 -5t52 -10q25 -7 43 -15l-36 -115q-14 6 -33 11q-17 4 -40.5 7.5t-53.5 3.5z" />
    <glyph glyph-name="d.aalt" horiz-adv-x="654" 
d="M158 566h245q72 0 121.5 -18t80 -49.5t44 -74t13.5 -90.5q0 -65 -16.5 -125t-56.5 -106.5t-107 -74.5t-169 -28h-245zM335 121q45 0 77.5 15t54 41.5t31.5 63.5t10 81q0 58 -28 91t-93 33h-98l-52 -325h98z" />
    <glyph glyph-name="e.aalt" horiz-adv-x="578" 
d="M68 0l90 566h451l-20 -120h-300l-17 -108h261l-17 -106h-261l-18 -112h301l-19 -120h-451z" />
    <glyph glyph-name="f.aalt" horiz-adv-x="557" 
d="M251 204l-33 -204h-150l90 566h443l-20 -121h-292l-21 -132h254l-18 -109h-253z" />
    <glyph glyph-name="g.aalt" horiz-adv-x="610" 
d="M446 453q-100 0 -155.5 -53t-55.5 -150q0 -77 42 -108t114 -31h22t22 2l27 169h130l-41 -261q-25 -9 -56 -15q-26 -6 -61 -10.5t-74 -4.5q-141 0 -209 64.5t-68 180.5q0 77 25.5 139.5t72 107t112 68.5t145.5 24q38 0 71 -5t58 -10q29 -6 53 -14l-38 -116q-18 6 -39 11
q-18 5 -43 8.5t-54 3.5z" />
    <glyph glyph-name="h.aalt" horiz-adv-x="675" 
d="M456 0l35 220h-238l-35 -220h-150l90 566h150l-35 -225h237l36 225h150l-90 -566h-150z" />
    <glyph glyph-name="i.aalt" horiz-adv-x="287" 
d="M68 0l90 566h150l-90 -566h-150z" />
    <glyph glyph-name="j.aalt" horiz-adv-x="420" 
d="M296 566h150l-59 -372q-7 -43 -22 -80t-42 -64.5t-67 -43t-97 -15.5q-31 0 -53 3.5t-36 8.5q-17 5 -28 13l29 108q7 -4 17 -8q19 -7 50 -7q41 0 66.5 19t32.5 64z" />
    <glyph glyph-name="k.aalt" horiz-adv-x="623" 
d="M423 0l-131 219h-39l-35 -219h-150l90 566h150l-38 -245q19 3 28 6q5 2 8 3q6 6 18.5 19.5t28.5 31.5t34 38.5t36 41.5q42 48 91 105h168q-5 -7 -21.5 -26.5t-39.5 -46t-50.5 -57t-54 -60t-50.5 -55t-39 -41.5l168 -280h-172z" />
    <glyph glyph-name="l.aalt" horiz-adv-x="514" 
d="M68 0l90 566h150l-70 -444h248l-20 -122h-398z" />
    <glyph glyph-name="m.aalt" horiz-adv-x="815" 
d="M369 566l73 -322l184 322h180l-43 -566h-150l28 326l8 63l-165 -288h-122l-70 290l-11 -66l-76 -325h-153l138 566h179z" />
    <glyph glyph-name="n.aalt" horiz-adv-x="678" 
d="M446 0l-183 366l-5 -80l-45 -286h-145l90 566h161l186 -371l7 99l43 272h145l-90 -566h-164z" />
    <glyph glyph-name="o.aalt" horiz-adv-x="670" 
d="M337 -9q-53 0 -99 13t-80.5 42t-54.5 74t-20 110q0 78 24 141.5t67.5 109t104 70t133.5 24.5q129 0 196.5 -63.5t67.5 -175.5q0 -79 -23.5 -143t-67.5 -109t-106.5 -69t-141.5 -24zM234 239q0 -56 27 -92t93 -36q37 0 68 14.5t54 42.5t36 68.5t13 92.5q0 60 -28.5 92.5
t-91.5 32.5q-76 0 -123.5 -56t-47.5 -159z" />
    <glyph glyph-name="p.aalt" horiz-adv-x="616" 
d="M68 0l90 566h267q59 0 99 -14t64 -37.5t34 -54.5t10 -65q0 -41 -11.5 -82.5t-41.5 -76t-82.5 -56t-135.5 -21.5h-118l-25 -159h-150zM360 275q65 0 92 29t27 76q0 31 -19.5 50.5t-72.5 19.5h-98l-27 -175h98z" />
    <glyph glyph-name="q.aalt" horiz-adv-x="670" 
d="M493 -161q-11 -3 -35 -7t-49 -4q-41 0 -66.5 11.5t-39.5 29.5t-19.5 39.5t-5.5 41.5q0 15 2 26.5t4 18.5q-43 6 -80 22t-64 44.5t-42 70.5t-15 98q0 78 24 141.5t67.5 109t104 70t133.5 24.5q129 0 196.5 -63.5t67.5 -175.5q0 -73 -20 -133.5t-58 -104.5t-92 -71
t-123 -34v-7q0 -30 16.5 -41.5t47.5 -11.5q12 0 21.5 1t17.5 3t15 5zM354 111q37 0 68 14.5t54 42.5t36 68.5t13 92.5q0 60 -28.5 92.5t-91.5 32.5q-76 0 -123.5 -56t-47.5 -159q0 -56 27 -92t93 -36z" />
    <glyph glyph-name="r.aalt" horiz-adv-x="633" 
d="M68 0l90 566h274q60 0 100 -13t64 -35.5t34.5 -52.5t10.5 -63q0 -32 -6 -62.5t-21.5 -57.5t-42.5 -48t-69 -34l84 -200h-157l-74 183h-108l-29 -183h-150zM369 289q67 0 93 26t26 72q0 29 -20 46t-74 17h-105l-25 -161h105z" />
    <glyph glyph-name="s.aalt" horiz-adv-x="549" 
d="M102 154q22 -13 49 -23q23 -8 55 -15t70 -7q98 0 98 50q0 13 -7.5 22.5t-20.5 17t-30.5 14t-37.5 13.5q-36 12 -67.5 25t-54.5 32.5t-36.5 46.5t-13.5 68q0 48 19 82t52.5 55t79 30.5t97.5 9.5q51 0 89.5 -7.5t64.5 -15.5q31 -10 53 -22l-41 -110q-18 10 -42 19
q-20 8 -48.5 14t-63.5 6q-48 0 -76.5 -10.5t-28.5 -36.5q0 -15 9.5 -24.5t25 -17t36 -14t42.5 -13.5q37 -12 66.5 -26t50 -33.5t31.5 -46t11 -64.5q0 -51 -20 -86t-54.5 -56t-81.5 -30t-102 -9q-54 0 -93 7t-64 15q-30 10 -49 23z" />
    <glyph glyph-name="t.aalt" horiz-adv-x="554" 
d="M202 0l70 444h-180l20 122h510l-19 -122h-180l-71 -444h-150z" />
    <glyph glyph-name="u.aalt" horiz-adv-x="662" 
d="M537 566h151l-53 -330q-19 -119 -91.5 -182t-212.5 -63q-120 0 -177.5 48t-57.5 140q0 14 1.5 28t3.5 29l52 330h151l-51 -320q-2 -12 -3 -23t-1 -21q0 -42 21.5 -66.5t77.5 -24.5q34 0 58 9.5t40.5 27.5t26 43t14.5 55z" />
    <glyph glyph-name="v.aalt" horiz-adv-x="624" 
d="M259 566l60 -379l9 -73l32 73l181 379h157l-283 -566h-207l-101 566h152z" />
    <glyph glyph-name="w.aalt" horiz-adv-x="884" 
d="M264 566l22 -350l3 -79l27 79l147 350h137l35 -349l6 -80l25 78l135 351h157l-237 -566h-172l-39 317l-5 78l-30 -78l-139 -317h-173l-56 566h157z" />
    <glyph glyph-name="x.aalt" horiz-adv-x="653" 
d="M459 0l-99 181l-161 -181h-170l247 284l-156 282h159l106 -190l160 190h168l-248 -291l159 -275h-165z" />
    <glyph glyph-name="y.aalt" horiz-adv-x="609" 
d="M264 566l74 -202l15 -50l31 51l135 201h164l-267 -369l-32 -197h-158l31 195l-150 371h157z" />
    <glyph glyph-name="z.aalt" horiz-adv-x="588" 
d="M152 566h470l-18 -105l-335 -345l46 4h240l-19 -120h-484l16 105l334 343l-41 -2h-229z" />
    <glyph glyph-name="agrave.aalt" horiz-adv-x="650" 
d="M360 636l-100 168h161l64 -168h-125zM517 566l112 -566h-154l-22 119h-214l-60 -119h-158l291 566h205zM371 386l-83 -162h149l-32 162l-7 63z" />
    <glyph glyph-name="aacute.aalt" horiz-adv-x="670" 
d="M367 636l117 168h160l-152 -168h-125zM517 566l112 -566h-154l-22 119h-214l-60 -119h-158l291 566h205zM371 386l-83 -162h149l-32 162l-7 63z" />
    <glyph glyph-name="acircumflex.aalt" horiz-adv-x="650" 
d="M507 804l98 -168h-120l-52 88l-79 -88h-119l150 168h122zM517 566l112 -566h-154l-22 119h-214l-60 -119h-158l291 566h205zM371 386l-83 -162h149l-32 162l-7 63z" />
    <glyph glyph-name="atilde.aalt" horiz-adv-x="650" 
d="M517 566l112 -566h-154l-22 119h-214l-60 -119h-158l291 566h205zM233 636v15q0 27 8.5 53.5t25 47t41 33t56.5 12.5q24 0 42 -9t32.5 -19.5t26 -19t23.5 -8.5q15 0 24 9.5t9 29.5q0 3 -0.5 5.5t-0.5 4.5q-1 3 -1 5h106v-12q0 -29 -8.5 -56t-25 -47.5t-41 -33
t-57.5 -12.5q-24 0 -41.5 9t-31.5 19.5l-26 19.5t-25 9q-14 0 -22.5 -11t-8.5 -31v-13h-105zM371 386l-83 -162h149l-32 162l-7 63z" />
    <glyph glyph-name="adieresis.aalt" horiz-adv-x="643" 
d="M402 725q0 -35 -20.5 -62t-69.5 -27q-35 0 -50 17t-15 44q0 36 20.5 62t68.5 26q35 0 50.5 -17t15.5 -43zM622 725q0 -36 -20.5 -62.5t-68.5 -26.5q-36 0 -51 16.5t-15 43.5q0 36 20 62.5t69 26.5q35 0 50.5 -17t15.5 -43zM517 566l112 -566h-154l-22 119h-214l-60 -119
h-158l291 566h205zM371 386l-83 -162h149l-32 162l-7 63z" />
    <glyph glyph-name="amacron.aalt" horiz-adv-x="650" 
d="M260 638l15 97h327l-16 -97h-326zM517 566l112 -566h-154l-22 119h-214l-60 -119h-158l291 566h205zM371 386l-83 -162h149l-32 162l-7 63z" />
    <glyph glyph-name="abreve.aalt" horiz-adv-x="650" 
d="M619 805q-4 -26 -17 -55.5t-37 -54t-59 -41t-82 -16.5q-40 0 -66 11t-42 28t-24 37t-10.5 38.5t-2 33t1.5 19.5h102v-13t5.5 -23.5t17 -22.5t34.5 -10q18 0 32 7.5t24 18.5t15.5 22.5t6.5 20.5h101zM517 566l112 -566h-154l-22 119h-214l-60 -119h-158l291 566h205z
M371 386l-83 -162h149l-32 162l-7 63z" />
    <glyph glyph-name="aring.aalt" horiz-adv-x="650" 
d="M420 636q-56 0 -82 27t-26 71q0 66 42 105t110 39q54 0 81 -27t27 -72q0 -62 -36.5 -102.5t-115.5 -40.5zM435 712q26 0 38 15.5t12 39.5q0 35 -34 35q-25 0 -38.5 -14.5t-13.5 -39.5q0 -17 9 -26.5t27 -9.5zM517 566l112 -566h-154l-22 119h-214l-60 -119h-158l291 566
h205zM371 386l-83 -162h149l-32 162l-7 63z" />
    <glyph glyph-name="aogonek.aalt" horiz-adv-x="650" 
d="M517 566l112 -566q-16 -3 -35 -11.5t-35.5 -20.5t-28 -26.5t-11.5 -29.5q0 -11 9.5 -19.5t32.5 -8.5q15 0 32 4t28 6l-11 -89q-21 -8 -50 -14.5t-61 -6.5q-54 0 -86 21t-32 57q0 24 12 45t30 39t39 31.5t39 22.5h-26l-22 119h-214l-60 -119h-158l291 566h205zM371 386
l-83 -162h149l-32 162l-7 63z" />
    <glyph glyph-name="ae.aalt" horiz-adv-x="922" 
d="M954 566l-20 -120h-297l-17 -108h258l-17 -106h-258l-17 -112h296l-18 -120h-454l18 111h-171l-75 -111h-161l382 566h551zM322 217h122l37 238z" />
    <glyph glyph-name="cacute.aalt" horiz-adv-x="568" 
d="M343 638l117 167h160l-152 -167h-125zM431 452q-93 0 -144.5 -54.5t-51.5 -147.5q0 -42 12.5 -68.5t34 -42t50.5 -21.5t63 -6q24 0 44 2.5t35 5.5q18 4 32 9l5 -116q-21 -7 -45 -11q-21 -5 -48 -8t-59 -3q-73 0 -125.5 17.5t-86 49.5t-49 77t-15.5 100q0 75 23.5 137.5
t67.5 107.5t108.5 70t145.5 25q40 0 71 -5t52 -10q25 -7 43 -15l-36 -115q-14 6 -33 11q-17 4 -40.5 7.5t-53.5 3.5z" />
    <glyph glyph-name="ccircumflex.aalt" horiz-adv-x="568" 
d="M510 804l98 -168h-119l-53 88l-79 -88h-119l151 168h121zM431 452q-93 0 -144.5 -54.5t-51.5 -147.5q0 -42 12.5 -68.5t34 -42t50.5 -21.5t63 -6q24 0 44 2.5t35 5.5q18 4 32 9l5 -116q-21 -7 -45 -11q-21 -5 -48 -8t-59 -3q-73 0 -125.5 17.5t-86 49.5t-49 77t-15.5 100
q0 75 23.5 137.5t67.5 107.5t108.5 70t145.5 25q40 0 71 -5t52 -10q25 -7 43 -15l-36 -115q-14 6 -33 11q-17 4 -40.5 7.5t-53.5 3.5z" />
    <glyph glyph-name="ccaron.aalt" horiz-adv-x="568" 
d="M358 636l-98 168h119l53 -88l79 88h119l-150 -168h-122zM431 452q-93 0 -144.5 -54.5t-51.5 -147.5q0 -42 12.5 -68.5t34 -42t50.5 -21.5t63 -6q24 0 44 2.5t35 5.5q18 4 32 9l5 -116q-21 -7 -45 -11q-21 -5 -48 -8t-59 -3q-73 0 -125.5 17.5t-86 49.5t-49 77t-15.5 100
q0 75 23.5 137.5t67.5 107.5t108.5 70t145.5 25q40 0 71 -5t52 -10q25 -7 43 -15l-36 -115q-14 6 -33 11q-17 4 -40.5 7.5t-53.5 3.5z" />
    <glyph glyph-name="cdotaccent.aalt" horiz-adv-x="568" 
d="M526 730q0 -38 -22.5 -65t-74.5 -27q-39 0 -56 17.5t-17 46.5q0 38 22.5 64.5t75.5 26.5q38 0 55 -17.5t17 -45.5zM431 452q-93 0 -144.5 -54.5t-51.5 -147.5q0 -42 12.5 -68.5t34 -42t50.5 -21.5t63 -6q24 0 44 2.5t35 5.5q18 4 32 9l5 -116q-21 -7 -45 -11
q-21 -5 -48 -8t-59 -3q-73 0 -125.5 17.5t-86 49.5t-49 77t-15.5 100q0 75 23.5 137.5t67.5 107.5t108.5 70t145.5 25q40 0 71 -5t52 -10q25 -7 43 -15l-36 -115q-14 6 -33 11q-17 4 -40.5 7.5t-53.5 3.5z" />
    <glyph glyph-name="ccedilla.aalt" horiz-adv-x="568" 
d="M431 452q-93 0 -144.5 -54.5t-51.5 -147.5q0 -42 12.5 -68.5t34 -42t50.5 -21.5t63 -6q24 0 44 2.5t35 5.5q18 4 32 9l5 -116q-18 -6 -40 -10q-19 -4 -44.5 -7.5t-54.5 -4.5l-16 -38h6q2 0 4 0.5t3 0.5q41 0 68 -17t27 -58q0 -23 -7.5 -42.5t-25.5 -34.5t-47 -23.5
t-72 -8.5q-19 0 -32.5 1t-21.5 3q-11 2 -17 5l8 67q6 -2 15 -4q15 -3 42 -3q25 0 45.5 7t20.5 27q0 14 -15 19t-38 5q-21 0 -40.5 -2t-23.5 -4l43 104q-57 7 -97.5 27t-66.5 51t-38.5 72t-12.5 90q0 75 23.5 137.5t67.5 107.5t108.5 70t145.5 25q40 0 71 -5t52 -10
q25 -7 43 -15l-36 -115q-14 6 -33 11q-17 4 -40.5 7.5t-53.5 3.5z" />
    <glyph glyph-name="dcaron.aalt" horiz-adv-x="654" 
d="M338 636l-98 168h119l53 -88l78 88h120l-150 -168h-122zM158 566h245q72 0 121.5 -18t80 -49.5t44 -74t13.5 -90.5q0 -65 -16.5 -125t-56.5 -106.5t-107 -74.5t-169 -28h-245zM335 121q45 0 77.5 15t54 41.5t31.5 63.5t10 81q0 58 -28 91t-93 33h-98l-52 -325h98z" />
    <glyph glyph-name="dcroat.aalt" horiz-adv-x="654" 
d="M74 341h48l36 225h245q72 0 121.5 -18t80 -49.5t44 -74t13.5 -90.5q0 -65 -16.5 -125t-56.5 -106.5t-107 -74.5t-169 -28h-245l36 231h-47zM335 121q45 0 77.5 15t54 41.5t31.5 63.5t10 81q0 58 -28 91t-93 33h-98l-17 -105h126l-18 -110h-126l-17 -110h98z" />
    <glyph glyph-name="eth.aalt" horiz-adv-x="654" 
d="M74 341h48l36 225h245q72 0 121.5 -18t80 -49.5t44 -74t13.5 -90.5q0 -65 -16.5 -125t-56.5 -106.5t-107 -74.5t-169 -28h-245l36 231h-47zM335 121q45 0 77.5 15t54 41.5t31.5 63.5t10 81q0 58 -28 91t-93 33h-98l-17 -105h126l-18 -110h-126l-17 -110h98z" />
    <glyph glyph-name="egrave.aalt" horiz-adv-x="578" 
d="M346 636l-100 168h161l64 -168h-125zM68 0l90 566h451l-20 -120h-300l-17 -108h261l-17 -106h-261l-18 -112h301l-19 -120h-451z" />
    <glyph glyph-name="eacute.aalt" horiz-adv-x="578" 
d="M317 636l117 168h161l-152 -168h-126zM68 0l90 566h451l-20 -120h-300l-17 -108h261l-17 -106h-261l-18 -112h301l-19 -120h-451z" />
    <glyph glyph-name="ecircumflex.aalt" horiz-adv-x="578" 
d="M484 804l98 -167h-120l-52 87l-79 -87h-120l151 167h122zM68 0l90 566h451l-20 -120h-300l-17 -108h261l-17 -106h-261l-18 -112h301l-19 -120h-451z" />
    <glyph glyph-name="ecaron.aalt" horiz-adv-x="578" 
d="M333 636l-98 168h120l52 -88l79 88h120l-151 -168h-122zM68 0l90 566h451l-20 -120h-300l-17 -108h261l-17 -106h-261l-18 -112h301l-19 -120h-451z" />
    <glyph glyph-name="edieresis.aalt" horiz-adv-x="578" 
d="M372 726q0 -36 -20.5 -62.5t-69.5 -26.5q-35 0 -50 16.5t-15 43.5q0 36 20.5 62t68.5 26q35 0 50.5 -16.5t15.5 -42.5zM592 725q0 -36 -20.5 -62t-68.5 -26q-35 0 -50.5 16.5t-15.5 42.5q0 36 20 62.5t69 26.5q35 0 50.5 -17t15.5 -43zM68 0l90 566h451l-20 -120h-300
l-17 -108h261l-17 -106h-261l-18 -112h301l-19 -120h-451z" />
    <glyph glyph-name="emacron.aalt" horiz-adv-x="578" 
d="M229 638l15 97h327l-15 -97h-327zM68 0l90 566h451l-20 -120h-300l-17 -108h261l-17 -106h-261l-18 -112h301l-19 -120h-451z" />
    <glyph glyph-name="ebreve.aalt" horiz-adv-x="578" 
d="M588 805q-4 -26 -17.5 -55.5t-37.5 -54t-58.5 -41t-81.5 -16.5q-40 0 -66 11t-42.5 27.5t-24 37t-10 39t-2 33t1.5 19.5h102v-13t5 -23.5t17 -22.5t35 -10q18 0 32 7.5t24 18t15.5 22.5t6.5 21h101zM68 0l90 566h451l-20 -120h-300l-17 -108h261l-17 -106h-261l-18 -112
h301l-19 -120h-451z" />
    <glyph glyph-name="edotaccent.aalt" horiz-adv-x="578" 
d="M498 730q0 -38 -23 -65t-75 -27q-38 0 -55.5 17.5t-17.5 46.5q0 38 23 64.5t75 26.5q38 0 55.5 -17.5t17.5 -45.5zM68 0l90 566h451l-20 -120h-300l-17 -108h261l-17 -106h-261l-18 -112h301l-19 -120h-451z" />
    <glyph glyph-name="eogonek.aalt" horiz-adv-x="578" 
d="M519 0q-16 -3 -35.5 -11.5t-36 -20.5t-28 -26.5t-11.5 -29.5q0 -11 10 -19.5t33 -8.5q15 0 32 4t28 6l-11 -89q-21 -8 -50 -14.5t-61 -6.5q-54 0 -86 21t-32 57q0 24 12 45t30 39t38.5 31.5t38.5 22.5h-322l90 566h451l-20 -120h-300l-17 -108h261l-17 -106h-261
l-18 -112h301l-19 -120v0z" />
    <glyph glyph-name="gcircumflex.aalt" horiz-adv-x="610" 
d="M517 804l98 -168h-119l-53 88l-79 -88h-120l151 168h122zM446 453q-100 0 -155.5 -53t-55.5 -150q0 -77 42 -108t114 -31h22t22 2l27 169h130l-41 -261q-25 -9 -56 -15q-26 -6 -61 -10.5t-74 -4.5q-141 0 -209 64.5t-68 180.5q0 77 25.5 139.5t72 107t112 68.5t145.5 24
q38 0 71 -5t58 -10q29 -6 53 -14l-38 -116q-18 6 -39 11q-18 5 -43 8.5t-54 3.5z" />
    <glyph glyph-name="gbreve.aalt" horiz-adv-x="610" 
d="M629 805q-4 -26 -17 -55.5t-37 -54t-59 -41t-82 -16.5q-40 0 -66 11t-42.5 27.5t-24 37t-10 39t-2 33t1.5 19.5h101q0 -2 0.5 -13t5.5 -23.5t17 -22.5t35 -10q18 0 32 7.5t23.5 18t15 22.5t7.5 21h101zM446 453q-100 0 -155.5 -53t-55.5 -150q0 -77 42 -108t114 -31h22
t22 2l27 169h130l-41 -261q-25 -9 -56 -15q-26 -6 -61 -10.5t-74 -4.5q-141 0 -209 64.5t-68 180.5q0 77 25.5 139.5t72 107t112 68.5t145.5 24q38 0 71 -5t58 -10q29 -6 53 -14l-38 -116q-18 6 -39 11q-18 5 -43 8.5t-54 3.5z" />
    <glyph glyph-name="gdotaccent.aalt" horiz-adv-x="610" 
d="M541 730q0 -38 -22.5 -65t-74.5 -27q-39 0 -56 17.5t-17 46.5q0 38 22.5 64.5t75.5 26.5q38 0 55 -17.5t17 -45.5zM446 453q-100 0 -155.5 -53t-55.5 -150q0 -77 42 -108t114 -31h22t22 2l27 169h130l-41 -261q-25 -9 -56 -15q-26 -6 -61 -10.5t-74 -4.5
q-141 0 -209 64.5t-68 180.5q0 77 25.5 139.5t72 107t112 68.5t145.5 24q38 0 71 -5t58 -10q29 -6 53 -14l-38 -116q-18 6 -39 11q-18 5 -43 8.5t-54 3.5z" />
    <glyph glyph-name="gcommaaccent.aalt" horiz-adv-x="610" 
d="M235 -304q7 4 19 15.5t24 25.5t22 29t14 27q-28 2 -38.5 17.5t-10.5 37.5q0 36 21 61.5t71 25.5q28 0 46.5 -17t18.5 -55q0 -40 -17 -75t-39.5 -62t-44 -44.5t-31.5 -23.5zM446 453q-100 0 -155.5 -53t-55.5 -150q0 -77 42 -108t114 -31h22t22 2l27 169h130l-41 -261
q-25 -9 -56 -15q-26 -6 -61 -10.5t-74 -4.5q-141 0 -209 64.5t-68 180.5q0 77 25.5 139.5t72 107t112 68.5t145.5 24q38 0 71 -5t58 -10q29 -6 53 -14l-38 -116q-18 6 -39 11q-18 5 -43 8.5t-54 3.5z" />
    <glyph glyph-name="hcircumflex.aalt" horiz-adv-x="675" 
d="M519 804l98 -168h-119l-53 88l-79 -88h-119l151 168h121zM456 0l35 220h-238l-35 -220h-150l90 566h150l-35 -225h237l36 225h150l-90 -566h-150z" />
    <glyph glyph-name="hbar.aalt" horiz-adv-x="675" 
d="M456 0l35 220h-238l-35 -220h-150l68 428h-43l11 67h42l12 71h150l-11 -71h237l12 71h150l-12 -71h42l-10 -67h-42l-68 -428h-150zM510 341l14 87h-238l-13 -87h237z" />
    <glyph glyph-name="igrave.aalt" horiz-adv-x="287" 
d="M184 636l-100 168h161l64 -168h-125zM68 0l90 566h150l-90 -566h-150z" />
    <glyph glyph-name="iacute.aalt" horiz-adv-x="287" 
d="M176 636l117 168h160l-152 -168h-125zM68 0l90 566h150l-90 -566h-150z" />
    <glyph glyph-name="ibreve.aalt" horiz-adv-x="287" 
d="M438 805q-4 -26 -17 -55.5t-37 -54t-59 -41t-82 -16.5q-40 0 -66 11t-42 27.5t-24 37t-10.5 39t-2 33t1.5 19.5h102v-13t5.5 -23.5t17 -22.5t34.5 -10q18 0 32 7.5t24 18t15.5 22.5t6.5 21h101zM68 0l90 566h150l-90 -566h-150z" />
    <glyph glyph-name="icircumflex.aalt" horiz-adv-x="287" 
d="M328 804l98 -168h-119l-53 88l-79 -88h-119l150 168h122zM68 0l90 566h150l-90 -566h-150z" />
    <glyph glyph-name="itilde.aalt" horiz-adv-x="287" 
d="M68 0l90 566h150l-90 -566h-150zM53 636v15q0 27 8.5 53.5t25 47t41.5 33t57 12.5q24 0 41.5 -9t32 -19.5t26 -19t23.5 -8.5q15 0 24 9.5t9 29.5q0 3 -0.5 5.5t-0.5 4.5v5h105v-12q0 -29 -8.5 -56t-25 -47.5t-41 -33t-56.5 -12.5q-25 0 -42.5 9t-31.5 19.5l-26 19.5
t-25 9q-14 0 -22.5 -11t-8.5 -31v-13h-105z" />
    <glyph glyph-name="idieresis.aalt" horiz-adv-x="287" 
d="M219 725q0 -18 -5 -34t-15.5 -28t-28 -19.5t-42.5 -7.5q-35 0 -50 17t-15 44q0 36 20.5 62t68.5 26q36 0 51.5 -17t15.5 -43zM439 725q0 -36 -21 -62.5t-69 -26.5q-35 0 -50 16.5t-15 43.5q0 18 4.5 34t15 28.5t27.5 19.5t42 7q35 0 50.5 -17t15.5 -43zM68 0l90 566h150
l-90 -566h-150z" />
    <glyph glyph-name="imacron.aalt" horiz-adv-x="287" 
d="M74 638l15 97h327l-15 -97h-327zM68 0l90 566h150l-90 -566h-150z" />
    <glyph glyph-name="glyph522" horiz-adv-x="287" 
d="M338 730q0 -38 -23 -65t-75 -27q-38 0 -55 17.5t-17 46.5q0 38 22.5 64.5t74.5 26.5q39 0 56 -17.5t17 -45.5zM68 0l90 566h150l-90 -566h-150z" />
    <glyph glyph-name="iogonek.aalt" horiz-adv-x="287" 
d="M218 0q-16 -3 -35 -11.5t-35.5 -20.5t-28 -26.5t-11.5 -29.5q0 -11 10 -19.5t33 -8.5q15 0 31.5 4t28.5 6l-11 -89q-22 -8 -50.5 -14.5t-60.5 -6.5q-54 0 -86.5 21t-32.5 57q0 24 12 45t30 39t39 31.5t39 22.5h-22l90 566h150l-90 -566v0z" />
    <glyph glyph-name="jcircumflex.aalt" horiz-adv-x="420" 
d="M459 804l98 -168h-119l-53 88l-79 -88h-119l150 168h122zM296 566h150l-59 -372q-7 -43 -22 -80t-42 -64.5t-67 -43t-97 -15.5q-31 0 -53 3.5t-36 8.5q-17 5 -28 13l29 108q7 -4 17 -8q19 -7 50 -7q41 0 66.5 19t32.5 64z" />
    <glyph glyph-name="kcommaaccent.aalt" horiz-adv-x="623" 
d="M194 -304q7 4 19 15.5t24 25.5t22 29t14 27q-27 2 -38 17.5t-11 37.5q0 36 21 61.5t71 25.5q28 0 46.5 -17t18.5 -55q0 -40 -17 -75t-39.5 -62t-44 -44.5t-31.5 -23.5zM423 0l-131 219h-39l-35 -219h-150l90 566h150l-38 -245q19 3 28 6q5 2 8 3q6 6 18.5 19.5t28.5 31.5
t34 38.5t36 41.5q42 48 91 105h168q-5 -7 -21.5 -26.5t-39.5 -46t-50.5 -57t-54 -60t-50.5 -55t-39 -41.5l168 -280h-172z" />
    <glyph glyph-name="lacute.aalt" horiz-adv-x="514" 
d="M177 636l117 168h160l-152 -168h-125zM68 0l90 566h150l-70 -444h248l-20 -122h-398z" />
    <glyph glyph-name="lcaron.aalt" horiz-adv-x="514" 
d="M176 636l-98 168h119l53 -88l79 88h119l-150 -168h-122zM68 0l90 566h150l-70 -444h248l-20 -122h-398z" />
    <glyph glyph-name="lcommaaccent.aalt" horiz-adv-x="514" 
d="M151 -304q7 4 19 15.5t24 25.5t22 29t14 27q-28 2 -38.5 17.5t-10.5 37.5q0 36 21 61.5t71 25.5q28 0 46.5 -17t18.5 -55q0 -40 -17 -75t-39.5 -62t-44 -44.5t-31.5 -23.5zM68 0l90 566h150l-70 -444h248l-20 -122h-398z" />
    <glyph glyph-name="lslash.aalt" horiz-adv-x="514" 
d="M68 0l36 228l-74 -20l-14 120l109 29l33 209h150l-26 -167l113 31l12 -120l-146 -40l-23 -148h248l-20 -122h-398z" />
    <glyph glyph-name="ldot.aalt" horiz-adv-x="563" 
d="M569 365q0 -39 -23.5 -68.5t-78.5 -29.5q-41 0 -58.5 18.5t-17.5 48.5q0 41 24 70t78 29q42 0 59 -19.5t17 -48.5zM68 0l90 566h150l-70 -444h248l-20 -122h-398z" />
    <glyph glyph-name="nacute.aalt" horiz-adv-x="678" 
d="M365 636l117 168h160l-152 -168h-125zM446 0l-183 366l-5 -80l-45 -286h-145l90 566h161l186 -371l7 99l43 272h145l-90 -566h-164z" />
    <glyph glyph-name="ncaron.aalt" horiz-adv-x="678" 
d="M374 636l-99 168h120l52 -88l79 88h119l-150 -168h-121zM446 0l-183 366l-5 -80l-45 -286h-145l90 566h161l186 -371l7 99l43 272h145l-90 -566h-164z" />
    <glyph glyph-name="ntilde.aalt" horiz-adv-x="678" 
d="M446 0l-183 366l-5 -80l-45 -286h-145l90 566h161l186 -371l7 99l43 272h145l-90 -566h-164zM252 636v15q0 27 8.5 53.5t25 47t41 33t56.5 12.5q24 0 42 -9t32.5 -19.5t26 -19t23.5 -8.5q15 0 24 9.5t9 29.5q0 3 -0.5 5.5t-0.5 4.5q-1 3 -1 5h105v-4q0 -2 0.5 -4t0.5 -4
q0 -29 -8.5 -56t-25 -47.5t-41.5 -33t-57 -12.5q-25 0 -42.5 9t-31 19.5t-25.5 19.5t-25 9q-14 0 -22.5 -11t-8.5 -31v-13h-105z" />
    <glyph glyph-name="ncommaaccent.aalt" horiz-adv-x="678" 
d="M209 -304q7 4 19 15.5t24 25.5t22 29t13 27q-27 2 -37.5 17.5t-10.5 37.5q0 36 21 61.5t71 25.5q28 0 46.5 -17t18.5 -55q0 -40 -17 -75t-39.5 -62t-44 -44.5t-31.5 -23.5zM446 0l-183 366l-5 -80l-45 -286h-145l90 566h161l186 -371l7 99l43 272h145l-90 -566h-164z" />
    <glyph glyph-name="ograve.aalt" horiz-adv-x="670" 
d="M373 636l-99 168h160l65 -168h-126zM337 -9q-53 0 -99 13t-80.5 42t-54.5 74t-20 110q0 78 24 141.5t67.5 109t104 70t133.5 24.5q129 0 196.5 -63.5t67.5 -175.5q0 -79 -23.5 -143t-67.5 -109t-106.5 -69t-141.5 -24zM234 239q0 -56 27 -92t93 -36q37 0 68 14.5t54 42.5
t36 68.5t13 92.5q0 60 -28.5 92.5t-91.5 32.5q-76 0 -123.5 -56t-47.5 -159z" />
    <glyph glyph-name="oacute.aalt" horiz-adv-x="670" 
d="M351 636l117 168h160l-152 -168h-125zM337 -9q-53 0 -99 13t-80.5 42t-54.5 74t-20 110q0 78 24 141.5t67.5 109t104 70t133.5 24.5q129 0 196.5 -63.5t67.5 -175.5q0 -79 -23.5 -143t-67.5 -109t-106.5 -69t-141.5 -24zM234 239q0 -56 27 -92t93 -36q37 0 68 14.5
t54 42.5t36 68.5t13 92.5q0 60 -28.5 92.5t-91.5 32.5q-76 0 -123.5 -56t-47.5 -159z" />
    <glyph glyph-name="ocircumflex.aalt" horiz-adv-x="670" 
d="M513 804l99 -168h-120l-52 88l-79 -88h-120l151 168h121zM337 -9q-53 0 -99 13t-80.5 42t-54.5 74t-20 110q0 78 24 141.5t67.5 109t104 70t133.5 24.5q129 0 196.5 -63.5t67.5 -175.5q0 -79 -23.5 -143t-67.5 -109t-106.5 -69t-141.5 -24zM234 239q0 -56 27 -92t93 -36
q37 0 68 14.5t54 42.5t36 68.5t13 92.5q0 60 -28.5 92.5t-91.5 32.5q-76 0 -123.5 -56t-47.5 -159z" />
    <glyph glyph-name="otilde.aalt" horiz-adv-x="670" 
d="M337 -9q-53 0 -99 13t-80.5 42t-54.5 74t-20 110q0 78 24 141.5t67.5 109t104 70t133.5 24.5q129 0 196.5 -63.5t67.5 -175.5q0 -79 -23.5 -143t-67.5 -109t-106.5 -69t-141.5 -24zM234 239q0 -56 27 -92t93 -36q37 0 68 14.5t54 42.5t36 68.5t13 92.5q0 60 -28.5 92.5
t-91.5 32.5q-76 0 -123.5 -56t-47.5 -159zM240 636v15q0 27 8.5 53.5t25 47t41.5 33t57 12.5q24 0 41.5 -9t32 -19.5t26 -19t23.5 -8.5q15 0 24 9.5t9 29.5q0 3 -0.5 5.5t-0.5 4.5q-1 3 -1 5h106v-12q0 -29 -8.5 -56t-25 -47.5t-41 -33t-56.5 -12.5q-25 0 -42.5 9
t-31.5 19.5l-26 19.5t-25 9q-14 0 -22.5 -11t-8.5 -31v-13h-105z" />
    <glyph glyph-name="odieresis.aalt" horiz-adv-x="670" 
d="M405 726q0 -36 -20.5 -62.5t-69.5 -26.5q-35 0 -50 16.5t-15 43.5q0 36 20.5 62t68.5 26q35 0 50.5 -16.5t15.5 -42.5zM626 725q0 -36 -21 -62t-69 -26q-35 0 -50.5 16.5t-15.5 42.5q0 36 20 62.5t69 26.5q35 0 51 -17t16 -43zM337 -9q-53 0 -99 13t-80.5 42t-54.5 74
t-20 110q0 78 24 141.5t67.5 109t104 70t133.5 24.5q129 0 196.5 -63.5t67.5 -175.5q0 -79 -23.5 -143t-67.5 -109t-106.5 -69t-141.5 -24zM234 239q0 -56 27 -92t93 -36q37 0 68 14.5t54 42.5t36 68.5t13 92.5q0 60 -28.5 92.5t-91.5 32.5q-76 0 -123.5 -56t-47.5 -159z
" />
    <glyph glyph-name="omacron.aalt" horiz-adv-x="670" 
d="M267 638l15 97h327l-15 -97h-327zM337 -9q-53 0 -99 13t-80.5 42t-54.5 74t-20 110q0 78 24 141.5t67.5 109t104 70t133.5 24.5q129 0 196.5 -63.5t67.5 -175.5q0 -79 -23.5 -143t-67.5 -109t-106.5 -69t-141.5 -24zM234 239q0 -56 27 -92t93 -36q37 0 68 14.5t54 42.5
t36 68.5t13 92.5q0 60 -28.5 92.5t-91.5 32.5q-76 0 -123.5 -56t-47.5 -159z" />
    <glyph glyph-name="obreve.aalt" horiz-adv-x="670" 
d="M627 805q-4 -26 -17.5 -55.5t-37.5 -54t-59 -41t-81 -16.5q-40 0 -66.5 11t-42.5 28t-23.5 37t-10 38.5t-2 33t1.5 19.5h101v-13t5.5 -23.5t17 -22.5t34.5 -10q18 0 32 7.5t24 18.5t15.5 22.5t6.5 20.5h102zM337 -9q-53 0 -99 13t-80.5 42t-54.5 74t-20 110
q0 78 24 141.5t67.5 109t104 70t133.5 24.5q129 0 196.5 -63.5t67.5 -175.5q0 -79 -23.5 -143t-67.5 -109t-106.5 -69t-141.5 -24zM234 239q0 -56 27 -92t93 -36q37 0 68 14.5t54 42.5t36 68.5t13 92.5q0 60 -28.5 92.5t-91.5 32.5q-76 0 -123.5 -56t-47.5 -159z" />
    <glyph glyph-name="ohungarumlaut.aalt" horiz-adv-x="670" 
d="M275 636l94 168h125l-100 -168h-119zM459 636l94 168h133l-121 -168h-106zM337 -9q-53 0 -99 13t-80.5 42t-54.5 74t-20 110q0 78 24 141.5t67.5 109t104 70t133.5 24.5q129 0 196.5 -63.5t67.5 -175.5q0 -79 -23.5 -143t-67.5 -109t-106.5 -69t-141.5 -24zM234 239
q0 -56 27 -92t93 -36q37 0 68 14.5t54 42.5t36 68.5t13 92.5q0 60 -28.5 92.5t-91.5 32.5q-76 0 -123.5 -56t-47.5 -159z" />
    <glyph glyph-name="oslash.aalt" horiz-adv-x="670" 
d="M337 -9q-26 0 -51 3l-40 -78h-112l56 108q-49 26 -78 76.5t-29 129.5q0 78 24 141.5t67.5 109t104 70t133.5 24.5q16 0 31.5 -1t29.5 -3l37 71h113l-54 -103q107 -61 107 -203q0 -79 -23.5 -143t-67.5 -109t-106.5 -69t-141.5 -24zM234 239q0 -26 5 -48t17 -39l156 302
h-7q-76 0 -123.5 -56t-47.5 -159zM525 329q0 52 -22 83l-156 -301h7q37 0 68 14.5t54 42.5t36 68.5t13 92.5z" />
    <glyph glyph-name="oe.aalt" horiz-adv-x="984" 
d="M338 -9q-53 0 -99 13t-81 42t-55 74t-20 110q0 78 24 142t67.5 109t104 69.5t133.5 24.5q116 0 184 -54l7 45h412l-20 -120h-297l-17 -108h258l-17 -106h-257l-18 -112h296l-18 -120h-412l5 35q-76 -44 -180 -44zM234 239q0 -56 27 -92t93 -36q37 0 68 14.5t54 42.5
t36 68.5t13 92.5q0 60 -28.5 92.5t-91.5 32.5q-76 0 -123.5 -56t-47.5 -159z" />
    <glyph glyph-name="racute.aalt" horiz-adv-x="633" 
d="M307 636l117 168h161l-153 -168h-125zM68 0l90 566h274q60 0 100 -13t64 -35.5t34.5 -52.5t10.5 -63q0 -32 -6 -62.5t-21.5 -57.5t-42.5 -48t-69 -34l84 -200h-157l-74 183h-108l-29 -183h-150zM369 289q67 0 93 26t26 72q0 29 -20 46t-74 17h-105l-25 -161h105z" />
    <glyph glyph-name="rcaron.aalt" horiz-adv-x="633" 
d="M333 636l-98 168h120l52 -88l79 88h119l-150 -168h-122zM68 0l90 566h274q60 0 100 -13t64 -35.5t34.5 -52.5t10.5 -63q0 -32 -6 -62.5t-21.5 -57.5t-42.5 -48t-69 -34l84 -200h-157l-74 183h-108l-29 -183h-150zM369 289q67 0 93 26t26 72q0 29 -20 46t-74 17h-105
l-25 -161h105z" />
    <glyph glyph-name="rcommaaccent.aalt" horiz-adv-x="633" 
d="M183 -304q7 4 19 15.5t24 25.5t22 29t14 27q-28 2 -38.5 17.5t-10.5 37.5q0 36 20.5 61.5t70.5 25.5q29 0 47.5 -17t18.5 -55q0 -40 -17 -75t-39.5 -62t-44 -44.5t-31.5 -23.5zM68 0l90 566h274q60 0 100 -13t64 -35.5t34.5 -52.5t10.5 -63q0 -32 -6 -62.5t-21.5 -57.5
t-42.5 -48t-69 -34l84 -200h-157l-74 183h-108l-29 -183h-150zM369 289q67 0 93 26t26 72q0 29 -20 46t-74 17h-105l-25 -161h105z" />
    <glyph glyph-name="sacute.aalt" horiz-adv-x="549" 
d="M297 636l117 168h160l-152 -168h-125zM102 154q22 -13 49 -23q23 -8 55 -15t70 -7q98 0 98 50q0 13 -7.5 22.5t-20.5 17t-30.5 14t-37.5 13.5q-36 12 -67.5 25t-54.5 32.5t-36.5 46.5t-13.5 68q0 48 19 82t52.5 55t79 30.5t97.5 9.5q51 0 89.5 -7.5t64.5 -15.5
q31 -10 53 -22l-41 -110q-18 10 -42 19q-20 8 -48.5 14t-63.5 6q-48 0 -76.5 -10.5t-28.5 -36.5q0 -15 9.5 -24.5t25 -17t36 -14t42.5 -13.5q37 -12 66.5 -26t50 -33.5t31.5 -46t11 -64.5q0 -51 -20 -86t-54.5 -56t-81.5 -30t-102 -9q-54 0 -93 7t-64 15q-30 10 -49 23z" />
    <glyph glyph-name="scircumflex.aalt" horiz-adv-x="549" 
d="M449 804l98 -168h-119l-52 88l-80 -88h-119l151 168h121zM102 154q22 -13 49 -23q23 -8 55 -15t70 -7q98 0 98 50q0 13 -7.5 22.5t-20.5 17t-30.5 14t-37.5 13.5q-36 12 -67.5 25t-54.5 32.5t-36.5 46.5t-13.5 68q0 48 19 82t52.5 55t79 30.5t97.5 9.5q51 0 89.5 -7.5
t64.5 -15.5q31 -10 53 -22l-41 -110q-18 10 -42 19q-20 8 -48.5 14t-63.5 6q-48 0 -76.5 -10.5t-28.5 -36.5q0 -15 9.5 -24.5t25 -17t36 -14t42.5 -13.5q37 -12 66.5 -26t50 -33.5t31.5 -46t11 -64.5q0 -51 -20 -86t-54.5 -56t-81.5 -30t-102 -9q-54 0 -93 7t-64 15
q-30 10 -49 23z" />
    <glyph glyph-name="scaron.aalt" horiz-adv-x="549" 
d="M301 636l-98 168h120l52 -88l79 88h119l-150 -168h-122zM102 154q22 -13 49 -23q23 -8 55 -15t70 -7q98 0 98 50q0 13 -7.5 22.5t-20.5 17t-30.5 14t-37.5 13.5q-36 12 -67.5 25t-54.5 32.5t-36.5 46.5t-13.5 68q0 48 19 82t52.5 55t79 30.5t97.5 9.5q51 0 89.5 -7.5
t64.5 -15.5q31 -10 53 -22l-41 -110q-18 10 -42 19q-20 8 -48.5 14t-63.5 6q-48 0 -76.5 -10.5t-28.5 -36.5q0 -15 9.5 -24.5t25 -17t36 -14t42.5 -13.5q37 -12 66.5 -26t50 -33.5t31.5 -46t11 -64.5q0 -51 -20 -86t-54.5 -56t-81.5 -30t-102 -9q-54 0 -93 7t-64 15
q-30 10 -49 23z" />
    <glyph glyph-name="scedilla.aalt" horiz-adv-x="549" 
d="M102 154q22 -13 49 -23q23 -8 55 -15t70 -7q98 0 98 50q0 13 -7.5 22.5t-20.5 17t-30.5 14t-37.5 13.5q-36 12 -67.5 25t-54.5 32.5t-36.5 46.5t-13.5 68q0 48 19 82t52.5 55t79 30.5t97.5 9.5q51 0 89.5 -7.5t64.5 -15.5q31 -10 53 -22l-41 -110q-18 10 -42 19
q-20 8 -48.5 14t-63.5 6q-48 0 -76.5 -10.5t-28.5 -36.5q0 -15 9.5 -24.5t25 -17t36 -14t42.5 -13.5q37 -12 66.5 -26t50 -33.5t31.5 -46t11 -64.5q0 -48 -17 -81t-47 -54t-71.5 -31.5t-89.5 -13.5l-17 -40h6q2 0 4 0.5t3 0.5q40 0 67 -17t27 -58q0 -23 -7.5 -42.5
t-25.5 -34.5t-47 -23.5t-72 -8.5q-19 0 -32.5 1t-21.5 3q-10 2 -16 5l7 67q6 -2 15 -4q15 -3 42 -3q25 0 46 7t21 27q0 14 -15.5 19t-37.5 5t-41.5 -2t-22.5 -4l41 103q-43 2 -73 9t-50 15q-23 9 -39 19z" />
    <glyph glyph-name="scommaaccent.aalt" horiz-adv-x="549" 
d="M170 -304q7 4 19 15.5t24 25.5t22 29t14 27q-28 2 -38.5 17.5t-10.5 37.5q0 36 21 61.5t71 25.5q28 0 46.5 -17t18.5 -55q0 -40 -17 -75t-39.5 -62t-44 -44.5t-31.5 -23.5zM102 154q22 -13 49 -23q23 -8 55 -15t70 -7q98 0 98 50q0 13 -7.5 22.5t-20.5 17t-30.5 14
t-37.5 13.5q-36 12 -67.5 25t-54.5 32.5t-36.5 46.5t-13.5 68q0 48 19 82t52.5 55t79 30.5t97.5 9.5q51 0 89.5 -7.5t64.5 -15.5q31 -10 53 -22l-41 -110q-18 10 -42 19q-20 8 -48.5 14t-63.5 6q-48 0 -76.5 -10.5t-28.5 -36.5q0 -15 9.5 -24.5t25 -17t36 -14t42.5 -13.5
q37 -12 66.5 -26t50 -33.5t31.5 -46t11 -64.5q0 -51 -20 -86t-54.5 -56t-81.5 -30t-102 -9q-54 0 -93 7t-64 15q-30 10 -49 23z" />
    <glyph glyph-name="tcaron.aalt" horiz-adv-x="554" 
d="M315 636l-99 168h120l52 -88l79 88h120l-151 -168h-121zM202 0l70 444h-180l20 122h510l-19 -122h-180l-71 -444h-150z" />
    <glyph glyph-name="uni021B.aalt" horiz-adv-x="554" 
d="M148 -304q7 4 19 15.5t24 25.5t22 29t14 27q-28 2 -38.5 17.5t-10.5 37.5q0 36 21 61.5t71 25.5q28 0 46.5 -17t18.5 -55q0 -40 -17 -75t-39 -62t-44 -44.5t-32 -23.5zM202 0l70 444h-180l20 122h510l-19 -122h-180l-71 -444h-150z" />
    <glyph glyph-name="tcommaaccent.aalt" horiz-adv-x="554" 
d="M316 0l-20 -47h6q2 0 4 0.5t3 0.5q41 0 68 -17t27 -58q0 -23 -7.5 -42.5t-25.5 -34.5t-47.5 -23.5t-72.5 -8.5q-19 0 -32 1t-21 3q-10 2 -17 5l7 67q7 -2 16 -4q15 -3 42 -3q25 0 45.5 7t20.5 27q0 14 -15 19t-38 5q-21 0 -40.5 -2t-23.5 -4l45 109h-38l70 444h-180
l20 122h510l-19 -122h-180l-71 -444h-36z" />
    <glyph glyph-name="tbar.aalt" horiz-adv-x="554" 
d="M202 0l39 246h-99l13 80h98l19 118h-180l20 122h510l-19 -122h-180l-19 -118h102l-13 -80h-102l-39 -246h-150z" />
    <glyph glyph-name="thorn.aalt" horiz-adv-x="603" 
d="M308 566l-12 -73h118q60 0 99.5 -13.5t63.5 -36.5t34 -53.5t10 -64.5q0 -41 -11.5 -83.5t-41.5 -77t-82.5 -56.5t-134.5 -22h-119l-14 -86h-150l90 566h150zM250 202h98q67 0 93.5 30t26.5 78q0 31 -19.5 49t-72.5 18h-98z" />
    <glyph glyph-name="ugrave.aalt" horiz-adv-x="662" 
d="M365 636l-99 168h160l65 -168h-126zM537 566h151l-53 -330q-19 -119 -91.5 -182t-212.5 -63q-120 0 -177.5 48t-57.5 140q0 14 1.5 28t3.5 29l52 330h151l-51 -320q-2 -12 -3 -23t-1 -21q0 -42 21.5 -66.5t77.5 -24.5q34 0 58 9.5t40.5 27.5t26 43t14.5 55z" />
    <glyph glyph-name="uacute.aalt" horiz-adv-x="662" 
d="M354 636l117 168h160l-152 -168h-125zM537 566h151l-53 -330q-19 -119 -91.5 -182t-212.5 -63q-120 0 -177.5 48t-57.5 140q0 14 1.5 28t3.5 29l52 330h151l-51 -320q-2 -12 -3 -23t-1 -21q0 -42 21.5 -66.5t77.5 -24.5q34 0 58 9.5t40.5 27.5t26 43t14.5 55z" />
    <glyph glyph-name="ucircumflex.aalt" horiz-adv-x="662" 
d="M512 804l98 -168h-120l-52 88l-79 -88h-120l151 168h122zM537 566h151l-53 -330q-19 -119 -91.5 -182t-212.5 -63q-120 0 -177.5 48t-57.5 140q0 14 1.5 28t3.5 29l52 330h151l-51 -320q-2 -12 -3 -23t-1 -21q0 -42 21.5 -66.5t77.5 -24.5q34 0 58 9.5t40.5 27.5t26 43
t14.5 55z" />
    <glyph glyph-name="utilde.aalt" horiz-adv-x="662" 
d="M537 566h151l-53 -330q-19 -119 -91.5 -182t-212.5 -63q-120 0 -177.5 48t-57.5 140q0 14 1.5 28t3.5 29l52 330h151l-51 -320q-2 -12 -3 -23t-1 -21q0 -42 21.5 -66.5t77.5 -24.5q34 0 58 9.5t40.5 27.5t26 43t14.5 55zM244 636v15q0 27 8.5 53.5t25 47t41 33t56.5 12.5
q24 0 41.5 -9t32 -19.5t26.5 -19t24 -8.5q32 0 32 39q0 3 -0.5 5.5t-0.5 4.5v5h105v-4q0 -2 0.5 -4t0.5 -4q0 -29 -8.5 -56t-25 -47.5t-41.5 -33t-57 -12.5q-25 0 -42.5 9t-31.5 19.5l-26 19.5t-25 9t-22 -11t-9 -31v-9q0 -3 1 -4h-105z" />
    <glyph glyph-name="udieresis.aalt" horiz-adv-x="662" 
d="M406 726q0 -36 -20.5 -62.5t-69.5 -26.5q-35 0 -50.5 16.5t-15.5 43.5q0 36 21 62t69 26q35 0 50.5 -16.5t15.5 -42.5zM626 725q0 -36 -20.5 -62t-68.5 -26q-36 0 -51 16.5t-15 42.5q0 36 20 62.5t69 26.5q35 0 50.5 -17t15.5 -43zM537 566h151l-53 -330
q-19 -119 -91.5 -182t-212.5 -63q-120 0 -177.5 48t-57.5 140q0 14 1.5 28t3.5 29l52 330h151l-51 -320q-2 -12 -3 -23t-1 -21q0 -42 21.5 -66.5t77.5 -24.5q34 0 58 9.5t40.5 27.5t26 43t14.5 55z" />
    <glyph glyph-name="umacron.aalt" horiz-adv-x="662" 
d="M260 638l15 97h326l-15 -97h-326zM537 566h151l-53 -330q-19 -119 -91.5 -182t-212.5 -63q-120 0 -177.5 48t-57.5 140q0 14 1.5 28t3.5 29l52 330h151l-51 -320q-2 -12 -3 -23t-1 -21q0 -42 21.5 -66.5t77.5 -24.5q34 0 58 9.5t40.5 27.5t26 43t14.5 55z" />
    <glyph glyph-name="ubreve.aalt" horiz-adv-x="662" 
d="M623 805q-4 -26 -17.5 -55.5t-37.5 -54t-58.5 -41t-81.5 -16.5q-40 0 -66.5 11t-42.5 28t-23.5 37t-10 38.5t-2 33t1.5 19.5h101q0 -2 0.5 -13t6 -23.5t17 -22.5t34.5 -10q18 0 32 7.5t23.5 18.5t15 22.5t7.5 20.5h101zM537 566h151l-53 -330q-19 -119 -91.5 -182
t-212.5 -63q-120 0 -177.5 48t-57.5 140q0 14 1.5 28t3.5 29l52 330h151l-51 -320q-2 -12 -3 -23t-1 -21q0 -42 21.5 -66.5t77.5 -24.5q34 0 58 9.5t40.5 27.5t26 43t14.5 55z" />
    <glyph glyph-name="uring.aalt" horiz-adv-x="662" 
d="M426 636q-56 0 -82.5 27t-26.5 71q0 66 42 105t110 39q54 0 81 -27t27 -72q0 -31 -9 -57t-27.5 -45t-47 -30t-67.5 -11zM441 712q25 0 37.5 15.5t12.5 39.5q0 35 -35 35q-25 0 -38.5 -14.5t-13.5 -39.5q0 -17 9 -26.5t28 -9.5zM537 566h151l-53 -330q-19 -119 -91.5 -182
t-212.5 -63q-120 0 -177.5 48t-57.5 140q0 14 1.5 28t3.5 29l52 330h151l-51 -320q-2 -12 -3 -23t-1 -21q0 -42 21.5 -66.5t77.5 -24.5q34 0 58 9.5t40.5 27.5t26 43t14.5 55z" />
    <glyph glyph-name="uhungarumlaut.aalt" horiz-adv-x="662" 
d="M261 636l94 168h126l-101 -168h-119zM445 636l94 168h133l-121 -168h-106zM537 566h151l-53 -330q-19 -119 -91.5 -182t-212.5 -63q-120 0 -177.5 48t-57.5 140q0 14 1.5 28t3.5 29l52 330h151l-51 -320q-2 -12 -3 -23t-1 -21q0 -42 21.5 -66.5t77.5 -24.5q34 0 58 9.5
t40.5 27.5t26 43t14.5 55z" />
    <glyph glyph-name="uogonek.aalt" horiz-adv-x="662" 
d="M537 566h151l-53 -330q-16 -100 -69 -160t-151 -77q-15 -7 -29.5 -17t-26.5 -21.5t-19.5 -24t-7.5 -24.5q0 -11 10 -19.5t33 -8.5q14 0 31 4t28 6l-11 -89q-21 -8 -50 -14.5t-61 -6.5q-53 0 -85.5 21t-32.5 57q0 20 8.5 38.5t22.5 35.5t31 31.5t34 25.5q-99 8 -146.5 55
t-47.5 131q0 14 1.5 28t3.5 29l52 330h151l-51 -320q-2 -12 -3 -23t-1 -21q0 -42 21.5 -66.5t77.5 -24.5q34 0 58 9.5t40.5 27.5t26 43t14.5 55z" />
    <glyph glyph-name="wacute.aalt" horiz-adv-x="884" 
d="M476 636l117 168h160l-152 -168h-125zM264 566l22 -350l3 -79l27 79l147 350h137l35 -349l6 -80l25 78l135 351h157l-237 -566h-172l-39 317l-5 78l-30 -78l-139 -317h-173l-56 566h157z" />
    <glyph glyph-name="wcircumflex.aalt" horiz-adv-x="884" 
d="M628 804l99 -168h-120l-52 88l-79 -88h-120l151 168h121zM264 566l22 -350l3 -79l27 79l147 350h137l35 -349l6 -80l25 78l135 351h157l-237 -566h-172l-39 317l-5 78l-30 -78l-139 -317h-173l-56 566h157z" />
    </font>
</defs>
</svg>
