<?xml version="1.0" standalone="no"?>
<!DOCTYPE svg PUBLIC "-//W3C//DTD SVG 1.1//EN" "http://www.w3.org/Graphics/SVG/1.1/DTD/svg11.dtd" >
<svg>
<metadata>
Created by FontForge 20120731 at Mon Mar 20 02:17:35 2023
 By www
Copyright (c) 2013 by Mika Melvas. All rights reserved.
</metadata>
<defs>
<font id="RionaSansW04-Medium" horiz-adv-x="605" >
  <font-face 
    font-family="RionaSansW04-Medium"
    font-weight="490"
    font-stretch="normal"
    units-per-em="1000"
    panose-1="1 0 0 0 0 0 0 0 0 0"
    ascent="800"
    descent="-200"
    x-height="527"
    cap-height="707"
    bbox="-110 -319 1180 973"
    underline-thickness="50"
    underline-position="-75"
    unicode-range="U+0020-FB04"
  />
<missing-glyph horiz-adv-x="693" 
d="M603 706v-705h-513v705h513zM130 637v-571l193 286zM563 68v568l-193 -284zM347 386l190 282h-381zM158 39h377l-188 278z" />
    <glyph glyph-name="uniFB00" unicode="ff" horiz-adv-x="786" 
d="M472 0v431h-256v-431h-121v431h-68v96h68v29q0 60 18 96t46 56t62.5 26.5t67.5 6.5q25 0 43.5 -2.5t31.5 -5.5q15 -4 25 -7l-18 -92l-15 5q-8 2 -20 4t-29 2q-19 0 -35.5 -3.5t-29 -13.5t-19.5 -28.5t-7 -48.5v-24h256v29q0 60 18 96t46 56t62.5 26.5t67.5 6.5
q25 0 43.5 -2.5t31.5 -5.5q15 -4 25 -7l-18 -92l-15 5q-8 2 -20 4t-29 2q-19 0 -35.5 -3.5t-29 -13.5t-19.5 -28.5t-7 -48.5v-24h150v-96h-150v-431h-121z" />
    <glyph glyph-name="uniFB01" unicode="fi" horiz-adv-x="665" 
d="M475 0v527h120v-527h-120zM606 673q0 -29 -16.5 -48t-54.5 -19t-54.5 19t-16.5 48t16.5 47t54.5 18t54.5 -18t16.5 -47zM95 0v431h-68v96h68v29q0 60 18 96t46 56t62.5 26.5t67.5 6.5q25 0 43.5 -2.5t31.5 -5.5q15 -4 25 -7l-18 -92l-15 5q-8 2 -20 4t-29 2
q-19 0 -35.5 -3.5t-29 -13.5t-19.5 -28.5t-7 -48.5v-24h150v-96h-150v-431h-121z" />
    <glyph glyph-name="uniFB02" unicode="fl" horiz-adv-x="733" 
d="M705 7q-5 -3 -27.5 -10t-59.5 -7q-40 0 -67.5 11t-44 31.5t-23.5 49t-7 63.5v586h121v-574q0 -38 15 -54.5t46 -16.5q9 0 17 0.5t13 1.5q6 1 11 3zM95 0v431h-68v96h68v29q0 60 18 96t46 56t62.5 26.5t67.5 6.5q25 0 43.5 -2.5t31.5 -5.5q15 -4 25 -7l-18 -92l-15 5
q-8 2 -20 4t-29 2q-19 0 -35.5 -3.5t-29 -13.5t-19.5 -28.5t-7 -48.5v-24h150v-96h-150v-431h-121z" />
    <glyph glyph-name="uniFB03" unicode="ffi" horiz-adv-x="1043" 
d="M852 0v527h120v-527h-120zM983 673q0 -29 -16.5 -48t-54.5 -19t-54.5 19t-16.5 48t16.5 47t54.5 18t54.5 -18t16.5 -47zM472 0v431h-256v-431h-121v431h-68v96h68v29q0 60 18 96t46 56t62.5 26.5t67.5 6.5q25 0 43.5 -2.5t31.5 -5.5q15 -4 25 -7l-18 -92l-15 5
q-8 2 -20 4t-29 2q-19 0 -35.5 -3.5t-29 -13.5t-19.5 -28.5t-7 -48.5v-24h256v29q0 60 18 96t46 56t62.5 26.5t67.5 6.5q25 0 43.5 -2.5t31.5 -5.5q15 -4 25 -7l-18 -92l-15 5q-8 2 -20 4t-29 2q-19 0 -35.5 -3.5t-29 -13.5t-19.5 -28.5t-7 -48.5v-24h150v-96h-150v-431
h-121z" />
    <glyph glyph-name="uniFB04" unicode="ffl" horiz-adv-x="1110" 
d="M1083 7q-5 -3 -27.5 -10t-60.5 -7q-40 0 -67 11t-43.5 31.5t-23.5 49t-7 63.5v586h121v-574q0 -38 14.5 -54.5t45.5 -16.5q9 0 17 0.5t13 1.5q6 1 12 3zM472 0v431h-256v-431h-121v431h-68v96h68v29q0 60 18 96t46 56t62.5 26.5t67.5 6.5q25 0 43.5 -2.5t31.5 -5.5
q15 -4 25 -7l-18 -92l-15 5q-8 2 -20 4t-29 2q-19 0 -35.5 -3.5t-29 -13.5t-19.5 -28.5t-7 -48.5v-24h256v29q0 60 18 96t46 56t62.5 26.5t67.5 6.5q25 0 43.5 -2.5t31.5 -5.5q15 -4 25 -7l-18 -92l-15 5q-8 2 -20 4t-29 2q-19 0 -35.5 -3.5t-29 -13.5t-19.5 -28.5t-7 -48.5
v-24h150v-96h-150v-431h-121z" />
    <glyph glyph-name=".notdef" horiz-adv-x="693" 
d="M603 706v-705h-513v705h513zM130 637v-571l193 286zM563 68v568l-193 -284zM347 386l190 282h-381zM158 39h377l-188 278z" />
    <glyph glyph-name="glyph1" horiz-adv-x="0" 
 />
    <glyph glyph-name="glyph1" horiz-adv-x="0" 
 />
    <glyph glyph-name="nonmarkingreturn" horiz-adv-x="333" 
 />
    <glyph glyph-name="space" unicode=" " horiz-adv-x="210" 
 />
    <glyph glyph-name="exclam" unicode="!" horiz-adv-x="300" 
d="M94 196l-12 535h136l-12 -535h-112zM222 59q0 -30 -17 -49.5t-56 -19.5t-56 19.5t-17 49.5t17 50t56 20t56 -20t17 -50z" />
    <glyph glyph-name="quotedbl" unicode="&#x22;" horiz-adv-x="377" 
d="M61 475l-14 256h111l-14 -256h-83zM234 475l-14 256h110l-14 -256h-82z" />
    <glyph glyph-name="numbersign" unicode="#" horiz-adv-x="758" 
d="M425 0l20 185h-159l-20 -185h-108l21 185h-108v84h117l19 164h-104v84h112l21 191h109l-22 -191h159l21 191h108l-21 -191h97v-84h-107l-18 -164h92v-84h-101l-21 -185h-107zM473 433h-159l-19 -164h160z" />
    <glyph glyph-name="dollar" unicode="$" horiz-adv-x="579" 
d="M248 -95v96q-42 1 -76 6t-59 12q-29 7 -51 17l23 96q21 -10 49 -18q23 -7 56.5 -12t75.5 -5q75 0 107 24.5t32 70.5q0 27 -10 45t-26.5 30.5t-39 21t-46.5 15.5q-38 12 -78 26.5t-72.5 38t-53.5 60t-21 91.5q0 80 47 126t141 57v98h91v-96q35 -2 64 -7.5t49 -10.5
q24 -7 42 -14l-25 -94q-17 8 -41 15q-20 6 -49 11t-66 5q-66 0 -102 -19.5t-36 -64.5q0 -23 8.5 -39t26.5 -28.5t46 -23t68 -23.5q38 -12 74 -27t63.5 -38t44.5 -58t17 -87q0 -83 -45.5 -132.5t-136.5 -63.5v-101h-91z" />
    <glyph glyph-name="percent" unicode="%" horiz-adv-x="867" 
d="M214 717q76 0 117.5 -48t41.5 -124t-40 -124.5t-119 -48.5q-40 0 -69.5 13t-49 36t-29.5 54t-10 68q0 78 41.5 126t116.5 48zM214 649q-73 0 -73 -105q0 -104 73 -104q35 0 54 26t19 78q0 51 -19 78t-54 27zM713 707l-475 -707h-80l475 707h80zM654 335q38 0 67.5 -13
t49.5 -35.5t30.5 -54.5t10.5 -69q0 -38 -10 -69.5t-30 -54.5t-49.5 -36t-69.5 -13q-39 0 -69 13t-49.5 35.5t-29.5 54t-10 68.5q0 78 42 126t117 48zM654 266q-73 0 -73 -104q0 -51 18.5 -78t53.5 -27q74 0 74 106q0 103 -73 103z" />
    <glyph glyph-name="ampersand" unicode="&#x26;" horiz-adv-x="736" 
d="M673 326h-36q-15 0 -32 1q3 -16 7 -34q3 -16 5.5 -36.5t2.5 -42.5q0 -45 -13.5 -85.5t-45.5 -71.5t-86.5 -49t-135.5 -18q-75 0 -126.5 15.5t-83 42t-45 62.5t-13.5 78q0 48 15 81.5t36 56t43 34.5t37 16q-17 7 -36 20.5t-34.5 34.5t-25.5 49.5t-10 65.5q0 41 14 76.5
t45.5 62t81 41.5t121.5 15q40 0 71 -4.5t53 -9.5q26 -6 45 -13l-17 -90q-17 6 -38 10q-18 4 -44 7t-57 3q-84 0 -120.5 -27t-36.5 -81q0 -35 14 -57t39.5 -35t61 -17.5t78.5 -4.5h32t52.5 0.5t61 0.5t58 0.5t44 0.5h18.5v-98zM497 328q-10 0 -29 0.5t-41.5 0.5h-47h-45.5
q-65 0 -103 -33t-38 -93q0 -59 38.5 -88t110.5 -29q87 0 126 39.5t39 112.5q0 14 -1.5 29t-3 27.5t-3 21.5t-2.5 12z" />
    <glyph glyph-name="quotesingle" unicode="'" horiz-adv-x="202" 
d="M59 475l-13 256h110l-14 -256h-83z" />
    <glyph glyph-name="parenleft" unicode="(" horiz-adv-x="321" 
d="M187 -231q-37 54 -66 128q-25 63 -45.5 154.5t-20.5 210.5t20.5 210t45.5 154q29 73 66 128l93 -43q-29 -48 -52 -115q-20 -57 -35.5 -141t-15.5 -193q0 -110 15.5 -193.5t35.5 -140.5q23 -67 52 -115z" />
    <glyph glyph-name="parenright" unicode=")" horiz-adv-x="321" 
d="M40 -187q29 48 52 115q20 57 36 140.5t16 193.5q0 109 -16 193t-36 141q-23 67 -52 115l94 43q36 -55 65 -128q25 -63 45.5 -154t20.5 -210t-20.5 -210.5t-45.5 -154.5q-29 -74 -65 -128z" />
    <glyph glyph-name="asterisk" unicode="*" horiz-adv-x="387" 
d="M253 434l-60 98l-59 -98l-66 47l75 86l-103 25l24 78l98 -42l-9 103h82l-10 -103l98 42l24 -78l-103 -25l75 -86z" />
    <glyph glyph-name="plus" unicode="+" horiz-adv-x="608" 
d="M255 64v198h-198v100h198v199h99v-199h196v-100h-196v-198h-99z" />
    <glyph glyph-name="comma" unicode="," horiz-adv-x="245" 
d="M49 -109q7 5 16.5 17t18.5 27.5t16 32t9 30.5q-32 1 -43 19.5t-11 43.5q0 28 16 46.5t54 18.5q31 0 51 -20.5t20 -64.5q0 -35 -11 -65.5t-26.5 -54.5t-31 -41.5t-24.5 -24.5z" />
    <glyph glyph-name="hyphen" unicode="-" horiz-adv-x="391" 
d="M55 232v98h281v-98h-281z" />
    <glyph glyph-name="period" unicode="." horiz-adv-x="241" 
d="M191 57q0 -29 -16 -48t-54 -19q-39 0 -55.5 19t-16.5 48t16.5 48.5t55.5 19.5q38 0 54 -19.5t16 -48.5z" />
    <glyph glyph-name="slash" unicode="/" horiz-adv-x="451" 
d="M40 0l256 707h115l-257 -707h-114z" />
    <glyph glyph-name="zero" unicode="0" horiz-adv-x="660" 
d="M327 -10q-141 0 -208 94t-67 266q0 177 69 272t210 95t209.5 -94.5t68.5 -266.5q0 -174 -70 -270t-212 -96zM331 89q82 0 118.5 68.5t36.5 197.5q0 128 -36 195.5t-119 67.5q-84 0 -120.5 -69.5t-36.5 -194.5q0 -129 36.5 -197t120.5 -68z" />
    <glyph glyph-name="one" unicode="1" horiz-adv-x="413" 
d="M180 0v592l-128 -43l-23 88l198 70h75v-707h-122z" />
    <glyph glyph-name="two" unicode="2" horiz-adv-x="582" 
d="M59 0l-10 100q22 16 56 41t72.5 57t77 68.5t69.5 76t50.5 79t19.5 77.5q0 53 -36 86t-112 33q-36 0 -66.5 -5.5t-53.5 -12.5q-26 -8 -49 -18l-20 90q27 12 60 22q29 8 68.5 15.5t88.5 7.5q67 0 113.5 -17t75 -45.5t41 -66t12.5 -79.5q0 -53 -18 -101.5t-46 -91.5t-62 -79
t-66.5 -64.5t-59.5 -48.5t-41 -30l80 6h208v-100h-452z" />
    <glyph glyph-name="three" unicode="3" horiz-adv-x="567" 
d="M61 115q19 -8 44 -13q21 -5 50 -9t66 -4q80 0 125.5 25.5t45.5 86.5q0 59 -42.5 84t-118.5 25q-17 0 -31 -0.5t-24 -1.5q-11 -1 -21 -1v104q7 -1 16 -1q8 -1 18 -1h21q35 0 66 4.5t54.5 16.5t37 33t13.5 54q0 54 -38.5 77.5t-113.5 23.5q-34 0 -62.5 -3.5t-50.5 -8.5
q-26 -5 -46 -11l-16 91q23 8 54 15q26 6 63 11t83 5q69 0 116.5 -12.5t77 -36t42.5 -56.5t13 -73q0 -61 -28 -104.5t-87 -64.5q27 -8 50 -22t40 -35t27 -50t10 -67q0 -100 -72.5 -153t-215.5 -53q-44 0 -77.5 4t-56.5 9q-27 6 -48 14z" />
    <glyph glyph-name="four" unicode="4" horiz-adv-x="638" 
d="M28 254l318 453h153v-452h109v-98h-109v-157h-122v157h-333zM377 255v268l3 58l-232 -326h229z" />
    <glyph glyph-name="five" unicode="5" horiz-adv-x="572" 
d="M68 116q17 -8 41 -14q20 -5 49.5 -9t67.5 -4q90 0 134.5 35t44.5 96q0 34 -13 58t-36 38.5t-55.5 21t-71.5 6.5q-45 0 -88 -5t-68 -10l16 378h398v-100h-285l-8 -171q20 3 39.5 5t42.5 2q52 0 97.5 -12.5t79.5 -39.5t54 -69t20 -101q0 -43 -14 -84.5t-48 -74t-89.5 -52.5
t-138.5 -20q-45 0 -78.5 4t-56.5 9q-27 5 -47 13z" />
    <glyph glyph-name="six" unicode="6" horiz-adv-x="600" 
d="M482 600q-12 5 -28 9q-14 3 -33.5 6t-43.5 3q-52 0 -88.5 -14.5t-60 -42t-36 -68.5t-15.5 -93q8 5 22.5 13t35.5 15.5t47 12.5t58 5q52 0 92 -16.5t67 -46t41 -70.5t14 -89q0 -51 -16 -94t-47 -74t-77 -48.5t-106 -17.5q-76 0 -125.5 27t-78.5 72.5t-40.5 106.5
t-11.5 130q0 91 18 163.5t56 123t96 77.5t139 27q32 0 57.5 -3.5t43.5 -8.5q20 -5 36 -11zM174 305q1 -50 7.5 -90t22 -68.5t40.5 -43.5t62 -15q24 0 47 7t41 23.5t28.5 42t10.5 63.5q0 34 -9 58t-25 39t-37.5 21.5t-46.5 6.5q-22 0 -43.5 -4.5t-40 -11t-33.5 -14.5t-24 -14
z" />
    <glyph glyph-name="seven" unicode="7" horiz-adv-x="523" 
d="M94 0l226 532l37 75h-322v100h447l6 -92l-262 -615h-132z" />
    <glyph glyph-name="eight" unicode="8" horiz-adv-x="630" 
d="M446 369q15 -5 37.5 -17.5t43.5 -34.5t36 -54.5t15 -77.5q0 -94 -69.5 -144.5t-197.5 -50.5t-193.5 50t-65.5 141q0 44 14.5 76t35 54t43 35t38.5 18q-15 5 -34.5 17t-37 32.5t-29.5 49t-12 67.5q0 40 15 74.5t46 59.5t77.5 39t108.5 14t108 -13.5t76 -37.5t44.5 -56.5
t14.5 -69.5q0 -39 -14 -69.5t-32.5 -52t-38 -34t-29.5 -15.5zM297 318q-24 -6 -46 -17.5t-39.5 -28t-27.5 -37.5t-10 -46q0 -50 37.5 -76.5t103.5 -26.5t103 26.5t37 77.5q0 30 -13 50t-34.5 34.5t-50.5 24.5t-60 19zM337 407q48 21 75.5 49.5t27.5 71.5q0 50 -36 73t-89 23
q-54 0 -89.5 -23t-35.5 -74q0 -27 11.5 -46t31 -32.5t46.5 -23t58 -18.5z" />
    <glyph glyph-name="nine" unicode="9" horiz-adv-x="600" 
d="M118 107q12 -5 28 -9q14 -4 33 -6.5t44 -2.5q52 0 88.5 14.5t60 42t36 68t15.5 93.5q-8 -5 -23 -13t-35.5 -15.5t-47 -12.5t-57.5 -5q-53 0 -93 16.5t-67 46t-40.5 70.5t-13.5 89q0 51 16 94t47 74t77 48.5t106 17.5q76 0 125.5 -27t78.5 -72.5t40.5 -106.5t11.5 -130
q0 -91 -18 -163.5t-56 -123t-96 -77.5t-139 -27q-32 0 -58 3t-43 8q-21 5 -36 12zM426 402q-1 50 -7.5 90t-22 68.5t-41 43.5t-62.5 15q-24 0 -46.5 -7t-40.5 -23.5t-28.5 -42.5t-10.5 -63q0 -35 9 -58.5t25 -38.5t37.5 -21.5t46.5 -6.5q22 0 43.5 4.5t40 11t33.5 14.5
t24 14z" />
    <glyph glyph-name="colon" unicode=":" horiz-adv-x="306" 
d="M224 58q0 -29 -16.5 -48.5t-54.5 -19.5t-54.5 19.5t-16.5 48.5t16.5 48t54.5 19t54.5 -19t16.5 -48zM224 436q0 -29 -16.5 -49t-54.5 -20t-54.5 19.5t-16.5 49.5q0 28 16.5 47.5t54.5 19.5t54.5 -19.5t16.5 -47.5z" />
    <glyph glyph-name="semicolon" unicode=";" horiz-adv-x="312" 
d="M229 436q0 -29 -16.5 -49t-54.5 -20q-37 0 -53.5 19.5t-16.5 49.5q0 28 16.5 47.5t53.5 19.5q38 0 54.5 -19.5t16.5 -47.5zM83 -109q6 5 16 17t19 27.5t16 32t8 30.5q-31 1 -42.5 19.5t-11.5 43.5q0 28 16 46.5t54 18.5q32 0 51.5 -20.5t19.5 -64.5q0 -35 -11 -65.5
t-26.5 -54.5t-31 -41.5t-24.5 -24.5z" />
    <glyph glyph-name="less" unicode="&#x3c;" horiz-adv-x="589" 
d="M66 219v115l445 205v-114l-318 -148l318 -149v-112z" />
    <glyph glyph-name="equal" unicode="=" horiz-adv-x="588" 
d="M68 364v98h452v-98h-452zM68 164v97h452v-97h-452z" />
    <glyph glyph-name="greater" unicode="&#x3e;" horiz-adv-x="589" 
d="M70 16v112l318 149l-318 148v114l446 -204v-116z" />
    <glyph glyph-name="question" unicode="?" horiz-adv-x="551" 
d="M172 193q-2 8 -4 19q-2 9 -3 21t-1 26q0 48 15.5 80.5t38.5 56t50.5 41t50.5 34.5t38.5 37.5t15.5 49.5q0 40 -32.5 61.5t-106.5 21.5q-63 0 -103 -12t-60 -20l-17 96q12 4 31 10t45 12t58.5 10t70.5 4q120 0 177.5 -44.5t57.5 -129.5q0 -47 -15.5 -78t-38.5 -53.5
t-50.5 -40t-50.5 -38t-38.5 -47t-15.5 -66.5q0 -9 0.5 -17.5t1.5 -16.5q1 -9 3 -17h-118zM304 59q0 -30 -17 -49.5t-55 -19.5q-39 0 -55.5 19.5t-16.5 49.5t16.5 50t55.5 20q38 0 55 -20t17 -50z" />
    <glyph glyph-name="at" unicode="@" horiz-adv-x="1014" 
d="M433 74q-64 0 -98.5 46t-34.5 124q0 40 11 86t39 84.5t75 64t119 25.5q31 0 59.5 -4.5t50.5 -9.5q26 -6 48 -14l-33 -231q-5 -42 11 -64t51 -22q34 0 56.5 20t36.5 50t20 66.5t6 69.5q0 55 -16.5 106t-53.5 90.5t-97 63.5t-147 24q-99 0 -169.5 -31t-115.5 -83
t-65.5 -120t-20.5 -141q0 -68 18.5 -130.5t60.5 -110t109.5 -75.5t166.5 -28q45 0 82 5t64 12q32 7 57 17l16 -88q-28 -11 -63 -20q-30 -8 -72.5 -14t-94.5 -6q-116 0 -200 35t-139 94.5t-81 139t-26 168.5q0 88 26.5 172.5t83.5 150t146.5 105.5t215.5 40
q114 0 193.5 -32.5t129 -85t71.5 -119t22 -134.5q0 -57 -14.5 -110.5t-43 -94.5t-70.5 -66t-98 -25q-45 0 -71.5 14t-41.5 31q-18 19 -25 45q-17 -26 -40 -45q-20 -17 -48.5 -31t-65.5 -14zM464 160q18 0 33.5 7t29 18.5t24 26t18.5 28.5l26 177q-9 2 -20 4q-9 2 -20.5 3.5
t-23.5 1.5q-41 0 -66.5 -17t-39.5 -42.5t-19.5 -55.5t-5.5 -55q0 -45 15 -70.5t49 -25.5z" />
    <glyph glyph-name="A" unicode="A" horiz-adv-x="715" 
d="M434 707l253 -707h-125l-66 183h-277l-65 -183h-125l253 707h152zM339 525l-92 -249h221l-91 249l-20 72z" />
    <glyph glyph-name="B" unicode="B" horiz-adv-x="675" 
d="M78 0v707h273q119 0 182 -44t63 -136q0 -51 -23.5 -93.5t-78.5 -64.5q66 -18 96 -63t30 -108q0 -90 -61 -144t-195 -54h-286zM356 96q40 0 67 8t43.5 22.5t23.5 35t7 46.5q0 53 -31.5 79.5t-112.5 26.5h-153v-218h156zM342 404q75 0 106 28t31 80q0 50 -30.5 75
t-105.5 25h-143v-208h142z" />
    <glyph glyph-name="C" unicode="C" horiz-adv-x="646" 
d="M176 354q0 -73 20.5 -122.5t54.5 -80t79 -44t93 -13.5q29 0 54 3.5t44 8.5q22 5 40 12l18 -99q-20 -9 -46 -15q-22 -5 -53.5 -9.5t-70.5 -4.5q-89 0 -156 25.5t-111 73t-66 114.5t-22 151t23 151t68 114t111.5 72.5t153.5 25.5q40 0 71 -5t53 -10q26 -6 45 -14l-18 -99
q-18 7 -40 12q-19 5 -44.5 8.5t-54.5 3.5q-48 0 -92.5 -13t-78.5 -43.5t-54.5 -80t-20.5 -122.5z" />
    <glyph glyph-name="D" unicode="D" horiz-adv-x="720" 
d="M78 707h248q96 0 161 -27.5t104.5 -75t57 -112t17.5 -139.5q0 -74 -17.5 -138.5t-58 -112t-105.5 -75t-159 -27.5h-248v707zM341 104q55 0 93.5 18.5t63 52t35.5 79.5t11 100t-11 100t-35 79t-63 52t-95 19h-140v-500h141z" />
    <glyph glyph-name="E" unicode="E" horiz-adv-x="631" 
d="M78 0v707h489v-103h-367v-194h321v-103h-321v-204h367v-103h-489z" />
    <glyph glyph-name="F" unicode="F" horiz-adv-x="610" 
d="M200 288v-288h-122v707h482v-103h-360v-214h316v-102h-316z" />
    <glyph glyph-name="G" unicode="G" horiz-adv-x="691" 
d="M176 353q0 -71 19.5 -120.5t52.5 -80.5t77 -44.5t93 -13.5q22 0 42.5 2t39.5 5v251h118v-328q-26 -10 -59 -17q-28 -7 -65.5 -12t-81.5 -5q-90 0 -157.5 26.5t-112 74t-66.5 114t-22 146.5q0 82 23 149.5t69 115.5t114.5 74.5t158.5 26.5q40 0 74 -5t59 -10q29 -7 52 -15
l-19 -99q-20 7 -45 12q-21 5 -49.5 9t-60.5 4q-52 0 -98 -13.5t-80.5 -44.5t-55 -80.5t-20.5 -121.5z" />
    <glyph glyph-name="H" unicode="H" horiz-adv-x="730" 
d="M529 0v295h-329v-295h-122v707h122v-301h329v301h123v-707h-123z" />
    <glyph glyph-name="I" unicode="I" horiz-adv-x="281" 
d="M79 0v707h123v-707h-123z" />
    <glyph glyph-name="J" unicode="J" horiz-adv-x="444" 
d="M247 707h123v-499q0 -99 -51.5 -158.5t-160.5 -59.5q-29 0 -51 3.5t-37 8.5q-18 5 -30 12l16 96q10 -5 22 -9q11 -4 26 -6.5t33 -2.5q110 0 110 117v498z" />
    <glyph glyph-name="K" unicode="K" horiz-adv-x="668" 
d="M488 0l-235 285h-53v-285h-122v707h122v-318q12 1 21 2t16 3t13 4q9 10 24 28.5t33.5 42.5t39.5 50.5t41 53.5q48 62 102 134h134q-6 -11 -24.5 -37t-44 -60t-55.5 -73t-58 -75t-52 -66.5t-37 -47.5l279 -348h-144z" />
    <glyph glyph-name="L" unicode="L" horiz-adv-x="560" 
d="M78 0v707h122v-602h315v-105h-437z" />
    <glyph glyph-name="M" unicode="M" horiz-adv-x="895" 
d="M256 707l191 -431l192 431h137l58 -707h-123l-38 453l-2 75l-180 -392h-87l-180 391l-2 -74l-37 -453h-124l58 707h137z" />
    <glyph glyph-name="N" unicode="N" horiz-adv-x="737" 
d="M542 0l-350 503l5 -74v-429h-119v707h116l351 -512l-5 73v439h120v-707h-118z" />
    <glyph glyph-name="O" unicode="O" horiz-adv-x="771" 
d="M383 -10q-80 0 -141 25t-103 72t-63.5 114t-21.5 150q0 85 22 153t65 115t104.5 72.5t141.5 25.5q79 0 140.5 -25t103.5 -72t64 -114t22 -150q0 -84 -22 -151.5t-64.5 -115.5t-105 -73.5t-142.5 -25.5zM387 92q97 0 152.5 67t55.5 195t-54.5 194.5t-153.5 66.5
q-100 0 -155.5 -67t-55.5 -194q0 -128 56 -195t155 -67z" />
    <glyph glyph-name="P" unicode="P" horiz-adv-x="669" 
d="M78 0v707h274q76 0 126.5 -18t81 -49t43 -73t12.5 -90q0 -47 -12.5 -89.5t-43 -75t-81 -51.5t-126.5 -19h-152v-242h-122zM348 345q43 0 70.5 10t44 27.5t23 41.5t6.5 52t-6.5 51.5t-23 40.5t-44 26.5t-70.5 9.5h-148v-259h148z" />
    <glyph glyph-name="Q" unicode="Q" horiz-adv-x="771" 
d="M584 -201q-8 -3 -33 -8t-54 -5q-53 0 -85.5 19t-49.5 46.5t-22.5 60t-5.5 59.5v22q-68 7 -120 35.5t-87.5 74.5t-54 108.5t-18.5 139.5q0 85 22 153t65 115t104.5 72.5t141.5 25.5q79 0 140.5 -25t103.5 -72t64 -114t22 -150q0 -157 -74.5 -253t-214.5 -110
q2 -57 22 -82.5t67 -25.5q24 0 41 5q9 2 16 5zM387 92q97 0 152.5 67t55.5 195t-54.5 194.5t-153.5 66.5q-100 0 -155.5 -67t-55.5 -194q0 -128 56 -195t155 -67z" />
    <glyph glyph-name="R" unicode="R" horiz-adv-x="683" 
d="M355 707q76 0 126.5 -16.5t81 -46.5t43 -71t12.5 -89q0 -71 -32.5 -125.5t-108.5 -78.5l156 -280h-134l-143 262h-156v-262h-122v707h277zM200 362h143q45 0 74.5 8t47 24t24.5 38t7 51q0 28 -7 50.5t-24.5 38.5t-47 24.5t-74.5 8.5h-143v-243z" />
    <glyph glyph-name="S" unicode="S" horiz-adv-x="604" 
d="M87 132q22 -12 51 -22q25 -8 61 -14.5t82 -6.5q76 0 112 24.5t36 72.5q0 27 -11 45t-29 30.5t-42 20.5t-51 16q-39 12 -81.5 27t-78 40.5t-59 63t-23.5 94.5q0 48 19 84.5t53.5 61t82 36.5t105.5 12q53 0 92.5 -7.5t66.5 -15.5q32 -10 55 -22l-34 -90q-21 10 -47 18
q-23 7 -56 12.5t-75 5.5q-141 0 -141 -90q0 -24 9.5 -39.5t29.5 -28t50.5 -23.5t72.5 -24q41 -13 79.5 -29t68 -40t47.5 -59t18 -87q0 -103 -71.5 -155.5t-195.5 -52.5q-56 0 -97.5 7.5t-70.5 16.5q-33 11 -58 25z" />
    <glyph glyph-name="T" unicode="T" horiz-adv-x="627" 
d="M252 0v599h-227v108h577v-108h-226v-599h-124z" />
    <glyph glyph-name="U" unicode="U" horiz-adv-x="724" 
d="M529 707h122v-417q0 -74 -16 -130t-50.5 -93.5t-89.5 -57t-133 -19.5t-133 19.5t-89.5 57t-50 93.5t-15.5 130v417h122v-421q0 -45 8 -80.5t27 -61t51 -39t80 -13.5q49 0 81 13.5t51 39t27 61t8 80.5v421z" />
    <glyph glyph-name="V" unicode="V" horiz-adv-x="693" 
d="M151 707l171 -510l25 -89l24 89l173 510h125l-244 -707h-157l-243 707h126z" />
    <glyph glyph-name="W" unicode="W" horiz-adv-x="982" 
d="M153 707l115 -488l18 -88l20 88l130 488h111l129 -487l20 -89l17 89l116 487h128l-180 -707h-140l-127 458l-19 80l-19 -79l-127 -459h-140l-180 707h128z" />
    <glyph glyph-name="X" unicode="X" horiz-adv-x="720" 
d="M542 0l-181 259l-184 -259h-139l250 354l-243 353h140l177 -268l184 268h136l-249 -360l249 -347h-140z" />
    <glyph glyph-name="Y" unicode="Y" horiz-adv-x="678" 
d="M278 0v266l-253 441h131l154 -274l30 -63l31 65l150 272h133l-253 -440v-267h-123z" />
    <glyph glyph-name="Z" unicode="Z" horiz-adv-x="640" 
d="M59 0v103l372 506l-67 -4h-299v102h512v-103l-374 -506l70 4h309v-102h-523z" />
    <glyph glyph-name="bracketleft" unicode="[" horiz-adv-x="374" 
d="M88 -179v949h244v-104h-130v-741h125v-104h-239z" />
    <glyph glyph-name="backslash" unicode="\" horiz-adv-x="451" 
d="M297 0l-257 707h115l256 -707h-114z" />
    <glyph glyph-name="bracketright" unicode="]" horiz-adv-x="374" 
d="M47 -179v104h126v741h-130v104h243v-949h-239z" />
    <glyph glyph-name="asciicircum" unicode="^" horiz-adv-x="538" 
d="M373 460l-107 172l-107 -172h-113l164 271h113l164 -271h-114z" />
    <glyph glyph-name="underscore" unicode="_" horiz-adv-x="554" 
d="M0 -155v98h554v-98h-554z" />
    <glyph glyph-name="grave" unicode="`" horiz-adv-x="305" 
d="M164 592l-122 159h128l92 -159h-98z" />
    <glyph glyph-name="a" unicode="a" horiz-adv-x="561" 
d="M83 501q24 10 56 18q27 7 64 12.5t82 5.5q48 0 86.5 -9t66.5 -30t43 -56.5t15 -88.5v-353h-96l-11 58q-17 -19 -43 -34q-22 -13 -54 -23.5t-74 -10.5q-77 0 -122.5 39.5t-45.5 108.5q0 43 17 74t48 51t75 29.5t97 9.5q26 0 51.5 -1.5t36.5 -3.5v46q0 48 -25 73t-92 25
q-35 0 -63.5 -5.5t-49.5 -11.5q-25 -8 -44 -17zM375 215q-10 2 -29.5 4t-47.5 2q-26 0 -49.5 -3t-41 -11.5t-28 -23t-10.5 -37.5q0 -22 8.5 -35t21.5 -20t27 -9.5t26 -2.5q29 0 52 8t39 19q18 11 32 27v82z" />
    <glyph glyph-name="b" unicode="b" horiz-adv-x="599" 
d="M71 731h120v-194l-3 -65q18 18 42 32q20 12 49.5 22.5t67.5 10.5q46 0 83.5 -18t64.5 -52t42 -83t15 -111q0 -141 -76 -212t-210 -71q-43 0 -78.5 5.5t-61.5 12.5q-31 8 -55 18v705zM191 99q12 -4 26 -8q12 -3 28.5 -5t35.5 -2q75 0 112.5 44t37.5 137q0 83 -30 128.5
t-88 45.5q-27 0 -49 -8.5t-39 -19.5q-19 -12 -34 -27v-285z" />
    <glyph glyph-name="c" unicode="c" horiz-adv-x="505" 
d="M434 420q-13 6 -30 10q-14 4 -33 7.5t-42 3.5q-33 0 -62.5 -9t-51.5 -29.5t-35 -54.5t-13 -85t13 -85t35 -54.5t51.5 -29t62.5 -8.5q23 0 42 3t33 7q17 4 30 10l19 -90q-17 -8 -39 -13q-19 -5 -45.5 -9t-58.5 -4q-59 0 -107.5 16.5t-83 50.5t-53.5 85t-19 120t19 121
t54 86t84 51t108 17q32 0 58 -4t45 -9q21 -6 38 -13l-19 -91v0z" />
    <glyph glyph-name="d" unicode="d" horiz-adv-x="599" 
d="M430 0l-14 62q-16 -20 -41 -36q-21 -14 -52 -25t-73 -11q-44 0 -81.5 17.5t-64.5 51t-42 82.5t-15 112q0 72 19 125t54 88.5t84 53t109 17.5q37 0 64.5 -7.5t31.5 -8.5l-1 31v179h120v-731h-98zM408 426q-12 4 -26 8q-12 3 -29 5.5t-37 2.5q-73 0 -111 -44.5t-38 -135.5
q0 -85 31.5 -129.5t87.5 -44.5q27 0 49 8t39 19q18 12 34 28v283z" />
    <glyph glyph-name="e" unicode="e" horiz-adv-x="568" 
d="M491 26q-23 -10 -51 -18q-25 -7 -58.5 -12.5t-75.5 -5.5q-70 0 -119 19.5t-80 54.5t-45.5 84.5t-14.5 108.5q0 64 16 115.5t47.5 88t78 56.5t106.5 20q56 0 97.5 -16.5t68.5 -46t40.5 -70t13.5 -87.5q0 -17 -1 -31.5t-3 -26.5q-2 -14 -4 -26h-339q3 -83 45 -116.5
t113 -33.5q32 0 59 5t47 11q23 7 41 16zM398 326q0 58 -27 89.5t-81 31.5q-51 0 -83.5 -31t-37.5 -100h229v10z" />
    <glyph glyph-name="f" unicode="f" horiz-adv-x="408" 
d="M95 0v431h-68v96h68v29q0 60 18 96t46 56t62.5 26.5t67.5 6.5q25 0 43.5 -2.5t31.5 -5.5q15 -4 25 -7l-18 -92l-15 5q-8 2 -20 4t-29 2q-19 0 -35.5 -3.5t-29 -13.5t-19.5 -28.5t-7 -48.5v-24h150v-96h-150v-431h-121z" />
    <glyph glyph-name="g" unicode="g" horiz-adv-x="598" 
d="M474 440q11 -11 19 -34t8 -52q0 -38 -14.5 -69.5t-43 -54.5t-71 -36t-98.5 -13q-15 0 -30 1t-26 3q-11 -3 -19 -12.5t-8 -20.5q0 -10 9 -17.5t36 -9.5l125 -7q34 -2 69 -8.5t63 -22t45.5 -41.5t17.5 -68q0 -37 -15.5 -71.5t-50.5 -61.5t-90.5 -43t-135.5 -16
q-114 0 -173.5 33.5t-59.5 99.5q0 29 10.5 50.5t26 36.5t32 24t28.5 13q-28 15 -38.5 36t-10.5 40t6.5 33.5t16.5 26t21 18.5t19 11q-17 8 -33.5 21.5t-29.5 32t-21 42.5t-8 54q0 43 17 76.5t47.5 56.5t72.5 34.5t91 11.5q78 0 133 -26l152 17l5 -84zM210 25q-17 -7 -30 -18
q-11 -10 -20.5 -25.5t-9.5 -37.5q0 -16 6 -29.5t21 -24t39.5 -16.5t60.5 -6q75 0 119 24.5t44 65.5q0 35 -32.5 47t-82.5 15zM387 357q0 25 -9 44t-24.5 31.5t-35.5 18.5t-42 6q-48 0 -80.5 -25.5t-32.5 -76.5q0 -48 30.5 -71t81.5 -23q56 0 84 25.5t28 70.5z" />
    <glyph glyph-name="h" unicode="h" 
d="M191 731v-201l-2 -60q3 3 16 14t35 23t52.5 21t69.5 9q88 0 133 -52t45 -141v-344h-121v335q0 50 -22 77.5t-72 27.5q-29 0 -53.5 -8.5t-42.5 -19.5q-21 -12 -38 -27v-385h-120v731h120z" />
    <glyph glyph-name="i" unicode="i" horiz-adv-x="262" 
d="M71 0v527h120v-527h-120zM202 673q0 -29 -16.5 -48t-54.5 -19t-54.5 19t-16.5 48t16.5 47t54.5 18t54.5 -18t16.5 -47z" />
    <glyph glyph-name="j" unicode="j" horiz-adv-x="273" 
d="M-46 -111q6 -2 13 -4q6 -2 15 -3t20 -1q39 0 60 22t21 78v546h119v-546q0 -102 -48.5 -148.5t-129.5 -46.5q-17 0 -31 1t-25 3q-13 2 -24 5zM212 672q0 -66 -71 -66q-37 0 -53.5 17.5t-16.5 47.5t16.5 48t54.5 18q40 0 55 -18.5t15 -46.5z" />
    <glyph glyph-name="k" unicode="k" horiz-adv-x="567" 
d="M403 0q0 1 -8 10.5t-21 25.5t-29 35.5t-33 39.5l-90 108h-31v-219h-120v732h120v-427q11 2 20.5 4t14.5 4q6 6 16.5 18t24 28t28.5 34.5t30 37.5q35 44 76 96h131q-4 -9 -18 -28t-32.5 -43t-40.5 -51.5t-43 -53.5t-39.5 -48.5t-30.5 -36.5l219 -266h-144z" />
    <glyph glyph-name="l" unicode="l" horiz-adv-x="327" 
d="M300 6q-5 -3 -28 -9.5t-61 -6.5q-40 0 -66.5 11t-43 31.5t-23.5 49t-7 63.5v586h120v-574q0 -38 15 -54.5t46 -16.5q9 0 17 0.5t13 1.5q6 1 11 3z" />
    <glyph glyph-name="m" unicode="m" horiz-adv-x="927" 
d="M168 527l14 -61q17 19 43 35q21 14 53 25t74 11q54 0 90.5 -19.5t57.5 -54.5q3 3 17.5 15t39 25t58 23.5t74.5 10.5q88 0 130.5 -52t42.5 -141v-344h-121v335q0 50 -20 77.5t-69 27.5q-27 0 -50 -8t-39.5 -17.5t-26.5 -18.5t-13 -11q2 -8 2.5 -21.5t0.5 -22.5v-341h-121
v335q0 50 -20.5 77.5t-69.5 27.5q-29 0 -52 -8.5t-39 -19.5q-18 -12 -33 -27v-385h-120v527h97z" />
    <glyph glyph-name="n" unicode="n" 
d="M168 527l14 -61q21 19 48 35q23 14 56.5 25t75.5 11q88 0 133 -52t45 -141v-344h-121v335q0 50 -22 77.5t-72 27.5q-29 0 -53.5 -8.5t-42.5 -19.5q-21 -12 -38 -27v-385h-120v527h97z" />
    <glyph glyph-name="o" unicode="o" horiz-adv-x="606" 
d="M303 -10q-62 0 -109.5 19.5t-80 55t-49.5 86.5t-17 114q0 62 17 112t49.5 85.5t80 55t109.5 19.5t109.5 -19t80 -54.5t49.5 -86t17 -112.5q0 -63 -17 -113.5t-49.5 -86.5t-80 -55.5t-109.5 -19.5zM303 85q65 0 100 45t35 133t-35 133.5t-100 45.5t-100.5 -45.5
t-35.5 -133.5t35.5 -133t100.5 -45z" />
    <glyph glyph-name="p" unicode="p" horiz-adv-x="599" 
d="M169 527l13 -62q17 20 42 36q21 14 51.5 25t70.5 11q46 0 84 -17.5t65 -50.5t42 -82t15 -112q0 -72 -19.5 -125.5t-54 -89t-83 -53t-105.5 -17.5q-43 0 -70 7.5t-30 8.5l1 -31v-184h-120v736h98zM191 101q12 -4 26 -8q12 -3 28 -5.5t36 -2.5q150 0 150 180
q0 85 -31.5 129.5t-88.5 44.5q-26 0 -48 -8.5t-38 -19.5q-18 -12 -34 -27v-283z" />
    <glyph glyph-name="q" unicode="q" horiz-adv-x="599" 
d="M528 -204h-120v194l3 65q-19 -19 -43 -33q-21 -12 -50 -22t-67 -10q-46 0 -83.5 18t-64.5 52t-41.5 83t-14.5 111q0 141 75.5 212t210.5 71q42 0 78 -5.5t62 -12.5q31 -8 55 -18v-705zM408 428q-13 3 -27 7q-13 3 -29 5.5t-35 2.5q-74 0 -112 -44t-38 -137
q0 -83 30.5 -128.5t88.5 -45.5q26 0 48 8t39 19q19 12 35 28v285z" />
    <glyph glyph-name="r" unicode="r" horiz-adv-x="394" 
d="M168 527l14 -62q26 29 69.5 50.5t112.5 21.5l-4 -106h-6q-3 0 -7 0.5t-9 0.5q-60 0 -96.5 -18t-50.5 -37v-377h-120v527h97z" />
    <glyph glyph-name="s" unicode="s" horiz-adv-x="496" 
d="M72 118q18 -10 42 -18q20 -7 49 -12t65 -5q105 0 105 59q0 16 -7.5 26t-21.5 17t-34 12.5t-45 12.5q-34 9 -66 21t-57 31t-40 47t-15 69q0 75 53.5 117t159.5 42q40 0 70.5 -5.5t52.5 -11.5q25 -7 44 -16l-24 -88q-16 7 -37 13q-18 5 -43 9.5t-55 4.5q-51 0 -78 -13.5
t-27 -41.5q0 -16 9 -27t24 -18.5t35 -13t43 -11.5q36 -9 68 -21t55.5 -31t37.5 -47t14 -68q0 -81 -56.5 -121t-162.5 -40q-44 0 -77.5 5.5t-56.5 12.5q-27 8 -48 18z" />
    <glyph glyph-name="t" unicode="t" horiz-adv-x="415" 
d="M375 13q-15 -7 -33 -12q-16 -5 -37.5 -8t-47.5 -3q-74 0 -117.5 39t-43.5 132v270h-69v96h72l14 140h105v-140h150l-4 -96h-146v-270q0 -74 76 -74q15 0 27.5 2.5t21.5 5.5q11 4 19 8z" />
    <glyph glyph-name="u" unicode="u" 
d="M187 527v-335q0 -50 22 -77.5t71 -27.5q29 0 53.5 8t42.5 19q21 12 39 28v385h120v-527h-98l-14 61q-21 -20 -48 -36q-23 -14 -56 -24.5t-75 -10.5q-89 0 -133.5 52t-44.5 141v344h121z" />
    <glyph glyph-name="v" unicode="v" horiz-adv-x="555" 
d="M147 527l111 -333l19 -102l21 102l110 333h123l-178 -527h-151l-178 527h123z" />
    <glyph glyph-name="w" unicode="w" horiz-adv-x="833" 
d="M143 527l88 -329l18 -107l18 108l94 328h112l93 -330l20 -106l16 108l89 328h123l-150 -527h-139l-83 272l-26 122l-25 -122l-82 -272h-139l-151 527h124z" />
    <glyph glyph-name="x" unicode="x" horiz-adv-x="549" 
d="M151 527l123 -184l123 184h130l-179 -265l180 -262h-130l-124 182l-123 -182h-130l180 262l-179 265h129z" />
    <glyph glyph-name="y" unicode="y" horiz-adv-x="553" 
d="M39 -110q6 -3 14 -5q7 -2 17 -3t22 -1q31 0 51.5 11.5t34.5 29t22.5 38.5t16.5 41l-193 526h126l102 -317l22 -102l132 419h122l-195 -538q-18 -49 -38.5 -86.5t-47.5 -63.5t-62 -39.5t-82 -13.5q-35 0 -58 5q-12 2 -22 5z" />
    <glyph glyph-name="z" unicode="z" horiz-adv-x="528" 
d="M66 527h403l4 -97l-274 -337l60 3h211v-96h-415v97l273 337l-60 -3h-202v96z" />
    <glyph glyph-name="braceleft" unicode="{" horiz-adv-x="365" 
d="M333 -93q0 -10 -0.5 -25.5t-0.5 -30.5v-37q-59 0 -98.5 11.5t-63 34t-33 56t-9.5 78.5v157q0 19 -4 36.5t-14.5 31.5t-27.5 22.5t-42 8.5v82q25 0 42 8.5t27 22.5t14.5 31.5t4.5 36.5v157q0 45 9.5 79t33 56.5t63 34t98.5 11.5v-38q0 -15 0.5 -31t0.5 -25q-30 0 -48 -6
t-28 -17.5t-13 -29t-3 -40.5v-161q0 -54 -23 -84.5t-57 -46.5q34 -14 57 -44.5t23 -84.5v-160q0 -23 3 -40.5t13 -29.5t28 -18t48 -6z" />
    <glyph glyph-name="bar" unicode="|" horiz-adv-x="344" 
d="M120 -204v945h103v-945h-103z" />
    <glyph glyph-name="braceright" unicode="}" horiz-adv-x="365" 
d="M33 -93q30 0 47.5 6t27.5 18t13 29.5t3 40.5v160q0 54 23 84.5t58 45.5q-35 15 -58 45.5t-23 84.5v161q0 23 -3 40.5t-13 29t-27.5 17.5t-47.5 6v94q59 0 98.5 -11.5t63 -34t33 -56.5t9.5 -79v-157q0 -19 4.5 -36.5t14.5 -31.5t27 -22.5t42 -8.5v-82q-25 0 -42 -8.5
t-27 -22.5t-14.5 -31.5t-4.5 -36.5v-157q0 -45 -9.5 -78.5t-33 -56t-63 -34t-98.5 -11.5v93z" />
    <glyph glyph-name="asciitilde" unicode="~" horiz-adv-x="580" 
d="M63 202q-4 13 -5.5 28t-1.5 29q0 26 7.5 49t23 40.5t38.5 27.5t54 10q34 0 63.5 -12.5t55 -27.5t47 -27.5t41.5 -12.5q19 0 26.5 12t7.5 29q0 10 -2 18.5t-6 19.5h104q4 -12 5.5 -27.5t1.5 -28.5q0 -26 -7.5 -49t-22.5 -40.5t-38.5 -28t-54.5 -10.5q-35 0 -63.5 12.5
t-53 28t-46 28t-41.5 12.5q-18 0 -27 -11.5t-9 -30.5q0 -8 2 -18t5 -20h-104z" />
    <glyph glyph-name="uni00A0" unicode="&#xa0;" horiz-adv-x="210" 
 />
    <glyph glyph-name="exclamdown" unicode="&#xa1;" horiz-adv-x="300" 
d="M82 -204l12 535h112l12 -535h-136zM224 468q0 -30 -17 -50t-56 -20t-56 20t-17 50t17 49.5t56 19.5t56 -19.5t17 -49.5z" />
    <glyph glyph-name="cent" unicode="&#xa2;" horiz-adv-x="523" 
d="M440 502q-13 5 -30 9q-14 4 -33.5 7t-42.5 3q-33 0 -62.5 -8.5t-51 -28t-34.5 -52t-13 -81.5t13 -81.5t35 -52t52 -27.5t63 -8q23 0 41.5 2.5t32.5 6.5q16 4 30 9l18 -88q-13 -6 -31 -10q-15 -4 -35.5 -7.5t-46.5 -5.5v-89h-90v92q-92 15 -147.5 78t-55.5 181
q0 117 55.5 180.5t147.5 78.5v97h90v-93q26 -2 47.5 -5.5t35.5 -7.5q17 -4 30 -9l-18 -90v0z" />
    <glyph glyph-name="sterling" unicode="&#xa3;" horiz-adv-x="617" 
d="M554 55q-17 -25 -53 -40t-79 -15q-25 0 -48 5t-45.5 11.5t-46 11.5t-48.5 5q-23 0 -43 -5.5t-34 -11.5q-17 -7 -31 -16l-55 102q26 17 41.5 72t17.5 134h-75v90h76q-2 15 -4 29q-2 12 -2.5 26t-0.5 25q0 57 14.5 101.5t45 75t78 46.5t114.5 16q35 0 63 -4t47 -9
q22 -5 38 -12l-21 -94q-12 5 -28 9q-14 3 -33.5 6t-45.5 3q-71 0 -111 -29.5t-40 -102.5q0 -11 0.5 -25.5t2.5 -28.5q1 -16 3 -32h188v-90h-192q-2 -63 -15 -109.5t-33 -77.5q4 1 21 5.5t37 4.5q25 0 45.5 -4.5t39 -9.5t38 -9.5t42.5 -4.5t38.5 5t26.5 11q12 7 21 16z" />
    <glyph glyph-name="currency" unicode="&#xa4;" horiz-adv-x="649" 
d="M533 64l-102 104q-47 -27 -116 -27q-62 0 -103 22l-95 -99l-75 74l97 92q-15 23 -23.5 52.5t-8.5 64.5q0 69 32 116l-97 92l75 72l94 -99q47 26 109 26q67 0 114 -30l99 103l74 -72l-103 -98q12 -23 19 -50t7 -58q0 -65 -28 -112l105 -99zM319 235q51 0 78.5 29t27.5 84
t-27.5 83.5t-78.5 28.5q-50 0 -78.5 -28.5t-28.5 -84.5q0 -54 27.5 -83t79.5 -29z" />
    <glyph glyph-name="yen" unicode="&#xa5;" horiz-adv-x="652" 
d="M388 131v-131h-124v131h-174v78h174v67h-174v77h148l-201 354h135l154 -302l151 302h137l-201 -354h145v-77h-170v-67h170v-78h-170z" />
    <glyph glyph-name="brokenbar" unicode="&#xa6;" horiz-adv-x="344" 
d="M120 -204v376h103v-376h-103zM120 366v375h103v-375h-103z" />
    <glyph glyph-name="section" unicode="&#xa7;" horiz-adv-x="606" 
d="M104 -85q19 -9 45 -15q22 -6 52.5 -10.5t68.5 -4.5q77 0 111.5 23.5t34.5 68.5q0 25 -9.5 42t-26 28t-39.5 19t-50 15q-32 9 -70.5 22t-72 35t-56.5 55.5t-23 84.5q0 52 22.5 85t48.5 51q-32 23 -51.5 57.5t-19.5 87.5q0 182 252 182q44 0 78 -5t58 -11q28 -7 49 -15
l-21 -94q-19 7 -44 13q-21 5 -49.5 9t-63.5 4q-68 0 -104 -19t-36 -66q0 -22 8.5 -37t26.5 -26.5t46 -21t67 -21.5q31 -9 66.5 -23t65.5 -35.5t49.5 -54t19.5 -78.5q0 -43 -18.5 -75.5t-48.5 -57.5q30 -23 48.5 -56t18.5 -86q0 -46 -14.5 -83t-46 -62.5t-81 -39.5
t-119.5 -14q-45 0 -80.5 4.5t-60.5 10.5q-30 7 -52 16zM291 350q-14 4 -27 8t-27 9q-19 -11 -34 -29.5t-15 -46.5q0 -24 10.5 -40t30 -27.5t46.5 -21t61 -19.5q8 -3 17 -5.5t17 -4.5q46 22 46 70q0 26 -11 43.5t-29 29.5t-40.5 19.5t-44.5 14.5z" />
    <glyph glyph-name="dieresis" unicode="&#xa8;" horiz-adv-x="423" 
d="M168 675q0 -26 -14 -43.5t-49 -17.5q-33 0 -48 17t-15 44q0 26 15 43.5t48 17.5q35 0 49 -17.5t14 -43.5zM380 675q0 -26 -14.5 -43.5t-47.5 -17.5q-35 0 -49 17t-14 44q0 26 14 43.5t49 17.5q33 0 47.5 -17.5t14.5 -43.5z" />
    <glyph glyph-name="copyright" unicode="&#xa9;" horiz-adv-x="849" 
d="M424 740q82 0 150 -26t117 -74.5t75.5 -118t26.5 -156.5t-26.5 -156t-75.5 -117t-117 -74t-150 -26q-83 0 -150.5 26t-116 74t-75 117t-26.5 156t26.5 156.5t75 118t116 74.5t150.5 26zM424 655q-65 0 -117 -19.5t-88 -56.5t-55.5 -91t-19.5 -123t19.5 -122.5t55.5 -91
t88 -57t117 -19.5q64 0 116 19.5t89 57t56.5 91t19.5 122.5t-19.5 123t-56.5 91t-89 56.5t-116 19.5zM516 479q-11 2 -22 5q-10 2 -23 4t-28 2q-32 0 -55 -9.5t-37.5 -26.5t-21 -40t-6.5 -50q0 -54 28 -90t88 -36q16 0 30 2t25 5q12 3 24 7l12 -71q-1 -1 -9.5 -4.5t-22.5 -7
t-32 -6t-37 -2.5q-41 0 -76 12t-61.5 37t-41.5 63t-15 91q0 54 16 92.5t43 63t63 36.5t77 12q38 0 64 -7t31 -9z" />
    <glyph glyph-name="ordfeminine" unicode="&#xaa;" horiz-adv-x="455" 
d="M50 188v79h355v-79h-355zM318 330l-8 44q-17 -23 -51.5 -37t-76.5 -14q-64 0 -95.5 29.5t-31.5 78.5q0 31 13 54t36 38t54.5 22t68.5 7q14 0 27 -1t23 -2q11 -2 21 -3v33q0 61 -89 61q-26 0 -46.5 -3.5t-36.5 -8.5q-18 -5 -33 -11l-14 76q10 5 50.5 15t96.5 10
q32 0 62.5 -5.5t54 -20.5t38 -40.5t14.5 -64.5v-257h-77zM298 483l-15 3q-8 1 -18 2t-24 1q-43 0 -66 -12.5t-23 -39.5q0 -15 7 -24t16.5 -13.5t19.5 -6t16 -1.5q37 0 59.5 14.5t27.5 25.5v51z" />
    <glyph glyph-name="guillemotleft" unicode="&#xab;" horiz-adv-x="606" 
d="M188 100l-118 186l118 186h118l-117 -187l117 -185h-118zM417 100l-117 186l117 186h119l-118 -187l118 -185h-119z" />
    <glyph glyph-name="logicalnot" unicode="&#xac;" horiz-adv-x="629" 
d="M466 72v176h-411v103h514v-279h-103z" />
    <glyph glyph-name="uni00AD" unicode="&#xad;" horiz-adv-x="391" 
d="M55 247v104h281v-104h-281z" />
    <glyph glyph-name="registered" unicode="&#xae;" horiz-adv-x="832" 
d="M495 175l-69 132h-73v-132h-83v380h164q42 0 69.5 -10t44 -27.5t23 -39.5t6.5 -46q0 -35 -16 -66t-57 -46l81 -145h-90zM424 369q39 0 54 17t15 46q0 26 -15 43.5t-54 17.5h-71v-124h71zM419 -8q-83 0 -150.5 26t-116 74t-75 117t-26.5 156t26.5 156.5t75 118t116 74.5
t150.5 26q82 0 150 -26t116.5 -74.5t75 -118t26.5 -156.5t-26.5 -156t-75 -117t-116.5 -74t-150 -26zM419 75q64 0 116 19.5t89 57t56.5 91t19.5 122.5t-19.5 123t-56.5 91t-89 56.5t-116 19.5q-65 0 -117 -19.5t-88.5 -56.5t-56 -91t-19.5 -123t19.5 -122.5t56 -91
t88.5 -57t117 -19.5z" />
    <glyph glyph-name="macron" unicode="&#xaf;" horiz-adv-x="395" 
d="M42 612v87h311v-87h-311z" />
    <glyph glyph-name="degree" unicode="&#xb0;" horiz-adv-x="395" 
d="M198 457q-73 0 -110 40.5t-37 101.5q0 62 39 102t109 40t107.5 -40t37.5 -101q0 -62 -36.5 -102.5t-109.5 -40.5zM198 525q30 0 48 18.5t18 56.5q0 37 -18 55.5t-48 18.5t-48.5 -18.5t-18.5 -55.5q0 -38 18 -56.5t49 -18.5z" />
    <glyph glyph-name="plusminus" unicode="&#xb1;" horiz-adv-x="608" 
d="M354 400v-188h-99v188h-198v100h198v187h99v-187h196v-100h-196zM57 40v100h493v-100h-493z" />
    <glyph glyph-name="uni00B2" unicode="&#xb2;" horiz-adv-x="380" 
d="M45 378l-6 72q28 20 64.5 42.5t69 48t55 55t22.5 62.5q0 70 -94 70q-22 0 -40 -3t-31 -7q-15 -4 -27 -10l-13 66q18 7 39 12q18 5 42 9t53 4q44 0 74.5 -10.5t50 -28.5t28 -42t8.5 -51q0 -45 -24.5 -83t-56 -67t-61 -47.5t-39.5 -24.5l52 4h126v-71h-292z" />
    <glyph glyph-name="uni00B3" unicode="&#xb3;" horiz-adv-x="378" 
d="M46 458q10 -5 25 -9q13 -4 31.5 -6.5t44.5 -2.5q47 0 75.5 11.5t28.5 48.5q0 32 -24.5 45t-78.5 13q-9 0 -17 -0.5t-13 -0.5q-6 -1 -11 -1v64q3 -1 8 -1h25q20 0 39 1.5t33.5 7.5t23 17.5t8.5 30.5q0 30 -23.5 42t-71.5 12q-22 0 -39.5 -2.5t-30.5 -4.5q-15 -4 -26 -7
l-11 63q15 6 34 10q17 4 39.5 7t51.5 3q87 0 125 -28t38 -77q0 -71 -71 -99q36 -10 57.5 -33.5t21.5 -69.5q0 -60 -47.5 -90t-136.5 -30q-28 0 -49.5 2.5t-36.5 5.5q-18 4 -32 9z" />
    <glyph glyph-name="acute" unicode="&#xb4;" horiz-adv-x="305" 
d="M42 592l92 159h128l-121 -159h-99z" />
    <glyph glyph-name="uni00B5" unicode="&#xb5;" horiz-adv-x="611" 
d="M191 527v-330q0 -51 22 -77.5t72 -26.5q27 0 50 7.5t41 17t29.5 18t14.5 10.5v381h120v-527h-98l-14 67q-20 -20 -46 -36q-23 -14 -54.5 -26t-71.5 -14q-41 0 -65 24v-219h-120v731h120z" />
    <glyph glyph-name="paragraph" unicode="&#xb6;" horiz-adv-x="693" 
d="M515 -204v839h-127v-839h-103v483q-70 0 -117.5 18.5t-76.5 50t-41.5 73t-12.5 87.5q0 48 12.5 89.5t41.5 72t76.5 48.5t117.5 18h333v-940h-103z" />
    <glyph glyph-name="periodcentered" unicode="&#xb7;" horiz-adv-x="252" 
d="M197 287q0 -29 -16.5 -48.5t-54.5 -19.5t-54.5 19t-16.5 49q0 29 16.5 48.5t54.5 19.5t54.5 -19.5t16.5 -48.5z" />
    <glyph glyph-name="cedilla" unicode="&#xb8;" horiz-adv-x="290" 
d="M44 -157q11 -3 28.5 -6t34.5 -3q24 0 43 7t19 26t-17.5 25.5t-40.5 6.5q-16 0 -32 -2t-30 -5l32 121h72l-21 -66q3 1 8.5 1h7.5q20 0 38 -4t31.5 -13.5t21.5 -26t8 -40.5q0 -44 -31.5 -67.5t-97.5 -23.5q-36 0 -74 8v62z" />
    <glyph glyph-name="uni00B9" unicode="&#xb9;" horiz-adv-x="251" 
d="M107 378v336l-76 -22l-9 61l119 39h53v-414h-87z" />
    <glyph glyph-name="ordmasculine" unicode="&#xba;" horiz-adv-x="469" 
d="M59 187v85h355v-85h-355zM232 322q-50 0 -85 14.5t-56.5 41t-31 62.5t-9.5 79q0 45 11 81.5t34 62.5t58 40t84 14t84 -14t57 -40t32 -62.5t10 -80.5t-10 -80.5t-32 -62.5t-58 -40.5t-88 -14.5zM235 402q88 0 88 119q0 117 -87 117q-90 0 -90 -119q0 -117 89 -117z" />
    <glyph glyph-name="guillemotright" unicode="&#xbb;" horiz-adv-x="606" 
d="M70 100l117 185l-117 187h118l118 -186l-118 -186h-118zM300 100l116 185l-116 187h117l119 -186l-119 -186h-117z" />
    <glyph glyph-name="onequarter" unicode="&#xbc;" horiz-adv-x="917" 
d="M237 293h-87v337l-77 -23l-8 61l120 39h52v-414zM724 707l-475 -707h-80l475 707h80zM695 415h99v-262h58v-64h-58v-89h-86v89h-188l-10 64zM708 153v150l3 32l-127 -182h124z" />
    <glyph glyph-name="onehalf" unicode="&#xbd;" horiz-adv-x="993" 
d="M169 0l475 707h80l-475 -707h-80zM150 293v337l-77 -23l-8 61l120 39h52v-414h-87zM632 0l-6 72q28 20 64.5 42.5t69 48t55 55t22.5 62.5q0 35 -22.5 52.5t-70.5 17.5q-22 0 -40 -3t-31 -7q-16 -4 -28 -10l-12 65q17 7 38 13q18 5 42 9t53 4q44 0 75 -10.5t50.5 -29
t28 -42.5t8.5 -51q0 -29 -11.5 -56t-29.5 -50t-40 -42.5t-42 -34.5t-36 -25t-22 -14l51 4h126v-70h-292z" />
    <glyph glyph-name="threequarters" unicode="&#xbe;" horiz-adv-x="990" 
d="M71 693q15 6 34 10q17 4 40 7t52 3q87 0 125 -28t38 -76q0 -35 -20 -60.5t-57 -39.5q35 -9 59.5 -32.5t24.5 -69.5q0 -60 -47.5 -90.5t-135.5 -30.5q-28 0 -50 2.5t-37 5.5q-18 4 -32 9l10 69q10 -5 25 -9q13 -3 31.5 -5.5t44.5 -2.5q46 0 75 11.5t29 47.5
q0 32 -24.5 45.5t-78.5 13.5q-9 0 -17 -0.5t-13 -0.5q-6 -1 -11 -1v64q4 -1 8 -1q5 -1 25 -1t39 2t33.5 8t23.5 17.5t9 30.5q0 29 -23.5 41.5t-71.5 12.5q-23 0 -40.5 -2.5t-30.5 -5.5q-15 -4 -26 -7zM798 707l-475 -707h-80l475 707h80zM583 153l185 262h100v-262h57v-64
h-57v-89h-86v89h-189zM782 153v150l3 32l-128 -182h125z" />
    <glyph glyph-name="questiondown" unicode="&#xbf;" horiz-adv-x="480" 
d="M355 334q2 -8 4 -19q2 -9 3.5 -21t1.5 -25q0 -49 -15.5 -81t-39 -54t-50.5 -37.5t-50.5 -31.5t-39 -35t-15.5 -49q0 -40 32.5 -61.5t104.5 -21.5q65 0 105 10.5t60 18.5l17 -94q-12 -4 -31 -10t-45 -11.5t-58.5 -9.5t-69.5 -4q-121 0 -179 46t-58 128q0 49 15.5 79.5
t39 52t50.5 37t50.5 34t39 43t15.5 63.5q0 10 -1 19t-2 17q-1 9 -2 17h118zM222 468q0 30 17 49.5t56 19.5t56 -19.5t17 -49.5t-17 -50t-56 -20t-56 20t-17 50z" />
    <glyph glyph-name="Agrave" unicode="&#xc0;" horiz-adv-x="715" 
d="M327 763l-121 159h127l93 -159h-99zM434 707l253 -707h-125l-66 183h-277l-65 -183h-125l253 707h152zM339 525l-92 -249h221l-91 249l-20 72z" />
    <glyph glyph-name="Aacute" unicode="&#xc1;" horiz-adv-x="715" 
d="M295 763l92 159h128l-121 -159h-99zM434 707l253 -707h-125l-66 183h-277l-65 -183h-125l253 707h152zM339 525l-92 -249h221l-91 249l-20 72z" />
    <glyph glyph-name="Acircumflex" unicode="&#xc2;" horiz-adv-x="715" 
d="M409 921l122 -159h-98l-74 95l-75 -95h-96l121 159h100zM434 707l253 -707h-125l-66 183h-277l-65 -183h-125l253 707h152zM339 525l-92 -249h221l-91 249l-20 72z" />
    <glyph glyph-name="Atilde" unicode="&#xc3;" horiz-adv-x="715" 
d="M185 764q-1 4 -2 9t-1.5 11.5t-0.5 15.5q0 21 6 41t18.5 35.5t31.5 24.5t45 9q25 0 44.5 -10t35 -21.5t29.5 -21.5t29 -10q32 0 32 35q0 7 -2 17q-1 4 -2 9h84l2 -12q1 -5 2 -12t1 -13q0 -21 -6 -40.5t-18.5 -35t-32 -24.5t-45.5 -9t-45 10t-34.5 21.5t-29.5 21.5t-29 10
q-16 0 -23.5 -9.5t-7.5 -26.5q0 -5 0.5 -9t1.5 -8l2 -8h-85zM434 707l253 -707h-125l-66 183h-277l-65 -183h-125l253 707h152zM339 525l-92 -249h221l-91 249l-20 72z" />
    <glyph glyph-name="Adieresis" unicode="&#xc4;" horiz-adv-x="715" 
d="M318 845q0 -26 -14 -44t-48 -18t-49 17t-15 45q0 26 15 43t49 17t48 -17t14 -43zM530 845q0 -26 -14.5 -44t-48.5 -18q-35 0 -48.5 17t-13.5 45q0 26 13.5 43t48.5 17q34 0 48.5 -17t14.5 -43zM434 707l253 -707h-125l-66 183h-277l-65 -183h-125l253 707h152zM339 525
l-92 -249h221l-91 249l-20 72z" />
    <glyph glyph-name="Aring" unicode="&#xc5;" horiz-adv-x="715" 
d="M358 752q-59 0 -87.5 29.5t-28.5 80.5q0 53 32 82t87 29q57 0 86 -29t29 -80q0 -53 -29 -82.5t-89 -29.5zM359 815q45 0 45 49q0 47 -43 47q-47 0 -47 -49q0 -47 45 -47zM434 707l253 -707h-125l-66 183h-277l-65 -183h-125l253 707h152zM339 525l-92 -249h221l-91 249
l-20 72z" />
    <glyph glyph-name="AE" unicode="&#xc6;" horiz-adv-x="1030" 
d="M477 0v183h-219l-102 -183h-127l391 707h546v-103h-367v-194h321v-103h-321v-204h367v-103h-489zM477 591l-174 -315h174v315z" />
    <glyph glyph-name="Ccedilla" unicode="&#xc7;" horiz-adv-x="646" 
d="M176 354q0 -73 20.5 -122.5t54.5 -80t79 -44t93 -13.5q29 0 54 3.5t44 8.5q22 5 40 12l18 -99q-19 -8 -44 -14q-21 -5 -51 -9.5t-68 -5.5l-11 -43q3 0 8.5 0.5t7.5 0.5q20 0 38 -4t31.5 -14t21.5 -25.5t8 -38.5q0 -44 -32 -67.5t-95 -23.5q-31 0 -50.5 4.5t-27.5 6.5
l8 58q5 -2 22.5 -6t40.5 -4t41.5 7t18.5 26t-17.5 25.5t-40.5 6.5q-19 0 -37.5 -2.5t-23.5 -4.5l25 101q-150 16 -224 111.5t-74 249.5q0 84 23 151t68 114t111.5 72.5t153.5 25.5q40 0 71 -5t53 -10q26 -6 45 -14l-18 -99q-18 7 -40 12q-19 5 -44.5 8.5t-54.5 3.5
q-48 0 -92.5 -13t-78.5 -43.5t-54.5 -80t-20.5 -122.5z" />
    <glyph glyph-name="Egrave" unicode="&#xc8;" horiz-adv-x="631" 
d="M297 763l-121 159h128l92 -159h-99zM78 0v707h489v-103h-367v-194h321v-103h-321v-204h367v-103h-489z" />
    <glyph glyph-name="Eacute" unicode="&#xc9;" horiz-adv-x="631" 
d="M267 763l92 159h127l-120 -159h-99zM78 0v707h489v-103h-367v-194h321v-103h-321v-204h367v-103h-489z" />
    <glyph glyph-name="Ecircumflex" unicode="&#xca;" horiz-adv-x="631" 
d="M376 921l123 -159h-98l-75 95l-74 -95h-97l122 159h99zM78 0v707h489v-103h-367v-194h321v-103h-321v-204h367v-103h-489z" />
    <glyph glyph-name="Edieresis" unicode="&#xcb;" horiz-adv-x="631" 
d="M286 851q0 -26 -14 -43.5t-49 -17.5q-33 0 -47.5 17t-14.5 44q0 26 14 43t48 17q35 0 49 -17t14 -43zM499 851q0 -26 -15 -43.5t-48 -17.5q-35 0 -49 17t-14 44q0 26 14 43t49 17q33 0 48 -17t15 -43zM78 0v707h489v-103h-367v-194h321v-103h-321v-204h367v-103h-489z
" />
    <glyph glyph-name="Igrave" unicode="&#xcc;" horiz-adv-x="281" 
d="M95 763l-122 159h128l92 -159h-98zM79 0v707h123v-707h-123z" />
    <glyph glyph-name="Iacute" unicode="&#xcd;" horiz-adv-x="282" 
d="M90 763l92 159h128l-122 -159h-98zM79 0v707h123v-707h-123z" />
    <glyph glyph-name="Icircumflex" unicode="&#xce;" horiz-adv-x="281" 
d="M90 921h100l122 -159h-97l-75 95l-74 -95h-97zM202 707v-707h-123v707h123z" />
    <glyph glyph-name="Idieresis" unicode="&#xcf;" horiz-adv-x="280" 
d="M97 850q0 -26 -14 -43.5t-49 -17.5q-33 0 -48 17t-15 44q0 26 14.5 43.5t48.5 17.5q35 0 49 -17.5t14 -43.5zM309 850q0 -26 -14.5 -43.5t-48.5 -17.5q-35 0 -49 17t-14 44q0 26 14 43.5t49 17.5q34 0 48.5 -17.5t14.5 -43.5zM78 0v707h123v-707h-123z" />
    <glyph glyph-name="Eth" unicode="&#xd0;" horiz-adv-x="720" 
d="M15 402h63v305h248q96 0 161 -27.5t104.5 -75t57 -112t17.5 -139.5q0 -74 -17.5 -138.5t-58 -112t-105.5 -75t-159 -27.5h-248v304h-63v98zM341 104q55 0 93.5 18.5t63 52t35.5 79.5t11 100t-11 100t-35 79t-63 52t-95 19h-140v-202h155v-98h-155v-200h141z" />
    <glyph glyph-name="Ntilde" unicode="&#xd1;" horiz-adv-x="737" 
d="M201 764q-1 4 -2 9t-1.5 11.5t-0.5 15.5q0 21 6 41t18.5 35.5t31 24.5t44.5 9q25 0 44.5 -10t35.5 -21.5t30 -21.5t29 -10q32 0 32 35q0 5 -1 9l-2 8t-2 9h84l2 -12q1 -5 2 -12t1 -13q0 -21 -6 -40.5t-18.5 -35t-32 -24.5t-45.5 -9t-45 10t-34 21.5t-28.5 21.5t-29.5 10
t-24 -9.5t-8 -26.5q0 -5 0.5 -9t1.5 -8l2 -8h-84zM542 0l-350 503l5 -74v-429h-119v707h116l351 -512l-5 73v439h120v-707h-118z" />
    <glyph glyph-name="Ograve" unicode="&#xd2;" horiz-adv-x="771" 
d="M351 763l-121 159h127l93 -159h-99zM383 -10q-80 0 -141 25t-103 72t-63.5 114t-21.5 150q0 85 22 153t65 115t104.5 72.5t141.5 25.5q79 0 140.5 -25t103.5 -72t64 -114t22 -150q0 -84 -22 -151.5t-64.5 -115.5t-105 -73.5t-142.5 -25.5zM387 92q97 0 152.5 67t55.5 195
t-54.5 194.5t-153.5 66.5q-100 0 -155.5 -67t-55.5 -194q0 -128 56 -195t155 -67z" />
    <glyph glyph-name="Oacute" unicode="&#xd3;" horiz-adv-x="770" 
d="M322 763l91 159h128l-121 -159h-98zM383 -10q-80 0 -141 25t-103 72t-63.5 114t-21.5 150q0 85 22 153t65 115t104.5 72.5t141.5 25.5q79 0 140.5 -25t103.5 -72t64 -114t22 -150q0 -84 -22 -151.5t-64.5 -115.5t-105 -73.5t-142.5 -25.5zM387 92q97 0 152.5 67t55.5 195
t-54.5 194.5t-153.5 66.5q-100 0 -155.5 -67t-55.5 -194q0 -128 56 -195t155 -67z" />
    <glyph glyph-name="Ocircumflex" unicode="&#xd4;" horiz-adv-x="771" 
d="M430 921l122 -159h-98l-75 95l-74 -95h-98l123 159h100zM383 -10q-80 0 -141 25t-103 72t-63.5 114t-21.5 150q0 85 22 153t65 115t104.5 72.5t141.5 25.5q79 0 140.5 -25t103.5 -72t64 -114t22 -150q0 -84 -22 -151.5t-64.5 -115.5t-105 -73.5t-142.5 -25.5zM387 92
q97 0 152.5 67t55.5 195t-54.5 194.5t-153.5 66.5q-100 0 -155.5 -67t-55.5 -194q0 -128 56 -195t155 -67z" />
    <glyph glyph-name="Otilde" unicode="&#xd5;" horiz-adv-x="771" 
d="M211 764q-1 4 -2 9t-1.5 11.5t-0.5 15.5q0 21 6 41t18.5 35.5t31 24.5t44.5 9q25 0 44.5 -10t35.5 -21.5t30 -21.5t29 -10q32 0 32 35q0 7 -2 17q-1 4 -2 9h84l2 -12q1 -5 2 -12t1 -13q0 -21 -6 -40.5t-19 -35t-32 -24.5t-45 -9q-27 0 -46 10t-34 21.5t-28.5 21.5
t-29.5 10t-24 -9.5t-8 -26.5q0 -5 0.5 -9t1.5 -8t3 -8h-85zM383 -10q-80 0 -141 25t-103 72t-63.5 114t-21.5 150q0 85 22 153t65 115t104.5 72.5t141.5 25.5q79 0 140.5 -25t103.5 -72t64 -114t22 -150q0 -84 -22 -151.5t-64.5 -115.5t-105 -73.5t-142.5 -25.5zM387 92
q97 0 152.5 67t55.5 195t-54.5 194.5t-153.5 66.5q-100 0 -155.5 -67t-55.5 -194q0 -128 56 -195t155 -67z" />
    <glyph glyph-name="Odieresis" unicode="&#xd6;" horiz-adv-x="773" 
d="M339 851q0 -26 -14 -43.5t-48 -17.5t-48.5 17t-14.5 44q0 26 14.5 43t48.5 17t48 -17t14 -43zM552 851q0 -26 -15 -43.5t-48 -17.5q-35 0 -49 17t-14 44q0 26 14 43t49 17q33 0 48 -17t15 -43zM383 -10q-80 0 -141 25t-103 72t-63.5 114t-21.5 150q0 85 22 153t65 115
t104.5 72.5t141.5 25.5q79 0 140.5 -25t103.5 -72t64 -114t22 -150q0 -84 -22 -151.5t-64.5 -115.5t-105 -73.5t-142.5 -25.5zM387 92q97 0 152.5 67t55.5 195t-54.5 194.5t-153.5 66.5q-100 0 -155.5 -67t-55.5 -194q0 -128 56 -195t155 -67z" />
    <glyph glyph-name="multiply" unicode="&#xd7;" horiz-adv-x="570" 
d="M284 262l-159 -160l-68 67l160 161l-160 160l68 68l159 -161l162 161l66 -68l-160 -160l160 -161l-66 -67z" />
    <glyph glyph-name="Oslash" unicode="&#xd8;" horiz-adv-x="771" 
d="M383 -10q-40 0 -80 8l-29 -80h-100l41 110q-79 42 -120 124.5t-41 198.5q0 85 22 153t65 115t104.5 72.5t141.5 25.5q42 0 82 -8l28 74h101l-40 -106q78 -43 118.5 -124.5t40.5 -196.5q0 -84 -22 -151.5t-64.5 -115.5t-105 -73.5t-142.5 -25.5zM176 354
q0 -77 20.5 -131.5t58.5 -86.5l178 475q-20 4 -46 4q-100 0 -155.5 -67t-55.5 -194zM387 92q97 0 152.5 67t55.5 195q0 151 -77 216l-178 -474q20 -4 47 -4z" />
    <glyph glyph-name="Ugrave" unicode="&#xd9;" horiz-adv-x="724" 
d="M326 763l-121 159h128l92 -159h-99zM529 707h122v-417q0 -74 -16 -130t-50.5 -93.5t-89.5 -57t-133 -19.5t-133 19.5t-89.5 57t-50 93.5t-15.5 130v417h122v-421q0 -45 8 -80.5t27 -61t51 -39t80 -13.5q49 0 81 13.5t51 39t27 61t8 80.5v421z" />
    <glyph glyph-name="Uacute" unicode="&#xda;" horiz-adv-x="724" 
d="M303 763l92 159h128l-122 -159h-98zM529 707h122v-417q0 -74 -16 -130t-50.5 -93.5t-89.5 -57t-133 -19.5t-133 19.5t-89.5 57t-50 93.5t-15.5 130v417h122v-421q0 -45 8 -80.5t27 -61t51 -39t80 -13.5q49 0 81 13.5t51 39t27 61t8 80.5v421z" />
    <glyph glyph-name="Ucircumflex" unicode="&#xdb;" horiz-adv-x="724" 
d="M410 921l122 -159h-97l-75 95l-74 -95h-97l121 159h100zM529 707h122v-417q0 -74 -16 -130t-50.5 -93.5t-89.5 -57t-133 -19.5t-133 19.5t-89.5 57t-50 93.5t-15.5 130v417h122v-421q0 -45 8 -80.5t27 -61t51 -39t80 -13.5q49 0 81 13.5t51 39t27 61t8 80.5v421z" />
    <glyph glyph-name="Udieresis" unicode="&#xdc;" horiz-adv-x="724" 
d="M321 851q0 -26 -14 -43.5t-49 -17.5q-33 0 -47.5 17t-14.5 44q0 26 14 43t48 17q35 0 49 -17t14 -43zM534 851q0 -26 -15 -43.5t-48 -17.5q-35 0 -49 17t-14 44q0 26 14 43t49 17q33 0 48 -17t15 -43zM529 707h122v-417q0 -74 -16 -130t-50.5 -93.5t-89.5 -57t-133 -19.5
t-133 19.5t-89.5 57t-50 93.5t-15.5 130v417h122v-421q0 -45 8 -80.5t27 -61t51 -39t80 -13.5q49 0 81 13.5t51 39t27 61t8 80.5v421z" />
    <glyph glyph-name="Yacute" unicode="&#xdd;" horiz-adv-x="678" 
d="M281 763l93 159h127l-121 -159h-99zM278 0v266l-253 441h131l154 -274l30 -63l31 65l150 272h133l-253 -440v-267h-123z" />
    <glyph glyph-name="Thorn" unicode="&#xde;" horiz-adv-x="665" 
d="M200 707v-105h150q76 0 126.5 -18t81 -49t43 -73t12.5 -90q0 -47 -12.5 -89.5t-42.5 -74.5t-80.5 -51t-126.5 -19h-151v-138h-122v707h122zM200 240h146q43 0 70.5 10t44 27.5t23 41.5t6.5 52t-6.5 52t-23 40.5t-44 26t-70.5 9.5h-146v-259z" />
    <glyph glyph-name="germandbls" unicode="&#xdf;" horiz-adv-x="636" 
d="M262 98q9 -4 20 -7q10 -2 23.5 -4t31.5 -2q58 0 94.5 28.5t36.5 99.5q0 63 -32.5 91.5t-107.5 28.5q-14 0 -29.5 -1t-17.5 -2v94q1 0 12 -0.5t22 -0.5q60 0 95 25t35 87q0 54 -29 82.5t-93 28.5q-20 0 -43 -4.5t-42.5 -19t-33 -42t-13.5 -72.5v-508h-120v512q0 69 23 113
t59.5 70t82 36t90.5 10q64 0 109 -16t73 -42.5t41 -61t13 -70.5t-10.5 -64t-25.5 -49t-32 -34t-30 -19q16 -4 37.5 -16t41 -34.5t33 -56.5t13.5 -82q0 -94 -57 -150t-173 -56q-27 0 -48 2.5t-35 5.5q-17 4 -29 8z" />
    <glyph glyph-name="agrave" unicode="&#xe0;" horiz-adv-x="561" 
d="M259 592l-122 159h128l92 -159h-98zM83 501q24 10 56 18q27 7 64 12.5t82 5.5q48 0 86.5 -9t66.5 -30t43 -56.5t15 -88.5v-353h-96l-11 58q-17 -19 -43 -34q-22 -13 -54 -23.5t-74 -10.5q-77 0 -122.5 39.5t-45.5 108.5q0 43 17 74t48 51t75 29.5t97 9.5q26 0 51.5 -1.5
t36.5 -3.5v46q0 48 -25 73t-92 25q-35 0 -63.5 -5.5t-49.5 -11.5q-25 -8 -44 -17zM375 215q-10 2 -29.5 4t-47.5 2q-26 0 -49.5 -3t-41 -11.5t-28 -23t-10.5 -37.5q0 -22 8.5 -35t21.5 -20t27 -9.5t26 -2.5q29 0 52 8t39 19q18 11 32 27v82z" />
    <glyph glyph-name="aacute" unicode="&#xe1;" horiz-adv-x="561" 
d="M213 592l92 159h128l-122 -159h-98zM83 501q24 10 56 18q27 7 64 12.5t82 5.5q48 0 86.5 -9t66.5 -30t43 -56.5t15 -88.5v-353h-96l-11 58q-17 -19 -43 -34q-22 -13 -54 -23.5t-74 -10.5q-77 0 -122.5 39.5t-45.5 108.5q0 43 17 74t48 51t75 29.5t97 9.5q26 0 51.5 -1.5
t36.5 -3.5v46q0 48 -25 73t-92 25q-35 0 -63.5 -5.5t-49.5 -11.5q-25 -8 -44 -17zM375 215q-10 2 -29.5 4t-47.5 2q-26 0 -49.5 -3t-41 -11.5t-28 -23t-10.5 -37.5q0 -22 8.5 -35t21.5 -20t27 -9.5t26 -2.5q29 0 52 8t39 19q18 11 32 27v82z" />
    <glyph glyph-name="acircumflex" unicode="&#xe2;" horiz-adv-x="561" 
d="M333 751l121 -159h-97l-74 94l-75 -94h-97l121 159h101zM83 501q24 10 56 18q27 7 64 12.5t82 5.5q48 0 86.5 -9t66.5 -30t43 -56.5t15 -88.5v-353h-96l-11 58q-17 -19 -43 -34q-22 -13 -54 -23.5t-74 -10.5q-77 0 -122.5 39.5t-45.5 108.5q0 43 17 74t48 51t75 29.5
t97 9.5q26 0 51.5 -1.5t36.5 -3.5v46q0 48 -25 73t-92 25q-35 0 -63.5 -5.5t-49.5 -11.5q-25 -8 -44 -17zM375 215q-10 2 -29.5 4t-47.5 2q-26 0 -49.5 -3t-41 -11.5t-28 -23t-10.5 -37.5q0 -22 8.5 -35t21.5 -20t27 -9.5t26 -2.5q29 0 52 8t39 19q18 11 32 27v82z" />
    <glyph glyph-name="atilde" unicode="&#xe3;" horiz-adv-x="561" 
d="M108 591q-1 4 -2 9t-1.5 11t-0.5 15q0 21 6 41t18 35t31 24t45 9q25 0 44.5 -9.5t35.5 -21.5t30 -21.5t29 -9.5t23 9.5t8 25.5q0 7 -2 17q-1 4 -2 9h84l2 -12q1 -5 2 -11.5t1 -12.5q0 -22 -6 -41.5t-18.5 -34.5t-32 -24t-45.5 -9t-45 9.5t-34 21.5t-29 21.5t-29 9.5
q-16 0 -24 -9.5t-8 -25.5q0 -10 2 -18q1 -4 2 -7h-84zM83 501q24 10 56 18q27 7 64 12.5t82 5.5q48 0 86.5 -9t66.5 -30t43 -56.5t15 -88.5v-353h-96l-11 58q-17 -19 -43 -34q-22 -13 -54 -23.5t-74 -10.5q-77 0 -122.5 39.5t-45.5 108.5q0 43 17 74t48 51t75 29.5t97 9.5
q26 0 51.5 -1.5t36.5 -3.5v46q0 48 -25 73t-92 25q-35 0 -63.5 -5.5t-49.5 -11.5q-25 -8 -44 -17zM375 215q-10 2 -29.5 4t-47.5 2q-26 0 -49.5 -3t-41 -11.5t-28 -23t-10.5 -37.5q0 -22 8.5 -35t21.5 -20t27 -9.5t26 -2.5q29 0 52 8t39 19q18 11 32 27v82z" />
    <glyph glyph-name="adieresis" unicode="&#xe4;" horiz-adv-x="561" 
d="M241 665q0 -26 -14.5 -44t-48.5 -18t-48.5 17.5t-14.5 44.5q0 26 14.5 43.5t48.5 17.5t48.5 -17.5t14.5 -43.5zM452 665q0 -26 -14.5 -44t-47.5 -18q-35 0 -49 17.5t-14 44.5q0 26 14 43.5t49 17.5q33 0 47.5 -17.5t14.5 -43.5zM83 501q24 10 56 18q27 7 64 12.5t82 5.5
q48 0 86.5 -9t66.5 -30t43 -56.5t15 -88.5v-353h-96l-11 58q-17 -19 -43 -34q-22 -13 -54 -23.5t-74 -10.5q-77 0 -122.5 39.5t-45.5 108.5q0 43 17 74t48 51t75 29.5t97 9.5q26 0 51.5 -1.5t36.5 -3.5v46q0 48 -25 73t-92 25q-35 0 -63.5 -5.5t-49.5 -11.5q-25 -8 -44 -17z
M375 215q-10 2 -29.5 4t-47.5 2q-26 0 -49.5 -3t-41 -11.5t-28 -23t-10.5 -37.5q0 -22 8.5 -35t21.5 -20t27 -9.5t26 -2.5q29 0 52 8t39 19q18 11 32 27v82z" />
    <glyph glyph-name="aring" unicode="&#xe5;" horiz-adv-x="561" 
d="M288 589q-58 0 -87 30t-29 81q0 52 32 82t88 30t85.5 -29.5t29.5 -80.5q0 -53 -29 -83t-90 -30zM290 653q45 0 45 48q0 47 -44 47q-47 0 -47 -47q0 -48 46 -48zM83 501q24 10 56 18q27 7 64 12.5t82 5.5q48 0 86.5 -9t66.5 -30t43 -56.5t15 -88.5v-353h-96l-11 58
q-17 -19 -43 -34q-22 -13 -54 -23.5t-74 -10.5q-77 0 -122.5 39.5t-45.5 108.5q0 43 17 74t48 51t75 29.5t97 9.5q26 0 51.5 -1.5t36.5 -3.5v46q0 48 -25 73t-92 25q-35 0 -63.5 -5.5t-49.5 -11.5q-25 -8 -44 -17zM375 215q-10 2 -29.5 4t-47.5 2q-26 0 -49.5 -3t-41 -11.5
t-28 -23t-10.5 -37.5q0 -22 8.5 -35t21.5 -20t27 -9.5t26 -2.5q29 0 52 8t39 19q18 11 32 27v82z" />
    <glyph glyph-name="ae" unicode="&#xe6;" horiz-adv-x="874" 
d="M802 23q-21 -10 -48 -17q-23 -6 -56 -11t-75 -5q-69 0 -118 19.5t-80 55.5q-5 -6 -19.5 -18t-39.5 -25t-60 -22.5t-81 -9.5q-88 0 -131.5 40t-43.5 104q0 45 19 76.5t53.5 52t83 29.5t107.5 9q12 0 27 -0.5t27 -1.5q2 17 4.5 33t6.5 31q-7 39 -34 58.5t-87 19.5
q-34 0 -62 -5.5t-49 -11.5q-25 -8 -45 -17l-18 94q24 10 56 18q26 7 63 12.5t82 5.5q56 0 97 -12t67 -41q29 26 69.5 39.5t91.5 13.5q59 0 99.5 -17.5t66 -48t36.5 -70.5t11 -85q0 -17 -1.5 -31.5t-3.5 -25.5q-2 -12 -4 -23h-325q2 -82 39 -117.5t112 -35.5q33 0 59.5 4.5
t45.5 9.5q22 6 39 15zM254 78q24 0 46 6t39.5 14t30 16t18.5 13q-8 21 -13 44t-7 49q-14 2 -30 3t-33 1q-29 0 -53.5 -3.5t-43 -12.5t-29 -24t-10.5 -39q0 -22 8.5 -35t21 -20t27.5 -9.5t28 -2.5zM707 324q0 59 -23 91.5t-80 32.5q-52 0 -81.5 -32.5t-34.5 -101.5h219v10z
" />
    <glyph glyph-name="ccedilla" unicode="&#xe7;" horiz-adv-x="505" 
d="M434 420q-13 6 -30 10q-14 4 -33 7.5t-42 3.5q-33 0 -62.5 -9t-51.5 -29.5t-35 -54.5t-13 -85t13 -85t35 -54.5t51.5 -29t62.5 -8.5q23 0 42 3t33 7q17 4 30 10l19 -90q-16 -7 -36 -12q-17 -5 -41 -9t-53 -5l-12 -43q3 0 8.5 0.5t8.5 0.5q20 0 37.5 -4t31 -14t21.5 -25.5
t8 -38.5q0 -44 -31.5 -67.5t-94.5 -23.5q-32 0 -54 5q-11 3 -20 6l10 58q6 -3 15 -5q17 -5 42 -5q22 0 40.5 7t18.5 26t-17 25.5t-40 6.5q-20 0 -38.5 -2.5t-23.5 -4.5l27 101q-97 13 -155 79.5t-58 189.5q0 69 19 121t54 86t84 51t108 17q32 0 58 -4t45 -9q21 -6 38 -13
l-19 -91v0z" />
    <glyph glyph-name="egrave" unicode="&#xe8;" horiz-adv-x="568" 
d="M261 592l-120 159h127l92 -159h-99zM491 26q-23 -10 -51 -18q-25 -7 -58.5 -12.5t-75.5 -5.5q-70 0 -119 19.5t-80 54.5t-45.5 84.5t-14.5 108.5q0 64 16 115.5t47.5 88t78 56.5t106.5 20q56 0 97.5 -16.5t68.5 -46t40.5 -70t13.5 -87.5q0 -17 -1 -31.5t-3 -26.5
q-2 -14 -4 -26h-339q3 -83 45 -116.5t113 -33.5q32 0 59 5t47 11q23 7 41 16zM398 326q0 58 -27 89.5t-81 31.5q-51 0 -83.5 -31t-37.5 -100h229v10z" />
    <glyph glyph-name="eacute" unicode="&#xe9;" horiz-adv-x="568" 
d="M235 592l92 159h128l-122 -159h-98zM491 26q-23 -10 -51 -18q-25 -7 -58.5 -12.5t-75.5 -5.5q-70 0 -119 19.5t-80 54.5t-45.5 84.5t-14.5 108.5q0 64 16 115.5t47.5 88t78 56.5t106.5 20q56 0 97.5 -16.5t68.5 -46t40.5 -70t13.5 -87.5q0 -17 -1 -31.5t-3 -26.5
q-2 -14 -4 -26h-339q3 -83 45 -116.5t113 -33.5q32 0 59 5t47 11q23 7 41 16zM398 326q0 58 -27 89.5t-81 31.5q-51 0 -83.5 -31t-37.5 -100h229v10z" />
    <glyph glyph-name="ecircumflex" unicode="&#xea;" horiz-adv-x="568" 
d="M342 751l123 -159h-98l-74 94l-75 -94h-97l122 159h99zM491 26q-23 -10 -51 -18q-25 -7 -58.5 -12.5t-75.5 -5.5q-70 0 -119 19.5t-80 54.5t-45.5 84.5t-14.5 108.5q0 64 16 115.5t47.5 88t78 56.5t106.5 20q56 0 97.5 -16.5t68.5 -46t40.5 -70t13.5 -87.5
q0 -17 -1 -31.5t-3 -26.5q-2 -14 -4 -26h-339q3 -83 45 -116.5t113 -33.5q32 0 59 5t47 11q23 7 41 16zM398 326q0 58 -27 89.5t-81 31.5q-51 0 -83.5 -31t-37.5 -100h229v10z" />
    <glyph glyph-name="edieresis" unicode="&#xeb;" horiz-adv-x="568" 
d="M250 665q0 -26 -14.5 -44t-49.5 -18q-33 0 -47.5 17.5t-14.5 44.5q0 26 14.5 43.5t47.5 17.5q35 0 49.5 -17.5t14.5 -43.5zM461 665q0 -26 -14.5 -44t-47.5 -18q-35 0 -49 17.5t-14 44.5q0 26 14 43.5t49 17.5q33 0 47.5 -17.5t14.5 -43.5zM491 26q-23 -10 -51 -18
q-25 -7 -58.5 -12.5t-75.5 -5.5q-70 0 -119 19.5t-80 54.5t-45.5 84.5t-14.5 108.5q0 64 16 115.5t47.5 88t78 56.5t106.5 20q56 0 97.5 -16.5t68.5 -46t40.5 -70t13.5 -87.5q0 -17 -1 -31.5t-3 -26.5q-2 -14 -4 -26h-339q3 -83 45 -116.5t113 -33.5q32 0 59 5t47 11
q23 7 41 16zM398 326q0 58 -27 89.5t-81 31.5q-51 0 -83.5 -31t-37.5 -100h229v10z" />
    <glyph glyph-name="igrave" unicode="&#xec;" horiz-adv-x="262" 
d="M71 0v527h120v-527h-120zM87 592l-122 159h128l92 -159h-98z" />
    <glyph glyph-name="iacute" unicode="&#xed;" horiz-adv-x="262" 
d="M71 0v527h120v-527h-120zM73 592l92 159h127l-120 -159h-99z" />
    <glyph glyph-name="icircumflex" unicode="&#xee;" horiz-adv-x="262" 
d="M71 0v527h120v-527h-120zM181 750l121 -159h-97l-75 95l-74 -95h-97l122 159h100z" />
    <glyph glyph-name="idieresis" unicode="&#xef;" horiz-adv-x="262" 
d="M71 0v527h120v-527h-120zM88 665q0 -26 -14 -44t-49 -18q-33 0 -48 17.5t-15 44.5q0 26 14.5 43.5t48.5 17.5q35 0 49 -17.5t14 -43.5zM300 665q0 -26 -14.5 -44t-48.5 -18q-35 0 -49 17.5t-14 44.5q0 26 14 43.5t49 17.5q34 0 48.5 -17.5t14.5 -43.5z" />
    <glyph glyph-name="eth" unicode="&#xf0;" horiz-adv-x="601" 
d="M184 619l59 59q-18 12 -37.5 24t-40.5 25l62 67q46 -23 82 -49l61 60l38 -39l-52 -54q56 -45 94 -95.5t61 -104.5t33 -109t10 -109q0 -65 -14 -121t-45 -96.5t-80.5 -63.5t-119.5 -23q-63 0 -110 19.5t-77.5 55.5t-45.5 86.5t-15 112.5t14 112.5t42.5 86t71.5 55
t100 19.5q24 0 44.5 -4t35.5 -9t24.5 -9.5t11.5 -6.5q-17 40 -42 71.5t-63 63.5l-63 -63zM419 405q-13 11 -43 23.5t-70 12.5q-73 0 -106 -47t-33 -130q0 -84 33 -131t102 -47q68 0 99.5 50.5t31.5 137.5q0 16 -1 34.5t-2.5 36.5t-4.5 34t-6 26z" />
    <glyph glyph-name="ntilde" unicode="&#xf1;" 
d="M136 591q-2 4 -3 9t-1.5 11t-0.5 15q0 21 6 41t18.5 35t31.5 24t45 9q25 0 44.5 -9.5t35 -21.5t30 -21.5t29.5 -9.5q16 0 23.5 9.5t7.5 25.5q0 7 -2 17q-1 4 -2 9h84l2 -12q1 -5 1.5 -11.5t0.5 -12.5q0 -22 -6 -41.5t-18.5 -34.5t-31.5 -24t-45 -9t-45 9.5t-34.5 21.5
t-29 21.5t-29.5 9.5t-23.5 -9.5t-7.5 -25.5v-10t1 -8q1 -4 2 -7h-83zM168 527l14 -61q21 19 48 35q23 14 56.5 25t75.5 11q88 0 133 -52t45 -141v-344h-121v335q0 50 -22 77.5t-72 27.5q-29 0 -53.5 -8.5t-42.5 -19.5q-21 -12 -38 -27v-385h-120v527h97z" />
    <glyph glyph-name="ograve" unicode="&#xf2;" horiz-adv-x="606" 
d="M278 592l-121 159h128l92 -159h-99zM303 -10q-62 0 -109.5 19.5t-80 55t-49.5 86.5t-17 114q0 62 17 112t49.5 85.5t80 55t109.5 19.5t109.5 -19t80 -54.5t49.5 -86t17 -112.5q0 -63 -17 -113.5t-49.5 -86.5t-80 -55.5t-109.5 -19.5zM303 85q65 0 100 45t35 133
t-35 133.5t-100 45.5t-100.5 -45.5t-35.5 -133.5t35.5 -133t100.5 -45z" />
    <glyph glyph-name="oacute" unicode="&#xf3;" horiz-adv-x="606" 
d="M241 592l93 159h128l-121 -159h-100zM303 -10q-62 0 -109.5 19.5t-80 55t-49.5 86.5t-17 114q0 62 17 112t49.5 85.5t80 55t109.5 19.5t109.5 -19t80 -54.5t49.5 -86t17 -112.5q0 -63 -17 -113.5t-49.5 -86.5t-80 -55.5t-109.5 -19.5zM303 85q65 0 100 45t35 133
t-35 133.5t-100 45.5t-100.5 -45.5t-35.5 -133.5t35.5 -133t100.5 -45z" />
    <glyph glyph-name="ocircumflex" unicode="&#xf4;" horiz-adv-x="606" 
d="M349 751l123 -159h-98l-74 94l-75 -94h-97l122 159h99zM303 -10q-62 0 -109.5 19.5t-80 55t-49.5 86.5t-17 114q0 62 17 112t49.5 85.5t80 55t109.5 19.5t109.5 -19t80 -54.5t49.5 -86t17 -112.5q0 -63 -17 -113.5t-49.5 -86.5t-80 -55.5t-109.5 -19.5zM303 85
q65 0 100 45t35 133t-35 133.5t-100 45.5t-100.5 -45.5t-35.5 -133.5t35.5 -133t100.5 -45z" />
    <glyph glyph-name="otilde" unicode="&#xf5;" horiz-adv-x="606" 
d="M126 591q-2 4 -3 9t-1.5 11t-0.5 15q0 21 6 41t18.5 35t31 24t44.5 9t45.5 -9.5t35.5 -21.5t30 -21.5t29 -9.5t23 9.5t8 25.5q0 5 -1 9l-2 8t-2 9h85l2 -12q1 -5 2 -11.5t1 -12.5q0 -22 -6 -41.5t-18.5 -34.5t-32 -24t-45.5 -9t-45 9.5t-34.5 21.5t-29 21.5t-29.5 9.5
q-15 0 -23 -9.5t-8 -25.5q0 -10 2 -18q1 -4 2 -7h-84zM303 -10q-62 0 -109.5 19.5t-80 55t-49.5 86.5t-17 114q0 62 17 112t49.5 85.5t80 55t109.5 19.5t109.5 -19t80 -54.5t49.5 -86t17 -112.5q0 -63 -17 -113.5t-49.5 -86.5t-80 -55.5t-109.5 -19.5zM303 85q65 0 100 45
t35 133t-35 133.5t-100 45.5t-100.5 -45.5t-35.5 -133.5t35.5 -133t100.5 -45z" />
    <glyph glyph-name="odieresis" unicode="&#xf6;" horiz-adv-x="606" 
d="M255 660q0 -27 -14 -44t-48 -17t-48.5 17t-14.5 44q0 26 14.5 43.5t48.5 17.5t48 -17.5t14 -43.5zM468 660q0 -27 -15 -44t-49 -17t-48 17t-14 44q0 26 14 43.5t48 17.5t49 -17.5t15 -43.5zM303 -10q-62 0 -109.5 19.5t-80 55t-49.5 86.5t-17 114q0 62 17 112t49.5 85.5
t80 55t109.5 19.5t109.5 -19t80 -54.5t49.5 -86t17 -112.5q0 -63 -17 -113.5t-49.5 -86.5t-80 -55.5t-109.5 -19.5zM303 85q65 0 100 45t35 133t-35 133.5t-100 45.5t-100.5 -45.5t-35.5 -133.5t35.5 -133t100.5 -45z" />
    <glyph glyph-name="divide" unicode="&#xf7;" horiz-adv-x="604" 
d="M369 98q0 -26 -16 -44.5t-51 -18.5q-36 0 -52 18t-16 45q0 26 16 44t52 18q35 0 51 -18t16 -44zM369 500q0 -26 -16 -44.5t-51 -18.5q-36 0 -52 18t-16 45q0 26 16 44t52 18q35 0 51 -18t16 -44zM66 256v87h472v-87h-472z" />
    <glyph glyph-name="oslash" unicode="&#xf8;" horiz-adv-x="606" 
d="M303 -10q-15 0 -29 1.5t-28 3.5l-33 -87h-88l43 113q-60 33 -90.5 95t-30.5 149q0 62 17 112t49.5 85.5t80 55t109.5 19.5q16 0 30.5 -1.5t28.5 -3.5l30 77h89l-40 -105q58 -32 88 -93.5t30 -145.5q0 -63 -17 -113.5t-49.5 -86.5t-80 -55.5t-109.5 -19.5zM167 263
q0 -92 40 -138l120 315q-6 1 -12 1.5t-12 0.5q-65 0 -100.5 -45.5t-35.5 -133.5zM303 85q65 0 100 45t35 133q0 90 -38 136l-119 -313q5 -1 10.5 -1h11.5z" />
    <glyph glyph-name="ugrave" unicode="&#xf9;" 
d="M267 592l-121 159h128l91 -159h-98zM187 527v-335q0 -50 22 -77.5t71 -27.5q29 0 53.5 8t42.5 19q21 12 39 28v385h120v-527h-98l-14 61q-21 -20 -48 -36q-23 -14 -56 -24.5t-75 -10.5q-89 0 -133.5 52t-44.5 141v344h121z" />
    <glyph glyph-name="uacute" unicode="&#xfa;" 
d="M241 592l92 159h128l-121 -159h-99zM187 527v-335q0 -50 22 -77.5t71 -27.5q29 0 53.5 8t42.5 19q21 12 39 28v385h120v-527h-98l-14 61q-21 -20 -48 -36q-23 -14 -56 -24.5t-75 -10.5q-89 0 -133.5 52t-44.5 141v344h121z" />
    <glyph glyph-name="ucircumflex" unicode="&#xfb;" 
d="M351 751l121 -159h-96l-75 94l-74 -94h-98l122 159h100zM187 527v-335q0 -50 22 -77.5t71 -27.5q29 0 53.5 8t42.5 19q21 12 39 28v385h120v-527h-98l-14 61q-21 -20 -48 -36q-23 -14 -56 -24.5t-75 -10.5q-89 0 -133.5 52t-44.5 141v344h121z" />
    <glyph glyph-name="udieresis" unicode="&#xfc;" 
d="M260 665q0 -26 -14.5 -44t-48.5 -18t-48.5 17.5t-14.5 44.5q0 26 14.5 43.5t48.5 17.5t48.5 -17.5t14.5 -43.5zM472 665q0 -26 -14.5 -44t-48.5 -18q-35 0 -48.5 17.5t-13.5 44.5q0 26 13.5 43.5t48.5 17.5q34 0 48.5 -17.5t14.5 -43.5zM187 527v-335q0 -50 22 -77.5
t71 -27.5q29 0 53.5 8t42.5 19q21 12 39 28v385h120v-527h-98l-14 61q-21 -20 -48 -36q-23 -14 -56 -24.5t-75 -10.5q-89 0 -133.5 52t-44.5 141v344h121z" />
    <glyph glyph-name="yacute" unicode="&#xfd;" horiz-adv-x="553" 
d="M219 592l92 159h128l-121 -159h-99zM39 -110q6 -3 14 -5q7 -2 17 -3t22 -1q31 0 51.5 11.5t34.5 29t22.5 38.5t16.5 41l-193 526h126l102 -317l22 -102l132 419h122l-195 -538q-18 -49 -38.5 -86.5t-47.5 -63.5t-62 -39.5t-82 -13.5q-35 0 -58 5q-12 2 -22 5z" />
    <glyph glyph-name="thorn" unicode="&#xfe;" horiz-adv-x="599" 
d="M190 731v-259q4 4 16.5 14.5t33 22t48 20t60.5 8.5q45 0 82.5 -17.5t64.5 -51t42 -82.5t15 -113q0 -70 -19 -123t-53 -88.5t-81.5 -53.5t-105.5 -18q-40 0 -68 8t-36 9l2 -32v-179h-120v935h119zM191 102q12 -5 27 -9q13 -3 29.5 -5.5t36.5 -2.5q72 0 109.5 44.5
t37.5 135.5q0 85 -30.5 129.5t-87.5 44.5q-26 0 -48 -8.5t-39 -18.5q-19 -12 -35 -27v-283z" />
    <glyph glyph-name="ydieresis" unicode="&#xff;" horiz-adv-x="553" 
d="M239 660q0 -27 -14.5 -44t-48.5 -17t-48.5 17t-14.5 44q0 26 14.5 43.5t48.5 17.5t48.5 -17.5t14.5 -43.5zM450 660q0 -27 -14.5 -44t-47.5 -17q-35 0 -49 17t-14 44q0 26 14 43.5t49 17.5q33 0 47.5 -17.5t14.5 -43.5zM39 -110q6 -3 14 -5q7 -2 17 -3t22 -1
q31 0 51.5 11.5t34.5 29t22.5 38.5t16.5 41l-193 526h126l102 -317l22 -102l132 419h122l-195 -538q-18 -49 -38.5 -86.5t-47.5 -63.5t-62 -39.5t-82 -13.5q-35 0 -58 5q-12 2 -22 5z" />
    <glyph glyph-name="Amacron" unicode="&#x100;" horiz-adv-x="715" 
d="M201 784v78h309v-78h-309zM434 707l253 -707h-125l-66 183h-277l-65 -183h-125l253 707h152zM339 525l-92 -249h221l-91 249l-20 72z" />
    <glyph glyph-name="amacron" unicode="&#x101;" horiz-adv-x="561" 
d="M130 620v79h310v-79h-310zM83 501q24 10 56 18q27 7 64 12.5t82 5.5q48 0 86.5 -9t66.5 -30t43 -56.5t15 -88.5v-353h-96l-11 58q-17 -19 -43 -34q-22 -13 -54 -23.5t-74 -10.5q-77 0 -122.5 39.5t-45.5 108.5q0 43 17 74t48 51t75 29.5t97 9.5q26 0 51.5 -1.5t36.5 -3.5
v46q0 48 -25 73t-92 25q-35 0 -63.5 -5.5t-49.5 -11.5q-25 -8 -44 -17zM375 215q-10 2 -29.5 4t-47.5 2q-26 0 -49.5 -3t-41 -11.5t-28 -23t-10.5 -37.5q0 -22 8.5 -35t21.5 -20t27 -9.5t26 -2.5q29 0 52 8t39 19q18 11 32 27v82z" />
    <glyph glyph-name="Abreve" unicode="&#x102;" horiz-adv-x="715" 
d="M517 916q0 -18 -8.5 -44.5t-27.5 -50.5t-49.5 -41.5t-74.5 -17.5q-55 0 -86.5 22t-48 49.5t-21 52.5t-4.5 30h82q0 -2 3 -13.5t11 -25t23.5 -24.5t40.5 -11q22 0 37 9t24 21.5t13 25t4 18.5h82zM434 707l253 -707h-125l-66 183h-277l-65 -183h-125l253 707h152zM339 525
l-92 -249h221l-91 249l-20 72z" />
    <glyph glyph-name="abreve" unicode="&#x103;" horiz-adv-x="561" 
d="M444 743q0 -18 -8.5 -44t-27.5 -50.5t-49.5 -41.5t-74.5 -17q-55 0 -87 22t-48.5 49.5t-21 52t-4.5 29.5h82q0 -1 3 -13t11.5 -25.5t24 -24.5t40.5 -11q22 0 37 9t24 21.5t13 25t4 18.5h82zM83 501q24 10 56 18q27 7 64 12.5t82 5.5q48 0 86.5 -9t66.5 -30t43 -56.5
t15 -88.5v-353h-96l-11 58q-17 -19 -43 -34q-22 -13 -54 -23.5t-74 -10.5q-77 0 -122.5 39.5t-45.5 108.5q0 43 17 74t48 51t75 29.5t97 9.5q26 0 51.5 -1.5t36.5 -3.5v46q0 48 -25 73t-92 25q-35 0 -63.5 -5.5t-49.5 -11.5q-25 -8 -44 -17zM375 215q-10 2 -29.5 4t-47.5 2
q-26 0 -49.5 -3t-41 -11.5t-28 -23t-10.5 -37.5q0 -22 8.5 -35t21.5 -20t27 -9.5t26 -2.5q29 0 52 8t39 19q18 11 32 27v82z" />
    <glyph glyph-name="Aogonek" unicode="&#x104;" horiz-adv-x="715" 
d="M434 707l253 -707q-10 -2 -27.5 -10t-34.5 -21t-29.5 -29t-12.5 -35q0 -14 10.5 -26.5t39.5 -12.5q19 0 37 5t26 7l2 -74q-14 -5 -39.5 -12t-58.5 -7q-59 0 -90 25t-31 62q0 24 11 44t26.5 36t32.5 28t30 20h-17l-66 183h-277l-65 -183h-125l253 707h152zM339 525
l-92 -249h221l-91 249l-20 72z" />
    <glyph glyph-name="aogonek" unicode="&#x105;" horiz-adv-x="561" 
d="M83 501q24 10 56 18q27 7 64 12.5t82 5.5q48 0 86.5 -9t66.5 -30t43 -56.5t15 -88.5v-353q-10 -2 -27.5 -10t-34.5 -21t-29.5 -29t-12.5 -35q0 -14 10.5 -26.5t39.5 -12.5q19 0 37 5t26 7l3 -74q-14 -5 -40 -12t-59 -7q-58 0 -89 25t-31 62q0 29 13.5 52t31.5 39.5
t36.5 27t28.5 15.5l-10 52q-17 -19 -43 -34q-22 -13 -54 -23.5t-74 -10.5q-77 0 -122.5 39.5t-45.5 108.5q0 43 17 74t48 51t75 29.5t97 9.5q26 0 51.5 -1.5t36.5 -3.5v46q0 48 -25 73t-92 25q-35 0 -63.5 -5.5t-49.5 -11.5q-25 -8 -44 -17zM375 215q-10 2 -29.5 4t-47.5 2
q-26 0 -49.5 -3t-41 -11.5t-28 -23t-10.5 -37.5q0 -22 8.5 -35t21.5 -20t27 -9.5t26 -2.5q29 0 52 8t39 19q18 11 32 27v82z" />
    <glyph glyph-name="Cacute" unicode="&#x106;" horiz-adv-x="646" 
d="M319 763l92 159h128l-122 -159h-98zM176 354q0 -73 20.5 -122.5t54.5 -80t79 -44t93 -13.5q29 0 54 3.5t44 8.5q22 5 40 12l18 -99q-20 -9 -46 -15q-22 -5 -53.5 -9.5t-70.5 -4.5q-89 0 -156 25.5t-111 73t-66 114.5t-22 151t23 151t68 114t111.5 72.5t153.5 25.5
q40 0 71 -5t53 -10q26 -6 45 -14l-18 -99q-18 7 -40 12q-19 5 -44.5 8.5t-54.5 3.5q-48 0 -92.5 -13t-78.5 -43.5t-54.5 -80t-20.5 -122.5z" />
    <glyph glyph-name="cacute" unicode="&#x107;" horiz-adv-x="505" 
d="M227 592l93 159h128l-121 -159h-100zM434 420q-13 6 -30 10q-14 4 -33 7.5t-42 3.5q-33 0 -62.5 -9t-51.5 -29.5t-35 -54.5t-13 -85t13 -85t35 -54.5t51.5 -29t62.5 -8.5q23 0 42 3t33 7q17 4 30 10l19 -90q-17 -8 -39 -13q-19 -5 -45.5 -9t-58.5 -4q-59 0 -107.5 16.5
t-83 50.5t-53.5 85t-19 120t19 121t54 86t84 51t108 17q32 0 58 -4t45 -9q21 -6 38 -13z" />
    <glyph glyph-name="Ccircumflex" unicode="&#x108;" horiz-adv-x="646" 
d="M442 921l121 -159h-97l-74 95l-75 -95h-97l122 159h100zM176 354q0 -73 20.5 -122.5t54.5 -80t79 -44t93 -13.5q29 0 54 3.5t44 8.5q22 5 40 12l18 -99q-20 -9 -46 -15q-22 -5 -53.5 -9.5t-70.5 -4.5q-89 0 -156 25.5t-111 73t-66 114.5t-22 151t23 151t68 114
t111.5 72.5t153.5 25.5q40 0 71 -5t53 -10q26 -6 45 -14l-18 -99q-18 7 -40 12q-19 5 -44.5 8.5t-54.5 3.5q-48 0 -92.5 -13t-78.5 -43.5t-54.5 -80t-20.5 -122.5z" />
    <glyph glyph-name="ccircumflex" unicode="&#x109;" horiz-adv-x="505" 
d="M340 751l123 -159h-98l-74 94l-75 -94h-98l122 159h100zM434 420q-13 6 -30 10q-14 4 -33 7.5t-42 3.5q-33 0 -62.5 -9t-51.5 -29.5t-35 -54.5t-13 -85t13 -85t35 -54.5t51.5 -29t62.5 -8.5q23 0 42 3t33 7q17 4 30 10l19 -90q-17 -8 -39 -13q-19 -5 -45.5 -9t-58.5 -4
q-59 0 -107.5 16.5t-83 50.5t-53.5 85t-19 120t19 121t54 86t84 51t108 17q32 0 58 -4t45 -9q21 -6 38 -13z" />
    <glyph glyph-name="Cdotaccent" unicode="&#x10a;" horiz-adv-x="646" 
d="M458 847q0 -28 -15.5 -46t-51.5 -18q-38 0 -53.5 18t-15.5 46q0 27 15.5 45t53.5 18q36 0 51.5 -18t15.5 -45zM176 354q0 -73 20.5 -122.5t54.5 -80t79 -44t93 -13.5q29 0 54 3.5t44 8.5q22 5 40 12l18 -99q-20 -9 -46 -15q-22 -5 -53.5 -9.5t-70.5 -4.5q-89 0 -156 25.5
t-111 73t-66 114.5t-22 151t23 151t68 114t111.5 72.5t153.5 25.5q40 0 71 -5t53 -10q26 -6 45 -14l-18 -99q-18 7 -40 12q-19 5 -44.5 8.5t-54.5 3.5q-48 0 -92.5 -13t-78.5 -43.5t-54.5 -80t-20.5 -122.5z" />
    <glyph glyph-name="cdotaccent" unicode="&#x10b;" horiz-adv-x="505" 
d="M360 675q0 -28 -15.5 -46t-52.5 -18q-36 0 -51.5 18t-15.5 46q0 27 15.5 45t51.5 18q37 0 52.5 -17.5t15.5 -45.5zM434 420q-13 6 -30 10q-14 4 -33 7.5t-42 3.5q-33 0 -62.5 -9t-51.5 -29.5t-35 -54.5t-13 -85t13 -85t35 -54.5t51.5 -29t62.5 -8.5q23 0 42 3t33 7
q17 4 30 10l19 -90q-17 -8 -39 -13q-19 -5 -45.5 -9t-58.5 -4q-59 0 -107.5 16.5t-83 50.5t-53.5 85t-19 120t19 121t54 86t84 51t108 17q32 0 58 -4t45 -9q21 -6 38 -13z" />
    <glyph glyph-name="Ccaron" unicode="&#x10c;" horiz-adv-x="646" 
d="M339 762l-122 159h98l74 -94l75 94h96l-121 -159h-100zM176 354q0 -73 20.5 -122.5t54.5 -80t79 -44t93 -13.5q29 0 54 3.5t44 8.5q22 5 40 12l18 -99q-20 -9 -46 -15q-22 -5 -53.5 -9.5t-70.5 -4.5q-89 0 -156 25.5t-111 73t-66 114.5t-22 151t23 151t68 114t111.5 72.5
t153.5 25.5q40 0 71 -5t53 -10q26 -6 45 -14l-18 -99q-18 7 -40 12q-19 5 -44.5 8.5t-54.5 3.5q-48 0 -92.5 -13t-78.5 -43.5t-54.5 -80t-20.5 -122.5z" />
    <glyph glyph-name="ccaron" unicode="&#x10d;" horiz-adv-x="505" 
d="M247 592l-122 159h97l75 -95l74 95h97l-121 -159h-100zM434 420q-13 6 -30 10q-14 4 -33 7.5t-42 3.5q-33 0 -62.5 -9t-51.5 -29.5t-35 -54.5t-13 -85t13 -85t35 -54.5t51.5 -29t62.5 -8.5q23 0 42 3t33 7q17 4 30 10l19 -90q-17 -8 -39 -13q-19 -5 -45.5 -9t-58.5 -4
q-59 0 -107.5 16.5t-83 50.5t-53.5 85t-19 120t19 121t54 86t84 51t108 17q32 0 58 -4t45 -9q21 -6 38 -13z" />
    <glyph glyph-name="Dcaron" unicode="&#x10e;" horiz-adv-x="720" 
d="M271 762l-122 159h98l74 -94l75 94h97l-121 -159h-101zM78 707h248q96 0 161 -27.5t104.5 -75t57 -112t17.5 -139.5q0 -74 -17.5 -138.5t-58 -112t-105.5 -75t-159 -27.5h-248v707zM341 104q55 0 93.5 18.5t63 52t35.5 79.5t11 100t-11 100t-35 79t-63 52t-95 19h-140
v-500h141z" />
    <glyph glyph-name="dcaron" unicode="&#x10f;" horiz-adv-x="756" 
d="M597 524q6 4 15.5 15.5t18 26t14.5 30t7 28.5q-28 1 -39 18t-11 40q0 25 15 42t50 17q29 0 46.5 -18.5t17.5 -59.5q0 -32 -10 -60t-24 -50.5t-28 -38.5t-23 -23zM430 0l-14 62q-16 -20 -41 -36q-21 -14 -52 -25t-73 -11q-44 0 -81.5 17.5t-64.5 51t-42 82.5t-15 112
q0 72 19 125t54 88.5t84 53t109 17.5q37 0 64.5 -7.5t31.5 -8.5l-1 31v179h120v-731h-98zM408 426q-12 4 -26 8q-12 3 -29 5.5t-37 2.5q-73 0 -111 -44.5t-38 -135.5q0 -85 31.5 -129.5t87.5 -44.5q27 0 49 8t39 19q18 12 34 28v283z" />
    <glyph glyph-name="Dcroat" unicode="&#x110;" horiz-adv-x="720" 
d="M15 402h63v305h248q96 0 161 -27.5t104.5 -75t57 -112t17.5 -139.5q0 -74 -17.5 -138.5t-58 -112t-105.5 -75t-159 -27.5h-248v304h-63v98zM341 104q55 0 93.5 18.5t63 52t35.5 79.5t11 100t-11 100t-35 79t-63 52t-95 19h-140v-202h155v-98h-155v-200h141z" />
    <glyph glyph-name="dcroat" unicode="&#x111;" horiz-adv-x="599" 
d="M430 0l-14 62q-16 -20 -41 -36q-21 -14 -52 -25t-73 -11q-44 0 -81.5 17.5t-64.5 51t-42 82.5t-15 112q0 72 19 125t54 88.5t84 53t109 17.5q37 0 64.5 -7.5t31.5 -8.5l-1 31v41h-135v71h135v67h120v-67h75v-71h-75v-593h-98zM408 426q-12 4 -26 8q-12 3 -29 5.5t-37 2.5
q-73 0 -111 -44.5t-38 -135.5q0 -85 31.5 -129.5t87.5 -44.5q27 0 49 8t39 19q18 12 34 28v283z" />
    <glyph glyph-name="Emacron" unicode="&#x112;" horiz-adv-x="631" 
d="M177 784v78h309v-78h-309zM78 0v707h489v-103h-367v-194h321v-103h-321v-204h367v-103h-489z" />
    <glyph glyph-name="emacron" unicode="&#x113;" horiz-adv-x="568" 
d="M137 620v79h310v-79h-310zM491 26q-23 -10 -51 -18q-25 -7 -58.5 -12.5t-75.5 -5.5q-70 0 -119 19.5t-80 54.5t-45.5 84.5t-14.5 108.5q0 64 16 115.5t47.5 88t78 56.5t106.5 20q56 0 97.5 -16.5t68.5 -46t40.5 -70t13.5 -87.5q0 -17 -1 -31.5t-3 -26.5q-2 -14 -4 -26
h-339q3 -83 45 -116.5t113 -33.5q32 0 59 5t47 11q23 7 41 16zM398 326q0 58 -27 89.5t-81 31.5q-51 0 -83.5 -31t-37.5 -100h229v10z" />
    <glyph glyph-name="Ebreve" unicode="&#x114;" horiz-adv-x="631" 
d="M490 916q0 -18 -8.5 -44.5t-27.5 -50.5t-49.5 -41.5t-74.5 -17.5q-54 0 -86 22t-48 49.5t-20.5 52.5t-4.5 30h81q0 -2 3 -13.5t11.5 -25t23.5 -24.5t40 -11q22 0 37 9t24.5 21.5t13.5 25t4 18.5h81zM78 0v707h489v-103h-367v-194h321v-103h-321v-204h367v-103h-489z" />
    <glyph glyph-name="ebreve" unicode="&#x115;" horiz-adv-x="568" 
d="M447 744q0 -18 -8.5 -44t-27.5 -50.5t-49.5 -41.5t-74.5 -17q-37 0 -63 10.5t-43.5 26t-28 34.5t-16.5 36t-7.5 29.5t-1.5 16.5h82q0 -2 3 -13.5t11 -25t23.5 -24.5t40.5 -11q22 0 37 9t24 21.5t13 25t4 18.5h82zM491 26q-23 -10 -51 -18q-25 -7 -58.5 -12.5t-75.5 -5.5
q-70 0 -119 19.5t-80 54.5t-45.5 84.5t-14.5 108.5q0 64 16 115.5t47.5 88t78 56.5t106.5 20q56 0 97.5 -16.5t68.5 -46t40.5 -70t13.5 -87.5q0 -17 -1 -31.5t-3 -26.5q-2 -14 -4 -26h-339q3 -83 45 -116.5t113 -33.5q32 0 59 5t47 11q23 7 41 16zM398 326q0 58 -27 89.5
t-81 31.5q-51 0 -83.5 -31t-37.5 -100h229v10z" />
    <glyph glyph-name="Edotaccent" unicode="&#x116;" horiz-adv-x="631" 
d="M400 847q0 -28 -15.5 -46t-51.5 -18q-38 0 -53.5 18t-15.5 46q0 27 15.5 45t53.5 18q36 0 51.5 -18t15.5 -45zM78 0v707h489v-103h-367v-194h321v-103h-321v-204h367v-103h-489z" />
    <glyph glyph-name="edotaccent" unicode="&#x117;" horiz-adv-x="568" 
d="M354 675q0 -28 -15.5 -46t-52.5 -18t-53 18t-16 46q0 27 16 45t53 18t52.5 -17.5t15.5 -45.5zM491 26q-23 -10 -51 -18q-25 -7 -58.5 -12.5t-75.5 -5.5q-70 0 -119 19.5t-80 54.5t-45.5 84.5t-14.5 108.5q0 64 16 115.5t47.5 88t78 56.5t106.5 20q56 0 97.5 -16.5
t68.5 -46t40.5 -70t13.5 -87.5q0 -17 -1 -31.5t-3 -26.5q-2 -14 -4 -26h-339q3 -83 45 -116.5t113 -33.5q32 0 59 5t47 11q23 7 41 16zM398 326q0 58 -27 89.5t-81 31.5q-51 0 -83.5 -31t-37.5 -100h229v10z" />
    <glyph glyph-name="Eogonek" unicode="&#x118;" horiz-adv-x="644" 
d="M567 0q-10 -2 -27.5 -10t-34.5 -21t-29.5 -29t-12.5 -35q0 -14 10.5 -26.5t39.5 -12.5q19 0 37 5t26 7l3 -74q-14 -5 -40 -12t-58 -7q-59 0 -90 25t-31 62q0 24 10.5 44t26 36t33 28t30.5 20h-382v707h489v-103h-367v-194h321v-103h-321v-204h367v-103v0z" />
    <glyph glyph-name="eogonek" unicode="&#x119;" horiz-adv-x="568" 
d="M491 26q-11 -5 -26 -10q-13 -5 -31 -9.5t-40 -8.5q-11 -3 -28 -11.5t-32.5 -20.5t-26.5 -27.5t-11 -33.5q0 -14 10.5 -26.5t39.5 -12.5q19 0 37 5t26 7l3 -74q-14 -5 -40 -12t-59 -7q-58 0 -89 25t-31 62q0 21 8.5 39t21 33t27.5 27t29 20q-62 4 -106 25t-72 55.5t-41 82
t-13 103.5q0 64 16 115.5t47.5 88t78 56.5t106.5 20q56 0 97.5 -16.5t68.5 -46t40.5 -70t13.5 -87.5q0 -17 -1 -31.5t-3 -26.5q-2 -14 -4 -26h-339q3 -83 45 -116.5t113 -33.5q32 0 59 5t47 11q23 7 41 16zM398 326q0 58 -27 89.5t-81 31.5q-51 0 -83.5 -31t-37.5 -100h229
v10z" />
    <glyph glyph-name="Ecaron" unicode="&#x11a;" horiz-adv-x="631" 
d="M281 762l-121 159h96l75 -94l74 94h98l-122 -159h-100zM78 0v707h489v-103h-367v-194h321v-103h-321v-204h367v-103h-489z" />
    <glyph glyph-name="ecaron" unicode="&#x11b;" horiz-adv-x="568" 
d="M246 592l-122 159h97l75 -95l74 95h97l-121 -159h-100zM491 26q-23 -10 -51 -18q-25 -7 -58.5 -12.5t-75.5 -5.5q-70 0 -119 19.5t-80 54.5t-45.5 84.5t-14.5 108.5q0 64 16 115.5t47.5 88t78 56.5t106.5 20q56 0 97.5 -16.5t68.5 -46t40.5 -70t13.5 -87.5
q0 -17 -1 -31.5t-3 -26.5q-2 -14 -4 -26h-339q3 -83 45 -116.5t113 -33.5q32 0 59 5t47 11q23 7 41 16zM398 326q0 58 -27 89.5t-81 31.5q-51 0 -83.5 -31t-37.5 -100h229v10z" />
    <glyph glyph-name="Gcircumflex" unicode="&#x11c;" horiz-adv-x="691" 
d="M176 353q0 -71 19.5 -120.5t52.5 -80.5t77 -44.5t93 -13.5q22 0 42.5 2t39.5 5v251h118v-328q-26 -10 -59 -17q-28 -7 -65.5 -12t-81.5 -5q-90 0 -157.5 26.5t-112 74t-66.5 114t-22 146.5q0 82 23 149.5t69 115.5t114.5 74.5t158.5 26.5q40 0 74 -5t59 -10q29 -7 52 -15
l-19 -99q-20 7 -45 12q-21 5 -49.5 9t-60.5 4q-52 0 -98 -13.5t-80.5 -44.5t-55 -80.5t-20.5 -121.5zM437 921l122 -159h-97l-75 95l-74 -95h-97l121 159h100z" />
    <glyph glyph-name="gcircumflex" unicode="&#x11d;" horiz-adv-x="598" 
d="M336 751l122 -159h-98l-75 94l-74 -94h-97l122 159h100zM474 440q11 -11 19 -34t8 -52q0 -38 -14.5 -69.5t-43 -54.5t-71 -36t-98.5 -13q-15 0 -30 1t-26 3q-11 -3 -19 -12.5t-8 -20.5q0 -10 9 -17.5t36 -9.5l125 -7q34 -2 69 -8.5t63 -22t45.5 -41.5t17.5 -68
q0 -37 -15.5 -71.5t-50.5 -61.5t-90.5 -43t-135.5 -16q-114 0 -173.5 33.5t-59.5 99.5q0 29 10.5 50.5t26 36.5t32 24t28.5 13q-28 15 -38.5 36t-10.5 40t6.5 33.5t16.5 26t21 18.5t19 11q-17 8 -33.5 21.5t-29.5 32t-21 42.5t-8 54q0 43 17 76.5t47.5 56.5t72.5 34.5
t91 11.5q78 0 133 -26l152 17l5 -84zM210 25q-17 -7 -30 -18q-11 -10 -20.5 -25.5t-9.5 -37.5q0 -16 6 -29.5t21 -24t39.5 -16.5t60.5 -6q75 0 119 24.5t44 65.5q0 35 -32.5 47t-82.5 15zM387 357q0 25 -9 44t-24.5 31.5t-35.5 18.5t-42 6q-48 0 -80.5 -25.5t-32.5 -76.5
q0 -48 30.5 -71t81.5 -23q56 0 84 25.5t28 70.5z" />
    <glyph glyph-name="Gbreve" unicode="&#x11e;" horiz-adv-x="691" 
d="M176 353q0 -71 19.5 -120.5t52.5 -80.5t77 -44.5t93 -13.5q22 0 42.5 2t39.5 5v251h118v-328q-26 -10 -59 -17q-28 -7 -65.5 -12t-81.5 -5q-90 0 -157.5 26.5t-112 74t-66.5 114t-22 146.5q0 82 23 149.5t69 115.5t114.5 74.5t158.5 26.5q40 0 74 -5t59 -10q29 -7 52 -15
l-19 -99q-20 7 -45 12q-21 5 -49.5 9t-60.5 4q-52 0 -98 -13.5t-80.5 -44.5t-55 -80.5t-20.5 -121.5zM547 916q0 -18 -8.5 -44.5t-27 -50.5t-49 -41.5t-74.5 -17.5q-55 0 -86.5 22t-48 49.5t-21 52.5t-4.5 30h81q0 -2 3 -13.5t11.5 -25t24 -24.5t40.5 -11q22 0 37 9t24 21.5
t13 25t4 18.5h81z" />
    <glyph glyph-name="gbreve" unicode="&#x11f;" horiz-adv-x="598" 
d="M439 753q0 -18 -8.5 -44t-27 -50.5t-49 -41.5t-74.5 -17q-55 0 -86.5 22t-48 49.5t-21 52t-4.5 29.5h81q0 -2 3 -13.5t11.5 -25t24 -24.5t40.5 -11q22 0 37 9.5t24 21.5t13 24.5t4 18.5h81zM474 440q11 -11 19 -34t8 -52q0 -38 -14.5 -69.5t-43 -54.5t-71 -36t-98.5 -13
q-15 0 -30 1t-26 3q-11 -3 -19 -12.5t-8 -20.5q0 -10 9 -17.5t36 -9.5l125 -7q34 -2 69 -8.5t63 -22t45.5 -41.5t17.5 -68q0 -37 -15.5 -71.5t-50.5 -61.5t-90.5 -43t-135.5 -16q-114 0 -173.5 33.5t-59.5 99.5q0 29 10.5 50.5t26 36.5t32 24t28.5 13q-28 15 -38.5 36
t-10.5 40t6.5 33.5t16.5 26t21 18.5t19 11q-17 8 -33.5 21.5t-29.5 32t-21 42.5t-8 54q0 43 17 76.5t47.5 56.5t72.5 34.5t91 11.5q78 0 133 -26l152 17l5 -84zM210 25q-17 -7 -30 -18q-11 -10 -20.5 -25.5t-9.5 -37.5q0 -16 6 -29.5t21 -24t39.5 -16.5t60.5 -6
q75 0 119 24.5t44 65.5q0 35 -32.5 47t-82.5 15zM387 357q0 25 -9 44t-24.5 31.5t-35.5 18.5t-42 6q-48 0 -80.5 -25.5t-32.5 -76.5q0 -48 30.5 -71t81.5 -23q56 0 84 25.5t28 70.5z" />
    <glyph glyph-name="Gdotaccent" unicode="&#x120;" horiz-adv-x="691" 
d="M176 353q0 -71 19.5 -120.5t52.5 -80.5t77 -44.5t93 -13.5q22 0 42.5 2t39.5 5v251h118v-328q-26 -10 -59 -17q-28 -7 -65.5 -12t-81.5 -5q-90 0 -157.5 26.5t-112 74t-66.5 114t-22 146.5q0 82 23 149.5t69 115.5t114.5 74.5t158.5 26.5q40 0 74 -5t59 -10q29 -7 52 -15
l-19 -99q-20 7 -45 12q-21 5 -49.5 9t-60.5 4q-52 0 -98 -13.5t-80.5 -44.5t-55 -80.5t-20.5 -121.5zM463 847q0 -28 -15 -46t-52 -18t-52.5 18t-15.5 46q0 27 15.5 45t52.5 18t52 -18t15 -45z" />
    <glyph glyph-name="gdotaccent" unicode="&#x121;" horiz-adv-x="598" 
d="M344 675q0 -28 -15.5 -46t-51.5 -18q-37 0 -52.5 18t-15.5 46q0 27 15.5 45t52.5 18q36 0 51.5 -17.5t15.5 -45.5zM474 440q11 -11 19 -34t8 -52q0 -38 -14.5 -69.5t-43 -54.5t-71 -36t-98.5 -13q-15 0 -30 1t-26 3q-11 -3 -19 -12.5t-8 -20.5q0 -10 9 -17.5t36 -9.5
l125 -7q34 -2 69 -8.5t63 -22t45.5 -41.5t17.5 -68q0 -37 -15.5 -71.5t-50.5 -61.5t-90.5 -43t-135.5 -16q-114 0 -173.5 33.5t-59.5 99.5q0 29 10.5 50.5t26 36.5t32 24t28.5 13q-28 15 -38.5 36t-10.5 40t6.5 33.5t16.5 26t21 18.5t19 11q-17 8 -33.5 21.5t-29.5 32
t-21 42.5t-8 54q0 43 17 76.5t47.5 56.5t72.5 34.5t91 11.5q78 0 133 -26l152 17l5 -84zM210 25q-17 -7 -30 -18q-11 -10 -20.5 -25.5t-9.5 -37.5q0 -16 6 -29.5t21 -24t39.5 -16.5t60.5 -6q75 0 119 24.5t44 65.5q0 35 -32.5 47t-82.5 15zM387 357q0 25 -9 44t-24.5 31.5
t-35.5 18.5t-42 6q-48 0 -80.5 -25.5t-32.5 -76.5q0 -48 30.5 -71t81.5 -23q56 0 84 25.5t28 70.5z" />
    <glyph glyph-name="Gcommaaccent" unicode="&#x122;" horiz-adv-x="691" 
d="M176 353q0 -71 19.5 -120.5t52.5 -80.5t77 -44.5t93 -13.5q22 0 42.5 2t39.5 5v251h118v-328q-26 -10 -59 -17q-28 -7 -65.5 -12t-81.5 -5q-90 0 -157.5 26.5t-112 74t-66.5 114t-22 146.5q0 82 23 149.5t69 115.5t114.5 74.5t158.5 26.5q40 0 74 -5t59 -10q29 -7 52 -15
l-19 -99q-20 7 -45 12q-21 5 -49.5 9t-60.5 4q-52 0 -98 -13.5t-80.5 -44.5t-55 -80.5t-20.5 -121.5zM348 -286q6 5 15.5 16.5t18 25.5t15 29.5t7.5 28.5q-29 1 -39.5 18t-10.5 40q0 26 14.5 43t49.5 17q29 0 46.5 -19t17.5 -59q0 -32 -10 -60t-23.5 -50.5t-28 -38.5
t-22.5 -23z" />
    <glyph glyph-name="gcommaaccent" unicode="&#x123;" horiz-adv-x="598" 
d="M345 819q-6 -5 -15 -16t-17.5 -25.5t-14.5 -29.5t-7 -28q28 -2 39 -18.5t11 -39.5q0 -26 -15 -43t-50 -17q-29 0 -46.5 19t-17.5 59q0 31 10 59.5t24 51t28 38.5t23 23zM474 440q11 -11 19 -34t8 -52q0 -38 -14.5 -69.5t-43 -54.5t-71 -36t-98.5 -13q-15 0 -30 1t-26 3
q-11 -3 -19 -12.5t-8 -20.5q0 -10 9 -17.5t36 -9.5l125 -7q34 -2 69 -8.5t63 -22t45.5 -41.5t17.5 -68q0 -37 -15.5 -71.5t-50.5 -61.5t-90.5 -43t-135.5 -16q-114 0 -173.5 33.5t-59.5 99.5q0 29 10.5 50.5t26 36.5t32 24t28.5 13q-28 15 -38.5 36t-10.5 40t6.5 33.5
t16.5 26t21 18.5t19 11q-17 8 -33.5 21.5t-29.5 32t-21 42.5t-8 54q0 43 17 76.5t47.5 56.5t72.5 34.5t91 11.5q78 0 133 -26l152 17l5 -84zM210 25q-17 -7 -30 -18q-11 -10 -20.5 -25.5t-9.5 -37.5q0 -16 6 -29.5t21 -24t39.5 -16.5t60.5 -6q75 0 119 24.5t44 65.5
q0 35 -32.5 47t-82.5 15zM387 357q0 25 -9 44t-24.5 31.5t-35.5 18.5t-42 6q-48 0 -80.5 -25.5t-32.5 -76.5q0 -48 30.5 -71t81.5 -23q56 0 84 25.5t28 70.5z" />
    <glyph glyph-name="Hcircumflex" unicode="&#x124;" horiz-adv-x="730" 
d="M412 921l122 -159h-98l-74 95l-74 -95h-97l122 159h99zM529 0v295h-329v-295h-122v707h122v-301h329v301h123v-707h-123z" />
    <glyph glyph-name="hcircumflex" unicode="&#x125;" 
d="M176 937l122 -159h-97l-74 94l-75 -94h-97l122 159h99zM191 731v-201l-2 -60q3 3 16 14t35 23t52.5 21t69.5 9q88 0 133 -52t45 -141v-344h-121v335q0 50 -22 77.5t-72 27.5q-29 0 -53.5 -8.5t-42.5 -19.5q-21 -12 -38 -27v-385h-120v731h120z" />
    <glyph glyph-name="Hbar" unicode="&#x126;" horiz-adv-x="730" 
d="M529 0v295h-329v-295h-122v531h-59v74h59v102h122v-102h329v102h123v-102h58v-74h-58v-531h-123zM529 406v125h-329v-125h329z" />
    <glyph glyph-name="hbar" unicode="&#x127;" 
d="M191 731v-67h136v-71h-136v-63l-2 -60q3 3 16 14t35 23t52.5 21t69.5 9q88 0 133 -52t45 -141v-344h-121v335q0 50 -22 77.5t-72 27.5q-29 0 -53.5 -8.5t-42.5 -19.5q-21 -12 -38 -27v-385h-120v593h-73v71h73v67h120z" />
    <glyph glyph-name="Itilde" unicode="&#x128;" horiz-adv-x="281" 
d="M79 0v707h123v-707h-123zM-33 764q-1 4 -2 9t-1.5 11.5t-0.5 15.5q0 21 6 41t18.5 35.5t31.5 24.5t45 9q25 0 44.5 -10t35 -21.5t29.5 -21.5t29 -10q32 0 32 35q0 5 -1 9l-2 8t-2 9h85l2 -12q1 -5 1.5 -12t0.5 -13q0 -21 -6 -40.5t-18.5 -35t-31.5 -24.5t-45 -9t-45 10
t-35 21.5t-29.5 21.5t-29.5 10q-15 0 -23 -9.5t-8 -26.5q0 -5 0.5 -9t1.5 -8l2 -8h-84z" />
    <glyph glyph-name="itilde" unicode="&#x129;" horiz-adv-x="262" 
d="M75 0v527h121v-527h-121zM-43 591q-1 4 -2 9t-1.5 11t-0.5 15q0 21 6 41t18.5 35t31 24t44.5 9t45.5 -9.5t35 -21.5t29.5 -21.5t29 -9.5q16 0 24 9.5t8 25.5q0 7 -2 17q-1 4 -2 9h84l2 -12q1 -5 1.5 -11.5t0.5 -12.5q0 -22 -6 -41.5t-18.5 -34.5t-31.5 -24t-45 -9
t-45 9.5t-35 21.5t-29.5 21.5t-29.5 9.5q-15 0 -22.5 -9.5t-7.5 -25.5v-10t1 -8q1 -4 2 -7h-84z" />
    <glyph glyph-name="Imacron" unicode="&#x12a;" horiz-adv-x="281" 
d="M-14 784v78h310v-78h-310zM79 0v707h123v-707h-123z" />
    <glyph glyph-name="imacron" unicode="&#x12b;" horiz-adv-x="262" 
d="M71 0v527h120v-527h-120zM-14 620v79h289v-79h-289z" />
    <glyph glyph-name="Ibreve" unicode="&#x12c;" horiz-adv-x="281" 
d="M300 916q0 -18 -8.5 -44.5t-27.5 -50.5t-49.5 -41.5t-74.5 -17.5q-55 0 -87 22t-48 49.5t-20.5 52.5t-4.5 30h82q0 -2 3 -13.5t11 -25t23.5 -24.5t40.5 -11q22 0 37 9t24 21.5t13 25t4 18.5h82zM79 0v707h123v-707h-123z" />
    <glyph glyph-name="ibreve" unicode="&#x12d;" horiz-adv-x="262" 
d="M71 0v527h120v-527h-120zM293 744q0 -18 -8.5 -44t-27.5 -50.5t-49.5 -41.5t-74.5 -17q-37 0 -63 10.5t-44 26t-28.5 34.5t-16.5 36t-7.5 29.5t-1.5 16.5h82q0 -2 3 -13.5t11.5 -25t24 -24.5t40.5 -11q22 0 37 9t24 21.5t13 25t4 18.5h82z" />
    <glyph glyph-name="Iogonek" unicode="&#x12e;" horiz-adv-x="281" 
d="M202 0q-10 -2 -27.5 -10t-34.5 -21t-29.5 -29t-12.5 -35q0 -14 10.5 -26.5t39.5 -12.5q19 0 37 5t26 7l3 -74q-14 -5 -40 -12t-58 -7q-60 0 -90.5 25t-30.5 62q0 24 10.5 44t26 36t32.5 28t30 20h-15v707h123v-707v0z" />
    <glyph glyph-name="iogonek" unicode="&#x12f;" horiz-adv-x="263" 
d="M192 0q-11 -2 -28.5 -10t-34 -21t-29 -29t-12.5 -35q0 -14 10.5 -26.5t39.5 -12.5q19 0 37 5t26 7l2 -74q-14 -5 -39.5 -12t-58.5 -7q-59 0 -90 25t-31 62q0 25 11.5 45t28.5 36t35.5 27.5t33.5 19.5h-22v527h121v-527zM202 668q0 -28 -16.5 -47t-54.5 -19t-54 18.5
t-16 47.5t16 47.5t54 18.5t54.5 -18.5t16.5 -47.5z" />
    <glyph glyph-name="Idotaccent" unicode="&#x130;" horiz-adv-x="281" 
d="M208 827q0 -28 -15.5 -46t-51.5 -18q-37 0 -52.5 18t-15.5 46q0 27 15.5 45t52.5 18q36 0 51.5 -18t15.5 -45zM202 0h-123v707h123v-707z" />
    <glyph glyph-name="dotlessi" unicode="&#x131;" horiz-adv-x="262" 
d="M71 0v527h120v-527h-120z" />
    <glyph glyph-name="IJ" unicode="&#x132;" horiz-adv-x="721" 
d="M79 0v707h123v-707h-123zM524 707h123v-499q0 -99 -51.5 -158.5t-160.5 -59.5q-29 0 -51 3.5t-37 8.5q-18 5 -30 12l16 96q10 -5 22 -9q11 -4 26 -6.5t33 -2.5q110 0 110 117v498z" />
    <glyph glyph-name="ij" unicode="&#x133;" horiz-adv-x="541" 
d="M71 0v527h120v-527h-120zM202 673q0 -29 -16.5 -48t-54.5 -19t-54.5 19t-16.5 48t16.5 47t54.5 18t54.5 -18t16.5 -47zM221 -111q6 -2 13 -4q6 -2 15 -3t20 -1q39 0 60 22t21 78v546h119v-546q0 -102 -48.5 -148.5t-129.5 -46.5q-17 0 -31 1t-25 3q-13 2 -24 5zM479 672
q0 -66 -71 -66q-37 0 -53.5 17.5t-16.5 47.5t16.5 48t54.5 18q40 0 55 -18.5t15 -46.5z" />
    <glyph glyph-name="Jcircumflex" unicode="&#x134;" horiz-adv-x="443" 
d="M355 921l121 -159h-97l-75 95l-74 -95h-97l122 159h100zM247 707h123v-499q0 -99 -51.5 -158.5t-160.5 -59.5q-29 0 -51 3.5t-37 8.5q-18 5 -30 12l16 96q10 -5 22 -9q11 -4 26 -6.5t33 -2.5q110 0 110 117v498z" />
    <glyph glyph-name="jcircumflex" unicode="&#x135;" horiz-adv-x="265" 
d="M-46 -112q4 -1 15.5 -4t28.5 -3q38 0 61.5 22.5t23.5 79.5v544h119v-546q0 -51 -14 -88t-38.5 -60.5t-57.5 -35t-70 -11.5q-17 0 -30.5 1t-23.5 3q-11 2 -21 4zM190 751l122 -159h-98l-74 94l-74 -94h-97l122 159h99z" />
    <glyph glyph-name="Kcommaaccent" unicode="&#x136;" horiz-adv-x="668" 
d="M269 -286q6 5 15 16.5t17.5 25.5t15 29.5t7.5 28.5q-28 1 -39 18t-11 40q0 26 15 43t50 17q28 0 46 -19t18 -59q0 -32 -10 -60t-24 -50.5t-28.5 -38.5t-22.5 -23zM488 0l-235 285h-53v-285h-122v707h122v-318q12 1 21 2t16 3t13 4q9 10 24 28.5t33.5 42.5t39.5 50.5
t41 53.5q48 62 102 134h134q-6 -11 -24.5 -37t-44 -60t-55.5 -73t-58 -75t-52 -66.5t-37 -47.5l279 -348h-144z" />
    <glyph glyph-name="kcommaaccent" unicode="&#x137;" horiz-adv-x="566" 
d="M221 -286q6 5 15 16.5t17.5 25.5t15 29.5t7.5 28.5q-29 1 -39.5 18t-10.5 40q0 26 14.5 43t50.5 17q28 0 45.5 -19t17.5 -59q0 -32 -10 -60t-24 -50.5t-28 -38.5t-23 -23zM402 0q0 1 -8 10.5t-21 25.5t-29 35.5t-33 39.5l-90 108h-31v-219h-120v732h120v-427q11 2 20.5 4
t14.5 4q6 6 16.5 18t24 28t28.5 34.5t30 37.5q35 44 76 96h131q-5 -9 -18.5 -28t-32 -43t-40.5 -51.5t-43 -53.5t-39.5 -48.5t-30.5 -36.5l219 -266h-144z" />
    <glyph glyph-name="kgreenlandic" unicode="&#x138;" horiz-adv-x="559" 
d="M398 0q-1 1 -9.5 11.5t-21 26t-29 35.5t-32.5 40q-39 48 -88 107h-27v-220h-120v527h120v-223q11 2 19.5 4t13.5 4q6 6 16 18t23 28.5t27.5 35t28.5 37.5l72 96h131q-5 -9 -18 -28t-31 -43t-38.5 -51.5t-41 -54t-38 -49t-29.5 -37.5l213 -264h-141z" />
    <glyph glyph-name="Lacute" unicode="&#x139;" horiz-adv-x="560" 
d="M83 763l92 159h128l-121 -159h-99zM78 0v707h122v-602h315v-105h-437z" />
    <glyph glyph-name="lacute" unicode="&#x13a;" horiz-adv-x="327" 
d="M75 778l93 158h127l-121 -158h-99zM300 6q-5 -3 -28 -9.5t-61 -6.5q-40 0 -66.5 11t-43 31.5t-23.5 49t-7 63.5v586h120v-574q0 -38 15 -54.5t46 -16.5q9 0 17 0.5t13 1.5q6 1 11 3z" />
    <glyph glyph-name="Lcommaaccent" unicode="&#x13b;" horiz-adv-x="556" 
d="M232 -286q6 5 15 16.5t17.5 25.5t15 29.5t7.5 28.5q-29 1 -39.5 18t-10.5 40q0 26 14.5 43t49.5 17q29 0 47 -19t18 -59q0 -32 -10 -60t-24 -50.5t-28.5 -38.5t-22.5 -23zM75 0v707h122v-602h315v-105h-437z" />
    <glyph glyph-name="lcommaaccent" unicode="&#x13c;" horiz-adv-x="327" 
d="M132 -286q6 5 15.5 16.5t18 25.5t14.5 29.5t7 28.5q-28 1 -39 18t-11 40q0 26 15 43t50 17q28 0 46 -19t18 -59q0 -32 -10 -60t-24 -50.5t-28 -38.5t-23 -23zM300 6q-5 -3 -28 -9.5t-61 -6.5q-40 0 -66.5 11t-43 31.5t-23.5 49t-7 63.5v586h120v-574q0 -38 15 -54.5
t46 -16.5q9 0 17 0.5t13 1.5q6 1 11 3z" />
    <glyph glyph-name="Lcaron" unicode="&#x13d;" horiz-adv-x="564" 
d="M362 524q6 5 15 16.5t17.5 26t15 30t7.5 28.5q-28 1 -39 17.5t-11 39.5q0 26 15 42.5t50 16.5q29 0 46.5 -18.5t17.5 -58.5q0 -32 -10 -60.5t-24 -51t-28 -38.5t-23 -23zM78 0v707h122v-602h315v-105h-437z" />
    <glyph glyph-name="lcaron" unicode="&#x13e;" horiz-adv-x="417" 
d="M268 524q6 5 15 16.5t17 26t14.5 30t7.5 28.5q-28 1 -38.5 17.5t-10.5 39.5q0 26 14.5 42.5t49.5 16.5q29 0 47 -18.5t18 -58.5q0 -32 -10 -60.5t-24 -51t-28.5 -38.5t-23.5 -23zM300 6q-5 -3 -28 -9.5t-61 -6.5q-40 0 -66.5 11t-43 31.5t-23.5 49t-7 63.5v586h120v-574
q0 -38 15 -54.5t46 -16.5q9 0 17 0.5t13 1.5q6 1 11 3z" />
    <glyph glyph-name="Ldot" unicode="&#x13f;" horiz-adv-x="569" 
d="M500 369q0 -29 -16.5 -48.5t-55.5 -19.5q-38 0 -54 19t-16 49q0 29 16 48.5t54 19.5q39 0 55.5 -19.5t16.5 -48.5zM78 0v707h122v-602h315v-105h-437z" />
    <glyph glyph-name="ldot" unicode="&#x140;" horiz-adv-x="514" 
d="M458 369q0 -29 -16 -48.5t-54 -19.5q-39 0 -55.5 19t-16.5 49q0 29 16.5 48.5t55.5 19.5q38 0 54 -19.5t16 -48.5zM300 6q-5 -3 -28 -9.5t-61 -6.5q-40 0 -66.5 11t-43 31.5t-23.5 49t-7 63.5v586h120v-574q0 -38 15 -54.5t46 -16.5q9 0 17 0.5t13 1.5q6 1 11 3z" />
    <glyph glyph-name="Lslash" unicode="&#x141;" horiz-adv-x="560" 
d="M78 0v297l-77 -21l-26 95l103 28v308h122v-275l126 35l25 -94l-151 -42v-226h315v-105h-437z" />
    <glyph glyph-name="lslash" unicode="&#x142;" horiz-adv-x="327" 
d="M300 6q-5 -3 -28 -9.5t-61 -6.5q-40 0 -66.5 11t-43 31.5t-23.5 49t-7 63.5v152l-74 -21l-25 95l99 28v332h120v-298l115 33l25 -94l-140 -40v-175q0 -38 15 -54.5t46 -16.5q9 0 17 0.5t13 1.5q6 1 11 3z" />
    <glyph glyph-name="Nacute" unicode="&#x143;" horiz-adv-x="737" 
d="M310 763l92 159h127l-120 -159h-99zM542 0l-350 503l5 -74v-429h-119v707h116l351 -512l-5 73v439h120v-707h-118z" />
    <glyph glyph-name="nacute" unicode="&#x144;" 
d="M233 592l92 159h128l-121 -159h-99zM168 527l14 -61q21 19 48 35q23 14 56.5 25t75.5 11q88 0 133 -52t45 -141v-344h-121v335q0 50 -22 77.5t-72 27.5q-29 0 -53.5 -8.5t-42.5 -19.5q-21 -12 -38 -27v-385h-120v527h97z" />
    <glyph glyph-name="Ncommaaccent" unicode="&#x145;" horiz-adv-x="737" 
d="M305 -286q6 5 15 16.5t17.5 25.5t14.5 29.5t8 28.5q-29 1 -39.5 18t-10.5 40q0 26 14.5 43t49.5 17q29 0 47 -19t18 -59q0 -32 -10 -60t-24 -50.5t-28.5 -38.5t-23.5 -23zM542 0l-350 503l5 -74v-429h-119v707h116l351 -512l-5 73v439h120v-707h-118z" />
    <glyph glyph-name="ncommaaccent" unicode="&#x146;" 
d="M238 -286q6 5 15 16.5t17.5 25.5t15 29.5t7.5 28.5q-28 1 -39 18t-11 40q0 26 15 43t50 17q28 0 46 -19t18 -59q0 -32 -10 -60t-24 -50.5t-28 -38.5t-23 -23zM168 527l14 -61q21 19 48 35q23 14 56.5 25t75.5 11q88 0 133 -52t45 -141v-344h-121v335q0 50 -22 77.5
t-72 27.5q-29 0 -53.5 -8.5t-42.5 -19.5q-21 -12 -38 -27v-385h-120v527h97z" />
    <glyph glyph-name="Ncaron" unicode="&#x147;" horiz-adv-x="737" 
d="M316 762l-122 159h98l74 -94l75 94h96l-121 -159h-100zM542 0l-350 503l5 -74v-429h-119v707h116l351 -512l-5 73v439h120v-707h-118z" />
    <glyph glyph-name="ncaron" unicode="&#x148;" 
d="M255 592l-121 159h97l74 -95l75 95h97l-122 -159h-100zM168 527l14 -61q21 19 48 35q23 14 56.5 25t75.5 11q88 0 133 -52t45 -141v-344h-121v335q0 50 -22 77.5t-72 27.5q-29 0 -53.5 -8.5t-42.5 -19.5q-21 -12 -38 -27v-385h-120v527h97z" />
    <glyph glyph-name="napostrophe" unicode="&#x149;" horiz-adv-x="753" 
d="M28 524q6 5 15 16.5t17 26t14.5 30t7.5 28.5q-29 1 -39.5 17.5t-10.5 39.5q0 26 15 42.5t50 16.5q29 0 46.5 -18.5t17.5 -58.5q0 -32 -10 -60.5t-24 -51t-28.5 -38.5t-22.5 -23zM315 527l14 -61q21 19 48 35q23 14 56.5 25t75.5 11q88 0 133 -52t45 -141v-344h-121v335
q0 50 -22 77.5t-72 27.5q-29 0 -53.5 -8.5t-42.5 -19.5q-21 -12 -38 -27v-385h-120v527h97z" />
    <glyph glyph-name="Eng" unicode="&#x14a;" horiz-adv-x="737" 
d="M383 -105q7 -3 17 -6q8 -2 20.5 -4t27.5 -2q43 0 68.5 25t25.5 90v2l-350 503l5 -74v-429h-119v707h116l351 -512l-5 73v439h120v-727q0 -38 -11 -73t-34.5 -62t-59.5 -43t-86 -16q-24 0 -41.5 2.5t-29.5 5.5q-14 4 -24 8z" />
    <glyph glyph-name="eng" unicode="&#x14b;" 
d="M168 527l14 -67q23 21 52 38q25 14 59 26.5t77 12.5q84 0 127 -52t43 -141v-335q0 -51 -9.5 -92.5t-31 -70.5t-56.5 -44.5t-86 -15.5q-23 0 -40 2.5t-29 5.5q-14 4 -24 8l9 91q7 -4 16 -7q8 -2 19 -4t25 -2q45 0 65.5 26t20.5 92v337q0 50 -22.5 77t-71.5 27
q-29 0 -53.5 -8.5t-42.5 -18.5q-21 -11 -38 -26v-386h-120v527h97z" />
    <glyph glyph-name="Omacron" unicode="&#x14c;" horiz-adv-x="771" 
d="M232 784v78h309v-78h-309zM383 -10q-80 0 -141 25t-103 72t-63.5 114t-21.5 150q0 85 22 153t65 115t104.5 72.5t141.5 25.5q79 0 140.5 -25t103.5 -72t64 -114t22 -150q0 -84 -22 -151.5t-64.5 -115.5t-105 -73.5t-142.5 -25.5zM387 92q97 0 152.5 67t55.5 195
t-54.5 194.5t-153.5 66.5q-100 0 -155.5 -67t-55.5 -194q0 -128 56 -195t155 -67z" />
    <glyph glyph-name="omacron" unicode="&#x14d;" horiz-adv-x="606" 
d="M147 620v79h311v-79h-311zM303 -10q-62 0 -109.5 19.5t-80 55t-49.5 86.5t-17 114q0 62 17 112t49.5 85.5t80 55t109.5 19.5t109.5 -19t80 -54.5t49.5 -86t17 -112.5q0 -63 -17 -113.5t-49.5 -86.5t-80 -55.5t-109.5 -19.5zM303 85q65 0 100 45t35 133t-35 133.5
t-100 45.5t-100.5 -45.5t-35.5 -133.5t35.5 -133t100.5 -45z" />
    <glyph glyph-name="Obreve" unicode="&#x14e;" horiz-adv-x="771" 
d="M545 916q0 -18 -8.5 -44.5t-27.5 -50.5t-49.5 -41.5t-74.5 -17.5q-55 0 -86.5 22t-48 49.5t-21 52.5t-4.5 30h83q0 -2 2.5 -13.5t11 -25t23.5 -24.5t40 -11q22 0 37 9t24.5 21.5t13.5 25t4 18.5h81zM383 -10q-80 0 -141 25t-103 72t-63.5 114t-21.5 150q0 85 22 153
t65 115t104.5 72.5t141.5 25.5q79 0 140.5 -25t103.5 -72t64 -114t22 -150q0 -84 -22 -151.5t-64.5 -115.5t-105 -73.5t-142.5 -25.5zM387 92q97 0 152.5 67t55.5 195t-54.5 194.5t-153.5 66.5q-100 0 -155.5 -67t-55.5 -194q0 -128 56 -195t155 -67z" />
    <glyph glyph-name="obreve" unicode="&#x14f;" horiz-adv-x="606" 
d="M459 744q0 -18 -8.5 -44t-27.5 -50.5t-49.5 -41.5t-74.5 -17q-36 0 -62.5 10.5t-44 26t-28 34.5t-16.5 36t-7.5 29.5t-1.5 16.5h82q0 -2 3 -13.5t11 -25t23.5 -24.5t40.5 -11q22 0 37 9t24 21.5t13 25t4 18.5h82zM303 -10q-62 0 -109.5 19.5t-80 55t-49.5 86.5t-17 114
q0 62 17 112t49.5 85.5t80 55t109.5 19.5t109.5 -19t80 -54.5t49.5 -86t17 -112.5q0 -63 -17 -113.5t-49.5 -86.5t-80 -55.5t-109.5 -19.5zM303 85q65 0 100 45t35 133t-35 133.5t-100 45.5t-100.5 -45.5t-35.5 -133.5t35.5 -133t100.5 -45z" />
    <glyph glyph-name="Ohungarumlaut" unicode="&#x150;" horiz-adv-x="771" 
d="M237 764l70 158h104l-79 -158h-95zM403 764l70 158h109l-94 -158h-85zM383 -10q-80 0 -141 25t-103 72t-63.5 114t-21.5 150q0 85 22 153t65 115t104.5 72.5t141.5 25.5q79 0 140.5 -25t103.5 -72t64 -114t22 -150q0 -84 -22 -151.5t-64.5 -115.5t-105 -73.5
t-142.5 -25.5zM387 92q97 0 152.5 67t55.5 195t-54.5 194.5t-153.5 66.5q-100 0 -155.5 -67t-55.5 -194q0 -128 56 -195t155 -67z" />
    <glyph glyph-name="ohungarumlaut" unicode="&#x151;" horiz-adv-x="606" 
d="M159 592l70 159h104l-80 -159h-94zM325 592l70 159h109l-95 -159h-84zM303 -10q-62 0 -109.5 19.5t-80 55t-49.5 86.5t-17 114q0 62 17 112t49.5 85.5t80 55t109.5 19.5t109.5 -19t80 -54.5t49.5 -86t17 -112.5q0 -63 -17 -113.5t-49.5 -86.5t-80 -55.5t-109.5 -19.5z
M303 85q65 0 100 45t35 133t-35 133.5t-100 45.5t-100.5 -45.5t-35.5 -133.5t35.5 -133t100.5 -45z" />
    <glyph glyph-name="OE" unicode="&#x152;" horiz-adv-x="1141" 
d="M602 0v83q-38 -45 -93 -69t-130 -24q-79 0 -139.5 25.5t-102 72.5t-62.5 113.5t-21 149.5q0 84 21.5 152t63.5 115.5t103 73t141 25.5q74 0 128 -24t91 -67v81h475v-103h-366v-194h320v-103h-320v-204h366v-103h-475zM383 92q98 0 151 67t53 195t-52.5 194.5t-151.5 66.5
q-100 0 -153.5 -67t-53.5 -194q0 -128 54 -195t153 -67z" />
    <glyph glyph-name="oe" unicode="&#x153;" horiz-adv-x="949" 
d="M876 23q-21 -10 -47 -17q-23 -6 -55.5 -11t-74.5 -5q-72 0 -122.5 21t-81.5 60q-32 -39 -79.5 -60t-112.5 -21q-62 0 -109.5 19.5t-80 55t-49.5 86.5t-17 114q0 61 17 111.5t49.5 86t80 55t109.5 19.5q65 0 113 -21.5t80 -60.5q30 40 77 61t110 21q59 0 100 -17.5t66 -48
t36 -70.5t11 -85q0 -17 -1 -31.5t-3 -25.5q-2 -12 -4 -23h-325q2 -82 39 -117.5t112 -35.5q33 0 59.5 4.5t45.5 9.5q22 6 39 15zM303 85q65 0 100 45t35 133t-35 133.5t-100 45.5t-100.5 -45.5t-35.5 -133.5t35.5 -133t100.5 -45zM782 324q0 59 -23 91.5t-80 32.5
q-52 0 -81.5 -32.5t-34.5 -101.5h219v10z" />
    <glyph glyph-name="Racute" unicode="&#x154;" horiz-adv-x="683" 
d="M252 763l92 159h128l-122 -159h-98zM355 707q76 0 126.5 -16.5t81 -46.5t43 -71t12.5 -89q0 -71 -32.5 -125.5t-108.5 -78.5l156 -280h-134l-143 262h-156v-262h-122v707h277zM200 362h143q45 0 74.5 8t47 24t24.5 38t7 51q0 28 -7 50.5t-24.5 38.5t-47 24.5t-74.5 8.5
h-143v-243z" />
    <glyph glyph-name="racute" unicode="&#x155;" horiz-adv-x="394" 
d="M126 592l92 159h127l-121 -159h-98zM168 527l14 -62q26 29 69.5 50.5t112.5 21.5l-4 -106h-6q-3 0 -7 0.5t-9 0.5q-60 0 -96.5 -18t-50.5 -37v-377h-120v527h97z" />
    <glyph glyph-name="Rcommaaccent" unicode="&#x156;" horiz-adv-x="683" 
d="M355 707q76 0 126.5 -16.5t81 -46.5t43 -71t12.5 -89q0 -71 -32.5 -125.5t-108.5 -78.5l156 -280h-134l-143 262h-156v-262h-122v707h277zM200 362h143q45 0 74.5 8t47 24t24.5 38t7 51q0 28 -7 50.5t-24.5 38.5t-47 24.5t-74.5 8.5h-143v-243zM278 -287q6 5 15 16.5
t17.5 26t15 30t7.5 28.5q-29 1 -39.5 18t-10.5 39q0 26 15 43t50 17q29 0 46.5 -19t17.5 -59q0 -32 -10 -60t-24 -50.5t-28.5 -38.5t-22.5 -23z" />
    <glyph glyph-name="rcommaaccent" unicode="&#x157;" horiz-adv-x="394" 
d="M64 -286q7 5 16 16.5t17.5 25.5t15 29.5t7.5 28.5q-29 1 -39.5 18t-10.5 40q0 26 14.5 43t49.5 17q29 0 46.5 -19t17.5 -59q0 -32 -10 -60t-23.5 -50.5t-28 -38.5t-22.5 -23zM168 527l14 -62q26 29 69.5 50.5t112.5 21.5l-4 -106h-6q-3 0 -7 0.5t-9 0.5q-60 0 -96.5 -18
t-50.5 -37v-377h-120v527h97z" />
    <glyph glyph-name="Rcaron" unicode="&#x158;" horiz-adv-x="683" 
d="M355 707q76 0 126.5 -16.5t81 -46.5t43 -71t12.5 -89q0 -71 -32.5 -125.5t-108.5 -78.5l156 -280h-134l-143 262h-156v-262h-122v707h277zM200 362h143q45 0 74.5 8t47 24t24.5 38t7 51q0 28 -7 50.5t-24.5 38.5t-47 24.5t-74.5 8.5h-143v-243zM275 762l-122 159h97
l75 -94l75 94h97l-122 -159h-100z" />
    <glyph glyph-name="rcaron" unicode="&#x159;" horiz-adv-x="394" 
d="M171 592l-122 159h98l75 -95l74 95h97l-122 -159h-100zM168 527l14 -62q26 29 69.5 50.5t112.5 21.5l-4 -106h-6q-3 0 -7 0.5t-9 0.5q-60 0 -96.5 -18t-50.5 -37v-377h-120v527h97z" />
    <glyph glyph-name="Sacute" unicode="&#x15a;" horiz-adv-x="604" 
d="M243 763l92 158h127l-121 -158h-98zM87 132q22 -12 51 -22q25 -8 61 -14.5t82 -6.5q76 0 112 24.5t36 72.5q0 27 -11 45t-29 30.5t-42 20.5t-51 16q-39 12 -81.5 27t-78 40.5t-59 63t-23.5 94.5q0 48 19 84.5t53.5 61t82 36.5t105.5 12q53 0 92.5 -7.5t66.5 -15.5
q32 -10 55 -22l-34 -90q-21 10 -47 18q-23 7 -56 12.5t-75 5.5q-141 0 -141 -90q0 -24 9.5 -39.5t29.5 -28t50.5 -23.5t72.5 -24q41 -13 79.5 -29t68 -40t47.5 -59t18 -87q0 -103 -71.5 -155.5t-195.5 -52.5q-56 0 -97.5 7.5t-70.5 16.5q-33 11 -58 25z" />
    <glyph glyph-name="sacute" unicode="&#x15b;" horiz-adv-x="496" 
d="M190 592l91 159h128l-121 -159h-98zM72 118q18 -10 42 -18q20 -7 49 -12t65 -5q105 0 105 59q0 16 -7.5 26t-21.5 17t-34 12.5t-45 12.5q-34 9 -66 21t-57 31t-40 47t-15 69q0 75 53.5 117t159.5 42q40 0 70.5 -5.5t52.5 -11.5q25 -7 44 -16l-24 -88q-16 7 -37 13
q-18 5 -43 9.5t-55 4.5q-51 0 -78 -13.5t-27 -41.5q0 -16 9 -27t24 -18.5t35 -13t43 -11.5q36 -9 68 -21t55.5 -31t37.5 -47t14 -68q0 -81 -56.5 -121t-162.5 -40q-44 0 -77.5 5.5t-56.5 12.5q-27 8 -48 18z" />
    <glyph glyph-name="Scircumflex" unicode="&#x15c;" horiz-adv-x="604" 
d="M356 921l122 -159h-98l-74 95l-74 -95h-98l122 159h100zM87 132q22 -12 51 -22q25 -8 61 -14.5t82 -6.5q76 0 112 24.5t36 72.5q0 27 -11 45t-29 30.5t-42 20.5t-51 16q-39 12 -81.5 27t-78 40.5t-59 63t-23.5 94.5q0 48 19 84.5t53.5 61t82 36.5t105.5 12
q53 0 92.5 -7.5t66.5 -15.5q32 -10 55 -22l-34 -90q-21 10 -47 18q-23 7 -56 12.5t-75 5.5q-141 0 -141 -90q0 -24 9.5 -39.5t29.5 -28t50.5 -23.5t72.5 -24q41 -13 79.5 -29t68 -40t47.5 -59t18 -87q0 -103 -71.5 -155.5t-195.5 -52.5q-56 0 -97.5 7.5t-70.5 16.5
q-33 11 -58 25z" />
    <glyph glyph-name="scircumflex" unicode="&#x15d;" horiz-adv-x="496" 
d="M303 751l122 -159h-97l-75 94l-74 -94h-98l122 159h100zM72 118q18 -10 42 -18q20 -7 49 -12t65 -5q105 0 105 59q0 16 -7.5 26t-21.5 17t-34 12.5t-45 12.5q-34 9 -66 21t-57 31t-40 47t-15 69q0 75 53.5 117t159.5 42q40 0 70.5 -5.5t52.5 -11.5q25 -7 44 -16l-24 -88
q-16 7 -37 13q-18 5 -43 9.5t-55 4.5q-51 0 -78 -13.5t-27 -41.5q0 -16 9 -27t24 -18.5t35 -13t43 -11.5q36 -9 68 -21t55.5 -31t37.5 -47t14 -68q0 -81 -56.5 -121t-162.5 -40q-44 0 -77.5 5.5t-56.5 12.5q-27 8 -48 18z" />
    <glyph glyph-name="Scedilla" unicode="&#x15e;" horiz-adv-x="604" 
d="M87 132q22 -12 51 -22q25 -8 61 -14.5t82 -6.5q76 0 112 24.5t36 72.5q0 27 -11 45t-29 30.5t-42 20.5t-51 16q-39 12 -81.5 27t-78 40.5t-59 63t-23.5 94.5q0 48 19 84.5t53.5 61t82 36.5t105.5 12q53 0 92.5 -7.5t66.5 -15.5q32 -10 55 -22l-34 -90q-21 10 -47 18
q-23 7 -56 12.5t-75 5.5q-141 0 -141 -90q0 -24 9.5 -39.5t29.5 -28t50.5 -23.5t72.5 -24q41 -13 79.5 -29t68 -40t47.5 -59t18 -87q0 -94 -60 -146t-166 -60l-12 -45q3 0 8.5 0.5t8.5 0.5q20 0 37.5 -4t31 -14t21.5 -25.5t8 -38.5q0 -44 -31.5 -67.5t-94.5 -23.5
q-32 0 -54 5q-11 3 -20 6l10 58q6 -3 15 -5q17 -5 42 -5q22 0 40.5 7t18.5 26t-17 25.5t-40 6.5q-20 0 -38.5 -2.5t-23.5 -4.5l26 99q-50 2 -87.5 9t-63.5 16q-30 10 -52 23z" />
    <glyph glyph-name="scedilla" unicode="&#x15f;" horiz-adv-x="496" 
d="M72 118q18 -10 42 -18q20 -7 49 -12t65 -5q105 0 105 59q0 16 -7.5 26t-21.5 17t-34 12.5t-45 12.5q-34 9 -66 21t-57 31t-40 47t-15 69q0 75 53.5 117t159.5 42q40 0 70.5 -5.5t52.5 -11.5q25 -7 44 -16l-24 -88q-16 7 -37 13q-18 5 -43 9.5t-55 4.5q-51 0 -78 -13.5
t-27 -41.5q0 -16 9 -27t24 -18.5t35 -13t43 -11.5q36 -9 68 -21t55.5 -31t37.5 -47t14 -68q0 -74 -47 -113.5t-135 -45.5l-12 -45q3 0 8.5 0.5t7.5 0.5q20 0 38 -4t31.5 -14t21.5 -25.5t8 -38.5q0 -44 -32 -67.5t-94 -23.5q-32 0 -54 5q-11 3 -20 6l9 58q7 -3 16 -5
q17 -5 41 -5q23 0 42 7t19 26t-18 25.5t-41 6.5q-19 0 -37.5 -2.5t-24.5 -4.5l27 99q-37 2 -65.5 7.5t-48.5 11.5q-24 7 -41 16z" />
    <glyph glyph-name="Scaron" unicode="&#x160;" horiz-adv-x="604" 
d="M261 762l-122 159h97l75 -94l74 94h98l-122 -159h-100zM87 132q22 -12 51 -22q25 -8 61 -14.5t82 -6.5q76 0 112 24.5t36 72.5q0 27 -11 45t-29 30.5t-42 20.5t-51 16q-39 12 -81.5 27t-78 40.5t-59 63t-23.5 94.5q0 48 19 84.5t53.5 61t82 36.5t105.5 12q53 0 92.5 -7.5
t66.5 -15.5q32 -10 55 -22l-34 -90q-21 10 -47 18q-23 7 -56 12.5t-75 5.5q-141 0 -141 -90q0 -24 9.5 -39.5t29.5 -28t50.5 -23.5t72.5 -24q41 -13 79.5 -29t68 -40t47.5 -59t18 -87q0 -103 -71.5 -155.5t-195.5 -52.5q-56 0 -97.5 7.5t-70.5 16.5q-33 11 -58 25z" />
    <glyph glyph-name="scaron" unicode="&#x161;" horiz-adv-x="496" 
d="M203 592l-122 159h98l74 -95l74 95h97l-122 -159h-99zM72 118q18 -10 42 -18q20 -7 49 -12t65 -5q105 0 105 59q0 16 -7.5 26t-21.5 17t-34 12.5t-45 12.5q-34 9 -66 21t-57 31t-40 47t-15 69q0 75 53.5 117t159.5 42q40 0 70.5 -5.5t52.5 -11.5q25 -7 44 -16l-24 -88
q-16 7 -37 13q-18 5 -43 9.5t-55 4.5q-51 0 -78 -13.5t-27 -41.5q0 -16 9 -27t24 -18.5t35 -13t43 -11.5q36 -9 68 -21t55.5 -31t37.5 -47t14 -68q0 -81 -56.5 -121t-162.5 -40q-44 0 -77.5 5.5t-56.5 12.5q-27 8 -48 18z" />
    <glyph glyph-name="Tcommaaccent" unicode="&#x162;" horiz-adv-x="627" 
d="M346 0l-15 -53q2 0 8 0.5t8 0.5q20 0 38 -4t31.5 -14t21.5 -25.5t8 -38.5q0 -44 -32 -67.5t-95 -23.5q-34 0 -54 5q-11 3 -19 6l9 58q7 -3 16 -5q17 -5 41 -5q22 0 41 7t19 26t-17.5 25.5t-40.5 6.5q-20 0 -38 -2.5t-24 -4.5l29 108h-29v599h-227v108h577v-108h-226v-599
h-30z" />
    <glyph glyph-name="tcommaaccent" unicode="&#x163;" horiz-adv-x="415" 
d="M375 13q-12 -6 -28 -10q-14 -4 -33 -7.5t-42 -4.5l-12 -44q3 0 9 0.5t8 0.5q20 0 38 -4t31.5 -14t21.5 -25.5t8 -38.5q0 -44 -32.5 -67.5t-94.5 -23.5q-32 0 -54 5q-11 3 -20 6l9 58q7 -3 16 -5q17 -5 41 -5q23 0 42 7t19 26t-17.5 25.5t-40.5 6.5q-20 0 -38 -2.5
t-25 -4.5l28 103q-54 10 -83.5 49t-29.5 117v270h-69v96h72l14 140h105v-140h150l-4 -96h-146v-270q0 -74 76 -74q15 0 27.5 2.5t21.5 5.5q11 4 19 8z" />
    <glyph glyph-name="Tcaron" unicode="&#x164;" horiz-adv-x="627" 
d="M266 762l-123 159h98l74 -94l75 94h97l-122 -159h-99zM252 0v599h-227v108h577v-108h-226v-599h-124z" />
    <glyph glyph-name="tcaron" unicode="&#x165;" horiz-adv-x="518" 
d="M412 524q6 4 15.5 15.5t18 26t14.5 30t7 28.5q-28 1 -39 18t-11 40q0 25 15 42t50 17q28 0 46 -18.5t18 -59.5q0 -32 -10 -60t-24 -50.5t-28 -38.5t-23 -23zM375 13q-15 -7 -33 -12q-16 -5 -37.5 -8t-47.5 -3q-74 0 -117.5 39t-43.5 132v270h-69v96h72l14 140h105v-140
h150l-4 -96h-146v-270q0 -74 76 -74q15 0 27.5 2.5t21.5 5.5q11 4 19 8z" />
    <glyph glyph-name="Tbar" unicode="&#x166;" horiz-adv-x="627" 
d="M252 0v309h-143v93h143v197h-227v108h577v-108h-226v-197h144v-93h-144v-309h-124z" />
    <glyph glyph-name="tbar" unicode="&#x167;" horiz-adv-x="415" 
d="M375 13q-15 -7 -33 -12q-16 -5 -37.5 -8t-47.5 -3q-74 0 -117.5 39t-43.5 132v98h-66v68h66v104h-69v96h72l14 140h105v-140h150l-4 -96h-146v-104h144v-68h-144v-98q0 -74 76 -74q15 0 27.5 2.5t21.5 5.5q11 4 19 8z" />
    <glyph glyph-name="Utilde" unicode="&#x168;" horiz-adv-x="724" 
d="M191 764q-2 4 -3 9t-1.5 11.5t-0.5 15.5q0 21 6 41t18.5 35.5t31.5 24.5t45 9q25 0 44.5 -10t35.5 -21.5t30 -21.5t29 -10q31 0 31 35q0 7 -2 17q-1 4 -2 9h84l2 -12q1 -5 2 -12t1 -13q0 -21 -6 -40.5t-19 -35t-32 -24.5t-45 -9t-45 10t-34.5 21.5t-29 21.5t-29.5 10
q-15 0 -23.5 -9.5t-8.5 -26.5q0 -5 0.5 -9t1.5 -8t3 -8h-84zM529 707h122v-417q0 -74 -16 -130t-50.5 -93.5t-89.5 -57t-133 -19.5t-133 19.5t-89.5 57t-50 93.5t-15.5 130v417h122v-421q0 -45 8 -80.5t27 -61t51 -39t80 -13.5q49 0 81 13.5t51 39t27 61t8 80.5v421z" />
    <glyph glyph-name="utilde" unicode="&#x169;" 
d="M129 591q-2 4 -3 9t-1.5 11t-0.5 15q0 21 6 41t19 35t32 24t45 9q25 0 44 -9.5t35 -21.5t30 -21.5t29 -9.5q16 0 24 9.5t8 25.5q0 7 -2 17q-1 4 -2 9h84l2 -12q1 -5 1.5 -11.5t0.5 -12.5q0 -22 -6 -41.5t-18.5 -34.5t-31.5 -24t-45 -9q-27 0 -46 9.5t-34.5 21.5t-29 21.5
t-29.5 9.5q-15 0 -23 -9.5t-8 -25.5q0 -10 2 -18q1 -4 2 -7h-84zM187 527v-335q0 -50 22 -77.5t71 -27.5q29 0 53.5 8t42.5 19q21 12 39 28v385h120v-527h-98l-14 61q-21 -20 -48 -36q-23 -14 -56 -24.5t-75 -10.5q-89 0 -133.5 52t-44.5 141v344h121z" />
    <glyph glyph-name="Umacron" unicode="&#x16a;" horiz-adv-x="724" 
d="M208 784v78h309v-78h-309zM529 707h122v-417q0 -74 -16 -130t-50.5 -93.5t-89.5 -57t-133 -19.5t-133 19.5t-89.5 57t-50 93.5t-15.5 130v417h122v-421q0 -45 8 -80.5t27 -61t51 -39t80 -13.5q49 0 81 13.5t51 39t27 61t8 80.5v421z" />
    <glyph glyph-name="umacron" unicode="&#x16b;" 
d="M144 620v79h309v-79h-309zM187 527v-335q0 -50 22 -77.5t71 -27.5q29 0 53.5 8t42.5 19q21 12 39 28v385h120v-527h-98l-14 61q-21 -20 -48 -36q-23 -14 -56 -24.5t-75 -10.5q-89 0 -133.5 52t-44.5 141v344h121z" />
    <glyph glyph-name="Ubreve" unicode="&#x16c;" horiz-adv-x="724" 
d="M519 916q0 -18 -8.5 -44.5t-27.5 -50.5t-49.5 -41.5t-74.5 -17.5q-55 0 -87 22t-48 49.5t-20.5 52.5t-4.5 30h82q0 -2 3 -13.5t11 -25t23.5 -24.5t40.5 -11q22 0 37 9t24 21.5t13 25t4 18.5h82zM529 707h122v-417q0 -74 -16 -130t-50.5 -93.5t-89.5 -57t-133 -19.5
t-133 19.5t-89.5 57t-50 93.5t-15.5 130v417h122v-421q0 -45 8 -80.5t27 -61t51 -39t80 -13.5q49 0 81 13.5t51 39t27 61t8 80.5v421z" />
    <glyph glyph-name="ubreve" unicode="&#x16d;" 
d="M458 744q0 -18 -8.5 -44t-27.5 -50.5t-49.5 -41.5t-74.5 -17q-37 0 -63 10.5t-44 26t-28.5 34.5t-16.5 36t-7.5 29.5t-1.5 16.5h82q0 -2 3 -13.5t11.5 -25t24 -24.5t40.5 -11q22 0 37 9t24 21.5t13 25t4 18.5h82zM187 527v-335q0 -50 22 -77.5t71 -27.5q29 0 53.5 8
t42.5 19q21 12 39 28v385h120v-527h-98l-14 61q-21 -20 -48 -36q-23 -14 -56 -24.5t-75 -10.5q-89 0 -133.5 52t-44.5 141v344h121z" />
    <glyph glyph-name="Uring" unicode="&#x16e;" horiz-adv-x="724" 
d="M357 752q-57 0 -86 29.5t-29 80.5q0 53 31.5 82t88.5 29q56 0 85.5 -29t29.5 -80q0 -53 -29.5 -82.5t-90.5 -29.5zM360 815q45 0 45 49q0 47 -44 47q-47 0 -47 -49q0 -47 46 -47zM529 707h122v-417q0 -74 -16 -130t-50.5 -93.5t-89.5 -57t-133 -19.5t-133 19.5t-89.5 57
t-50 93.5t-15.5 130v417h122v-421q0 -45 8 -80.5t27 -61t51 -39t80 -13.5q49 0 81 13.5t51 39t27 61t8 80.5v421z" />
    <glyph glyph-name="uring" unicode="&#x16f;" 
d="M299 589q-58 0 -86.5 30t-28.5 81q0 52 31.5 82t87.5 30t85 -29.5t29 -80.5q0 -53 -28.5 -83t-89.5 -30zM301 653q45 0 45 48q0 47 -44 47q-46 0 -46 -47q0 -48 45 -48zM187 527v-335q0 -50 22 -77.5t71 -27.5q29 0 53.5 8t42.5 19q21 12 39 28v385h120v-527h-98l-14 61
q-21 -20 -48 -36q-23 -14 -56 -24.5t-75 -10.5q-89 0 -133.5 52t-44.5 141v344h121z" />
    <glyph glyph-name="Uhungarumlaut" unicode="&#x170;" horiz-adv-x="724" 
d="M224 764l70 158h104l-79 -158h-95zM390 764l70 158h109l-94 -158h-85zM529 707h122v-417q0 -74 -16 -130t-50.5 -93.5t-89.5 -57t-133 -19.5t-133 19.5t-89.5 57t-50 93.5t-15.5 130v417h122v-421q0 -45 8 -80.5t27 -61t51 -39t80 -13.5q49 0 81 13.5t51 39t27 61t8 80.5
v421z" />
    <glyph glyph-name="uhungarumlaut" unicode="&#x171;" 
d="M161 592l71 159h103l-79 -159h-95zM327 592l70 159h109l-94 -159h-85zM187 527v-335q0 -50 22 -77.5t71 -27.5q29 0 53.5 8t42.5 19q21 12 39 28v385h120v-527h-98l-14 61q-21 -20 -48 -36q-23 -14 -56 -24.5t-75 -10.5q-89 0 -133.5 52t-44.5 141v344h121z" />
    <glyph glyph-name="Uogonek" unicode="&#x172;" horiz-adv-x="724" 
d="M529 707h122v-417q0 -128 -49.5 -202.5t-163.5 -91.5q-12 -7 -25.5 -17t-24.5 -22t-18 -25t-7 -27t10.5 -26.5t39.5 -12.5q19 0 37 5t26 7l3 -74q-14 -5 -40 -12t-58 -7q-59 0 -90 25t-31 62q0 19 7 36t17.5 32t24 28t26.5 23q-71 3 -120.5 24t-80.5 58.5t-45.5 92
t-14.5 124.5v417h122v-421q0 -45 8 -80.5t27 -61t51 -39t80 -13.5q49 0 81 13.5t51 39t27 61t8 80.5v421z" />
    <glyph glyph-name="uogonek" unicode="&#x173;" 
d="M187 527v-335q0 -50 22 -77.5t71 -27.5q29 0 53.5 8t42.5 19q21 12 39 28v385h120v-527q-10 -2 -27.5 -10t-34.5 -21t-29.5 -29t-12.5 -35q0 -14 10.5 -26.5t39.5 -12.5q19 0 37 5t26 7l2 -74q-14 -5 -39.5 -12t-58.5 -7q-59 0 -90 25t-31 62q0 26 12.5 47.5t30 39
t36 29.5t29.5 18l-12 55q-21 -20 -48 -36q-23 -14 -56 -24.5t-75 -10.5q-89 0 -133.5 52t-44.5 141v344h121z" />
    <glyph glyph-name="Wcircumflex" unicode="&#x174;" horiz-adv-x="982" 
d="M541 921l121 -159h-97l-74 95l-75 -95h-97l122 159h100zM153 707l115 -488l18 -88l20 88l130 488h111l129 -487l20 -89l17 89l116 487h128l-180 -707h-140l-127 458l-19 80l-19 -79l-127 -459h-140l-180 707h128z" />
    <glyph glyph-name="wcircumflex" unicode="&#x175;" horiz-adv-x="833" 
d="M463 750l122 -158h-98l-74 94l-75 -94h-97l122 158h100zM143 527l88 -329l18 -107l18 108l94 328h112l93 -330l20 -106l16 108l89 328h123l-150 -527h-139l-83 272l-26 122l-25 -122l-82 -272h-139l-151 527h124z" />
    <glyph glyph-name="Ycircumflex" unicode="&#x176;" horiz-adv-x="678" 
d="M388 921l122 -159h-97l-75 95l-74 -95h-98l122 159h100zM278 0v266l-253 441h131l154 -274l30 -63l31 65l150 272h133l-253 -440v-267h-123z" />
    <glyph glyph-name="ycircumflex" unicode="&#x177;" horiz-adv-x="553" 
d="M327 742l122 -159h-98l-74 94l-74 -94h-97l121 159h100zM39 -110q6 -3 14 -5q7 -2 17 -3t22 -1q31 0 51.5 11.5t34.5 29t22.5 38.5t16.5 41l-193 526h126l102 -317l22 -102l132 419h122l-195 -538q-18 -49 -38.5 -86.5t-47.5 -63.5t-62 -39.5t-82 -13.5q-35 0 -58 5
q-12 2 -22 5z" />
    <glyph glyph-name="Ydieresis" unicode="&#x178;" horiz-adv-x="675" 
d="M294 851q0 -26 -14 -43.5t-48 -17.5t-48.5 17t-14.5 44q0 26 14.5 43t48.5 17t48 -17t14 -43zM506 851q0 -26 -14.5 -43.5t-48.5 -17.5t-48 17t-14 44q0 26 14 43t48 17t48.5 -17t14.5 -43zM276 0v264l-251 443h136l147 -261l30 -70l31 72l144 259h137l-250 -442v-265
h-124z" />
    <glyph glyph-name="Zacute" unicode="&#x179;" horiz-adv-x="640" 
d="M254 763l92 159h127l-121 -159h-98zM59 0v103l372 506l-67 -4h-299v102h512v-103l-374 -506l70 4h309v-102h-523z" />
    <glyph glyph-name="zacute" unicode="&#x17a;" horiz-adv-x="527" 
d="M201 592l93 159h127l-121 -159h-99zM66 527h403l4 -97l-274 -337l60 3h211v-96h-415v97l273 337l-60 -3h-202v96z" />
    <glyph glyph-name="Zdotaccent" unicode="&#x17b;" horiz-adv-x="640" 
d="M394 847q0 -28 -16 -46t-53 -18q-36 0 -51.5 18t-15.5 46q0 27 15.5 45t51.5 18q37 0 53 -18t16 -45zM59 0v103l372 506l-67 -4h-299v102h512v-103l-374 -506l70 4h309v-102h-523z" />
    <glyph glyph-name="zdotaccent" unicode="&#x17c;" horiz-adv-x="527" 
d="M343 675q0 -28 -16 -46t-53 -18q-36 0 -51.5 18t-15.5 46q0 27 15.5 45t51.5 18q37 0 53 -17.5t16 -45.5zM66 527h403l4 -97l-274 -337l60 3h211v-96h-415v97l273 337l-60 -3h-202v96z" />
    <glyph glyph-name="Zcaron" unicode="&#x17d;" horiz-adv-x="640" 
d="M276 762l-122 159h97l75 -94l74 94h98l-122 -159h-100zM59 0v103l372 506l-67 -4h-299v102h512v-103l-374 -506l70 4h309v-102h-523z" />
    <glyph glyph-name="zcaron" unicode="&#x17e;" horiz-adv-x="527" 
d="M229 592l-121 159h96l75 -95l74 95h98l-122 -159h-100zM66 527h403l4 -97l-274 -337l60 3h211v-96h-415v97l273 337l-60 -3h-202v96z" />
    <glyph glyph-name="longs" unicode="&#x17f;" horiz-adv-x="376" 
d="M90 0v432h-68v95h68v33q0 60 17.5 98.5t46 60.5t64 30t70.5 8q22 0 39.5 -2.5t30.5 -5.5q15 -4 27 -7l-19 -92q-7 2 -16 5q-8 2 -19 3.5t-25 1.5q-21 0 -38 -5t-30 -17t-20 -32t-7 -50v-556h-121z" />
    <glyph glyph-name="florin" unicode="&#x192;" horiz-adv-x="561" 
d="M507 637q-8 2 -18 4q-8 2 -19.5 3.5t-25.5 1.5q-20 0 -39.5 -5t-35.5 -18.5t-27.5 -36.5t-14.5 -58l-13 -154h157v-95h-164l-27 -299q-5 -60 -26 -98t-51 -59.5t-65 -29t-69 -7.5q-19 0 -35.5 2t-29.5 4q-15 3 -27 6l16 92q6 -3 15 -5q17 -5 42 -5q21 0 40 5t35 17.5
t27 35t14 57.5l24 284h-133v95h142l15 171q5 61 26.5 99t52.5 59.5t67 29.5t70 8q20 0 37.5 -2.5t30.5 -4.5q15 -3 27 -6l-18 -91v0z" />
    <glyph glyph-name="Scommaaccent" unicode="&#x218;" horiz-adv-x="604" 
d="M240 -286q6 5 15 16.5t17.5 25.5t15 29.5t7.5 28.5q-29 1 -39.5 18t-10.5 40q0 26 14.5 43t50.5 17q28 0 46 -19t18 -59q0 -32 -10 -60t-24 -50.5t-28.5 -38.5t-22.5 -23zM87 132q22 -12 51 -22q25 -8 61 -14.5t82 -6.5q76 0 112 24.5t36 72.5q0 27 -11 45t-29 30.5
t-42 20.5t-51 16q-39 12 -81.5 27t-78 40.5t-59 63t-23.5 94.5q0 48 19 84.5t53.5 61t82 36.5t105.5 12q53 0 92.5 -7.5t66.5 -15.5q32 -10 55 -22l-34 -90q-21 10 -47 18q-23 7 -56 12.5t-75 5.5q-141 0 -141 -90q0 -24 9.5 -39.5t29.5 -28t50.5 -23.5t72.5 -24
q41 -13 79.5 -29t68 -40t47.5 -59t18 -87q0 -103 -71.5 -155.5t-195.5 -52.5q-56 0 -97.5 7.5t-70.5 16.5q-33 11 -58 25z" />
    <glyph glyph-name="scommaaccent" unicode="&#x219;" horiz-adv-x="496" 
d="M187 -286q6 5 15 16.5t17 25.5t14.5 29.5t8.5 28.5q-29 1 -39.5 18t-10.5 40q0 26 14.5 43t49.5 17q28 0 46 -19t18 -59q0 -32 -10 -60t-24 -50.5t-28 -38.5t-23 -23zM72 118q18 -10 42 -18q20 -7 49 -12t65 -5q105 0 105 59q0 16 -7.5 26t-21.5 17t-34 12.5t-45 12.5
q-34 9 -66 21t-57 31t-40 47t-15 69q0 75 53.5 117t159.5 42q40 0 70.5 -5.5t52.5 -11.5q25 -7 44 -16l-24 -88q-16 7 -37 13q-18 5 -43 9.5t-55 4.5q-51 0 -78 -13.5t-27 -41.5q0 -16 9 -27t24 -18.5t35 -13t43 -11.5q36 -9 68 -21t55.5 -31t37.5 -47t14 -68
q0 -81 -56.5 -121t-162.5 -40q-44 0 -77.5 5.5t-56.5 12.5q-27 8 -48 18z" />
    <glyph glyph-name="uni021A" unicode="&#x21a;" horiz-adv-x="627" 
d="M245 -286q7 5 16 16.5t17.5 25.5t15 29.5t7.5 28.5q-29 1 -39.5 18t-10.5 40q0 26 14.5 43t49.5 17q29 0 47 -19t18 -59q0 -32 -10 -60t-24 -50.5t-28.5 -38.5t-22.5 -23zM252 0v599h-227v108h577v-108h-226v-599h-124z" />
    <glyph glyph-name="uni021B" unicode="&#x21b;" horiz-adv-x="415" 
d="M182 -286q6 5 15 16.5t17.5 25.5t15 29.5t7.5 28.5q-29 1 -39.5 18t-10.5 40q0 26 15 43t50 17q29 0 46.5 -19t17.5 -59q0 -32 -10 -60t-24 -50.5t-28 -38.5t-23 -23zM375 13q-15 -7 -33 -12q-16 -5 -37.5 -8t-47.5 -3q-74 0 -117.5 39t-43.5 132v270h-69v96h72l14 140
h105v-140h150l-4 -96h-146v-270q0 -74 76 -74q15 0 27.5 2.5t21.5 5.5q11 4 19 8z" />
    <glyph glyph-name="uni0237" unicode="&#x237;" horiz-adv-x="274" 
d="M-46 -111q6 -2 13 -4q6 -2 15 -3t20 -1q39 0 60 22t21 78v546h119v-546q0 -102 -48.5 -148.5t-130.5 -46.5q-16 0 -29.5 1t-24.5 3q-12 2 -22 4z" />
    <glyph glyph-name="circumflex" unicode="&#x2c6;" horiz-adv-x="419" 
d="M259 751l122 -159h-97l-75 94l-74 -94h-98l123 159h99z" />
    <glyph glyph-name="caron" unicode="&#x2c7;" horiz-adv-x="415" 
d="M158 592l-121 159h97l74 -95l75 95h97l-122 -159h-100z" />
    <glyph glyph-name="uni02C9" unicode="&#x2c9;" horiz-adv-x="395" 
d="M42 612v87h311v-87h-311z" />
    <glyph glyph-name="breve" unicode="&#x2d8;" horiz-adv-x="406" 
d="M363 744q0 -18 -8.5 -44t-27.5 -50.5t-49.5 -41.5t-74.5 -17q-36 0 -62.5 10.5t-44 26t-28 34.5t-16.5 36t-7.5 29.5t-1.5 16.5h82q0 -2 3 -13.5t11.5 -25t23.5 -24.5t40 -11q22 0 37 9t24 21.5t13 25t4 18.5h82v0z" />
    <glyph glyph-name="dotaccent" unicode="&#x2d9;" horiz-adv-x="221" 
d="M178 675q0 -28 -15.5 -46t-51.5 -18q-37 0 -53 18t-16 46q0 27 16 45t53 18q36 0 51.5 -17.5t15.5 -45.5z" />
    <glyph glyph-name="ring" unicode="&#x2da;" horiz-adv-x="319" 
d="M157 589q-57 0 -86 30t-29 81q0 52 32 82t88 30t85.5 -29.5t29.5 -80.5q0 -53 -29 -83t-91 -30zM160 653q45 0 45 48q0 47 -44 47q-46 0 -46 -47q0 -48 45 -48z" />
    <glyph glyph-name="ogonek" unicode="&#x2db;" horiz-adv-x="306" 
d="M251 0q-10 -2 -27 -10t-34 -21t-29.5 -29t-12.5 -35q0 -14 10.5 -26t39.5 -12q18 0 36.5 5t25.5 7l4 -74q-14 -5 -40 -12t-59 -7q-59 0 -89.5 24.5t-30.5 61.5q0 30 16.5 55t39 43.5t46 30.5t38.5 17z" />
    <glyph glyph-name="tilde" unicode="&#x2dc;" horiz-adv-x="442" 
d="M48 591q-3 8 -4 17.5t-1 18.5q0 21 6 41t18.5 35t31 24t44.5 9t45.5 -9.5t35.5 -21.5t30 -21.5t29 -9.5t23 9.5t8 24.5q0 14 -5 27h85q5 -20 5 -36q0 -22 -6 -42t-18.5 -35t-32 -24t-45.5 -9t-45 10t-34.5 21.5t-29 21.5t-29.5 10q-15 0 -23 -10t-8 -26q0 -5 1 -11.5
t3 -13.5h-84z" />
    <glyph glyph-name="hungarumlaut" unicode="&#x2dd;" horiz-adv-x="440" 
d="M42 592l71 159h109l-80 -159h-100zM214 592l70 159h114l-94 -159h-90z" />
    <glyph glyph-name="Delta" unicode="&#x394;" horiz-adv-x="669" 
d="M7 0l245 707h165l244 -707h-654zM332 588l-165 -480h331z" />
    <glyph glyph-name="Omega" unicode="&#x3a9;" horiz-adv-x="711" 
d="M395 0v103q22 11 46.5 35.5t45.5 62t35 88.5t14 114q0 47 -11 86t-33.5 67t-56.5 43.5t-80 15.5q-91 0 -136 -59t-45 -155q0 -63 14 -113t35 -87.5t46 -62t47 -35.5v-103h-271v103h140q-19 13 -43 39t-45 64.5t-35.5 89.5t-14.5 114q0 61 18 117t56 98t96 67t138 25
t138.5 -25t96 -67.5t55.5 -98.5t18 -117q0 -64 -14.5 -115t-35.5 -89t-45 -63.5t-43 -38.5h140v-103h-270z" />
    <glyph glyph-name="mu" unicode="&#x3bc;" horiz-adv-x="611" 
d="M191 527v-330q0 -51 22 -77.5t72 -26.5q27 0 50 7.5t41 17t29.5 18t14.5 10.5v381h120v-527h-98l-14 67q-20 -20 -46 -36q-23 -14 -54.5 -26t-71.5 -14q-41 0 -65 24v-219h-120v731h120z" />
    <glyph glyph-name="pi" unicode="&#x3c0;" horiz-adv-x="769" 
d="M723 13q-10 -7 -24 -12q-13 -5 -32 -8t-47 -3q-73 0 -112.5 39.5t-39.5 131.5v269h-193v-430h-121v430h-121v97h678v-97h-121v-269q0 -37 15 -55t49 -18q14 0 24.5 2t18.5 5q9 3 17 7z" />
    <glyph glyph-name="Wgrave" unicode="&#x1e80;" horiz-adv-x="982" 
d="M437 763l-121 159h128l92 -159h-99zM153 707l115 -488l18 -88l20 88l130 488h111l129 -487l20 -89l17 89l116 487h128l-180 -707h-140l-127 458l-19 80l-19 -79l-127 -459h-140l-180 707h128z" />
    <glyph glyph-name="wgrave" unicode="&#x1e81;" horiz-adv-x="833" 
d="M365 592l-121 159h128l92 -159h-99zM143 527l88 -329l18 -107l18 108l94 328h112l93 -330l20 -106l16 108l89 328h123l-150 -527h-139l-83 272l-26 122l-25 -122l-82 -272h-139l-151 527h124z" />
    <glyph glyph-name="Wacute" unicode="&#x1e82;" horiz-adv-x="982" 
d="M440 763l92 159h128l-122 -159h-98zM153 707l115 -488l18 -88l20 88l130 488h111l129 -487l20 -89l17 89l116 487h128l-180 -707h-140l-127 458l-19 80l-19 -79l-127 -459h-140l-180 707h128z" />
    <glyph glyph-name="wacute" unicode="&#x1e83;" horiz-adv-x="833" 
d="M367 592l92 159h127l-121 -159h-98zM143 527l88 -329l18 -107l18 108l94 328h112l93 -330l20 -106l16 108l89 328h123l-150 -527h-139l-83 272l-26 122l-25 -122l-82 -272h-139l-151 527h124z" />
    <glyph glyph-name="Wdieresis" unicode="&#x1e84;" horiz-adv-x="982" 
d="M447 851q0 -26 -14 -43.5t-49 -17.5q-33 0 -48 17t-15 44q0 26 15 43t48 17q35 0 49 -17t14 -43zM659 851q0 -26 -14.5 -43.5t-47.5 -17.5q-35 0 -49 17t-14 44q0 26 14 43t49 17q33 0 47.5 -17t14.5 -43zM153 707l115 -488l18 -88l20 88l130 488h111l129 -487l20 -89
l17 89l116 487h128l-180 -707h-140l-127 458l-19 80l-19 -79l-127 -459h-140l-180 707h128z" />
    <glyph glyph-name="wdieresis" unicode="&#x1e85;" horiz-adv-x="833" 
d="M373 665q0 -26 -14 -44t-49 -18q-33 0 -48 17.5t-15 44.5q0 26 15 43.5t48 17.5q35 0 49 -17.5t14 -43.5zM585 665q0 -26 -14.5 -44t-47.5 -18q-35 0 -49 17.5t-14 44.5q0 26 14 43.5t49 17.5q33 0 47.5 -17.5t14.5 -43.5zM143 527l88 -329l18 -107l18 108l94 328h112
l93 -330l20 -106l16 108l89 328h123l-150 -527h-139l-83 272l-26 122l-25 -122l-82 -272h-139l-151 527h124z" />
    <glyph glyph-name="Ygrave" unicode="&#x1ef2;" horiz-adv-x="678" 
d="M295 763l-121 159h128l92 -159h-99zM278 0v266l-253 441h131l154 -274l30 -63l31 65l150 272h133l-253 -440v-267h-123z" />
    <glyph glyph-name="ygrave" unicode="&#x1ef3;" horiz-adv-x="553" 
d="M235 592l-121 159h128l92 -159h-99zM39 -110q6 -3 14 -5q7 -2 17 -3t22 -1q31 0 51.5 11.5t34.5 29t22.5 38.5t16.5 41l-193 526h126l102 -317l22 -102l132 419h122l-195 -538q-18 -49 -38.5 -86.5t-47.5 -63.5t-62 -39.5t-82 -13.5q-35 0 -58 5q-12 2 -22 5z" />
    <glyph glyph-name="uni2009" unicode="&#x2009;" horiz-adv-x="96" 
 />
    <glyph glyph-name="endash" unicode="&#x2013;" horiz-adv-x="665" 
d="M55 248v98h555v-98h-555z" />
    <glyph glyph-name="emdash" unicode="&#x2014;" horiz-adv-x="926" 
d="M55 248v98h816v-98h-816z" />
    <glyph glyph-name="quoteleft" unicode="&#x2018;" horiz-adv-x="237" 
d="M192 705q-7 -5 -16.5 -16.5t-19 -27t-16.5 -32t-8 -29.5q31 -2 42.5 -20.5t11.5 -43.5q0 -28 -16 -46.5t-54 -18.5q-31 0 -51 20t-20 65q0 34 11 64.5t26.5 55t31 41.5t24.5 24z" />
    <glyph glyph-name="quoteright" unicode="&#x2019;" horiz-adv-x="237" 
d="M45 507q7 5 16.5 17t19 27t16.5 31.5t8 30.5q-31 1 -43 20t-12 44q0 28 16.5 46t55.5 18q30 0 50 -20t20 -65q0 -34 -11 -64.5t-26.5 -55t-31 -41.5t-24.5 -24z" />
    <glyph glyph-name="quotesinglbase" unicode="&#x201a;" horiz-adv-x="245" 
d="M49 -109q7 5 16.5 17t18.5 27.5t16 32t9 30.5q-32 1 -43 19.5t-11 43.5q0 28 16 46.5t54 18.5q31 0 51 -20.5t20 -64.5q0 -35 -11 -65.5t-26.5 -54.5t-31 -41.5t-24.5 -24.5z" />
    <glyph glyph-name="quotedblleft" unicode="&#x201c;" horiz-adv-x="419" 
d="M192 705q-7 -5 -16.5 -16.5t-19 -27t-16.5 -32t-8 -29.5q31 -2 42.5 -20.5t11.5 -43.5q0 -28 -16 -46.5t-54 -18.5q-31 0 -51 20t-20 65q0 34 11 64.5t26.5 55t31 41.5t24.5 24zM374 705q-7 -5 -16.5 -16.5t-19 -27t-16.5 -32t-8 -29.5q31 -2 42.5 -20.5t11.5 -43.5
q0 -28 -16 -46.5t-55 -18.5q-31 0 -50.5 20t-19.5 65q0 34 11 64.5t26.5 55t31 41.5t24.5 24z" />
    <glyph glyph-name="quotedblright" unicode="&#x201d;" horiz-adv-x="419" 
d="M45 507q7 5 16.5 17t19 27t16.5 31.5t8 30.5q-31 1 -43 20t-12 44q0 28 16.5 46t55.5 18q30 0 50 -20t20 -65q0 -34 -11 -64.5t-26.5 -55t-31 -41.5t-24.5 -24zM227 507q7 5 16.5 17t19 27t16.5 31.5t8 30.5q-32 1 -43.5 20t-11.5 44q0 28 16.5 46t54.5 18q31 0 51 -20
t20 -65q0 -34 -11 -64.5t-26 -55t-30.5 -41.5t-24.5 -24z" />
    <glyph glyph-name="quotedblbase" unicode="&#x201e;" horiz-adv-x="427" 
d="M49 -108q7 5 16.5 17t18.5 27t16 31.5t9 30.5q-32 1 -43 20t-11 43q0 29 16 47t54 18q31 0 51 -20t20 -64q0 -35 -11 -65.5t-26.5 -55t-31 -41.5t-24.5 -24zM231 -108q7 5 16.5 17t18.5 27t16 31.5t9 30.5q-32 1 -43.5 20t-11.5 43q0 29 16.5 47t54.5 18q31 0 50.5 -20
t19.5 -64q0 -35 -11 -65.5t-26 -55t-30.5 -41.5t-24.5 -24z" />
    <glyph glyph-name="dagger" unicode="&#x2020;" horiz-adv-x="449" 
d="M183 -132l-17 375v195l-111 -8v104l111 -9v206h117v-206l111 9v-104l-111 8v-195l-16 -375h-84z" />
    <glyph glyph-name="daggerdbl" unicode="&#x2021;" horiz-adv-x="449" 
d="M182 -132l-13 234l-114 -8v104l111 -9v249l-111 -8v104l111 -9v206h117v-206l111 9v-104l-111 8v-249l111 9v-104l-117 9l-10 -235h-85z" />
    <glyph glyph-name="bullet" unicode="&#x2022;" horiz-adv-x="383" 
d="M333 306q0 -29 -8 -53.5t-25 -43t-43.5 -29t-64.5 -10.5t-65 10.5t-44 28.5t-25 43t-8 54q0 28 8 53t25 43t44 28.5t65 10.5t64.5 -10.5t43.5 -28.5t25 -43t8 -53z" />
    <glyph glyph-name="ellipsis" unicode="&#x2026;" horiz-adv-x="721" 
d="M191 57q0 -29 -16 -48t-54 -19q-39 0 -55.5 19t-16.5 48t16.5 48.5t55.5 19.5q38 0 54 -19.5t16 -48.5zM432 57q0 -29 -16.5 -48t-54.5 -19t-55 19t-17 48t17 48.5t55 19.5t54.5 -19.5t16.5 -48.5zM672 57q0 -29 -16 -48t-54 -19q-39 0 -55.5 19t-16.5 48t16.5 48.5
t55.5 19.5q38 0 54 -19.5t16 -48.5z" />
    <glyph glyph-name="perthousand" unicode="&#x2030;" horiz-adv-x="1230" 
d="M209 717q76 0 117 -48t41 -124q0 -38 -10 -69.5t-29.5 -54.5t-49.5 -36t-69 -13q-40 0 -69.5 13t-49.5 36t-30 54t-10 68q0 78 42 126t117 48zM209 649q-73 0 -73 -105q0 -104 73 -104t73 104q0 51 -19 78t-54 27zM708 707l-475 -707h-80l475 707h80zM649 335
q38 0 67.5 -13t50 -35.5t31 -54.5t10.5 -69q0 -76 -40 -124.5t-119 -48.5q-40 0 -69.5 13t-49 35.5t-29.5 54t-10 68.5q0 78 41.5 126t116.5 48zM649 266q-73 0 -73 -104q0 -51 18.5 -78t54.5 -27q35 0 54 26.5t19 79.5q0 103 -73 103zM1022 335q38 0 67.5 -13t49.5 -35.5
t30.5 -54.5t10.5 -69q0 -38 -10 -69.5t-29.5 -54.5t-49.5 -36t-69 -13t-69 13t-49.5 35.5t-29.5 54t-10 68.5q0 78 41.5 126t116.5 48zM1022 266q-73 0 -73 -104q0 -51 18.5 -78t53.5 -27q73 0 73 106q0 103 -72 103z" />
    <glyph glyph-name="guilsinglleft" unicode="&#x2039;" horiz-adv-x="377" 
d="M188 100l-118 186l118 186h118l-117 -187l117 -185h-118z" />
    <glyph glyph-name="guilsinglright" unicode="&#x203a;" horiz-adv-x="377" 
d="M70 100l117 185l-117 187h118l118 -186l-118 -186h-118z" />
    <glyph glyph-name="fraction" unicode="&#x2044;" horiz-adv-x="246" 
d="M-110 0l377 707h85l-377 -707h-85z" />
    <glyph glyph-name="uni2070" unicode="&#x2070;" horiz-adv-x="445" 
d="M221 372q-96 0 -138 56t-42 156q0 102 43 158.5t139 56.5t138.5 -58.5t42.5 -158.5q0 -101 -43 -155.5t-140 -54.5zM223 442q54 0 74 32.5t20 106.5q0 72 -20 109.5t-74 37.5t-74.5 -35.5t-20.5 -107.5q0 -69 20.5 -106t74.5 -37z" />
    <glyph glyph-name="uni2074" unicode="&#x2074;" horiz-adv-x="392" 
d="M22 531l185 261h100v-261h58v-64h-58v-89h-86v89h-188zM221 531v151l2 29l-126 -180h124z" />
    <glyph glyph-name="uni2075" unicode="&#x2075;" horiz-adv-x="380" 
d="M49 457q10 -4 25 -8q13 -3 31 -5.5t44 -2.5q56 0 81 18t25 51q0 38 -28.5 52t-76.5 14q-20 0 -38.5 -1.5t-32.5 -3.5q-17 -2 -31 -4l10 226h257v-69h-182l-5 -90q7 1 15 2q7 1 16 1.5t20 0.5q33 0 62.5 -7t52 -22.5t35.5 -40t13 -60.5q0 -26 -9.5 -50t-31 -43t-57 -30.5
t-87.5 -11.5q-29 0 -51 2.5t-36 5.5q-18 4 -29 8z" />
    <glyph glyph-name="uni2076" unicode="&#x2076;" horiz-adv-x="405" 
d="M326 716q-9 3 -20 6q-10 2 -23.5 4t-30.5 2q-64 0 -91 -28t-31 -82q11 6 36 16t65 10q68 0 104 -35t36 -95q0 -64 -41.5 -103t-117.5 -39q-49 0 -81.5 15.5t-52.5 43t-28.5 64t-8.5 78.5q0 108 49 167t150 59q21 0 38.5 -2.5t30.5 -5.5q15 -4 27 -7zM128 552
q0 -54 19 -82.5t66 -28.5q29 0 51 15.5t22 55.5q0 38 -19.5 52t-51.5 14q-29 0 -52.5 -9t-34.5 -17z" />
    <glyph glyph-name="uni2077" unicode="&#x2077;" horiz-adv-x="337" 
d="M23 792h283l6 -65l-163 -349h-94l143 310l19 34h-194v70z" />
    <glyph glyph-name="uni2078" unicode="&#x2078;" horiz-adv-x="420" 
d="M211 799q79 0 117.5 -31t38.5 -77q0 -22 -8 -38.5t-19 -28.5t-23 -19.5t-21 -10.5q9 -3 24 -9.5t29 -19t24 -31.5t10 -45q0 -56 -44.5 -86.5t-130.5 -30.5q-88 0 -129.5 30.5t-41.5 82.5q0 25 10 43.5t23.5 31.5t28 20t23.5 10q-8 2 -19.5 9t-22.5 18.5t-19 28.5t-8 39
q0 50 39.5 82t118.5 32zM224 620q28 11 44.5 24.5t16.5 38.5q0 28 -20.5 40t-54.5 12q-35 0 -55.5 -12.5t-20.5 -37.5q0 -21 12 -32.5t27.5 -18t30 -9.5t20.5 -5zM199 557q-13 -3 -26.5 -7.5t-24 -12t-17 -18t-6.5 -25.5q0 -57 84 -57q43 0 65 15t22 41q0 20 -13 32
t-30 18.5t-32.5 9t-21.5 4.5z" />
    <glyph glyph-name="uni2079" unicode="&#x2079;" horiz-adv-x="405" 
d="M79 455q9 -3 20 -6q10 -2 23.5 -4t30.5 -2q64 0 91 28t31 82q-10 -6 -35.5 -16t-66.5 -10q-67 0 -103 35t-36 95q0 65 41 103.5t117 38.5q49 0 82 -15.5t53 -43t28.5 -64t8.5 -78.5q0 -108 -49 -167t-150 -59q-22 0 -39.5 2t-30.5 5q-15 4 -27 8zM277 619
q-1 54 -19.5 82.5t-65.5 28.5q-29 0 -51 -15.5t-22 -55.5q0 -38 19 -52t51 -14q30 0 53.5 9t34.5 17z" />
    <glyph glyph-name="uni2080" unicode="&#x2080;" horiz-adv-x="445" 
d="M221 -135q-96 0 -138 56t-42 155q0 103 43 159t139 56q48 0 82.5 -15t56 -43t32 -68.5t10.5 -90.5q0 -100 -43 -154.5t-140 -54.5zM223 -65q54 0 74 32.5t20 106.5q0 72 -20 109.5t-74 37.5t-74.5 -35.5t-20.5 -107.5q0 -69 20.5 -106t74.5 -37z" />
    <glyph glyph-name="uni2081" unicode="&#x2081;" horiz-adv-x="254" 
d="M107 -129v336l-76 -22l-9 61l119 39h53v-414h-87z" />
    <glyph glyph-name="uni2082" unicode="&#x2082;" horiz-adv-x="380" 
d="M45 -129l-6 72q28 20 64.5 42.5t69 48t55 55t22.5 62.5q0 70 -94 70q-22 0 -40 -3t-31 -7q-15 -4 -27 -9l-13 65q18 7 39 12q18 5 42 9t53 4q44 0 74.5 -10.5t50 -28.5t28 -42t8.5 -51q0 -45 -24.5 -83t-56 -67t-61 -47.5t-39.5 -24.5l52 4h126v-71h-292z" />
    <glyph glyph-name="uni2083" unicode="&#x2083;" horiz-adv-x="378" 
d="M46 -50q10 -5 25 -9q13 -3 31.5 -5.5t44.5 -2.5q47 0 75.5 11.5t28.5 48.5q0 32 -24.5 45t-78.5 13q-9 0 -17 -0.5t-13 -0.5q-6 -1 -11 -1v64q3 -1 8 -1h25q20 0 39 1.5t33.5 7.5t23 17t8.5 31q0 29 -23.5 41.5t-71.5 12.5q-22 0 -39.5 -2.5t-30.5 -4.5q-15 -4 -26 -7
l-11 63q15 5 34 9q17 4 39.5 7t51.5 3q87 0 125 -28t38 -76q0 -71 -71 -99q36 -10 57.5 -33.5t21.5 -69.5q0 -61 -47.5 -90.5t-136.5 -29.5q-28 0 -49.5 2.5t-36.5 5.5q-18 4 -32 9z" />
    <glyph glyph-name="uni2084" unicode="&#x2084;" horiz-adv-x="392" 
d="M22 23l185 262h100v-261h58v-65h-58v-88h-86v88h-188zM221 24v150l4 33l-128 -183h124z" />
    <glyph glyph-name="uni2085" unicode="&#x2085;" horiz-adv-x="380" 
d="M49 -52q10 -4 25 -8q13 -3 31 -5t44 -2q56 0 81 18t25 51q0 38 -28.5 52.5t-76.5 14.5q-20 0 -38.5 -1.5t-32.5 -3.5q-17 -3 -31 -5l10 226h257v-69h-182l-5 -90q7 1 15 2q7 1 16 1.5t20 0.5q33 0 62.5 -7t52 -22.5t35.5 -40t13 -60.5q0 -26 -9.5 -50t-31 -43t-57 -30.5
t-87.5 -11.5q-29 0 -51 2.5t-36 5.5q-18 4 -29 8z" />
    <glyph glyph-name="uni2086" unicode="&#x2086;" horiz-adv-x="407" 
d="M326 209q-9 3 -20 6q-10 2 -23.5 4t-30.5 2q-64 0 -91 -28.5t-31 -82.5q11 7 36 16.5t65 9.5q68 0 104 -35t36 -95q0 -64 -41.5 -102.5t-117.5 -38.5q-49 0 -81.5 16t-52.5 43.5t-28.5 64t-8.5 77.5q0 108 49 166.5t150 58.5q21 0 38.5 -2.5t30.5 -4.5q15 -4 27 -7z
M128 45q0 -55 19 -83.5t66 -28.5q29 0 51 15.5t22 55.5q0 38 -19.5 52.5t-51.5 14.5q-29 0 -52.5 -9t-34.5 -17z" />
    <glyph glyph-name="uni2087" unicode="&#x2087;" horiz-adv-x="337" 
d="M23 285h283l6 -66l-163 -348h-94l143 309l19 35h-194v70z" />
    <glyph glyph-name="uni2088" unicode="&#x2088;" horiz-adv-x="420" 
d="M211 291q79 0 117.5 -30.5t38.5 -77.5q0 -21 -8 -37.5t-19 -28.5t-23 -19.5t-21 -10.5q9 -3 24 -10t29 -19.5t24 -31t10 -44.5q0 -57 -44.5 -87t-130.5 -30q-88 0 -129.5 30t-41.5 83q0 25 10 43.5t23.5 31t28 20t23.5 9.5q-8 3 -19.5 9.5t-22.5 18.5t-19 28.5t-8 39.5
q0 50 39.5 81.5t118.5 31.5zM224 113q28 11 44.5 24t16.5 38q0 29 -20.5 41t-54.5 12q-35 0 -55.5 -12.5t-20.5 -38.5q0 -20 12 -32t27.5 -18.5t30 -9t20.5 -4.5zM199 50q-13 -3 -26.5 -8t-24 -12t-17 -17.5t-6.5 -25.5q0 -57 84 -57q87 0 87 56q0 20 -13 32t-30 18.5
t-32.5 9t-21.5 4.5z" />
    <glyph glyph-name="uni2089" unicode="&#x2089;" horiz-adv-x="407" 
d="M81 -51q9 -3 20 -6q10 -2 23.5 -4t30.5 -2q64 0 91 29t31 83q-11 -7 -36.5 -17t-65.5 -10q-67 0 -103 35t-36 95q0 64 41 102.5t117 38.5q49 0 81.5 -16t52.5 -43.5t28.5 -64t8.5 -77.5q0 -108 -49 -166.5t-149 -58.5q-22 0 -39.5 2t-30.5 5q-15 4 -27 8zM279 113
q-1 55 -19.5 83.5t-65.5 28.5q-29 0 -51.5 -15.5t-22.5 -55.5q0 -38 19.5 -52t51.5 -14q29 0 53 9t35 16z" />
    <glyph glyph-name="franc" unicode="&#x20a3;" horiz-adv-x="620" 
d="M115 0v123h-90v84h90v500h445v-107h-318v-199h271v-102h-271v-92h110v-84h-110v-123h-127z" />
    <glyph glyph-name="lira" unicode="&#x20a4;" horiz-adv-x="613" 
d="M231 238q-9 -68 -35 -114q4 0 20 4t36 4q24 0 44 -4.5t38.5 -10.5t37.5 -10.5t41 -4.5q34 0 58 11.5t36 22.5l44 -81q-29 -32 -63.5 -43.5t-66.5 -11.5q-25 0 -48.5 5t-47.5 11.5t-48 11.5t-49 5q-19 0 -36 -4t-31 -9t-24 -11l-15 -9l-54 102q21 21 31.5 54.5t15.5 81.5
h-71v77h76q0 18 0.5 38t0.5 41h-77v77h77v4q0 58 13.5 103t43.5 76t77 47t114 16q36 0 64 -4t48 -9q23 -5 40 -12l-19 -95q-13 5 -31 9q-15 4 -36 7t-47 3q-71 0 -108.5 -30t-37.5 -106v-9h187v-77h-188q0 -21 -0.5 -41t-1.5 -38h190v-77h-198z" />
    <glyph glyph-name="Euro" unicode="&#x20ac;" horiz-adv-x="661" 
d="M579 582q-15 5 -49.5 13t-85.5 8q-75 0 -125.5 -30t-70.5 -108h205v-76h-221q-1 -7 -1 -17v-18v-19t1 -18h221v-76h-205q19 -77 70.5 -107t125.5 -30q51 0 85.5 8t49.5 13l17 -96q-3 -1 -15.5 -5.5t-33.5 -10t-49.5 -9.5t-64.5 -4q-71 0 -124.5 17t-91.5 48.5t-62 76
t-35 99.5h-66v76h55v72h-55v76h66q11 55 35 100t62.5 76.5t92 48.5t123.5 17q36 0 65 -4.5t50 -9.5t33.5 -10t14.5 -5l-17 -96v0z" />
    <glyph glyph-name="afii61289" unicode="&#x2113;" horiz-adv-x="501" 
d="M415 27q-16 -11 -35 -19q-17 -7 -41 -12.5t-55 -5.5q-33 0 -62.5 8.5t-53 26.5t-40 46t-22.5 67q-14 -6 -27 -11.5t-24 -9.5l-5 79q3 1 10 4.5t14.5 7t14.5 7.5t10 6v326q0 99 48.5 146.5t126.5 47.5q81 0 124 -44.5t43 -135.5q0 -62 -19.5 -116t-51 -100t-72 -83.5
t-82.5 -65.5q4 -60 26.5 -83.5t64.5 -23.5q19 0 35.5 4.5t28.5 9.5q14 6 25 14zM214 297q57 50 96.5 114t39.5 142q0 30 -5.5 48.5t-15.5 29t-22.5 14.5t-25.5 4q-28 0 -48 -21t-20 -69v-25.5v-45.5v-56v-57t0.5 -48.5t0.5 -29.5z" />
    <glyph glyph-name="trademark" unicode="&#x2122;" horiz-adv-x="709" 
d="M585 410l-11 203l-56 -157h-52l-58 157l-9 -203h-74l18 297h87l62 -168l61 168h87l18 -297h-73zM127 410v231h-90v66h250v-66h-88v-231h-72z" />
    <glyph glyph-name="uni2126" unicode="&#x2126;" horiz-adv-x="711" 
d="M395 0v103q22 11 46.5 35.5t45.5 62t35 88.5t14 114q0 47 -11 86t-33.5 67t-56.5 43.5t-80 15.5q-91 0 -136 -59t-45 -155q0 -63 14 -113t35 -87.5t46 -62t47 -35.5v-103h-271v103h140q-19 13 -43 39t-45 64.5t-35.5 89.5t-14.5 114q0 61 18 117t56 98t96 67t138 25
t138.5 -25t96 -67.5t55.5 -98.5t18 -117q0 -64 -14.5 -115t-35.5 -89t-45 -63.5t-43 -38.5h140v-103h-270z" />
    <glyph glyph-name="estimated" unicode="&#x212e;" horiz-adv-x="864" 
d="M736 136q-52 -66 -129.5 -105.5t-170.5 -39.5q-78 0 -146.5 29t-119.5 79t-80.5 116.5t-29.5 142.5q0 75 29.5 141.5t80.5 116t119.5 78.5t146.5 29q76 0 142.5 -27.5t116.5 -76t79 -116t29 -146.5v-19h-571v-225q42 -34 93.5 -53t110.5 -19q66 0 125.5 26t103.5 69h71z
M631 600q-40 34 -89.5 52.5t-105.5 18.5q-59 0 -110.5 -18.5t-93.5 -53.5v-218h399v219z" />
    <glyph glyph-name="onethird" unicode="&#x2153;" horiz-adv-x="1001" 
d="M176 0l475 707h80l-475 -707h-80zM150 293v337l-77 -23l-8 61l120 39h52v-414h-87zM644 79q10 -4 25 -8q13 -3 32 -5.5t45 -2.5q46 0 74.5 11.5t28.5 47.5q0 32 -24.5 45.5t-78.5 13.5q-9 0 -16.5 -0.5t-12.5 -0.5q-6 -1 -12 -1v64q3 -1 8 -1q4 -1 10.5 -1h14.5
q20 0 39 1.5t33.5 7.5t23 17.5t8.5 30.5q0 30 -23 42t-72 12q-22 0 -39.5 -2.5t-30.5 -4.5q-15 -4 -26 -7l-11 63q15 6 34 10q17 4 40 7t52 3q87 0 124.5 -28t37.5 -76q0 -72 -71 -99q36 -11 57.5 -34t21.5 -70q0 -60 -47 -89.5t-136 -29.5q-28 0 -50 2.5t-37 5.5
q-18 4 -32 9z" />
    <glyph glyph-name="twothirds" unicode="&#x2154;" horiz-adv-x="1102" 
d="M71 688q17 7 38 12q18 5 42.5 9t53.5 4q44 0 74.5 -10.5t50 -28.5t28 -42t8.5 -51q0 -45 -24.5 -82.5t-56 -66.5t-61 -48t-39.5 -25l52 4h126v-70h-292l-6 72q28 20 64.5 42.5t69 48t55 54.5t22.5 62q0 71 -94 71q-22 0 -40 -3t-31 -7q-16 -4 -28 -10zM837 707l-475 -707
h-80l475 707h80zM741 401q15 6 34 10q17 4 39.5 7t51.5 3q87 0 125.5 -28t38.5 -76q0 -73 -72 -99q35 -11 57 -34t22 -70q0 -60 -47.5 -89.5t-136.5 -29.5q-28 0 -49.5 2.5t-36.5 5.5q-18 4 -32 9l10 67q10 -4 25 -8q13 -3 31.5 -5.5t44.5 -2.5q47 0 75.5 11.5t28.5 47.5
q0 32 -24.5 45.5t-78.5 13.5q-9 0 -17 -0.5t-13 -0.5q-7 -1 -12 -1v64q4 -1 9 -1q5 -1 10.5 -1h13.5q21 0 40 1.5t33.5 7.5t23.5 17.5t9 30.5q0 30 -23.5 42t-72.5 12q-22 0 -39.5 -2.5t-30.5 -4.5q-15 -4 -26 -7z" />
    <glyph glyph-name="oneeighth" unicode="&#x215b;" horiz-adv-x="1004" 
d="M237 293h-87v337l-77 -23l-8 61l120 39h52v-414zM731 707l-475 -707h-80l475 707h80zM768 421q79 0 117.5 -31t38.5 -77q0 -22 -8 -38.5t-19.5 -28.5t-23.5 -19.5t-21 -10.5q10 -3 24.5 -9.5t28.5 -19t24 -31.5t10 -45q0 -57 -44.5 -86.5t-129.5 -29.5q-88 0 -129 30
t-41 82q0 25 9.5 43.5t23 31.5t28 20t23.5 9q-8 3 -19.5 10t-22.5 18.5t-19 28.5t-8 39q0 51 39.5 82.5t118.5 31.5zM781 243q27 11 44 24t17 38q0 28 -21 40t-55 12q-35 0 -55 -12.5t-20 -38.5q0 -20 12 -32t27.5 -18t30 -8.5t20.5 -4.5zM755 180q-13 -3 -26.5 -8t-24 -12
t-17 -18t-6.5 -26q0 -56 85 -56q86 0 86 55q0 21 -13 33t-29.5 18.5t-32.5 9t-22 4.5z" />
    <glyph glyph-name="threeeighths" unicode="&#x215c;" horiz-adv-x="1065" 
d="M71 693q15 6 34 10q17 4 40 7t52 3q87 0 125 -28t38 -76q0 -35 -20 -60.5t-57 -39.5q35 -9 59.5 -32.5t24.5 -69.5q0 -60 -47.5 -90.5t-135.5 -30.5q-28 0 -50 2.5t-37 5.5q-18 4 -32 9l10 69q10 -5 25 -9q13 -3 31.5 -5.5t44.5 -2.5q46 0 75 11.5t29 47.5
q0 32 -24.5 45.5t-78.5 13.5q-9 0 -17 -0.5t-13 -0.5q-6 -1 -11 -1v64q4 -1 8 -1q5 -1 25 -1t39 2t33.5 8t23.5 17.5t9 30.5q0 29 -23.5 41.5t-71.5 12.5q-23 0 -40.5 -2.5t-30.5 -5.5q-15 -4 -26 -7zM792 707l-475 -707h-80l475 707h80zM829 421q79 0 117.5 -31t38.5 -77
q0 -22 -8 -38.5t-19 -28.5t-23.5 -19.5t-21.5 -10.5q10 -3 24.5 -9.5t28.5 -19t24 -31.5t10 -45q0 -57 -44.5 -86.5t-130.5 -29.5q-88 0 -129 30t-41 82q0 25 9.5 43.5t23 31.5t28 20t23.5 9q-7 3 -18.5 10t-23 18.5t-19.5 28.5t-8 39q0 51 40 82.5t119 31.5zM841 243
q28 11 44.5 24t16.5 38q0 28 -20.5 40t-54.5 12q-35 0 -55 -12.5t-20 -38.5q0 -20 12 -32t27.5 -18t30 -8.5t19.5 -4.5zM816 180q-13 -3 -26.5 -8t-24 -12t-17 -18t-6.5 -26q0 -56 85 -56q86 0 86 55q0 21 -13 33t-30 18.5t-32.5 9t-21.5 4.5z" />
    <glyph glyph-name="fiveeighths" unicode="&#x215d;" horiz-adv-x="1070" 
d="M157 639l-4 -90q7 0 15 1q7 1 16 1.5t19 0.5q33 0 63 -7t52 -22t35 -40t13 -61q0 -25 -9.5 -49.5t-31 -43.5t-57 -30.5t-87.5 -11.5q-29 0 -50 2.5t-36 5.5q-18 4 -30 8l8 68q10 -4 25 -8q13 -3 31 -5.5t44 -2.5q56 0 81.5 18t25.5 51q0 39 -29 53t-77 14
q-20 0 -38.5 -1.5t-32.5 -3.5q-17 -2 -31 -4l10 225h257v-68h-182zM797 707l-475 -707h-80l475 707h80zM834 421q79 0 117.5 -31t38.5 -77q0 -22 -8 -38.5t-19 -28.5t-23.5 -19.5t-21.5 -10.5q10 -3 24.5 -9.5t28.5 -19t24 -31.5t10 -45q0 -57 -44.5 -86.5t-130.5 -29.5
q-88 0 -129 30t-41 82q0 25 9.5 43.5t23 31.5t28 20t23.5 9q-7 3 -18.5 10t-23 18.5t-19.5 28.5t-8 39q0 51 40 82.5t119 31.5zM846 243q28 11 44.5 24t16.5 38q0 28 -20.5 40t-54.5 12q-35 0 -55 -12.5t-20 -38.5q0 -20 12 -32t27.5 -18t30 -8.5t19.5 -4.5zM821 180
q-13 -3 -26.5 -8t-24 -12t-17 -18t-6.5 -26q0 -56 85 -56q86 0 86 55q0 21 -13 33t-30 18.5t-32.5 9t-21.5 4.5z" />
    <glyph glyph-name="seveneighths" unicode="&#x215e;" horiz-adv-x="1009" 
d="M349 707l5 -65l-163 -349h-93l142 310l20 34h-195v70h284zM736 707l-475 -707h-79l475 707h79zM773 421q80 0 118.5 -31t38.5 -77q0 -22 -8 -38.5t-19.5 -28.5t-23.5 -19.5t-21 -10.5q10 -3 24.5 -9.5t28 -19t23.5 -31.5t10 -45q0 -57 -44 -86.5t-130 -29.5
q-88 0 -129 30t-41 82q0 25 9.5 43.5t23 31.5t28 20t23.5 9q-8 3 -19.5 10t-22.5 18.5t-19 28.5t-8 39q0 51 39.5 82.5t118.5 31.5zM786 243q27 11 44 24t17 38q0 28 -21 40t-54 12q-35 0 -55.5 -12.5t-20.5 -38.5q0 -20 12 -32t27.5 -18t30 -8.5t20.5 -4.5zM760 180
q-13 -3 -26 -8t-23.5 -12t-17 -18t-6.5 -26q0 -56 84 -56q87 0 87 55q0 21 -13 33t-30 18.5t-33 9t-22 4.5z" />
    <glyph glyph-name="arrowleft" unicode="&#x2190;" horiz-adv-x="780" 
d="M221 305l270 -268h-121l-315 316l315 315h121l-270 -269h504v-94h-504z" />
    <glyph glyph-name="arrowup" unicode="&#x2191;" horiz-adv-x="790" 
d="M348 524l-268 -269v121l315 315l315 -315v-121l-268 269v-503h-94v503z" />
    <glyph glyph-name="arrowright" unicode="&#x2192;" horiz-adv-x="780" 
d="M410 668l315 -315l-315 -316h-120l268 268h-503v94h503l-268 269h120z" />
    <glyph glyph-name="arrowdown" unicode="&#x2193;" horiz-adv-x="790" 
d="M442 187l268 269v-120l-315 -315l-315 315v120l268 -269v504h94v-504z" />
    <glyph glyph-name="uni2196" unicode="&#x2196;" horiz-adv-x="736" 
d="M191 442v-380l-84 85v445h445l86 -84h-380l355 -356l-65 -66z" />
    <glyph glyph-name="uni2197" unicode="&#x2197;" horiz-adv-x="736" 
d="M479 508h-381l85 84h445v-445l-84 -85v380l-356 -356l-66 66z" />
    <glyph glyph-name="uni2198" unicode="&#x2198;" horiz-adv-x="736" 
d="M544 211v381l84 -86v-444h-445l-85 83h381l-357 356l66 67z" />
    <glyph glyph-name="uni2199" unicode="&#x2199;" horiz-adv-x="736" 
d="M548 568l65 -67l-355 -356h380l-86 -83h-445v444l84 86v-381z" />
    <glyph glyph-name="partialdiff" unicode="&#x2202;" horiz-adv-x="580" 
d="M201 762q17 2 33.5 3.5t31.5 1.5q61 0 106.5 -16.5t78 -44.5t53.5 -64t33 -75.5t16.5 -79t4.5 -73.5q0 -95 -17 -173.5t-54.5 -134t-96 -86t-140.5 -30.5q-57 0 -99.5 18t-70 50.5t-41.5 77t-14 97.5q0 142 68.5 223t205.5 81q30 0 51.5 -5t37.5 -11.5t26 -14t18 -12.5
q-14 85 -58 131t-129 46q-12 0 -25 -1t-27 -3zM440 395q-20 16 -49.5 30.5t-77.5 14.5q-80 0 -123 -50.5t-43 -153.5q0 -75 31 -109.5t89 -34.5q53 0 86.5 25.5t52.5 67.5t26 96.5t8 113.5z" />
    <glyph glyph-name="uni2206" unicode="&#x2206;" horiz-adv-x="669" 
d="M7 0l245 707h165l244 -707h-654zM332 588l-165 -480h331z" />
    <glyph glyph-name="product" unicode="&#x220f;" horiz-adv-x="847" 
d="M566 -204v832h-286v-832h-121v832h-99v103h726v-103h-99v-832h-121z" />
    <glyph glyph-name="summation" unicode="&#x2211;" horiz-adv-x="627" 
d="M65 -204v109l231 359l-231 357v110h496v-110h-362l231 -357l-231 -359h362v-109h-496z" />
    <glyph glyph-name="minus" unicode="&#x2212;" horiz-adv-x="604" 
d="M55 248v103h493v-103h-493z" />
    <glyph glyph-name="uni2215" unicode="&#x2215;" horiz-adv-x="599" 
d="M5 0l475 707h114l-475 -707h-114z" />
    <glyph glyph-name="uni2219" unicode="&#x2219;" horiz-adv-x="252" 
d="M197 369q0 -29 -16.5 -48.5t-54.5 -19.5t-54.5 19t-16.5 49q0 29 16.5 48.5t54.5 19.5t54.5 -19.5t16.5 -48.5z" />
    <glyph glyph-name="radical" unicode="&#x221a;" horiz-adv-x="716" 
d="M295 0l-146 432h-137v95h239l121 -421l219 708h124l-266 -814h-154z" />
    <glyph glyph-name="infinity" unicode="&#x221e;" horiz-adv-x="959" 
d="M62 337q0 46 17.5 81.5t45 59.5t62 36t68.5 12q39 0 74.5 -13.5t65 -32t51.5 -38t34 -32.5q12 12 34 32t51 38.5t64 32t73 13.5t73 -13.5t62 -38.5t43 -61t16 -80q0 -48 -17.5 -83t-45.5 -58t-62.5 -34t-67.5 -11q-40 0 -76.5 13.5t-66 31.5t-50.5 37t-30 30
q-12 -14 -34.5 -33t-52 -36.5t-65 -30t-74.5 -12.5q-36 0 -70.5 12.5t-61.5 37t-43.5 60t-16.5 80.5zM170 335q0 -41 28 -64t65 -23q39 0 77 24.5t70 62.5q-32 36 -69.5 61.5t-79.5 25.5q-39 0 -65 -25t-26 -62zM550 335q13 -15 29.5 -30.5t35.5 -28t39.5 -20.5t42.5 -8
q18 0 35 6t30 17t21 27.5t8 36.5q0 21 -8 37t-21 27.5t-30 17.5t-35 6q-38 -2 -75 -25.5t-72 -62.5z" />
    <glyph glyph-name="integral" unicode="&#x222b;" horiz-adv-x="555" 
d="M482 638q-7 2 -16 4q-8 2 -18 3.5t-22 1.5q-42 0 -65 -22t-23 -85v-544q0 -65 -17.5 -105.5t-45 -64t-62.5 -32t-70 -8.5t-60 5q-13 3 -25 6l15 98q7 -2 16 -4q8 -2 17.5 -3t21.5 -1q42 0 65.5 23.5t23.5 87.5v544q0 65 17.5 105t45 62.5t62 30.5t68.5 8q18 0 34 -2
t28 -4q14 -3 25 -6l-15 -98v0z" />
    <glyph glyph-name="approxequal" unicode="&#x2248;" horiz-adv-x="627" 
d="M73 335q0 70 35.5 115.5t105.5 45.5q32 0 57.5 -10t47.5 -22t42 -22t42 -10q23 0 37 14.5t14 48.5h101q0 -71 -37.5 -115.5t-109.5 -44.5q-32 0 -56.5 9.5t-45 21.5t-40 21.5t-41.5 9.5q-52 0 -52 -62h-100zM73 128q0 71 36 116t106 45q32 0 57 -10t47 -21.5t42 -21.5
t42 -10q23 0 37 14t14 48h101q0 -70 -37 -115t-109 -45q-33 0 -57.5 10t-45 21.5t-40 21.5t-41.5 10q-27 0 -39.5 -16.5t-12.5 -46.5h-100z" />
    <glyph glyph-name="notequal" unicode="&#x2260;" horiz-adv-x="588" 
d="M277 164l-50 -123h-93l49 123h-115v97h153l42 103h-195v98h234l45 112h94l-45 -112h124v-98h-164l-40 -103h204v-97h-243z" />
    <glyph glyph-name="lessequal" unicode="&#x2264;" horiz-adv-x="587" 
d="M71 333v115l446 186v-114l-305 -129l305 -128v-114zM71 0v98h446v-98h-446z" />
    <glyph glyph-name="greaterequal" unicode="&#x2265;" horiz-adv-x="587" 
d="M71 149v114l304 128l-304 129v114l446 -185v-116zM71 0v98h446v-98h-446z" />
    <glyph glyph-name="lozenge" unicode="&#x25ca;" horiz-adv-x="627" 
d="M248 1l-204 364l204 365h130l204 -365l-204 -364h-130zM462 365l-149 263l-148 -263l147 -262z" />
    <glyph glyph-name="zero.oldstyle" horiz-adv-x="626" 
d="M312 -10q-62 0 -111 19t-83 54.5t-52.5 86.5t-18.5 114t18.5 113.5t52.5 86t83 54.5t111 19q61 0 110.5 -19t84.5 -54t53.5 -85.5t18.5 -113.5t-18.5 -114t-53.5 -87t-84.5 -55t-110.5 -19zM312 86q66 0 106 45t40 132q0 88 -40 133t-106 45t-105.5 -45t-39.5 -133
q0 -87 39.5 -132t105.5 -45z" />
    <glyph glyph-name="one.oldstyle" horiz-adv-x="384" 
d="M170 0v419l-128 -43l-14 85l189 66h76v-527h-123z" />
    <glyph glyph-name="two.oldstyle" horiz-adv-x="563" 
d="M63 0l-10 103q12 4 40 13.5t64 25t74 36.5t70 46.5t52.5 56.5t20.5 66q0 39 -31.5 65.5t-107.5 26.5q-35 0 -63.5 -5t-48.5 -11q-24 -7 -42 -16l-20 89q24 11 55 20q26 8 63.5 14.5t84.5 6.5q66 0 110.5 -14.5t71.5 -39t38.5 -57t11.5 -67.5q0 -52 -20 -94.5t-51.5 -75.5
t-70 -56.5t-75.5 -38.5l60 4h167v-98h-443z" />
    <glyph glyph-name="three.oldstyle" horiz-adv-x="558" 
d="M52 -65q19 -8 44 -13q21 -5 50 -9t66 -4q80 0 125.5 25.5t45.5 86.5q0 59 -42.5 84t-118.5 25q-17 0 -31 -0.5t-24 -1.5q-11 -1 -21 -1v104q7 -1 16 -1q8 -1 18 -1h21q35 0 66 4.5t54.5 16.5t37 33t13.5 54q0 54 -38.5 77.5t-113.5 23.5q-34 0 -62.5 -3.5t-50.5 -8.5
q-26 -5 -46 -11l-16 91q23 8 54 15q26 6 63 11t83 5q69 0 116.5 -12.5t77 -36t42.5 -56.5t13 -73q0 -61 -28 -104.5t-87 -64.5q27 -8 50 -22t40 -35t27 -50t10 -67q0 -100 -72.5 -153t-215.5 -53q-44 0 -77.5 4t-56.5 9q-27 6 -48 14z" />
    <glyph glyph-name="four.oldstyle" horiz-adv-x="636" 
d="M31 97l313 430h153v-429h109v-98h-109v-157h-122v157h-328zM375 98v245l3 67l-227 -312h224z" />
    <glyph glyph-name="five.oldstyle" horiz-adv-x="565" 
d="M64 -64q17 -8 41 -14q20 -5 49.5 -9t67.5 -4q90 0 134.5 35t44.5 96q0 34 -13 58t-36 38.5t-55.5 21t-71.5 6.5q-45 0 -88 -5t-68 -10l16 378h398v-100h-285l-8 -171q20 3 39.5 5t42.5 2q52 0 97.5 -12.5t79.5 -39.5t54 -69t20 -101q0 -43 -14 -84.5t-48 -74t-89.5 -52.5
t-138.5 -20q-45 0 -78.5 4t-56.5 9q-27 5 -47 13z" />
    <glyph glyph-name="six.oldstyle" horiz-adv-x="595" 
d="M479 600q-12 5 -28 9q-14 3 -33.5 6t-43.5 3q-52 0 -88.5 -14.5t-60 -42t-36 -68.5t-15.5 -93q8 5 22.5 13t35.5 15.5t47 12.5t58 5q52 0 92 -16.5t67 -46t41 -70.5t14 -89q0 -51 -16 -94t-47 -74t-77 -48.5t-106 -17.5q-76 0 -125.5 27t-78.5 72.5t-40.5 106.5
t-11.5 130q0 91 18 163.5t56 123t96 77.5t139 27q32 0 57.5 -3.5t43.5 -8.5q20 -5 36 -11zM171 305q1 -50 7.5 -90t22 -68.5t40.5 -43.5t62 -15q24 0 47 7t41 23.5t28.5 42t10.5 63.5q0 34 -9 58t-25 39t-37.5 21.5t-46.5 6.5q-22 0 -43.5 -4.5t-40 -11t-33.5 -14.5t-24 -14
z" />
    <glyph glyph-name="seven.oldstyle" horiz-adv-x="519" 
d="M34 527h447l6 -92l-262 -615h-132l225 532l38 75h-322v100z" />
    <glyph glyph-name="eight.oldstyle" horiz-adv-x="625" 
d="M443 369q15 -5 37.5 -17.5t43.5 -34.5t36 -54.5t15 -77.5q0 -94 -69.5 -144.5t-197.5 -50.5t-193.5 50t-65.5 141q0 44 14.5 76t35 54t43 35t38.5 18q-15 5 -34.5 17t-37 32.5t-29.5 49t-12 67.5q0 40 15 74.5t46 59.5t77.5 39t108.5 14t108 -13.5t76 -37.5t44.5 -56.5
t14.5 -69.5q0 -39 -14 -69.5t-32.5 -52t-38 -34t-29.5 -15.5zM294 318q-24 -6 -46 -17.5t-39.5 -28t-27.5 -37.5t-10 -46q0 -50 37.5 -76.5t103.5 -26.5t103 26.5t37 77.5q0 30 -13 50t-34.5 34.5t-50.5 24.5t-60 19zM334 407q48 21 75.5 49.5t27.5 71.5q0 50 -36 73t-89 23
q-54 0 -89.5 -23t-35.5 -74q0 -27 11.5 -46t31 -32.5t46.5 -23t58 -18.5z" />
    <glyph glyph-name="nine.oldstyle" horiz-adv-x="595" 
d="M115 -72q12 -5 28 -9q14 -4 33 -6.5t44 -2.5q52 0 88.5 14.5t60 42t36 68t15.5 93.5q-8 -5 -23 -13t-35.5 -15.5t-47 -12.5t-57.5 -5q-53 0 -93 16.5t-67 46t-40.5 70.5t-13.5 89q0 51 16 94t47 74t77 48.5t106 17.5q76 0 125.5 -27t78.5 -72.5t40.5 -106.5t11.5 -130
q0 -91 -18 -163.5t-56 -123t-96 -77.5t-139 -27q-32 0 -58 3t-43 8q-21 5 -36 12zM423 223q-1 50 -7.5 90t-22 68.5t-41 43.5t-62.5 15q-24 0 -46.5 -7t-40.5 -23.5t-28.5 -42.5t-10.5 -63q0 -35 9 -58.5t25 -38.5t37.5 -21.5t46.5 -6.5q22 0 43.5 4.5t40 11t33.5 14.5
t24 14z" />
    <glyph glyph-name="exclam.aalt" horiz-adv-x="282" 
d="M90 157l-10 419h123l-10 -419h-103zM205 48q0 -24 -16.5 -40t-48.5 -16t-48 15.5t-16 40.5q0 23 16 39t48 16t48.5 -16t16.5 -39z" />
    <glyph glyph-name="numbersign.aalt" horiz-adv-x="652" 
d="M365 0l17 148h-134l-17 -148h-87l17 148h-90v67h98l15 131h-86v67h94l18 153h87l-18 -153h134l17 153h88l-17 -153h80v-67h-88l-17 -131h78v-67h-85l-16 -148h-88zM405 346h-134l-15 -131h134z" />
    <glyph glyph-name="dollar.aalt" horiz-adv-x="549" 
d="M326 565q34 -2 60.5 -7.5t44.5 -11.5q21 -7 37 -15l-27 -91q-16 9 -38 16q-19 6 -47 11t-63 5q-57 0 -86.5 -13.5t-29.5 -47.5q0 -18 8 -28.5t24.5 -18t43 -14t62.5 -16.5q38 -10 69.5 -21.5t54.5 -30.5t36 -46.5t13 -69.5q0 -74 -41 -112t-120 -49v-100h-91v95
q-42 1 -73.5 6.5t-54.5 11.5q-26 7 -46 16l24 95q19 -10 45 -18q22 -7 51.5 -12t66.5 -5q66 0 93 16t27 48q0 18 -7.5 30t-22.5 20t-36 14t-48 13q-39 10 -74.5 22t-62 30.5t-42 47t-15.5 71.5q0 72 44.5 110t129.5 47v89h91v-87z" />
    <glyph glyph-name="percent.aalt" horiz-adv-x="724" 
d="M127 0l394 566h73l-395 -566h-72zM185 297q-66 0 -99 39t-33 98q0 63 34.5 101.5t97.5 38.5q65 0 98.5 -38t33.5 -100q0 -61 -32.5 -100t-99.5 -39zM185 361q59 0 59 75q0 73 -59 73q-58 0 -58 -74t58 -74zM539 -8q-67 0 -100 38.5t-33 97.5q0 63 35 101.5t98 38.5
q64 0 98 -38.5t34 -98.5q0 -62 -33 -100.5t-99 -38.5zM539 56q58 0 58 74q0 73 -58 73t-58 -74q0 -73 58 -73z" />
    <glyph glyph-name="ampersand.aalt" horiz-adv-x="658" 
d="M596 254h-30q-12 0 -28 1q3 -12 7 -25q3 -11 5.5 -27t2.5 -34q0 -35 -10.5 -66.5t-38.5 -56.5t-75.5 -39.5t-120.5 -14.5q-65 0 -109.5 12t-73 33.5t-41 50.5t-12.5 64q0 38 13 65.5t31 45.5t37.5 27.5t33.5 11.5q-14 4 -29.5 12.5t-28.5 23.5t-21.5 36t-8.5 50
q0 33 12.5 61t39.5 47.5t70 30.5t104 11q39 0 68 -3.5t49 -8.5q23 -5 39 -11l-16 -82q-17 6 -38 10q-18 4 -42 7t-53 3q-60 0 -88.5 -18t-28.5 -59q0 -26 10 -40t28.5 -21.5t44.5 -9t57 -1.5h241v-86zM302 256q-54 0 -83 -22t-29 -70q0 -47 29.5 -67t87.5 -20
q72 0 103.5 27.5t31.5 83.5q0 26 -5 44.5t-6 23.5h-129z" />
    <glyph glyph-name="section.aalt" horiz-adv-x="544" 
d="M97 -84q18 -7 42 -11q20 -4 47.5 -7t59.5 -3q64 0 92 18.5t28 51.5q0 21 -8.5 34t-22.5 21t-32.5 13t-39.5 10q-33 6 -67 16.5t-62.5 29t-46.5 46.5t-18 69q0 43 18.5 69t41.5 40q-27 19 -43.5 46t-16.5 68q0 70 55 108.5t161 38.5q35 0 65 -3.5t52 -7.5q26 -4 45 -10
l-14 -82q-17 5 -39 9q-19 3 -46 6t-59 3q-53 0 -81.5 -14.5t-28.5 -47.5q0 -17 7 -28t21.5 -19t37.5 -15.5t55 -17.5q28 -9 59 -19t57 -27t42.5 -43t16.5 -67q0 -73 -54 -110q25 -17 39.5 -43.5t14.5 -67.5q0 -35 -13 -64t-40.5 -50.5t-70 -33.5t-102.5 -12q-36 0 -66.5 3
t-52.5 8q-26 4 -46 11zM263 259q-12 4 -24.5 7t-24.5 8q-14 -10 -25.5 -24t-11.5 -36q0 -18 8.5 -30.5t24 -21.5t38.5 -16.5t52 -15.5l31 -9q36 19 36 55q0 21 -9 34.5t-24 22.5t-33.5 15t-37.5 11z" />
    <glyph glyph-name="paragraph.aalt" horiz-adv-x="593" 
d="M433 -143v642h-107v-642h-84v357q-57 0 -96.5 15t-63.5 40t-34.5 58t-10.5 70q0 38 10.5 71.5t34.5 58t63.5 39t97.5 14.5h274v-723h-84z" />
    <glyph glyph-name="parenleft.aalt" horiz-adv-x="291" 
d="M165 -111q-31 43 -55 102q-21 51 -38 124t-17 168t17 167.5t38 123.5q24 59 55 102l85 -34q-25 -38 -44 -92q-17 -46 -30 -112.5t-13 -154.5t13 -155t30 -112q19 -54 44 -92z" />
    <glyph glyph-name="slash.sc" horiz-adv-x="402" 
d="M40 0l212 566h110l-214 -566h-108z" />
    <glyph glyph-name="parenright.aalt" horiz-adv-x="291" 
d="M40 -76q24 38 43 92q17 45 30.5 112t13.5 155t-13.5 154.5t-30.5 112.5q-19 54 -43 92l86 34q30 -43 54 -102q20 -51 37.5 -123.5t17.5 -167.5t-17.5 -168t-37.5 -124q-24 -59 -54 -102z" />
    <glyph glyph-name="bracketleft.aalt" horiz-adv-x="347" 
d="M193 562v-554h105v-86h-210v726h214v-86h-109z" />
    <glyph glyph-name="backslash.aalt" horiz-adv-x="402" 
d="M254 0l-214 566h110l212 -566h-108z" />
    <glyph glyph-name="bracketright.aalt" horiz-adv-x="347" 
d="M259 648v-726h-210v86h105v554h-109v86h214z" />
    <glyph glyph-name="braceleft.aalt" horiz-adv-x="323" 
d="M290 569q-42 0 -59.5 -18.5t-17.5 -55.5v-108q0 -43 -19 -68t-48 -36q29 -12 48 -36.5t19 -68.5v-108q0 -37 17.5 -55t59.5 -18v-78q-45 0 -79 7.5t-56.5 24t-33.5 43.5t-11 67v110q0 30 -14 53t-56 23v71q42 0 56 23.5t14 53.5v109q0 79 44.5 110.5t135.5 31.5v-77v0z
" />
    <glyph glyph-name="bar.aalt" horiz-adv-x="328" 
d="M120 -84v724h88v-724h-88z" />
    <glyph glyph-name="braceright.aalt" horiz-adv-x="323" 
d="M33 646q91 0 135 -31.5t44 -110.5v-109q0 -30 14 -53.5t56 -23.5v-71q-42 0 -56 -23t-14 -53v-110q0 -40 -11 -67t-33 -43.5t-56 -24t-79 -7.5v78q42 0 59.5 18t17.5 55v108q0 44 18.5 68.5t47.5 36.5q-29 11 -47.5 36t-18.5 68v108q0 37 -17.5 55.5t-59.5 18.5v77z" />
    <glyph glyph-name="zero.sc" horiz-adv-x="598" 
d="M296 -8q-117 0 -181.5 73t-64.5 215q0 146 66 220t184 74t183.5 -73.5t65.5 -216.5t-66.5 -217.5t-186.5 -74.5zM300 84q69 0 100 50t31 150q0 99 -30.5 148.5t-100.5 49.5q-71 0 -101.5 -51t-30.5 -148q0 -100 30.5 -149.5t101.5 -49.5z" />
    <glyph glyph-name="one.sc" horiz-adv-x="377" 
d="M156 0v465l-107 -34l-12 83l162 52h74v-566h-117z" />
    <glyph glyph-name="two.sc" horiz-adv-x="520" 
d="M59 0l-7 90q34 25 83.5 57t95 70t77.5 80.5t32 88.5q0 44 -30.5 70t-95.5 26q-29 0 -54 -5t-45 -10q-23 -6 -42 -14l-19 85q24 10 53 18q25 7 59 12.5t74 5.5q57 0 98 -13t67.5 -36t39 -55t12.5 -69q0 -42 -14 -78.5t-35.5 -69t-48.5 -59.5t-53.5 -48.5t-49.5 -37
t-36 -25.5l70 6h164v-89h-395z" />
    <glyph glyph-name="three.sc" horiz-adv-x="511" 
d="M51 101q18 -6 41 -10q20 -4 46.5 -7t58.5 -3q63 0 101.5 18t38.5 65q0 44 -35 63.5t-105 19.5q-11 0 -22.5 -0.5t-19.5 -1.5q-11 -1 -19 -1v86q6 -1 14 -1q7 -1 16 -1h20q28 0 54 3t45.5 12t31 24.5t11.5 41.5q0 42 -32.5 58.5t-92.5 16.5q-30 0 -55.5 -3t-45.5 -6
q-23 -4 -42 -8l-12 83q23 7 51 12q24 5 56.5 8.5t70.5 3.5q116 0 167.5 -39t51.5 -105q0 -46 -24.5 -81.5t-74.5 -52.5q47 -13 77.5 -45.5t30.5 -92.5q0 -84 -63.5 -125t-181.5 -41q-38 0 -68.5 3t-53.5 8q-26 4 -47 11z" />
    <glyph glyph-name="four.sc" horiz-adv-x="552" 
d="M32 204l260 362h144v-362h79v-88h-79v-116h-117v116h-274zM319 204v214l4 31l-179 -245h175z" />
    <glyph glyph-name="five.sc" horiz-adv-x="510" 
d="M61 102q17 -7 39 -11q18 -4 43.5 -7t55.5 -3q78 0 114 25.5t36 73.5q0 28 -11 46t-30.5 29t-46.5 15.5t-60 4.5q-26 0 -50.5 -2t-43.5 -4q-22 -3 -41 -6l12 303h352v-90h-244l-5 -124q11 1 22 3q10 1 22.5 2t26.5 1q46 0 85.5 -10.5t68 -32.5t44.5 -56t16 -80
q0 -36 -11.5 -69.5t-41 -59.5t-79.5 -42t-126 -16q-35 0 -64 3t-50 7q-25 4 -44 10z" />
    <glyph glyph-name="six.sc" horiz-adv-x="540" 
d="M433 469q-12 3 -27 7q-13 3 -31.5 5.5t-41.5 2.5q-82 0 -120.5 -40t-43.5 -122q14 9 48.5 22t88.5 13q93 0 141.5 -46t48.5 -127q0 -89 -58 -140.5t-159 -51.5q-64 0 -107.5 20.5t-70.5 57t-39 87t-12 109.5q0 71 16.5 128t50 97t85.5 61.5t123 21.5q28 0 50 -3t39 -6
q18 -4 34 -9zM167 236q1 -36 7 -65t18.5 -49.5t33.5 -31.5t51 -11q18 0 36.5 5t33.5 16.5t24 31t9 48.5q0 26 -7.5 43.5t-20.5 28t-30.5 14.5t-36.5 4q-39 0 -71 -12t-47 -22z" />
    <glyph glyph-name="seven.sc" horiz-adv-x="460" 
d="M34 566h385l5 -83l-215 -483h-125l188 426l26 47h-264v93z" />
    <glyph glyph-name="eight.sc" horiz-adv-x="566" 
d="M406 296q13 -4 32 -13.5t37 -27t30.5 -43t12.5 -61.5q0 -81 -64 -120t-174 -39t-171.5 38t-61.5 116q0 35 12 60.5t29.5 42.5t36 27t32.5 14q-12 4 -28 13.5t-31 25t-25.5 38.5t-10.5 54q0 75 59.5 114t162.5 39t162 -38t59 -105q0 -31 -12 -55t-28.5 -41t-33 -26.5
t-25.5 -12.5zM268 252q-43 -11 -73 -34.5t-30 -64.5q0 -38 31 -58.5t87 -20.5q55 0 86.5 20t31.5 61q0 24 -11 39.5t-29.5 26t-42.5 17.5t-50 14zM301 328q39 15 63 36.5t24 56.5q0 39 -30 55t-75 16q-44 0 -74.5 -16t-30.5 -56q0 -22 10 -37t26.5 -25t39 -17t47.5 -13z" />
    <glyph glyph-name="nine.sc" horiz-adv-x="540" 
d="M107 96q12 -4 27 -8q13 -3 31.5 -5t41.5 -2q81 0 119.5 40.5t44.5 121.5q-14 -9 -48.5 -22t-89.5 -13q-91 0 -140 47t-49 128q0 88 58 139.5t159 51.5q64 0 107.5 -20.5t70.5 -57.5t39 -87t12 -109q0 -71 -16.5 -128t-50 -97t-85.5 -61.5t-123 -21.5q-28 0 -50 2.5
t-38 6.5q-18 4 -34 9zM373 330q-1 72 -25 114t-85 42q-19 0 -37.5 -5t-33 -16.5t-23.5 -30.5t-9 -48q0 -27 7.5 -44.5t20.5 -28t30 -14.5t37 -4q39 0 71 12t47 23z" />
    <glyph glyph-name="question.aalt" horiz-adv-x="494" 
d="M153 155q-2 5 -4 19.5t-2 31.5q0 38 13 63t32.5 41.5t42 28t42 23t32.5 25.5t13 37q0 32 -28 46t-83 14t-91.5 -8.5t-53.5 -14.5l-20 83q20 6 68 18t122 12q60 0 100 -10.5t64.5 -29.5t34.5 -44.5t10 -55.5q0 -39 -13.5 -63.5t-33.5 -41.5t-43 -29.5t-43 -26.5t-33.5 -33
t-13.5 -49q0 -7 0.5 -13.5t1.5 -11.5q1 -6 3 -11h-117zM278 48q0 -29 -17 -42.5t-49 -13.5t-49.5 13.5t-17.5 42.5q0 27 17.5 41t49.5 14t49 -14t17 -41z" />
    <glyph glyph-name="a.aalt" horiz-adv-x="645" 
d="M403 566l214 -566h-122l-52 137h-241l-52 -137h-121l213 566h161zM306 420l-76 -198h186l-77 198l-16 55z" />
    <glyph glyph-name="b.aalt" horiz-adv-x="617" 
d="M78 0v566h252q102 0 158.5 -34t56.5 -111q0 -41 -18.5 -75t-65.5 -51q57 -14 79.5 -50t22.5 -86q0 -73 -53.5 -116t-171.5 -43h-260zM327 87q69 0 94 21.5t25 60.5q0 42 -26 61t-96 19h-129v-162h132zM314 326q65 0 90.5 20t25.5 60q0 38 -25 56.5t-90 18.5h-120v-155
h119z" />
    <glyph glyph-name="c.aalt" horiz-adv-x="573" 
d="M169 283q0 -58 16 -95.5t43 -59.5t63 -31t76 -9q27 0 49.5 2.5t39.5 6.5q19 4 34 10l15 -92q-17 -7 -40 -12q-20 -5 -47.5 -8t-62.5 -3q-158 0 -231 77t-73 213q0 68 19 122.5t56.5 92t94.5 57.5t134 20q35 0 62.5 -3.5t47.5 -8.5q23 -5 40 -12l-15 -92q-15 6 -34 10
q-17 4 -39.5 7t-50.5 3q-40 0 -75.5 -9t-62.5 -31t-43 -59.5t-16 -95.5z" />
    <glyph glyph-name="d.aalt" horiz-adv-x="650" 
d="M78 566h229q82 0 137.5 -22t90 -60t49.5 -89.5t15 -111.5t-15.5 -111.5t-50 -89.5t-90 -60t-136.5 -22h-229v566zM311 96q91 0 130.5 50.5t39.5 136.5q0 43 -9.5 78t-30 59.5t-53 37.5t-78.5 13h-115v-375h116z" />
    <glyph glyph-name="e.aalt" horiz-adv-x="579" 
d="M78 0v566h435v-95h-318v-142h279v-85h-279v-149h318v-95h-435z" />
    <glyph glyph-name="f.aalt" horiz-adv-x="557" 
d="M195 221v-221h-117v566h429v-96h-312v-161h273v-88h-273z" />
    <glyph glyph-name="g.aalt" horiz-adv-x="610" 
d="M169 282q0 -56 15.5 -94t42.5 -60.5t63 -32t77 -9.5q19 0 36.5 1.5t32.5 3.5v191h103v-263q-24 -8 -53 -14q-25 -5 -58.5 -9t-71.5 -4q-77 0 -134.5 20t-95.5 57.5t-56.5 90.5t-18.5 119q0 138 80 216.5t234 78.5q35 0 64.5 -3.5t51.5 -8.5q26 -5 46 -12l-16 -91
q-17 6 -38 10q-18 4 -42.5 7t-53.5 3q-44 0 -81.5 -9.5t-66 -32t-44.5 -60.5t-16 -95z" />
    <glyph glyph-name="h.aalt" horiz-adv-x="670" 
d="M475 0v233h-280v-233h-117v566h117v-237h280v237h117v-566h-117z" />
    <glyph glyph-name="i.aalt" horiz-adv-x="273" 
d="M78 0v566h117v-566h-117z" />
    <glyph glyph-name="j.aalt" horiz-adv-x="408" 
d="M218 566h116v-390q0 -41 -10.5 -75t-33 -58t-57.5 -37.5t-83 -13.5q-28 0 -49 3.5t-35 8.5q-17 5 -29 12l19 85q8 -4 19 -8q9 -3 22.5 -5.5t30.5 -2.5q45 0 67.5 21t22.5 69v391z" />
    <glyph glyph-name="k.aalt" 
d="M428 0l-191 230h-42v-230h-117v566h117v-255q20 2 32 5q6 2 11 3q6 6 17.5 20t26.5 32.5t32.5 40t34.5 43.5q40 51 87 111h130q-5 -8 -20.5 -28t-37 -47t-47 -58.5t-49 -60.5t-44 -53.5t-31.5 -38.5l233 -280h-142z" />
    <glyph glyph-name="l.aalt" horiz-adv-x="514" 
d="M78 0v566h117v-470h269v-96h-386z" />
    <glyph glyph-name="m.aalt" horiz-adv-x="805" 
d="M249 566l150 -345l156 345h139l49 -566h-117l-30 362l-1 65l-145 -318h-98l-141 317l-2 -64l-30 -362h-118l50 566h138z" />
    <glyph glyph-name="n.aalt" horiz-adv-x="676" 
d="M470 0l-286 410l7 -79v-331h-113v566h126l289 -413l-8 90v323h113v-566h-128z" />
    <glyph glyph-name="o.aalt" horiz-adv-x="671" 
d="M333 -8q-136 0 -209 76t-73 213q0 140 74.5 216.5t211.5 76.5q136 0 209.5 -76.5t73.5 -213.5t-74.5 -214.5t-212.5 -77.5zM336 86q85 0 125.5 51t40.5 146t-40 145.5t-125 50.5t-126.5 -51t-41.5 -145q0 -95 41.5 -146t125.5 -51z" />
    <glyph glyph-name="p.aalt" horiz-adv-x="614" 
d="M78 0v566h256q67 0 110.5 -16t69 -43t36 -62.5t10.5 -74.5q0 -38 -10.5 -73.5t-36 -63t-69 -44.5t-110.5 -17h-139v-172h-117zM321 264q37 0 60.5 8t37 22.5t19 33.5t5.5 42q0 22 -5.5 41.5t-19 33t-37 21.5t-60.5 8h-126v-210h126z" />
    <glyph glyph-name="q.aalt" horiz-adv-x="662" 
d="M500 -160q-7 -2 -28.5 -6.5t-47.5 -4.5q-46 0 -74 15t-43 37.5t-20 48.5t-5 47v18q-114 13 -175 87t-61 199q0 140 75 216.5t210 76.5t209.5 -76.5t74.5 -213.5q0 -128 -65 -203.5t-184 -86.5q3 -45 21 -61t53 -16q12 0 21.5 1t16.5 3q8 2 15 5zM331 86q85 0 126 51
t41 146t-41 145.5t-126 50.5t-126 -51t-41 -145q0 -95 41.5 -146t125.5 -51z" />
    <glyph glyph-name="r.aalt" horiz-adv-x="625" 
d="M78 0v566h260q67 0 110.5 -15t69.5 -40.5t36.5 -59.5t10.5 -73q0 -28 -6 -54t-20 -48.5t-37 -40t-57 -27.5l125 -208h-128l-115 195h-132v-195h-117zM325 282q37 0 60.5 6.5t37.5 19t19.5 30t5.5 40.5q0 22 -5.5 40t-19.5 30.5t-37.5 19t-60.5 6.5h-130v-192h130z" />
    <glyph glyph-name="s.aalt" horiz-adv-x="550" 
d="M83 122q21 -11 47 -19q22 -7 52 -12.5t66 -5.5q68 0 97.5 17t29.5 50q0 20 -10 33.5t-26.5 22.5t-38 15t-45.5 12q-34 9 -69 20.5t-64 31.5t-47.5 50.5t-18.5 76.5q0 84 63 122t174 38q42 0 75 -5.5t57 -12.5q27 -8 49 -18l-27 -92q-19 9 -42 17q-20 6 -47.5 11.5
t-62.5 5.5q-58 0 -90.5 -13.5t-32.5 -48.5q0 -20 10 -32t28.5 -20.5t45 -15.5t59.5 -16q37 -10 69.5 -23t57 -32.5t38.5 -48.5t14 -72q0 -90 -63.5 -128t-181.5 -38q-44 0 -79 5.5t-59 12.5q-29 8 -50 18z" />
    <glyph glyph-name="t.aalt" horiz-adv-x="545" 
d="M214 0v470h-189v96h495v-96h-189v-470h-117z" />
    <glyph glyph-name="u.aalt" horiz-adv-x="663" 
d="M473 566h117v-331q0 -118 -62 -180.5t-196 -62.5q-136 0 -197 63t-61 180v331h117v-324q0 -36 6.5 -64.5t22.5 -49t43 -31.5t69 -11q41 0 68 11t43.5 31.5t23 49t6.5 64.5v324z" />
    <glyph glyph-name="v.aalt" horiz-adv-x="623" 
d="M145 566l145 -408l22 -71l21 71l144 408h122l-207 -566h-162l-205 566h120z" />
    <glyph glyph-name="w.aalt" horiz-adv-x="880" 
d="M147 566l99 -391l15 -74l17 75l107 390h111l107 -389l17 -76l15 76l98 389h123l-155 -566h-140l-103 359l-18 75l-17 -75l-104 -359h-140l-154 566h122z" />
    <glyph glyph-name="x.aalt" horiz-adv-x="636" 
d="M467 0l-149 203l-150 -203h-131l206 283l-207 283h129l155 -210l150 210h128l-206 -289l207 -277h-132z" />
    <glyph glyph-name="y.aalt" horiz-adv-x="600" 
d="M150 566l125 -217l26 -51l26 52l122 216h127l-214 -360v-206h-122v205l-215 361h125z" />
    <glyph glyph-name="z.aalt" horiz-adv-x="581" 
d="M68 566h452v-83l-310 -393l46 5h267v-95h-464v83l309 391l-41 -3h-259v95z" />
    <glyph glyph-name="agrave.aalt" horiz-adv-x="645" 
d="M272 637l-121 159h128l92 -159h-99zM403 566l214 -566h-122l-52 137h-241l-52 -137h-121l213 566h161zM306 420l-76 -198h186l-77 198l-16 55z" />
    <glyph glyph-name="aacute.aalt" horiz-adv-x="645" 
d="M276 637l92 159h128l-122 -159h-98zM403 566l214 -566h-122l-52 137h-241l-52 -137h-121l213 566h161zM306 420l-76 -198h186l-77 198l-16 55z" />
    <glyph glyph-name="acircumflex.aalt" horiz-adv-x="645" 
d="M367 796l122 -159h-98l-74 95l-75 -95h-96l121 159h100zM403 566l214 -566h-122l-52 137h-241l-52 -137h-121l213 566h161zM306 420l-76 -198h186l-77 198l-16 55z" />
    <glyph glyph-name="atilde.aalt" horiz-adv-x="645" 
d="M141 637l-2 10t-1.5 11.5t-0.5 14.5q0 21 6 41t18 35.5t31 24.5t45 9t45.5 -9.5t35 -21.5t29.5 -21.5t29 -9.5q32 0 32 34q0 5 -1 9.5t-2 8.5t-2 9h84l2 -12q1 -5 2 -12t1 -13q0 -21 -6 -41t-18.5 -35t-32 -24t-45.5 -9t-45 10t-34.5 21.5t-29 21.5t-29.5 10
q-15 0 -23 -10t-8 -26q0 -8 2 -18l2 -8h-84zM403 566l214 -566h-122l-52 137h-241l-52 -137h-121l213 566h161zM306 420l-76 -198h186l-77 198l-16 55z" />
    <glyph glyph-name="adieresis.aalt" horiz-adv-x="645" 
d="M277 699q0 -26 -14 -44t-49 -18q-34 0 -48.5 17.5t-14.5 44.5q0 26 14.5 43.5t48.5 17.5q35 0 49 -17.5t14 -43.5zM488 699q0 -26 -14.5 -44t-47.5 -18q-35 0 -49 17.5t-14 44.5q0 26 14 43.5t49 17.5q33 0 47.5 -17.5t14.5 -43.5zM403 566l214 -566h-122l-52 137h-241
l-52 -137h-121l213 566h161zM306 420l-76 -198h186l-77 198l-16 55z" />
    <glyph glyph-name="amacron.aalt" horiz-adv-x="645" 
d="M165 639v78h309v-78h-309zM403 566l214 -566h-122l-52 137h-241l-52 -137h-121l213 566h161zM306 420l-76 -198h186l-77 198l-16 55z" />
    <glyph glyph-name="abreve.aalt" horiz-adv-x="645" 
d="M479 792q0 -18 -8 -44t-26.5 -50.5t-49 -41.5t-76.5 -17q-55 0 -86.5 22t-48 49.5t-21 52t-4.5 29.5h82q0 -2 3 -13.5t11 -25t23.5 -24.5t40.5 -11q22 0 37 9.5t24 21.5t13 24.5t4 18.5h82zM403 566l214 -566h-122l-52 137h-241l-52 -137h-121l213 566h161zM306 420
l-76 -198h186l-77 198l-16 55z" />
    <glyph glyph-name="aring.aalt" horiz-adv-x="645" 
d="M319 638q-58 0 -86.5 29.5t-28.5 80.5q0 52 31.5 82t87.5 30q57 0 86 -30t29 -81t-29.5 -81t-89.5 -30zM321 701q45 0 45 49q0 47 -44 47q-46 0 -46 -48t45 -48zM403 566l214 -566h-122l-52 137h-241l-52 -137h-121l213 566h161zM306 420l-76 -198h186l-77 198l-16 55z
" />
    <glyph glyph-name="aogonek.aalt" horiz-adv-x="645" 
d="M403 566l214 -566q-10 -2 -27.5 -10t-35 -21t-30 -29t-12.5 -35q0 -14 11 -26.5t40 -12.5q19 0 37 5t26 7l2 -74q-14 -5 -39.5 -12t-58.5 -7q-59 0 -90 25t-31 62q0 24 10.5 44t26 36t33 28t30.5 20h-14l-52 137h-241l-52 -137h-121l213 566h161zM306 420l-76 -198h186
l-77 198l-16 55z" />
    <glyph glyph-name="ae.aalt" horiz-adv-x="920" 
d="M855 566v-95h-316v-142h276v-85h-276v-149h316v-95h-438v129h-191l-73 -129h-124l313 566h513zM266 214h151v267z" />
    <glyph glyph-name="cacute.aalt" horiz-adv-x="573" 
d="M255 639l92 158h127l-120 -158h-99zM169 283q0 -58 16 -95.5t43 -59.5t63 -31t76 -9q27 0 49.5 2.5t39.5 6.5q19 4 34 10l15 -92q-17 -7 -40 -12q-20 -5 -47.5 -8t-62.5 -3q-158 0 -231 77t-73 213q0 68 19 122.5t56.5 92t94.5 57.5t134 20q35 0 62.5 -3.5t47.5 -8.5
q23 -5 40 -12l-15 -92q-15 6 -34 10q-17 4 -39.5 7t-50.5 3q-40 0 -75.5 -9t-62.5 -31t-43 -59.5t-16 -95.5z" />
    <glyph glyph-name="ccircumflex.aalt" horiz-adv-x="573" 
d="M391 637l-74 95l-75 -95h-96l121 159h100l122 -159h-98zM169 283q0 -58 16 -95.5t43 -59.5t63 -31t76 -9q27 0 49.5 2.5t39.5 6.5q19 4 34 10l15 -92q-17 -7 -40 -12q-20 -5 -47.5 -8t-62.5 -3q-158 0 -231 77t-73 213q0 68 19 122.5t56.5 92t94.5 57.5t134 20
q35 0 62.5 -3.5t47.5 -8.5q23 -5 40 -12l-15 -92q-15 6 -34 10q-17 4 -39.5 7t-50.5 3q-40 0 -75.5 -9t-62.5 -31t-43 -59.5t-16 -95.5z" />
    <glyph glyph-name="ccaron.aalt" horiz-adv-x="573" 
d="M277 637l-122 159h97l74 -95l75 95h97l-121 -159h-100zM169 283q0 -58 16 -95.5t43 -59.5t63 -31t76 -9q27 0 49.5 2.5t39.5 6.5q19 4 34 10l15 -92q-17 -7 -40 -12q-20 -5 -47.5 -8t-62.5 -3q-158 0 -231 77t-73 213q0 68 19 122.5t56.5 92t94.5 57.5t134 20
q35 0 62.5 -3.5t47.5 -8.5q23 -5 40 -12l-15 -92q-15 6 -34 10q-17 4 -39.5 7t-50.5 3q-40 0 -75.5 -9t-62.5 -31t-43 -59.5t-16 -95.5z" />
    <glyph glyph-name="cdotaccent.aalt" horiz-adv-x="573" 
d="M394 703q0 -28 -15.5 -46t-52.5 -18t-53 18t-16 46q0 27 16 45t53 18t52.5 -18t15.5 -45zM169 283q0 -58 16 -95.5t43 -59.5t63 -31t76 -9q27 0 49.5 2.5t39.5 6.5q19 4 34 10l15 -92q-17 -7 -40 -12q-20 -5 -47.5 -8t-62.5 -3q-158 0 -231 77t-73 213q0 68 19 122.5
t56.5 92t94.5 57.5t134 20q35 0 62.5 -3.5t47.5 -8.5q23 -5 40 -12l-15 -92q-15 6 -34 10q-17 4 -39.5 7t-50.5 3q-40 0 -75.5 -9t-62.5 -31t-43 -59.5t-16 -95.5z" />
    <glyph glyph-name="ccedilla.aalt" horiz-adv-x="573" 
d="M169 283q0 -58 16 -95.5t43 -59.5t63 -31t76 -9q27 0 49.5 2.5t39.5 6.5q19 4 34 10l15 -92q-16 -6 -36 -10q-17 -4 -41.5 -8t-55.5 -5l-12 -45q3 0 8.5 0.5t7.5 0.5q20 0 38 -4t31.5 -14t21.5 -25.5t8 -38.5q0 -44 -32 -67.5t-95 -23.5q-30 0 -50 4.5t-28 6.5l7 58
q6 -2 23.5 -6t40.5 -4t41.5 7t18.5 26t-17 25.5t-40 6.5q-20 0 -38.5 -2.5t-24.5 -4.5l27 102q-67 6 -115.5 28t-80 59t-46.5 87.5t-15 113.5q0 68 19 122.5t56.5 92t94.5 57.5t134 20q35 0 62.5 -3.5t47.5 -8.5q23 -5 40 -12l-15 -92q-15 6 -34 10q-17 4 -39.5 7t-50.5 3
q-40 0 -75.5 -9t-62.5 -31t-43 -59.5t-16 -95.5z" />
    <glyph glyph-name="dcaron.aalt" horiz-adv-x="650" 
d="M246 637l-122 159h98l74 -95l75 95h97l-122 -159h-100zM78 566h229q82 0 137.5 -22t90 -60t49.5 -89.5t15 -111.5t-15.5 -111.5t-50 -89.5t-90 -60t-136.5 -22h-229v566zM311 96q91 0 130.5 50.5t39.5 136.5q0 43 -9.5 78t-30 59.5t-53 37.5t-78.5 13h-115v-375h116z" />
    <glyph glyph-name="dcroat.aalt" horiz-adv-x="650" 
d="M12 331h66v235h229q82 0 137.5 -22t90 -60t49.5 -89.5t15 -111.5t-15.5 -111.5t-50 -89.5t-90 -60t-136.5 -22h-229v243h-66v88zM311 96q91 0 130.5 50.5t39.5 136.5q0 43 -9.5 78t-30 59.5t-53 37.5t-78.5 13h-115v-140h137v-88h-137v-147h116z" />
    <glyph glyph-name="eth.aalt" horiz-adv-x="650" 
d="M12 331h66v235h229q82 0 137.5 -22t90 -60t49.5 -89.5t15 -111.5t-15.5 -111.5t-50 -89.5t-90 -60t-136.5 -22h-229v243h-66v88zM311 96q91 0 130.5 50.5t39.5 136.5q0 43 -9.5 78t-30 59.5t-53 37.5t-78.5 13h-115v-140h137v-88h-137v-147h116z" />
    <glyph glyph-name="egrave.aalt" horiz-adv-x="579" 
d="M261 637l-121 159h127l92 -159h-98zM78 0v566h435v-95h-318v-142h279v-85h-279v-149h318v-95h-435z" />
    <glyph glyph-name="eacute.aalt" horiz-adv-x="579" 
d="M239 637l92 159h128l-121 -159h-99zM78 0v566h435v-95h-318v-142h279v-85h-279v-149h318v-95h-435z" />
    <glyph glyph-name="ecircumflex.aalt" horiz-adv-x="579" 
d="M347 797l122 -159h-97l-75 94l-74 -94h-97l121 159h100zM78 0v566h435v-95h-318v-142h279v-85h-279v-149h318v-95h-435z" />
    <glyph glyph-name="ecaron.aalt" horiz-adv-x="579" 
d="M254 637l-121 159h97l74 -95l75 95h97l-122 -159h-100zM78 0v566h435v-95h-318v-142h279v-85h-279v-149h318v-95h-435z" />
    <glyph glyph-name="edieresis.aalt" horiz-adv-x="579" 
d="M256 699q0 -26 -14.5 -43.5t-48.5 -17.5t-48.5 17t-14.5 44q0 26 14.5 43.5t48.5 17.5t48.5 -17.5t14.5 -43.5zM468 699q0 -26 -14.5 -43.5t-47.5 -17.5q-35 0 -49.5 17t-14.5 44q0 26 14.5 43.5t49.5 17.5q33 0 47.5 -17.5t14.5 -43.5zM78 0v566h435v-95h-318v-142h279
v-85h-279v-149h318v-95h-435z" />
    <glyph glyph-name="emacron.aalt" horiz-adv-x="579" 
d="M138 639v78h310v-78h-310zM78 0v566h435v-95h-318v-142h279v-85h-279v-149h318v-95h-435z" />
    <glyph glyph-name="ebreve.aalt" horiz-adv-x="579" 
d="M456 792q0 -18 -8 -44t-26.5 -50.5t-49 -41.5t-76.5 -17q-36 0 -62.5 10.5t-44 26t-28 34.5t-16.5 36t-7.5 29.5t-1.5 16.5h82q0 -2 3 -13.5t11 -25t23.5 -24.5t40.5 -11q22 0 37 9t24 21.5t13 25t4 18.5h82zM78 0v566h435v-95h-318v-142h279v-85h-279v-149h318v-95h-435
z" />
    <glyph glyph-name="edotaccent.aalt" horiz-adv-x="579" 
d="M371 703q0 -28 -15.5 -46t-52.5 -18t-53 18t-16 46q0 27 16 45t53 18t52.5 -18t15.5 -45zM78 0v566h435v-95h-318v-142h279v-85h-279v-149h318v-95h-435z" />
    <glyph glyph-name="eogonek.aalt" horiz-adv-x="579" 
d="M513 0q-10 -2 -27 -10t-34 -21t-29.5 -29t-12.5 -35q0 -14 10.5 -26.5t39.5 -12.5q18 0 36.5 5t25.5 7l3 -74q-14 -5 -40 -12t-58 -7q-59 0 -89.5 25t-30.5 62q0 24 10.5 44t26 36t32.5 28t30 20h-328v566h435v-95h-318v-142h279v-85h-279v-149h318v-95v0z" />
    <glyph glyph-name="gcircumflex.aalt" horiz-adv-x="610" 
d="M386 796l122 -159h-98l-74 95l-75 -95h-96l121 159h100zM169 282q0 -56 15.5 -94t42.5 -60.5t63 -32t77 -9.5q19 0 36.5 1.5t32.5 3.5v191h103v-263q-24 -8 -53 -14q-25 -5 -58.5 -9t-71.5 -4q-77 0 -134.5 20t-95.5 57.5t-56.5 90.5t-18.5 119q0 138 80 216.5t234 78.5
q35 0 64.5 -3.5t51.5 -8.5q26 -5 46 -12l-16 -91q-17 6 -38 10q-18 4 -42.5 7t-53.5 3q-44 0 -81.5 -9.5t-66 -32t-44.5 -60.5t-16 -95z" />
    <glyph glyph-name="gbreve.aalt" horiz-adv-x="610" 
d="M169 282q0 -56 15.5 -94t42.5 -60.5t63 -32t77 -9.5q19 0 36.5 1.5t32.5 3.5v191h103v-263q-24 -8 -53 -14q-25 -5 -58.5 -9t-71.5 -4q-77 0 -134.5 20t-95.5 57.5t-56.5 90.5t-18.5 119q0 138 80 216.5t234 78.5q35 0 64.5 -3.5t51.5 -8.5q26 -5 46 -12l-16 -91
q-17 6 -38 10q-18 4 -42.5 7t-53.5 3q-44 0 -81.5 -9.5t-66 -32t-44.5 -60.5t-16 -95zM496 792q0 -18 -8 -44t-26.5 -50.5t-49 -41.5t-76.5 -17q-37 0 -63 10.5t-44 26t-28.5 34.5t-16.5 36t-7.5 29.5t-1.5 16.5h82q0 -2 3 -13.5t11.5 -25t24 -24.5t40.5 -11q22 0 37 9
t24 21.5t13 25t4 18.5h82z" />
    <glyph glyph-name="gdotaccent.aalt" horiz-adv-x="610" 
d="M169 282q0 -56 15.5 -94t42.5 -60.5t63 -32t77 -9.5q19 0 36.5 1.5t32.5 3.5v191h103v-263q-24 -8 -53 -14q-25 -5 -58.5 -9t-71.5 -4q-77 0 -134.5 20t-95.5 57.5t-56.5 90.5t-18.5 119q0 138 80 216.5t234 78.5q35 0 64.5 -3.5t51.5 -8.5q26 -5 46 -12l-16 -91
q-17 6 -38 10q-18 4 -42.5 7t-53.5 3q-44 0 -81.5 -9.5t-66 -32t-44.5 -60.5t-16 -95zM406 703q0 -28 -15.5 -46t-51.5 -18q-37 0 -52.5 18t-15.5 46q0 27 15.5 45t52.5 18q36 0 51.5 -18t15.5 -45z" />
    <glyph glyph-name="gcommaaccent.aalt" horiz-adv-x="610" 
d="M296 -286q6 5 15 16.5t17.5 25.5t15 29.5t7.5 28.5q-29 1 -39.5 18t-10.5 40q0 26 14.5 43t50.5 17q28 0 46 -19t18 -59q0 -32 -10 -60t-24 -50.5t-28.5 -38.5t-22.5 -23zM169 282q0 -56 15.5 -94t42.5 -60.5t63 -32t77 -9.5q19 0 36.5 1.5t32.5 3.5v191h103v-263
q-24 -8 -53 -14q-25 -5 -58.5 -9t-71.5 -4q-77 0 -134.5 20t-95.5 57.5t-56.5 90.5t-18.5 119q0 138 80 216.5t234 78.5q35 0 64.5 -3.5t51.5 -8.5q26 -5 46 -12l-16 -91q-17 6 -38 10q-18 4 -42.5 7t-53.5 3q-44 0 -81.5 -9.5t-66 -32t-44.5 -60.5t-16 -95z" />
    <glyph glyph-name="hcircumflex.aalt" horiz-adv-x="670" 
d="M380 796l122 -159h-98l-74 95l-75 -95h-97l122 159h100zM475 0v233h-280v-233h-117v566h117v-237h280v237h117v-566h-117z" />
    <glyph glyph-name="hbar.aalt" horiz-adv-x="670" 
d="M475 0v233h-280v-233h-117v431h-45v57h45v78h117v-78h280v78h117v-78h45v-57h-45v-431h-117zM475 329v102h-280v-102h280z" />
    <glyph glyph-name="igrave.aalt" horiz-adv-x="273" 
d="M86 637l-121 159h128l92 -159h-99zM78 0v566h117v-566h-117z" />
    <glyph glyph-name="iacute.aalt" horiz-adv-x="273" 
d="M81 637l92 159h128l-121 -159h-99zM78 0v566h117v-566h-117z" />
    <glyph glyph-name="ibreve.aalt" horiz-adv-x="273" 
d="M297 792q0 -18 -8 -44t-26.5 -50.5t-49 -41.5t-76.5 -17q-37 0 -63 10.5t-44 26t-28.5 34.5t-16.5 36t-7.5 29.5t-1.5 16.5h83q0 -2 3 -13.5t11 -25t23.5 -24.5t40.5 -11q21 0 36 9t24 21.5t13 25t4 18.5h83zM78 0v566h117v-566h-117z" />
    <glyph glyph-name="icircumflex.aalt" horiz-adv-x="273" 
d="M186 796l122 -159h-97l-74 95l-75 -95h-97l121 159h100zM78 0v566h117v-566h-117z" />
    <glyph glyph-name="itilde.aalt" horiz-adv-x="273" 
d="M-37 637l-2 10t-1.5 11.5t-0.5 14.5q0 21 6 41t18 35.5t31 24.5t45 9q25 0 44.5 -9.5t35.5 -21.5t30 -21.5t29 -9.5q32 0 32 34q0 5 -1 9.5t-2 8.5t-2 9h84l2 -12q1 -5 2 -12t1 -13q0 -21 -6 -41t-18.5 -35t-32 -24t-45.5 -9t-45 10t-34.5 21.5t-29 21.5t-29.5 10
q-15 0 -23 -10t-8 -26q0 -8 2 -18l2 -8h-84zM78 0v566h117v-566h-117z" />
    <glyph glyph-name="idieresis.aalt" horiz-adv-x="273" 
d="M93 699q0 -26 -14 -44t-49 -18q-33 0 -47.5 17.5t-14.5 44.5q0 26 14 43.5t48 17.5q35 0 49 -17.5t14 -43.5zM305 699q0 -26 -15 -44t-48 -18q-35 0 -49 17.5t-14 44.5q0 26 14 43.5t49 17.5q33 0 48 -17.5t15 -43.5zM78 0v566h117v-566h-117z" />
    <glyph glyph-name="imacron.aalt" horiz-adv-x="273" 
d="M-18 639v78h309v-78h-309zM78 0v566h117v-566h-117z" />
    <glyph glyph-name="glyph522" horiz-adv-x="273" 
d="M204 703q0 -28 -15.5 -46t-51.5 -18q-38 0 -53.5 18t-15.5 46q0 27 15.5 45t53.5 18q36 0 51.5 -18t15.5 -45zM78 0v566h117v-566h-117z" />
    <glyph glyph-name="iogonek.aalt" horiz-adv-x="273" 
d="M195 0q-10 -2 -27.5 -10t-34.5 -21t-29.5 -29t-12.5 -35q0 -14 10.5 -26.5t39.5 -12.5q19 0 37 5t26 7l3 -74q-14 -5 -40 -12t-58 -7q-59 0 -90 25t-31 62q0 24 10.5 44t26 36t32.5 28t30 20h-9v566h117v-566v0z" />
    <glyph glyph-name="jcircumflex.aalt" horiz-adv-x="408" 
d="M320 796l122 -159h-97l-75 95l-74 -95h-98l122 159h100zM218 566h116v-390q0 -41 -10.5 -75t-33 -58t-57.5 -37.5t-83 -13.5q-28 0 -49 3.5t-35 8.5q-17 5 -29 12l19 85q8 -4 19 -8q9 -3 22.5 -5.5t30.5 -2.5q45 0 67.5 21t22.5 69v391z" />
    <glyph glyph-name="kcommaaccent.aalt" 
d="M246 -286q6 5 15 16.5t17.5 25.5t15 29.5t7.5 28.5q-29 1 -39.5 18t-10.5 40q0 26 14.5 43t49.5 17q29 0 47 -19t18 -59q0 -32 -10 -60t-24 -50.5t-28.5 -38.5t-22.5 -23zM428 0l-191 230h-42v-230h-117v566h117v-255q20 2 32 5q6 2 11 3q6 6 17.5 20t26.5 32.5t32.5 40
t34.5 43.5q40 51 87 111h130q-5 -8 -20.5 -28t-37 -47t-47 -58.5t-49 -60.5t-44 -53.5t-31.5 -38.5l233 -280h-142z" />
    <glyph glyph-name="lacute.aalt" horiz-adv-x="514" 
d="M79 637l93 159h127l-120 -159h-100zM78 0v566h117v-470h269v-96h-386z" />
    <glyph glyph-name="lcaron.aalt" horiz-adv-x="514" 
d="M84 637l-122 159h97l75 -95l74 95h97l-121 -159h-100zM78 0v566h117v-470h269v-96h-386z" />
    <glyph glyph-name="lcommaaccent.aalt" horiz-adv-x="514" 
d="M214 -286q6 5 15 16.5t17.5 25.5t15 29.5t7.5 28.5q-29 1 -39.5 18t-10.5 40q0 26 15 43t50 17q28 0 46 -19t18 -59q0 -32 -10 -60t-24 -50.5t-28.5 -38.5t-22.5 -23zM78 0v566h117v-470h269v-96h-386z" />
    <glyph glyph-name="lslash.aalt" horiz-adv-x="514" 
d="M78 0v238l-79 -22l-25 94l104 29v227h117v-194l122 34l25 -95l-147 -41v-174h269v-96h-386z" />
    <glyph glyph-name="ldot.aalt" horiz-adv-x="547" 
d="M473 334q0 -29 -16 -48.5t-54 -19.5q-39 0 -55.5 19t-16.5 49q0 29 16.5 48t55.5 19q38 0 54 -19t16 -48zM78 0v566h117v-470h269v-96h-386z" />
    <glyph glyph-name="nacute.aalt" horiz-adv-x="676" 
d="M277 637l93 159h127l-121 -159h-99zM470 0l-286 410l7 -79v-331h-113v566h126l289 -413l-8 90v323h113v-566h-128z" />
    <glyph glyph-name="ncaron.aalt" horiz-adv-x="676" 
d="M287 637l-122 159h97l74 -95l75 95h97l-121 -159h-100zM470 0l-286 410l7 -79v-331h-113v566h126l289 -413l-8 90v323h113v-566h-128z" />
    <glyph glyph-name="ntilde.aalt" horiz-adv-x="676" 
d="M162 637l-2 10t-1.5 11.5t-0.5 14.5q0 21 6 41t18.5 35.5t31.5 24.5t45 9q25 0 44.5 -9.5t35 -21.5t29.5 -21.5t29 -9.5q32 0 32 34q0 5 -1 9.5t-2 8.5t-2 9h85l2 -12q1 -5 2 -12t1 -13q0 -21 -6 -41t-19 -35t-32 -24t-45 -9q-27 0 -46 10t-34.5 21.5t-29 21.5t-29.5 10
q-15 0 -23 -10t-8 -26q0 -8 2 -18l2 -8h-84zM470 0l-286 410l7 -79v-331h-113v566h126l289 -413l-8 90v323h113v-566h-128z" />
    <glyph glyph-name="ncommaaccent.aalt" horiz-adv-x="676" 
d="M267 -286q6 5 15 16.5t17 25.5t14.5 29.5t7.5 28.5q-29 1 -39.5 18t-10.5 40q0 26 15 43t50 17q29 0 46.5 -19t17.5 -59q0 -32 -10 -60t-24 -50.5t-28.5 -38.5t-22.5 -23zM470 0l-286 410l7 -79v-331h-113v566h126l289 -413l-8 90v323h113v-566h-128z" />
    <glyph glyph-name="ograve.aalt" horiz-adv-x="671" 
d="M284 637l-122 159h128l92 -159h-98zM333 -8q-136 0 -209 76t-73 213q0 140 74.5 216.5t211.5 76.5q136 0 209.5 -76.5t73.5 -213.5t-74.5 -214.5t-212.5 -77.5zM336 86q85 0 125.5 51t40.5 146t-40 145.5t-125 50.5t-126.5 -51t-41.5 -145q0 -95 41.5 -146t125.5 -51z
" />
    <glyph glyph-name="oacute.aalt" horiz-adv-x="671" 
d="M270 637l93 159h128l-121 -159h-100zM333 -8q-136 0 -209 76t-73 213q0 140 74.5 216.5t211.5 76.5q136 0 209.5 -76.5t73.5 -213.5t-74.5 -214.5t-212.5 -77.5zM336 86q85 0 125.5 51t40.5 146t-40 145.5t-125 50.5t-126.5 -51t-41.5 -145q0 -95 41.5 -146t125.5 -51z
" />
    <glyph glyph-name="ocircumflex.aalt" horiz-adv-x="671" 
d="M379 796l121 -159h-97l-75 95l-74 -95h-97l122 159h100zM333 -8q-136 0 -209 76t-73 213q0 140 74.5 216.5t211.5 76.5q136 0 209.5 -76.5t73.5 -213.5t-74.5 -214.5t-212.5 -77.5zM336 86q85 0 125.5 51t40.5 146t-40 145.5t-125 50.5t-126.5 -51t-41.5 -145
q0 -95 41.5 -146t125.5 -51z" />
    <glyph glyph-name="otilde.aalt" horiz-adv-x="671" 
d="M150 637q-2 5 -3 10t-1.5 11.5t-0.5 14.5q0 21 6 41t18.5 35.5t31.5 24.5t45 9q25 0 44.5 -9.5t35.5 -21.5t30 -21.5t29 -9.5q32 0 32 34q0 5 -1 9.5t-2 8.5t-2 9h84l2 -12q1 -5 2 -12t1 -13q0 -21 -6 -41t-18.5 -35t-32 -24t-45.5 -9t-45 10t-34.5 21.5t-29 21.5
t-29.5 10q-15 0 -23 -10t-8 -26q0 -8 2 -18l2 -8h-84zM333 -8q-136 0 -209 76t-73 213q0 140 74.5 216.5t211.5 76.5q136 0 209.5 -76.5t73.5 -213.5t-74.5 -214.5t-212.5 -77.5zM336 86q85 0 125.5 51t40.5 146t-40 145.5t-125 50.5t-126.5 -51t-41.5 -145q0 -95 41.5 -146
t125.5 -51z" />
    <glyph glyph-name="odieresis.aalt" horiz-adv-x="671" 
d="M278 699q0 -26 -14.5 -43.5t-49.5 -17.5q-33 0 -47.5 17t-14.5 44q0 26 14.5 43.5t47.5 17.5q35 0 49.5 -17.5t14.5 -43.5zM489 699q0 -26 -14.5 -43.5t-47.5 -17.5q-35 0 -49 17t-14 44q0 26 14 43.5t49 17.5q33 0 47.5 -17.5t14.5 -43.5zM333 -8q-136 0 -209 76
t-73 213q0 140 74.5 216.5t211.5 76.5q136 0 209.5 -76.5t73.5 -213.5t-74.5 -214.5t-212.5 -77.5zM336 86q85 0 125.5 51t40.5 146t-40 145.5t-125 50.5t-126.5 -51t-41.5 -145q0 -95 41.5 -146t125.5 -51z" />
    <glyph glyph-name="omacron.aalt" horiz-adv-x="671" 
d="M173 639v78h309v-78h-309zM333 -8q-136 0 -209 76t-73 213q0 140 74.5 216.5t211.5 76.5q136 0 209.5 -76.5t73.5 -213.5t-74.5 -214.5t-212.5 -77.5zM336 86q85 0 125.5 51t40.5 146t-40 145.5t-125 50.5t-126.5 -51t-41.5 -145q0 -95 41.5 -146t125.5 -51z" />
    <glyph glyph-name="obreve.aalt" horiz-adv-x="671" 
d="M489 792q0 -18 -8 -44t-26.5 -50.5t-49 -41.5t-76.5 -17q-55 0 -86.5 22t-48 49.5t-21 52t-4.5 29.5h82q0 -2 3 -13.5t11 -25t23.5 -24.5t40.5 -11q22 0 37 9.5t24 21.5t13 24.5t4 18.5h82zM333 -8q-136 0 -209 76t-73 213q0 140 74.5 216.5t211.5 76.5
q136 0 209.5 -76.5t73.5 -213.5t-74.5 -214.5t-212.5 -77.5zM336 86q85 0 125.5 51t40.5 146t-40 145.5t-125 50.5t-126.5 -51t-41.5 -145q0 -95 41.5 -146t125.5 -51z" />
    <glyph glyph-name="ohungarumlaut.aalt" horiz-adv-x="671" 
d="M192 637l71 159h103l-80 -159h-94zM358 637l70 159h108l-93 -159h-85zM333 -8q-136 0 -209 76t-73 213q0 140 74.5 216.5t211.5 76.5q136 0 209.5 -76.5t73.5 -213.5t-74.5 -214.5t-212.5 -77.5zM336 86q85 0 125.5 51t40.5 146t-40 145.5t-125 50.5t-126.5 -51
t-41.5 -145q0 -95 41.5 -146t125.5 -51z" />
    <glyph glyph-name="oslash.aalt" horiz-adv-x="671" 
d="M333 -8q-16 0 -30.5 1t-28.5 3l-31 -80h-93l40 105q-68 32 -103.5 98.5t-35.5 161.5q0 140 74.5 216.5t211.5 76.5q17 0 32.5 -1.5t30.5 -3.5l28 72h94l-38 -99q66 -33 101 -98.5t35 -159.5q0 -137 -74.5 -214.5t-212.5 -77.5zM169 283q0 -115 59 -163l137 357
q-7 1 -13.5 1.5t-14.5 0.5q-85 0 -126.5 -51t-41.5 -145zM336 86q85 0 125.5 51t40.5 146q0 111 -56 161l-137 -357q6 -1 12.5 -1h14.5z" />
    <glyph glyph-name="oe.aalt" horiz-adv-x="998" 
d="M617 471v-142h276v-85h-276v-149h316v-95h-409v54q-35 -30 -82.5 -46t-108.5 -16q-67 0 -119.5 19.5t-88.5 57t-55 91t-19 121.5q0 140 75 216.5t211 76.5q60 0 106 -16t81 -45v53h409v-95h-316zM337 479q-85 0 -126.5 -51t-41.5 -145q0 -95 41.5 -146t125.5 -51
q85 0 125.5 51t40.5 146t-40 145.5t-125 50.5z" />
    <glyph glyph-name="racute.aalt" horiz-adv-x="625" 
d="M218 637l92 159h127l-121 -159h-98zM78 0v566h260q67 0 110.5 -15t69.5 -40.5t36.5 -59.5t10.5 -73q0 -28 -6 -54t-20 -48.5t-37 -40t-57 -27.5l125 -208h-128l-115 195h-132v-195h-117zM325 282q37 0 60.5 6.5t37.5 19t19.5 30t5.5 40.5q0 22 -5.5 40t-19.5 30.5
t-37.5 19t-60.5 6.5h-130v-192h130z" />
    <glyph glyph-name="rcaron.aalt" horiz-adv-x="625" 
d="M243 637l-122 159h97l74 -95l75 95h98l-122 -159h-100zM78 0v566h260q67 0 110.5 -15t69.5 -40.5t36.5 -59.5t10.5 -73q0 -28 -6 -54t-20 -48.5t-37 -40t-57 -27.5l125 -208h-128l-115 195h-132v-195h-117zM325 282q37 0 60.5 6.5t37.5 19t19.5 30t5.5 40.5q0 22 -5.5 40
t-19.5 30.5t-37.5 19t-60.5 6.5h-130v-192h130z" />
    <glyph glyph-name="rcommaaccent.aalt" horiz-adv-x="625" 
d="M242 -286q6 5 15 16.5t17.5 25.5t15 29.5t7.5 28.5q-29 1 -39.5 18t-10.5 40q0 26 15 43t50 17q29 0 46.5 -19t17.5 -59q0 -32 -10 -60t-24 -50.5t-28.5 -38.5t-22.5 -23zM78 0v566h260q67 0 110.5 -15t69.5 -40.5t36.5 -59.5t10.5 -73q0 -28 -6 -54t-20 -48.5t-37 -40
t-57 -27.5l125 -208h-128l-115 195h-132v-195h-117zM325 282q37 0 60.5 6.5t37.5 19t19.5 30t5.5 40.5q0 22 -5.5 40t-19.5 30.5t-37.5 19t-60.5 6.5h-130v-192h130z" />
    <glyph glyph-name="sacute.aalt" horiz-adv-x="550" 
d="M215 637l93 159h127l-121 -159h-99zM83 122q21 -11 47 -19q22 -7 52 -12.5t66 -5.5q68 0 97.5 17t29.5 50q0 20 -10 33.5t-26.5 22.5t-38 15t-45.5 12q-34 9 -69 20.5t-64 31.5t-47.5 50.5t-18.5 76.5q0 84 63 122t174 38q42 0 75 -5.5t57 -12.5q27 -8 49 -18l-27 -92
q-19 9 -42 17q-20 6 -47.5 11.5t-62.5 5.5q-58 0 -90.5 -13.5t-32.5 -48.5q0 -20 10 -32t28.5 -20.5t45 -15.5t59.5 -16q37 -10 69.5 -23t57 -32.5t38.5 -48.5t14 -72q0 -90 -63.5 -128t-181.5 -38q-44 0 -79 5.5t-59 12.5q-29 8 -50 18z" />
    <glyph glyph-name="scircumflex.aalt" horiz-adv-x="550" 
d="M330 796l122 -159h-98l-74 95l-74 -95h-97l122 159h99zM83 122q21 -11 47 -19q22 -7 52 -12.5t66 -5.5q68 0 97.5 17t29.5 50q0 20 -10 33.5t-26.5 22.5t-38 15t-45.5 12q-34 9 -69 20.5t-64 31.5t-47.5 50.5t-18.5 76.5q0 84 63 122t174 38q42 0 75 -5.5t57 -12.5
q27 -8 49 -18l-27 -92q-19 9 -42 17q-20 6 -47.5 11.5t-62.5 5.5q-58 0 -90.5 -13.5t-32.5 -48.5q0 -20 10 -32t28.5 -20.5t45 -15.5t59.5 -16q37 -10 69.5 -23t57 -32.5t38.5 -48.5t14 -72q0 -90 -63.5 -128t-181.5 -38q-44 0 -79 5.5t-59 12.5q-29 8 -50 18z" />
    <glyph glyph-name="scaron.aalt" horiz-adv-x="550" 
d="M227 637l-121 159h96l75 -95l74 95h98l-122 -159h-100zM83 122q21 -11 47 -19q22 -7 52 -12.5t66 -5.5q68 0 97.5 17t29.5 50q0 20 -10 33.5t-26.5 22.5t-38 15t-45.5 12q-34 9 -69 20.5t-64 31.5t-47.5 50.5t-18.5 76.5q0 84 63 122t174 38q42 0 75 -5.5t57 -12.5
q27 -8 49 -18l-27 -92q-19 9 -42 17q-20 6 -47.5 11.5t-62.5 5.5q-58 0 -90.5 -13.5t-32.5 -48.5q0 -20 10 -32t28.5 -20.5t45 -15.5t59.5 -16q37 -10 69.5 -23t57 -32.5t38.5 -48.5t14 -72q0 -90 -63.5 -128t-181.5 -38q-44 0 -79 5.5t-59 12.5q-29 8 -50 18z" />
    <glyph glyph-name="scedilla.aalt" horiz-adv-x="550" 
d="M83 122q21 -11 47 -19q22 -7 52 -12.5t66 -5.5q68 0 97.5 17t29.5 50q0 20 -10 33.5t-26.5 22.5t-38 15t-45.5 12q-34 9 -69 20.5t-64 31.5t-47.5 50.5t-18.5 76.5q0 84 63 122t174 38q42 0 75 -5.5t57 -12.5q27 -8 49 -18l-27 -92q-19 9 -42 17q-20 6 -47.5 11.5
t-62.5 5.5q-58 0 -90.5 -13.5t-32.5 -48.5q0 -20 10 -32t28.5 -20.5t45 -15.5t59.5 -16q37 -10 69.5 -23t57 -32.5t38.5 -48.5t14 -72q0 -79 -49 -117.5t-141 -46.5l-12 -47q2 0 8 0.5t8 0.5q20 0 37.5 -4t31 -14t21.5 -25.5t8 -38.5q0 -44 -31.5 -67.5t-94.5 -23.5
q-31 0 -51 4.5t-27 6.5l7 58q6 -2 23.5 -6t40.5 -4q22 0 41 7t19 26t-17.5 25.5t-40.5 6.5q-20 0 -38.5 -2.5t-23.5 -4.5l26 100q-42 1 -74.5 6.5t-55.5 12.5q-27 8 -48 17z" />
    <glyph glyph-name="scommaaccent.aalt" horiz-adv-x="550" 
d="M229 -286q6 5 15 16.5t17.5 25.5t15 29.5t7.5 28.5q-29 1 -40 18t-11 40q0 26 15 43t50 17q29 0 47 -19t18 -59q0 -32 -10 -60t-24 -50.5t-28.5 -38.5t-23.5 -23zM83 122q21 -11 47 -19q22 -7 52 -12.5t66 -5.5q68 0 97.5 17t29.5 50q0 20 -10 33.5t-26.5 22.5t-38 15
t-45.5 12q-34 9 -69 20.5t-64 31.5t-47.5 50.5t-18.5 76.5q0 84 63 122t174 38q42 0 75 -5.5t57 -12.5q27 -8 49 -18l-27 -92q-19 9 -42 17q-20 6 -47.5 11.5t-62.5 5.5q-58 0 -90.5 -13.5t-32.5 -48.5q0 -20 10 -32t28.5 -20.5t45 -15.5t59.5 -16q37 -10 69.5 -23t57 -32.5
t38.5 -48.5t14 -72q0 -90 -63.5 -128t-181.5 -38q-44 0 -79 5.5t-59 12.5q-29 8 -50 18z" />
    <glyph glyph-name="tcaron.aalt" horiz-adv-x="545" 
d="M223 637l-122 159h98l74 -95l75 95h97l-122 -159h-100zM214 0v470h-189v96h495v-96h-189v-470h-117z" />
    <glyph glyph-name="uni021B.aalt" horiz-adv-x="545" 
d="M205 -286q6 5 15 16.5t17 25.5t14.5 29.5t7.5 28.5q-28 1 -38.5 18t-10.5 40q0 26 14.5 43t49.5 17q28 0 46 -19t18 -59q0 -32 -10 -60t-24 -50.5t-28 -38.5t-23 -23zM214 0v470h-189v96h495v-96h-189v-470h-117z" />
    <glyph glyph-name="tcommaaccent.aalt" horiz-adv-x="545" 
d="M304 0l-14 -53q3 0 9 0.5t8 0.5q20 0 37.5 -4t31 -14t21.5 -25.5t8 -38.5q0 -44 -32 -67.5t-94 -23.5q-31 0 -50.5 4.5t-27.5 6.5l7 58q6 -2 23.5 -6t40.5 -4t41.5 7t18.5 26t-17 25.5t-40 6.5q-20 0 -38.5 -2.5t-24.5 -4.5l28 108h-26v470h-189v96h495v-96h-189v-470
h-27z" />
    <glyph glyph-name="tbar.aalt" horiz-adv-x="545" 
d="M214 0v266h-114v67h114v137h-189v96h495v-96h-189v-137h117v-67h-117v-266h-117z" />
    <glyph glyph-name="thorn.aalt" horiz-adv-x="611" 
d="M195 566v-78h139q67 0 111 -16t69.5 -43t35.5 -62.5t10 -74.5q0 -38 -10 -73.5t-35.5 -63t-69 -44.5t-110.5 -17h-140v-94h-117v566h117zM195 186h126q37 0 60.5 8t37 22.5t19 33.5t5.5 42q0 22 -5.5 41t-19 33t-37 21.5t-60.5 7.5h-126v-209z" />
    <glyph glyph-name="ugrave.aalt" horiz-adv-x="663" 
d="M280 637l-122 159h128l92 -159h-98zM473 566h117v-331q0 -118 -62 -180.5t-196 -62.5q-136 0 -197 63t-61 180v331h117v-324q0 -36 6.5 -64.5t22.5 -49t43 -31.5t69 -11q41 0 68 11t43.5 31.5t23 49t6.5 64.5v324z" />
    <glyph glyph-name="uacute.aalt" horiz-adv-x="663" 
d="M265 637l93 159h127l-121 -159h-99zM473 566h117v-331q0 -118 -62 -180.5t-196 -62.5q-136 0 -197 63t-61 180v331h117v-324q0 -36 6.5 -64.5t22.5 -49t43 -31.5t69 -11q41 0 68 11t43.5 31.5t23 49t6.5 64.5v324z" />
    <glyph glyph-name="ucircumflex.aalt" horiz-adv-x="663" 
d="M376 796l122 -159h-98l-74 95l-75 -95h-97l122 159h100zM473 566h117v-331q0 -118 -62 -180.5t-196 -62.5q-136 0 -197 63t-61 180v331h117v-324q0 -36 6.5 -64.5t22.5 -49t43 -31.5t69 -11q41 0 68 11t43.5 31.5t23 49t6.5 64.5v324z" />
    <glyph glyph-name="utilde.aalt" horiz-adv-x="663" 
d="M154 637q-2 5 -3 10t-1.5 11.5t-0.5 14.5q0 21 6 41t18.5 35.5t31.5 24.5t45 9q25 0 44.5 -9.5t35.5 -21.5t30 -21.5t29 -9.5q32 0 32 34q0 5 -1 9.5t-2 8.5t-2 9h85l2 -12q1 -5 1.5 -12t0.5 -13q0 -21 -6 -41t-19 -35t-32 -24t-44 -9q-27 0 -46 10t-34.5 21.5t-29 21.5
t-29.5 10q-15 0 -23 -10t-8 -26q0 -13 1 -18l2 -8h-83zM473 566h117v-331q0 -118 -62 -180.5t-196 -62.5q-136 0 -197 63t-61 180v331h117v-324q0 -36 6.5 -64.5t22.5 -49t43 -31.5t69 -11q41 0 68 11t43.5 31.5t23 49t6.5 64.5v324z" />
    <glyph glyph-name="udieresis.aalt" horiz-adv-x="663" 
d="M284 699q0 -26 -14 -43.5t-48 -17.5t-48.5 17t-14.5 44q0 26 14.5 43.5t48.5 17.5t48 -17.5t14 -43.5zM497 699q0 -26 -15 -43.5t-49 -17.5t-48 17t-14 44q0 26 14 43.5t48 17.5t49 -17.5t15 -43.5zM473 566h117v-331q0 -118 -62 -180.5t-196 -62.5q-136 0 -197 63
t-61 180v331h117v-324q0 -36 6.5 -64.5t22.5 -49t43 -31.5t69 -11q41 0 68 11t43.5 31.5t23 49t6.5 64.5v324z" />
    <glyph glyph-name="umacron.aalt" horiz-adv-x="663" 
d="M171 639v78h310v-78h-310zM473 566h117v-331q0 -118 -62 -180.5t-196 -62.5q-136 0 -197 63t-61 180v331h117v-324q0 -36 6.5 -64.5t22.5 -49t43 -31.5t69 -11q41 0 68 11t43.5 31.5t23 49t6.5 64.5v324z" />
    <glyph glyph-name="ubreve.aalt" horiz-adv-x="663" 
d="M488 792q0 -18 -7.5 -44t-26 -50.5t-49.5 -41.5t-77 -17q-37 0 -62.5 10.5t-43.5 26t-28.5 34.5t-16 36t-7 29.5t-1.5 16.5h81q0 -2 3 -13.5t11.5 -25t23.5 -24.5t40 -11q22 0 37 9.5t24.5 21.5t13.5 24.5t4 18.5h81zM473 566h117v-331q0 -118 -62 -180.5t-196 -62.5
q-136 0 -197 63t-61 180v331h117v-324q0 -36 6.5 -64.5t22.5 -49t43 -31.5t69 -11q41 0 68 11t43.5 31.5t23 49t6.5 64.5v324z" />
    <glyph glyph-name="uring.aalt" horiz-adv-x="663" 
d="M326 638q-57 0 -85.5 29.5t-28.5 80.5q0 52 31.5 82t86.5 30q57 0 86 -30t29 -81t-29 -81t-90 -30zM329 701q45 0 45 49q0 47 -44 47q-47 0 -47 -48t46 -48zM473 566h117v-331q0 -118 -62 -180.5t-196 -62.5q-136 0 -197 63t-61 180v331h117v-324q0 -36 6.5 -64.5
t22.5 -49t43 -31.5t69 -11q41 0 68 11t43.5 31.5t23 49t6.5 64.5v324z" />
    <glyph glyph-name="uhungarumlaut.aalt" horiz-adv-x="663" 
d="M192 637l70 159h104l-80 -159h-94zM358 637l70 159h108l-94 -159h-84zM473 566h117v-331q0 -118 -62 -180.5t-196 -62.5q-136 0 -197 63t-61 180v331h117v-324q0 -36 6.5 -64.5t22.5 -49t43 -31.5t69 -11q41 0 68 11t43.5 31.5t23 49t6.5 64.5v324z" />
    <glyph glyph-name="uogonek.aalt" horiz-adv-x="663" 
d="M473 566h117v-331q0 -98 -42.5 -158t-133.5 -77q-12 -7 -26 -17t-25.5 -22.5t-19 -26.5t-7.5 -29q0 -14 10.5 -26.5t39.5 -12.5q18 0 36.5 5t25.5 7l3 -74q-14 -5 -40 -12t-58 -7q-59 0 -89.5 25t-30.5 62q0 19 7 36.5t18 33t24 28.5t26 23q-123 5 -178.5 67.5
t-55.5 174.5v331h117v-324q0 -36 6.5 -64.5t22.5 -49t43 -31.5t69 -11q41 0 68 11t43.5 31.5t23 49t6.5 64.5v324z" />
    <glyph glyph-name="wacute.aalt" horiz-adv-x="880" 
d="M387 637l92 159h127l-121 -159h-98zM147 566l99 -391l15 -74l17 75l107 390h111l107 -389l17 -76l15 76l98 389h123l-155 -566h-140l-103 359l-18 75l-17 -75l-104 -359h-140l-154 566h122z" />
    <glyph glyph-name="wcircumflex.aalt" horiz-adv-x="880" 
d="M487 796l122 -159h-97l-75 95l-74 -95h-98l122 159h100zM147 566l99 -391l15 -74l17 75l107 390h111l107 -389l17 -76l15 76l98 389h123l-155 -566h-140l-103 359l-18 75l-17 -75l-104 -359h-140l-154 566h122z" />
    <glyph glyph-name="wdieresis.aalt" horiz-adv-x="880" 
d="M393 699q0 -26 -14.5 -43.5t-48.5 -17.5t-48.5 17t-14.5 44q0 26 14.5 43.5t48.5 17.5t48.5 -17.5t14.5 -43.5zM605 699q0 -26 -15 -43.5t-48 -17.5q-35 0 -49 17t-14 44q0 26 14 43.5t49 17.5q33 0 48 -17.5t15 -43.5zM147 566l99 -391l15 -74l17 75l107 390h111
l107 -389l17 -76l15 76l98 389h123l-155 -566h-140l-103 359l-18 75l-17 -75l-104 -359h-140l-154 566h122z" />
    <glyph glyph-name="wgrave.aalt" horiz-adv-x="880" 
d="M389 637l-122 159h128l93 -159h-99zM147 566l99 -391l15 -74l17 75l107 390h111l107 -389l17 -76l15 76l98 389h123l-155 -566h-140l-103 359l-18 75l-17 -75l-104 -359h-140l-154 566h122z" />
    <glyph glyph-name="yacute.aalt" horiz-adv-x="600" 
d="M244 637l92 159h127l-121 -159h-98zM150 566l125 -217l26 -51l26 52l122 216h127l-214 -360v-206h-122v205l-215 361h125z" />
    <glyph glyph-name="ycircumflex.aalt" horiz-adv-x="600" 
d="M346 796l122 -159h-97l-74 95l-75 -95h-97l122 159h99zM150 566l125 -217l26 -51l26 52l122 216h127l-214 -360v-206h-122v205l-215 361h125z" />
    <glyph glyph-name="ydieresis.aalt" horiz-adv-x="600" 
d="M257 699q0 -26 -14 -43.5t-49 -17.5q-34 0 -48.5 17t-14.5 44q0 26 14.5 43.5t48.5 17.5q35 0 49 -17.5t14 -43.5zM468 699q0 -26 -14.5 -43.5t-47.5 -17.5q-35 0 -49 17t-14 44q0 26 14 43.5t49 17.5q33 0 47.5 -17.5t14.5 -43.5zM150 566l125 -217l26 -51l26 52
l122 216h127l-214 -360v-206h-122v205l-215 361h125z" />
    <glyph glyph-name="ygrave.aalt" horiz-adv-x="600" 
d="M250 637l-122 159h128l92 -159h-98zM150 566l125 -217l26 -51l26 52l122 216h127l-214 -360v-206h-122v205l-215 361h125z" />
    <glyph glyph-name="zacute.aalt" horiz-adv-x="581" 
d="M228 637l92 159h128l-122 -159h-98zM68 566h452v-83l-310 -393l46 5h267v-95h-464v83l309 391l-41 -3h-259v95z" />
    <glyph glyph-name="zcaron.aalt" horiz-adv-x="581" 
d="M238 637l-122 159h98l74 -95l75 95h97l-122 -159h-100zM68 566h452v-83l-310 -393l46 5h267v-95h-464v83l309 391l-41 -3h-259v95z" />
    <glyph glyph-name="zdotaccent.aalt" horiz-adv-x="581" 
d="M360 703q0 -28 -15.5 -46t-51.5 -18q-37 0 -52.5 18t-15.5 46q0 27 15.5 45t52.5 18q36 0 51.5 -18t15.5 -45zM68 566h452v-83l-310 -393l46 5h267v-95h-464v83l309 391l-41 -3h-259v95z" />
    <glyph glyph-name="ij.aalt" horiz-adv-x="682" 
d="M195 0h-117v566h117v-566zM609 566v-390q0 -82 -44.5 -133t-140.5 -51q-28 0 -49 3.5t-35 8.5q-17 5 -28 12l18 85q8 -4 19 -8q9 -3 22.5 -5.5t30.5 -2.5q44 0 67 21t23 69v391h117z" />
    <glyph glyph-name="germandbls.aalt" horiz-adv-x="1066" 
d="M83 122q21 -11 47 -19q22 -7 52 -12.5t66 -5.5q68 0 97.5 17t29.5 50q0 20 -10 33.5t-26.5 22.5t-38 15t-45.5 12q-34 9 -69 20.5t-64 31.5t-47.5 50.5t-18.5 76.5q0 84 63 122t174 38q42 0 75 -5.5t57 -12.5q27 -8 49 -18l-27 -92q-19 9 -42 17q-20 6 -47.5 11.5
t-62.5 5.5q-58 0 -90.5 -13.5t-32.5 -48.5q0 -20 10 -32t28.5 -20.5t45 -15.5t59.5 -16q37 -10 69.5 -23t57 -32.5t38.5 -48.5t14 -72q0 -90 -63.5 -128t-181.5 -38q-44 0 -79 5.5t-59 12.5q-29 8 -50 18zM599 122q21 -11 47 -19q22 -7 52 -12.5t66 -5.5q68 0 97.5 17
t29.5 50q0 20 -10 33.5t-26.5 22.5t-38 15t-45.5 12q-34 9 -69 20.5t-64 31.5t-47.5 50.5t-18.5 76.5q0 84 63 122t174 38q42 0 75 -5.5t57 -12.5q27 -8 49 -18l-27 -92q-19 9 -42 17q-20 6 -47.5 11.5t-62.5 5.5q-58 0 -90.5 -13.5t-32.5 -48.5q0 -20 10 -32t28.5 -20.5
t45 -15.5t59.5 -16q37 -10 69.5 -23t57 -32.5t38.5 -48.5t14 -72q0 -90 -63.5 -128t-181.5 -38q-44 0 -79 5.5t-59 12.5q-29 8 -50 18z" />
    <glyph glyph-name="eng.aalt" horiz-adv-x="676" 
d="M364 -122q4 -1 15 -4t28 -3q37 0 59.5 21.5t22.5 76.5v31h-19l-286 410l7 -79v-331h-113v566h126l289 -413l-8 90v323h113v-595q0 -49 -13.5 -84t-36.5 -57.5t-54 -33t-66 -10.5q-16 0 -28.5 1t-21.5 3q-11 2 -19 4z" />
    <glyph glyph-name="grave.aalt" horiz-adv-x="305" 
d="M164 637l-122 159h128l92 -159h-98z" />
    <glyph glyph-name="acute.aalt" horiz-adv-x="305" 
d="M42 637l92 159h128l-121 -159h-99z" />
    <glyph glyph-name="circumflex.aalt" horiz-adv-x="430" 
d="M287 637l-72 92l-72 -92h-103l120 159h109l121 -159h-103z" />
    <glyph glyph-name="caron.aalt" horiz-adv-x="424" 
d="M162 637l-122 159h103l69 -99l69 99h103l-122 -159h-100z" />
    <glyph glyph-name="tilde.aalt" horiz-adv-x="437" 
d="M45 639q-5 14 -5 36q0 21 6 40.5t19 34.5t32 24t45 9q25 0 44 -9.5t35 -21.5t30 -21.5t29 -9.5q16 0 24 9.5t8 25.5q0 10 -5 27h85q2 -9 3 -18.5t1 -18.5q0 -21 -6 -41t-18.5 -35t-31.5 -24t-45 -9q-27 0 -46 9.5t-34.5 21.5t-29 21.5t-29.5 9.5q-15 0 -23 -10t-8 -25
q0 -12 5 -25h-85z" />
    <glyph glyph-name="dieresis.aalt" horiz-adv-x="423" 
d="M168 700q0 -26 -14 -43.5t-49 -17.5q-33 0 -48 17t-15 44q0 26 15 43.5t48 17.5q35 0 49 -17.5t14 -43.5zM380 700q0 -26 -14.5 -43.5t-47.5 -17.5q-35 0 -49 17t-14 44q0 26 14 43.5t49 17.5q33 0 47.5 -17.5t14.5 -43.5z" />
    <glyph glyph-name="macron.aalt" horiz-adv-x="395" 
d="M42 639v87h311v-87h-311z" />
    <glyph glyph-name="breve.aalt" horiz-adv-x="406" 
d="M363 792q0 -18 -8.5 -44t-27.5 -50.5t-49.5 -41.5t-74.5 -17q-36 0 -62.5 10.5t-44 26t-28 34.5t-16.5 36t-7.5 29.5t-1.5 16.5h82q0 -2 3 -13.5t11.5 -25t23.5 -24.5t40 -11q22 0 37 9t24 21.5t13 25t4 18.5h82v0z" />
    <glyph glyph-name="ring.aalt" horiz-adv-x="319" 
d="M157 639q-57 0 -86 29.5t-29 80.5q0 53 32 82.5t88 29.5t85.5 -29.5t29.5 -80.5q0 -52 -29 -82t-91 -30zM160 702q45 0 45 49q0 47 -44 47q-46 0 -46 -48t45 -48z" />
    <glyph glyph-name="hungarumlaut.aalt" horiz-adv-x="440" 
d="M42 639l71 159h109l-80 -159h-100zM214 639l70 159h114l-94 -159h-90z" />
    <glyph glyph-name="dotaccent.aalt" horiz-adv-x="221" 
d="M178 703q0 -28 -15.5 -46t-51.5 -18q-37 0 -53 18t-16 46q0 27 16 45t53 18q36 0 51.5 -18t15.5 -45z" />
    <glyph glyph-name="exclamdown.aalt" horiz-adv-x="282" 
d="M193 408l10 -418h-123l10 418h103zM78 518q0 23 16 39.5t48 16.5t48 -16t16 -40q0 -23 -16 -39t-48 -16t-48 16t-16 39z" />
    <glyph glyph-name="questiondown.aalt" horiz-adv-x="497" 
d="M339 411q2 -6 4 -20.5t2 -31.5q0 -38 -13 -62.5t-32 -41t-42 -27.5t-42 -22t-32 -25t-13 -36q0 -35 28 -49t85 -14q52 0 91.5 8.5t56.5 14.5l19 -84q-20 -7 -64 -18t-119 -11q-65 0 -107.5 10.5t-67.5 29t-35.5 44.5t-10.5 57q0 38 13.5 62.5t33.5 41.5t43.5 29.5
t43.5 26.5t33.5 32.5t13.5 48.5q0 7 -1 13.5t-2 11.5l-2 12h116zM215 518q0 28 17 42t49 14t49 -14t17 -42t-17 -41.5t-49 -13.5t-49 13.5t-17 41.5z" />
    <glyph glyph-name="Euro.aalt" horiz-adv-x="593" 
d="M410 187h-182q18 -59 60 -81t102 -22q27 0 49.5 3t39.5 7q19 4 35 10l14 -89q-17 -7 -40 -12q-20 -5 -47 -8t-62 -3q-121 0 -185 50.5t-83 144.5h-56v66h47v29v16t1 16h-48v64h56q19 93 83.5 144.5t184.5 51.5q35 0 62 -3.5t47 -8.5q23 -5 40 -12l-14 -89q-16 6 -35 10
q-17 4 -39.5 7t-50.5 3q-60 0 -101.5 -22t-59.5 -81h182v-64h-193q-1 -8 -1 -15.5v-15.5v-15.5t1 -14.5h193v-66z" />
    <glyph glyph-name="cent.aalt" horiz-adv-x="472" 
d="M396 392q-12 4 -26 8q-13 3 -30 5.5t-38 2.5q-28 0 -52.5 -5.5t-43 -20t-29 -39t-10.5 -62.5t10.5 -63t29 -39t43 -19.5t52.5 -5.5q20 0 37.5 2t30.5 5q15 4 26 8l13 -82q-12 -3 -27 -7q-13 -3 -30.5 -5.5t-38.5 -4.5v-70h-81v73q-83 11 -132.5 60.5t-49.5 147.5
q0 97 49.5 147t132.5 61v77h81v-74q22 -2 39.5 -4.5t30.5 -5.5q15 -4 26 -7l-13 -83v0z" />
    <glyph glyph-name="sterling.aalt" horiz-adv-x="551" 
d="M488 44q-25 -26 -54.5 -35t-57.5 -9q-21 0 -40.5 4t-38 9.5t-38 9.5t-41.5 4q-32 0 -58 -9.5t-37 -17.5l-52 81q25 17 35 61.5t12 101.5h-61v74h63q-1 12 -2 23q-1 10 -1 20v18q0 94 52 144.5t168 50.5q32 0 55 -3.5t39 -7.5q18 -4 31 -10l-18 -83q-9 3 -22 7
q-11 2 -28 4.5t-40 2.5q-30 0 -53 -4.5t-39 -16t-24 -31.5t-8 -50v-18t1 -21q1 -12 2 -25h156v-74h-160q-4 -88 -38 -138q3 1 17 4t31 3q20 0 35.5 -4t30.5 -8.5t30.5 -8t34.5 -3.5q29 0 49 9t31 18z" />
    <glyph glyph-name="florin.aalt" horiz-adv-x="487" 
d="M438 504q-8 2 -22 4t-31 2q-18 0 -34.5 -3.5t-30.5 -13.5t-23 -28t-12 -46l-12 -120h135v-78h-141l-22 -229q-5 -48 -23.5 -80t-45.5 -50.5t-60 -26t-66 -7.5q-34 0 -57 5q-12 2 -23 5l8 80q7 -2 15 -4q7 -2 16 -3t20 -1q18 0 35.5 3.5t31.5 13t23.5 27t12.5 45.5l21 222
h-114v78h121l12 127q4 52 24 84.5t47.5 51t60.5 25t64 6.5q19 0 34 -2t26 -4q12 -3 22 -5l-12 -78v0z" />
    <glyph glyph-name="yen.aalt" horiz-adv-x="572" 
d="M344 104v-104h-114v104h-148v63h148v53h-148v63h126l-171 283h118l132 -236l128 236h119l-169 -283h125v-63h-146v-53h146v-63h-146z" />
    <glyph glyph-name="perthousand.aalt" horiz-adv-x="1035" 
d="M127 0l394 566h73l-395 -566h-72zM185 297q-66 0 -99 39t-33 98q0 63 34.5 101.5t97.5 38.5q65 0 98.5 -38t33.5 -100q0 -61 -32.5 -100t-99.5 -39zM185 361q59 0 59 75q0 73 -59 73q-58 0 -58 -74t58 -74zM539 -8q-67 0 -100 38.5t-33 97.5q0 63 35 101.5t98 38.5
q64 0 98 -38.5t34 -98.5q0 -62 -33 -100.5t-99 -38.5zM539 56q58 0 58 74q0 73 -58 73t-58 -74q0 -73 58 -73zM850 -8q-66 0 -99.5 38.5t-33.5 97.5q0 63 35 101.5t98 38.5q64 0 98 -38.5t34 -98.5q0 -62 -33 -100.5t-99 -38.5zM850 56q59 0 59 74q0 73 -59 73
q-58 0 -58 -74q0 -73 58 -73z" />
    <glyph glyph-name="cedilla.aalt" horiz-adv-x="284" 
d="M145 12l-18 -65q2 0 7.5 0.5t8.5 0.5q20 0 38 -4t31.5 -14t21.5 -25.5t8 -38.5q0 -44 -32.5 -67.5t-94.5 -23.5q-31 0 -50.5 4.5t-27.5 6.5l7 58q6 -2 23.5 -6t40.5 -4q22 0 40.5 7t18.5 26t-17 25.5t-40 6.5q-20 0 -38.5 -2.5t-23.5 -4.5l32 125z" />
    <glyph glyph-name="ogonek.aalt" horiz-adv-x="306" 
d="M251 0q-46 -20 -76 -47t-30 -52q0 -15 13 -24.5t38 -9.5q28 0 64 13l4 -75q-53 -19 -103 -19q-53 0 -86 23t-33 61q0 24 12 45.5t32 41t46.5 36t55.5 28.5z" />
    <glyph glyph-name="uniFB01.aalt" horiz-adv-x="814" 
d="M195 221v-221h-117v566h429v-96h-312v-161h273v-88h-273zM619 0v566h118v-566h-118z" />
    <glyph glyph-name="uniFB02.aalt" horiz-adv-x="1056" 
d="M195 221v-221h-117v566h429v-96h-312v-161h273v-88h-273zM620 0v566h118v-470h269v-96h-387z" />
    </font>
</defs>
</svg>
