<?xml version="1.0" standalone="no"?>
<!DOCTYPE svg PUBLIC "-//W3C//DTD SVG 1.1//EN" "http://www.w3.org/Graphics/SVG/1.1/DTD/svg11.dtd" >
<svg>
<metadata>
Created by FontForge 20120731 at Sat Jul 15 15:02:05 2023
 By www
Copyright (c) 2013 by Mika Melvas. All rights reserved.
</metadata>
<defs>
<font id="RionaSansW04-MediumItalic" horiz-adv-x="605" >
  <font-face 
    font-family="RionaSansW04-MediumItalic"
    font-weight="500"
    font-style="italic"
    font-stretch="normal"
    units-per-em="1000"
    panose-1="1 0 0 0 0 0 0 0 0 0"
    ascent="800"
    descent="-200"
    x-height="527"
    cap-height="707"
    bbox="-110 -319 1209 973"
    underline-thickness="50"
    underline-position="-75"
    slope="-9"
    unicode-range="U+0020-FB04"
  />
<missing-glyph horiz-adv-x="693" 
d="M633 706v-705h-513v705h513zM160 637v-571l193 286zM593 68v568l-193 -284zM377 386l190 282h-381zM188 39h377l-188 278z" />
    <glyph glyph-name="uniFB00" unicode="ff" horiz-adv-x="786" 
d="M853 635q-7 2 -16 5q-8 2 -19 3.5t-25 1.5q-21 0 -39 -3t-32 -13t-24.5 -28t-14.5 -49l-3 -25h149l-16 -96h-149l-71 -446q-9 -60 -30 -99t-49.5 -61t-62.5 -30.5t-70 -8.5q-20 0 -36 2t-27 5q-13 3 -23 7l22 92q5 -3 13 -5q15 -5 41 -5q41 0 66.5 22t35.5 81l71 446
h-258l-71 -446q-9 -60 -30 -99t-49.5 -61t-62.5 -30.5t-70 -8.5q-20 0 -36 2t-27 5q-13 3 -23 7l22 92q5 -3 13 -5q15 -5 41 -5q41 0 66.5 22t35.5 81l71 446h-68l16 96h67l4 30q9 60 32 96.5t54 56t67 25.5t71 6q23 0 41 -2.5t31 -4.5q15 -4 27 -7l-33 -92q-7 2 -16 5
q-8 2 -19 3.5t-25 1.5q-21 0 -39 -3t-32 -13t-24.5 -28t-14.5 -49l-3 -25h257l4 30q9 60 32 96.5t54 56t67 25.5t71 6q23 0 41 -2.5t31 -4.5q15 -4 27 -7l-33 -92v0z" />
    <glyph glyph-name="uniFB01" unicode="fi" horiz-adv-x="667" 
d="M477 0l83 527h120l-83 -527h-120zM715 685q0 -32 -19 -55.5t-63 -23.5q-33 0 -47 15.5t-14 38.5q0 32 18.5 55t63.5 23q33 0 47 -15t14 -38zM475 635q-7 2 -16 5q-8 2 -19 3.5t-25 1.5q-21 0 -39 -3t-32 -13t-24.5 -28t-14.5 -49l-3 -25h149l-16 -96h-149l-71 -446
q-9 -60 -30 -99t-49.5 -61t-62.5 -30.5t-70 -8.5q-20 0 -36 2t-27 5q-13 3 -23 7l22 92q5 -3 13 -5q15 -5 41 -5q41 0 66.5 22t35.5 81l71 446h-68l16 96h67l4 30q9 60 32 96.5t54 56t67 25.5t71 6q23 0 41 -2.5t31 -4.5q15 -4 27 -7z" />
    <glyph glyph-name="uniFB02" unicode="fl" horiz-adv-x="737" 
d="M715 731l-92 -578q-2 -8 -2 -14.5v-12.5q0 -22 8.5 -32.5t28.5 -10.5q19 0 36 5q9 3 16 6l3 -82q-13 -7 -30 -11q-14 -5 -34 -8t-44 -3q-59 0 -83 31t-24 80q0 11 1 22t3 22l92 586h121zM475 635q-7 2 -16 5q-8 2 -19 3.5t-25 1.5q-21 0 -39 -3t-32 -13t-24.5 -28
t-14.5 -49l-3 -25h149l-16 -96h-149l-71 -446q-9 -60 -30 -99t-49.5 -61t-62.5 -30.5t-70 -8.5q-20 0 -36 2t-27 5q-13 3 -23 7l22 92q5 -3 13 -5q15 -5 41 -5q41 0 66.5 22t35.5 81l71 446h-68l16 96h67l4 30q9 60 32 96.5t54 56t67 25.5t71 6q23 0 41 -2.5t31 -4.5
q15 -4 27 -7z" />
    <glyph glyph-name="uniFB03" unicode="ffi" horiz-adv-x="1045" 
d="M855 0l83 527h120l-83 -527h-120zM1093 685q0 -32 -19 -55.5t-63 -23.5q-33 0 -47 15.5t-14 38.5q0 32 18.5 55t63.5 23q33 0 47 -15t14 -38zM853 635q-7 2 -16 5q-8 2 -19 3.5t-25 1.5q-21 0 -39 -3t-32 -13t-24.5 -28t-14.5 -49l-3 -25h149l-16 -96h-149l-71 -446
q-9 -60 -30 -99t-49.5 -61t-62.5 -30.5t-70 -8.5q-20 0 -36 2t-27 5q-13 3 -23 7l22 92q5 -3 13 -5q15 -5 41 -5q41 0 66.5 22t35.5 81l71 446h-258l-71 -446q-9 -60 -30 -99t-49.5 -61t-62.5 -30.5t-70 -8.5q-20 0 -36 2t-27 5q-13 3 -23 7l22 92q5 -3 13 -5q15 -5 41 -5
q41 0 66.5 22t35.5 81l71 446h-68l16 96h67l4 30q9 60 32 96.5t54 56t67 25.5t71 6q23 0 41 -2.5t31 -4.5q15 -4 27 -7l-33 -92q-7 2 -16 5q-8 2 -19 3.5t-25 1.5q-21 0 -39 -3t-32 -13t-24.5 -28t-14.5 -49l-3 -25h257l4 30q9 60 32 96.5t54 56t67 25.5t71 6q23 0 41 -2.5
t31 -4.5q15 -4 27 -7z" />
    <glyph glyph-name="uniFB04" unicode="ffl" horiz-adv-x="1114" 
d="M1092 731l-92 -578q-1 -8 -1.5 -14t-0.5 -12q0 -44 37 -44q21 0 36 5q8 3 15 6l4 -82q-13 -7 -30 -11q-14 -5 -34 -8t-43 -3q-59 0 -84 31.5t-25 81.5q0 10 1 21t3 21l93 586h121zM853 635q-7 2 -16 5q-8 2 -19 3.5t-25 1.5q-21 0 -39 -3t-32 -13t-24.5 -28t-14.5 -49
l-3 -25h149l-16 -96h-149l-71 -446q-9 -60 -30 -99t-49.5 -61t-62.5 -30.5t-70 -8.5q-20 0 -36 2t-27 5q-13 3 -23 7l22 92q5 -3 13 -5q15 -5 41 -5q41 0 66.5 22t35.5 81l71 446h-258l-71 -446q-9 -60 -30 -99t-49.5 -61t-62.5 -30.5t-70 -8.5q-20 0 -36 2t-27 5
q-13 3 -23 7l22 92q5 -3 13 -5q15 -5 41 -5q41 0 66.5 22t35.5 81l71 446h-68l16 96h67l4 30q9 60 32 96.5t54 56t67 25.5t71 6q23 0 41 -2.5t31 -4.5q15 -4 27 -7l-33 -92q-7 2 -16 5q-8 2 -19 3.5t-25 1.5q-21 0 -39 -3t-32 -13t-24.5 -28t-14.5 -49l-3 -25h257l4 30
q9 60 32 96.5t54 56t67 25.5t71 6q23 0 41 -2.5t31 -4.5q15 -4 27 -7z" />
    <glyph glyph-name=".notdef" horiz-adv-x="693" 
d="M633 706v-705h-513v705h513zM160 637v-571l193 286zM593 68v568l-193 -284zM377 386l190 282h-381zM188 39h377l-188 278z" />
    <glyph glyph-name="glyph1" horiz-adv-x="0" 
 />
    <glyph glyph-name="glyph1" horiz-adv-x="0" 
 />
    <glyph glyph-name="nonmarkingreturn" horiz-adv-x="333" 
 />
    <glyph glyph-name="space" unicode=" " horiz-adv-x="210" 
 />
    <glyph glyph-name="exclam" unicode="!" horiz-adv-x="300" 
d="M125 196l72 535h137l-96 -535h-113zM232 72q0 -33 -19.5 -57.5t-65.5 -24.5q-34 0 -48.5 15.5t-14.5 40.5q0 33 20 58t66 25q33 0 47.5 -16.5t14.5 -40.5z" />
    <glyph glyph-name="quotedbl" unicode="&#x22;" horiz-adv-x="377" 
d="M137 475l26 256h111l-55 -256h-82zM309 475l27 256h110l-53 -256h-84z" />
    <glyph glyph-name="numbersign" unicode="#" horiz-adv-x="758" 
d="M425 0l49 185h-159l-49 -185h-108l50 185h-108l12 84h119l43 164h-102l13 84h112l51 191h109l-52 -191h159l51 191h108l-52 -191h98l-13 -84h-108l-44 -164h93l-13 -84h-102l-50 -185h-107zM541 433h-159l-44 -164h159z" />
    <glyph glyph-name="dollar" unicode="$" horiz-adv-x="577" 
d="M232 -94l15 95q-41 2 -73 9t-55 15q-27 9 -48 20l38 93q22 -12 49 -21q23 -8 55 -14t72 -6q79 0 115 27.5t36 75.5q0 24 -8 40.5t-22.5 28.5t-34 20.5t-42.5 16.5q-37 13 -71.5 28.5t-61.5 37.5t-43 54t-16 79q0 89 57 140t162 59l16 95h90l-15 -95q34 -3 61 -9.5
t47 -12.5q23 -8 41 -16l-34 -93q-19 10 -44 18q-21 7 -52 13t-69 6q-67 0 -104.5 -22.5t-37.5 -71.5q0 -20 7 -33.5t22.5 -25t40.5 -22.5t61 -25q34 -14 65 -28.5t53.5 -36t36 -52.5t13.5 -77q0 -94 -56 -147t-159 -65l-17 -101z" />
    <glyph glyph-name="percent" unicode="%" horiz-adv-x="867" 
d="M273 372q-63 0 -98.5 35t-35.5 104q0 45 13.5 82.5t37.5 65t58 43t75 15.5q68 0 103 -38.5t35 -103.5q0 -45 -13.5 -82.5t-38 -64t-59.5 -41.5t-77 -15zM284 440q38 0 65 33.5t27 99.5q0 76 -59 76q-38 0 -65.5 -34t-27.5 -101q0 -38 15 -55t45 -19zM158 0l587 707h80
l-587 -707h-80zM652 -10q-62 0 -97.5 35t-35.5 104q0 45 13 82.5t37 65t58 43t76 15.5q68 0 103 -38.5t35 -103.5q0 -45 -13.5 -82.5t-38.5 -64.5t-59.5 -41.5t-77.5 -14.5zM664 58q38 0 65 33.5t27 99.5q0 75 -59 75q-38 0 -65 -33.5t-27 -100.5q0 -38 14.5 -55t44.5 -19z
" />
    <glyph glyph-name="ampersand" unicode="&#x26;" horiz-adv-x="736" 
d="M724 325h-35q-15 0 -33 1q0 -8 1 -18q1 -8 1.5 -18.5t0.5 -21.5q0 -52 -13 -102t-48 -89t-95.5 -63t-154.5 -24q-71 0 -119.5 14t-77.5 38.5t-41.5 58t-12.5 72.5q0 54 19.5 92t46 62t55 36.5t46.5 17.5q-14 6 -29 18t-27 31t-20 44.5t-8 58.5q0 42 15 79.5t48.5 66
t88 45.5t133.5 17q42 0 74 -4t55 -9q26 -6 45 -13l-31 -91q-16 6 -37 10q-18 4 -43 7.5t-56 3.5q-93 0 -134 -31.5t-41 -86.5q0 -31 12 -51t34.5 -32t54 -16.5t70.5 -4.5h271zM489 328q-26 0 -54 0.5t-49 0.5q-36 0 -66 -10t-51.5 -28.5t-33.5 -44.5t-12 -57
q0 -103 136 -103q101 0 146 53t45 153q0 11 -0.5 22.5t-0.5 13.5h-60z" />
    <glyph glyph-name="quotesingle" unicode="'" horiz-adv-x="202" 
d="M135 475l27 256h110l-54 -256h-83z" />
    <glyph glyph-name="parenleft" unicode="(" horiz-adv-x="321" 
d="M151 -231q-19 40 -34 94q-13 46 -23.5 111t-10.5 150q0 75 9.5 141.5t25.5 125t36 108t41 90.5q49 95 112 165l86 -43q-54 -66 -95 -155q-18 -38 -34.5 -85t-30 -102t-21.5 -118.5t-8 -134.5q0 -73 7 -129.5t16 -94.5q11 -46 24 -79z" />
    <glyph glyph-name="parenright" unicode=")" horiz-adv-x="321" 
d="M11 -187q53 66 94 155q18 38 35 84.5t30.5 102t21.5 118.5t8 134q0 73 -7.5 129.5t-16.5 95.5q-11 46 -23 79l100 43q19 -39 34 -93q13 -46 23.5 -111.5t10.5 -150.5q0 -75 -9.5 -141.5t-25.5 -124.5t-36 -108t-41 -90q-49 -95 -111 -166z" />
    <glyph glyph-name="asterisk" unicode="*" horiz-adv-x="387" 
d="M323 434l-45 98l-76 -98l-58 47l89 86l-99 25l37 78l91 -42l7 103h82l-26 -103l103 42l13 -78l-107 -25l62 -86z" />
    <glyph glyph-name="plus" unicode="+" horiz-adv-x="608" 
d="M265 64l31 198h-197l16 100h197l30 199h101l-32 -199h197l-16 -100h-196l-32 -198h-99z" />
    <glyph glyph-name="comma" unicode="," horiz-adv-x="245" 
d="M32 -109q7 5 19 17t23.5 27.5t21 32t13.5 30.5q-26 0 -36.5 14.5t-10.5 34.5q0 33 19 56t64 23q26 0 42.5 -16t16.5 -50q0 -37 -15 -70.5t-35.5 -60.5t-41.5 -46.5t-32 -27.5z" />
    <glyph glyph-name="hyphen" unicode="-" horiz-adv-x="391" 
d="M92 232l15 98h280l-15 -98h-280z" />
    <glyph glyph-name="period" unicode="." horiz-adv-x="241" 
d="M202 70q0 -32 -19.5 -56t-63.5 -24q-33 0 -47.5 15.5t-14.5 39.5q0 33 19 56.5t64 23.5q33 0 47.5 -15.5t14.5 -39.5z" />
    <glyph glyph-name="slash" unicode="/" horiz-adv-x="451" 
d="M40 0l368 707h115l-369 -707h-114z" />
    <glyph glyph-name="zero" unicode="0" horiz-adv-x="659" 
d="M431 717q124 0 183 -69t59 -193q0 -49 -7 -102.5t-23 -105t-41.5 -98t-63 -82t-87 -56.5t-112.5 -21q-117 0 -178.5 67.5t-61.5 193.5q0 49 7 102.5t23.5 105.5t42 98.5t62.5 82t85.5 56.5t111.5 21zM424 618q-39 0 -69.5 -18t-53 -47.5t-38 -67.5t-25 -78.5t-13.5 -80
t-4 -71.5q0 -36 6.5 -66t21.5 -52.5t40 -35t61 -12.5q39 0 69.5 18t52.5 48t37.5 69t24.5 79.5t13 80t4 71.5q0 78 -29.5 120.5t-97.5 42.5z" />
    <glyph glyph-name="one" unicode="1" horiz-adv-x="413" 
d="M180 0l94 592l-135 -43l-9 88l209 70h75l-112 -707h-122z" />
    <glyph glyph-name="two" unicode="2" horiz-adv-x="582" 
d="M60 0l5 100q30 19 72 46.5t87.5 61t90.5 71t80.5 77.5t57.5 80t22 79q0 46 -32 74.5t-104 28.5q-34 0 -63.5 -5.5t-52.5 -12.5q-26 -8 -48 -18l-12 90q28 12 62 22q29 8 68 15.5t85 7.5q63 0 105.5 -15.5t68.5 -41t37.5 -58.5t11.5 -69q0 -56 -23.5 -108.5t-60 -99
t-80 -85.5t-84 -69t-72.5 -50t-45 -27l62 6h228l-15 -100h-451z" />
    <glyph glyph-name="three" unicode="3" horiz-adv-x="567" 
d="M79 115q19 -8 43 -13q20 -5 49 -9t64 -4q86 0 138.5 29.5t52.5 94.5q0 54 -38 75.5t-117 21.5q-12 0 -23.5 -0.5t-21.5 -1.5q-11 -1 -21 -1l16 104q7 -1 16 -1q8 -1 16.5 -1h19.5q37 0 72 5t61.5 18t42.5 35.5t16 58.5q0 50 -33 71t-107 21q-33 0 -61 -3.5t-49 -8.5
q-25 -5 -45 -11l-8 92q25 8 57 15q27 5 63.5 10t80.5 5q61 0 104.5 -12t71.5 -33.5t40.5 -51t12.5 -65.5q0 -69 -38 -116t-107 -69q19 -6 37 -18.5t32.5 -31.5t23.5 -45.5t9 -61.5q0 -104 -74.5 -163.5t-231.5 -59.5q-45 0 -79 4t-58 9q-28 6 -49 14z" />
    <glyph glyph-name="four" unicode="4" horiz-adv-x="638" 
d="M68 254l390 453h153l-72 -452h109l-15 -98h-109l-25 -157h-122l25 157h-333zM417 255l43 268l12 58l-284 -326h229z" />
    <glyph glyph-name="five" unicode="5" horiz-adv-x="576" 
d="M86 115q16 -8 39 -13q20 -5 49 -9t68 -4q99 0 149.5 39.5t50.5 107.5q0 30 -12 50.5t-33.5 33t-51 18.5t-65.5 6q-43 0 -86 -5t-69 -10l76 378h398l-17 -100h-283l-35 -171q16 2 36.5 4.5t43.5 2.5q46 0 86.5 -11.5t70.5 -35.5t47.5 -61t17.5 -88q0 -52 -18 -98.5
t-56 -82t-99 -56t-146 -20.5q-45 0 -79.5 4t-57.5 9q-27 5 -47 13z" />
    <glyph glyph-name="six" unicode="6" horiz-adv-x="596" 
d="M575 598q-11 6 -26 10q-13 4 -32 7t-44 3q-51 0 -89.5 -15t-67 -43.5t-47.5 -69t-31 -90.5q7 4 23 12t38 15.5t49.5 13t58.5 5.5q47 0 82 -14.5t58 -40.5t34 -61.5t11 -77.5q0 -54 -18 -101.5t-53 -83t-86 -56.5t-118 -21q-65 0 -108 20t-68.5 55t-36 82.5t-10.5 103.5
q0 52 8.5 106.5t26.5 106.5t47 98t70.5 80.5t96 54.5t124.5 20q32 0 57.5 -3.5t43.5 -8.5q21 -5 37 -12zM220 305q-2 -19 -3.5 -36.5t-1.5 -34.5q0 -32 5.5 -59t18 -46.5t33.5 -30t52 -10.5q27 0 53.5 9t47 28t33.5 48t13 69q0 60 -29 83.5t-74 23.5q-23 0 -45 -4.5
t-41.5 -11t-35.5 -14.5t-26 -14z" />
    <glyph glyph-name="seven" unicode="7" horiz-adv-x="523" 
d="M93 0l310 532l51 75h-323l16 100h447l-8 -92l-360 -615h-133z" />
    <glyph glyph-name="eight" unicode="8" horiz-adv-x="630" 
d="M502 365q14 -5 32.5 -16t35.5 -30.5t28.5 -47.5t11.5 -67q0 -49 -20.5 -88.5t-58.5 -67.5t-92.5 -43t-123.5 -15q-123 0 -180 46t-57 125q0 48 18.5 84t44.5 61t53.5 39.5t45.5 19.5q-12 5 -27.5 16t-29 29t-22.5 43.5t-9 59.5q0 44 17.5 81.5t52 64.5t85.5 42.5
t118 15.5q60 0 102.5 -12.5t69.5 -34.5t39 -50.5t12 -61.5q0 -45 -18.5 -80t-42.5 -59t-48.5 -37.5t-36.5 -16.5zM346 318q-28 -7 -53.5 -19.5t-45.5 -30.5t-32 -41t-12 -50q0 -45 33 -68t93 -23q74 0 116 32t42 85q0 26 -11 44t-30 31t-45 22t-55 18zM401 407q57 23 90 55
t33 78q0 45 -30.5 64.5t-81.5 19.5q-30 0 -55.5 -6.5t-44 -20t-29.5 -33.5t-11 -47q0 -25 9.5 -42.5t27 -29.5t41 -21t51.5 -17z" />
    <glyph glyph-name="nine" unicode="9" horiz-adv-x="596" 
d="M134 109q11 -6 26 -10q13 -4 31.5 -7t44.5 -3q51 0 89.5 15t67 43.5t48 69t31.5 90.5q-8 -5 -23.5 -12.5t-38 -15t-50.5 -13t-59 -5.5q-47 0 -81.5 14.5t-57.5 40.5t-34 61.5t-11 77.5q0 54 18 101.5t53 83t86 56.5t118 21q65 0 108 -20t68.5 -55t36 -82.5t10.5 -103.5
q0 -52 -8.5 -106.5t-26.5 -106.5t-47 -98t-70.5 -80.5t-96.5 -54.5t-124 -20q-32 0 -57.5 3.5t-43.5 8.5q-21 5 -37 12zM489 402q2 19 3.5 36.5t1.5 34.5q0 32 -5.5 59t-18.5 46.5t-34 30t-51 10.5q-27 0 -53 -9t-47 -28t-33.5 -48t-12.5 -69q0 -60 28.5 -83.5t73.5 -23.5
q23 0 45.5 4.5t42 11t35 14.5t25.5 14z" />
    <glyph glyph-name="colon" unicode=":" horiz-adv-x="306" 
d="M235 70q0 -32 -19.5 -56t-63.5 -24q-32 0 -47 15.5t-15 40.5q0 32 19.5 55.5t63.5 23.5q32 0 47 -16t15 -39zM294 446q0 -31 -19 -55t-63 -24q-32 0 -47 15.5t-15 40.5q0 32 19.5 56t63.5 24q32 0 46.5 -16.5t14.5 -40.5z" />
    <glyph glyph-name="semicolon" unicode=";" horiz-adv-x="312" 
d="M300 446q0 -31 -20 -55t-64 -24q-32 0 -46.5 15.5t-14.5 40.5q0 32 19.5 56t63.5 24q32 0 47 -16.5t15 -40.5zM65 -109q7 5 19 17t23.5 27.5t21 32t13.5 30.5q-26 0 -36.5 14.5t-10.5 34.5q0 33 19 56t64 23q26 0 42.5 -16t16.5 -50q0 -37 -15 -70.5t-35.5 -60.5
t-41.5 -46.5t-32 -27.5z" />
    <glyph glyph-name="less" unicode="&#x3c;" horiz-adv-x="589" 
d="M100 219l18 115l478 205l-17 -114l-343 -148l296 -149l-19 -112z" />
    <glyph glyph-name="equal" unicode="=" horiz-adv-x="588" 
d="M125 364l16 98h452l-15 -98h-453zM94 164l15 97h452l-15 -97h-452z" />
    <glyph glyph-name="greater" unicode="&#x3e;" horiz-adv-x="589" 
d="M72 16l18 112l341 149l-294 148l18 114l414 -204l-18 -116z" />
    <glyph glyph-name="question" unicode="?" horiz-adv-x="551" 
d="M202 193q-1 4 -1 8v20q0 60 19.5 100t48.5 67t62.5 45.5t62.5 36t48.5 38.5t19.5 54q0 38 -30.5 58.5t-102.5 20.5q-60 0 -97.5 -12t-57.5 -19l-14 95q25 10 78.5 23t124.5 13q113 0 168.5 -43t55.5 -125q0 -53 -20 -87.5t-49.5 -59t-64.5 -43.5t-64.5 -41t-49.5 -51
t-20 -74v-17q0 -4 1 -7h-118zM315 71q0 -32 -19.5 -56.5t-65.5 -24.5q-35 0 -49 15.5t-14 41.5q0 16 4.5 30.5t15 26t26.5 18.5t39 7q34 0 48.5 -16t14.5 -42z" />
    <glyph glyph-name="at" unicode="@" horiz-adv-x="1014" 
d="M449 77q-55 2 -86.5 38t-31.5 99q0 37 12.5 87t42.5 95t81.5 76t129.5 31q33 0 64 -5.5t56 -11.5q28 -8 54 -17l-69 -229q-3 -11 -5 -20.5t-2 -17.5q0 -50 55 -50q42 0 71.5 27.5t47.5 68t26.5 86t8.5 80.5q0 45 -14 87t-47 75t-87 52.5t-134 19.5q-109 0 -188.5 -37
t-132 -98t-78 -139.5t-25.5 -160.5q0 -59 14.5 -111t49.5 -90.5t93.5 -61t146.5 -22.5q44 0 79.5 5t61.5 11q30 7 53 16l11 -90q-28 -10 -62 -17q-29 -7 -70 -12t-90 -5q-106 0 -180 29.5t-121 80.5t-68.5 119t-21.5 145q0 98 32 193t98 170t166 121t236 46
q105 0 177.5 -27.5t118 -72.5t66 -103.5t20.5 -120.5q0 -61 -18.5 -123t-53 -112.5t-84.5 -82.5t-114 -32q-43 0 -68 13t-39 30q-16 18 -22 43l-10.5 -12t-30.5 -26t-50 -25.5t-69 -11.5zM484 162q35 0 65 23t52 54l54 176q-13 2 -25 5q-11 2 -24 3.5t-25 1.5q-45 0 -74 -22
t-45.5 -53t-23 -64t-6.5 -54q0 -29 11.5 -48.5t40.5 -21.5z" />
    <glyph glyph-name="A" unicode="A" horiz-adv-x="715" 
d="M546 707l141 -707h-123l-36 183h-278l-94 -183h-127l365 707h152zM423 525l-131 -249h221l-51 249l-8 74z" />
    <glyph glyph-name="B" unicode="B" horiz-adv-x="675" 
d="M78 0l112 707h273q103 0 161 -37.5t58 -112.5q0 -29 -7 -57.5t-22.5 -53t-40 -45t-59.5 -32.5q53 -15 77.5 -52.5t24.5 -87.5t-16.5 -92t-52 -72.5t-90.5 -47.5t-132 -17h-286zM370 96q48 0 79.5 10.5t50 28.5t25.5 42.5t7 51.5q0 42 -28.5 63.5t-100.5 21.5h-153
l-35 -218h155zM405 404q87 0 122 35t35 92q0 40 -28 60.5t-94 20.5h-143l-33 -208h141z" />
    <glyph glyph-name="C" unicode="C" horiz-adv-x="633" 
d="M509 613q-65 0 -117 -23t-88.5 -63.5t-56 -95.5t-19.5 -119q0 -61 17.5 -102.5t46.5 -67t68 -37t83 -11.5q28 0 51.5 3t40.5 8q20 5 36 12l8 -99q-17 -8 -41 -14q-20 -5 -50 -9.5t-69 -4.5q-158 0 -237.5 81t-79.5 230q0 89 28 165.5t80 132t126.5 87t167.5 31.5
q40 0 72.5 -5t55.5 -11q27 -7 48 -16l-34 -98l-10.5 4t-28.5 9t-43 9t-55 4z" />
    <glyph glyph-name="D" unicode="D" horiz-adv-x="720" 
d="M190 707h248q81 0 136.5 -21.5t90 -59t50 -89t15.5 -111.5q0 -80 -20.5 -156.5t-67.5 -136.5t-124.5 -96.5t-192.5 -36.5h-247zM356 104q65 0 112 26t78 69t45.5 99t14.5 116q0 42 -9 76.5t-29.5 60t-53 39.5t-78.5 14h-140l-79 -500h139z" />
    <glyph glyph-name="E" unicode="E" horiz-adv-x="631" 
d="M78 0l112 707h489l-16 -103h-367l-31 -194h321l-16 -103h-321l-33 -204h367l-16 -103h-489z" />
    <glyph glyph-name="F" unicode="F" horiz-adv-x="610" 
d="M246 288l-46 -288h-122l112 707h482l-16 -103h-360l-33 -214h315l-17 -102h-315z" />
    <glyph glyph-name="G" unicode="G" horiz-adv-x="688" 
d="M512 612q-70 0 -124 -25.5t-90.5 -68t-55 -99t-18.5 -118.5q0 -57 17 -96.5t46.5 -64t69 -35.5t84.5 -11q20 0 37.5 1.5t34.5 3.5l40 253h119l-53 -328q-25 -10 -56 -17q-26 -7 -61.5 -12t-77.5 -5q-82 0 -142.5 21.5t-100.5 61t-59.5 96t-19.5 125.5q0 90 28 167.5
t81 134t129 89t171 32.5q44 0 80 -5.5t62 -12.5q30 -8 54 -17l-35 -98q-21 8 -47 14q-22 5 -51 9.5t-62 4.5z" />
    <glyph glyph-name="H" unicode="H" horiz-adv-x="730" 
d="M529 0l47 295h-329l-47 -295h-122l112 707h122l-47 -301h329l47 301h123l-112 -707h-123z" />
    <glyph glyph-name="I" unicode="I" horiz-adv-x="281" 
d="M79 0l112 707h123l-112 -707h-123z" />
    <glyph glyph-name="J" unicode="J" horiz-adv-x="431" 
d="M348 707h122l-79 -499q-8 -50 -24 -90t-42.5 -68.5t-65.5 -44t-93 -15.5q-31 0 -53.5 5t-38.5 12q-18 7 -32 17l34 92q9 -7 20 -12q10 -5 24 -8.5t33 -3.5q56 0 82 30.5t34 86.5z" />
    <glyph glyph-name="K" unicode="K" horiz-adv-x="669" 
d="M492 0l-192 290h-53l-47 -290h-122l112 707h122l-50 -318q12 1 21 2t15 3q7 2 12 4q11 10 29 28.5t40.5 42.5t47 50.5t48.5 53.5q56 62 121 134h138q-8 -11 -30.5 -37.5t-53.5 -61t-67 -74t-70 -76.5t-62.5 -67.5t-44.5 -47.5l223 -343h-137z" />
    <glyph glyph-name="L" unicode="L" horiz-adv-x="560" 
d="M78 0l112 707h122l-96 -602h315l-16 -105h-437z" />
    <glyph glyph-name="M" unicode="M" horiz-adv-x="895" 
d="M368 707l123 -431l260 431h137l-54 -707h-122l34 449l12 85l-243 -398h-88l-119 393l-14 -80l-108 -449h-125l170 707h137z" />
    <glyph glyph-name="N" unicode="N" horiz-adv-x="737" 
d="M542 0l-269 505l-7 -76l-69 -429h-119l112 707h116l270 -514l7 75l69 439h120l-112 -707h-118z" />
    <glyph glyph-name="O" unicode="O" horiz-adv-x="772" 
d="M388 -10q-64 0 -117 18.5t-90.5 55.5t-58 92t-20.5 127q0 98 29 178t80.5 137t122 88t153.5 31q75 0 130.5 -21.5t92 -60t54.5 -92.5t18 -119q0 -90 -26 -169t-76 -138t-123.5 -93t-168.5 -34zM225 292q0 -43 9.5 -80t31 -64t55.5 -42t82 -15q56 0 103 24t81.5 67.5
t53.5 104t19 132.5q0 97 -45.5 146t-135.5 49q-54 0 -100 -22.5t-80.5 -64.5t-54 -101.5t-19.5 -133.5z" />
    <glyph glyph-name="P" unicode="P" horiz-adv-x="669" 
d="M78 0l112 707h274q65 0 109 -14.5t71 -40t39 -59t12 -72.5q0 -50 -13 -100t-47.5 -90t-93.5 -64.5t-151 -24.5h-151l-39 -242h-122zM402 345q50 0 82.5 12.5t51.5 34t26.5 50t7.5 61.5q0 45 -27 73t-99 28h-148l-41 -259h147z" />
    <glyph glyph-name="Q" unicode="Q" horiz-adv-x="772" 
d="M548 -201q-8 -3 -34 -8t-55 -5q-41 0 -67.5 12.5t-42 32t-21.5 44.5t-6 49q0 17 1.5 35t6.5 35q-104 15 -166 88t-62 201q0 98 29 178t80.5 137t122 88t153.5 31q75 0 130.5 -21.5t92 -60t54.5 -92.5t18 -119q0 -86 -24 -162.5t-70 -134.5t-114 -94t-155 -42
q-3 -18 -3 -33q0 -73 75 -73q14 0 25 1t19 3q9 2 16 5zM225 292q0 -43 9.5 -80t31 -64t55.5 -42t82 -15q56 0 103 24t81.5 67.5t53.5 104t19 132.5q0 97 -45.5 146t-135.5 49q-54 0 -100 -22.5t-80.5 -64.5t-54 -101.5t-19.5 -133.5z" />
    <glyph glyph-name="R" unicode="R" horiz-adv-x="683" 
d="M467 707q65 0 109.5 -13.5t72 -38t39.5 -58t12 -72.5q0 -42 -9.5 -80.5t-30.5 -70.5t-55 -56t-83 -38l110 -280h-127l-102 262h-161l-42 -262h-122l112 707h277zM258 362h143q50 0 83 10t53 29t28.5 46t8.5 60q0 46 -29.5 72t-105.5 26h-143z" />
    <glyph glyph-name="S" unicode="S" horiz-adv-x="597" 
d="M106 145q23 -16 54 -28q26 -11 62.5 -19t82.5 -8q72 0 108.5 26.5t36.5 77.5q0 24 -8 40t-23 28t-35.5 21t-45.5 19q-47 18 -85.5 36t-66 41t-43 54.5t-15.5 77.5q0 52 19.5 91t55 64.5t85.5 38t110 12.5q54 0 93.5 -7.5t65.5 -15.5q31 -11 53 -23l-38 -90q-19 10 -45 18
q-23 7 -55 13t-74 6q-70 0 -109 -23t-39 -73q0 -21 8 -35.5t25.5 -26.5t45 -23.5t66.5 -26.5q42 -16 75.5 -33t56.5 -39.5t35.5 -53.5t12.5 -75q0 -103 -69 -161t-203 -58q-61 0 -105.5 9.5t-74.5 20.5q-35 13 -59 31z" />
    <glyph glyph-name="T" unicode="T" horiz-adv-x="627" 
d="M252 0l95 599h-228l17 108h578l-16 -108h-228l-94 -599h-124z" />
    <glyph glyph-name="U" unicode="U" horiz-adv-x="724" 
d="M641 707h122l-66 -417q-12 -74 -35.5 -130t-63.5 -93.5t-98.5 -57t-139.5 -19.5q-127 0 -187.5 56t-60.5 165q0 18 2 38t5 41l67 417h121l-66 -421q-6 -35 -6 -63q0 -62 31.5 -96.5t109.5 -34.5q49 0 83 13.5t57.5 39t36.5 61t20 80.5z" />
    <glyph glyph-name="V" unicode="V" horiz-adv-x="693" 
d="M261 707l91 -510l10 -89l39 89l253 510h127l-356 -707h-157l-131 707h124z" />
    <glyph glyph-name="W" unicode="W" horiz-adv-x="982" 
d="M263 707l39 -489l2 -95l34 94l208 490h111l52 -490l6 -94l31 94l194 490h129l-292 -707h-140l-53 445l-8 95l-36 -93l-195 -447h-140l-68 707h126z" />
    <glyph glyph-name="X" unicode="X" horiz-adv-x="720" 
d="M547 0l-142 259l-225 -259h-142l306 354l-187 353h135l137 -268l225 268h140l-306 -360l194 -347h-135z" />
    <glyph glyph-name="Y" unicode="Y" horiz-adv-x="672" 
d="M275 0l42 266l-183 441h128l110 -274l20 -63l41 65l193 272h137l-322 -440l-44 -267h-122z" />
    <glyph glyph-name="Z" unicode="Z" horiz-adv-x="640" 
d="M59 0l16 103l451 506l-72 -4h-293l16 102h512l-17 -103l-452 -506l72 4h306l-16 -102h-523z" />
    <glyph glyph-name="bracketleft" unicode="[" horiz-adv-x="374" 
d="M60 -179l150 949h244l-17 -104h-130l-118 -741h125l-15 -104h-239z" />
    <glyph glyph-name="backslash" unicode="\" horiz-adv-x="451" 
d="M297 0l-145 707h115l144 -707h-114z" />
    <glyph glyph-name="bracketright" unicode="]" horiz-adv-x="374" 
d="M19 -179l16 104h125l118 741h-131l18 104h243l-150 -949h-239z" />
    <glyph glyph-name="asciicircum" unicode="^" horiz-adv-x="538" 
d="M447 460l-81 172l-134 -172h-113l207 271h113l121 -271h-113z" />
    <glyph glyph-name="underscore" unicode="_" horiz-adv-x="554" 
d="M-25 -155l17 98h554l-15 -98h-556z" />
    <glyph glyph-name="grave" unicode="`" horiz-adv-x="305" 
d="M258 592l-96 159h127l67 -159h-98z" />
    <glyph glyph-name="a" unicode="a" horiz-adv-x="592" 
d="M521 0h-97v81q-9 -12 -24.5 -27.5t-37 -30t-50 -24t-63.5 -9.5t-65.5 13t-53.5 39t-36 65t-13 92q0 64 19 125t58 108.5t98 76t138 28.5q39 0 76.5 -6t66.5 -14q34 -9 64 -20zM470 428q-14 3 -30 7q-14 3 -30 5.5t-32 2.5q-44 0 -77 -20t-55 -52t-33 -73t-11 -84
q0 -37 7 -61.5t19 -38.5t27.5 -20t31.5 -6q26 0 49.5 13t43 31t33.5 37.5t22 32.5z" />
    <glyph glyph-name="b" unicode="b" horiz-adv-x="591" 
d="M185 731h121l-34 -217l-15 -61q11 14 27 29t37 27t47 20t58 8q34 0 65 -13t53.5 -39.5t36 -65.5t13.5 -91q0 -65 -19.5 -125.5t-58.5 -108t-98 -76t-138 -28.5q-40 0 -76.5 6t-65.5 14q-33 9 -64 20zM205 99q14 -4 30 -8q14 -3 29.5 -5t32.5 -2q44 0 77 19.5t55 52
t33 73.5t11 84q0 37 -7.5 61.5t-19.5 38.5t-27.5 20t-31.5 6q-26 0 -49.5 -13t-43 -31t-33.5 -37.5t-21 -32.5z" />
    <glyph glyph-name="c" unicode="c" horiz-adv-x="503" 
d="M492 416q-12 7 -28 12q-14 5 -32 9t-41 4q-44 0 -79 -16t-59.5 -44.5t-37.5 -67t-13 -83.5q0 -80 39.5 -112t104.5 -32q23 0 40.5 2.5t29.5 6.5q14 4 25 9l10 -90q-13 -7 -32 -12q-17 -5 -41.5 -8.5t-56.5 -3.5q-53 0 -97 12.5t-76 40.5t-49.5 71.5t-17.5 106.5
q0 69 21.5 127t61.5 100t95.5 65.5t124.5 23.5q32 0 58.5 -5t45.5 -11q22 -7 38 -15l-34 -90v0z" />
    <glyph glyph-name="d" unicode="d" horiz-adv-x="592" 
d="M424 0v81q-9 -12 -24.5 -28t-37.5 -30t-50 -23.5t-63 -9.5q-34 0 -64.5 13t-53.5 38.5t-36.5 64.5t-13.5 92q0 64 19 125t58 108.5t98 76.5t138 29q26 0 49.5 -2.5t43.5 -7.5l2 25l28 179h120l-116 -731h-97zM470 428q-14 3 -30 7q-14 3 -30 5.5t-32 2.5q-44 0 -77 -20
t-55 -52t-33 -73t-11 -84q0 -37 7 -61.5t19 -38.5t27.5 -20t31.5 -6q26 0 49.5 13t43 31t33.5 37.5t22 32.5z" />
    <glyph glyph-name="e" unicode="e" horiz-adv-x="549" 
d="M384 537q45 0 77.5 -11t53.5 -29.5t31 -44t10 -54.5q0 -36 -16 -67.5t-52 -55t-93 -37t-139 -13.5h-24.5t-26.5 1q-1 -7 -1 -13.5v-12.5q0 -116 125 -116q31 0 57.5 5.5t46.5 12.5q23 8 41 19l16 -90q-20 -12 -47 -21q-23 -8 -56 -14t-75 -6q-60 0 -103.5 15.5t-71.5 44
t-41.5 69t-13.5 90.5q0 64 20.5 123.5t59.5 105t95 72.5t127 27zM216 306q45 0 86 3.5t72.5 12.5t50 25.5t18.5 42.5q0 25 -18 42t-56 17q-26 0 -50.5 -9.5t-45 -27.5t-35.5 -44.5t-22 -61.5z" />
    <glyph glyph-name="f" unicode="f" horiz-adv-x="407" 
d="M475 635q-7 2 -16 5q-8 2 -19 3.5t-25 1.5q-21 0 -39 -3t-32 -13t-24.5 -28t-14.5 -49l-3 -25h149l-16 -96h-149l-71 -446q-9 -60 -30 -99t-49.5 -61t-62.5 -30.5t-70 -8.5q-20 0 -36 2t-27 5q-13 3 -23 7l22 92q5 -3 13 -5q15 -5 41 -5q41 0 66.5 22t35.5 81l71 446h-68
l16 96h67l4 30q9 60 32 96.5t54 56t67 25.5t71 6q23 0 41 -2.5t31 -4.5q15 -4 27 -7l-33 -92v0z" />
    <glyph glyph-name="g" unicode="g" horiz-adv-x="592" 
d="M527 28q-7 -42 -24 -85t-50 -78t-86 -57t-132 -22q-35 0 -62 3.5t-45 8.5q-21 5 -37 12l22 92q14 -7 32 -11q15 -5 36.5 -8t48.5 -3q79 0 126 36.5t55 114.5l5 47q-11 -14 -27 -28.5t-37 -26.5t-47 -20t-58 -8q-33 0 -63.5 12t-53 37t-36 63.5t-13.5 91.5q0 65 19 126
t58 108t98 75.5t138 28.5q40 0 77 -6t66 -14q33 -9 64 -20zM470 428q-14 3 -30 7q-14 3 -30 5.5t-32 2.5q-45 0 -78 -19.5t-54.5 -52t-32.5 -73t-11 -82.5q0 -36 7 -60t19 -38t27 -19.5t32 -5.5q26 0 49.5 12t43 29.5t33.5 36t22 31.5z" />
    <glyph glyph-name="h" unicode="h" 
d="M307 731l-37 -231l-12 -57q6 7 22.5 22.5t41.5 31.5t58.5 28t74.5 12q70 0 106.5 -39.5t36.5 -108.5q0 -10 -1 -21.5t-3 -23.5l-54 -344h-121l53 335q3 16 3 31q0 72 -69 72q-32 0 -61.5 -17t-52.5 -37q-26 -24 -49 -54l-52 -330h-120l116 731h120z" />
    <glyph glyph-name="i" unicode="i" horiz-adv-x="262" 
d="M71 0l83 527h120l-83 -527h-120zM309 685q0 -32 -19 -55.5t-63 -23.5q-33 0 -47 15.5t-14 38.5q0 32 18.5 55t63.5 23q33 0 47 -15t14 -38z" />
    <glyph glyph-name="j" unicode="j" horiz-adv-x="272" 
d="M-61 -111q5 -2 12 -4q6 -2 15 -3t20 -1q37 0 60.5 22t32.5 78l86 546h119l-86 -546q-16 -103 -66.5 -149t-134.5 -46q-32 0 -55 5q-12 2 -22 5zM317 682q0 -34 -20 -55t-62 -21q-32 0 -46 14t-14 40q0 32 18.5 54.5t63.5 22.5q35 0 47.5 -15t12.5 -40z" />
    <glyph glyph-name="k" unicode="k" horiz-adv-x="565" 
d="M411 0l-151 221h-34l-35 -221h-120l116 732h120l-68 -427q7 1 18 3.5t17 4.5q6 6 18.5 18t28 28t33 34.5t35.5 37.5q41 44 89 96h134q-6 -9 -22.5 -28t-39.5 -44t-49.5 -53t-51.5 -54t-47 -48.5t-35 -36.5l177 -263h-133z" />
    <glyph glyph-name="l" unicode="l" horiz-adv-x="327" 
d="M303 12q-13 -7 -30 -11q-14 -5 -34 -8t-44 -3q-59 0 -83.5 31.5t-24.5 80.5q0 11 1 23t3 20l93 586h120l-91 -578q-3 -17 -3 -28q0 -42 37 -42q20 0 37 5q9 3 17 6z" />
    <glyph glyph-name="m" unicode="m" horiz-adv-x="923" 
d="M250 527v-87q19 27 47 48q23 18 58.5 33.5t83.5 15.5q57 0 91.5 -26t46.5 -73q4 5 19 21t39.5 33.5t59 31t77.5 13.5q71 0 107.5 -39.5t36.5 -107.5q0 -11 -1 -22.5t-3 -23.5l-54 -344h-121l53 335q3 16 3 31q0 35 -16.5 53.5t-50.5 18.5q-31 0 -58 -16t-47.5 -35.5
t-32 -37t-12.5 -21.5l-51 -328h-121l54 339q1 7 1.5 13.5t0.5 12.5q0 73 -67 73q-33 0 -60.5 -17.5t-47.5 -38.5q-24 -25 -42 -55l-52 -327h-120l83 527h96z" />
    <glyph glyph-name="n" unicode="n" 
d="M250 527v-87q23 27 54 48q26 18 63 33.5t85 15.5q72 0 109 -40t37 -109q0 -11 -1 -22t-3 -22l-54 -344h-121l53 335q3 16 3 30q0 73 -70 73q-32 0 -61 -17.5t-52 -38.5q-26 -25 -49 -55l-52 -327h-120l83 527h96z" />
    <glyph glyph-name="o" unicode="o" horiz-adv-x="598" 
d="M306 -10q-103 0 -164 57t-61 170q0 72 21 131t58.5 101t90.5 65t117 23q119 0 175.5 -60.5t56.5 -165.5q0 -71 -20 -130t-58 -101.5t-92.5 -66t-123.5 -23.5zM202 218q0 -63 27.5 -98t87.5 -35q35 0 65 15.5t52 45t34.5 71t12.5 93.5q0 65 -26.5 98.5t-90.5 33.5
q-35 0 -64.5 -15.5t-51.5 -44.5t-34 -70.5t-12 -93.5z" />
    <glyph glyph-name="p" unicode="p" horiz-adv-x="592" 
d="M252 527v-81q9 12 25 28t37.5 30t49.5 23.5t63 9.5q34 0 64.5 -13t53.5 -38.5t36.5 -65t13.5 -91.5q0 -64 -19 -125t-58 -108.5t-98 -76.5t-138 -29q-26 0 -49.5 2.5t-43.5 7.5l-2 -25l-28 -179h-120l116 731h97zM206 99q14 -4 30 -8q14 -3 29.5 -5t32.5 -2q44 0 77 19.5
t55 52t33 73.5t11 84q0 37 -7.5 61.5t-19.5 38.5t-27.5 20t-31.5 6q-26 0 -49.5 -13t-42.5 -31t-33.5 -37.5t-21.5 -32.5z" />
    <glyph glyph-name="q" unicode="q" horiz-adv-x="592" 
d="M490 -204h-121l35 217l14 63q-11 -15 -27 -30t-37 -27.5t-47 -20.5t-58 -8q-35 0 -65.5 13t-53 39.5t-36 65.5t-13.5 91q0 64 19 125t58 108.5t98 76t139 28.5q39 0 76 -6t66 -14q33 -9 64 -20zM470 428q-14 3 -30 7q-14 3 -30 5.5t-32 2.5q-44 0 -77 -20t-55 -52
t-33 -73t-11 -84q0 -37 7 -61.5t19 -38.5t27.5 -20t31.5 -6q27 0 50.5 13t43 31t33.5 37.5t21 32.5z" />
    <glyph glyph-name="r" unicode="r" horiz-adv-x="394" 
d="M249 527l3 -88q7 9 23 25t41 32.5t58.5 28.5t74.5 12l-21 -107h-5q-2 0 -6 0.5t-9 0.5q-38 -1 -68 -16.5t-52 -34.5q-26 -22 -45 -51l-52 -329h-120l83 527h95z" />
    <glyph glyph-name="s" unicode="s" horiz-adv-x="493" 
d="M93 130q18 -13 42 -24q20 -9 48.5 -16t63.5 -7q52 0 79 16t27 45q0 16 -8.5 27t-23.5 19t-35.5 14.5t-44.5 15.5q-29 10 -52.5 23t-41 31t-27 42.5t-9.5 58.5q0 77 56.5 119.5t165.5 42.5q44 0 76.5 -6t53.5 -14q25 -9 42 -20l-37 -91q-15 10 -35 18q-17 7 -43 13t-60 6
q-48 0 -75.5 -13.5t-27.5 -42.5q0 -15 7 -25t20 -18t30.5 -15l37.5 -15q33 -14 60.5 -27t47 -30.5t30 -41.5t10.5 -58q0 -83 -59.5 -125t-167.5 -42q-46 0 -80.5 7.5t-57.5 16.5q-27 11 -47 24z" />
    <glyph glyph-name="t" unicode="t" horiz-adv-x="417" 
d="M378 17q-14 -8 -32 -14q-16 -5 -38.5 -9t-50.5 -4q-66 0 -103 30.5t-37 96.5q0 10 1 21t3 23l43 270h-68l14 96h72l36 140h105l-22 -140h150l-19 -96h-145l-43 -270q-1 -6 -1.5 -11.5t-0.5 -10.5q0 -24 13 -38t47 -14q16 0 29 2.5t23 5.5q11 4 20 9z" />
    <glyph glyph-name="u" unicode="u" 
d="M270 527l-54 -335q-2 -8 -2 -14.5v-13.5q0 -36 17 -55.5t52 -19.5q32 0 61.5 17t52.5 38q26 25 49 56l52 327h120l-83 -527h-96v87q-23 -28 -54 -49q-26 -18 -63 -33t-85 -15q-71 0 -108.5 39.5t-37.5 108.5q0 11 1 22t3 23l54 344h121z" />
    <glyph glyph-name="v" unicode="v" horiz-adv-x="555" 
d="M228 527l57 -333l5 -102l36 102l163 333h125l-261 -527h-151l-95 527h121z" />
    <glyph glyph-name="w" unicode="w" horiz-adv-x="833" 
d="M224 527l37 -329v-107l36 108l145 328h112l42 -330l1 -106l35 108l140 328h125l-233 -527h-139l-40 272l-7 122l-44 -122l-125 -272h-139l-68 527h122z" />
    <glyph glyph-name="x" unicode="x" horiz-adv-x="541" 
d="M226 527l94 -184l153 184h131l-220 -265l138 -262h-126l-94 182l-152 -182h-132l223 263l-138 264h123z" />
    <glyph glyph-name="y" unicode="y" horiz-adv-x="553" 
d="M21 -111q6 -2 14 -4q7 -2 16 -3t20 -1q31 0 53.5 11.5t39.5 29t29 38.5t22 41l-107 526h125l52 -317l5 -102l199 419h123l-281 -538q-26 -49 -51.5 -86.5t-55 -63.5t-65.5 -39.5t-81 -13.5q-20 0 -34 1.5t-24 3.5q-11 3 -19 6z" />
    <glyph glyph-name="z" unicode="z" horiz-adv-x="525" 
d="M148 527h403l-12 -97l-322 -337l56 3h211l-14 -96h-415l14 97l323 337l-57 -3h-201z" />
    <glyph glyph-name="braceleft" unicode="{" horiz-adv-x="365" 
d="M318 -93q-2 -10 -4.5 -25.5t-4.5 -30.5q-3 -18 -6 -37q-98 1 -139 33.5t-41 97.5q0 11 1 23t3 26l25 157q1 7 1.5 13.5t0.5 12.5q0 30 -16 51.5t-58 21.5l13 82q25 0 43 8.5t30.5 22.5t19.5 31.5t10 36.5l25 157q7 45 21.5 79t41 56.5t67.5 34t103 11.5q-3 -20 -6 -38
q-2 -15 -4 -31t-4 -25q-30 0 -48.5 -6t-30 -17.5t-17.5 -29t-10 -40.5l-26 -161q-8 -54 -36 -84.5t-66 -46.5q28 -12 46 -35.5t18 -63.5q0 -14 -3 -30l-25 -160q-2 -11 -3 -20t-1 -17q0 -29 16.5 -43t63.5 -14z" />
    <glyph glyph-name="bar" unicode="|" horiz-adv-x="344" 
d="M88 -204l150 945h103l-150 -945h-103z" />
    <glyph glyph-name="braceright" unicode="}" horiz-adv-x="365" 
d="M3 -186q3 19 6 37q2 15 4.5 30.5t4.5 25.5q30 0 48.5 6t30 18t17.5 29.5t10 40.5l25 160q8 54 36 84.5t66 45.5q-28 13 -45.5 37t-17.5 64v14t2 15l26 161q2 10 3 19t1 17q0 29 -16.5 43t-63.5 14q1 9 3.5 25t4.5 31q3 18 6 38q51 0 86 -8t56 -24t30 -39.5t9 -54.5
q0 -13 -1.5 -26.5t-3.5 -28.5l-24 -157q-1 -6 -1.5 -12.5t-0.5 -12.5q0 -30 16 -52t58 -22l-14 -82q-25 0 -43 -8.5t-30.5 -22.5t-19.5 -31.5t-10 -36.5l-25 -157q-7 -45 -21.5 -78.5t-41 -56t-68 -34t-102.5 -11.5z" />
    <glyph glyph-name="asciitilde" unicode="~" horiz-adv-x="580" 
d="M95 202q-1 7 -1.5 19t-0.5 20q0 63 36.5 104t106.5 41q36 0 64 -12.5t51 -27.5t43 -27.5t40 -12.5q25 0 33.5 17t8.5 36q0 7 -0.5 14t-1.5 12h103q1 -7 1.5 -16.5t0.5 -17.5q0 -32 -9.5 -59.5t-27.5 -47.5t-44.5 -31.5t-60.5 -11.5q-36 0 -63.5 12.5t-50 28t-42 28
t-40.5 12.5q-23 0 -33.5 -15.5t-10.5 -38.5q0 -14 3 -26h-105z" />
    <glyph glyph-name="uni00A0" unicode="&#xa0;" horiz-adv-x="210" 
 />
    <glyph glyph-name="exclamdown" unicode="&#xa1;" horiz-adv-x="300" 
d="M50 -204l96 535h114l-74 -535h-136zM299 481q0 -33 -19.5 -58t-64.5 -25q-34 0 -48.5 16.5t-14.5 40.5q0 33 19 57.5t65 24.5q35 0 49 -15.5t14 -40.5z" />
    <glyph glyph-name="cent" unicode="&#xa2;" horiz-adv-x="523" 
d="M442 613q25 -3 44.5 -7.5t33.5 -9.5q16 -5 28 -11l-34 -91q-12 7 -28 12q-14 5 -33 8.5t-42 3.5q-88 0 -137.5 -54t-49.5 -144q0 -40 10.5 -66.5t29.5 -42t46 -22t59 -6.5q24 0 42 3t29 7q13 4 23 10l10 -92q-12 -7 -30 -11q-15 -5 -36.5 -8t-47.5 -5l-14 -87h-90l14 93
q-37 7 -67.5 22t-52.5 41.5t-34 64t-12 89.5q0 62 17.5 114t50 91t78.5 63.5t103 32.5l15 96h90z" />
    <glyph glyph-name="sterling" unicode="&#xa3;" horiz-adv-x="617" 
d="M562 53q-18 -23 -54.5 -38t-81.5 -15q-26 0 -49.5 5t-46 11.5t-45 11.5t-46.5 5q-26 0 -46 -5.5t-34 -11.5q-17 -7 -30 -16l-42 102q29 18 53 72.5t39 133.5h-74l13 90h76v10q0 4 0.5 8t0.5 6q9 145 75.5 220t210.5 75q36 0 64 -4t48 -9q23 -5 41 -12l-34 -95
q-13 5 -30 9q-14 4 -35 7t-47 3q-71 0 -113 -29.5t-53 -103.5q-2 -11 -3.5 -25t-2.5 -28l-2 -32h188l-14 -90h-192q-25 -122 -74 -185q4 1 19 4.5t36 3.5q23 0 43 -4.5t39 -9.5t38.5 -9.5t41.5 -4.5q23 0 39 5t27 11q12 7 21 17z" />
    <glyph glyph-name="currency" unicode="&#xa4;" horiz-adv-x="649" 
d="M542 64l-84 104q-51 -27 -121 -27q-30 0 -54 6.5t-44 17.5l-112 -101l-63 74l113 94q-8 14 -13.5 34.5t-5.5 43.5q0 47 14 84.5t40 68.5l-82 92l85 72l80 -99q50 26 112 26q34 0 60.5 -8.5t46.5 -22.5l118 104l62 -72l-120 -100q6 -14 9.5 -33t3.5 -38q0 -80 -47 -147
l88 -99zM356 235q56 0 91 34.5t35 102.5q0 42 -22 65t-68 23q-59 0 -93.5 -36t-34.5 -99q0 -44 21.5 -67t70.5 -23z" />
    <glyph glyph-name="yen" unicode="&#xa5;" horiz-adv-x="652" 
d="M409 131l-21 -131h-124l20 131h-173l13 78h173l10 67h-173l13 77h147l-145 354h134l106 -302l200 302h137l-257 -354h145l-13 -77h-169l-10 -67h169l-13 -78h-169z" />
    <glyph glyph-name="brokenbar" unicode="&#xa6;" horiz-adv-x="344" 
d="M88 -204l60 376h103l-60 -376h-103zM179 366l59 375h103l-59 -375h-103z" />
    <glyph glyph-name="section" unicode="&#xa7;" horiz-adv-x="604" 
d="M91 -79q20 -10 46 -18q23 -7 54.5 -12t73.5 -5q146 0 146 93q0 24 -9 40t-25 28t-39 21t-51 20q-31 12 -62.5 26t-57 35t-41.5 51t-16 74q0 32 9 57t23 43.5t31.5 31.5t34.5 21q-26 23 -40 54t-14 74q0 93 68 139.5t193 46.5q48 0 84.5 -6t61.5 -13q29 -8 51 -18l-32 -93
q-20 8 -46 15q-22 6 -52.5 11t-67.5 5q-66 0 -102.5 -20.5t-36.5 -65.5q0 -20 8 -34t24.5 -25.5t42 -22.5t60.5 -24q27 -11 56.5 -24.5t54.5 -34t41 -51t16 -73.5q0 -54 -27.5 -90t-67.5 -59q25 -23 39 -53t14 -74q0 -95 -67.5 -150t-206.5 -55q-48 0 -86 5.5t-64 13.5
q-31 8 -54 19zM352 351q-14 5 -27 10t-26 11q-12 -6 -23.5 -14t-21.5 -18.5t-16 -24t-6 -29.5q0 -21 9 -35.5t25.5 -26t39.5 -20.5t51 -19l40 -17q26 13 41.5 34t15.5 50q0 21 -8 36.5t-22 26.5t-32.5 19.5t-39.5 16.5z" />
    <glyph glyph-name="dieresis" unicode="&#xa8;" horiz-adv-x="423" 
d="M276 687q0 -29 -16.5 -51t-56.5 -22q-29 0 -41.5 13.5t-12.5 35.5q0 30 16.5 51.5t56.5 21.5q29 0 41.5 -13.5t12.5 -35.5zM489 686q0 -29 -18 -50.5t-56 -21.5q-30 0 -42 13.5t-12 35.5q0 29 16 51t57 22q29 0 42 -14t13 -36z" />
    <glyph glyph-name="copyright" unicode="&#xa9;" horiz-adv-x="843" 
d="M520 741q80 0 142.5 -21.5t105 -62t64.5 -98t22 -130.5q0 -102 -32.5 -183.5t-89.5 -138t-133.5 -87t-164.5 -30.5q-69 0 -129 20t-105 59.5t-70.5 98.5t-25.5 137q0 102 32.5 183t89 137t132.5 86t162 30zM511 656q-67 0 -125.5 -23t-101.5 -67t-67.5 -108t-24.5 -146
q0 -54 16.5 -97.5t48 -75t78.5 -48.5t108 -17q67 0 126 23.5t102.5 68.5t69 109.5t25.5 146.5q0 112 -64 173t-191 61zM588 478q-10 3 -21 7l-22.5 4.5t-27.5 2.5q-36 0 -63 -12.5t-44.5 -33.5t-26.5 -49t-9 -59q0 -45 25 -72.5t79 -27.5q30 0 53 5q12 3 23 6l3 -72
q-1 -1 -9.5 -3.5t-22 -5.5t-30 -5t-34.5 -2q-38 0 -70 10t-55.5 30.5t-37 52t-13.5 73.5q0 51 15.5 95.5t45 77.5t71 51.5t94.5 18.5q20 0 39 -3t33 -7q17 -4 30 -10z" />
    <glyph glyph-name="ordfeminine" unicode="&#xaa;" horiz-adv-x="454" 
d="M80 187l13 79h354l-12 -79h-355zM371 329l-2 44q-20 -22 -56 -36.5t-78 -14.5q-56 0 -84 28t-28 69q0 34 14.5 59t40 41.5t61 24t76.5 7.5q14 0 27 -1t23 -2q11 -2 20 -3l5 33q1 4 1 12q0 49 -81 49q-25 0 -46.5 -3.5t-37.5 -8.5q-18 -5 -34 -11l-6 76q5 2 19.5 6.5
t35 8.5t46 7t53.5 3q29 0 56 -4.5t48 -16.5t33.5 -32t12.5 -51v-12.5t-2 -14.5l-40 -257h-77zM376 482l-15 3q-8 1 -18 2t-24 1q-47 0 -72.5 -13.5t-25.5 -43.5q0 -13 5.5 -21t13 -12t16 -5.5t14.5 -1.5q37 0 63 14.5t34 25.5z" />
    <glyph glyph-name="guillemotleft" unicode="&#xab;" horiz-adv-x="606" 
d="M204 100l-89 186l148 186h118l-147 -187l88 -185h-118zM433 100l-88 186l147 186h118l-147 -187l89 -185h-119z" />
    <glyph glyph-name="logicalnot" unicode="&#xac;" horiz-adv-x="629" 
d="M478 72l27 176h-411l17 103h513l-43 -279h-103z" />
    <glyph glyph-name="uni00AD" unicode="&#xad;" horiz-adv-x="391" 
d="M94 247l17 104h280l-17 -104h-280z" />
    <glyph glyph-name="registered" unicode="&#xae;" horiz-adv-x="843" 
d="M522 179l-48 131h-74l-20 -131h-80l59 373h162q34 0 57.5 -9t38 -23.5t20.5 -33t6 -38.5q0 -38 -20.5 -73.5t-71.5 -52.5l57 -143h-86zM481 369q44 0 62 20.5t18 52.5q0 21 -13.5 35.5t-47.5 14.5h-71l-19 -123h71zM434 -10q-69 0 -129 20t-105 59.5t-70.5 98.5
t-25.5 137q0 102 32.5 183t89 137t132.5 86t162 30q80 0 142.5 -21.5t105 -62t64.5 -98t22 -130.5q0 -102 -32.5 -183.5t-89.5 -138t-133.5 -87t-164.5 -30.5zM192 312q0 -54 16.5 -97.5t48 -75t78.5 -48.5t108 -17q67 0 126 23.5t102.5 68.5t69 109.5t25.5 146.5
q0 112 -64 173t-191 61q-67 0 -125.5 -23t-101.5 -67t-67.5 -108t-24.5 -146z" />
    <glyph glyph-name="macron" unicode="&#xaf;" horiz-adv-x="395" 
d="M139 612l14 87h310l-13 -87h-311z" />
    <glyph glyph-name="degree" unicode="&#xb0;" horiz-adv-x="394" 
d="M270 457q-26 0 -49.5 7t-40.5 22t-27 37.5t-10 52.5q0 35 11.5 65t33.5 52.5t53 35t69 12.5q66 0 97.5 -33.5t31.5 -85.5q0 -36 -12 -66.5t-34 -52t-53 -34t-70 -12.5zM280 525q32 0 55.5 21.5t23.5 69.5q0 27 -15 42.5t-41 15.5q-32 0 -55.5 -21.5t-23.5 -68.5
q0 -56 56 -59z" />
    <glyph glyph-name="plusminus" unicode="&#xb1;" horiz-adv-x="608" 
d="M418 400l-30 -188h-100l30 188h-197l16 100h197l29 187h100l-29 -187h197l-17 -100h-196zM64 40l16 100h493l-16 -100h-493z" />
    <glyph glyph-name="uni00B2" unicode="&#xb2;" horiz-adv-x="380" 
d="M105 378l5 72q34 21 76.5 44.5t80 50.5t63 57t25.5 65q0 29 -20 45t-65 16q-21 0 -39.5 -3t-32.5 -7q-16 -4 -29 -10l-7 66q19 7 42 12q20 5 45 9t53 4q39 0 66.5 -10t45.5 -26.5t26 -38t8 -45.5q0 -48 -28.5 -87.5t-66 -69t-73 -49t-49.5 -28.5l51 4h125l-10 -71h-292z
" />
    <glyph glyph-name="uni00B3" unicode="&#xb3;" horiz-adv-x="375" 
d="M117 458q8 -5 22 -9q12 -4 31 -6.5t46 -2.5q23 0 43 3t35 10.5t24 20t9 32.5q0 28 -20.5 40t-72.5 12q-10 0 -17.5 -0.5t-13.5 -0.5q-7 -1 -12 -1l10 64q3 -1 8 -1h27q20 0 40 2t36 8.5t26 19t10 33.5q0 23 -18 35.5t-67 12.5q-23 0 -41 -2.5t-31 -4.5q-15 -4 -26 -7
l-7 64q16 5 36 9q17 4 40 7t51 3q79 0 116.5 -26.5t37.5 -73.5q0 -34 -21 -61t-66 -43q30 -9 46.5 -30t16.5 -59q0 -63 -47 -98.5t-149 -35.5q-29 0 -51 2.5t-37 5.5q-18 4 -30 9z" />
    <glyph glyph-name="acute" unicode="&#xb4;" horiz-adv-x="305" 
d="M136 592l117 159h128l-146 -159h-99z" />
    <glyph glyph-name="uni00B5" unicode="&#xb5;" horiz-adv-x="611" 
d="M275 527l-54 -337q-3 -15 -3 -28q0 -35 18 -54t51 -19q32 0 61.5 15.5t52.5 35.5q26 23 49 52l53 335h120l-83 -527h-96v100q-22 -31 -51 -55q-25 -20 -60 -37t-78 -17q-18 0 -29.5 2.5t-18.5 6.5q-8 4 -13 9l-36 -213h-120l116 731h121z" />
    <glyph glyph-name="paragraph" unicode="&#xb6;" horiz-adv-x="693" 
d="M483 -204l133 839h-127l-133 -839h-103l76 483q-60 0 -101.5 15t-67 40.5t-36.5 59.5t-11 73q0 51 14 99.5t47.5 86t89 60.5t138.5 23h332l-148 -940h-103z" />
    <glyph glyph-name="periodcentered" unicode="&#xb7;" horiz-adv-x="252" 
d="M244 299q0 -32 -19.5 -56t-63.5 -24q-33 0 -47.5 15.5t-14.5 39.5q0 32 19 56.5t64 24.5q33 0 47.5 -16t14.5 -40z" />
    <glyph glyph-name="cedilla" unicode="&#xb8;" horiz-adv-x="290" 
d="M153 12l-29 -65h6q2 0 4.5 0.5t3.5 0.5q38 0 63.5 -17t25.5 -55q0 -45 -33 -73t-105 -28q-18 0 -31.5 1t-21.5 3q-11 2 -17 5l7 58q6 -2 15 -4q8 -2 19 -3t25 -1q26 0 47 8t21 30q0 15 -15.5 21t-37.5 6q-20 0 -39 -2.5t-24 -4.5l53 125z" />
    <glyph glyph-name="uni00B9" unicode="&#xb9;" horiz-adv-x="251" 
d="M167 378l52 336l-80 -22l2 61l126 39h52l-65 -414h-87z" />
    <glyph glyph-name="ordmasculine" unicode="&#xba;" horiz-adv-x="469" 
d="M339 717q90 0 128.5 -42.5t38.5 -111.5q0 -52 -13 -96t-40 -76.5t-67.5 -50.5t-95.5 -18q-35 0 -64.5 8.5t-51 27t-33.5 47t-12 68.5q0 55 14 100t41 77t66 49.5t89 17.5zM333 638q-47 0 -77.5 -39.5t-30.5 -117.5q0 -79 77 -79q46 0 76.5 38.5t30.5 118.5q0 42 -19 60.5
t-57 18.5zM443 187h-354l13 85h355z" />
    <glyph glyph-name="guillemotright" unicode="&#xbb;" horiz-adv-x="606" 
d="M86 100l146 185l-87 187h118l88 -186l-147 -186h-118zM315 100l146 185l-87 187h118l89 -186l-148 -186h-118z" />
    <glyph glyph-name="onequarter" unicode="&#xbc;" horiz-adv-x="906" 
d="M284 293h-88l54 337l-80 -23l1 61l126 39h52zM836 707l-587 -707h-80l587 707h80zM534 153l225 262h100l-41 -262h58l-10 -64h-58l-14 -89h-86l13 89h-188zM732 153l24 150l7 36l-160 -186h129z" />
    <glyph glyph-name="onehalf" unicode="&#xbd;" horiz-adv-x="1026" 
d="M212 0l587 707h80l-587 -707h-80zM239 293l54 337l-81 -23l1 61l126 39h52l-65 -414h-87zM675 0l6 72q33 21 75.5 44.5t80 50t63.5 56.5t26 65q0 29 -20 45.5t-65 16.5q-22 0 -40 -3t-32 -7q-16 -4 -29 -10l-7 65q19 7 42 13q19 5 44 9t53 4q39 0 67 -10t45 -26.5t25 -38
t8 -45.5q0 -32 -13.5 -60.5t-34 -53t-46 -44t-49.5 -35t-44 -26t-29 -16.5l50 4h127l-12 -70h-291z" />
    <glyph glyph-name="threequarters" unicode="&#xbe;" horiz-adv-x="994" 
d="M174 695q17 5 36 9q17 3 39.5 6t50.5 3q80 0 117 -26.5t37 -72.5q0 -35 -21 -61.5t-66 -43.5q30 -8 46.5 -29t16.5 -59q0 -64 -46.5 -99.5t-148.5 -35.5q-29 0 -51 2.5t-37 5.5q-18 4 -30 9l15 69q9 -5 23 -9q12 -3 31 -5.5t46 -2.5q22 0 42.5 2.5t35.5 10t24 20t9 32.5
q0 28 -20.5 40.5t-73.5 12.5q-10 0 -17.5 -0.5t-13.5 -0.5q-7 -1 -12 -1l11 64q3 -1 8 -1q4 -1 10.5 -1h15.5q20 0 40.5 2t36.5 9t26 19t10 33q0 24 -18 36.5t-67 12.5q-23 0 -41 -2.5t-31 -5.5q-15 -4 -26 -7zM913 707l-587 -707h-79l587 707h79zM611 153l226 262h100
l-42 -262h58l-10 -64h-58l-14 -89h-86l14 89h-188v64zM809 153l24 150l8 35l-160 -185h128z" />
    <glyph glyph-name="questiondown" unicode="&#xbf;" horiz-adv-x="480" 
d="M408 334q0 -4 1 -8q0 -4 0.5 -9.5t0.5 -10.5q0 -60 -19.5 -99t-48 -64.5t-62.5 -42.5t-62.5 -33.5t-48 -37t-19.5 -52.5q0 -38 30 -58.5t103 -20.5q60 0 96.5 11.5t57.5 19.5l14 -95q-26 -10 -78.5 -23t-124.5 -13q-112 0 -168 43t-56 125q0 53 19.5 86.5t49.5 56.5
t64 40.5t64 38t49.5 49t19.5 73.5q0 5 -0.5 9.5t-0.5 7.5v7h119zM295 456q0 32 19.5 56.5t65.5 24.5q35 0 49 -15.5t14 -41.5q0 -32 -19.5 -57t-64.5 -25q-35 0 -49.5 16t-14.5 42z" />
    <glyph glyph-name="Agrave" unicode="&#xc0;" horiz-adv-x="715" 
d="M443 763l-97 159h128l67 -159h-98zM546 707l141 -707h-123l-36 183h-278l-94 -183h-127l365 707h152zM423 525l-131 -249h221l-51 249l-8 74z" />
    <glyph glyph-name="Aacute" unicode="&#xc1;" horiz-adv-x="715" 
d="M416 763l117 159h128l-147 -159h-98zM546 707l141 -707h-123l-36 183h-278l-94 -183h-127l365 707h152zM423 525l-131 -249h221l-51 249l-8 74z" />
    <glyph glyph-name="Acircumflex" unicode="&#xc2;" horiz-adv-x="715" 
d="M555 921l97 -159h-97l-60 95l-89 -95h-98l147 159h100zM546 707l141 -707h-123l-36 183h-278l-94 -183h-127l365 707h152zM423 525l-131 -249h221l-51 249l-8 74z" />
    <glyph glyph-name="Atilde" unicode="&#xc3;" horiz-adv-x="715" 
d="M307 764q-1 1 -1 4v11q0 25 8 48.5t23 42t37.5 29.5t51.5 11q25 0 43 -10t32 -21.5t26.5 -21.5t27.5 -10q18 0 28 12t10 33q0 3 -0.5 6t-0.5 5v5h84v-4q0 -2 0.5 -5t0.5 -5q0 -26 -8 -49.5t-23 -42t-37.5 -29.5t-52.5 -11q-26 0 -43.5 10t-31.5 21.5t-26 21.5t-28 10
q-17 0 -27 -12.5t-10 -33.5v-11q0 -3 1 -4h-84zM546 707l141 -707h-123l-36 183h-278l-94 -183h-127l365 707h152zM423 525l-131 -249h221l-51 249l-8 74z" />
    <glyph glyph-name="Adieresis" unicode="&#xc4;" horiz-adv-x="715" 
d="M453 856q0 -29 -16.5 -51t-57.5 -22q-29 0 -41.5 14t-12.5 36q0 29 16.5 50.5t57.5 21.5q29 0 41.5 -13.5t12.5 -35.5zM665 856q0 -29 -17.5 -51t-56.5 -22q-29 0 -41.5 13.5t-12.5 35.5q0 29 16 51t57 22q29 0 42 -14t13 -35zM546 707l141 -707h-123l-36 183h-278
l-94 -183h-127l365 707h152zM423 525l-131 -249h221l-51 249l-8 74z" />
    <glyph glyph-name="Aring" unicode="&#xc5;" horiz-adv-x="715" 
d="M477 752q-51 0 -76 24.5t-25 66.5q0 60 38.5 95t101.5 35q49 0 74 -24t25 -66q0 -58 -34 -94.5t-104 -36.5zM489 815q26 0 40 16t14 42q0 38 -39 38q-26 0 -40.5 -15.5t-14.5 -42.5q0 -38 40 -38zM546 707l141 -707h-123l-36 183h-278l-94 -183h-127l365 707h152z
M423 525l-131 -249h221l-51 249l-8 74z" />
    <glyph glyph-name="AE" unicode="&#xc6;" horiz-adv-x="1030" 
d="M477 0l29 183h-219l-131 -183h-127l503 707h546l-16 -103h-367l-31 -194h321l-17 -103h-320l-32 -204h366l-16 -103h-489zM571 591l-225 -315h174z" />
    <glyph glyph-name="Ccedilla" unicode="&#xc7;" horiz-adv-x="639" 
d="M502 613q-65 0 -117 -23t-88.5 -63.5t-56 -95.5t-19.5 -119q0 -61 17.5 -102.5t46.5 -67t68 -37t83 -11.5q28 0 51.5 3t40.5 8q20 5 36 12l8 -99q-17 -8 -41 -14q-20 -5 -50 -9.5t-69 -4.5h-1l-18 -43q2 0 8 0.5t8 0.5q36 0 61.5 -15t25.5 -54q0 -48 -34.5 -76
t-106.5 -28q-29 0 -44.5 3.5t-23.5 5.5l8 58q5 -2 22 -5t38 -3q25 0 46 8t21 30q0 15 -15.5 21t-37.5 6q-20 0 -39 -2.5t-25 -4.5l43 102q-127 16 -190 94.5t-63 212.5q0 89 28 165.5t80 132t126.5 87t167.5 31.5q40 0 72.5 -5t55.5 -11q27 -7 48 -16l-34 -98l-10.5 4
t-28.5 9t-43 9t-55 4z" />
    <glyph glyph-name="Egrave" unicode="&#xc8;" horiz-adv-x="631" 
d="M413 763l-97 159h128l67 -159h-98zM78 0l112 707h489l-16 -103h-367l-31 -194h321l-16 -103h-321l-33 -204h367l-16 -103h-489z" />
    <glyph glyph-name="Eacute" unicode="&#xc9;" horiz-adv-x="631" 
d="M388 763l117 159h128l-147 -159h-98zM78 0l112 707h489l-16 -103h-367l-31 -194h321l-16 -103h-321l-33 -204h367l-16 -103h-489z" />
    <glyph glyph-name="Ecircumflex" unicode="&#xca;" horiz-adv-x="631" 
d="M522 921l97 -159h-97l-60 95l-89 -95h-97l146 159h100zM78 0l112 707h489l-16 -103h-367l-31 -194h321l-16 -103h-321l-33 -204h367l-16 -103h-489z" />
    <glyph glyph-name="Edieresis" unicode="&#xcb;" horiz-adv-x="631" 
d="M412 863q0 -30 -16.5 -51.5t-57.5 -21.5q-29 0 -41.5 13.5t-12.5 35.5q0 29 16.5 50.5t57.5 21.5q29 0 41.5 -13.5t12.5 -34.5zM624 862q0 -29 -17.5 -50.5t-56.5 -21.5q-29 0 -41.5 13t-12.5 35q0 30 16 51.5t57 21.5q29 0 42 -13.5t13 -35.5zM78 0l112 707h489
l-16 -103h-367l-31 -194h321l-16 -103h-321l-33 -204h367l-16 -103h-489z" />
    <glyph glyph-name="Igrave" unicode="&#xcc;" horiz-adv-x="281" 
d="M202 0h-123l112 707h123zM214 763l-96 159h127l68 -159h-99z" />
    <glyph glyph-name="Iacute" unicode="&#xcd;" horiz-adv-x="281" 
d="M202 0h-123l112 707h123zM208 763l117 159h128l-146 -159h-99z" />
    <glyph glyph-name="Icircumflex" unicode="&#xce;" horiz-adv-x="281" 
d="M314 707l-112 -707h-123l112 707h123zM331 921l97 -159h-97l-60 95l-88 -95h-98l147 159h99z" />
    <glyph glyph-name="Idieresis" unicode="&#xcf;" horiz-adv-x="281" 
d="M79 0l112 707h123l-112 -707h-123zM232 862q0 -29 -16.5 -51t-57.5 -22q-29 0 -41.5 13.5t-12.5 35.5q0 30 16.5 51.5t57.5 21.5q29 0 41.5 -13.5t12.5 -35.5zM445 861q0 -29 -18 -50.5t-57 -21.5q-29 0 -41.5 13t-12.5 35q0 30 16 52t57 22q29 0 42.5 -14t13.5 -36z" />
    <glyph glyph-name="Eth" unicode="&#xd0;" horiz-adv-x="720" 
d="M79 402h62l49 305h248q81 0 136.5 -21.5t90 -59t50 -89t15.5 -111.5q0 -80 -20.5 -156.5t-67.5 -136.5t-124.5 -96.5t-192.5 -36.5h-247l48 304h-63zM356 104q65 0 112 26t78 69t45.5 99t14.5 116q0 42 -9 76.5t-29.5 60t-53 39.5t-78.5 14h-140l-32 -202h155l-15 -98
h-156l-31 -200h139z" />
    <glyph glyph-name="Ntilde" unicode="&#xd1;" horiz-adv-x="737" 
d="M542 0l-269 505l-7 -76l-69 -429h-119l112 707h116l270 -514l7 75l69 439h120l-112 -707h-118zM323 764v15q0 25 7.5 48.5t22.5 42t37.5 29.5t51.5 11q25 0 43 -10t32 -21.5t26.5 -21.5t27.5 -10q18 0 28 12t10 33q0 3 -0.5 6t-0.5 5q-1 3 -1 5h85v-4q0 -2 0.5 -5t0.5 -5
q0 -26 -8 -49.5t-23 -42t-37.5 -29.5t-52.5 -11q-26 0 -43.5 10t-31.5 21.5t-26 21.5t-28 10q-17 0 -27 -12.5t-10 -33.5v-11q0 -3 1 -4h-84z" />
    <glyph glyph-name="Ograve" unicode="&#xd2;" horiz-adv-x="772" 
d="M477 763l-97 159h128l67 -159h-98zM388 -10q-64 0 -117 18.5t-90.5 55.5t-58 92t-20.5 127q0 98 29 178t80.5 137t122 88t153.5 31q75 0 130.5 -21.5t92 -60t54.5 -92.5t18 -119q0 -90 -26 -169t-76 -138t-123.5 -93t-168.5 -34zM225 292q0 -43 9.5 -80t31 -64t55.5 -42
t82 -15q56 0 103 24t81.5 67.5t53.5 104t19 132.5q0 97 -45.5 146t-135.5 49q-54 0 -100 -22.5t-80.5 -64.5t-54 -101.5t-19.5 -133.5z" />
    <glyph glyph-name="Oacute" unicode="&#xd3;" horiz-adv-x="772" 
d="M437 763l117 159h128l-146 -159h-99zM388 -10q-64 0 -117 18.5t-90.5 55.5t-58 92t-20.5 127q0 98 29 178t80.5 137t122 88t153.5 31q75 0 130.5 -21.5t92 -60t54.5 -92.5t18 -119q0 -90 -26 -169t-76 -138t-123.5 -93t-168.5 -34zM225 292q0 -43 9.5 -80t31 -64
t55.5 -42t82 -15q56 0 103 24t81.5 67.5t53.5 104t19 132.5q0 97 -45.5 146t-135.5 49q-54 0 -100 -22.5t-80.5 -64.5t-54 -101.5t-19.5 -133.5z" />
    <glyph glyph-name="Ocircumflex" unicode="&#xd4;" horiz-adv-x="772" 
d="M577 921l96 -159h-97l-60 95l-89 -95h-97l147 159h100zM388 -10q-64 0 -117 18.5t-90.5 55.5t-58 92t-20.5 127q0 98 29 178t80.5 137t122 88t153.5 31q75 0 130.5 -21.5t92 -60t54.5 -92.5t18 -119q0 -90 -26 -169t-76 -138t-123.5 -93t-168.5 -34zM225 292
q0 -43 9.5 -80t31 -64t55.5 -42t82 -15q56 0 103 24t81.5 67.5t53.5 104t19 132.5q0 97 -45.5 146t-135.5 49q-54 0 -100 -22.5t-80.5 -64.5t-54 -101.5t-19.5 -133.5z" />
    <glyph glyph-name="Otilde" unicode="&#xd5;" horiz-adv-x="772" 
d="M388 -10q-64 0 -117 18.5t-90.5 55.5t-58 92t-20.5 127q0 98 29 178t80.5 137t122 88t153.5 31q75 0 130.5 -21.5t92 -60t54.5 -92.5t18 -119q0 -90 -26 -169t-76 -138t-123.5 -93t-168.5 -34zM225 292q0 -43 9.5 -80t31 -64t55.5 -42t82 -15q56 0 103 24t81.5 67.5
t53.5 104t19 132.5q0 97 -45.5 146t-135.5 49q-54 0 -100 -22.5t-80.5 -64.5t-54 -101.5t-19.5 -133.5zM327 764v15q0 25 7.5 48.5t22.5 42t37.5 29.5t52.5 11q25 0 43 -10t31.5 -21.5t26 -21.5t27.5 -10q18 0 28.5 12t10.5 33q0 3 -0.5 6t-0.5 5q-1 3 -1 5h84v-4
q0 -2 0.5 -5t0.5 -5q0 -26 -7.5 -49.5t-23 -42t-38 -29.5t-52.5 -11q-26 0 -43.5 10t-31 21.5t-25.5 21.5t-28 10q-17 0 -27.5 -12.5t-10.5 -33.5v-11q0 -3 1 -4h-84z" />
    <glyph glyph-name="Odieresis" unicode="&#xd6;" horiz-adv-x="772" 
d="M479 863q0 -30 -17 -51.5t-57 -21.5q-29 0 -41.5 13.5t-12.5 35.5q0 29 16.5 50.5t56.5 21.5q29 0 42 -13.5t13 -34.5zM691 862q0 -29 -18 -50.5t-56 -21.5q-30 0 -42 13t-12 35q0 30 15.5 51.5t57.5 21.5q29 0 42 -13.5t13 -35.5zM388 -10q-64 0 -117 18.5t-90.5 55.5
t-58 92t-20.5 127q0 98 29 178t80.5 137t122 88t153.5 31q75 0 130.5 -21.5t92 -60t54.5 -92.5t18 -119q0 -90 -26 -169t-76 -138t-123.5 -93t-168.5 -34zM225 292q0 -43 9.5 -80t31 -64t55.5 -42t82 -15q56 0 103 24t81.5 67.5t53.5 104t19 132.5q0 97 -45.5 146t-135.5 49
q-54 0 -100 -22.5t-80.5 -64.5t-54 -101.5t-19.5 -133.5z" />
    <glyph glyph-name="multiply" unicode="&#xd7;" horiz-adv-x="570" 
d="M326 262l-186 -160l-56 67l185 161l-134 160l77 68l135 -161l187 161l56 -68l-186 -160l135 -161l-78 -67z" />
    <glyph glyph-name="Oslash" unicode="&#xd8;" horiz-adv-x="772" 
d="M388 -10q-24 0 -46.5 2.5t-42.5 7.5l-44 -82h-100l62 117q-54 35 -84.5 97t-30.5 151q0 98 29 178t80.5 137t122 88t153.5 31q47 0 88 -9l40 75h101l-57 -107q63 -37 93 -102t30 -150q0 -90 -26 -169t-76 -138t-123.5 -93t-168.5 -34zM660 419q0 105 -56 155l-254 -478
q12 -2 25 -3.5t28 -1.5q56 0 103 24t81.5 67.5t53.5 104t19 132.5zM225 292q0 -48 11 -87t37 -66l250 471q-19 4 -44 4q-54 0 -100 -22.5t-80.5 -64.5t-54 -101.5t-19.5 -133.5z" />
    <glyph glyph-name="Ugrave" unicode="&#xd9;" horiz-adv-x="724" 
d="M447 763l-96 159h128l67 -159h-99zM641 707h122l-66 -417q-12 -74 -35.5 -130t-63.5 -93.5t-98.5 -57t-139.5 -19.5q-127 0 -187.5 56t-60.5 165q0 18 2 38t5 41l67 417h121l-66 -421q-6 -35 -6 -63q0 -62 31.5 -96.5t109.5 -34.5q49 0 83 13.5t57.5 39t36.5 61t20 80.5z
" />
    <glyph glyph-name="Uacute" unicode="&#xda;" horiz-adv-x="724" 
d="M424 763l117 159h127l-146 -159h-98zM641 707h122l-66 -417q-12 -74 -35.5 -130t-63.5 -93.5t-98.5 -57t-139.5 -19.5q-127 0 -187.5 56t-60.5 165q0 18 2 38t5 41l67 417h121l-66 -421q-6 -35 -6 -63q0 -62 31.5 -96.5t109.5 -34.5q49 0 83 13.5t57.5 39t36.5 61
t20 80.5z" />
    <glyph glyph-name="Ucircumflex" unicode="&#xdb;" horiz-adv-x="724" 
d="M557 921l96 -159h-97l-60 95l-89 -95h-97l147 159h100zM641 707h122l-66 -417q-12 -74 -35.5 -130t-63.5 -93.5t-98.5 -57t-139.5 -19.5q-127 0 -187.5 56t-60.5 165q0 18 2 38t5 41l67 417h121l-66 -421q-6 -35 -6 -63q0 -62 31.5 -96.5t109.5 -34.5q49 0 83 13.5
t57.5 39t36.5 61t20 80.5z" />
    <glyph glyph-name="Udieresis" unicode="&#xdc;" horiz-adv-x="724" 
d="M457 863q0 -30 -16.5 -51.5t-56.5 -21.5q-30 0 -42.5 13.5t-12.5 35.5q0 29 17 50.5t57 21.5q29 0 41.5 -13.5t12.5 -34.5zM670 862q0 -29 -17.5 -50.5t-57.5 -21.5q-29 0 -41.5 13t-12.5 35q0 30 16 51.5t58 21.5q29 0 42 -13.5t13 -35.5zM641 707h122l-66 -417
q-12 -74 -35.5 -130t-63.5 -93.5t-98.5 -57t-139.5 -19.5q-127 0 -187.5 56t-60.5 165q0 18 2 38t5 41l67 417h121l-66 -421q-6 -35 -6 -63q0 -62 31.5 -96.5t109.5 -34.5q49 0 83 13.5t57.5 39t36.5 61t20 80.5z" />
    <glyph glyph-name="Yacute" unicode="&#xdd;" horiz-adv-x="672" 
d="M393 763l117 159h127l-145 -159h-99zM275 0l42 266l-183 441h128l110 -274l20 -63l41 65l193 272h137l-322 -440l-44 -267h-122z" />
    <glyph glyph-name="Thorn" unicode="&#xde;" horiz-adv-x="649" 
d="M312 707l-16 -105h149q65 0 109.5 -14.5t71.5 -39.5t38.5 -59t11.5 -73q0 -50 -13.5 -99.5t-47.5 -89t-93 -64.5t-150 -25h-150l-22 -138h-122l112 707h122zM239 240h145q50 0 82.5 12.5t51.5 34t26.5 50t7.5 61.5q0 45 -27.5 73t-99.5 28h-146z" />
    <glyph glyph-name="germandbls" unicode="&#xdf;" horiz-adv-x="654" 
d="M169 513q11 69 40 113.5t68 70t84 35t89 9.5q60 0 101.5 -14t68 -38t38 -55.5t11.5 -65.5q0 -38 -12.5 -69.5t-31 -55t-41 -39t-42.5 -22.5q15 -3 32 -14t32 -30.5t25 -49t10 -70.5q0 -48 -16 -90t-48 -72.5t-81.5 -48t-115.5 -17.5q-27 0 -46.5 2.5t-33.5 5.5
q-16 4 -27 8l21 92q7 -4 18 -7q9 -2 23 -4t32 -2q69 0 111.5 36.5t42.5 109.5q0 31 -8 50.5t-23 31t-36.5 16t-47.5 4.5q-11 0 -20.5 -0.5t-17.5 -1.5q-10 -1 -18 -1l15 93h35q68 0 108 31t40 96q0 48 -25.5 72t-82.5 24q-21 0 -45 -5t-45 -19.5t-37.5 -41.5t-23.5 -72
l-82 -523q-10 -60 -31 -99t-49 -61t-61.5 -30.5t-67.5 -8.5q-21 0 -37.5 2t-27.5 5q-13 3 -22 7l22 92q5 -3 12 -5q13 -5 39 -5q42 0 67.5 22t35.5 81z" />
    <glyph glyph-name="agrave" unicode="&#xe0;" horiz-adv-x="592" 
d="M363 592l-96 159h127l68 -159h-99zM521 0h-97v81q-9 -12 -24.5 -27.5t-37 -30t-50 -24t-63.5 -9.5t-65.5 13t-53.5 39t-36 65t-13 92q0 64 19 125t58 108.5t98 76t138 28.5q39 0 76.5 -6t66.5 -14q34 -9 64 -20zM470 428q-14 3 -30 7q-14 3 -30 5.5t-32 2.5
q-44 0 -77 -20t-55 -52t-33 -73t-11 -84q0 -37 7 -61.5t19 -38.5t27.5 -20t31.5 -6q26 0 49.5 13t43 31t33.5 37.5t22 32.5z" />
    <glyph glyph-name="aacute" unicode="&#xe1;" horiz-adv-x="592" 
d="M333 592l117 159h128l-146 -159h-99zM521 0h-97v81q-9 -12 -24.5 -27.5t-37 -30t-50 -24t-63.5 -9.5t-65.5 13t-53.5 39t-36 65t-13 92q0 64 19 125t58 108.5t98 76t138 28.5q39 0 76.5 -6t66.5 -14q34 -9 64 -20zM470 428q-14 3 -30 7q-14 3 -30 5.5t-32 2.5
q-44 0 -77 -20t-55 -52t-33 -73t-11 -84q0 -37 7 -61.5t19 -38.5t27.5 -20t31.5 -6q26 0 49.5 13t43 31t33.5 37.5t22 32.5z" />
    <glyph glyph-name="acircumflex" unicode="&#xe2;" horiz-adv-x="592" 
d="M485 751l97 -159h-96l-60 94l-89 -94h-98l147 159h99zM521 0h-97v81q-9 -12 -24.5 -27.5t-37 -30t-50 -24t-63.5 -9.5t-65.5 13t-53.5 39t-36 65t-13 92q0 64 19 125t58 108.5t98 76t138 28.5q39 0 76.5 -6t66.5 -14q34 -9 64 -20zM470 428q-14 3 -30 7q-14 3 -30 5.5
t-32 2.5q-44 0 -77 -20t-55 -52t-33 -73t-11 -84q0 -37 7 -61.5t19 -38.5t27.5 -20t31.5 -6q26 0 49.5 13t43 31t33.5 37.5t22 32.5z" />
    <glyph glyph-name="atilde" unicode="&#xe3;" horiz-adv-x="592" 
d="M521 0h-97v81q-9 -12 -24.5 -27.5t-37 -30t-50 -24t-63.5 -9.5t-65.5 13t-53.5 39t-36 65t-13 92q0 64 19 125t58 108.5t98 76t138 28.5q39 0 76.5 -6t66.5 -14q34 -9 64 -20zM470 428q-14 3 -30 7q-14 3 -30 5.5t-32 2.5q-44 0 -77 -20t-55 -52t-33 -73t-11 -84
q0 -37 7 -61.5t19 -38.5t27.5 -20t31.5 -6q26 0 49.5 13t43 31t33.5 37.5t22 32.5zM228 591q-1 1 -1 4v11q0 24 8 47.5t23 41.5t37.5 29t51.5 11q25 0 43 -9.5t32 -21.5t26 -21.5t27 -9.5q19 0 29 12.5t10 32.5q0 3 -0.5 6t-0.5 5q-1 3 -1 5h85v-13q0 -26 -7.5 -49.5
t-22.5 -42t-37.5 -29.5t-52.5 -11q-26 0 -43.5 9.5t-31.5 21.5t-26 21.5t-28 9.5q-17 0 -27 -12.5t-10 -33.5v-10q0 -3 1 -4h-84z" />
    <glyph glyph-name="adieresis" unicode="&#xe4;" horiz-adv-x="592" 
d="M379 677q0 -29 -17 -51.5t-58 -22.5q-29 0 -41.5 14t-12.5 36q0 30 16.5 51.5t57.5 21.5q29 0 42 -14t13 -35zM590 677q0 -30 -17.5 -52t-56.5 -22q-29 0 -41.5 13.5t-12.5 36.5q0 29 16 51t57 22q29 0 42 -14t13 -35zM521 0h-97v81q-9 -12 -24.5 -27.5t-37 -30t-50 -24
t-63.5 -9.5t-65.5 13t-53.5 39t-36 65t-13 92q0 64 19 125t58 108.5t98 76t138 28.5q39 0 76.5 -6t66.5 -14q34 -9 64 -20zM470 428q-14 3 -30 7q-14 3 -30 5.5t-32 2.5q-44 0 -77 -20t-55 -52t-33 -73t-11 -84q0 -37 7 -61.5t19 -38.5t27.5 -20t31.5 -6q26 0 49.5 13t43 31
t33.5 37.5t22 32.5z" />
    <glyph glyph-name="aring" unicode="&#xe5;" horiz-adv-x="592" 
d="M405 589q-51 0 -76 24.5t-25 66.5q0 61 38.5 96.5t101.5 35.5q49 0 74 -24.5t25 -66.5q0 -58 -34 -95t-104 -37zM416 653q26 0 40 15.5t14 42.5q0 37 -37 37q-26 0 -41 -15t-15 -42q0 -38 39 -38zM521 0h-97v81q-9 -12 -24.5 -27.5t-37 -30t-50 -24t-63.5 -9.5t-65.5 13
t-53.5 39t-36 65t-13 92q0 64 19 125t58 108.5t98 76t138 28.5q39 0 76.5 -6t66.5 -14q34 -9 64 -20zM470 428q-14 3 -30 7q-14 3 -30 5.5t-32 2.5q-44 0 -77 -20t-55 -52t-33 -73t-11 -84q0 -37 7 -61.5t19 -38.5t27.5 -20t31.5 -6q26 0 49.5 13t43 31t33.5 37.5t22 32.5z
" />
    <glyph glyph-name="ae" unicode="&#xe6;" horiz-adv-x="870" 
d="M705 537q45 0 77.5 -11t53.5 -29.5t31 -44t10 -54.5q0 -36 -16 -67.5t-52 -55t-93 -37t-139 -13.5h-24.5t-26.5 1q-1 -7 -1 -13.5v-12.5q0 -116 125 -116q31 0 57.5 5.5t46.5 12.5q23 8 41 19l16 -90q-20 -12 -47 -21q-23 -8 -56 -14t-75 -6q-66 0 -111 18t-73 51
q-8 -7 -25 -18.5t-44 -23t-63.5 -19.5t-82.5 -8q-83 0 -124 36t-41 98q0 46 20.5 79.5t58 55t89 32t114.5 10.5q16 0 33 -0.5t29 -2.5q4 14 8 27t9 26q2 46 -20.5 68t-86.5 22q-34 0 -62 -5t-49 -11q-25 -7 -45 -16l-15 92q24 10 55 18q26 7 62.5 12.5t82.5 5.5
q60 0 103.5 -13.5t66.5 -47.5q36 29 82 45t101 16zM268 78q30 0 55 7t44 16t30.5 17.5t15.5 11.5q-10 34 -10 79v11q-14 2 -30 3t-35 1q-29 0 -55.5 -4t-47 -14t-32.5 -26.5t-12 -41.5q0 -20 7.5 -32t19 -18t25 -8t25.5 -2zM537 306q45 0 86 3.5t72.5 12.5t50 25.5
t18.5 42.5q0 25 -18 42t-56 17q-26 0 -50.5 -9.5t-45 -27.5t-35.5 -44.5t-22 -61.5z" />
    <glyph glyph-name="ccedilla" unicode="&#xe7;" horiz-adv-x="507" 
d="M486 416q-12 7 -28 12q-14 5 -32 9t-41 4q-44 0 -79 -16t-59.5 -44.5t-37.5 -67t-13 -83.5q0 -80 39.5 -112t104.5 -32q23 0 40.5 2.5t29.5 6.5q14 4 25 9l10 -90q-12 -6 -30 -11q-15 -5 -37.5 -8.5t-52.5 -4.5l-19 -43h6q2 0 4 0.5t4 0.5q38 0 63.5 -17t25.5 -55
q0 -45 -33 -73t-105 -28q-18 0 -31 1t-22 3q-11 2 -17 5l7 58q6 -2 15 -4q8 -2 19 -3t26 -1q25 0 46 8t21 30q0 15 -15.5 21t-37.5 6q-20 0 -38.5 -2.5t-25.5 -4.5l44 102q-85 11 -136 64.5t-51 162.5q0 69 21.5 127t61.5 100t95.5 65.5t124.5 23.5q32 0 58.5 -5t45.5 -11
q22 -7 38 -15l-34 -90v0z" />
    <glyph glyph-name="egrave" unicode="&#xe8;" horiz-adv-x="582" 
d="M351 592l-97 159h128l67 -159h-98zM384 537q45 0 77.5 -11t53.5 -29.5t31 -44t10 -54.5q0 -36 -16 -67.5t-52 -55t-93 -37t-139 -13.5h-24.5t-26.5 1q-1 -7 -1 -13.5v-12.5q0 -116 125 -116q31 0 57.5 5.5t46.5 12.5q23 8 41 19l16 -90q-20 -12 -47 -21q-23 -8 -56 -14
t-75 -6q-60 0 -103.5 15.5t-71.5 44t-41.5 69t-13.5 90.5q0 64 20.5 123.5t59.5 105t95 72.5t127 27zM216 306q45 0 86 3.5t72.5 12.5t50 25.5t18.5 42.5q0 25 -18 42t-56 17q-26 0 -50.5 -9.5t-45 -27.5t-35.5 -44.5t-22 -61.5z" />
    <glyph glyph-name="eacute" unicode="&#xe9;" horiz-adv-x="549" 
d="M305 592l117 159h128l-146 -159h-99zM384 537q45 0 77.5 -11t53.5 -29.5t31 -44t10 -54.5q0 -36 -16 -67.5t-52 -55t-93 -37t-139 -13.5h-24.5t-26.5 1q-1 -7 -1 -13.5v-12.5q0 -116 125 -116q31 0 57.5 5.5t46.5 12.5q23 8 41 19l16 -90q-20 -12 -47 -21q-23 -8 -56 -14
t-75 -6q-60 0 -103.5 15.5t-71.5 44t-41.5 69t-13.5 90.5q0 64 20.5 123.5t59.5 105t95 72.5t127 27zM216 306q45 0 86 3.5t72.5 12.5t50 25.5t18.5 42.5q0 25 -18 42t-56 17q-26 0 -50.5 -9.5t-45 -27.5t-35.5 -44.5t-22 -61.5z" />
    <glyph glyph-name="ecircumflex" unicode="&#xea;" horiz-adv-x="549" 
d="M442 751l97 -159h-98l-59 94l-89 -94h-98l147 159h100zM384 537q45 0 77.5 -11t53.5 -29.5t31 -44t10 -54.5q0 -36 -16 -67.5t-52 -55t-93 -37t-139 -13.5h-24.5t-26.5 1q-1 -7 -1 -13.5v-12.5q0 -116 125 -116q31 0 57.5 5.5t46.5 12.5q23 8 41 19l16 -90
q-20 -12 -47 -21q-23 -8 -56 -14t-75 -6q-60 0 -103.5 15.5t-71.5 44t-41.5 69t-13.5 90.5q0 64 20.5 123.5t59.5 105t95 72.5t127 27zM216 306q45 0 86 3.5t72.5 12.5t50 25.5t18.5 42.5q0 25 -18 42t-56 17q-26 0 -50.5 -9.5t-45 -27.5t-35.5 -44.5t-22 -61.5z" />
    <glyph glyph-name="edieresis" unicode="&#xeb;" horiz-adv-x="549" 
d="M341 677q0 -29 -16.5 -51.5t-57.5 -22.5q-29 0 -41.5 14t-12.5 36q0 30 17 51.5t57 21.5q29 0 41.5 -14t12.5 -35zM553 677q0 -30 -17 -52t-56 -22q-29 0 -42 13.5t-13 36.5q0 29 16 51t58 22q29 0 41.5 -14t12.5 -35zM384 537q45 0 77.5 -11t53.5 -29.5t31 -44t10 -54.5
q0 -36 -16 -67.5t-52 -55t-93 -37t-139 -13.5h-24.5t-26.5 1q-1 -7 -1 -13.5v-12.5q0 -116 125 -116q31 0 57.5 5.5t46.5 12.5q23 8 41 19l16 -90q-20 -12 -47 -21q-23 -8 -56 -14t-75 -6q-60 0 -103.5 15.5t-71.5 44t-41.5 69t-13.5 90.5q0 64 20.5 123.5t59.5 105t95 72.5
t127 27zM216 306q45 0 86 3.5t72.5 12.5t50 25.5t18.5 42.5q0 25 -18 42t-56 17q-26 0 -50.5 -9.5t-45 -27.5t-35.5 -44.5t-22 -61.5z" />
    <glyph glyph-name="igrave" unicode="&#xec;" horiz-adv-x="262" 
d="M71 0l83 527h120l-83 -527h-120zM179 592l-97 159h128l68 -159h-99z" />
    <glyph glyph-name="iacute" unicode="&#xed;" horiz-adv-x="262" 
d="M191 0h-120l83 527h120zM167 592l117 159h127l-146 -159h-98z" />
    <glyph glyph-name="icircumflex" unicode="&#xee;" horiz-adv-x="263" 
d="M275 527l-84 -527h-120l84 527h120zM297 750l97 -159h-98l-60 95l-88 -95h-98l147 159h100z" />
    <glyph glyph-name="idieresis" unicode="&#xef;" horiz-adv-x="262" 
d="M71 0l83 527h120l-83 -527h-120zM196 677q0 -29 -17 -51.5t-57 -22.5q-29 0 -42 14t-13 36q0 30 17 51.5t57 21.5q30 0 42.5 -14t12.5 -35zM408 677q0 -30 -18 -52t-56 -22q-29 0 -41.5 13.5t-12.5 36.5q0 29 16 51t57 22q29 0 42 -14t13 -35z" />
    <glyph glyph-name="eth" unicode="&#xf0;" horiz-adv-x="604" 
d="M280 619l69 59q-16 12 -33.5 24t-36.5 25l73 67q20 -11 38.5 -23t35.5 -26l69 60l33 -39l-61 -54q75 -72 107 -161t32 -192q0 -71 -15.5 -137.5t-50.5 -118t-92 -82.5t-140 -31q-115 0 -171 60t-56 171q0 63 18 120t52.5 100.5t86 69.5t119.5 26q27 0 47.5 -4t34 -9.5
t21 -10.5l10.5 -7q-11 37 -31.5 71t-52.5 66l-73 -63zM479 405q-11 11 -38.5 23.5t-67.5 12.5q-47 0 -79.5 -19.5t-52.5 -51t-29 -70t-9 -75.5q0 -68 27.5 -103.5t85.5 -35.5q46 0 78 22t51 59t27.5 86.5t8.5 105.5q0 17 -0.5 29t-1.5 17z" />
    <glyph glyph-name="ntilde" unicode="&#xf1;" 
d="M250 527v-87q23 27 54 48q26 18 63 33.5t85 15.5q72 0 109 -40t37 -109q0 -11 -1 -22t-3 -22l-54 -344h-121l53 335q3 16 3 30q0 73 -70 73q-32 0 -61 -17.5t-52 -38.5q-26 -25 -49 -55l-52 -327h-120l83 527h96zM219 591q-1 1 -1 4v11q0 24 8 47.5t23 41.5t37.5 29
t51.5 11q25 0 43 -9.5t32 -21.5t26.5 -21.5t27.5 -9.5q18 0 28 12.5t10 32.5q0 3 -0.5 6t-0.5 5v5h84v-13q0 -26 -7.5 -49.5t-22.5 -42t-37.5 -29.5t-51.5 -11q-27 0 -44.5 9.5t-31 21.5t-26 21.5t-27.5 9.5q-17 0 -27.5 -12.5t-10.5 -33.5v-14h-83z" />
    <glyph glyph-name="ograve" unicode="&#xf2;" horiz-adv-x="598" 
d="M361 592l-96 159h128l67 -159h-99zM306 -10q-103 0 -164 57t-61 170q0 72 21 131t58.5 101t90.5 65t117 23q119 0 175.5 -60.5t56.5 -165.5q0 -71 -20 -130t-58 -101.5t-92.5 -66t-123.5 -23.5zM202 218q0 -63 27.5 -98t87.5 -35q35 0 65 15.5t52 45t34.5 71t12.5 93.5
q0 65 -26.5 98.5t-90.5 33.5q-35 0 -64.5 -15.5t-51.5 -44.5t-34 -70.5t-12 -93.5z" />
    <glyph glyph-name="oacute" unicode="&#xf3;" horiz-adv-x="598" 
d="M319 592l117 159h128l-145 -159h-100zM306 -10q-103 0 -164 57t-61 170q0 72 21 131t58.5 101t90.5 65t117 23q119 0 175.5 -60.5t56.5 -165.5q0 -71 -20 -130t-58 -101.5t-92.5 -66t-123.5 -23.5zM202 218q0 -63 27.5 -98t87.5 -35q35 0 65 15.5t52 45t34.5 71
t12.5 93.5q0 65 -26.5 98.5t-90.5 33.5q-35 0 -64.5 -15.5t-51.5 -44.5t-34 -70.5t-12 -93.5z" />
    <glyph glyph-name="ocircumflex" unicode="&#xf4;" horiz-adv-x="598" 
d="M456 751l97 -159h-97l-60 94l-89 -94h-97l146 159h100zM306 -10q-103 0 -164 57t-61 170q0 72 21 131t58.5 101t90.5 65t117 23q119 0 175.5 -60.5t56.5 -165.5q0 -71 -20 -130t-58 -101.5t-92.5 -66t-123.5 -23.5zM202 218q0 -63 27.5 -98t87.5 -35q35 0 65 15.5t52 45
t34.5 71t12.5 93.5q0 65 -26.5 98.5t-90.5 33.5q-35 0 -64.5 -15.5t-51.5 -44.5t-34 -70.5t-12 -93.5z" />
    <glyph glyph-name="otilde" unicode="&#xf5;" horiz-adv-x="598" 
d="M211 591q-1 1 -1 4v11q0 24 7.5 47.5t22.5 41.5t37.5 29t52.5 11q25 0 43 -9.5t31.5 -21.5t26 -21.5t27.5 -9.5q19 0 29 12.5t10 32.5q0 3 -0.5 6t-0.5 5q-1 3 -1 5h84v-4q0 -2 0.5 -4.5t0.5 -4.5q0 -26 -7.5 -49.5t-22.5 -42t-37.5 -29.5t-52.5 -11q-26 0 -43.5 9.5
t-31.5 21.5t-26 21.5t-28 9.5q-17 0 -27.5 -12.5t-10.5 -33.5v-10q0 -3 1 -4h-83zM306 -10q-103 0 -164 57t-61 170q0 72 21 131t58.5 101t90.5 65t117 23q119 0 175.5 -60.5t56.5 -165.5q0 -71 -20 -130t-58 -101.5t-92.5 -66t-123.5 -23.5zM202 218q0 -63 27.5 -98
t87.5 -35q35 0 65 15.5t52 45t34.5 71t12.5 93.5q0 65 -26.5 98.5t-90.5 33.5q-35 0 -64.5 -15.5t-51.5 -44.5t-34 -70.5t-12 -93.5z" />
    <glyph glyph-name="odieresis" unicode="&#xf6;" horiz-adv-x="598" 
d="M355 671q0 -29 -17 -50.5t-58 -21.5q-28 0 -40.5 13.5t-12.5 35.5q0 29 16.5 51t56.5 22q29 0 42 -14t13 -36zM567 671q0 -29 -17.5 -50.5t-56.5 -21.5q-29 0 -41.5 13t-12.5 35q0 29 16 51.5t57 22.5q29 0 42 -14t13 -36zM306 -10q-103 0 -164 57t-61 170q0 72 21 131
t58.5 101t90.5 65t117 23q119 0 175.5 -60.5t56.5 -165.5q0 -71 -20 -130t-58 -101.5t-92.5 -66t-123.5 -23.5zM202 218q0 -63 27.5 -98t87.5 -35q35 0 65 15.5t52 45t34.5 71t12.5 93.5q0 65 -26.5 98.5t-90.5 33.5q-35 0 -64.5 -15.5t-51.5 -44.5t-34 -70.5t-12 -93.5z
" />
    <glyph glyph-name="divide" unicode="&#xf7;" horiz-adv-x="604" 
d="M387 108q0 -29 -19.5 -51t-60.5 -22q-32 0 -45.5 15t-13.5 38q0 29 18.5 50.5t60.5 21.5q32 0 46 -14.5t14 -37.5zM450 510q0 -29 -19 -51t-60 -22q-32 0 -46 14.5t-14 37.5q0 29 19 51t61 22q31 0 45 -14.5t14 -37.5zM106 256l14 87h473l-14 -87h-473z" />
    <glyph glyph-name="oslash" unicode="&#xf8;" horiz-adv-x="598" 
d="M306 -10q-18 0 -34.5 2t-32.5 5l-48 -89h-88l64 119q-42 27 -64 74.5t-22 115.5q0 72 21 131t58.5 101t90.5 65t117 23q19 0 36.5 -1.5t33.5 -5.5l42 79h89l-58 -107q45 -28 67 -76.5t22 -114.5q0 -71 -20 -130t-58 -101.5t-92.5 -66t-123.5 -23.5zM481 310q0 61 -23 93
l-170 -316q7 -1 14 -1.5t15 -0.5q35 0 65 15.5t52 45t34.5 71t12.5 93.5zM202 218q0 -57 20 -88l167 310q-6 1 -12 1.5t-13 0.5q-35 0 -64.5 -15.5t-51.5 -44.5t-34 -70.5t-12 -93.5z" />
    <glyph glyph-name="ugrave" unicode="&#xf9;" 
d="M361 592l-96 159h128l66 -159h-98zM270 527l-54 -335q-2 -8 -2 -14.5v-13.5q0 -36 17 -55.5t52 -19.5q32 0 61.5 17t52.5 38q26 25 49 56l52 327h120l-83 -527h-96v87q-23 -28 -54 -49q-26 -18 -63 -33t-85 -15q-71 0 -108.5 39.5t-37.5 108.5q0 11 1 22t3 23l54 344h121
z" />
    <glyph glyph-name="uacute" unicode="&#xfa;" 
d="M335 592l117 159h128l-146 -159h-99zM270 527l-54 -335q-2 -8 -2 -14.5v-13.5q0 -36 17 -55.5t52 -19.5q32 0 61.5 17t52.5 38q26 25 49 56l52 327h120l-83 -527h-96v87q-23 -28 -54 -49q-26 -18 -63 -33t-85 -15q-71 0 -108.5 39.5t-37.5 108.5q0 11 1 22t3 23l54 344
h121z" />
    <glyph glyph-name="ucircumflex" unicode="&#xfb;" 
d="M469 751l97 -159h-96l-60 94l-89 -94h-98l147 159h99zM270 527l-54 -335q-2 -8 -2 -14.5v-13.5q0 -36 17 -55.5t52 -19.5q32 0 61.5 17t52.5 38q26 25 49 56l52 327h120l-83 -527h-96v87q-23 -28 -54 -49q-26 -18 -63 -33t-85 -15q-71 0 -108.5 39.5t-37.5 108.5
q0 11 1 22t3 23l54 344h121z" />
    <glyph glyph-name="udieresis" unicode="&#xfc;" 
d="M367 677q0 -29 -17 -51.5t-57 -22.5q-29 0 -42 14t-13 36q0 30 17 51.5t57 21.5q29 0 42 -14t13 -35zM579 677q0 -30 -18 -52t-56 -22q-30 0 -42 13.5t-12 36.5q0 29 16 51t57 22q29 0 42 -14t13 -35zM270 527l-54 -335q-2 -8 -2 -14.5v-13.5q0 -36 17 -55.5t52 -19.5
q32 0 61.5 17t52.5 38q26 25 49 56l52 327h120l-83 -527h-96v87q-23 -28 -54 -49q-26 -18 -63 -33t-85 -15q-71 0 -108.5 39.5t-37.5 108.5q0 11 1 22t3 23l54 344h121z" />
    <glyph glyph-name="yacute" unicode="&#xfd;" horiz-adv-x="553" 
d="M313 592l117 159h127l-146 -159h-98zM21 -111q6 -2 14 -4q7 -2 16 -3t20 -1q31 0 53.5 11.5t39.5 29t29 38.5t22 41l-107 526h125l52 -317l5 -102l199 419h123l-281 -538q-26 -49 -51.5 -86.5t-55 -63.5t-65.5 -39.5t-81 -13.5q-20 0 -34 1.5t-24 3.5q-11 3 -19 6z" />
    <glyph glyph-name="thorn" unicode="&#xfe;" horiz-adv-x="592" 
d="M305 731l-44 -279q26 35 66.5 60t101.5 25q34 0 64.5 -12.5t52.5 -38.5t35 -65.5t13 -93.5q0 -63 -19 -124t-57.5 -108t-97 -76t-137.5 -29q-33 0 -60.5 6t-33.5 6l-2 -27l-28 -179h-120l148 935h118zM207 99q14 -4 29 -8q13 -3 29 -5t32 -2q45 0 78 19.5t55 52t33 73.5
t11 84q0 37 -7.5 61t-19.5 38t-27.5 20t-31.5 6q-26 0 -48.5 -11t-41 -27.5t-32.5 -34.5t-23 -32z" />
    <glyph glyph-name="ydieresis" unicode="&#xff;" horiz-adv-x="553" 
d="M345 671q0 -29 -17 -50.5t-58 -21.5q-28 0 -40.5 13.5t-12.5 35.5q0 29 16.5 51t56.5 22q29 0 42 -14t13 -36zM556 671q0 -29 -17 -50.5t-56 -21.5q-30 0 -42 13t-12 35q0 29 16 51.5t57 22.5q29 0 41.5 -14t12.5 -36zM21 -111q6 -2 14 -4q7 -2 16 -3t20 -1
q31 0 53.5 11.5t39.5 29t29 38.5t22 41l-107 526h125l52 -317l5 -102l199 419h123l-281 -538q-26 -49 -51.5 -86.5t-55 -63.5t-65.5 -39.5t-81 -13.5q-20 0 -34 1.5t-24 3.5q-11 3 -19 6z" />
    <glyph glyph-name="Amacron" unicode="&#x100;" horiz-adv-x="715" 
d="M324 784l12 78h310l-13 -78h-309zM546 707l141 -707h-123l-36 183h-278l-94 -183h-127l365 707h152zM423 525l-131 -249h221l-51 249l-8 74z" />
    <glyph glyph-name="amacron" unicode="&#x101;" horiz-adv-x="592" 
d="M254 620l12 79h310l-12 -79h-310zM521 0h-97v81q-9 -12 -24.5 -27.5t-37 -30t-50 -24t-63.5 -9.5t-65.5 13t-53.5 39t-36 65t-13 92q0 64 19 125t58 108.5t98 76t138 28.5q39 0 76.5 -6t66.5 -14q34 -9 64 -20zM470 428q-14 3 -30 7q-14 3 -30 5.5t-32 2.5q-44 0 -77 -20
t-55 -52t-33 -73t-11 -84q0 -37 7 -61.5t19 -38.5t27.5 -20t31.5 -6q26 0 49.5 13t43 31t33.5 37.5t22 32.5z" />
    <glyph glyph-name="Abreve" unicode="&#x102;" horiz-adv-x="715" 
d="M662 916q-3 -18 -15.5 -44.5t-35 -50.5t-55.5 -41.5t-77 -17.5q-55 0 -83.5 22t-40.5 49.5t-13 52.5t0 30h82q0 -2 1 -13.5t7 -25t20 -24.5t39 -11q22 0 38 9t27 21.5t17 25t7 18.5h82zM546 707l141 -707h-123l-36 183h-278l-94 -183h-127l365 707h152zM423 525
l-131 -249h221l-51 249l-8 74z" />
    <glyph glyph-name="abreve" unicode="&#x103;" horiz-adv-x="592" 
d="M590 743q-3 -18 -15.5 -44t-35 -50.5t-56 -41.5t-77.5 -17q-55 0 -83.5 22t-40.5 49.5t-12.5 52t0.5 29.5h82q0 -1 1 -13t7 -25.5t20 -24.5t39 -11q22 0 38 9t27.5 21.5t17 25t6.5 18.5h82zM521 0h-97v81q-9 -12 -24.5 -27.5t-37 -30t-50 -24t-63.5 -9.5t-65.5 13
t-53.5 39t-36 65t-13 92q0 64 19 125t58 108.5t98 76t138 28.5q39 0 76.5 -6t66.5 -14q34 -9 64 -20zM470 428q-14 3 -30 7q-14 3 -30 5.5t-32 2.5q-44 0 -77 -20t-55 -52t-33 -73t-11 -84q0 -37 7 -61.5t19 -38.5t27.5 -20t31.5 -6q26 0 49.5 13t43 31t33.5 37.5t22 32.5z
" />
    <glyph glyph-name="Aogonek" unicode="&#x104;" horiz-adv-x="715" 
d="M546 707l141 -707q-11 -2 -31.5 -11t-40 -22.5t-34 -31t-14.5 -36.5q0 -13 10 -23t35 -10q19 0 38 5t27 7l-10 -74q-14 -5 -41 -12t-60 -7q-53 0 -80.5 21.5t-27.5 53.5q0 26 13.5 48t32 40t39.5 31t36 21h-15l-36 183h-278l-94 -183h-127l365 707h152zM423 525
l-131 -249h221l-51 249l-8 74z" />
    <glyph glyph-name="aogonek" unicode="&#x105;" horiz-adv-x="592" 
d="M521 0q-11 -2 -31 -11t-39.5 -22.5t-34 -31t-14.5 -36.5q0 -13 9.5 -23t35.5 -10q18 0 37 5t27 7l-8 -74q-15 -5 -42.5 -12t-59.5 -7q-53 0 -80.5 21.5t-27.5 53.5q0 31 16 56t38 43.5t43.5 29.5t33.5 16v76q-9 -12 -24.5 -27.5t-37 -30t-50 -24t-63.5 -9.5t-65.5 13
t-53.5 39t-36 65t-13 92q0 64 19 125t58 108.5t98 76t138 28.5q39 0 76.5 -6t66.5 -14q34 -9 64 -20zM470 428q-14 3 -30 7q-14 3 -30 5.5t-32 2.5q-44 0 -77 -20t-55 -52t-33 -73t-11 -84q0 -37 7 -61.5t19 -38.5t27.5 -20t31.5 -6q26 0 49.5 13t43 31t33.5 37.5t22 32.5z
" />
    <glyph glyph-name="Cacute" unicode="&#x106;" horiz-adv-x="633" 
d="M424 763l117 159h128l-147 -159h-98zM509 613q-65 0 -117 -23t-88.5 -63.5t-56 -95.5t-19.5 -119q0 -61 17.5 -102.5t46.5 -67t68 -37t83 -11.5q28 0 51.5 3t40.5 8q20 5 36 12l8 -99q-17 -8 -41 -14q-20 -5 -50 -9.5t-69 -4.5q-158 0 -237.5 81t-79.5 230q0 89 28 165.5
t80 132t126.5 87t167.5 31.5q40 0 72.5 -5t55.5 -11q27 -7 48 -16l-34 -98l-10.5 4t-28.5 9t-43 9t-55 4z" />
    <glyph glyph-name="cacute" unicode="&#x107;" horiz-adv-x="503" 
d="M307 592l117 159h127l-146 -159h-98zM492 416q-12 7 -28 12q-14 5 -32 9t-41 4q-44 0 -79 -16t-59.5 -44.5t-37.5 -67t-13 -83.5q0 -80 39.5 -112t104.5 -32q23 0 40.5 2.5t29.5 6.5q14 4 25 9l10 -90q-13 -7 -32 -12q-17 -5 -41.5 -8.5t-56.5 -3.5q-53 0 -97 12.5
t-76 40.5t-49.5 71.5t-17.5 106.5q0 69 21.5 127t61.5 100t95.5 65.5t124.5 23.5q32 0 58.5 -5t45.5 -11q22 -7 38 -15z" />
    <glyph glyph-name="Ccircumflex" unicode="&#x108;" horiz-adv-x="633" 
d="M573 921l97 -159h-96l-60 95l-89 -95h-98l147 159h99zM509 613q-65 0 -117 -23t-88.5 -63.5t-56 -95.5t-19.5 -119q0 -61 17.5 -102.5t46.5 -67t68 -37t83 -11.5q28 0 51.5 3t40.5 8q20 5 36 12l8 -99q-17 -8 -41 -14q-20 -5 -50 -9.5t-69 -4.5q-158 0 -237.5 81
t-79.5 230q0 89 28 165.5t80 132t126.5 87t167.5 31.5q40 0 72.5 -5t55.5 -11q27 -7 48 -16l-34 -98l-10.5 4t-28.5 9t-43 9t-55 4z" />
    <glyph glyph-name="ccircumflex" unicode="&#x109;" horiz-adv-x="503" 
d="M442 751l97 -159h-97l-60 94l-89 -94h-97l146 159h100zM492 416q-12 7 -28 12q-14 5 -32 9t-41 4q-44 0 -79 -16t-59.5 -44.5t-37.5 -67t-13 -83.5q0 -80 39.5 -112t104.5 -32q23 0 40.5 2.5t29.5 6.5q14 4 25 9l10 -90q-13 -7 -32 -12q-17 -5 -41.5 -8.5t-56.5 -3.5
q-53 0 -97 12.5t-76 40.5t-49.5 71.5t-17.5 106.5q0 69 21.5 127t61.5 100t95.5 65.5t124.5 23.5q32 0 58.5 -5t45.5 -11q22 -7 38 -15z" />
    <glyph glyph-name="Cdotaccent" unicode="&#x10a;" horiz-adv-x="633" 
d="M583 859q0 -32 -19 -54t-61 -22q-31 0 -45 14.5t-14 37.5q0 30 18 52.5t62 22.5q31 0 45 -14.5t14 -36.5zM509 613q-65 0 -117 -23t-88.5 -63.5t-56 -95.5t-19.5 -119q0 -61 17.5 -102.5t46.5 -67t68 -37t83 -11.5q28 0 51.5 3t40.5 8q20 5 36 12l8 -99q-17 -8 -41 -14
q-20 -5 -50 -9.5t-69 -4.5q-158 0 -237.5 81t-79.5 230q0 89 28 165.5t80 132t126.5 87t167.5 31.5q40 0 72.5 -5t55.5 -11q27 -7 48 -16l-34 -98l-10.5 4t-28.5 9t-43 9t-55 4z" />
    <glyph glyph-name="cdotaccent" unicode="&#x10b;" horiz-adv-x="503" 
d="M465 686q0 -30 -18 -52.5t-61 -22.5q-32 0 -45.5 14.5t-13.5 37.5q0 30 18 52.5t62 22.5q31 0 44.5 -14.5t13.5 -37.5zM492 416q-12 7 -28 12q-14 5 -32 9t-41 4q-44 0 -79 -16t-59.5 -44.5t-37.5 -67t-13 -83.5q0 -80 39.5 -112t104.5 -32q23 0 40.5 2.5t29.5 6.5
q14 4 25 9l10 -90q-13 -7 -32 -12q-17 -5 -41.5 -8.5t-56.5 -3.5q-53 0 -97 12.5t-76 40.5t-49.5 71.5t-17.5 106.5q0 69 21.5 127t61.5 100t95.5 65.5t124.5 23.5q32 0 58.5 -5t45.5 -11q22 -7 38 -15z" />
    <glyph glyph-name="Ccaron" unicode="&#x10c;" horiz-adv-x="633" 
d="M448 762l-97 159h98l60 -94l89 94h97l-147 -159h-100zM509 613q-65 0 -117 -23t-88.5 -63.5t-56 -95.5t-19.5 -119q0 -61 17.5 -102.5t46.5 -67t68 -37t83 -11.5q28 0 51.5 3t40.5 8q20 5 36 12l8 -99q-17 -8 -41 -14q-20 -5 -50 -9.5t-69 -4.5q-158 0 -237.5 81
t-79.5 230q0 89 28 165.5t80 132t126.5 87t167.5 31.5q40 0 72.5 -5t55.5 -11q27 -7 48 -16l-34 -98l-10.5 4t-28.5 9t-43 9t-55 4z" />
    <glyph glyph-name="ccaron" unicode="&#x10d;" horiz-adv-x="503" 
d="M333 592l-97 159h97l60 -95l89 95h97l-147 -159h-99zM492 416q-12 7 -28 12q-14 5 -32 9t-41 4q-44 0 -79 -16t-59.5 -44.5t-37.5 -67t-13 -83.5q0 -80 39.5 -112t104.5 -32q23 0 40.5 2.5t29.5 6.5q14 4 25 9l10 -90q-13 -7 -32 -12q-17 -5 -41.5 -8.5t-56.5 -3.5
q-53 0 -97 12.5t-76 40.5t-49.5 71.5t-17.5 106.5q0 69 21.5 127t61.5 100t95.5 65.5t124.5 23.5q32 0 58.5 -5t45.5 -11q22 -7 38 -15z" />
    <glyph glyph-name="Dcaron" unicode="&#x10e;" horiz-adv-x="720" 
d="M385 762l-98 159h98l60 -94l89 94h97l-147 -159h-99zM190 707h248q81 0 136.5 -21.5t90 -59t50 -89t15.5 -111.5q0 -80 -20.5 -156.5t-67.5 -136.5t-124.5 -96.5t-192.5 -36.5h-247zM356 104q65 0 112 26t78 69t45.5 99t14.5 116q0 42 -9 76.5t-29.5 60t-53 39.5
t-78.5 14h-140l-79 -500h139z" />
    <glyph glyph-name="dcaron" unicode="&#x10f;" horiz-adv-x="691" 
d="M673 524q7 4 18 15.5t21.5 26t19.5 30t12 28.5q-24 1 -33 14t-9 32q0 29 17 50t58 21q25 0 39.5 -14.5t14.5 -46.5q0 -33 -13.5 -63.5t-32.5 -56t-38 -43.5t-29 -26zM424 0v81q-9 -12 -24.5 -28t-37.5 -30t-50 -23.5t-63 -9.5q-34 0 -64.5 13t-53.5 38.5t-36.5 64.5
t-13.5 92q0 64 19 125t58 108.5t98 76.5t138 29q26 0 49.5 -2.5t43.5 -7.5l2 25l28 179h120l-116 -731h-97zM470 428q-14 3 -30 7q-14 3 -30 5.5t-32 2.5q-44 0 -77 -20t-55 -52t-33 -73t-11 -84q0 -37 7 -61.5t19 -38.5t27.5 -20t31.5 -6q26 0 49.5 13t43 31t33.5 37.5
t22 32.5z" />
    <glyph glyph-name="Dcroat" unicode="&#x110;" horiz-adv-x="720" 
d="M79 402h62l49 305h248q81 0 136.5 -21.5t90 -59t50 -89t15.5 -111.5q0 -80 -20.5 -156.5t-67.5 -136.5t-124.5 -96.5t-192.5 -36.5h-247l48 304h-63zM356 104q65 0 112 26t78 69t45.5 99t14.5 116q0 42 -9 76.5t-29.5 60t-53 39.5t-78.5 14h-140l-32 -202h155l-15 -98
h-156l-31 -200h139z" />
    <glyph glyph-name="dcroat" unicode="&#x111;" horiz-adv-x="592" 
d="M372 664h134l11 67h120l-11 -67h76l-12 -71h-75l-94 -593h-97v81q-9 -12 -24.5 -28t-37.5 -30t-50 -23.5t-63 -9.5q-34 0 -64.5 13t-53.5 38.5t-36.5 64.5t-13.5 92q0 64 19 125t58 108.5t98 76.5t138 29q26 0 49.5 -2.5t43.5 -7.5l2 25l6 41h-134zM470 428q-14 3 -30 7
q-14 3 -30 5.5t-32 2.5q-44 0 -77 -20t-55 -52t-33 -73t-11 -84q0 -37 7 -61.5t19 -38.5t27.5 -20t31.5 -6q26 0 49.5 13t43 31t33.5 37.5t22 32.5z" />
    <glyph glyph-name="Emacron" unicode="&#x112;" horiz-adv-x="631" 
d="M300 784l12 78h310l-13 -78h-309zM78 0l112 707h489l-16 -103h-367l-31 -194h321l-16 -103h-321l-33 -204h367l-16 -103h-489z" />
    <glyph glyph-name="emacron" unicode="&#x113;" horiz-adv-x="549" 
d="M232 620l12 79h310l-13 -79h-309zM384 537q45 0 77.5 -11t53.5 -29.5t31 -44t10 -54.5q0 -36 -16 -67.5t-52 -55t-93 -37t-139 -13.5h-24.5t-26.5 1q-1 -7 -1 -13.5v-12.5q0 -116 125 -116q31 0 57.5 5.5t46.5 12.5q23 8 41 19l16 -90q-20 -12 -47 -21q-23 -8 -56 -14
t-75 -6q-60 0 -103.5 15.5t-71.5 44t-41.5 69t-13.5 90.5q0 64 20.5 123.5t59.5 105t95 72.5t127 27zM216 306q45 0 86 3.5t72.5 12.5t50 25.5t18.5 42.5q0 25 -18 42t-56 17q-26 0 -50.5 -9.5t-45 -27.5t-35.5 -44.5t-22 -61.5z" />
    <glyph glyph-name="Ebreve" unicode="&#x114;" horiz-adv-x="631" 
d="M635 916q-3 -18 -15.5 -44.5t-35 -50.5t-55.5 -41.5t-77 -17.5q-36 0 -60.5 10.5t-40 26.5t-23 35t-10.5 36t-3 29.5v16.5h83q0 -2 0.5 -13.5t7 -25t20 -24.5t38.5 -11q22 0 38 9t27.5 21.5t17.5 25t7 18.5h81zM78 0l112 707h489l-16 -103h-367l-31 -194h321l-16 -103
h-321l-33 -204h367l-16 -103h-489z" />
    <glyph glyph-name="ebreve" unicode="&#x115;" horiz-adv-x="549" 
d="M567 744q-3 -18 -15.5 -44t-35 -50.5t-55.5 -41.5t-77 -17q-37 0 -61.5 10.5t-40 26t-23 34.5t-10.5 36t-3 29.5t1 16.5h82q0 -2 1 -13.5t7 -25t20 -24.5t39 -11q22 0 38 9t27.5 21.5t17 25t6.5 18.5h82zM384 537q45 0 77.5 -11t53.5 -29.5t31 -44t10 -54.5
q0 -36 -16 -67.5t-52 -55t-93 -37t-139 -13.5h-24.5t-26.5 1q-1 -7 -1 -13.5v-12.5q0 -116 125 -116q31 0 57.5 5.5t46.5 12.5q23 8 41 19l16 -90q-20 -12 -47 -21q-23 -8 -56 -14t-75 -6q-60 0 -103.5 15.5t-71.5 44t-41.5 69t-13.5 90.5q0 64 20.5 123.5t59.5 105t95 72.5
t127 27zM216 306q45 0 86 3.5t72.5 12.5t50 25.5t18.5 42.5q0 25 -18 42t-56 17q-26 0 -50.5 -9.5t-45 -27.5t-35.5 -44.5t-22 -61.5z" />
    <glyph glyph-name="Edotaccent" unicode="&#x116;" horiz-adv-x="631" 
d="M535 859q0 -32 -18.5 -54t-60.5 -22q-32 0 -45.5 14.5t-13.5 37.5q0 30 18 52.5t62 22.5q31 0 44.5 -14.5t13.5 -36.5zM78 0l112 707h489l-16 -103h-367l-31 -194h321l-16 -103h-321l-33 -204h367l-16 -103h-489z" />
    <glyph glyph-name="edotaccent" unicode="&#x117;" horiz-adv-x="549" 
d="M461 686q0 -30 -18.5 -52.5t-61.5 -22.5q-32 0 -46 14.5t-14 37.5q0 30 18.5 52.5t62.5 22.5q31 0 45 -14.5t14 -37.5zM384 537q45 0 77.5 -11t53.5 -29.5t31 -44t10 -54.5q0 -36 -16 -67.5t-52 -55t-93 -37t-139 -13.5h-24.5t-26.5 1q-1 -7 -1 -13.5v-12.5
q0 -116 125 -116q31 0 57.5 5.5t46.5 12.5q23 8 41 19l16 -90q-20 -12 -47 -21q-23 -8 -56 -14t-75 -6q-60 0 -103.5 15.5t-71.5 44t-41.5 69t-13.5 90.5q0 64 20.5 123.5t59.5 105t95 72.5t127 27zM216 306q45 0 86 3.5t72.5 12.5t50 25.5t18.5 42.5q0 25 -18 42t-56 17
q-26 0 -50.5 -9.5t-45 -27.5t-35.5 -44.5t-22 -61.5z" />
    <glyph glyph-name="Eogonek" unicode="&#x118;" horiz-adv-x="631" 
d="M567 0q-11 -2 -31 -11t-39.5 -22.5t-34 -31t-14.5 -36.5q0 -13 9.5 -23t34.5 -10q19 0 38 5t27 7l-9 -74q-14 -5 -41.5 -12t-59.5 -7q-54 0 -81 21.5t-27 53.5q0 26 13 48t32 40t39.5 31t35.5 21h-381l112 707h489l-16 -103h-367l-31 -194h321l-16 -103h-321l-33 -204
h367l-16 -103v0z" />
    <glyph glyph-name="eogonek" unicode="&#x119;" horiz-adv-x="549" 
d="M384 537q45 0 77.5 -11t53.5 -29.5t31 -44t10 -54.5q0 -36 -16 -67.5t-52 -55t-93 -37t-139 -13.5h-24.5t-26.5 1q-1 -7 -1 -13.5v-12.5q0 -116 125 -116q31 0 57.5 5.5t46.5 12.5q23 8 41 19l16 -90q-12 -7 -27 -13q-13 -5 -31.5 -10.5t-41.5 -10.5q-14 -4 -32.5 -13
t-35.5 -22t-28.5 -29t-11.5 -34q0 -13 9.5 -23t34.5 -10q18 0 37 5t27 7l-8 -74q-15 -5 -42 -12t-60 -7q-53 0 -80.5 21.5t-27.5 53.5q0 24 10.5 44t26.5 36.5t34.5 29.5t35.5 22q-103 8 -150 66t-47 151q0 64 20.5 123.5t59.5 105t95 72.5t127 27zM216 306q45 0 86 3.5
t72.5 12.5t50 25.5t18.5 42.5q0 25 -18 42t-56 17q-26 0 -50.5 -9.5t-45 -27.5t-35.5 -44.5t-22 -61.5z" />
    <glyph glyph-name="Ecaron" unicode="&#x11a;" horiz-adv-x="631" 
d="M400 762l-97 159h98l59 -94l90 94h97l-147 -159h-100zM78 0l112 707h489l-16 -103h-367l-31 -194h321l-16 -103h-321l-33 -204h367l-16 -103h-489z" />
    <glyph glyph-name="ecaron" unicode="&#x11b;" horiz-adv-x="549" 
d="M321 592l-97 159h97l60 -95l89 95h98l-147 -159h-100zM384 537q45 0 77.5 -11t53.5 -29.5t31 -44t10 -54.5q0 -36 -16 -67.5t-52 -55t-93 -37t-139 -13.5h-24.5t-26.5 1q-1 -7 -1 -13.5v-12.5q0 -116 125 -116q31 0 57.5 5.5t46.5 12.5q23 8 41 19l16 -90
q-20 -12 -47 -21q-23 -8 -56 -14t-75 -6q-60 0 -103.5 15.5t-71.5 44t-41.5 69t-13.5 90.5q0 64 20.5 123.5t59.5 105t95 72.5t127 27zM216 306q45 0 86 3.5t72.5 12.5t50 25.5t18.5 42.5q0 25 -18 42t-56 17q-26 0 -50.5 -9.5t-45 -27.5t-35.5 -44.5t-22 -61.5z" />
    <glyph glyph-name="Gcircumflex" unicode="&#x11c;" horiz-adv-x="688" 
d="M583 921l97 -159h-98l-59 95l-90 -95h-97l147 159h100zM512 612q-70 0 -124 -25.5t-90.5 -68t-55 -99t-18.5 -118.5q0 -57 17 -96.5t46.5 -64t69 -35.5t84.5 -11q20 0 37.5 1.5t34.5 3.5l40 253h119l-53 -328q-25 -10 -56 -17q-26 -7 -61.5 -12t-77.5 -5
q-82 0 -142.5 21.5t-100.5 61t-59.5 96t-19.5 125.5q0 90 28 167.5t81 134t129 89t171 32.5q44 0 80 -5.5t62 -12.5q30 -8 54 -17l-35 -98q-21 8 -47 14q-22 5 -51 9.5t-62 4.5z" />
    <glyph glyph-name="gcircumflex" unicode="&#x11d;" horiz-adv-x="592" 
d="M484 751l97 -159h-97l-60 94l-89 -94h-97l146 159h100zM527 28q-7 -42 -24 -85t-50 -78t-86 -57t-132 -22q-35 0 -62 3.5t-45 8.5q-21 5 -37 12l22 92q14 -7 32 -11q15 -5 36.5 -8t48.5 -3q79 0 126 36.5t55 114.5l5 47q-11 -14 -27 -28.5t-37 -26.5t-47 -20t-58 -8
q-33 0 -63.5 12t-53 37t-36 63.5t-13.5 91.5q0 65 19 126t58 108t98 75.5t138 28.5q40 0 77 -6t66 -14q33 -9 64 -20zM470 428q-14 3 -30 7q-14 3 -30 5.5t-32 2.5q-45 0 -78 -19.5t-54.5 -52t-32.5 -73t-11 -82.5q0 -36 7 -60t19 -38t27 -19.5t32 -5.5q26 0 49.5 12
t43 29.5t33.5 36t22 31.5z" />
    <glyph glyph-name="Gbreve" unicode="&#x11e;" horiz-adv-x="688" 
d="M691 916q-3 -18 -15.5 -44.5t-35 -50.5t-55.5 -41.5t-77 -17.5q-55 0 -83.5 22t-40.5 49.5t-13 52.5t0 30h82q0 -2 1 -13.5t7 -25t20 -24.5t39 -11q22 0 38 9t27.5 21.5t17 25t6.5 18.5h82zM512 612q-70 0 -124 -25.5t-90.5 -68t-55 -99t-18.5 -118.5q0 -57 17 -96.5
t46.5 -64t69 -35.5t84.5 -11q20 0 37.5 1.5t34.5 3.5l40 253h119l-53 -328q-25 -10 -56 -17q-26 -7 -61.5 -12t-77.5 -5q-82 0 -142.5 21.5t-100.5 61t-59.5 96t-19.5 125.5q0 90 28 167.5t81 134t129 89t171 32.5q44 0 80 -5.5t62 -12.5q30 -8 54 -17l-35 -98q-21 8 -47 14
q-22 5 -51 9.5t-62 4.5z" />
    <glyph glyph-name="gbreve" unicode="&#x11f;" horiz-adv-x="594" 
d="M601 753q-2 -18 -14.5 -44t-35 -50.5t-56 -41.5t-77.5 -17q-37 0 -61.5 10.5t-40 26t-23 34.5t-10.5 36t-2.5 29.5t1.5 16.5h81q0 -2 1 -13.5t7.5 -25t20.5 -24.5t39 -11q22 0 38 9.5t27 21.5t17 24.5t7 18.5h81zM527 28q-7 -42 -24 -85t-50 -78t-86 -57t-132 -22
q-35 0 -62 3.5t-45 8.5q-21 5 -37 12l22 92q14 -7 32 -11q15 -5 36.5 -8t48.5 -3q79 0 126 36.5t55 114.5l5 47q-11 -14 -27 -28.5t-37 -26.5t-47 -20t-58 -8q-33 0 -63.5 12t-53 37t-36 63.5t-13.5 91.5q0 65 19 126t58 108t98 75.5t138 28.5q40 0 77 -6t66 -14
q33 -9 64 -20zM470 428q-14 3 -30 7q-14 3 -30 5.5t-32 2.5q-45 0 -78 -19.5t-54.5 -52t-32.5 -73t-11 -82.5q0 -36 7 -60t19 -38t27 -19.5t32 -5.5q26 0 49.5 12t43 29.5t33.5 36t22 31.5z" />
    <glyph glyph-name="Gdotaccent" unicode="&#x120;" horiz-adv-x="688" 
d="M599 859q0 -32 -18.5 -54t-61.5 -22q-32 0 -45 14.5t-13 37.5q0 30 17.5 52.5t60.5 22.5q32 0 46 -14.5t14 -36.5zM512 612q-70 0 -124 -25.5t-90.5 -68t-55 -99t-18.5 -118.5q0 -57 17 -96.5t46.5 -64t69 -35.5t84.5 -11q20 0 37.5 1.5t34.5 3.5l40 253h119l-53 -328
q-25 -10 -56 -17q-26 -7 -61.5 -12t-77.5 -5q-82 0 -142.5 21.5t-100.5 61t-59.5 96t-19.5 125.5q0 90 28 167.5t81 134t129 89t171 32.5q44 0 80 -5.5t62 -12.5q30 -8 54 -17l-35 -98q-21 8 -47 14q-22 5 -51 9.5t-62 4.5z" />
    <glyph glyph-name="gdotaccent" unicode="&#x121;" horiz-adv-x="592" 
d="M489 686q0 -30 -18 -52.5t-61 -22.5q-32 0 -45.5 14.5t-13.5 37.5q0 30 17.5 52.5t61.5 22.5q32 0 45.5 -14.5t13.5 -37.5zM527 28q-7 -42 -24 -85t-50 -78t-86 -57t-132 -22q-35 0 -62 3.5t-45 8.5q-21 5 -37 12l22 92q14 -7 32 -11q15 -5 36.5 -8t48.5 -3
q79 0 126 36.5t55 114.5l5 47q-11 -14 -27 -28.5t-37 -26.5t-47 -20t-58 -8q-33 0 -63.5 12t-53 37t-36 63.5t-13.5 91.5q0 65 19 126t58 108t98 75.5t138 28.5q40 0 77 -6t66 -14q33 -9 64 -20zM470 428q-14 3 -30 7q-14 3 -30 5.5t-32 2.5q-45 0 -78 -19.5t-54.5 -52
t-32.5 -73t-11 -82.5q0 -36 7 -60t19 -38t27 -19.5t32 -5.5q26 0 49.5 12t43 29.5t33.5 36t22 31.5z" />
    <glyph glyph-name="Gcommaaccent" unicode="&#x122;" horiz-adv-x="688" 
d="M305 -286q7 5 18 16.5t22 25.5t20 29.5t12 28.5q-24 1 -33.5 14t-9.5 32q0 29 17 50.5t59 21.5q23 0 38.5 -15t15.5 -46q0 -33 -14 -64t-32.5 -56.5t-38 -43.5t-30.5 -25zM512 612q-70 0 -124 -25.5t-90.5 -68t-55 -99t-18.5 -118.5q0 -57 17 -96.5t46.5 -64t69 -35.5
t84.5 -11q20 0 37.5 1.5t34.5 3.5l40 253h119l-53 -328q-25 -10 -56 -17q-26 -7 -61.5 -12t-77.5 -5q-82 0 -142.5 21.5t-100.5 61t-59.5 96t-19.5 125.5q0 90 28 167.5t81 134t129 89t171 32.5q44 0 80 -5.5t62 -12.5q30 -8 54 -17l-35 -98q-21 8 -47 14q-22 5 -51 9.5
t-62 4.5z" />
    <glyph glyph-name="gcommaaccent" unicode="&#x123;" horiz-adv-x="592" 
d="M518 819q-7 -5 -18 -16t-21.5 -25.5t-19.5 -29.5t-13 -28q24 -1 33.5 -14.5t9.5 -31.5q0 -29 -17 -50.5t-59 -21.5q-24 0 -38.5 14.5t-14.5 46.5q0 33 13.5 63.5t32.5 56t38 43.5t30 26zM527 28q-7 -42 -24 -85t-50 -78t-86 -57t-132 -22q-35 0 -62 3.5t-45 8.5
q-21 5 -37 12l22 92q14 -7 32 -11q15 -5 36.5 -8t48.5 -3q79 0 126 36.5t55 114.5l5 47q-11 -14 -27 -28.5t-37 -26.5t-47 -20t-58 -8q-33 0 -63.5 12t-53 37t-36 63.5t-13.5 91.5q0 65 19 126t58 108t98 75.5t138 28.5q40 0 77 -6t66 -14q33 -9 64 -20zM470 428
q-14 3 -30 7q-14 3 -30 5.5t-32 2.5q-45 0 -78 -19.5t-54.5 -52t-32.5 -73t-11 -82.5q0 -36 7 -60t19 -38t27 -19.5t32 -5.5q26 0 49.5 12t43 29.5t33.5 36t22 31.5z" />
    <glyph glyph-name="Hcircumflex" unicode="&#x124;" horiz-adv-x="730" 
d="M558 921l97 -159h-97l-60 95l-89 -95h-97l147 159h99zM529 0l47 295h-329l-47 -295h-122l112 707h122l-47 -301h329l47 301h123l-112 -707h-123z" />
    <glyph glyph-name="hcircumflex" unicode="&#x125;" 
d="M325 937l97 -159h-98l-60 94l-88 -94h-98l147 159h100zM307 731l-37 -231l-12 -57q6 7 22.5 22.5t41.5 31.5t58.5 28t74.5 12q70 0 106.5 -39.5t36.5 -108.5q0 -10 -1 -21.5t-3 -23.5l-54 -344h-121l53 335q3 16 3 31q0 72 -69 72q-32 0 -61.5 -17t-52.5 -37
q-26 -24 -49 -54l-52 -330h-120l116 731h120z" />
    <glyph glyph-name="Hbar" unicode="&#x126;" horiz-adv-x="730" 
d="M529 0l47 295h-329l-47 -295h-122l84 531h-59l12 74h59l16 102h122l-16 -102h329l16 102h123l-16 -102h58l-12 -74h-58l-84 -531h-123zM594 406l19 125h-329l-19 -125h329z" />
    <glyph glyph-name="hbar" unicode="&#x127;" 
d="M307 731l-11 -67h137l-12 -71h-136l-15 -93l-12 -57q6 7 22.5 22.5t41.5 31.5t58.5 28t74.5 12q70 0 106.5 -39.5t36.5 -108.5q0 -10 -1 -21.5t-3 -23.5l-54 -344h-121l53 335q3 16 3 31q0 72 -69 72q-32 0 -61.5 -17t-52.5 -37q-26 -24 -49 -54l-52 -330h-120l94 593
h-74l12 71h73l11 67h120z" />
    <glyph glyph-name="Itilde" unicode="&#x128;" horiz-adv-x="281" 
d="M79 0l112 707h123l-112 -707h-123zM87 764q-1 1 -1 4v11q0 25 7.5 48.5t22.5 42t37.5 29.5t52.5 11q25 0 43 -10t32 -21.5t26.5 -21.5t27.5 -10q19 0 29 12t10 33q0 3 -0.5 6t-0.5 5q-1 3 -1 5h84v-4q0 -2 0.5 -5t0.5 -5q0 -26 -7.5 -49.5t-22.5 -42t-37.5 -29.5
t-52.5 -11q-27 0 -44.5 10t-31 21.5t-25.5 21.5t-28 10q-17 0 -27.5 -12.5t-10.5 -33.5v-15h-83z" />
    <glyph glyph-name="itilde" unicode="&#x129;" horiz-adv-x="263" 
d="M71 0l83 527h121l-83 -527h-121zM51 591q-1 1 -1 4v11q0 24 8 47.5t23 41.5t37.5 29t51.5 11q25 0 43 -9.5t32 -21.5t26.5 -21.5t27.5 -9.5q18 0 28.5 12.5t10.5 32.5q0 3 -0.5 6t-0.5 5q-1 3 -1 5h85v-13q0 -26 -7.5 -49.5t-22.5 -42t-37.5 -29.5t-52.5 -11
q-27 0 -44.5 9.5t-31 21.5t-25.5 21.5t-28 9.5q-17 0 -27 -12.5t-10 -33.5v-14h-84z" />
    <glyph glyph-name="Imacron" unicode="&#x12a;" horiz-adv-x="281" 
d="M79 0l112 707h123l-112 -707h-123zM107 784l12 78h309l-12 -78h-309z" />
    <glyph glyph-name="imacron" unicode="&#x12b;" horiz-adv-x="263" 
d="M81 620l13 79h289l-13 -79h-289zM192 0h-121l83 527h121z" />
    <glyph glyph-name="Ibreve" unicode="&#x12c;" horiz-adv-x="281" 
d="M79 0l112 707h123l-112 -707h-123zM447 916q-3 -18 -15.5 -44.5t-35.5 -50.5t-56 -41.5t-77 -17.5q-37 0 -61 10.5t-39.5 26.5t-23 35t-10.5 36t-3 29.5t1 16.5h82q0 -2 1 -13.5t7 -25t20 -24.5t39 -11q22 0 38 9t27 21.5t17 25t7 18.5h82z" />
    <glyph glyph-name="ibreve" unicode="&#x12d;" horiz-adv-x="262" 
d="M71 0l83 527h120l-83 -527h-120zM403 744q-2 -18 -14.5 -44t-35 -50.5t-56 -41.5t-77.5 -17q-37 0 -61.5 10.5t-40 26t-23 34.5t-10.5 36t-2.5 29.5t1.5 16.5h81q0 -2 1 -13.5t7.5 -25t20.5 -24.5t39 -11q22 0 38 9t27 21.5t17 25t7 18.5h81z" />
    <glyph glyph-name="Iogonek" unicode="&#x12e;" horiz-adv-x="281" 
d="M203 0q-11 -2 -31 -11t-39.5 -22.5t-34 -31t-14.5 -36.5q0 -13 9.5 -23t34.5 -10q18 0 37 5t27 7l-8 -74q-15 -5 -42 -12t-60 -7q-53 0 -80.5 21.5t-27.5 53.5q0 26 13.5 48t32 40t39.5 31t36 21h-16l112 707h123l-112 -707h1z" />
    <glyph glyph-name="iogonek" unicode="&#x12f;" horiz-adv-x="261" 
d="M191 0q-12 -3 -32 -11.5t-39.5 -22t-33.5 -31t-14 -36.5q0 -13 9.5 -23t35.5 -10q18 0 37 5t27 7l-9 -74q-14 -5 -41 -12t-60 -7q-53 0 -80.5 21.5t-27.5 53.5q0 27 13.5 49t33.5 39.5t42.5 30.5t40.5 21h-22l83 527h120zM309 680q0 -32 -19 -55t-63 -23q-33 0 -47.5 15
t-14.5 39q0 32 18.5 55t64.5 23q32 0 46.5 -15t14.5 -39z" />
    <glyph glyph-name="Idotaccent" unicode="&#x130;" horiz-adv-x="281" 
d="M79 0l112 707h123l-112 -707h-123zM340 839q0 -31 -18.5 -53.5t-60.5 -22.5q-32 0 -45.5 14.5t-13.5 37.5q0 31 18 53t61 22q32 0 45.5 -14t13.5 -37z" />
    <glyph glyph-name="dotlessi" unicode="&#x131;" horiz-adv-x="251" 
d="M65 0l83 527h121l-83 -527h-121z" />
    <glyph glyph-name="IJ" unicode="&#x132;" horiz-adv-x="727" 
d="M79 0l112 707h123l-112 -707h-123zM642 707h122l-79 -499q-8 -50 -24 -90t-42.5 -68.5t-65.5 -44t-93 -15.5q-31 0 -53.5 5t-38.5 12q-18 7 -32 17l34 92q9 -7 20 -12q10 -5 24 -8.5t33 -3.5q56 0 82 30.5t34 86.5z" />
    <glyph glyph-name="ij" unicode="&#x133;" horiz-adv-x="531" 
d="M71 0l83 527h120l-83 -527h-120zM309 685q0 -32 -19 -55.5t-63 -23.5q-33 0 -47 15.5t-14 38.5q0 32 18.5 55t63.5 23q33 0 47 -15t14 -38zM198 -111q5 -2 12 -4q6 -2 15 -3t20 -1q37 0 60.5 22t32.5 78l86 546h119l-86 -546q-16 -103 -66.5 -149t-134.5 -46q-32 0 -55 5
q-12 2 -22 5zM576 682q0 -34 -20 -55t-62 -21q-32 0 -46 14t-14 40q0 32 18.5 54.5t63.5 22.5q35 0 47.5 -15t12.5 -40z" />
    <glyph glyph-name="Jcircumflex" unicode="&#x134;" horiz-adv-x="444" 
d="M504 921l97 -159h-98l-60 95l-89 -95h-96l146 159h100zM360 707h122l-79 -499q-8 -50 -24 -90t-42.5 -68.5t-65.5 -44t-93 -15.5q-31 0 -53.5 5t-38.5 12q-18 7 -32 17l34 92q9 -7 20 -12q10 -5 24 -8.5t33 -3.5q56 0 82 30.5t34 86.5z" />
    <glyph glyph-name="jcircumflex" unicode="&#x135;" horiz-adv-x="272" 
d="M299 592l-59 94l-90 -94h-97l147 159h100l97 -159h-98zM-61 -111q5 -2 12 -4q6 -2 15 -3t20 -1q37 0 60.5 22t32.5 78l86 546h119l-86 -546q-17 -103 -67 -149t-134 -46q-32 0 -55 5q-12 2 -22 5z" />
    <glyph glyph-name="Kcommaaccent" unicode="&#x136;" horiz-adv-x="669" 
d="M224 -286q7 5 18 16.5t21.5 25.5t19.5 29.5t12 28.5q-24 1 -33 14t-9 32q0 29 17 50.5t59 21.5q23 0 38 -15t15 -46q0 -33 -13.5 -64t-32.5 -56.5t-38 -43.5t-30 -25zM492 0l-192 290h-53l-47 -290h-122l112 707h122l-50 -318q12 1 21 2t15 3q7 2 12 4q11 10 29 28.5
t40.5 42.5t47 50.5t48.5 53.5q56 62 121 134h138q-8 -11 -30.5 -37.5t-53.5 -61t-67 -74t-70 -76.5t-62.5 -67.5t-44.5 -47.5l223 -343h-137z" />
    <glyph glyph-name="kcommaaccent" unicode="&#x137;" horiz-adv-x="565" 
d="M178 -286q7 5 18 16.5t21.5 25.5t19.5 29.5t12 28.5q-24 1 -33.5 14t-9.5 32q0 29 17 50.5t59 21.5q23 0 38.5 -15t15.5 -46q0 -33 -14 -64t-32.5 -56.5t-38 -43.5t-29.5 -25zM411 0l-151 221h-34l-35 -221h-120l116 732h120l-68 -427q7 1 18 3.5t17 4.5q6 6 18.5 18
t28 28t33 34.5t35.5 37.5q41 44 89 96h134q-6 -9 -22.5 -28t-39.5 -44t-49.5 -53t-51.5 -54t-47 -48.5t-35 -36.5l177 -263h-133z" />
    <glyph glyph-name="kgreenlandic" unicode="&#x138;" horiz-adv-x="565" 
d="M409 0l-151 221h-32l-35 -221h-120l84 527h120l-36 -222q12 2 20.5 4t14.5 4q6 6 18.5 18t28 28t33.5 34.5t36 37.5q41 44 89 96h133q-6 -9 -22.5 -28t-39 -43.5t-48.5 -52t-51.5 -54t-47.5 -49.5t-36 -37l177 -263h-135z" />
    <glyph glyph-name="Lacute" unicode="&#x139;" horiz-adv-x="560" 
d="M205 763l117 159h128l-147 -159h-98zM78 0l112 707h122l-96 -602h315l-16 -105h-437z" />
    <glyph glyph-name="lacute" unicode="&#x13a;" horiz-adv-x="332" 
d="M195 778l117 158h128l-146 -158h-99zM303 12q-13 -7 -30 -11q-14 -5 -34 -8t-44 -3q-59 0 -83.5 31.5t-24.5 80.5q0 11 1 23t3 20l93 586h120l-91 -578q-3 -17 -3 -28q0 -42 37 -42q20 0 37 5q9 3 17 6z" />
    <glyph glyph-name="Lcommaaccent" unicode="&#x13b;" horiz-adv-x="560" 
d="M191 -286q7 5 18 16.5t21.5 25.5t19.5 29.5t12 28.5q-24 1 -33 14t-9 32q0 29 16.5 50.5t58.5 21.5q24 0 39 -15t15 -46q0 -33 -14 -64t-32.5 -56.5t-38 -43.5t-29.5 -25zM78 0l112 707h122l-96 -602h315l-16 -105h-437z" />
    <glyph glyph-name="lcommaaccent" unicode="&#x13c;" horiz-adv-x="335" 
d="M86 -286q7 5 18 16.5t21.5 25.5t19.5 29.5t12 28.5q-24 1 -33 14t-9 32q0 29 16.5 50.5t58.5 21.5q24 0 39 -15t15 -46q0 -33 -14 -64t-32.5 -56.5t-38 -43.5t-29.5 -25zM303 12q-13 -7 -30 -11q-14 -5 -34 -8t-44 -3q-59 0 -83.5 31.5t-24.5 80.5q0 11 1 23t3 20l93 586
h120l-91 -578q-3 -17 -3 -28q0 -42 37 -42q20 0 37 5q9 3 17 6z" />
    <glyph glyph-name="Lcaron" unicode="&#x13d;" horiz-adv-x="560" 
d="M447 524q7 5 18 16.5t21.5 26t19.5 30t12 28.5q-24 0 -33.5 13t-9.5 32q0 30 17 50.5t59 20.5q24 0 39 -14t15 -46q0 -33 -14 -64t-32.5 -56t-38 -43.5t-30.5 -26.5zM78 0l112 707h122l-96 -602h315l-16 -105h-437z" />
    <glyph glyph-name="lcaron" unicode="&#x13e;" horiz-adv-x="411" 
d="M353 524q7 5 18 16.5t21.5 26t19 30t11.5 28.5q-23 0 -32.5 13t-9.5 32q0 30 17 50.5t59 20.5q23 0 38 -14t15 -46q0 -33 -13.5 -64t-32.5 -56t-38 -43.5t-29 -26.5zM303 12q-13 -7 -30 -11q-14 -5 -34 -8t-44 -3q-59 0 -83.5 31.5t-24.5 80.5q0 11 1 23t3 20l93 586h120
l-91 -578q-3 -17 -3 -28q0 -42 37 -42q20 0 37 5q9 3 17 6z" />
    <glyph glyph-name="Ldot" unicode="&#x13f;" horiz-adv-x="569" 
d="M559 381q0 -32 -19 -56t-64 -24q-33 0 -47 15.5t-14 39.5q0 33 19 57t64 24q32 0 46.5 -16t14.5 -40zM78 0l112 707h122l-96 -602h315l-16 -105h-437z" />
    <glyph glyph-name="ldot" unicode="&#x140;" horiz-adv-x="511" 
d="M515 381q0 -32 -19 -56t-64 -24q-33 0 -47 15.5t-14 39.5q0 33 19 57t64 24q33 0 47 -16t14 -40zM303 12q-13 -7 -30 -11q-14 -5 -34 -8t-44 -3q-59 0 -83.5 31.5t-24.5 80.5q0 11 1 23t3 20l93 586h120l-91 -578q-3 -17 -3 -28q0 -42 37 -42q20 0 37 5q9 3 17 6z" />
    <glyph glyph-name="Lslash" unicode="&#x141;" horiz-adv-x="560" 
d="M78 0l47 297l-81 -21l-10 95l107 28l49 308h122l-44 -275l132 35l9 -94l-157 -42l-36 -226h315l-16 -105h-437z" />
    <glyph glyph-name="lslash" unicode="&#x142;" horiz-adv-x="332" 
d="M303 12q-13 -7 -30 -11q-14 -5 -34 -8t-44 -3q-59 0 -83.5 31.5t-24.5 80.5q0 11 1 23t3 20l24 151l-74 -20l-10 95l100 26l53 334h120l-47 -300l133 35l9 -94l-158 -43l-28 -176q-3 -17 -3 -28q0 -42 37 -42q20 0 37 5q9 3 17 6z" />
    <glyph glyph-name="Nacute" unicode="&#x143;" horiz-adv-x="737" 
d="M431 763l117 159h128l-147 -159h-98zM542 0l-269 505l-7 -76l-69 -429h-119l112 707h116l270 -514l7 75l69 439h120l-112 -707h-118z" />
    <glyph glyph-name="nacute" unicode="&#x144;" 
d="M328 592l117 159h128l-147 -159h-98zM250 527v-87q23 27 54 48q26 18 63 33.5t85 15.5q72 0 109 -40t37 -109q0 -11 -1 -22t-3 -22l-54 -344h-121l53 335q3 16 3 30q0 73 -70 73q-32 0 -61 -17.5t-52 -38.5q-26 -25 -49 -55l-52 -327h-120l83 527h96z" />
    <glyph glyph-name="Ncommaaccent" unicode="&#x145;" horiz-adv-x="737" 
d="M259 -286q7 5 18 16.5t21.5 25.5t19.5 29.5t12 28.5q-23 1 -32.5 14t-9.5 32q0 29 17 50.5t59 21.5q23 0 38 -15t15 -46q0 -33 -13.5 -64t-32.5 -56.5t-38 -43.5t-30 -25zM542 0l-269 505l-7 -76l-69 -429h-119l112 707h116l270 -514l7 75l69 439h120l-112 -707h-118z
" />
    <glyph glyph-name="ncommaaccent" unicode="&#x146;" 
d="M194 -286q7 5 18 16.5t21.5 25.5t19.5 29.5t12 28.5q-24 1 -33.5 14t-9.5 32q0 29 17 50.5t59 21.5q23 0 38 -15t15 -46q0 -33 -13.5 -64t-32.5 -56.5t-38 -43.5t-30 -25zM250 527v-87q23 27 54 48q26 18 63 33.5t85 15.5q72 0 109 -40t37 -109q0 -11 -1 -22t-3 -22
l-54 -344h-121l53 335q3 16 3 30q0 73 -70 73q-32 0 -61 -17.5t-52 -38.5q-26 -25 -49 -55l-52 -327h-120l83 527h96z" />
    <glyph glyph-name="Ncaron" unicode="&#x147;" horiz-adv-x="737" 
d="M441 921l59 -94l89 94h98l-147 -159h-100l-97 159h98zM542 0l-269 505l-7 -76l-69 -429h-119l112 707h116l270 -514l7 75l69 439h120l-112 -707h-118z" />
    <glyph glyph-name="ncaron" unicode="&#x148;" 
d="M345 592l-97 159h96l60 -95l89 95h98l-147 -159h-99zM250 527v-87q23 27 54 48q26 18 63 33.5t85 15.5q72 0 109 -40t37 -109q0 -11 -1 -22t-3 -22l-54 -344h-121l53 335q3 16 3 30q0 73 -70 73q-32 0 -61 -17.5t-52 -38.5q-26 -25 -49 -55l-52 -327h-120l83 527h96z" />
    <glyph glyph-name="napostrophe" unicode="&#x149;" horiz-adv-x="753" 
d="M101 524q7 5 18 16.5t21.5 26t19.5 30t12 28.5q-24 0 -33.5 13t-9.5 32q0 30 17 50.5t59 20.5q24 0 39 -14t15 -46q0 -33 -14 -64t-32.5 -56t-38 -43.5t-29.5 -26.5zM397 527v-87q23 27 54 48q26 18 63 33.5t85 15.5q72 0 109 -40t37 -109q0 -11 -1 -22t-3 -22l-54 -344
h-121l53 335q3 16 3 30q0 73 -70 73q-32 0 -61 -17.5t-52 -38.5q-26 -25 -49 -55l-52 -327h-120l83 527h96z" />
    <glyph glyph-name="Eng" unicode="&#x14a;" horiz-adv-x="737" 
d="M657 -20q-6 -38 -22 -73t-43 -62t-65.5 -43t-89.5 -16q-24 0 -41.5 2.5t-29.5 5.5q-14 4 -23 8l23 93q7 -3 17 -6q8 -2 19.5 -4t26.5 -2q45 0 74 25t39 92l-269 505l-7 -76l-69 -429h-119l112 707h116l270 -514l7 75l69 439h120z" />
    <glyph glyph-name="eng" unicode="&#x14b;" horiz-adv-x="606" 
d="M250 527v-101q1 1 16 19t42.5 38t65.5 37t85 17q70 0 104.5 -38.5t34.5 -106.5q0 -25 -4 -48l-52 -335q-8 -51 -24 -92.5t-41.5 -70.5t-62.5 -44.5t-88 -15.5q-23 0 -40 2.5t-29 5.5q-14 4 -24 8l23 91q6 -4 15 -7q8 -2 18.5 -4t25.5 -2q43 0 68 26.5t36 91.5l53 337
q3 16 3 31q0 72 -69 72q-32 0 -61 -16t-52 -36q-26 -23 -49 -51l-53 -335h-120l83 527h96z" />
    <glyph glyph-name="Omacron" unicode="&#x14c;" horiz-adv-x="772" 
d="M342 784l12 78h310l-13 -78h-309zM388 -10q-64 0 -117 18.5t-90.5 55.5t-58 92t-20.5 127q0 98 29 178t80.5 137t122 88t153.5 31q75 0 130.5 -21.5t92 -60t54.5 -92.5t18 -119q0 -90 -26 -169t-76 -138t-123.5 -93t-168.5 -34zM225 292q0 -43 9.5 -80t31 -64t55.5 -42
t82 -15q56 0 103 24t81.5 67.5t53.5 104t19 132.5q0 97 -45.5 146t-135.5 49q-54 0 -100 -22.5t-80.5 -64.5t-54 -101.5t-19.5 -133.5z" />
    <glyph glyph-name="omacron" unicode="&#x14d;" horiz-adv-x="598" 
d="M234 620l13 79h309l-12 -79h-310zM306 -10q-103 0 -164 57t-61 170q0 72 21 131t58.5 101t90.5 65t117 23q119 0 175.5 -60.5t56.5 -165.5q0 -71 -20 -130t-58 -101.5t-92.5 -66t-123.5 -23.5zM202 218q0 -63 27.5 -98t87.5 -35q35 0 65 15.5t52 45t34.5 71t12.5 93.5
q0 65 -26.5 98.5t-90.5 33.5q-35 0 -64.5 -15.5t-51.5 -44.5t-34 -70.5t-12 -93.5z" />
    <glyph glyph-name="Obreve" unicode="&#x14e;" horiz-adv-x="772" 
d="M678 916q-3 -18 -15.5 -44.5t-35 -50.5t-56 -41.5t-77.5 -17.5q-36 0 -60.5 10.5t-40 26.5t-23 35t-10.5 36t-3 29.5t1 16.5h82q0 -2 1 -13.5t7 -25t20 -24.5t39 -11q22 0 38 9t27.5 21.5t17 25t6.5 18.5h82zM388 -10q-64 0 -117 18.5t-90.5 55.5t-58 92t-20.5 127
q0 98 29 178t80.5 137t122 88t153.5 31q75 0 130.5 -21.5t92 -60t54.5 -92.5t18 -119q0 -90 -26 -169t-76 -138t-123.5 -93t-168.5 -34zM225 292q0 -43 9.5 -80t31 -64t55.5 -42t82 -15q56 0 103 24t81.5 67.5t53.5 104t19 132.5q0 97 -45.5 146t-135.5 49q-54 0 -100 -22.5
t-80.5 -64.5t-54 -101.5t-19.5 -133.5z" />
    <glyph glyph-name="obreve" unicode="&#x14f;" horiz-adv-x="598" 
d="M564 744q-3 -18 -15.5 -44t-35.5 -50.5t-56 -41.5t-77 -17q-36 0 -60.5 10.5t-40 26t-23 34.5t-10.5 36t-3 29.5t1 16.5h81q0 -2 1 -13.5t7.5 -25t20.5 -24.5t39 -11q22 0 38 9t27 21.5t17 25t7 18.5h82zM306 -10q-103 0 -164 57t-61 170q0 72 21 131t58.5 101t90.5 65
t117 23q119 0 175.5 -60.5t56.5 -165.5q0 -71 -20 -130t-58 -101.5t-92.5 -66t-123.5 -23.5zM202 218q0 -63 27.5 -98t87.5 -35q35 0 65 15.5t52 45t34.5 71t12.5 93.5q0 65 -26.5 98.5t-90.5 33.5q-35 0 -64.5 -15.5t-51.5 -44.5t-34 -70.5t-12 -93.5z" />
    <glyph glyph-name="Ohungarumlaut" unicode="&#x150;" horiz-adv-x="772" 
d="M356 764l96 158h103l-105 -158h-94zM521 764l96 158h109l-119 -158h-86zM388 -10q-64 0 -117 18.5t-90.5 55.5t-58 92t-20.5 127q0 98 29 178t80.5 137t122 88t153.5 31q75 0 130.5 -21.5t92 -60t54.5 -92.5t18 -119q0 -90 -26 -169t-76 -138t-123.5 -93t-168.5 -34z
M225 292q0 -43 9.5 -80t31 -64t55.5 -42t82 -15q56 0 103 24t81.5 67.5t53.5 104t19 132.5q0 97 -45.5 146t-135.5 49q-54 0 -100 -22.5t-80.5 -64.5t-54 -101.5t-19.5 -133.5z" />
    <glyph glyph-name="ohungarumlaut" unicode="&#x151;" horiz-adv-x="598" 
d="M240 592l96 159h103l-104 -159h-95zM406 592l95 159h109l-119 -159h-85zM306 -10q-103 0 -164 57t-61 170q0 72 21 131t58.5 101t90.5 65t117 23q119 0 175.5 -60.5t56.5 -165.5q0 -71 -20 -130t-58 -101.5t-92.5 -66t-123.5 -23.5zM202 218q0 -63 27.5 -98t87.5 -35
q35 0 65 15.5t52 45t34.5 71t12.5 93.5q0 65 -26.5 98.5t-90.5 33.5q-35 0 -64.5 -15.5t-51.5 -44.5t-34 -70.5t-12 -93.5z" />
    <glyph glyph-name="OE" unicode="&#x152;" horiz-adv-x="1152" 
d="M487 717q85 0 140 -31t81 -87l17 108h475l-16 -103h-367l-31 -194h320l-16 -103h-320l-33 -204h367l-16 -103h-475l15 94q-40 -46 -101 -75t-141 -29q-64 0 -116.5 19t-89.5 56t-57.5 92t-20.5 126q0 98 29 178t80.5 137t122 88t153.5 31zM480 614q-54 0 -100.5 -22.5
t-80.5 -64.5t-53.5 -101.5t-19.5 -133.5q0 -42 10 -79t31 -64t54.5 -42.5t81.5 -15.5q57 0 104 24t81.5 67.5t53.5 104t19 132.5q0 97 -45.5 146t-135.5 49z" />
    <glyph glyph-name="oe" unicode="&#x153;" horiz-adv-x="942" 
d="M777 537q45 0 77.5 -11t53.5 -29.5t31 -44t10 -54.5q0 -36 -16 -67.5t-52 -55t-93 -37t-139 -13.5h-24.5t-26.5 1q-1 -7 -1 -13.5v-12.5q0 -116 125 -116q31 0 57.5 5.5t46.5 12.5q23 8 41 19l16 -90q-20 -12 -47 -21q-23 -8 -56 -14t-75 -6q-72 0 -120 21.5t-74 61.5
q-36 -40 -87.5 -61.5t-117.5 -21.5q-103 0 -164 57t-61 170q0 73 21 132t58.5 101t90.5 64.5t117 22.5q75 0 121.5 -24.5t70.5 -69.5q38 43 93 68.5t124 25.5zM202 218q0 -63 27.5 -98t87.5 -35q35 0 65 15.5t52 45t34.5 71t12.5 93.5q0 65 -26.5 98.5t-90.5 33.5
q-35 0 -64.5 -15.5t-51.5 -44.5t-34 -70.5t-12 -93.5zM609 306q45 0 86 3.5t72.5 12.5t50 25.5t18.5 42.5q0 25 -18 42t-56 17q-26 0 -50.5 -9.5t-45 -27.5t-35.5 -44.5t-22 -61.5z" />
    <glyph glyph-name="Racute" unicode="&#x154;" horiz-adv-x="683" 
d="M376 763l117 159h128l-146 -159h-99zM467 707q65 0 109.5 -13.5t72 -38t39.5 -58t12 -72.5q0 -42 -9.5 -80.5t-30.5 -70.5t-55 -56t-83 -38l110 -280h-127l-102 262h-161l-42 -262h-122l112 707h277zM258 362h143q50 0 83 10t53 29t28.5 46t8.5 60q0 46 -29.5 72
t-105.5 26h-143z" />
    <glyph glyph-name="racute" unicode="&#x155;" horiz-adv-x="394" 
d="M215 592l117 159h127l-146 -159h-98zM249 527l3 -88q7 9 23 25t41 32.5t58.5 28.5t74.5 12l-21 -107h-5q-2 0 -6 0.5t-9 0.5q-38 -1 -68 -16.5t-52 -34.5q-26 -22 -45 -51l-52 -329h-120l83 527h95z" />
    <glyph glyph-name="Rcommaaccent" unicode="&#x156;" horiz-adv-x="683" 
d="M236 -287q7 5 18 16.5t21.5 26t19.5 30t12 28.5q-23 0 -33 13.5t-10 31.5q0 30 17.5 51t58.5 21q24 0 39 -14.5t15 -45.5q0 -34 -13.5 -65t-32.5 -56t-38 -43t-30 -26zM467 707q65 0 109.5 -13.5t72 -38t39.5 -58t12 -72.5q0 -42 -9.5 -80.5t-30.5 -70.5t-55 -56t-83 -38
l110 -280h-127l-102 262h-161l-42 -262h-122l112 707h277zM258 362h143q50 0 83 10t53 29t28.5 46t8.5 60q0 46 -29.5 72t-105.5 26h-143z" />
    <glyph glyph-name="rcommaaccent" unicode="&#x157;" horiz-adv-x="394" 
d="M21 -286q7 5 18 16.5t21.5 25.5t19.5 29.5t12 28.5q-24 1 -33.5 14t-9.5 32q0 29 17 50.5t59 21.5q24 0 38.5 -15t14.5 -46q0 -33 -13.5 -64t-32.5 -56.5t-38 -43.5t-29 -25zM249 527l3 -88q7 9 23 25t41 32.5t58.5 28.5t74.5 12l-21 -107h-5q-2 0 -6 0.5t-9 0.5
q-38 -1 -68 -16.5t-52 -34.5q-26 -22 -45 -51l-52 -329h-120l83 527h95z" />
    <glyph glyph-name="Rcaron" unicode="&#x158;" horiz-adv-x="683" 
d="M396 762l-96 159h96l60 -94l90 94h97l-147 -159h-100zM467 707q65 0 109.5 -13.5t72 -38t39.5 -58t12 -72.5q0 -42 -9.5 -80.5t-30.5 -70.5t-55 -56t-83 -38l110 -280h-127l-102 262h-161l-42 -262h-122l112 707h277zM258 362h143q50 0 83 10t53 29t28.5 46t8.5 60
q0 46 -29.5 72t-105.5 26h-143z" />
    <glyph glyph-name="rcaron" unicode="&#x159;" horiz-adv-x="394" 
d="M255 592l-98 159h98l60 -95l89 95h97l-147 -159h-99zM249 527l3 -88q7 9 23 25t41 32.5t58.5 28.5t74.5 12l-21 -107h-5q-2 0 -6 0.5t-9 0.5q-38 -1 -68 -16.5t-52 -34.5q-26 -22 -45 -51l-52 -329h-120l83 527h95z" />
    <glyph glyph-name="Sacute" unicode="&#x15a;" horiz-adv-x="604" 
d="M349 763l117 158h127l-145 -158h-99zM106 145q23 -16 54 -28q26 -11 62.5 -19t82.5 -8q72 0 108.5 26.5t36.5 77.5q0 24 -8 40t-23 28t-35.5 21t-45.5 19q-47 18 -85.5 36t-66 41t-43 54.5t-15.5 77.5q0 52 19.5 91t55 64.5t85.5 38t110 12.5q54 0 93.5 -7.5t65.5 -15.5
q31 -11 53 -23l-38 -90q-19 10 -45 18q-23 7 -55 13t-74 6q-70 0 -109 -23t-39 -73q0 -21 8 -35.5t25.5 -26.5t45 -23.5t66.5 -26.5q42 -16 75.5 -33t56.5 -39.5t35.5 -53.5t12.5 -75q0 -103 -69 -161t-203 -58q-61 0 -105.5 9.5t-74.5 20.5q-35 13 -59 31z" />
    <glyph glyph-name="sacute" unicode="&#x15b;" horiz-adv-x="493" 
d="M271 592l117 159h128l-147 -159h-98zM93 130q18 -13 42 -24q20 -9 48.5 -16t63.5 -7q52 0 79 16t27 45q0 16 -8.5 27t-23.5 19t-35.5 14.5t-44.5 15.5q-29 10 -52.5 23t-41 31t-27 42.5t-9.5 58.5q0 77 56.5 119.5t165.5 42.5q44 0 76.5 -6t53.5 -14q25 -9 42 -20
l-37 -91q-15 10 -35 18q-17 7 -43 13t-60 6q-48 0 -75.5 -13.5t-27.5 -42.5q0 -15 7 -25t20 -18t30.5 -15l37.5 -15q33 -14 60.5 -27t47 -30.5t30 -41.5t10.5 -58q0 -83 -59.5 -125t-167.5 -42q-46 0 -80.5 7.5t-57.5 16.5q-27 11 -47 24z" />
    <glyph glyph-name="Scircumflex" unicode="&#x15c;" horiz-adv-x="597" 
d="M492 921l97 -159h-97l-60 95l-88 -95h-98l147 159h99zM106 145q23 -16 54 -28q26 -11 62.5 -19t82.5 -8q72 0 108.5 26.5t36.5 77.5q0 24 -8 40t-23 28t-35.5 21t-45.5 19q-47 18 -85.5 36t-66 41t-43 54.5t-15.5 77.5q0 52 19.5 91t55 64.5t85.5 38t110 12.5
q54 0 93.5 -7.5t65.5 -15.5q31 -11 53 -23l-38 -90q-19 10 -45 18q-23 7 -55 13t-74 6q-70 0 -109 -23t-39 -73q0 -21 8 -35.5t25.5 -26.5t45 -23.5t66.5 -26.5q42 -16 75.5 -33t56.5 -39.5t35.5 -53.5t12.5 -75q0 -103 -69 -161t-203 -58q-61 0 -105.5 9.5t-74.5 20.5
q-35 13 -59 31z" />
    <glyph glyph-name="scircumflex" unicode="&#x15d;" horiz-adv-x="493" 
d="M415 751l97 -159h-97l-60 94l-89 -94h-97l147 159h99zM93 130q18 -13 42 -24q20 -9 48.5 -16t63.5 -7q52 0 79 16t27 45q0 16 -8.5 27t-23.5 19t-35.5 14.5t-44.5 15.5q-29 10 -52.5 23t-41 31t-27 42.5t-9.5 58.5q0 77 56.5 119.5t165.5 42.5q44 0 76.5 -6t53.5 -14
q25 -9 42 -20l-37 -91q-15 10 -35 18q-17 7 -43 13t-60 6q-48 0 -75.5 -13.5t-27.5 -42.5q0 -15 7 -25t20 -18t30.5 -15l37.5 -15q33 -14 60.5 -27t47 -30.5t30 -41.5t10.5 -58q0 -83 -59.5 -125t-167.5 -42q-46 0 -80.5 7.5t-57.5 16.5q-27 11 -47 24z" />
    <glyph glyph-name="Scedilla" unicode="&#x15e;" horiz-adv-x="597" 
d="M106 145q23 -16 54 -28q26 -11 62.5 -19t82.5 -8q72 0 108.5 26.5t36.5 77.5q0 24 -8 40t-23 28t-35.5 21t-45.5 19q-47 18 -85.5 36t-66 41t-43 54.5t-15.5 77.5q0 52 19.5 91t55 64.5t85.5 38t110 12.5q54 0 93.5 -7.5t65.5 -15.5q31 -11 53 -23l-38 -90q-19 10 -45 18
q-23 7 -55 13t-74 6q-70 0 -109 -23t-39 -73q0 -21 8 -35.5t25.5 -26.5t45 -23.5t66.5 -26.5q42 -16 75.5 -33t56.5 -39.5t35.5 -53.5t12.5 -75q0 -99 -63 -156t-184 -62l-19 -44h6q2 0 4 0.5t4 0.5q38 0 63 -17t25 -55q0 -45 -32.5 -73t-105.5 -28q-18 0 -31 1t-21 3
q-10 2 -17 5l6 58q7 -2 16 -4q8 -2 19 -3t25 -1q26 0 46.5 8t20.5 30q0 15 -15.5 21t-37.5 6q-20 0 -38.5 -2.5t-24.5 -4.5l41 99q-51 3 -87.5 12.5t-61.5 20.5q-29 12 -49 27z" />
    <glyph glyph-name="scedilla" unicode="&#x15f;" horiz-adv-x="493" 
d="M93 130q18 -13 42 -24q20 -9 48.5 -16t63.5 -7q52 0 79 16t27 45q0 16 -8.5 27t-23.5 19t-35.5 14.5t-44.5 15.5q-29 10 -52.5 23t-41 31t-27 42.5t-9.5 58.5q0 77 56.5 119.5t165.5 42.5q44 0 76.5 -6t53.5 -14q25 -9 42 -20l-37 -91q-15 10 -35 18q-17 7 -43 13t-60 6
q-48 0 -75.5 -13.5t-27.5 -42.5q0 -15 7 -25t20 -18t30.5 -15l37.5 -15q33 -14 60.5 -27t47 -30.5t30 -41.5t10.5 -58q0 -75 -48.5 -116.5t-137.5 -48.5l-20 -45h6q2 0 4.5 0.5t4.5 0.5q37 0 63 -17t26 -55q0 -45 -33 -73t-105 -28q-18 0 -31.5 1t-22.5 3q-11 2 -17 5l8 58
q6 -2 15 -4q8 -2 19 -3t25 -1q25 0 46 8t21 30q0 15 -15.5 21t-37.5 6q-20 0 -38.5 -2.5t-24.5 -4.5l41 99q-40 2 -70 10t-50 16q-24 10 -40 21z" />
    <glyph glyph-name="Scaron" unicode="&#x160;" horiz-adv-x="597" 
d="M377 762l-97 159h97l60 -94l89 94h97l-147 -159h-99zM106 145q23 -16 54 -28q26 -11 62.5 -19t82.5 -8q72 0 108.5 26.5t36.5 77.5q0 24 -8 40t-23 28t-35.5 21t-45.5 19q-47 18 -85.5 36t-66 41t-43 54.5t-15.5 77.5q0 52 19.5 91t55 64.5t85.5 38t110 12.5
q54 0 93.5 -7.5t65.5 -15.5q31 -11 53 -23l-38 -90q-19 10 -45 18q-23 7 -55 13t-74 6q-70 0 -109 -23t-39 -73q0 -21 8 -35.5t25.5 -26.5t45 -23.5t66.5 -26.5q42 -16 75.5 -33t56.5 -39.5t35.5 -53.5t12.5 -75q0 -103 -69 -161t-203 -58q-61 0 -105.5 9.5t-74.5 20.5
q-35 13 -59 31z" />
    <glyph glyph-name="scaron" unicode="&#x161;" horiz-adv-x="493" 
d="M293 592l-97 159h97l60 -95l89 95h97l-146 -159h-100zM93 130q18 -13 42 -24q20 -9 48.5 -16t63.5 -7q52 0 79 16t27 45q0 16 -8.5 27t-23.5 19t-35.5 14.5t-44.5 15.5q-29 10 -52.5 23t-41 31t-27 42.5t-9.5 58.5q0 77 56.5 119.5t165.5 42.5q44 0 76.5 -6t53.5 -14
q25 -9 42 -20l-37 -91q-15 10 -35 18q-17 7 -43 13t-60 6q-48 0 -75.5 -13.5t-27.5 -42.5q0 -15 7 -25t20 -18t30.5 -15l37.5 -15q33 -14 60.5 -27t47 -30.5t30 -41.5t10.5 -58q0 -83 -59.5 -125t-167.5 -42q-46 0 -80.5 7.5t-57.5 16.5q-27 11 -47 24z" />
    <glyph glyph-name="Tcommaaccent" unicode="&#x162;" horiz-adv-x="627" 
d="M347 0l-24 -53h6q2 0 5 0.5t5 0.5q36 0 62 -17t26 -55q0 -45 -33 -73t-105 -28q-18 0 -31.5 1t-21.5 3q-11 2 -17 5l7 58q6 -2 15 -4q8 -2 19 -3t25 -1q26 0 46.5 8t20.5 30q0 15 -15 21t-38 6q-20 0 -38.5 -2.5t-24.5 -4.5l46 108h-30l95 599h-228l17 108h578l-16 -108
h-228l-94 -599h-29z" />
    <glyph glyph-name="tcommaaccent" unicode="&#x163;" horiz-adv-x="415" 
d="M378 17q-12 -7 -29 -12q-14 -5 -34 -9.5t-45 -5.5l-19 -43h6q2 0 4 0.5t4 0.5q38 0 64 -17t26 -55q0 -45 -33 -73t-106 -28q-18 0 -31 1t-22 3q-11 2 -17 5l7 58q6 -2 15 -4q8 -2 19 -3t26 -1q25 0 45.5 8t20.5 30q0 15 -15 21t-38 6q-19 0 -37.5 -2.5t-25.5 -4.5l44 103
q-43 10 -66.5 40t-23.5 82q0 10 1 21t3 23l43 270h-68l14 96h72l36 140h105l-22 -140h150l-19 -96h-145l-43 -270q-1 -6 -1.5 -11.5t-0.5 -10.5q0 -24 13 -38t47 -14q16 0 29 2.5t23 5.5q11 4 20 9z" />
    <glyph glyph-name="Tcaron" unicode="&#x164;" horiz-adv-x="627" 
d="M386 762l-98 159h98l60 -94l89 94h97l-147 -159h-99zM252 0l95 599h-228l17 108h578l-16 -108h-228l-94 -599h-124z" />
    <glyph glyph-name="tcaron" unicode="&#x165;" horiz-adv-x="513" 
d="M497 524q7 4 18 15.5t21.5 26t19.5 30t12 28.5q-23 1 -33 14t-10 32q0 29 17 50t59 21q25 0 39.5 -14.5t14.5 -46.5q0 -33 -13.5 -63.5t-32.5 -56t-38 -43.5t-30 -26zM378 17q-14 -8 -32 -14q-16 -5 -38.5 -9t-50.5 -4q-66 0 -103 30.5t-37 96.5q0 10 1 21t3 23l43 270
h-68l14 96h72l36 140h105l-22 -140h150l-19 -96h-145l-43 -270q-1 -6 -1.5 -11.5t-0.5 -10.5q0 -24 13 -38t47 -14q16 0 29 2.5t23 5.5q11 4 20 9z" />
    <glyph glyph-name="Tbar" unicode="&#x166;" horiz-adv-x="627" 
d="M252 0l49 309h-144l15 93h144l31 197h-228l17 108h578l-16 -108h-228l-31 -197h144l-14 -93h-145l-48 -309h-124z" />
    <glyph glyph-name="tbar" unicode="&#x167;" horiz-adv-x="430" 
d="M392 17q-14 -8 -32 -14q-16 -5 -38.5 -9t-50.5 -4q-66 0 -103 30.5t-37 96.5q0 10 1 21t3 23l15 98h-66l11 68h66l17 104h-68l14 96h72l36 140h105l-22 -140h150l-19 -96h-145l-17 -104h144l-11 -68h-144l-15 -98q-1 -6 -1.5 -11.5t-0.5 -10.5q0 -24 13 -38t47 -14
q16 0 29 2.5t23 5.5q11 4 20 9z" />
    <glyph glyph-name="Utilde" unicode="&#x168;" horiz-adv-x="724" 
d="M641 707h122l-66 -417q-12 -74 -35.5 -130t-63.5 -93.5t-98.5 -57t-139.5 -19.5q-127 0 -187.5 56t-60.5 165q0 18 2 38t5 41l67 417h121l-66 -421q-6 -35 -6 -63q0 -62 31.5 -96.5t109.5 -34.5q49 0 83 13.5t57.5 39t36.5 61t20 80.5zM313 764q-1 1 -1 4v11q0 25 8 48.5
t23 42t37.5 29.5t52.5 11q25 0 42.5 -10t31.5 -21.5t26.5 -21.5t27.5 -10q18 0 28 12t10 33q0 3 -0.5 6t-0.5 5v5h84v-14q0 -26 -7.5 -49.5t-22.5 -42t-37.5 -29.5t-52.5 -11q-26 0 -43.5 10t-31.5 21.5t-26 21.5t-28 10q-17 0 -27 -12.5t-10 -33.5v-11q0 -3 1 -4h-84z" />
    <glyph glyph-name="utilde" unicode="&#x169;" 
d="M270 527l-54 -335q-2 -8 -2 -14.5v-13.5q0 -36 17 -55.5t52 -19.5q32 0 61.5 17t52.5 38q26 25 49 56l52 327h120l-83 -527h-96v87q-23 -28 -54 -49q-26 -18 -63 -33t-85 -15q-71 0 -108.5 39.5t-37.5 108.5q0 11 1 22t3 23l54 344h121zM222 591q-1 1 -1 4v11
q0 24 8 47.5t23 41.5t37.5 29t52.5 11q25 0 43 -9.5t31.5 -21.5t26 -21.5t27.5 -9.5q19 0 29 12.5t10 32.5q0 3 -0.5 6t-0.5 5q-1 3 -1 5h85v-13q0 -26 -7.5 -49.5t-22.5 -42t-37.5 -29.5t-52.5 -11q-27 0 -44.5 9.5t-31 21.5t-25.5 21.5t-28 9.5q-17 0 -27 -12.5t-10 -33.5
v-14h-84z" />
    <glyph glyph-name="Umacron" unicode="&#x16a;" horiz-adv-x="724" 
d="M333 784l12 78h310l-13 -78h-309zM641 707h122l-66 -417q-12 -74 -35.5 -130t-63.5 -93.5t-98.5 -57t-139.5 -19.5q-127 0 -187.5 56t-60.5 165q0 18 2 38t5 41l67 417h121l-66 -421q-6 -35 -6 -63q0 -62 31.5 -96.5t109.5 -34.5q49 0 83 13.5t57.5 39t36.5 61t20 80.5z
" />
    <glyph glyph-name="umacron" unicode="&#x16b;" 
d="M242 620l12 79h309l-12 -79h-309zM270 527l-54 -335q-2 -8 -2 -14.5v-13.5q0 -36 17 -55.5t52 -19.5q32 0 61.5 17t52.5 38q26 25 49 56l52 327h120l-83 -527h-96v87q-23 -28 -54 -49q-26 -18 -63 -33t-85 -15q-71 0 -108.5 39.5t-37.5 108.5q0 11 1 22t3 23l54 344h121z
" />
    <glyph glyph-name="Ubreve" unicode="&#x16c;" horiz-adv-x="724" 
d="M664 916q-3 -18 -15.5 -44.5t-35.5 -50.5t-56 -41.5t-77 -17.5q-37 0 -61 10.5t-39.5 26.5t-23 35t-10.5 36t-3 29.5t1 16.5h82q0 -2 1 -13.5t7 -25t20 -24.5t39 -11q22 0 38 9t27 21.5t17 25t7 18.5h82zM641 707h122l-66 -417q-12 -74 -35.5 -130t-63.5 -93.5t-98.5 -57
t-139.5 -19.5q-127 0 -187.5 56t-60.5 165q0 18 2 38t5 41l67 417h121l-66 -421q-6 -35 -6 -63q0 -62 31.5 -96.5t109.5 -34.5q49 0 83 13.5t57.5 39t36.5 61t20 80.5z" />
    <glyph glyph-name="ubreve" unicode="&#x16d;" 
d="M574 744q-2 -18 -14.5 -44t-35 -50.5t-56 -41.5t-77.5 -17q-37 0 -61.5 10.5t-40 26t-23 34.5t-10.5 36t-2.5 29.5t1.5 16.5h81q0 -2 1 -13.5t7.5 -25t20.5 -24.5t39 -11q22 0 38 9t27 21.5t17 25t7 18.5h81zM270 527l-54 -335q-2 -8 -2 -14.5v-13.5q0 -36 17 -55.5
t52 -19.5q32 0 61.5 17t52.5 38q26 25 49 56l52 327h120l-83 -527h-96v87q-23 -28 -54 -49q-26 -18 -63 -33t-85 -15q-71 0 -108.5 39.5t-37.5 108.5q0 11 1 22t3 23l54 344h121z" />
    <glyph glyph-name="Uring" unicode="&#x16e;" horiz-adv-x="724" 
d="M477 752q-51 0 -75.5 24.5t-24.5 66.5q0 60 38 95t100 35q50 0 74.5 -24t24.5 -66q0 -58 -33 -94.5t-104 -36.5zM489 815q26 0 39.5 16t13.5 42q0 38 -37 38q-26 0 -40.5 -15.5t-14.5 -42.5q0 -38 39 -38zM641 707h122l-66 -417q-12 -74 -35.5 -130t-63.5 -93.5
t-98.5 -57t-139.5 -19.5q-127 0 -187.5 56t-60.5 165q0 18 2 38t5 41l67 417h121l-66 -421q-6 -35 -6 -63q0 -62 31.5 -96.5t109.5 -34.5q49 0 83 13.5t57.5 39t36.5 61t20 80.5z" />
    <glyph glyph-name="uring" unicode="&#x16f;" 
d="M392 589q-51 0 -75.5 24.5t-24.5 66.5q0 61 38 96.5t101 35.5q50 0 75 -24.5t25 -66.5q0 -58 -34 -95t-105 -37zM404 653q27 0 40.5 15.5t13.5 42.5q0 37 -37 37q-27 0 -41 -15t-14 -42q0 -38 38 -38zM270 527l-54 -335q-2 -8 -2 -14.5v-13.5q0 -36 17 -55.5t52 -19.5
q32 0 61.5 17t52.5 38q26 25 49 56l52 327h120l-83 -527h-96v87q-23 -28 -54 -49q-26 -18 -63 -33t-85 -15q-71 0 -108.5 39.5t-37.5 108.5q0 11 1 22t3 23l54 344h121z" />
    <glyph glyph-name="Uhungarumlaut" unicode="&#x170;" horiz-adv-x="724" 
d="M345 764l95 158h104l-104 -158h-95zM511 764l95 158h109l-119 -158h-85zM641 707h122l-66 -417q-12 -74 -35.5 -130t-63.5 -93.5t-98.5 -57t-139.5 -19.5q-127 0 -187.5 56t-60.5 165q0 18 2 38t5 41l67 417h121l-66 -421q-6 -35 -6 -63q0 -62 31.5 -96.5t109.5 -34.5
q49 0 83 13.5t57.5 39t36.5 61t20 80.5z" />
    <glyph glyph-name="uhungarumlaut" unicode="&#x171;" 
d="M255 592l96 159h103l-104 -159h-95zM421 592l95 159h109l-119 -159h-85zM270 527l-54 -335q-2 -8 -2 -14.5v-13.5q0 -36 17 -55.5t52 -19.5q32 0 61.5 17t52.5 38q26 25 49 56l52 327h120l-83 -527h-96v87q-23 -28 -54 -49q-26 -18 -63 -33t-85 -15q-71 0 -108.5 39.5
t-37.5 108.5q0 11 1 22t3 23l54 344h121z" />
    <glyph glyph-name="Uogonek" unicode="&#x172;" horiz-adv-x="724" 
d="M641 707h122l-66 -417q-10 -62 -28 -111.5t-47.5 -86.5t-71 -60.5t-97.5 -33.5q-14 -6 -32 -16t-33.5 -23t-26 -28.5t-10.5 -31.5q0 -13 10 -23t35 -10q19 0 38 5t27 7l-9 -74q-15 -5 -42 -12t-60 -7q-52 0 -79.5 21.5t-27.5 53.5q0 21 9.5 40.5t24 36t32 30t33.5 23.5
q-118 5 -174 60t-56 161q0 18 2 38t5 41l67 417h121l-66 -421q-6 -35 -6 -63q0 -62 31.5 -96.5t109.5 -34.5q49 0 83 13.5t57.5 39t36.5 61t20 80.5z" />
    <glyph glyph-name="uogonek" unicode="&#x173;" 
d="M270 527l-54 -335q-2 -8 -2 -14.5v-13.5q0 -36 17 -55.5t52 -19.5q32 0 61.5 17t52.5 38q26 25 49 56l52 327h120l-83 -527q-11 -2 -31.5 -11t-40 -22.5t-34 -31t-14.5 -36.5q0 -13 10 -23t35 -10q19 0 38 5t27 7l-10 -74q-14 -5 -41 -12t-60 -7q-53 0 -80.5 21.5
t-27.5 53.5q0 28 16 52.5t37.5 43t44 32t35.5 19.5v80q-23 -28 -54 -49q-26 -18 -63 -33t-85 -15q-71 0 -108.5 39.5t-37.5 108.5q0 11 1 22t3 23l54 344h121z" />
    <glyph glyph-name="Wcircumflex" unicode="&#x174;" horiz-adv-x="982" 
d="M687 921l97 -159h-98l-60 95l-89 -95h-97l147 159h100zM263 707l39 -489l2 -95l34 94l208 490h111l52 -490l6 -94l31 94l194 490h129l-292 -707h-140l-53 445l-8 95l-36 -93l-195 -447h-140l-68 707h126z" />
    <glyph glyph-name="wcircumflex" unicode="&#x175;" horiz-adv-x="833" 
d="M581 750l97 -158h-97l-60 94l-89 -94h-98l147 158h100zM224 527l37 -329v-107l36 108l145 328h112l42 -330l1 -106l35 108l140 328h125l-233 -527h-139l-40 272l-7 122l-44 -122l-125 -272h-139l-68 527h122z" />
    <glyph glyph-name="Ycircumflex" unicode="&#x176;" horiz-adv-x="672" 
d="M531 921l97 -159h-98l-59 95l-89 -95h-98l147 159h100zM275 0l42 266l-183 441h128l110 -274l20 -63l41 65l193 272h137l-322 -440l-44 -267h-122z" />
    <glyph glyph-name="ycircumflex" unicode="&#x177;" horiz-adv-x="553" 
d="M446 742l97 -159h-98l-60 94l-89 -94h-97l147 159h100zM21 -111q6 -2 14 -4q7 -2 16 -3t20 -1q31 0 53.5 11.5t39.5 29t29 38.5t22 41l-107 526h125l52 -317l5 -102l199 419h123l-281 -538q-26 -49 -51.5 -86.5t-55 -63.5t-65.5 -39.5t-81 -13.5q-20 0 -34 1.5t-24 3.5
q-11 3 -19 6z" />
    <glyph glyph-name="Ydieresis" unicode="&#x178;" horiz-adv-x="660" 
d="M421 863q0 -30 -16.5 -51.5t-57.5 -21.5q-29 0 -41.5 13.5t-12.5 35.5q0 29 16.5 50.5t56.5 21.5q30 0 42.5 -13.5t12.5 -34.5zM633 862q0 -29 -17.5 -50.5t-56.5 -21.5q-29 0 -41.5 13t-12.5 35q0 30 15.5 51.5t57.5 21.5q29 0 42 -13.5t13 -35.5zM268 0l42 264
l-181 443h137l105 -261l19 -70l43 72l184 259h138l-320 -442l-42 -265h-125z" />
    <glyph glyph-name="Zacute" unicode="&#x179;" horiz-adv-x="640" 
d="M375 763l117 159h127l-146 -159h-98zM59 0l16 103l451 506l-72 -4h-293l16 102h512l-17 -103l-452 -506l72 4h306l-16 -102h-523z" />
    <glyph glyph-name="zacute" unicode="&#x17a;" horiz-adv-x="531" 
d="M290 592l117 159h127l-146 -159h-98zM148 527h403l-12 -97l-322 -337l56 3h211l-14 -96h-415l14 97l323 337l-57 -3h-201z" />
    <glyph glyph-name="Zdotaccent" unicode="&#x17b;" horiz-adv-x="640" 
d="M519 859q0 -32 -19 -54t-61 -22q-32 0 -45 14.5t-13 37.5q0 30 17.5 52.5t60.5 22.5q32 0 46 -14.5t14 -36.5zM59 0l16 103l451 506l-72 -4h-293l16 102h512l-17 -103l-452 -506l72 4h306l-16 -102h-523z" />
    <glyph glyph-name="zdotaccent" unicode="&#x17c;" horiz-adv-x="525" 
d="M445 686q0 -30 -18.5 -52.5t-61.5 -22.5q-32 0 -45.5 14.5t-13.5 37.5q0 30 18 52.5t61 22.5q32 0 46 -14.5t14 -37.5zM148 527h403l-12 -97l-322 -337l56 3h211l-14 -96h-415l14 97l323 337l-57 -3h-201z" />
    <glyph glyph-name="Zcaron" unicode="&#x17d;" horiz-adv-x="640" 
d="M392 762l-97 159h97l60 -94l90 94h97l-147 -159h-100zM59 0l16 103l451 506l-72 -4h-293l16 102h512l-17 -103l-452 -506l72 4h306l-16 -102h-523z" />
    <glyph glyph-name="zcaron" unicode="&#x17e;" horiz-adv-x="525" 
d="M314 592l-97 159h98l60 -95l89 95h97l-147 -159h-100zM148 527h403l-12 -97l-322 -337l56 3h211l-14 -96h-415l14 97l323 337l-57 -3h-201z" />
    <glyph glyph-name="longs" unicode="&#x17f;" horiz-adv-x="376" 
d="M90 0l68 432h-67l14 95h68l6 33q10 60 33.5 98.5t55.5 60.5t68.5 30t71.5 8q22 0 39 -2.5t30 -5.5q14 -4 26 -7l-34 -92l-15 5q-8 2 -19 3.5t-25 1.5q-41 0 -71.5 -21.5t-39.5 -82.5l-89 -556h-120z" />
    <glyph glyph-name="florin" unicode="&#x192;" horiz-adv-x="561" 
d="M608 637q-8 2 -19 4q-9 2 -20.5 3.5t-25.5 1.5q-22 0 -42 -5.5t-37 -19t-30.5 -36t-22.5 -57.5l-38 -154h156l-14 -95h-164l-74 -299q-15 -60 -40 -98t-56.5 -59.5t-67 -29t-70.5 -7.5q-19 0 -35.5 2t-29.5 4q-15 3 -27 6l23 91q8 -3 18 -5q8 -2 19.5 -3t23.5 -1
q43 0 78 24.5t52 90.5l70 284h-132l14 95h141l42 171q15 60 41 98.5t58 60t68 29.5t71 8q21 0 39 -2.5t32 -4.5q16 -3 29 -6l-30 -91v0z" />
    <glyph glyph-name="Scommaaccent" unicode="&#x218;" horiz-adv-x="597" 
d="M192 -286q7 5 18 16.5t21.5 25.5t19.5 29.5t12 28.5q-23 1 -32.5 14t-9.5 32q0 29 16.5 50.5t58.5 21.5q24 0 39 -15t15 -46q0 -33 -13.5 -64t-32.5 -56.5t-38 -43.5t-30 -25zM106 145q23 -16 54 -28q26 -11 62.5 -19t82.5 -8q72 0 108.5 26.5t36.5 77.5q0 24 -8 40
t-23 28t-35.5 21t-45.5 19q-47 18 -85.5 36t-66 41t-43 54.5t-15.5 77.5q0 52 19.5 91t55 64.5t85.5 38t110 12.5q54 0 93.5 -7.5t65.5 -15.5q31 -11 53 -23l-38 -90q-19 10 -45 18q-23 7 -55 13t-74 6q-70 0 -109 -23t-39 -73q0 -21 8 -35.5t25.5 -26.5t45 -23.5
t66.5 -26.5q42 -16 75.5 -33t56.5 -39.5t35.5 -53.5t12.5 -75q0 -103 -69 -161t-203 -58q-61 0 -105.5 9.5t-74.5 20.5q-35 13 -59 31z" />
    <glyph glyph-name="scommaaccent" unicode="&#x219;" horiz-adv-x="493" 
d="M149 -286q7 5 18 16.5t21.5 25.5t19.5 29.5t12 28.5q-24 1 -33.5 14t-9.5 32q0 29 17 50.5t59 21.5q23 0 38.5 -15t15.5 -46q0 -33 -14 -64t-32.5 -56.5t-38 -43.5t-30.5 -25zM93 130q18 -13 42 -24q20 -9 48.5 -16t63.5 -7q52 0 79 16t27 45q0 16 -8.5 27t-23.5 19
t-35.5 14.5t-44.5 15.5q-29 10 -52.5 23t-41 31t-27 42.5t-9.5 58.5q0 77 56.5 119.5t165.5 42.5q44 0 76.5 -6t53.5 -14q25 -9 42 -20l-37 -91q-15 10 -35 18q-17 7 -43 13t-60 6q-48 0 -75.5 -13.5t-27.5 -42.5q0 -15 7 -25t20 -18t30.5 -15l37.5 -15q33 -14 60.5 -27
t47 -30.5t30 -41.5t10.5 -58q0 -83 -59.5 -125t-167.5 -42q-46 0 -80.5 7.5t-57.5 16.5q-27 11 -47 24z" />
    <glyph glyph-name="uni021A" unicode="&#x21a;" horiz-adv-x="568" 
d="M142 -286q7 5 18 16.5t21.5 25.5t19.5 29.5t12 28.5q-24 1 -33.5 14t-9.5 32q0 29 17 50.5t59 21.5q24 0 38.5 -15t14.5 -46q0 -33 -13.5 -64t-32.5 -56.5t-38 -43.5t-30 -25zM193 0l95 599h-228l17 108h578l-16 -108h-228l-94 -599h-124z" />
    <glyph glyph-name="uni021B" unicode="&#x21b;" horiz-adv-x="417" 
d="M142 -286q7 5 18 16.5t21.5 25.5t19 29.5t11.5 28.5q-24 1 -33.5 14t-9.5 32q0 29 17.5 50.5t58.5 21.5q24 0 39 -15t15 -46q0 -33 -13.5 -64t-32.5 -56.5t-38 -43.5t-30 -25zM378 17q-14 -8 -32 -14q-16 -5 -38.5 -9t-50.5 -4q-66 0 -103 30.5t-37 96.5q0 10 1 21t3 23
l43 270h-68l14 96h72l36 140h105l-22 -140h150l-19 -96h-145l-43 -270q-1 -6 -1.5 -11.5t-0.5 -10.5q0 -24 13 -38t47 -14q16 0 29 2.5t23 5.5q11 4 20 9z" />
    <glyph glyph-name="uni0237" unicode="&#x237;" horiz-adv-x="270" 
d="M-61 -111q5 -2 12 -4q6 -2 15 -3t20 -1q37 0 60 22t33 78l86 546h119l-86 -546q-16 -103 -66 -149t-135 -46q-32 0 -55 5q-12 2 -22 5z" />
    <glyph glyph-name="circumflex" unicode="&#x2c6;" horiz-adv-x="419" 
d="M379 751l96 -159h-97l-60 94l-89 -94h-98l147 159h101z" />
    <glyph glyph-name="caron" unicode="&#x2c7;" horiz-adv-x="415" 
d="M252 592l-96 159h97l60 -95l89 95h97l-147 -159h-100z" />
    <glyph glyph-name="uni02C9" unicode="&#x2c9;" horiz-adv-x="395" 
d="M139 612l14 87h310l-13 -87h-311z" />
    <glyph glyph-name="breve" unicode="&#x2d8;" horiz-adv-x="406" 
d="M480 744q-2 -18 -14.5 -44t-35.5 -50.5t-56.5 -41.5t-77.5 -17q-36 0 -60.5 10.5t-40 26t-23 34.5t-10.5 36t-2.5 29.5t0.5 16.5h83q0 -2 1 -13.5t7 -25t20 -24.5t39 -11q22 0 38 9t27 21.5t17 25t7 18.5h81v0z" />
    <glyph glyph-name="dotaccent" unicode="&#x2d9;" horiz-adv-x="221" 
d="M287 686q0 -30 -18.5 -52.5t-60.5 -22.5q-32 0 -46 14.5t-14 37.5q0 30 18.5 52.5t60.5 22.5q32 0 46 -14.5t14 -37.5z" />
    <glyph glyph-name="ring" unicode="&#x2da;" horiz-adv-x="319" 
d="M251 589q-51 0 -75.5 24.5t-24.5 66.5q0 61 38 96.5t101 35.5q50 0 75 -24.5t25 -66.5q0 -58 -34 -95t-105 -37zM263 653q26 0 39.5 15.5t13.5 42.5q0 37 -36 37q-27 0 -41 -15t-14 -42q0 -38 38 -38z" />
    <glyph glyph-name="ogonek" unicode="&#x2db;" horiz-adv-x="306" 
d="M251 -1q-11 -3 -31 -11.5t-39.5 -21.5t-34 -30.5t-14.5 -36.5q0 -13 10 -23t35 -10q19 0 38 5t27 7l-9 -74q-15 -5 -42 -12t-60 -7q-53 0 -80.5 21.5t-27.5 53.5t19.5 59t46.5 47.5t54.5 33.5t43.5 18z" />
    <glyph glyph-name="tilde" unicode="&#x2dc;" horiz-adv-x="442" 
d="M141 591q-1 3 -1 8v8q0 24 7.5 47t22.5 41.5t37.5 29.5t52.5 11q25 0 43 -9.5t32 -21.5t26.5 -21.5t27.5 -9.5q18 0 28 12t10 32v7.5t-2 9.5h85q1 -4 1 -9v-9q0 -24 -8 -47t-23 -41t-37.5 -29t-51.5 -11q-27 0 -44.5 10t-31 21.5t-25.5 21.5t-28 10q-17 0 -27.5 -12
t-10.5 -32q0 -3 0.5 -7.5t1.5 -9.5h-85z" />
    <glyph glyph-name="hungarumlaut" unicode="&#x2dd;" horiz-adv-x="440" 
d="M136 592l96 159h109l-105 -159h-100zM308 592l95 159h113l-118 -159h-90z" />
    <glyph glyph-name="Delta" unicode="&#x394;" horiz-adv-x="669" 
d="M7 0l357 707h165l132 -707h-654zM425 588l-241 -480h331z" />
    <glyph glyph-name="Omega" unicode="&#x3a9;" horiz-adv-x="711" 
d="M395 0l16 103q27 13 60.5 42t63 72t50 99t20.5 123q0 79 -36.5 127.5t-120.5 48.5q-53 0 -93.5 -20.5t-67.5 -56.5t-41 -85.5t-14 -107.5q0 -51 9.5 -91t24 -70.5t32 -50.5t34.5 -30l-16 -103h-271l16 103h144q-14 10 -31.5 31.5t-32.5 53t-25 73.5t-10 95q0 73 22 138.5
t66 115t110 78.5t153 29q74 0 126.5 -21.5t85.5 -58t48.5 -85t15.5 -103.5q0 -70 -20.5 -127.5t-50 -101t-62.5 -73.5t-57 -44h139l-17 -103h-270z" />
    <glyph glyph-name="mu" unicode="&#x3bc;" horiz-adv-x="611" 
d="M275 527l-54 -337q-3 -15 -3 -28q0 -35 18 -54t51 -19q32 0 61.5 15.5t52.5 35.5q26 23 49 52l53 335h120l-83 -527h-96v100q-22 -31 -51 -55q-25 -20 -60 -37t-78 -17q-18 0 -29.5 2.5t-18.5 6.5q-8 4 -13 9l-36 -213h-120l116 731h121z" />
    <glyph glyph-name="pi" unicode="&#x3c0;" horiz-adv-x="769" 
d="M724 13q-10 -7 -25 -12q-13 -5 -33 -8t-47 -3q-57 0 -93.5 28t-36.5 93q0 11 1 23.5t3 26.5l43 269h-193l-68 -430h-121l68 430h-121l15 97h678l-15 -97h-121l-43 -269q-1 -6 -1.5 -11.5t-0.5 -10.5q0 -51 54 -51q25 0 41 7q8 3 14 7z" />
    <glyph glyph-name="Wgrave" unicode="&#x1e80;" horiz-adv-x="982" 
d="M558 763l-96 159h127l68 -159h-99zM263 707l39 -489l2 -95l34 94l208 490h111l52 -490l6 -94l31 94l194 490h129l-292 -707h-140l-53 445l-8 95l-36 -93l-195 -447h-140l-68 707h126z" />
    <glyph glyph-name="wgrave" unicode="&#x1e81;" horiz-adv-x="833" 
d="M459 592l-96 159h128l67 -159h-99zM224 527l37 -329v-107l36 108l145 328h112l42 -330l1 -106l35 108l140 328h125l-233 -527h-139l-40 272l-7 122l-44 -122l-125 -272h-139l-68 527h122z" />
    <glyph glyph-name="Wacute" unicode="&#x1e82;" horiz-adv-x="982" 
d="M561 763l117 159h128l-147 -159h-98zM263 707l39 -489l2 -95l34 94l208 490h111l52 -490l6 -94l31 94l194 490h129l-292 -707h-140l-53 445l-8 95l-36 -93l-195 -447h-140l-68 707h126z" />
    <glyph glyph-name="wacute" unicode="&#x1e83;" horiz-adv-x="833" 
d="M461 592l117 159h127l-146 -159h-98zM224 527l37 -329v-107l36 108l145 328h112l42 -330l1 -106l35 108l140 328h125l-233 -527h-139l-40 272l-7 122l-44 -122l-125 -272h-139l-68 527h122z" />
    <glyph glyph-name="Wdieresis" unicode="&#x1e84;" horiz-adv-x="982" 
d="M583 863q0 -30 -16.5 -51.5t-57.5 -21.5q-29 0 -41.5 13.5t-12.5 35.5q0 29 16.5 50.5t56.5 21.5q30 0 42.5 -13.5t12.5 -34.5zM795 862q0 -29 -17.5 -50.5t-56.5 -21.5q-29 0 -41.5 13t-12.5 35q0 30 15.5 51.5t57.5 21.5q29 0 42 -13.5t13 -35.5zM263 707l39 -489
l2 -95l34 94l208 490h111l52 -490l6 -94l31 94l194 490h129l-292 -707h-140l-53 445l-8 95l-36 -93l-195 -447h-140l-68 707h126z" />
    <glyph glyph-name="wdieresis" unicode="&#x1e85;" horiz-adv-x="833" 
d="M480 677q0 -29 -16.5 -51.5t-57.5 -22.5q-29 0 -42 14t-13 36q0 30 17.5 51.5t57.5 21.5q29 0 41.5 -14t12.5 -35zM692 677q0 -30 -17.5 -52t-56.5 -22q-29 0 -41.5 13.5t-12.5 36.5q0 29 16 51t58 22q29 0 41.5 -14t12.5 -35zM224 527l37 -329v-107l36 108l145 328h112
l42 -330l1 -106l35 108l140 328h125l-233 -527h-139l-40 272l-7 122l-44 -122l-125 -272h-139l-68 527h122z" />
    <glyph glyph-name="Ygrave" unicode="&#x1ef2;" horiz-adv-x="672" 
d="M275 0l42 266l-183 441h128l110 -274l20 -63l41 65l193 272h137l-322 -440l-44 -267h-122zM400 763l-96 159h127l68 -159h-99z" />
    <glyph glyph-name="ygrave" unicode="&#x1ef3;" horiz-adv-x="553" 
d="M21 -111q6 -2 14 -4q7 -2 16 -3t20 -1q31 0 53.5 11.5t39.5 29t29 38.5t22 41l-107 526h125l52 -317l5 -102l199 419h123l-281 -538q-26 -49 -51.5 -86.5t-55 -63.5t-65.5 -39.5t-81 -13.5q-20 0 -34 1.5t-24 3.5q-11 3 -19 6zM320 592l-96 159h128l67 -159h-99z" />
    <glyph glyph-name="uni2009" unicode="&#x2009;" horiz-adv-x="0" 
 />
    <glyph glyph-name="endash" unicode="&#x2013;" horiz-adv-x="665" 
d="M94 248l16 98h554l-15 -98h-555z" />
    <glyph glyph-name="emdash" unicode="&#x2014;" horiz-adv-x="926" 
d="M94 248l16 98h816l-16 -98h-816z" />
    <glyph glyph-name="quoteleft" unicode="&#x2018;" horiz-adv-x="237" 
d="M304 705q-8 -5 -19.5 -16.5t-23.5 -27t-21.5 -32t-12.5 -29.5q26 -2 36 -16.5t10 -34.5q0 -32 -19 -55t-64 -23q-26 0 -42.5 16t-16.5 50q0 36 15 69.5t35.5 60.5t41.5 46.5t32 27.5z" />
    <glyph glyph-name="quoteright" unicode="&#x2019;" horiz-adv-x="237" 
d="M125 507q8 5 19.5 17t23.5 27t21.5 31.5t12.5 30.5q-26 1 -35.5 15.5t-9.5 34.5q0 32 18.5 55t63.5 23q26 0 42.5 -16t16.5 -50q0 -36 -15 -69.5t-35.5 -60.5t-41.5 -46.5t-32 -27.5z" />
    <glyph glyph-name="quotesinglbase" unicode="&#x201a;" horiz-adv-x="245" 
d="M32 -109q7 5 19 17t23.5 27.5t21 32t13.5 30.5q-26 0 -36.5 14.5t-10.5 34.5q0 33 19 56t64 23q26 0 42.5 -16t16.5 -50q0 -37 -15 -70.5t-35.5 -60.5t-41.5 -46.5t-32 -27.5z" />
    <glyph glyph-name="quotedblleft" unicode="&#x201c;" horiz-adv-x="419" 
d="M304 705q-8 -5 -19.5 -16.5t-23.5 -27t-21.5 -32t-12.5 -29.5q26 -2 36 -16.5t10 -34.5q0 -32 -19 -55t-64 -23q-26 0 -42.5 16t-16.5 50q0 36 15 69.5t35.5 60.5t41.5 46.5t32 27.5zM486 705q-8 -5 -19.5 -16.5t-23.5 -27t-21.5 -32t-12.5 -29.5q26 -2 36 -16.5
t10 -34.5q0 -32 -19 -55t-64 -23q-26 0 -42.5 16t-16.5 50q0 36 15 69.5t35.5 60.5t41.5 46.5t32 27.5z" />
    <glyph glyph-name="quotedblright" unicode="&#x201d;" horiz-adv-x="419" 
d="M125 507q8 5 19.5 17t23.5 27t21.5 31.5t12.5 30.5q-26 1 -35.5 15.5t-9.5 34.5q0 32 18.5 55t63.5 23q26 0 42.5 -16t16.5 -50q0 -36 -15 -69.5t-35.5 -60.5t-41.5 -46.5t-32 -27.5zM307 507q7 5 19 17t23.5 27t21.5 31.5t13 30.5q-26 1 -36 15.5t-10 34.5q0 32 18.5 55
t63.5 23q27 0 43.5 -16t16.5 -50q0 -36 -15.5 -69.5t-36 -60.5t-41.5 -46.5t-32 -27.5z" />
    <glyph glyph-name="quotedblbase" unicode="&#x201e;" horiz-adv-x="427" 
d="M32 -108q8 5 19.5 17t23.5 27t21.5 31.5t12.5 30.5q-26 1 -36 15.5t-10 34.5q0 32 19 55t64 23q26 0 42.5 -15.5t16.5 -50.5q0 -36 -15.5 -69.5t-36 -61t-41 -46.5t-31.5 -27zM214 -108q7 5 19 17t23.5 27t21 31.5t13.5 30.5q-26 1 -36 15.5t-10 34.5q0 32 18.5 55
t63.5 23q26 0 43 -15.5t17 -50.5q0 -36 -15.5 -69.5t-36 -61t-41.5 -46.5t-32 -27z" />
    <glyph glyph-name="dagger" unicode="&#x2020;" horiz-adv-x="449" 
d="M162 -132l42 375l31 195l-112 -8l16 104l110 -9l33 206h117l-33 -206l112 9l-16 -104l-110 8l-31 -195l-75 -375h-84z" />
    <glyph glyph-name="daggerdbl" unicode="&#x2021;" horiz-adv-x="449" 
d="M161 -132l25 234l-116 -8l16 104l110 -9l39 249l-112 -8l16 104l110 -9l33 206h117l-33 -206l112 9l-16 -104l-110 8l-39 -249l112 9l-16 -104l-115 9l-48 -235h-85z" />
    <glyph glyph-name="bullet" unicode="&#x2022;" horiz-adv-x="383" 
d="M383 330q0 -32 -9 -60.5t-28.5 -51t-51 -35.5t-75.5 -13q-67 0 -95 31.5t-28 79.5q0 32 9 61t29 51t51 35t76 13q66 0 94 -31.5t28 -79.5z" />
    <glyph glyph-name="ellipsis" unicode="&#x2026;" horiz-adv-x="721" 
d="M202 70q0 -32 -19.5 -56t-63.5 -24q-33 0 -47.5 15.5t-14.5 39.5q0 33 19 56.5t64 23.5q33 0 47.5 -15.5t14.5 -39.5zM442 70q0 -32 -19.5 -56t-63.5 -24q-33 0 -47.5 15.5t-14.5 39.5q0 33 19.5 56.5t64.5 23.5q33 0 47 -15.5t14 -39.5zM683 70q0 -32 -19.5 -56
t-63.5 -24q-33 0 -47.5 15.5t-14.5 39.5q0 33 19 56.5t64 23.5q33 0 47.5 -15.5t14.5 -39.5z" />
    <glyph glyph-name="perthousand" unicode="&#x2030;" horiz-adv-x="1228" 
d="M273 372q-63 0 -98.5 35t-35.5 104q0 45 13.5 82.5t37.5 65t58 43t75 15.5q68 0 103 -38.5t35 -103.5q0 -45 -13.5 -82.5t-38 -64t-59.5 -41.5t-77 -15zM284 440q38 0 65 33.5t27 99.5q0 76 -59 76q-38 0 -65.5 -34t-27.5 -101q0 -38 15 -55t45 -19zM158 0l587 707h80
l-587 -707h-80zM652 -10q-62 0 -97.5 35t-35.5 104q0 45 13 82.5t37 65t58 43t76 15.5q68 0 103 -38.5t35 -103.5q0 -45 -13.5 -82.5t-38.5 -64.5t-59.5 -41.5t-77.5 -14.5zM664 58q38 0 65 33.5t27 99.5q0 75 -59 75q-38 0 -65 -33.5t-27 -100.5q0 -38 14.5 -55t44.5 -19z
M1020 -10q-62 0 -98 35t-36 104q0 45 13.5 82.5t37.5 65t58 43t76 15.5q68 0 103 -38.5t35 -103.5q0 -45 -13.5 -82.5t-38.5 -64.5t-60 -41.5t-77 -14.5zM1031 58q39 0 65.5 33.5t26.5 99.5q0 75 -58 75q-38 0 -65.5 -33.5t-27.5 -100.5q0 -38 15 -55t44 -19z" />
    <glyph glyph-name="guilsinglleft" unicode="&#x2039;" horiz-adv-x="377" 
d="M204 100l-89 186l148 186h118l-147 -187l88 -185h-118z" />
    <glyph glyph-name="guilsinglright" unicode="&#x203a;" horiz-adv-x="377" 
d="M86 100l146 185l-87 187h118l88 -186l-147 -186h-118z" />
    <glyph glyph-name="fraction" unicode="&#x2044;" horiz-adv-x="251" 
d="M-110 0l489 707h89l-489 -707h-89z" />
    <glyph glyph-name="uni2070" unicode="&#x2070;" horiz-adv-x="445" 
d="M340 799q84 0 122 -43t38 -119q0 -128 -56.5 -196.5t-159.5 -68.5q-71 0 -113 40.5t-42 118.5q0 128 55.5 198t155.5 70zM338 728q-58 0 -90 -49t-32 -146q0 -42 17.5 -66.5t59.5 -24.5q31 0 54 16t38 42.5t22 62t7 74.5q0 44 -17 67.5t-59 23.5z" />
    <glyph glyph-name="uni2074" unicode="&#x2074;" horiz-adv-x="392" 
d="M107 531l226 261h99l-41 -261h57l-10 -64h-57l-14 -89h-87l14 89h-188zM305 531l23 151l8 28l-153 -179h122z" />
    <glyph glyph-name="uni2075" unicode="&#x2075;" horiz-adv-x="380" 
d="M123 457q9 -4 23 -8q11 -3 29 -5.5t41 -2.5q65 0 93.5 21t28.5 56t-26 46.5t-71 11.5q-20 0 -38.5 -1.5t-32.5 -3.5q-17 -2 -32 -4l45 226h257l-10 -69h-182l-19 -90q6 1 15 2q7 1 16.5 1.5t20.5 0.5q30 0 56 -6t45.5 -19.5t31 -35.5t11.5 -53q0 -27 -10 -53.5t-34 -48.5
t-64 -35.5t-100 -13.5q-27 0 -48 2.5t-35 5.5q-17 4 -29 8z" />
    <glyph glyph-name="uni2076" unicode="&#x2076;" horiz-adv-x="401" 
d="M440 712q-10 3 -22 7q-11 3 -26 5.5t-35 2.5q-59 0 -89.5 -27.5t-43.5 -79.5q11 6 37.5 14.5t64.5 8.5q63 0 95.5 -31t32.5 -84q0 -35 -12.5 -63.5t-35 -49t-55.5 -32t-73 -11.5q-79 0 -115 45.5t-36 119.5q0 58 16 106t46 82.5t72.5 53.5t96.5 19q23 0 41.5 -3t32.5 -7
q16 -4 29 -9zM214 555q-2 -10 -2.5 -16.5t-0.5 -15.5q0 -35 17.5 -58.5t54.5 -23.5q16 0 31 4.5t27 14t19.5 24.5t7.5 36q0 29 -15.5 43t-50.5 14q-29 0 -52.5 -7.5t-35.5 -14.5z" />
    <glyph glyph-name="uni2077" unicode="&#x2077;" horiz-adv-x="337" 
d="M148 792h284l-5 -65l-219 -349h-95l192 310l26 34h-194z" />
    <glyph glyph-name="uni2078" unicode="&#x2078;" horiz-adv-x="420" 
d="M335 799q74 0 108.5 -29.5t34.5 -71.5q0 -24 -9.5 -42.5t-23 -31.5t-28.5 -21t-25 -11q8 -3 19.5 -9.5t22.5 -18t19 -28t8 -39.5q0 -60 -50 -92.5t-142 -32.5q-80 0 -118 27.5t-38 74.5q0 28 11.5 49t27 35t33 22.5t29.5 11.5q-7 2 -16.5 8.5t-18 17t-14.5 25t-6 34.5
q0 55 45.5 88.5t130.5 33.5zM326 735q-38 0 -61.5 -14t-23.5 -43q0 -18 10.5 -28.5t24.5 -16.5t27.5 -8.5t18.5 -4.5q32 12 52 26.5t20 42.5q0 24 -18.5 35t-49.5 11zM287 558q-14 -3 -29 -8t-27.5 -13t-20.5 -20t-8 -30q0 -50 77 -50q46 0 71 16.5t25 45.5q0 18 -12 29
t-27 17t-29.5 8.5t-19.5 4.5z" />
    <glyph glyph-name="uni2079" unicode="&#x2079;" horiz-adv-x="406" 
d="M151 458q10 -4 22 -8q11 -3 25.5 -5t34.5 -2q59 0 89.5 27.5t43.5 79.5q-11 -5 -37.5 -14t-64.5 -9q-63 0 -95.5 31t-32.5 84q0 34 12 62.5t35 49.5t55.5 32.5t73.5 11.5q79 0 115.5 -45.5t36.5 -119.5q0 -58 -16 -106t-46 -82.5t-73 -53.5t-97 -19q-23 0 -41.5 2.5
t-32.5 6.5q-16 4 -29 10zM376 615q2 10 2.5 16.5t0.5 15.5q0 36 -17.5 59t-53.5 23q-16 0 -31.5 -4.5t-27.5 -14t-19 -24.5t-7 -37q0 -29 15 -42.5t50 -13.5q29 0 52.5 7t35.5 15z" />
    <glyph glyph-name="uni2080" unicode="&#x2080;" horiz-adv-x="444" 
d="M260 291q84 0 122 -43t38 -118q0 -129 -56 -197t-158 -68q-72 0 -115 39t-43 120q0 128 56 197.5t156 69.5zM258 221q-58 0 -90.5 -49t-32.5 -147q0 -41 18 -65.5t63 -24.5q31 0 53 15.5t36 42.5t21 62.5t7 74.5q0 43 -17 67t-58 24z" />
    <glyph glyph-name="uni2081" unicode="&#x2081;" horiz-adv-x="250" 
d="M82 -129l53 336l-80 -22l1 61l126 39h52l-65 -414h-87z" />
    <glyph glyph-name="uni2082" unicode="&#x2082;" horiz-adv-x="380" 
d="M25 -129l6 72q33 21 75.5 44.5t80 50t63 56.5t25.5 65q0 30 -19.5 46t-64.5 16q-22 0 -40 -3t-32 -7q-16 -4 -29 -9l-7 65q19 7 42 12q20 5 44.5 9t52.5 4q39 0 67 -10t45 -26.5t25 -38t8 -45.5q0 -32 -13.5 -60.5t-34 -52.5t-46 -44t-49.5 -35t-44 -25.5t-29 -16.5l51 4
h126l-11 -71h-292z" />
    <glyph glyph-name="uni2083" unicode="&#x2083;" horiz-adv-x="375" 
d="M36 -50q9 -5 23 -9q12 -3 31 -5.5t46 -2.5q22 0 42.5 3t35.5 10t24 19.5t9 32.5q0 28 -21 40.5t-73 12.5q-9 0 -17 -0.5t-14 -0.5q-7 -1 -12 -1l10 64q3 -1 8 -1h27q20 0 40 2t36.5 8t26.5 18.5t10 33.5q0 24 -18 36.5t-67 12.5q-23 0 -41 -2.5t-31 -4.5q-15 -4 -26 -7
l-7 63q16 5 35 9q17 4 40 7t51 3q80 0 116.5 -26.5t36.5 -72.5q0 -34 -20 -61t-66 -43q30 -9 46.5 -30t16.5 -59q0 -64 -47 -99t-148 -35q-29 0 -51 2.5t-37 5.5q-18 4 -30 9z" />
    <glyph glyph-name="uni2084" unicode="&#x2084;" horiz-adv-x="392" 
d="M26 23l226 262h100l-41 -261h57l-10 -65h-58l-14 -88h-86l14 88h-188v64zM225 24l23 150l9 33l-157 -183h125z" />
    <glyph glyph-name="uni2085" unicode="&#x2085;" horiz-adv-x="380" 
d="M43 -52q9 -4 23 -8q11 -3 29 -5t41 -2q64 0 92.5 21t28.5 56t-25.5 47t-70.5 12q-20 0 -39 -1.5t-33 -3.5q-17 -3 -32 -5l46 226h257l-11 -69h-182l-19 -90q6 1 15 2q7 1 16.5 1.5t20.5 0.5q30 0 56 -6t45.5 -19.5t31 -35.5t11.5 -53q0 -27 -10 -53.5t-34 -48.5
t-64 -35.5t-100 -13.5q-27 0 -47.5 2.5t-34.5 5.5q-17 4 -29 8z" />
    <glyph glyph-name="uni2086" unicode="&#x2086;" horiz-adv-x="406" 
d="M360 205q-10 3 -22 7q-11 3 -26 5.5t-34 2.5q-60 0 -90 -27.5t-43 -79.5q10 6 37 14.5t64 8.5q64 0 96.5 -31t32.5 -84q0 -35 -12.5 -63.5t-35 -49t-55.5 -32t-73 -11.5t-68.5 12t-47 33.5t-27.5 52t-9 67.5q0 58 16 106t46 82.5t73 53.5t97 19q22 0 41 -3t33 -6
q16 -4 29 -9zM134 48q-2 -10 -2.5 -16.5t-0.5 -15.5q0 -35 18 -58.5t54 -23.5q16 0 31 4.5t27 14t19 24.5t7 36q0 29 -15 43t-49 14q-29 0 -53 -7t-36 -15z" />
    <glyph glyph-name="uni2087" unicode="&#x2087;" horiz-adv-x="337" 
d="M68 285h284l-5 -66l-219 -348h-94l192 309l25 35h-194z" />
    <glyph glyph-name="uni2088" unicode="&#x2088;" horiz-adv-x="419" 
d="M254 291q74 0 108.5 -29t34.5 -71q0 -24 -9.5 -42.5t-23 -31.5t-28.5 -21.5t-25 -11.5q8 -3 19.5 -9.5t22.5 -17.5t19 -27.5t8 -39.5q0 -60 -50 -92.5t-142 -32.5q-79 0 -117.5 27.5t-38.5 74.5q0 28 11.5 48.5t27 35t32.5 22.5t29 11q-6 2 -15.5 8.5t-17.5 17t-14 25
t-6 34.5q0 55 45 88.5t130 33.5zM245 228q-37 0 -61 -14.5t-24 -43.5q0 -18 10.5 -28t24.5 -16t27.5 -8.5t18.5 -4.5q32 12 52 26t20 43q0 23 -18.5 34.5t-49.5 11.5zM206 51q-14 -3 -29 -8t-27.5 -13t-20.5 -20t-8 -30q0 -50 78 -50q46 0 70 16.5t24 45.5q0 18 -11.5 28.5
t-26.5 16.5t-29.5 9t-19.5 5z" />
    <glyph glyph-name="uni2089" unicode="&#x2089;" horiz-adv-x="404" 
d="M71 -46q9 -4 21 -8q11 -3 26 -5t35 -2q59 0 89.5 27.5t41.5 79.5q-10 -6 -36.5 -14.5t-65.5 -8.5q-63 0 -95.5 30t-32.5 84q0 34 12 62.5t35 49.5t56 32.5t74 11.5q82 0 116.5 -45t34.5 -121q0 -58 -15.5 -106t-45.5 -82t-72.5 -52.5t-96.5 -18.5q-23 0 -41.5 2.5
t-32.5 6.5q-16 4 -29 10zM294 111q3 18 3 36q0 35 -17 56.5t-55 21.5q-16 0 -31 -4.5t-27 -14t-19 -25t-7 -36.5q0 -29 15 -43t50 -14q29 0 53 7.5t35 15.5z" />
    <glyph glyph-name="franc" unicode="&#x20a3;" horiz-adv-x="620" 
d="M115 0l20 123h-90l13 84h90l79 500h445l-18 -107h-318l-31 -199h271l-15 -102h-272l-15 -92h111l-13 -84h-111l-19 -123h-127z" />
    <glyph glyph-name="lira" unicode="&#x20a4;" horiz-adv-x="613" 
d="M270 238q-11 -33 -24 -61.5t-30 -52.5q4 0 20.5 4t36.5 4q24 0 43 -4.5t36.5 -10.5t35.5 -10.5t40 -4.5q35 0 60.5 11.5t39.5 22.5l32 -81q-34 -32 -70.5 -43.5t-68.5 -11.5q-25 0 -48 5t-45.5 11.5t-46 11.5t-48.5 5q-19 0 -37 -4t-32.5 -9t-25.5 -11t-16 -9l-38 102
q28 23 44.5 57.5t27.5 78.5h-75l12 77h78q3 19 6.5 38.5t6.5 40.5h-78l12 77h78q9 58 30 104t55.5 77.5t84 48t116.5 16.5q36 0 64 -4t47 -9q22 -5 38 -12l-34 -95q-12 5 -29 9q-14 4 -35 7t-47 3q-71 0 -113.5 -30t-54.5 -106l-2 -9h186l-11 -77h-187l-15 -79h189l-12 -77
h-196z" />
    <glyph glyph-name="Euro" unicode="&#x20ac;" horiz-adv-x="661" 
d="M663 579q-17 7 -37 12q-17 5 -41.5 8.5t-52.5 3.5q-70 0 -127.5 -31t-87.5 -107h210l-13 -76h-225q-5 -20 -6.5 -35.5t-2.5 -36.5h223l-12 -76h-205q7 -78 53.5 -107.5t127.5 -29.5q45 0 75.5 7t46.5 12l10 -96q-3 -2 -15 -6t-32.5 -9t-48.5 -8.5t-63 -3.5q-70 0 -121 17
t-85 48t-52.5 75.5t-22.5 100.5h-67l12 76h54q2 21 3.5 36t6.5 36h-53l13 76h60q37 111 121 176.5t220 65.5q38 0 68.5 -5.5t52.5 -11.5q26 -8 45 -17l-32 -94v0z" />
    <glyph glyph-name="afii61289" unicode="&#x2113;" horiz-adv-x="501" 
d="M419 27q-17 -11 -38 -19q-18 -7 -43 -12.5t-56 -5.5q-33 0 -61 8.5t-49 26.5t-32.5 46t-11.5 67q-15 -6 -29 -11.5t-26 -9.5l8 79q3 1 10.5 4.5t15.5 7t16 7.5t11 6l51 326q16 100 72 147t134 47q69 0 105.5 -36.5t36.5 -106.5q0 -68 -25.5 -127.5t-66 -109.5
t-91.5 -91.5t-103 -73.5q-1 -8 -1 -14.5v-12.5q0 -45 18.5 -62.5t55.5 -17.5q19 0 36 4.5t29 9.5q14 6 26 14zM261 297q37 29 70 61t57 67.5t38 74t14 81.5q0 41 -17 54.5t-40 13.5q-28 0 -50.5 -21t-30.5 -69q-10 -64 -19 -118q-4 -23 -7.5 -46t-6.5 -42.5t-5 -34.5t-3 -21
z" />
    <glyph glyph-name="trademark" unicode="&#x2122;" horiz-adv-x="709" 
d="M650 410l22 203l-82 -157h-52l-32 157l-42 -203h-74l65 297h87l35 -168l88 168h87l-29 -297h-73zM192 410l36 231h-89l10 66h250l-10 -66h-88l-37 -231h-72z" />
    <glyph glyph-name="uni2126" unicode="&#x2126;" horiz-adv-x="711" 
d="M395 0l16 103q27 13 60.5 42t63 72t50 99t20.5 123q0 79 -36.5 127.5t-120.5 48.5q-53 0 -93.5 -20.5t-67.5 -56.5t-41 -85.5t-14 -107.5q0 -51 9.5 -91t24 -70.5t32 -50.5t34.5 -30l-16 -103h-271l16 103h144q-14 10 -31.5 31.5t-32.5 53t-25 73.5t-10 95q0 73 22 138.5
t66 115t110 78.5t153 29q74 0 126.5 -21.5t85.5 -58t48.5 -85t15.5 -103.5q0 -70 -20.5 -127.5t-50 -101t-62.5 -73.5t-57 -44h139l-17 -103h-270z" />
    <glyph glyph-name="estimated" unicode="&#x212e;" horiz-adv-x="864" 
d="M757 136q-63 -66 -145.5 -105.5t-175.5 -39.5q-70 0 -129.5 25t-102.5 68.5t-67.5 102t-24.5 125.5q0 84 36.5 158.5t97.5 130.5t140 89t164 33q68 0 125.5 -22.5t99.5 -62.5t65.5 -96.5t23.5 -123.5q0 -15 -1.5 -30t-3.5 -31l-3 -19h-571l-33 -224q36 -34 84 -53.5
t106 -19.5q67 0 130 26t114 69h71zM726 600q-35 34 -81 52.5t-103 18.5q-58 0 -113 -18.5t-102 -53.5l-35 -218h399z" />
    <glyph glyph-name="onethird" unicode="&#x2153;" horiz-adv-x="1001" 
d="M176 0l587 707h80l-587 -707h-80zM196 293l54 337l-80 -23l1 61l126 39h52l-65 -414h-88zM659 79q9 -4 23 -8q12 -3 30.5 -5.5t45.5 -2.5q22 0 42.5 3t35.5 10t24 19.5t9 32.5q0 27 -20.5 40t-72.5 13q-10 0 -17.5 -0.5t-13.5 -0.5q-7 -1 -12 -1l10 64q3 -1 8 -1
q5 -1 11 -1h16q20 0 40.5 2t36.5 8.5t26 18.5t10 33q0 24 -18.5 36.5t-66.5 12.5q-24 0 -42 -2.5t-31 -4.5q-15 -4 -26 -7l-7 64q16 5 36 9q17 4 40 7t51 3q79 0 116 -26.5t37 -73.5q0 -34 -20.5 -61t-66.5 -42q31 -10 47 -30.5t16 -59.5q0 -63 -46.5 -98t-148.5 -35
q-29 0 -51 2.5t-37 5.5q-18 4 -30 9z" />
    <glyph glyph-name="twothirds" unicode="&#x2154;" horiz-adv-x="1092" 
d="M938 707l-587 -707h-79l587 707h79zM175 688q19 7 42 12q20 5 44.5 9t52.5 4q39 0 67 -10t45.5 -26.5t25.5 -38t8 -45.5q0 -32 -13.5 -60.5t-34.5 -52.5t-46.5 -44t-49.5 -35t-43.5 -25.5t-28.5 -16.5l50 4h127l-12 -70h-292l6 72q33 21 75.5 44.5t80 50t63.5 56.5t26 65
q0 29 -20 45.5t-65 16.5q-22 0 -40 -3t-32 -7q-16 -4 -29 -10zM792 402q16 5 35 9q17 4 39.5 7t50.5 3q80 0 117 -26.5t37 -73.5q0 -34 -20.5 -61t-66.5 -42q30 -10 47 -30.5t17 -59.5q0 -63 -47.5 -98t-148.5 -35q-29 0 -51 2.5t-37 5.5q-18 4 -30 9l15 67q9 -4 23 -8
q12 -3 31 -5.5t46 -2.5q22 0 42.5 3t35.5 10t24 19.5t9 32.5q0 27 -20.5 40t-72.5 13q-10 0 -18 -0.5t-14 -0.5q-7 -1 -12 -1l11 64q3 -1 8 -1q4 -1 10.5 -1h15.5q20 0 40.5 2t36.5 8.5t26 18.5t10 33q0 24 -18 36.5t-66 12.5q-24 0 -42 -2.5t-31 -4.5q-15 -4 -26 -7z" />
    <glyph glyph-name="oneeighth" unicode="&#x215b;" horiz-adv-x="1004" 
d="M284 293h-88l54 337l-80 -23l1 61l126 39h52zM843 707l-587 -707h-80l587 707h80zM832 421q73 0 108 -29.5t35 -71.5q0 -24 -9.5 -42.5t-23 -31.5t-28.5 -21.5t-25 -11.5q8 -2 19.5 -8.5t22.5 -18t19 -28.5t8 -39q0 -60 -50 -92.5t-142 -32.5q-79 0 -117.5 27.5
t-38.5 73.5q0 28 11.5 49t27 35.5t32.5 23t29 11.5q-6 2 -15.5 8t-17.5 16.5t-14 25t-6 34.5q0 55 45 89t130 34zM823 356q-38 0 -61 -13.5t-23 -43.5q0 -18 10.5 -28.5t24 -16t27 -8t18.5 -4.5q32 12 52 26.5t20 42.5q0 23 -18 34t-50 11zM784 180q-14 -3 -29 -8
t-27.5 -13.5t-20.5 -20.5t-8 -30q0 -48 77 -48q46 0 71 16t25 45q0 18 -12 29t-27 17t-29.5 8.5t-19.5 4.5z" />
    <glyph glyph-name="threeeighths" unicode="&#x215c;" horiz-adv-x="1069" 
d="M174 695q17 5 36 9q17 3 39.5 6t50.5 3q80 0 117 -26.5t37 -72.5q0 -35 -21 -61.5t-66 -43.5q30 -8 46.5 -29t16.5 -59q0 -64 -46.5 -99.5t-148.5 -35.5q-29 0 -51 2.5t-37 5.5q-18 4 -30 9l15 69q9 -5 23 -9q12 -3 31 -5.5t46 -2.5q22 0 42.5 2.5t35.5 10t24 20t9 32.5
q0 28 -20.5 40.5t-73.5 12.5q-10 0 -17.5 -0.5t-13.5 -0.5q-7 -1 -12 -1l11 64q3 -1 8 -1q4 -1 10.5 -1h15.5q20 0 40.5 2t36.5 9t26 19t10 33q0 24 -18 36.5t-67 12.5q-23 0 -41 -2.5t-31 -5.5q-15 -4 -26 -7zM907 707l-587 -707h-79l587 707h79zM897 421q74 0 108.5 -29.5
t34.5 -71.5q0 -24 -9.5 -42.5t-23 -31.5t-28 -21.5t-24.5 -11.5q8 -2 19.5 -8.5t22.5 -18t19 -28.5t8 -39q0 -60 -50 -92.5t-142 -32.5q-80 0 -118.5 27.5t-38.5 73.5q0 28 11.5 49t27 35.5t32.5 23t29 11.5q-6 2 -15 8t-17.5 16.5t-14.5 25t-6 34.5q0 55 45 89t130 34z
M889 356q-38 0 -61.5 -13.5t-23.5 -43.5q0 -18 10.5 -28.5t24.5 -16t27.5 -8t18.5 -4.5q31 12 51 26.5t20 42.5q0 23 -18.5 34t-48.5 11zM849 180q-14 -3 -28.5 -8t-27.5 -13.5t-21 -20.5t-8 -30q0 -48 78 -48q94 0 94 61q0 18 -11.5 29t-26.5 17t-29.5 8.5t-19.5 4.5z" />
    <glyph glyph-name="fiveeighths" unicode="&#x215d;" horiz-adv-x="1070" 
d="M451 707l-11 -68h-182l-19 -90q6 0 15 1q7 1 16.5 1.5t20.5 0.5q30 0 56.5 -6t46 -19.5t31 -35.5t11.5 -53q0 -27 -10 -53.5t-34 -48.5t-64.5 -35.5t-100.5 -13.5q-27 0 -47.5 2.5t-34.5 5.5q-17 4 -29 8l17 68q10 -4 24 -8q12 -3 29.5 -5.5t40.5 -2.5q64 0 92.5 21.5
t28.5 56.5q0 34 -25.5 46t-70.5 12q-20 0 -39 -1.5t-33 -3.5q-17 -2 -32 -4l46 225h257zM909 707l-587 -707h-80l587 707h80zM898 421q73 0 108 -29.5t35 -71.5q0 -24 -9.5 -42.5t-23 -31.5t-28 -21.5t-24.5 -11.5q8 -2 19.5 -8.5t22.5 -18t18.5 -28.5t7.5 -39
q0 -60 -50 -92.5t-141 -32.5q-81 0 -119 27.5t-38 73.5q0 28 11.5 49t27 35.5t32.5 23t29 11.5q-6 2 -15.5 8t-17.5 16.5t-14 25t-6 34.5q0 55 45 89t130 34zM889 356q-38 0 -61 -13.5t-23 -43.5q0 -18 10.5 -28.5t24 -16t27 -8t18.5 -4.5q32 12 51.5 26.5t19.5 42.5
q0 23 -17.5 34t-49.5 11zM850 180q-14 -3 -29 -8t-27.5 -13.5t-20.5 -20.5t-8 -30q0 -48 77 -48q46 0 70.5 16t24.5 45q0 18 -12 29t-27 17t-29 8.5t-19 4.5z" />
    <glyph glyph-name="seveneighths" unicode="&#x215e;" horiz-adv-x="1009" 
d="M461 707l-5 -65l-218 -349h-95l192 310l24 34h-193l11 70h284zM848 707l-587 -707h-79l587 707h79zM837 421q74 0 108.5 -29.5t34.5 -71.5q0 -24 -9.5 -42.5t-23 -31.5t-28 -21.5t-24.5 -11.5q7 -2 19 -8.5t22.5 -18t18.5 -28.5t8 -39q0 -60 -50 -92.5t-142 -32.5
q-79 0 -117.5 27.5t-38.5 73.5q0 28 11.5 49t27.5 35.5t33 23t28 11.5q-6 2 -15.5 8t-17.5 16.5t-14 25t-6 34.5q0 55 45 89t130 34zM828 356q-37 0 -60.5 -13.5t-23.5 -43.5q0 -18 10.5 -28.5t24 -16t27 -8t18.5 -4.5q32 12 51.5 26.5t19.5 42.5q0 23 -17.5 34t-49.5 11z
M789 180q-14 -3 -29 -8t-27.5 -13.5t-20.5 -20.5t-8 -30q0 -48 77 -48q46 0 71 16t25 45q0 18 -12 29t-27 17t-29.5 8.5t-19.5 4.5z" />
    <glyph glyph-name="arrowleft" unicode="&#x2190;" horiz-adv-x="780" 
d="M270 305l227 -268h-121l-265 316l365 315h121l-312 -269h503l-15 -94h-503z" />
    <glyph glyph-name="arrowup" unicode="&#x2191;" horiz-adv-x="790" 
d="M431 524l-311 -269l19 121l366 315l264 -315l-19 -121l-226 269l-79 -503h-94z" />
    <glyph glyph-name="arrowright" unicode="&#x2192;" horiz-adv-x="780" 
d="M516 668l265 -315l-365 -316h-120l311 268h-503l15 94h503l-226 269h120z" />
    <glyph glyph-name="arrowdown" unicode="&#x2193;" horiz-adv-x="790" 
d="M472 187l311 269l-20 -120l-365 -315l-265 315l19 120l226 -269l80 504h94z" />
    <glyph glyph-name="uni2196" unicode="&#x2196;" horiz-adv-x="736" 
d="M262 442l-61 -380l-70 85l71 445h444l73 -84h-381l300 -356l-77 -66z" />
    <glyph glyph-name="uni2197" unicode="&#x2197;" horiz-adv-x="736" 
d="M651 147l-97 -85l60 380l-412 -356l-56 66l412 356h-380l100 84h444z" />
    <glyph glyph-name="uni2198" unicode="&#x2198;" horiz-adv-x="736" 
d="M578 211l60 381l71 -86l-71 -444h-445l-72 83h380l-299 356l75 67z" />
    <glyph glyph-name="uni2199" unicode="&#x2199;" horiz-adv-x="736" 
d="M637 568l56 -67l-413 -356h381l-99 -83h-444l70 444l97 86l-60 -381z" />
    <glyph glyph-name="partialdiff" unicode="&#x2202;" horiz-adv-x="580" 
d="M322 762q18 2 34 3.5t32 1.5q73 0 120 -26.5t74.5 -67t38.5 -90t11 -95.5q0 -52 -8.5 -109t-27 -112t-47.5 -105.5t-71 -88.5t-97.5 -60.5t-125.5 -22.5q-49 0 -86 15t-62 42t-37.5 64t-12.5 81q0 76 20.5 139.5t61 109t100 71t137.5 25.5q30 0 52.5 -5t39 -11.5
t27.5 -14t18 -12.5q-2 34 -11 66t-27 57t-47.5 39.5t-73.5 14.5q-12 0 -25.5 -1t-27.5 -3zM506 395q-17 16 -49 30.5t-79 14.5q-97 0 -147.5 -64t-50.5 -175q0 -56 26.5 -82.5t74.5 -26.5q53 0 91.5 27t65.5 70.5t43 97.5t25 108z" />
    <glyph glyph-name="uni2206" unicode="&#x2206;" horiz-adv-x="669" 
d="M7 0l357 707h165l132 -707h-654zM425 588l-241 -480h331z" />
    <glyph glyph-name="product" unicode="&#x220f;" horiz-adv-x="847" 
d="M534 -204l131 832h-285l-132 -832h-121l132 832h-99l16 103h726l-16 -103h-99l-132 -832h-121z" />
    <glyph glyph-name="summation" unicode="&#x2211;" horiz-adv-x="627" 
d="M33 -204l18 109l287 359l-174 357l17 110h496l-17 -110h-362l174 -357l-288 -359h362l-17 -109h-496z" />
    <glyph glyph-name="minus" unicode="&#x2212;" horiz-adv-x="604" 
d="M94 248l17 103h493l-16 -103h-494z" />
    <glyph glyph-name="uni2215" unicode="&#x2215;" horiz-adv-x="599" 
d="M5 0l587 707h114l-587 -707h-114z" />
    <glyph glyph-name="uni2219" unicode="&#x2219;" horiz-adv-x="252" 
d="M257 381q0 -32 -19.5 -56t-63.5 -24q-34 0 -48 15.5t-14 39.5q0 33 19 57t64 24q33 0 47.5 -16t14.5 -40z" />
    <glyph glyph-name="radical" unicode="&#x221a;" horiz-adv-x="716" 
d="M295 0l-78 432h-136l15 95h237l54 -421l331 708h126l-395 -814h-154z" />
    <glyph glyph-name="infinity" unicode="&#x221e;" horiz-adv-x="959" 
d="M113 310q0 52 21 92.5t53.5 68t72 41.5t77.5 14t71.5 -13.5t60.5 -32t46.5 -38t29.5 -32.5q14 12 39 32t57 38.5t69.5 32t75.5 13.5q34 0 64 -11.5t52.5 -33.5t36 -52.5t13.5 -68.5q0 -54 -21 -94t-53.5 -66.5t-72 -39.5t-76.5 -13q-39 0 -74 13.5t-62 31.5t-46 37
t-27 30q-14 -14 -39 -33t-57.5 -36.5t-69.5 -30t-76 -12.5q-33 0 -62.5 11t-52.5 31.5t-36.5 51t-13.5 69.5zM222 323q0 -35 24 -55t57 -20q39 0 80.5 24.5t80.5 62.5q-28 36 -61.5 61.5t-75.5 25.5q-21 0 -40 -7.5t-33.5 -21t-23 -31.5t-8.5 -39zM603 335
q10 -15 24.5 -30.5t31.5 -28t36.5 -20.5t40.5 -8q20 0 39.5 7t35 20t25 31.5t9.5 41.5q0 35 -23.5 55t-57.5 20q-38 -2 -78.5 -25.5t-82.5 -62.5z" />
    <glyph glyph-name="integral" unicode="&#x222b;" horiz-adv-x="555" 
d="M584 638q-7 2 -16 4q-8 2 -17.5 3.5t-21.5 1.5q-42 0 -68.5 -22t-36.5 -85l-87 -544q-10 -65 -33.5 -105.5t-55 -64t-68 -32t-71.5 -8.5q-34 0 -59 5q-13 3 -24 6l30 98q7 -2 16 -4q8 -2 17.5 -3t20.5 -1q42 0 69.5 23.5t37.5 87.5l87 544q10 65 34 105t55 62.5
t66.5 30.5t69.5 8q18 0 34 -2t27 -4q13 -3 24 -6l-30 -98v0z" />
    <glyph glyph-name="approxequal" unicode="&#x2248;" horiz-adv-x="627" 
d="M126 335q6 35 19.5 64.5t34.5 51t49.5 33.5t63.5 12q32 0 56 -10t44 -22t38.5 -22t40.5 -10q23 0 39 14.5t21 48.5h101q-11 -71 -55.5 -115.5t-115.5 -44.5q-33 0 -56 9.5t-42 21.5t-37 21.5t-40 9.5q-27 0 -41 -16t-19 -46h-101zM93 128q11 71 54 116t114 45
q32 0 55.5 -10t43.5 -21.5t38.5 -21.5t40.5 -10q23 0 39 14t21 48h101q-11 -70 -55 -115t-115 -45q-33 0 -56 10t-42 21.5t-37 21.5t-40 10q-27 0 -41.5 -16.5t-19.5 -46.5h-101z" />
    <glyph glyph-name="notequal" unicode="&#x2260;" horiz-adv-x="588" 
d="M302 164l-69 -123h-93l68 123h-114l15 97h154l57 103h-195l16 98h233l64 112h94l-63 -112h124l-15 -98h-164l-57 -103h204l-15 -97h-244z" />
    <glyph glyph-name="lessequal" unicode="&#x2264;" horiz-adv-x="587" 
d="M124 333l18 115l475 186l-18 -114l-324 -129l283 -128l-18 -114zM71 0l16 98h446l-16 -98h-446z" />
    <glyph glyph-name="greaterequal" unicode="&#x2265;" horiz-adv-x="587" 
d="M94 149l19 114l324 128l-283 129l17 114l417 -185l-18 -116zM71 0l15 98h446l-15 -98h-446z" />
    <glyph glyph-name="lozenge" unicode="&#x25ca;" horiz-adv-x="627" 
d="M248 1l-146 364l262 365h130l146 -365l-262 -364h-130zM520 365l-108 263l-189 -263l106 -262z" />
    <glyph glyph-name="zero.oldstyle" horiz-adv-x="624" 
d="M387 537q116 0 176.5 -59.5t60.5 -162.5q0 -77 -23.5 -137t-65 -102t-98 -64t-123.5 -22q-50 0 -92 13.5t-72.5 41.5t-48 70.5t-17.5 100.5q0 73 22.5 132.5t63 101.5t96 64.5t121.5 22.5zM380 441q-35 0 -66.5 -14t-55.5 -42t-38.5 -68.5t-14.5 -94.5q0 -64 30 -100
t93 -36q35 0 66.5 14.5t55.5 42.5t38.5 70t14.5 96q0 64 -32.5 98t-90.5 34z" />
    <glyph glyph-name="one.oldstyle" horiz-adv-x="384" 
d="M170 0l66 419l-134 -43v85l199 66h76l-84 -527h-123z" />
    <glyph glyph-name="two.oldstyle" horiz-adv-x="563" 
d="M63 0l7 103q7 2 36 11t69 25t84 38t81.5 49.5t62 60t24.5 70.5q0 36 -28 59t-98 23q-34 0 -62.5 -5t-49.5 -11q-25 -7 -45 -16l-13 89q28 11 61 20q29 8 66.5 14.5t82.5 6.5q59 0 99.5 -12.5t66 -34.5t36.5 -52t11 -64q0 -56 -26 -101t-66 -79.5t-89.5 -59.5t-95.5 -41
l61 5h184l-16 -98h-443z" />
    <glyph glyph-name="three.oldstyle" horiz-adv-x="558" 
d="M41 -65q19 -8 43 -13q20 -5 49 -9t64 -4q86 0 138.5 29.5t52.5 94.5q0 54 -38 75.5t-117 21.5q-12 0 -23.5 -0.5t-21.5 -1.5q-11 -1 -21 -1l16 104q7 -1 16 -1q8 -1 16.5 -1h19.5q37 0 72 5t61.5 18t42.5 35.5t16 58.5q0 50 -33 71t-107 21q-33 0 -61 -3.5t-49 -8.5
q-25 -5 -45 -11l-8 92q25 8 57 15q27 5 63.5 10t80.5 5q61 0 104.5 -12t71.5 -33.5t40.5 -51t12.5 -65.5q0 -69 -38 -116t-107 -69q19 -6 37 -18.5t32.5 -31.5t23.5 -45.5t9 -61.5q0 -104 -74.5 -163.5t-231.5 -59.5q-45 0 -79 4t-58 9q-28 6 -49 14z" />
    <glyph glyph-name="four.oldstyle" horiz-adv-x="636" 
d="M46 97l381 430h153l-68 -429h109l-15 -98h-109l-25 -157h-122l25 157h-328zM390 98l39 245l14 67l-277 -312h224z" />
    <glyph glyph-name="five.oldstyle" horiz-adv-x="567" 
d="M55 -65q16 -8 39 -13q20 -5 49 -9t68 -4q99 0 149.5 39.5t50.5 107.5q0 30 -12 50.5t-33.5 33t-51 18.5t-65.5 6q-43 0 -86 -5t-69 -10l76 378h398l-17 -100h-283l-35 -171q16 2 36.5 4.5t43.5 2.5q46 0 86.5 -11.5t70.5 -35.5t47.5 -61t17.5 -88q0 -52 -18 -98.5
t-56 -82t-99 -56t-146 -20.5q-45 0 -79.5 4t-57.5 9q-27 5 -47 13z" />
    <glyph glyph-name="six.oldstyle" horiz-adv-x="596" 
d="M575 598q-11 6 -26 10q-13 4 -32 7t-44 3q-51 0 -89.5 -15t-67 -43.5t-47.5 -69t-31 -90.5q7 4 23 12t38 15.5t49.5 13t58.5 5.5q47 0 82 -14.5t58 -40.5t34 -61.5t11 -77.5q0 -54 -18 -101.5t-53 -83t-86 -56.5t-118 -21q-65 0 -108 20t-68.5 55t-36 82.5t-10.5 103.5
q0 52 8.5 106.5t26.5 106.5t47 98t70.5 80.5t96 54.5t124.5 20q32 0 57.5 -3.5t43.5 -8.5q21 -5 37 -12zM220 305q-2 -19 -3.5 -36.5t-1.5 -34.5q0 -32 5.5 -59t18 -46.5t33.5 -30t52 -10.5q27 0 53.5 9t47 28t33.5 48t13 69q0 60 -29 83.5t-74 23.5q-23 0 -45 -4.5
t-41.5 -11t-35.5 -14.5t-26 -14z" />
    <glyph glyph-name="seven.oldstyle" horiz-adv-x="519" 
d="M62 -180l310 532l51 75h-322l16 100h447l-9 -92l-359 -615h-134z" />
    <glyph glyph-name="eight.oldstyle" horiz-adv-x="625" 
d="M499 365q14 -5 32.5 -16t35.5 -30.5t28.5 -47.5t11.5 -67q0 -49 -20.5 -88.5t-58.5 -67.5t-92.5 -43t-123.5 -15q-123 0 -180 46t-57 125q0 48 18.5 84t44.5 61t53.5 39.5t45.5 19.5q-12 5 -27.5 16t-29 29t-22.5 43.5t-9 59.5q0 44 17.5 81.5t52 64.5t85.5 42.5
t118 15.5q60 0 102.5 -12.5t69.5 -34.5t39 -50.5t12 -61.5q0 -45 -18.5 -80t-42.5 -59t-48.5 -37.5t-36.5 -16.5zM343 318q-28 -7 -53.5 -19.5t-45.5 -30.5t-32 -41t-12 -50q0 -45 33 -68t93 -23q74 0 116 32t42 85q0 26 -11 44t-30 31t-45 22t-55 18zM398 407q57 23 90 55
t33 78q0 45 -30.5 64.5t-81.5 19.5q-30 0 -55.5 -6.5t-44 -20t-29.5 -33.5t-11 -47q0 -25 9.5 -42.5t27 -29.5t41 -21t51.5 -17z" />
    <glyph glyph-name="nine.oldstyle" horiz-adv-x="595" 
d="M105 -70q11 -6 26 -10q13 -4 31.5 -7t44.5 -3q51 0 89.5 15t67 43.5t48 68.5t31.5 91q-8 -5 -23.5 -12.5t-38 -15.5t-50.5 -13.5t-59 -5.5q-47 0 -81.5 14.5t-57.5 40.5t-34 62t-11 78q0 54 18 101.5t53 83t86 56.5t118 21q65 0 108 -20t68.5 -55t36 -83t10.5 -104
q0 -52 -8.5 -106.5t-26.5 -106.5t-47 -98t-70.5 -80.5t-96.5 -54.5t-124 -20q-32 0 -57.5 3.5t-43.5 8.5q-21 5 -37 13zM460 223q2 19 3.5 36.5t1.5 34.5q0 32 -5.5 59t-18.5 46.5t-34 30t-51 10.5q-27 0 -53 -9t-47 -28t-33.5 -48t-12.5 -69q0 -61 29 -84t73 -23
q23 0 45.5 4.5t42 11t35 14.5t25.5 14z" />
    <glyph glyph-name="exclam.aalt" horiz-adv-x="282" 
d="M115 157l56 419h123l-76 -419h-103zM213 55q0 -26 -19.5 -44.5t-54.5 -18.5q-28 0 -41.5 13.5t-13.5 33.5q0 26 18.5 45t54.5 19q28 0 42 -14t14 -34z" />
    <glyph glyph-name="numbersign.aalt" horiz-adv-x="652" 
d="M365 0l40 148h-134l-40 -148h-87l41 148h-91l10 67h98l37 131h-86l11 67h93l42 153h87l-41 -153h133l41 153h89l-42 -153h81l-10 -67h-89l-37 -131h76l-10 -67h-84l-40 -148h-88zM460 346h-133l-38 -131h135z" />
    <glyph glyph-name="dollar.aalt" horiz-adv-x="519" 
d="M211 -76l12 78q-32 2 -59.5 8t-47.5 12q-24 7 -44 16l32 84q21 -10 46 -17q21 -7 49 -12t60 -5q60 0 88 19t28 54q0 18 -6 29.5t-17.5 19.5t-26.5 14t-33 12q-35 12 -67 24.5t-56 30.5t-38 44t-14 64q0 74 50.5 115t143.5 48l13 79h80l-13 -79q29 -2 53 -7.5t41 -10.5
q20 -6 36 -14l-35 -84l-10.5 4.5t-29 10t-44 10t-56.5 4.5q-49 0 -81.5 -15t-32.5 -52q0 -16 7 -27t21 -19.5t34 -15.5t47 -16q31 -10 59 -22t48 -29.5t32 -43t12 -61.5q0 -71 -45.5 -116t-141.5 -55l-13 -79h-81z" />
    <glyph glyph-name="percent.aalt" horiz-adv-x="724" 
d="M127 0l483 566h74l-485 -566h-72zM230 298q-60 2 -85.5 33t-25.5 81q0 36 11.5 66t31.5 51.5t48.5 33t61.5 11.5q61 0 89 -30.5t28 -84.5q0 -36 -11.5 -65.5t-32.5 -51t-50 -33t-65 -11.5zM243 362q31 0 51.5 22.5t20.5 67.5q0 57 -48 57q-32 0 -52 -22.5t-20 -70.5
q0 -26 10.5 -39t37.5 -15zM536 -8q-60 2 -85.5 32.5t-25.5 80.5q0 37 11 67t31.5 51.5t48.5 33t61 11.5q61 0 89.5 -31t28.5 -84q0 -36 -11.5 -66t-32.5 -51t-50 -32.5t-65 -11.5zM548 56q32 0 52 22.5t20 67.5q0 27 -11 42t-37 15q-32 0 -52 -23t-20 -70q0 -27 11 -40
t37 -14z" />
    <glyph glyph-name="ampersand.aalt" horiz-adv-x="653" 
d="M630 254h-31q-12 0 -28 1q2 -7 4 -16q2 -8 3 -18.5t1 -24.5q0 -36 -12 -72.5t-42 -66t-82 -47.5t-133 -18q-65 0 -107 12t-67.5 32t-35.5 47.5t-10 57.5q0 42 15.5 71.5t37 48t45 28.5t39.5 13q-13 6 -26 15t-23.5 23t-17 32t-6.5 42q0 33 12 62t40.5 50.5t76 34.5
t117.5 13q39 0 68 -3.5t49 -7.5q23 -5 39 -11l-25 -80q-17 4 -37 8q-17 3 -40.5 6t-50.5 3q-66 0 -100 -20t-34 -65q0 -22 9 -34.5t26 -19t43 -8.5t59 -2h239zM343 256q-62 0 -98 -25.5t-36 -75.5q0 -42 27.5 -60t84.5 -18q42 0 70.5 9.5t46 27t24.5 41.5t7 54q0 18 -2 31.5
t-2 15.5h-122z" />
    <glyph glyph-name="section.aalt" horiz-adv-x="544" 
d="M87 -77q19 -8 44 -13q21 -5 49 -9t61 -4q66 0 94 19.5t28 53.5q0 17 -7 28.5t-19 19.5t-28.5 14t-36.5 12q-36 10 -67 22.5t-54 30.5t-36 42t-13 59q0 26 7 46.5t18.5 35.5t26 25.5t28.5 17.5q-20 17 -32.5 40.5t-12.5 58.5q0 74 59.5 113t164.5 39q38 0 70 -4.5t55 -9.5
q27 -6 49 -13l-26 -81q-18 6 -41 11q-20 5 -46.5 8.5t-59.5 3.5q-50 0 -82.5 -14t-32.5 -49q0 -16 8 -26.5t23.5 -19t38.5 -16.5t52 -19q30 -11 55.5 -22.5t44 -28t29.5 -39t11 -55.5q0 -85 -74 -125q18 -17 28.5 -40t10.5 -55q0 -35 -13.5 -65.5t-42 -53t-73.5 -36
t-107 -13.5q-38 0 -69.5 4t-54.5 9q-27 6 -49 14zM315 260q-14 5 -27 10t-27 10q-18 -10 -34 -26t-16 -42q0 -17 8 -29t22.5 -21t35 -16.5t45.5 -16.5q8 -3 15.5 -5.5t15.5 -4.5q20 10 32.5 25.5t12.5 38.5q0 16 -6 28t-16.5 20.5t-26 15t-34.5 13.5z" />
    <glyph glyph-name="paragraph.aalt" horiz-adv-x="593" 
d="M410 -143l102 642h-106l-102 -642h-85l57 357q-50 0 -84.5 12t-55.5 33t-30.5 48.5t-9.5 58.5q0 40 11.5 78.5t39 68.5t73 48.5t114.5 18.5h275l-115 -723h-84z" />
    <glyph glyph-name="parenleft.aalt" horiz-adv-x="291" 
d="M147 -111q-17 32 -29 75q-11 37 -19.5 90t-8.5 122q0 59 7.5 112t20.5 99.5t29 86t33 71.5q40 75 91 131l80 -34q-44 -53 -77 -123q-29 -60 -53 -147.5t-24 -200.5q0 -60 6 -105.5t14 -77.5q9 -37 21 -64z" />
    <glyph glyph-name="slash.sc" horiz-adv-x="402" 
d="M40 0l302 566h110l-304 -566h-108z" />
    <glyph glyph-name="parenright.aalt" horiz-adv-x="291" 
d="M28 -76q43 52 77 122q15 30 29 67t25 80.5t17.5 94t6.5 106.5q0 60 -6.5 106t-14.5 78q-9 37 -20 64l91 34q16 -32 28 -75q11 -37 20 -89.5t9 -121.5q0 -60 -8 -113t-20.5 -99t-29 -85.5t-33.5 -71.5q-40 -76 -91 -132z" />
    <glyph glyph-name="bracketleft.aalt" horiz-adv-x="347" 
d="M404 648l-13 -86h-109l-88 -554h106l-14 -86h-210l114 726h214z" />
    <glyph glyph-name="backslash.aalt" horiz-adv-x="402" 
d="M254 0l-124 566h110l122 -566h-108z" />
    <glyph glyph-name="bracketright.aalt" horiz-adv-x="347" 
d="M362 648l-116 -726h-210l14 86h105l88 554h-109l13 86h215z" />
    <glyph glyph-name="braceleft.aalt" horiz-adv-x="323" 
d="M381 569q-44 0 -63.5 -18.5t-25.5 -55.5l-18 -108q-7 -43 -29.5 -68t-53.5 -36q23 -11 37.5 -30t14.5 -51q0 -5 -0.5 -11t-1.5 -13l-16 -108q-1 -6 -1.5 -11t-0.5 -10q0 -26 15.5 -39t51.5 -13q-2 -8 -4 -21l-4 -26q-3 -15 -6 -31q-80 0 -119.5 23.5t-39.5 83.5
q0 17 3 35l17 110q1 5 1.5 10.5t0.5 10.5q0 23 -12 39t-47 16l10 71q21 0 36 6.5t24.5 17t15 24.5t7.5 29l17 109q13 79 62 110.5t140 31.5q-3 -16 -5 -31q-2 -13 -3.5 -25.5t-2.5 -20.5z" />
    <glyph glyph-name="bar.aalt" horiz-adv-x="328" 
d="M108 -84l114 724h88l-115 -724h-87z" />
    <glyph glyph-name="braceright.aalt" horiz-adv-x="323" 
d="M123 569q1 8 3 20.5t4 25.5q3 15 5 31q80 0 120 -23.5t40 -83.5q0 -16 -3 -35l-18 -109q-1 -5 -1.5 -10.5t-0.5 -10.5q0 -23 12.5 -39.5t47.5 -16.5l-11 -71q-41 0 -59.5 -23t-22.5 -53l-18 -110q-6 -40 -21.5 -67t-40 -43.5t-59.5 -24t-80 -7.5q2 16 4 31q2 13 3.5 26
t3.5 21q43 0 63 18t26 55l17 108q8 44 30.5 68.5t53.5 36.5q-23 10 -37.5 29t-14.5 51q0 5 0.5 11.5t1.5 12.5l17 108q1 6 1.5 11t0.5 10q0 26 -16 39.5t-51 13.5z" />
    <glyph glyph-name="zero.sc" horiz-adv-x="598" 
d="M297 -8q-97 0 -153 55.5t-56 164.5q0 90 22.5 158t62 113t92 68t112.5 23q106 0 163.5 -56.5t57.5 -166.5q0 -74 -18 -139t-55 -114t-94 -77.5t-134 -28.5zM312 84q48 1 80.5 26.5t52 64.5t28 86.5t8.5 92.5q0 62 -26.5 95t-83.5 33q-75 0 -120 -70t-45 -200
q0 -62 25.5 -94.5t80.5 -33.5z" />
    <glyph glyph-name="one.sc" horiz-adv-x="377" 
d="M156 0l74 465l-112 -34l1 83l169 52h75l-90 -566h-117z" />
    <glyph glyph-name="two.sc" horiz-adv-x="520" 
d="M59 0l7 90q26 17 61.5 37.5t73 44.5t74 50.5t65 55t46 58.5t17.5 62q0 40 -27.5 62t-85.5 22q-29 0 -54 -5t-45 -10q-23 -6 -42 -14l-10 86q24 9 54 17q26 7 60 12.5t73 5.5q52 0 89.5 -11.5t61.5 -32.5t35 -49t11 -61q0 -43 -17 -82t-44 -73t-60.5 -63t-65.5 -52
t-59.5 -40t-43.5 -27l74 6h160l-13 -89h-395z" />
    <glyph glyph-name="three.sc" horiz-adv-x="511" 
d="M67 101q17 -6 39 -10q19 -4 45.5 -7t58.5 -3q34 0 62.5 4.5t48.5 15t31.5 28.5t11.5 44q0 74 -128 74q-12 0 -23 -0.5t-20 -1.5q-11 -1 -19 -1l14 86q6 -1 14 -1q7 -1 16 -1h20q31 0 59.5 3.5t50 13.5t34 27.5t12.5 46.5q0 35 -29 50t-87 15q-29 0 -53.5 -3t-43.5 -6
q-22 -4 -40 -8l-6 83q23 7 51 12q24 5 56 8.5t70 3.5q105 0 154.5 -36t49.5 -94q0 -50 -29 -89.5t-89 -59.5q37 -11 60 -42t23 -81q0 -88 -65.5 -134t-200.5 -46q-38 0 -69 3t-53 8q-26 4 -46 11z" />
    <glyph glyph-name="four.sc" horiz-adv-x="543" 
d="M64 204l317 362h144l-57 -362h79l-14 -88h-79l-18 -116h-117l18 116h-274zM351 204l34 214l9 31l-218 -245h175z" />
    <glyph glyph-name="five.sc" horiz-adv-x="510" 
d="M76 102q16 -7 37 -11q18 -4 43.5 -7t57.5 -3q79 0 121.5 25.5t42.5 79.5q0 51 -35.5 70t-104.5 19q-27 0 -50.5 -2t-41.5 -4q-21 -3 -38 -6l59 303h351l-15 -90h-244l-26 -124q11 1 22 3q10 1 22.5 2t26.5 1q87 0 140 -41t53 -124q0 -41 -14.5 -77.5t-48 -64t-87.5 -43.5
t-133 -16q-38 0 -67 3t-50 7q-25 4 -43 10z" />
    <glyph glyph-name="six.sc" horiz-adv-x="539" 
d="M504 467q-12 4 -27 8q-13 3 -31.5 6t-42.5 3q-80 0 -125 -43t-60 -116q14 8 51.5 20t89.5 12q84 0 125.5 -42t41.5 -109q0 -50 -17 -89.5t-48.5 -67t-75.5 -42t-98 -14.5t-92.5 16t-62.5 44t-35 67t-11 84q0 77 20 144.5t59.5 117.5t100 79t141.5 29q29 0 52 -3.5
t40 -7.5q18 -4 33 -10zM203 238q-1 -6 -2 -18.5t-1 -26.5q0 -51 21 -82t72 -31q21 0 41.5 6t37 20t26.5 37t10 57q0 41 -23.5 56.5t-58.5 15.5q-38 0 -72.5 -12t-50.5 -22z" />
    <glyph glyph-name="seven.sc" horiz-adv-x="460" 
d="M124 566h385l-9 -83l-291 -483h-126l254 426l34 47h-263z" />
    <glyph glyph-name="eight.sc" horiz-adv-x="566" 
d="M456 293q11 -3 26.5 -11.5t29.5 -23.5t23.5 -38t9.5 -56q0 -42 -18.5 -74t-53 -54t-82.5 -33t-108 -11q-103 0 -158.5 34t-55.5 104q0 38 14.5 66.5t35.5 48.5t43.5 31.5t38.5 16.5q-8 3 -20.5 11t-24.5 22t-20.5 35t-8.5 50q0 39 17.5 69.5t49.5 51.5t77 31.5t99 10.5
q104 0 154.5 -36t50.5 -96q0 -35 -14.5 -61t-34 -45t-39.5 -29.5t-31 -13.5zM309 252q-50 -12 -85 -39.5t-35 -67.5q0 -35 28.5 -53t79.5 -18q60 0 95 23.5t35 65.5q0 21 -9.5 35.5t-25.5 24t-37.5 16.5t-45.5 13zM353 327q47 17 75 41t28 61q0 35 -26 49t-68 14
q-49 0 -83.5 -18.5t-34.5 -61.5q0 -38 28.5 -55t80.5 -30z" />
    <glyph glyph-name="nine.sc" horiz-adv-x="540" 
d="M124 99q0 1 26.5 -8t74.5 -9q81 0 126 43t60 117q-7 -4 -20.5 -9.5t-32 -11t-41 -9t-48.5 -3.5q-83 0 -124.5 43.5t-41.5 111.5q0 48 17 87t48.5 66.5t75.5 42t97 14.5q55 0 93.5 -16t62.5 -44.5t35 -67.5t11 -84q0 -77 -20 -144.5t-60 -117.5t-100 -78.5t-141 -28.5
q-29 0 -52 3t-40 7q-19 4 -34 11zM426 328q0 7 1.5 19t1.5 26q0 51 -21.5 82t-72.5 31q-21 0 -41.5 -6t-37 -20t-26.5 -37t-10 -56q0 -41 24 -56.5t59 -15.5q19 0 37.5 3.5t35 8.5t29.5 10.5t21 10.5z" />
    <glyph glyph-name="question.aalt" horiz-adv-x="499" 
d="M182 155v21q0 48 16 78.5t39.5 49.5t51 31t51 24.5t39.5 28t16 42.5q0 29 -26.5 41.5t-78.5 12.5q-53 0 -93 -9t-59 -14l-12 85q21 7 70 17.5t124 10.5q57 0 96 -10t62 -27t33 -39.5t10 -48.5q0 -45 -16.5 -72t-41 -45.5t-53.5 -31.5t-53.5 -29t-41 -39t-16.5 -61v-16
h-117zM291 56q0 -64 -76 -64q-59 0 -59 46q0 32 20.5 48.5t55.5 16.5q59 0 59 -47z" />
    <glyph glyph-name="a.aalt" horiz-adv-x="645" 
d="M493 566l124 -566h-120l-30 137h-241l-74 -137h-123l303 566h161zM374 420l-107 -198h186l-46 198l-7 57z" />
    <glyph glyph-name="b.aalt" horiz-adv-x="617" 
d="M78 0l90 566h252q91 0 142.5 -30.5t51.5 -96.5q0 -43 -23.5 -82.5t-82.5 -61.5q46 -13 64.5 -45t18.5 -72t-14.5 -73t-45.5 -56t-78.5 -36t-114.5 -13h-260zM341 87q40 0 65.5 7.5t40.5 20t21 30t6 38.5q0 34 -23.5 50t-86.5 16h-129l-26 -162h132zM366 326
q74 0 101.5 24t27.5 67q0 32 -22.5 48t-81.5 16h-120l-25 -155h120z" />
    <glyph glyph-name="c.aalt" horiz-adv-x="569" 
d="M429 477q-53 0 -94 -17.5t-69 -48t-42.5 -73t-14.5 -92.5q0 -47 13.5 -77.5t37 -48.5t56 -25.5t70.5 -7.5q25 0 46 2.5t36 5.5q18 4 32 9l5 -92q-17 -6 -39 -10q-19 -4 -45 -7t-57 -3q-71 0 -122.5 17.5t-85 49t-49.5 76.5t-16 100q0 73 22.5 135.5t65.5 107.5t106 70.5
t143 25.5q38 0 68 -5t51 -10q24 -6 42 -14l-29 -90q-15 6 -34 11q-17 4 -41 7.5t-56 3.5z" />
    <glyph glyph-name="d.aalt" horiz-adv-x="650" 
d="M168 566h229q69 0 117.5 -18t78.5 -49t43.5 -73.5t13.5 -90.5q0 -66 -17.5 -127t-57.5 -107t-106 -73.5t-162 -27.5h-229zM324 96q53 0 92 17.5t64.5 48t37.5 72.5t12 91q0 68 -34 107t-112 39h-115l-59 -375h114z" />
    <glyph glyph-name="e.aalt" horiz-adv-x="579" 
d="M78 0l90 566h435l-15 -95h-319l-22 -142h279l-13 -85h-279l-24 -149h319l-16 -95h-435z" />
    <glyph glyph-name="f.aalt" horiz-adv-x="557" 
d="M230 221l-35 -221h-117l90 566h429l-16 -96h-312l-25 -161h272l-14 -88h-272z" />
    <glyph glyph-name="g.aalt" horiz-adv-x="611" 
d="M440 478q-55 0 -98 -16.5t-72.5 -47.5t-45 -74t-15.5 -97q0 -44 12.5 -73.5t35 -48.5t55 -27t71.5 -8q17 0 34 1.5t33 3.5l31 193h103l-42 -262q-24 -9 -53 -15q-25 -6 -58 -10.5t-70 -4.5q-137 0 -203.5 62.5t-66.5 177.5q0 77 24.5 140t69.5 108t108.5 69.5t142.5 24.5
q38 0 70.5 -5t55.5 -10q27 -6 49 -14l-30 -91q-17 7 -39 12q-19 5 -45 8.5t-57 3.5z" />
    <glyph glyph-name="h.aalt" horiz-adv-x="670" 
d="M475 0l37 233h-280l-37 -233h-117l90 566h117l-38 -237h280l38 237h117l-90 -566h-117z" />
    <glyph glyph-name="i.aalt" horiz-adv-x="273" 
d="M78 0l90 566h117l-90 -566h-117z" />
    <glyph glyph-name="j.aalt" horiz-adv-x="410" 
d="M310 566h116l-61 -390q-6 -41 -21 -75t-39.5 -58t-60.5 -37.5t-85 -13.5q-29 0 -49.5 3.5t-34.5 8.5q-16 5 -26 13l25 85q7 -5 18 -9q9 -3 22 -5.5t30 -2.5q45 0 70.5 21.5t33.5 68.5z" />
    <glyph glyph-name="k.aalt" 
d="M432 0l-155 230h-46l-36 -230h-117l90 566h117l-40 -255q18 1 31 5q6 2 11 3q7 6 20.5 20t31.5 32.5t38.5 40t40.5 43.5q48 51 104 111h133q-6 -7 -25 -27.5t-45 -48t-56 -59t-58 -61t-52 -54t-38 -37.5l187 -279h-136z" />
    <glyph glyph-name="l.aalt" horiz-adv-x="514" 
d="M78 0l90 566h117l-75 -470h269l-15 -96h-386z" />
    <glyph glyph-name="m.aalt" horiz-adv-x="805" 
d="M339 566l95 -345l211 345h139l-41 -566h-116l28 364l8 60l-194 -315h-98l-92 317l-10 -62l-88 -364h-120l140 566h138z" />
    <glyph glyph-name="n.aalt" horiz-adv-x="676" 
d="M472 0l-223 410l-5 -79l-53 -331h-113l90 566h123l226 -413l6 90l52 323h113l-90 -566h-126z" />
    <glyph glyph-name="o.aalt" horiz-adv-x="670" 
d="M338 -8q-52 0 -97 13.5t-78.5 42t-52.5 73t-19 106.5q0 80 23.5 144.5t66.5 109.5t101.5 69t129.5 24q125 0 190.5 -61.5t65.5 -173.5q0 -81 -23.5 -145.5t-66.5 -109t-104 -68.5t-136 -24zM208 234q0 -33 8 -60t25 -46.5t44.5 -30.5t65.5 -11q43 0 79.5 16.5t63.5 48
t42 77.5t15 105q0 70 -35.5 108t-109.5 38q-44 0 -80 -16t-62.5 -47.5t-41 -77t-14.5 -104.5z" />
    <glyph glyph-name="p.aalt" horiz-adv-x="613" 
d="M78 0l90 566h256q57 0 95 -13.5t61 -36.5t33 -53t10 -63q0 -39 -11 -79.5t-40 -73.5t-80 -54t-130 -21h-140l-27 -172h-117zM363 264q41 0 68 10t43.5 27t23 40t6.5 49q0 36 -23.5 60t-85.5 24h-126l-32 -210h126z" />
    <glyph glyph-name="q.aalt" horiz-adv-x="670" 
d="M293 -62q0 14 2.5 30t5.5 26q-45 4 -83.5 19.5t-66.5 44t-44 70.5t-16 99q0 80 23.5 144.5t66.5 109.5t101.5 69t129.5 24q125 0 190.5 -61.5t65.5 -173.5q0 -75 -20 -135.5t-56.5 -104.5t-89 -70.5t-117.5 -33.5q-1 -5 -1 -9v-9q0 -34 15.5 -47t47.5 -13q12 0 21.5 1
t17.5 3t15 5l-7 -86q-7 -2 -29 -6.5t-48 -4.5q-36 0 -60 10t-38.5 25.5t-20 35t-5.5 38.5zM208 234q0 -33 8 -60t25 -46.5t44.5 -30.5t65.5 -11q43 0 79.5 16.5t63.5 48t42 77.5t15 105q0 70 -35.5 108t-109.5 38q-44 0 -80 -16t-62.5 -47.5t-41 -77t-14.5 -104.5z" />
    <glyph glyph-name="r.aalt" horiz-adv-x="625" 
d="M78 0l90 566h260q57 0 95.5 -12.5t62 -34t33.5 -50t10 -60.5t-6.5 -63t-23.5 -58t-46 -48t-74 -33l91 -207h-123l-84 195h-137l-31 -195h-117zM369 282q41 0 68.5 8.5t43.5 24t22.5 36.5t6.5 46q0 35 -24 56t-87 21h-130l-30 -192h130z" />
    <glyph glyph-name="s.aalt" horiz-adv-x="546" 
d="M108 129q19 -12 45 -21q22 -8 53 -14.5t70 -6.5q61 0 91 18.5t30 52.5q0 19 -8.5 31.5t-23.5 22t-35.5 16.5t-44.5 14q-36 11 -67.5 23.5t-54 30.5t-35.5 44.5t-13 64.5q0 45 18 77.5t49.5 52.5t74.5 29.5t94 9.5q48 0 84.5 -6.5t62.5 -14.5q30 -10 52 -21l-34 -90
q-19 10 -43 19q-20 8 -49 14t-64 6q-57 0 -91 -15t-34 -50q0 -16 7.5 -27t22.5 -19.5t37.5 -16.5t52.5 -17q39 -12 69.5 -25.5t51.5 -32.5t32.5 -45.5t11.5 -63.5q0 -48 -18 -81.5t-51 -54.5t-78 -30.5t-99 -9.5q-51 0 -87.5 6.5t-61.5 14.5q-29 9 -49 21z" />
    <glyph glyph-name="t.aalt" horiz-adv-x="546" 
d="M214 0l74 470h-188l15 96h495l-15 -96h-189l-75 -470h-117z" />
    <glyph glyph-name="u.aalt" horiz-adv-x="663" 
d="M562 566h118l-53 -331q-9 -59 -30.5 -104t-57 -76t-87 -47t-120.5 -16q-116 0 -171 47.5t-55 137.5q0 14 1.5 28t3.5 30l52 331h118l-52 -324q-2 -13 -3 -25.5t-1 -23.5q0 -50 26 -78.5t94 -28.5q80 0 117.5 42.5t48.5 113.5z" />
    <glyph glyph-name="v.aalt" horiz-adv-x="623" 
d="M233 566l80 -408l11 -71l32 71l209 408h124l-297 -566h-162l-115 566h118z" />
    <glyph glyph-name="w.aalt" horiz-adv-x="880" 
d="M237 566l36 -388l5 -77l27 77l169 388h111l45 -387l7 -78l26 76l160 389h123l-245 -566h-140l-46 358l-5 76l-29 -76l-161 -358h-141l-64 566h122z" />
    <glyph glyph-name="x.aalt" horiz-adv-x="636" 
d="M470 0l-116 203l-183 -203h-134l251 283l-161 283h125l121 -210l183 210h132l-252 -289l163 -277h-129z" />
    <glyph glyph-name="y.aalt" horiz-adv-x="600" 
d="M238 566l91 -217l17 -51l35 52l155 216h130l-271 -360l-33 -206h-122l32 205l-157 361h123z" />
    <glyph glyph-name="z.aalt" horiz-adv-x="581" 
d="M158 566h452l-14 -83l-369 -393l47 5h264l-15 -95h-464l12 83l367 390l-41 -2h-255z" />
    <glyph glyph-name="agrave.aalt" horiz-adv-x="645" 
d="M371 637l-96 159h128l66 -159h-98zM493 566l124 -566h-120l-30 137h-241l-74 -137h-123l303 566h161zM374 420l-107 -198h186l-46 198l-7 57z" />
    <glyph glyph-name="aacute.aalt" horiz-adv-x="659" 
d="M377 637l117 159h128l-147 -159h-98zM493 566l124 -566h-120l-30 137h-241l-74 -137h-123l303 566h161zM374 420l-107 -198h186l-46 198l-7 57z" />
    <glyph glyph-name="acircumflex.aalt" horiz-adv-x="645" 
d="M493 796l97 -159h-98l-59 95l-90 -95h-96l146 159h100zM493 566l124 -566h-120l-30 137h-241l-74 -137h-123l303 566h161zM374 420l-107 -198h186l-46 198l-7 57z" />
    <glyph glyph-name="atilde.aalt" horiz-adv-x="645" 
d="M493 566l124 -566h-120l-30 137h-241l-74 -137h-123l303 566h161zM241 637v16q0 24 8 47.5t23 42t37.5 29.5t51.5 11q26 0 43.5 -9.5t31.5 -21.5t26.5 -21.5t27.5 -9.5q18 0 28 12t10 32q0 3 -0.5 6.5t-0.5 5.5q-1 3 -1 5h85v-5q0 -2 0.5 -4.5t0.5 -5.5q0 -26 -7.5 -49.5
t-23 -41.5t-38 -29t-52.5 -11q-26 0 -43.5 10t-31.5 21.5t-26 21.5t-28 10q-17 0 -27 -13t-10 -34v-10q0 -3 1 -5h-85zM374 420l-107 -198h186l-46 198l-7 57z" />
    <glyph glyph-name="adieresis.aalt" horiz-adv-x="640" 
d="M387 710q0 -29 -17 -51t-57 -22q-29 0 -41.5 14t-12.5 36q0 30 16.5 51.5t57.5 21.5q29 0 41.5 -14t12.5 -36zM599 710q0 -29 -17 -51t-57 -22q-29 0 -41.5 13.5t-12.5 35.5q0 30 16 52t57 22q29 0 42 -14t13 -36zM493 566l124 -566h-120l-30 137h-241l-74 -137h-123
l303 566h161zM374 420l-107 -198h186l-46 198l-7 57z" />
    <glyph glyph-name="amacron.aalt" horiz-adv-x="645" 
d="M266 639l12 78h310l-13 -78h-309zM493 566l124 -566h-120l-30 137h-241l-74 -137h-123l303 566h161zM374 420l-107 -198h186l-46 198l-7 57z" />
    <glyph glyph-name="abreve.aalt" horiz-adv-x="645" 
d="M608 792q-3 -18 -14.5 -44t-34 -50.5t-55.5 -41.5t-79 -17q-37 0 -61 10.5t-39.5 26t-23 34.5t-10.5 36t-3 29.5v16.5h83q0 -2 1 -13.5t7 -25t19.5 -24.5t38.5 -11q22 0 38.5 9.5t27.5 21.5t17 24.5t6 18.5h82zM493 566l124 -566h-120l-30 137h-241l-74 -137h-123
l303 566h161zM374 420l-107 -198h186l-46 198l-7 57z" />
    <glyph glyph-name="aring.aalt" horiz-adv-x="645" 
d="M420 638q-51 0 -75.5 24t-24.5 66q0 61 38 96.5t101 35.5q50 0 74.5 -24.5t24.5 -66.5q0 -58 -33.5 -94.5t-104.5 -36.5zM432 701q26 0 40 15.5t14 42.5q0 38 -38 38q-26 0 -40.5 -15.5t-14.5 -42.5q0 -38 39 -38zM493 566l124 -566h-120l-30 137h-241l-74 -137h-123
l303 566h161zM374 420l-107 -198h186l-46 198l-7 57z" />
    <glyph glyph-name="aogonek.aalt" horiz-adv-x="645" 
d="M493 566l124 -566q-11 -2 -31 -11t-40 -22.5t-34.5 -31t-14.5 -36.5q0 -13 10 -23t34 -10q19 0 38 5t27 7l-9 -74q-14 -5 -41 -12t-60 -7q-53 0 -80.5 21.5t-27.5 53.5q0 26 13.5 48t32 40t39.5 31t36 21h-12l-30 137h-241l-74 -137h-123l303 566h161zM374 420l-107 -198
h186l-46 198l-7 57z" />
    <glyph glyph-name="ae.aalt" horiz-adv-x="922" 
d="M947 566l-16 -95h-316l-22 -142h277l-14 -85h-277l-23 -149h315l-14 -95h-438l21 129h-191l-94 -129h-126l403 566h515zM303 214h149l43 268z" />
    <glyph glyph-name="cacute.aalt" horiz-adv-x="569" 
d="M355 639l117 158h127l-145 -158h-99zM429 477q-53 0 -94 -17.5t-69 -48t-42.5 -73t-14.5 -92.5q0 -47 13.5 -77.5t37 -48.5t56 -25.5t70.5 -7.5q25 0 46 2.5t36 5.5q18 4 32 9l5 -92q-17 -6 -39 -10q-19 -4 -45 -7t-57 -3q-71 0 -122.5 17.5t-85 49t-49.5 76.5t-16 100
q0 73 22.5 135.5t65.5 107.5t106 70.5t143 25.5q38 0 68 -5t51 -10q24 -6 42 -14l-29 -90q-15 6 -34 11q-17 4 -41 7.5t-56 3.5z" />
    <glyph glyph-name="ccircumflex.aalt" horiz-adv-x="569" 
d="M499 796l97 -159h-97l-61 95l-89 -95h-97l147 159h100zM429 477q-53 0 -94 -17.5t-69 -48t-42.5 -73t-14.5 -92.5q0 -47 13.5 -77.5t37 -48.5t56 -25.5t70.5 -7.5q25 0 46 2.5t36 5.5q18 4 32 9l5 -92q-17 -6 -39 -10q-19 -4 -45 -7t-57 -3q-71 0 -122.5 17.5t-85 49
t-49.5 76.5t-16 100q0 73 22.5 135.5t65.5 107.5t106 70.5t143 25.5q38 0 68 -5t51 -10q24 -6 42 -14l-29 -90q-15 6 -34 11q-17 4 -41 7.5t-56 3.5z" />
    <glyph glyph-name="ccaron.aalt" horiz-adv-x="569" 
d="M373 637l-97 159h97l60 -95l89 95h97l-146 -159h-100zM429 477q-53 0 -94 -17.5t-69 -48t-42.5 -73t-14.5 -92.5q0 -47 13.5 -77.5t37 -48.5t56 -25.5t70.5 -7.5q25 0 46 2.5t36 5.5q18 4 32 9l5 -92q-17 -6 -39 -10q-19 -4 -45 -7t-57 -3q-71 0 -122.5 17.5t-85 49
t-49.5 76.5t-16 100q0 73 22.5 135.5t65.5 107.5t106 70.5t143 25.5q38 0 68 -5t51 -10q24 -6 42 -14l-29 -90q-15 6 -34 11q-17 4 -41 7.5t-56 3.5z" />
    <glyph glyph-name="cdotaccent.aalt" horiz-adv-x="569" 
d="M506 714q0 -31 -17.5 -53t-61.5 -22q-32 0 -45.5 14.5t-13.5 37.5q0 30 18.5 52.5t61.5 22.5q31 0 44.5 -14.5t13.5 -37.5zM429 477q-53 0 -94 -17.5t-69 -48t-42.5 -73t-14.5 -92.5q0 -47 13.5 -77.5t37 -48.5t56 -25.5t70.5 -7.5q25 0 46 2.5t36 5.5q18 4 32 9l5 -92
q-17 -6 -39 -10q-19 -4 -45 -7t-57 -3q-71 0 -122.5 17.5t-85 49t-49.5 76.5t-16 100q0 73 22.5 135.5t65.5 107.5t106 70.5t143 25.5q38 0 68 -5t51 -10q24 -6 42 -14l-29 -90q-15 6 -34 11q-17 4 -41 7.5t-56 3.5z" />
    <glyph glyph-name="ccedilla.aalt" horiz-adv-x="569" 
d="M429 477q-53 0 -94 -17.5t-69 -48t-42.5 -73t-14.5 -92.5q0 -47 13.5 -77.5t37 -48.5t56 -25.5t70.5 -7.5q25 0 46 2.5t36 5.5q18 4 32 9l5 -92q-16 -6 -37 -10q-18 -4 -43 -7t-54 -3l-21 -45h6q2 0 4.5 0.5t4.5 0.5q38 0 63 -17t25 -55q0 -45 -32.5 -73t-105.5 -28
q-18 0 -31 1t-21 3q-10 2 -17 5l6 58q7 -2 16 -4q8 -2 19 -3t25 -1q26 0 46.5 8t20.5 30q0 15 -15 21t-38 6q-20 0 -38.5 -2.5t-24.5 -4.5l44 104q-113 13 -164.5 76t-51.5 163q0 73 22.5 135.5t65.5 107.5t106 70.5t143 25.5q38 0 68 -5t51 -10q24 -6 42 -14l-29 -90
q-15 6 -34 11q-17 4 -41 7.5t-56 3.5z" />
    <glyph glyph-name="dcaron.aalt" horiz-adv-x="650" 
d="M346 637l-97 159h97l60 -95l89 95h97l-146 -159h-100zM168 566h229q69 0 117.5 -18t78.5 -49t43.5 -73.5t13.5 -90.5q0 -66 -17.5 -127t-57.5 -107t-106 -73.5t-162 -27.5h-229zM324 96q53 0 92 17.5t64.5 48t37.5 72.5t12 91q0 68 -34 107t-112 39h-115l-59 -375h114z
" />
    <glyph glyph-name="dcroat.aalt" horiz-adv-x="650" 
d="M72 331h58l38 235h229q69 0 117.5 -18t78.5 -49t43.5 -73.5t13.5 -90.5q0 -66 -17.5 -127t-57.5 -107t-106 -73.5t-162 -27.5h-229l38 243h-58zM324 96q53 0 92 17.5t64.5 48t37.5 72.5t12 91q0 68 -34 107t-112 39h-115l-22 -140h145l-14 -88h-145l-23 -147h114z" />
    <glyph glyph-name="eth.aalt" horiz-adv-x="650" 
d="M72 331h58l38 235h229q69 0 117.5 -18t78.5 -49t43.5 -73.5t13.5 -90.5q0 -66 -17.5 -127t-57.5 -107t-106 -73.5t-162 -27.5h-229l38 243h-58zM324 96q53 0 92 17.5t64.5 48t37.5 72.5t12 91q0 68 -34 107t-112 39h-115l-22 -140h145l-14 -88h-145l-23 -147h114z" />
    <glyph glyph-name="egrave.aalt" horiz-adv-x="579" 
d="M361 637l-97 159h128l67 -159h-98zM78 0l90 566h435l-15 -95h-319l-22 -142h279l-13 -85h-279l-24 -149h319l-16 -95h-435z" />
    <glyph glyph-name="eacute.aalt" horiz-adv-x="579" 
d="M334 637l117 159h128l-146 -159h-99zM78 0l90 566h435l-15 -95h-319l-22 -142h279l-13 -85h-279l-24 -149h319l-16 -95h-435z" />
    <glyph glyph-name="ecircumflex.aalt" horiz-adv-x="579" 
d="M474 797l97 -159h-98l-60 94l-89 -94h-97l147 159h100zM78 0l90 566h435l-15 -95h-319l-22 -142h279l-13 -85h-279l-24 -149h319l-16 -95h-435z" />
    <glyph glyph-name="ecaron.aalt" horiz-adv-x="579" 
d="M349 637l-97 159h97l60 -95l89 95h98l-147 -159h-100zM78 0l90 566h435l-15 -95h-319l-22 -142h279l-13 -85h-279l-24 -149h319l-16 -95h-435z" />
    <glyph glyph-name="edieresis.aalt" horiz-adv-x="579" 
d="M365 711q0 -29 -16 -51t-57 -22q-29 0 -41.5 13.5t-12.5 35.5q0 30 16.5 51.5t56.5 21.5q29 0 41.5 -13.5t12.5 -35.5zM577 710q0 -29 -17 -50.5t-56 -21.5q-29 0 -42 13.5t-13 35.5q0 29 16.5 51t57.5 22q29 0 41.5 -14t12.5 -36zM78 0l90 566h435l-15 -95h-319
l-22 -142h279l-13 -85h-279l-24 -149h319l-16 -95h-435z" />
    <glyph glyph-name="emacron.aalt" horiz-adv-x="579" 
d="M241 639l12 78h310l-13 -78h-309zM78 0l90 566h435l-15 -95h-319l-22 -142h279l-13 -85h-279l-24 -149h319l-16 -95h-435z" />
    <glyph glyph-name="ebreve.aalt" horiz-adv-x="579" 
d="M580 792q-3 -18 -14.5 -44t-34 -50.5t-56 -41.5t-79.5 -17q-37 0 -61 10.5t-39.5 26t-23 34.5t-10.5 36t-3 29.5t1 16.5h83q0 -2 0.5 -13.5t7 -25t20 -24.5t38.5 -11q22 0 38.5 9t27.5 21.5t16.5 25t6.5 18.5h82zM78 0l90 566h435l-15 -95h-319l-22 -142h279l-13 -85
h-279l-24 -149h319l-16 -95h-435z" />
    <glyph glyph-name="edotaccent.aalt" horiz-adv-x="579" 
d="M482 714q0 -31 -18.5 -53t-61.5 -22q-31 0 -45 14.5t-14 37.5q0 30 18.5 52.5t61.5 22.5q31 0 45 -14.5t14 -37.5zM78 0l90 566h435l-15 -95h-319l-22 -142h279l-13 -85h-279l-24 -149h319l-16 -95h-435z" />
    <glyph glyph-name="eogonek.aalt" horiz-adv-x="579" 
d="M513 0q-11 -2 -31 -11t-39.5 -22.5t-34 -31t-14.5 -36.5q0 -13 9.5 -23t35.5 -10q18 0 37 5t27 7l-9 -74q-14 -5 -41.5 -12t-59.5 -7q-53 0 -80.5 21.5t-27.5 53.5q0 26 13 48t32 40t40 31t36 21h-328l90 566h435l-15 -95h-319l-22 -142h279l-13 -85h-279l-24 -149h319
l-16 -95v0z" />
    <glyph glyph-name="gcircumflex.aalt" horiz-adv-x="611" 
d="M506 796l97 -159h-97l-60 95l-89 -95h-98l147 159h100zM440 478q-55 0 -98 -16.5t-72.5 -47.5t-45 -74t-15.5 -97q0 -44 12.5 -73.5t35 -48.5t55 -27t71.5 -8q17 0 34 1.5t33 3.5l31 193h103l-42 -262q-24 -9 -53 -15q-25 -6 -58 -10.5t-70 -4.5q-137 0 -203.5 62.5
t-66.5 177.5q0 77 24.5 140t69.5 108t108.5 69.5t142.5 24.5q38 0 70.5 -5t55.5 -10q27 -6 49 -14l-30 -91q-17 7 -39 12q-19 5 -45 8.5t-57 3.5z" />
    <glyph glyph-name="gbreve.aalt" horiz-adv-x="611" 
d="M618 792q-2 -18 -14 -44t-34 -50.5t-55.5 -41.5t-79.5 -17q-55 0 -83.5 22t-40.5 49t-12.5 51.5t0.5 30.5h81q0 -2 1 -13.5t7.5 -25t20.5 -24.5t39 -11q22 0 38 9t27 21.5t17 25t7 18.5h81zM440 478q-55 0 -98 -16.5t-72.5 -47.5t-45 -74t-15.5 -97q0 -44 12.5 -73.5
t35 -48.5t55 -27t71.5 -8q17 0 34 1.5t33 3.5l31 193h103l-42 -262q-24 -9 -53 -15q-25 -6 -58 -10.5t-70 -4.5q-137 0 -203.5 62.5t-66.5 177.5q0 77 24.5 140t69.5 108t108.5 69.5t142.5 24.5q38 0 70.5 -5t55.5 -10q27 -6 49 -14l-30 -91q-17 7 -39 12q-19 5 -45 8.5
t-57 3.5z" />
    <glyph glyph-name="gdotaccent.aalt" horiz-adv-x="611" 
d="M519 714q0 -31 -18 -53t-61 -22q-32 0 -45.5 14.5t-13.5 37.5q0 30 18.5 52.5t61.5 22.5q31 0 44.5 -14.5t13.5 -37.5zM440 478q-55 0 -98 -16.5t-72.5 -47.5t-45 -74t-15.5 -97q0 -44 12.5 -73.5t35 -48.5t55 -27t71.5 -8q17 0 34 1.5t33 3.5l31 193h103l-42 -262
q-24 -9 -53 -15q-25 -6 -58 -10.5t-70 -4.5q-137 0 -203.5 62.5t-66.5 177.5q0 77 24.5 140t69.5 108t108.5 69.5t142.5 24.5q38 0 70.5 -5t55.5 -10q27 -6 49 -14l-30 -91q-17 7 -39 12q-19 5 -45 8.5t-57 3.5z" />
    <glyph glyph-name="gcommaaccent.aalt" horiz-adv-x="611" 
d="M251 -286q7 5 18 16.5t21.5 25.5t19.5 29.5t12 28.5q-23 1 -32.5 14t-9.5 32q0 29 16.5 50.5t58.5 21.5q24 0 39 -15t15 -46q0 -33 -14 -64t-32.5 -56.5t-38 -43.5t-29.5 -25zM440 478q-55 0 -98 -16.5t-72.5 -47.5t-45 -74t-15.5 -97q0 -44 12.5 -73.5t35 -48.5t55 -27
t71.5 -8q17 0 34 1.5t33 3.5l31 193h103l-42 -262q-24 -9 -53 -15q-25 -6 -58 -10.5t-70 -4.5q-137 0 -203.5 62.5t-66.5 177.5q0 77 24.5 140t69.5 108t108.5 69.5t142.5 24.5q38 0 70.5 -5t55.5 -10q27 -6 49 -14l-30 -91q-17 7 -39 12q-19 5 -45 8.5t-57 3.5z" />
    <glyph glyph-name="hcircumflex.aalt" horiz-adv-x="670" 
d="M506 796l97 -159h-98l-60 95l-89 -95h-97l147 159h100zM475 0l37 233h-280l-37 -233h-117l90 566h117l-38 -237h280l38 237h117l-90 -566h-117z" />
    <glyph glyph-name="hbar.aalt" horiz-adv-x="670" 
d="M475 0l37 233h-280l-37 -233h-117l68 431h-46l9 57h46l13 78h117l-13 -78h280l13 78h117l-13 -78h44l-9 -57h-44l-68 -431h-117zM527 329l16 102h-280l-16 -102h280z" />
    <glyph glyph-name="igrave.aalt" horiz-adv-x="273" 
d="M189 637l-97 159h128l67 -159h-98zM78 0l90 566h117l-90 -566h-117z" />
    <glyph glyph-name="iacute.aalt" horiz-adv-x="273" 
d="M184 637l117 159h127l-146 -159h-98zM78 0l90 566h117l-90 -566h-117z" />
    <glyph glyph-name="ibreve.aalt" horiz-adv-x="273" 
d="M421 792q-3 -18 -14.5 -44t-34 -50.5t-56 -41.5t-79.5 -17q-36 0 -60.5 10.5t-40 26t-23 34.5t-10.5 36t-3 29.5t1 16.5h82q0 -2 1 -13.5t7 -25t20 -24.5t39 -11q22 0 38 9t27.5 21.5t17 25t6.5 18.5h82zM78 0l90 566h117l-90 -566h-117z" />
    <glyph glyph-name="icircumflex.aalt" horiz-adv-x="273" 
d="M308 796l97 -159h-97l-60 95l-89 -95h-97l146 159h100zM78 0l90 566h117l-90 -566h-117z" />
    <glyph glyph-name="itilde.aalt" horiz-adv-x="273" 
d="M78 0l90 566h117l-90 -566h-117zM58 637q-1 1 -1 4v12q0 24 8 47.5t23 42t37.5 29.5t51.5 11q25 0 43 -9.5t31.5 -21.5t26 -21.5t27.5 -9.5q19 0 29 12t10 32q0 3 -0.5 6.5t-0.5 5.5v5h84v-15q0 -26 -7.5 -49.5t-22.5 -41.5t-37.5 -29t-52.5 -11q-26 0 -43.5 10
t-31.5 21.5t-26 21.5t-28 10q-17 0 -27 -13t-10 -34v-15h-83z" />
    <glyph glyph-name="idieresis.aalt" horiz-adv-x="273" 
d="M201 710q0 -29 -17 -51t-58 -22q-29 0 -41.5 14t-12.5 36q0 30 16.5 51.5t57.5 21.5q29 0 42 -14t13 -36zM412 710q0 -29 -17 -51t-57 -22q-29 0 -41 13.5t-12 35.5q0 30 16 52t57 22q29 0 41.5 -14t12.5 -36zM78 0l90 566h117l-90 -566h-117z" />
    <glyph glyph-name="imacron.aalt" horiz-adv-x="273" 
d="M74 639l12 78h310l-12 -78h-310zM78 0l90 566h117l-90 -566h-117z" />
    <glyph glyph-name="glyph522" horiz-adv-x="273" 
d="M313 714q0 -31 -18 -53t-61 -22q-32 0 -45.5 14.5t-13.5 37.5q0 30 18 52.5t61 22.5q32 0 45.5 -14.5t13.5 -37.5zM78 0l90 566h117l-90 -566h-117z" />
    <glyph glyph-name="iogonek.aalt" horiz-adv-x="273" 
d="M195 0q-11 -2 -31 -11t-39.5 -22.5t-34 -31t-14.5 -36.5q0 -13 9.5 -23t34.5 -10q19 0 38 5t27 7l-9 -74q-15 -5 -42 -12t-59 -7q-53 0 -81 21.5t-28 53.5q0 26 13 48t32 40t40 31t36 21h-9l90 566h117l-90 -566v0z" />
    <glyph glyph-name="jcircumflex.aalt" horiz-adv-x="410" 
d="M454 796l97 -159h-97l-60 95l-89 -95h-98l147 159h100zM310 566h116l-61 -390q-6 -41 -21 -75t-39.5 -58t-60.5 -37.5t-85 -13.5q-29 0 -49.5 3.5t-34.5 8.5q-16 5 -26 13l25 85q7 -5 18 -9q9 -3 22 -5.5t30 -2.5q45 0 70.5 21.5t33.5 68.5z" />
    <glyph glyph-name="kcommaaccent.aalt" 
d="M201 -286q7 5 18 16.5t21.5 25.5t19.5 29.5t12 28.5q-24 1 -33.5 14t-9.5 32q0 29 17 50.5t59 21.5q23 0 38 -15t15 -46q0 -33 -13.5 -64t-32.5 -56.5t-38 -43.5t-29 -25zM432 0l-155 230h-46l-36 -230h-117l90 566h117l-40 -255q18 1 31 5q6 2 11 3q7 6 20.5 20
t31.5 32.5t38.5 40t40.5 43.5q48 51 104 111h133q-6 -7 -25 -27.5t-45 -48t-56 -59t-58 -61t-52 -54t-38 -37.5l187 -279h-136z" />
    <glyph glyph-name="lacute.aalt" horiz-adv-x="514" 
d="M184 637l117 159h128l-147 -159h-98zM78 0l90 566h117l-75 -470h269l-15 -96h-386z" />
    <glyph glyph-name="lcaron.aalt" horiz-adv-x="514" 
d="M182 637l-97 159h97l60 -95l89 95h97l-146 -159h-100zM78 0l90 566h117l-75 -470h269l-15 -96h-386z" />
    <glyph glyph-name="lcommaaccent.aalt" horiz-adv-x="514" 
d="M169 -286q7 5 18 16.5t21.5 25.5t19.5 29.5t12 28.5q-24 1 -33.5 14t-9.5 32q0 29 17 50.5t59 21.5q23 0 38 -15t15 -46q0 -33 -13.5 -64t-32.5 -56.5t-38 -43.5t-29 -25zM78 0l90 566h117l-75 -470h269l-15 -96h-386z" />
    <glyph glyph-name="lslash.aalt" horiz-adv-x="514" 
d="M78 0l38 238l-83 -22l-11 94l110 29l36 227h117l-31 -194l127 34l10 -95l-153 -41l-28 -174h269l-15 -96h-386z" />
    <glyph glyph-name="ldot.aalt" horiz-adv-x="547" 
d="M528 346q0 -32 -19.5 -56t-64.5 -24q-33 0 -47 15t-14 40q0 32 19 56t64 24q34 0 48 -16t14 -39zM78 0l90 566h117l-75 -470h269l-15 -96h-386z" />
    <glyph glyph-name="nacute.aalt" horiz-adv-x="676" 
d="M377 637l117 159h127l-146 -159h-98zM472 0l-223 410l-5 -79l-53 -331h-113l90 566h123l226 -413l6 90l52 323h113l-90 -566h-126z" />
    <glyph glyph-name="ncaron.aalt" horiz-adv-x="676" 
d="M386 637l-97 159h98l60 -95l88 95h97l-146 -159h-100zM472 0l-223 410l-5 -79l-53 -331h-113l90 566h123l226 -413l6 90l52 323h113l-90 -566h-126z" />
    <glyph glyph-name="ntilde.aalt" horiz-adv-x="676" 
d="M472 0l-223 410l-5 -79l-53 -331h-113l90 566h123l226 -413l6 90l52 323h113l-90 -566h-126zM261 637v16q0 24 8 47.5t23 42t37 29.5t51 11q26 0 43.5 -9.5t31.5 -21.5t26.5 -21.5t27.5 -9.5q19 0 29 12t10 32q0 3 -0.5 6.5t-0.5 5.5q-1 3 -1 5h84v-5q0 -2 0.5 -4.5
t0.5 -5.5q0 -26 -8 -49.5t-23 -41.5t-37.5 -29t-52.5 -11q-26 0 -43.5 10t-31 21.5t-25.5 21.5t-28 10q-17 0 -27 -13t-10 -34v-15h-84z" />
    <glyph glyph-name="ncommaaccent.aalt" horiz-adv-x="676" 
d="M221 -286q7 5 18 16.5t21.5 25.5t19.5 29.5t12 28.5q-24 1 -33 14t-9 32q0 29 16.5 50.5t58.5 21.5q24 0 39 -15t15 -46q0 -33 -14 -64t-32.5 -56.5t-38 -43.5t-29.5 -25zM472 0l-223 410l-5 -79l-53 -331h-113l90 566h123l226 -413l6 90l52 323h113l-90 -566h-126z" />
    <glyph glyph-name="ograve.aalt" horiz-adv-x="670" 
d="M388 637l-95 159h127l67 -159h-99zM338 -8q-52 0 -97 13.5t-78.5 42t-52.5 73t-19 106.5q0 80 23.5 144.5t66.5 109.5t101.5 69t129.5 24q125 0 190.5 -61.5t65.5 -173.5q0 -81 -23.5 -145.5t-66.5 -109t-104 -68.5t-136 -24zM208 234q0 -33 8 -60t25 -46.5t44.5 -30.5
t65.5 -11q43 0 79.5 16.5t63.5 48t42 77.5t15 105q0 70 -35.5 108t-109.5 38q-44 0 -80 -16t-62.5 -47.5t-41 -77t-14.5 -104.5z" />
    <glyph glyph-name="oacute.aalt" horiz-adv-x="670" 
d="M366 637l117 159h128l-147 -159h-98zM338 -8q-52 0 -97 13.5t-78.5 42t-52.5 73t-19 106.5q0 80 23.5 144.5t66.5 109.5t101.5 69t129.5 24q125 0 190.5 -61.5t65.5 -173.5q0 -81 -23.5 -145.5t-66.5 -109t-104 -68.5t-136 -24zM208 234q0 -33 8 -60t25 -46.5t44.5 -30.5
t65.5 -11q43 0 79.5 16.5t63.5 48t42 77.5t15 105q0 70 -35.5 108t-109.5 38q-44 0 -80 -16t-62.5 -47.5t-41 -77t-14.5 -104.5z" />
    <glyph glyph-name="ocircumflex.aalt" horiz-adv-x="670" 
d="M505 796l97 -159h-98l-59 95l-90 -95h-97l147 159h100zM338 -8q-52 0 -97 13.5t-78.5 42t-52.5 73t-19 106.5q0 80 23.5 144.5t66.5 109.5t101.5 69t129.5 24q125 0 190.5 -61.5t65.5 -173.5q0 -81 -23.5 -145.5t-66.5 -109t-104 -68.5t-136 -24zM208 234q0 -33 8 -60
t25 -46.5t44.5 -30.5t65.5 -11q43 0 79.5 16.5t63.5 48t42 77.5t15 105q0 70 -35.5 108t-109.5 38q-44 0 -80 -16t-62.5 -47.5t-41 -77t-14.5 -104.5z" />
    <glyph glyph-name="otilde.aalt" horiz-adv-x="670" 
d="M338 -8q-52 0 -97 13.5t-78.5 42t-52.5 73t-19 106.5q0 80 23.5 144.5t66.5 109.5t101.5 69t129.5 24q125 0 190.5 -61.5t65.5 -173.5q0 -81 -23.5 -145.5t-66.5 -109t-104 -68.5t-136 -24zM208 234q0 -33 8 -60t25 -46.5t44.5 -30.5t65.5 -11q43 0 79.5 16.5t63.5 48
t42 77.5t15 105q0 70 -35.5 108t-109.5 38q-44 0 -80 -16t-62.5 -47.5t-41 -77t-14.5 -104.5zM255 637v16q0 24 7.5 47.5t22.5 42t37.5 29.5t52.5 11q25 0 43 -9.5t31.5 -21.5t26 -21.5t27.5 -9.5q18 0 28.5 12t10.5 32q0 3 -0.5 6.5t-0.5 5.5q-1 3 -1 5h84v-5
q0 -2 0.5 -4.5t0.5 -5.5q0 -26 -8 -49.5t-23 -41.5t-37.5 -29t-52.5 -11q-26 0 -43.5 10t-31 21.5t-25.5 21.5t-28 10q-17 0 -27.5 -13t-10.5 -34v-10q0 -3 1 -5h-84z" />
    <glyph glyph-name="odieresis.aalt" horiz-adv-x="670" 
d="M396 711q0 -29 -16.5 -51t-57.5 -22q-29 0 -41.5 13.5t-12.5 35.5q0 30 16.5 51.5t56.5 21.5q29 0 42 -13.5t13 -35.5zM608 710q0 -29 -17.5 -50.5t-56.5 -21.5q-29 0 -41.5 13.5t-12.5 35.5q0 29 16 51t57 22q29 0 42 -14t13 -36zM338 -8q-52 0 -97 13.5t-78.5 42
t-52.5 73t-19 106.5q0 80 23.5 144.5t66.5 109.5t101.5 69t129.5 24q125 0 190.5 -61.5t65.5 -173.5q0 -81 -23.5 -145.5t-66.5 -109t-104 -68.5t-136 -24zM208 234q0 -33 8 -60t25 -46.5t44.5 -30.5t65.5 -11q43 0 79.5 16.5t63.5 48t42 77.5t15 105q0 70 -35.5 108
t-109.5 38q-44 0 -80 -16t-62.5 -47.5t-41 -77t-14.5 -104.5z" />
    <glyph glyph-name="omacron.aalt" horiz-adv-x="670" 
d="M278 639l12 78h311l-13 -78h-310zM338 -8q-52 0 -97 13.5t-78.5 42t-52.5 73t-19 106.5q0 80 23.5 144.5t66.5 109.5t101.5 69t129.5 24q125 0 190.5 -61.5t65.5 -173.5q0 -81 -23.5 -145.5t-66.5 -109t-104 -68.5t-136 -24zM208 234q0 -33 8 -60t25 -46.5t44.5 -30.5
t65.5 -11q43 0 79.5 16.5t63.5 48t42 77.5t15 105q0 70 -35.5 108t-109.5 38q-44 0 -80 -16t-62.5 -47.5t-41 -77t-14.5 -104.5z" />
    <glyph glyph-name="obreve.aalt" horiz-adv-x="670" 
d="M619 792q-3 -18 -14.5 -44t-34 -50.5t-56 -41.5t-79.5 -17q-55 0 -83.5 22t-40.5 49.5t-12.5 52t0.5 29.5h82q0 -2 1 -13.5t7 -25t20 -24.5t39 -11q22 0 38 9.5t27 21.5t17 24.5t7 18.5h82zM338 -8q-52 0 -97 13.5t-78.5 42t-52.5 73t-19 106.5q0 80 23.5 144.5
t66.5 109.5t101.5 69t129.5 24q125 0 190.5 -61.5t65.5 -173.5q0 -81 -23.5 -145.5t-66.5 -109t-104 -68.5t-136 -24zM208 234q0 -33 8 -60t25 -46.5t44.5 -30.5t65.5 -11q43 0 79.5 16.5t63.5 48t42 77.5t15 105q0 70 -35.5 108t-109.5 38q-44 0 -80 -16t-62.5 -47.5
t-41 -77t-14.5 -104.5z" />
    <glyph glyph-name="ohungarumlaut.aalt" horiz-adv-x="670" 
d="M298 637l95 159h103l-104 -159h-94zM464 637l95 159h108l-118 -159h-85zM338 -8q-52 0 -97 13.5t-78.5 42t-52.5 73t-19 106.5q0 80 23.5 144.5t66.5 109.5t101.5 69t129.5 24q125 0 190.5 -61.5t65.5 -173.5q0 -81 -23.5 -145.5t-66.5 -109t-104 -68.5t-136 -24z
M208 234q0 -33 8 -60t25 -46.5t44.5 -30.5t65.5 -11q43 0 79.5 16.5t63.5 48t42 77.5t15 105q0 70 -35.5 108t-109.5 38q-44 0 -80 -16t-62.5 -47.5t-41 -77t-14.5 -104.5z" />
    <glyph glyph-name="oslash.aalt" horiz-adv-x="670" 
d="M338 -8q-36 0 -67 6l-44 -82h-93l59 110q-47 26 -74.5 75.5t-27.5 125.5q0 80 23.5 144.5t66.5 109.5t101.5 69t129.5 24q20 0 39 -2t36 -5l40 74h94l-56 -103q51 -29 77 -79.5t26 -119.5q0 -81 -23.5 -145.5t-66.5 -109t-104 -68.5t-136 -24zM208 234q0 -73 38 -112
l192 355q-8 1 -16 1.5t-16 0.5q-44 0 -80 -16t-62.5 -47.5t-41 -77t-14.5 -104.5zM551 333q0 73 -38 110l-193 -355q8 -2 15.5 -2h15.5q43 0 79.5 16.5t63.5 48t42 77.5t15 105z" />
    <glyph glyph-name="oe.aalt" horiz-adv-x="1002" 
d="M338 -8q-52 0 -97 13.5t-78.5 42t-52.5 73t-19 106.5q0 81 23.5 145t66.5 109t101.5 69t129.5 24q130 0 196 -69l10 61h409l-16 -95h-316l-23 -142h277l-13 -85h-277l-24 -149h316l-14 -95h-409l8 49q-83 -57 -198 -57zM208 234q0 -33 8 -60t25 -46.5t44.5 -30.5
t65.5 -11q43 0 79.5 16.5t63.5 48t42 77.5t15 105q0 70 -35.5 108t-109.5 38q-44 0 -80 -16t-62.5 -47.5t-41 -77t-14.5 -104.5z" />
    <glyph glyph-name="racute.aalt" horiz-adv-x="625" 
d="M319 637l117 159h128l-147 -159h-98zM78 0l90 566h260q57 0 95.5 -12.5t62 -34t33.5 -50t10 -60.5t-6.5 -63t-23.5 -58t-46 -48t-74 -33l91 -207h-123l-84 195h-137l-31 -195h-117zM369 282q41 0 68.5 8.5t43.5 24t22.5 36.5t6.5 46q0 35 -24 56t-87 21h-130l-30 -192
h130z" />
    <glyph glyph-name="rcaron.aalt" horiz-adv-x="625" 
d="M344 637l-97 159h98l60 -95l89 95h97l-147 -159h-100zM78 0l90 566h260q57 0 95.5 -12.5t62 -34t33.5 -50t10 -60.5t-6.5 -63t-23.5 -58t-46 -48t-74 -33l91 -207h-123l-84 195h-137l-31 -195h-117zM369 282q41 0 68.5 8.5t43.5 24t22.5 36.5t6.5 46q0 35 -24 56t-87 21
h-130l-30 -192h130z" />
    <glyph glyph-name="rcommaaccent.aalt" horiz-adv-x="625" 
d="M197 -286q7 5 18 16.5t21.5 25.5t19.5 29.5t12 28.5q-24 1 -33.5 14t-9.5 32q0 29 17 50.5t58 21.5q25 0 39.5 -15t14.5 -46q0 -33 -13.5 -64t-32.5 -56.5t-38 -43.5t-29 -25zM78 0l90 566h260q57 0 95.5 -12.5t62 -34t33.5 -50t10 -60.5t-6.5 -63t-23.5 -58t-46 -48
t-74 -33l91 -207h-123l-84 195h-137l-31 -195h-117zM369 282q41 0 68.5 8.5t43.5 24t22.5 36.5t6.5 46q0 35 -24 56t-87 21h-130l-30 -192h130z" />
    <glyph glyph-name="sacute.aalt" horiz-adv-x="546" 
d="M309 637l117 159h127l-146 -159h-98zM108 129q19 -12 45 -21q22 -8 53 -14.5t70 -6.5q61 0 91 18.5t30 52.5q0 19 -8.5 31.5t-23.5 22t-35.5 16.5t-44.5 14q-36 11 -67.5 23.5t-54 30.5t-35.5 44.5t-13 64.5q0 45 18 77.5t49.5 52.5t74.5 29.5t94 9.5q48 0 84.5 -6.5
t62.5 -14.5q30 -10 52 -21l-34 -90q-19 10 -43 19q-20 8 -49 14t-64 6q-57 0 -91 -15t-34 -50q0 -16 7.5 -27t22.5 -19.5t37.5 -16.5t52.5 -17q39 -12 69.5 -25.5t51.5 -32.5t32.5 -45.5t11.5 -63.5q0 -48 -18 -81.5t-51 -54.5t-78 -30.5t-99 -9.5q-51 0 -87.5 6.5
t-61.5 14.5q-29 9 -49 21z" />
    <glyph glyph-name="scircumflex.aalt" horiz-adv-x="546" 
d="M437 796l97 -159h-97l-60 95l-89 -95h-97l147 159h99zM108 129q19 -12 45 -21q22 -8 53 -14.5t70 -6.5q61 0 91 18.5t30 52.5q0 19 -8.5 31.5t-23.5 22t-35.5 16.5t-44.5 14q-36 11 -67.5 23.5t-54 30.5t-35.5 44.5t-13 64.5q0 45 18 77.5t49.5 52.5t74.5 29.5t94 9.5
q48 0 84.5 -6.5t62.5 -14.5q30 -10 52 -21l-34 -90q-19 10 -43 19q-20 8 -49 14t-64 6q-57 0 -91 -15t-34 -50q0 -16 7.5 -27t22.5 -19.5t37.5 -16.5t52.5 -17q39 -12 69.5 -25.5t51.5 -32.5t32.5 -45.5t11.5 -63.5q0 -48 -18 -81.5t-51 -54.5t-78 -30.5t-99 -9.5
q-51 0 -87.5 6.5t-61.5 14.5q-29 9 -49 21z" />
    <glyph glyph-name="scaron.aalt" horiz-adv-x="546" 
d="M312 637l-97 159h98l60 -95l89 95h97l-147 -159h-100zM108 129q19 -12 45 -21q22 -8 53 -14.5t70 -6.5q61 0 91 18.5t30 52.5q0 19 -8.5 31.5t-23.5 22t-35.5 16.5t-44.5 14q-36 11 -67.5 23.5t-54 30.5t-35.5 44.5t-13 64.5q0 45 18 77.5t49.5 52.5t74.5 29.5t94 9.5
q48 0 84.5 -6.5t62.5 -14.5q30 -10 52 -21l-34 -90q-19 10 -43 19q-20 8 -49 14t-64 6q-57 0 -91 -15t-34 -50q0 -16 7.5 -27t22.5 -19.5t37.5 -16.5t52.5 -17q39 -12 69.5 -25.5t51.5 -32.5t32.5 -45.5t11.5 -63.5q0 -48 -18 -81.5t-51 -54.5t-78 -30.5t-99 -9.5
q-51 0 -87.5 6.5t-61.5 14.5q-29 9 -49 21z" />
    <glyph glyph-name="scedilla.aalt" horiz-adv-x="546" 
d="M108 129q19 -12 45 -21q22 -8 53 -14.5t70 -6.5q61 0 91 18.5t30 52.5q0 19 -8.5 31.5t-23.5 22t-35.5 16.5t-44.5 14q-36 11 -67.5 23.5t-54 30.5t-35.5 44.5t-13 64.5q0 45 18 77.5t49.5 52.5t74.5 29.5t94 9.5q48 0 84.5 -6.5t62.5 -14.5q30 -10 52 -21l-34 -90
q-19 10 -43 19q-20 8 -49 14t-64 6q-57 0 -91 -15t-34 -50q0 -16 7.5 -27t22.5 -19.5t37.5 -16.5t52.5 -17q39 -12 69.5 -25.5t51.5 -32.5t32.5 -45.5t11.5 -63.5q0 -45 -16 -77t-44.5 -53t-68 -32t-87.5 -13l-21 -47h6q2 0 4 0.5t4 0.5q37 0 63 -17t26 -55q0 -45 -33 -73
t-105 -28q-18 0 -31 1t-22 3q-11 2 -17 5l7 58q6 -2 15 -4q8 -2 19 -3t26 -1q25 0 46 8t21 30q0 15 -15.5 21t-37.5 6q-20 0 -39 -2.5t-24 -4.5l43 102q-42 2 -72.5 8.5t-50.5 14.5q-24 8 -40 18z" />
    <glyph glyph-name="scommaaccent.aalt" horiz-adv-x="546" 
d="M181 -286q7 5 18 16.5t21.5 25.5t19.5 29.5t12 28.5q-24 1 -33.5 14t-9.5 32q0 29 17 50.5t59 21.5q24 0 39 -15t15 -46q0 -33 -14 -64t-32.5 -56.5t-38 -43.5t-29.5 -25zM108 129q19 -12 45 -21q22 -8 53 -14.5t70 -6.5q61 0 91 18.5t30 52.5q0 19 -8.5 31.5t-23.5 22
t-35.5 16.5t-44.5 14q-36 11 -67.5 23.5t-54 30.5t-35.5 44.5t-13 64.5q0 45 18 77.5t49.5 52.5t74.5 29.5t94 9.5q48 0 84.5 -6.5t62.5 -14.5q30 -10 52 -21l-34 -90q-19 10 -43 19q-20 8 -49 14t-64 6q-57 0 -91 -15t-34 -50q0 -16 7.5 -27t22.5 -19.5t37.5 -16.5
t52.5 -17q39 -12 69.5 -25.5t51.5 -32.5t32.5 -45.5t11.5 -63.5q0 -48 -18 -81.5t-51 -54.5t-78 -30.5t-99 -9.5q-51 0 -87.5 6.5t-61.5 14.5q-29 9 -49 21z" />
    <glyph glyph-name="tcaron.aalt" horiz-adv-x="546" 
d="M323 637l-97 159h97l60 -95l89 95h98l-147 -159h-100zM214 0l74 470h-188l15 96h495l-15 -96h-189l-75 -470h-117z" />
    <glyph glyph-name="uni021B.aalt" horiz-adv-x="546" 
d="M160 -286q7 5 18 16.5t22 25.5t20 29.5t12 28.5q-24 1 -33.5 14t-9.5 32q0 29 17 50.5t58 21.5q24 0 39 -15t15 -46q0 -33 -13.5 -64t-32.5 -56.5t-38 -43.5t-30 -25zM214 0l74 470h-188l15 96h495l-15 -96h-189l-75 -470h-117z" />
    <glyph glyph-name="tcommaaccent.aalt" horiz-adv-x="546" 
d="M305 0l-23 -53h6q2 0 4.5 0.5t3.5 0.5q38 0 63.5 -17t25.5 -55q0 -45 -33 -73t-105 -28q-18 0 -31 1t-22 3q-11 2 -17 5l7 58q6 -2 15 -4q8 -2 19 -3t26 -1q25 0 45.5 8t20.5 30q0 15 -15 21t-38 6q-19 0 -37.5 -2.5t-24.5 -4.5l46 108h-27l74 470h-188l15 96h495
l-15 -96h-189l-75 -470h-26z" />
    <glyph glyph-name="tbar.aalt" horiz-adv-x="546" 
d="M214 0l42 266h-113l10 67h113l22 137h-188l15 96h495l-15 -96h-189l-22 -137h118l-11 -67h-118l-42 -266h-117z" />
    <glyph glyph-name="thorn.aalt" horiz-adv-x="599" 
d="M285 566l-13 -78h139q57 0 95.5 -13.5t61.5 -36t32.5 -52t9.5 -62.5q0 -40 -11 -81t-40 -74t-79.5 -54t-128.5 -21h-141l-15 -94h-117l90 566h117zM224 186h126q40 0 67.5 10.5t43.5 27.5t23 40t7 49q0 37 -23 59.5t-85 22.5h-126z" />
    <glyph glyph-name="ugrave.aalt" horiz-adv-x="663" 
d="M381 637l-96 159h127l67 -159h-98zM562 566h118l-53 -331q-9 -59 -30.5 -104t-57 -76t-87 -47t-120.5 -16q-116 0 -171 47.5t-55 137.5q0 14 1.5 28t3.5 30l52 331h118l-52 -324q-2 -13 -3 -25.5t-1 -23.5q0 -50 26 -78.5t94 -28.5q80 0 117.5 42.5t48.5 113.5z" />
    <glyph glyph-name="uacute.aalt" horiz-adv-x="663" 
d="M366 637l117 159h128l-146 -159h-99zM562 566h118l-53 -331q-9 -59 -30.5 -104t-57 -76t-87 -47t-120.5 -16q-116 0 -171 47.5t-55 137.5q0 14 1.5 28t3.5 30l52 331h118l-52 -324q-2 -13 -3 -25.5t-1 -23.5q0 -50 26 -78.5t94 -28.5q80 0 117.5 42.5t48.5 113.5z" />
    <glyph glyph-name="ucircumflex.aalt" horiz-adv-x="663" 
d="M502 796l97 -159h-98l-60 95l-89 -95h-97l147 159h100zM562 566h118l-53 -331q-9 -59 -30.5 -104t-57 -76t-87 -47t-120.5 -16q-116 0 -171 47.5t-55 137.5q0 14 1.5 28t3.5 30l52 331h118l-52 -324q-2 -13 -3 -25.5t-1 -23.5q0 -50 26 -78.5t94 -28.5q80 0 117.5 42.5
t48.5 113.5z" />
    <glyph glyph-name="utilde.aalt" horiz-adv-x="663" 
d="M255 637q-1 1 -1 4v12q0 24 8 47.5t23 42t37.5 29.5t51.5 11q25 0 43 -9.5t31.5 -21.5t26 -21.5t27.5 -9.5q19 0 29 12t10 32q0 3 -0.5 6.5t-0.5 5.5q-1 3 -1 5h84v-5q0 -2 0.5 -4.5t0.5 -5.5q0 -26 -8 -49.5t-23 -41.5t-37.5 -29t-51.5 -11q-26 0 -43.5 10t-31.5 21.5
t-26 21.5t-28 10q-17 0 -27.5 -13t-10.5 -34v-10q0 -3 1 -5h-83zM562 566h118l-53 -331q-9 -59 -30.5 -104t-57 -76t-87 -47t-120.5 -16q-116 0 -171 47.5t-55 137.5q0 14 1.5 28t3.5 30l52 331h118l-52 -324q-2 -13 -3 -25.5t-1 -23.5q0 -50 26 -78.5t94 -28.5
q80 0 117.5 42.5t48.5 113.5z" />
    <glyph glyph-name="udieresis.aalt" horiz-adv-x="663" 
d="M395 711q0 -29 -16.5 -51t-56.5 -22q-29 0 -42 13.5t-13 35.5q0 30 17 51.5t57 21.5q29 0 41.5 -13.5t12.5 -35.5zM607 710q0 -29 -17 -50.5t-56 -21.5q-30 0 -42.5 13.5t-12.5 35.5q0 29 16 51t58 22q29 0 41.5 -14t12.5 -36zM562 566h118l-53 -331q-9 -59 -30.5 -104
t-57 -76t-87 -47t-120.5 -16q-116 0 -171 47.5t-55 137.5q0 14 1.5 28t3.5 30l52 331h118l-52 -324q-2 -13 -3 -25.5t-1 -23.5q0 -50 26 -78.5t94 -28.5q80 0 117.5 42.5t48.5 113.5z" />
    <glyph glyph-name="umacron.aalt" horiz-adv-x="663" 
d="M269 639l12 78h309l-12 -78h-309zM562 566h118l-53 -331q-9 -59 -30.5 -104t-57 -76t-87 -47t-120.5 -16q-116 0 -171 47.5t-55 137.5q0 14 1.5 28t3.5 30l52 331h118l-52 -324q-2 -13 -3 -25.5t-1 -23.5q0 -50 26 -78.5t94 -28.5q80 0 117.5 42.5t48.5 113.5z" />
    <glyph glyph-name="ubreve.aalt" horiz-adv-x="663" 
d="M614 792q-3 -18 -15 -44t-34 -50.5t-55.5 -41.5t-79.5 -17q-37 0 -61.5 10.5t-39.5 26t-23 34.5t-11 36t-2.5 29.5t0.5 16.5h82q0 -2 1 -13.5t7.5 -25t20.5 -24.5t39 -11q22 0 38 9.5t27 21.5t17 24.5t7 18.5h82zM562 566h118l-53 -331q-9 -59 -30.5 -104t-57 -76
t-87 -47t-120.5 -16q-116 0 -171 47.5t-55 137.5q0 14 1.5 28t3.5 30l52 331h118l-52 -324q-2 -13 -3 -25.5t-1 -23.5q0 -50 26 -78.5t94 -28.5q80 0 117.5 42.5t48.5 113.5z" />
    </font>
</defs>
</svg>
