<svg width="190" height="45" viewBox="0 0 190 45" fill="none" xmlns="http://www.w3.org/2000/svg">
<g clip-path="url(#clip0)">
<path d="M57.9374 44.4651C57.6813 44.5164 57.3739 44.5676 57.0665 44.5676H55.7346C55.5297 44.5676 55.4785 44.5164 55.4785 44.3627V39.7523C55.4785 39.5474 55.5297 39.5474 55.7346 39.5474H57.0665C57.4251 39.5474 57.8349 39.5474 58.1935 39.701C59.1156 40.0596 59.1156 41.3403 59.1156 42.1087C59.1156 43.0308 59.0132 44.1578 57.9374 44.4651ZM57.7837 40.2645C57.5788 40.1621 57.169 40.1621 56.9129 40.1621C56.708 40.1621 56.4518 40.1621 56.2469 40.2133V43.9016C56.503 43.9016 56.8104 43.9529 57.1178 43.9529C58.296 43.9529 58.3472 43.1332 58.3472 42.1599C58.3472 41.5452 58.3984 40.5719 57.7837 40.2645Z" fill="#EE713A"/>
<path d="M61.7282 44.5676H61.4208C61.2159 44.5676 61.1647 44.5676 61.1647 44.3627V39.7523C61.1647 39.5986 61.2159 39.5474 61.3696 39.5474H61.7282C61.8819 39.5474 61.9331 39.5986 61.9331 39.7523V44.3627C61.9331 44.4651 61.8819 44.5676 61.7282 44.5676Z" fill="#EE713A"/>
<path d="M67.5168 44.5675C67.3631 44.5675 67.3119 44.5675 67.2094 44.4651C67.107 44.3626 67.0557 44.209 66.9533 44.1065C66.7484 43.7991 66.5435 43.4918 66.3386 43.1844C65.8263 42.416 65.3653 41.6476 64.853 40.8792V44.3626C64.853 44.5163 64.8018 44.5675 64.6481 44.5675H64.3407C64.1358 44.5675 64.0846 44.5675 64.0846 44.3626V39.7522C64.0846 39.5473 64.1358 39.5473 64.3407 39.5473H64.5456C64.6993 39.5473 64.7505 39.5473 64.8018 39.6498C64.9042 39.7522 64.9554 39.9059 65.0579 40.0084C65.2628 40.3157 65.4677 40.5719 65.6214 40.8792C66.1337 41.6476 66.6459 42.4672 67.1582 43.2356V39.701C67.1582 39.4961 67.2094 39.4961 67.3631 39.4961H67.6705C67.8241 39.4961 67.8754 39.5473 67.8754 39.701V44.3114C67.9266 44.6188 67.7217 44.5675 67.5168 44.5675Z" fill="#EE713A"/>
<path d="M75.5594 44.4651C75.3032 44.5164 74.9959 44.5676 74.6885 44.5676H73.3566C73.1517 44.5676 73.1005 44.5164 73.1005 44.3627V39.7523C73.1005 39.5474 73.1517 39.5474 73.3566 39.5474H74.6885C75.0471 39.5474 75.4569 39.5474 75.8155 39.701C76.7376 40.0596 76.7376 41.3403 76.7376 42.1087C76.7376 43.0308 76.6351 44.1578 75.5594 44.4651ZM75.4057 40.2645C75.2008 40.1621 74.791 40.1621 74.5348 40.1621C74.3299 40.1621 74.0738 40.1621 73.8689 40.2133V43.9016C74.125 43.9016 74.4324 43.9529 74.7397 43.9529C75.9179 43.9529 75.9692 43.1332 75.9692 42.1599C75.9692 41.5452 76.0204 40.5719 75.4057 40.2645Z" fill="#EE713A"/>
<path d="M82.3725 44.5675H81.9627C81.809 44.5675 81.7578 44.5163 81.7066 44.3626L81.1943 42.9283C80.6308 42.9283 80.0673 42.9283 79.5038 42.9283L79.0428 44.3114C78.9916 44.4651 78.9404 44.5675 78.7867 44.5675H78.4281C78.3769 44.5675 78.2744 44.5675 78.2744 44.5163C78.2744 44.4651 78.3256 44.3626 78.3256 44.3114L79.8624 39.7522C79.9137 39.5473 79.9649 39.4961 80.1698 39.4961H80.4772C80.6821 39.4961 80.7333 39.5473 80.7845 39.7522C80.9382 40.1108 82.4238 44.3626 82.4238 44.4651C82.475 44.5163 82.4238 44.5675 82.3725 44.5675ZM80.3747 40.367L79.76 42.3136C80.1698 42.3136 80.6308 42.3136 81.0406 42.3136L80.3747 40.367Z" fill="#EE713A"/>
<path d="M87.2903 44.5163C86.983 44.6188 86.4707 44.67 86.1633 44.67C85.856 44.67 85.5486 44.67 85.2925 44.5675C84.1655 44.2602 84.1143 43.0307 84.1143 42.1087C84.1143 41.289 84.1655 40.0084 85.0363 39.6498C85.3949 39.4961 85.8047 39.4961 86.1633 39.4961C86.5219 39.4961 86.8805 39.4961 87.2391 39.5473C87.3416 39.5473 87.4952 39.5473 87.4952 39.701V39.9571C87.4952 40.0596 87.4952 40.2133 87.3416 40.2133C87.1879 40.2133 87.0342 40.162 86.8805 40.162C86.6756 40.162 86.4707 40.162 86.317 40.162C86.0609 40.162 85.6511 40.162 85.4462 40.2645C84.8827 40.5206 84.8827 41.5964 84.8827 42.1599C84.8827 42.8258 84.8827 43.8504 85.7023 44.004C85.9072 44.0553 86.1121 44.0553 86.317 44.0553C86.4707 44.0553 86.6244 44.004 86.7781 44.004V42.2623H85.9072C85.6511 42.2623 85.7023 42.0574 85.7023 41.9038C85.7023 41.7501 85.7023 41.6476 85.9072 41.6476H87.3416C87.4952 41.6476 87.5465 41.6988 87.5465 41.8525V44.2602C87.4952 44.4139 87.444 44.4651 87.2903 44.5163Z" fill="#EE713A"/>
<path d="M92.1569 44.1062C91.9007 44.6185 91.2348 44.6185 90.7225 44.6185C90.3639 44.6185 90.0053 44.6185 89.6468 44.5673C89.5443 44.5673 89.3906 44.5673 89.3906 44.4136V44.1575C89.3906 44.0038 89.3906 43.9013 89.5443 43.9013C89.7492 43.9013 89.9541 43.9526 90.1078 43.9526C90.3639 43.9526 90.6201 43.9526 90.825 43.9526C91.3372 43.9526 91.5421 43.9013 91.5421 43.2866C91.5421 42.8768 91.5934 42.6207 91.1836 42.467C90.8762 42.3133 90.5688 42.2109 90.2615 42.0572C89.4931 41.6986 89.3906 41.5449 89.3906 40.7253C89.3906 40.3667 89.3906 39.9569 89.698 39.7007C90.0053 39.3934 90.5688 39.4446 91.0299 39.4446C91.3372 39.4446 91.6446 39.4446 91.952 39.4958C92.0544 39.4958 92.2081 39.4958 92.2081 39.6495V39.9056C92.2081 40.0593 92.2081 40.1618 92.0544 40.1618C91.952 40.1618 91.7983 40.1618 91.6958 40.1618C91.5421 40.1618 91.3885 40.1618 91.2348 40.1618C91.0299 40.1618 90.8762 40.1618 90.7225 40.1618C90.159 40.1618 90.159 40.4179 90.159 40.879C90.159 41.2375 90.159 41.34 90.5176 41.4425C90.7225 41.5449 90.9274 41.6474 91.1323 41.6986C91.3372 41.801 91.5934 41.9035 91.7983 42.0059C92.2593 42.2621 92.3105 42.5694 92.3105 43.0817C92.2593 43.3378 92.2593 43.8501 92.1569 44.1062Z" fill="#EE713A"/>
<path d="M97.7405 44.0552C97.3307 44.5675 96.8697 44.7211 96.2037 44.7211C95.589 44.7211 95.0767 44.5675 94.6669 44.0552C94.2571 43.4917 94.1547 42.7233 94.1547 42.0573C94.1547 41.3402 94.2059 40.623 94.6669 40.0595C95.0767 39.5472 95.5378 39.3936 96.2037 39.3936C96.8185 39.3936 97.3307 39.5472 97.7405 40.0595C98.1503 40.623 98.2528 41.3914 98.2528 42.0573C98.2016 42.7233 98.1503 43.4405 97.7405 44.0552ZM97.2795 40.623C97.0746 40.162 96.6648 40.0595 96.255 40.0595C95.8451 40.0595 95.3841 40.2132 95.2304 40.623C95.0767 40.9816 95.0255 41.6475 95.0255 42.0573C95.0255 42.4672 95.0255 43.1331 95.2304 43.4917C95.4353 43.9527 95.8451 44.1064 96.255 44.1064C96.716 44.1064 97.1258 43.9527 97.2795 43.4917C97.4332 43.1331 97.4844 42.4672 97.4844 42.0573C97.4332 41.6475 97.4332 40.9816 97.2795 40.623Z" fill="#EE713A"/>
<path d="M103.58 44.5677H103.119C102.966 44.5677 102.863 44.5677 102.761 44.414L101.429 42.6723H101.019V44.3628C101.019 44.5164 100.968 44.5677 100.814 44.5677H100.507C100.302 44.5677 100.251 44.5164 100.251 44.3628V39.7524C100.251 39.5475 100.302 39.5475 100.507 39.5475H101.89C102.351 39.5475 102.761 39.4962 103.068 39.8548C103.375 40.2134 103.427 40.8281 103.427 41.2379C103.427 42.0063 103.171 42.5698 102.3 42.6211L103.58 44.3115C103.632 44.3628 103.632 44.414 103.632 44.4652C103.734 44.5164 103.683 44.5677 103.58 44.5677ZM102.453 40.2134C102.3 40.1622 102.044 40.1622 101.89 40.1622C101.634 40.1622 101.326 40.1622 101.019 40.1622V41.9551H101.992C102.607 41.9551 102.71 41.699 102.71 41.1355C102.761 40.9306 102.761 40.3671 102.453 40.2134Z" fill="#EE713A"/>
<path d="M108.037 44.4651C107.781 44.5164 107.474 44.5676 107.166 44.5676H105.834C105.629 44.5676 105.578 44.5164 105.578 44.3627V39.7523C105.578 39.5474 105.629 39.5474 105.834 39.5474H107.166C107.525 39.5474 107.935 39.5474 108.293 39.701C109.215 40.0596 109.215 41.3403 109.215 42.1087C109.215 43.0308 109.113 44.1578 108.037 44.4651ZM107.883 40.2645C107.679 40.1621 107.269 40.1621 107.013 40.1621C106.808 40.1621 106.552 40.1621 106.347 40.2133V43.9016C106.603 43.9016 106.91 43.9529 107.218 43.9529C108.396 43.9529 108.447 43.1332 108.447 42.1599C108.396 41.5452 108.447 40.5719 107.883 40.2645Z" fill="#EE713A"/>
<path d="M113.774 44.5676H111.469C111.264 44.5676 111.213 44.5164 111.213 44.3627V39.7523C111.213 39.5474 111.264 39.5474 111.469 39.5474H113.774C114.031 39.5474 113.979 39.7523 113.979 39.9572C113.979 40.1109 113.979 40.2133 113.774 40.2133C113.16 40.2133 112.545 40.2133 111.982 40.1621V41.6989C112.545 41.6989 113.109 41.6477 113.621 41.6477C113.826 41.6477 113.826 41.8526 113.826 42.0062C113.826 42.1599 113.826 42.2624 113.621 42.2624C113.057 42.2624 112.545 42.2624 111.982 42.2112V43.9529C112.596 43.9529 113.211 43.9016 113.826 43.9016C113.979 43.9016 114.031 44.0041 114.031 44.1578V44.3627C113.979 44.5164 113.928 44.5676 113.774 44.5676Z" fill="#EE713A"/>
<path d="M119.358 44.5675C119.205 44.5675 119.153 44.5675 119.051 44.4651C118.948 44.3626 118.897 44.209 118.795 44.1065C118.59 43.7991 118.385 43.4918 118.18 43.1844C117.668 42.416 117.207 41.6476 116.694 40.8792V44.3626C116.694 44.5163 116.643 44.5675 116.49 44.5675H116.182C115.977 44.5675 115.926 44.5675 115.926 44.3626V39.7522C115.926 39.5473 115.977 39.5473 116.182 39.5473H116.387C116.541 39.5473 116.592 39.5473 116.643 39.6498C116.746 39.7522 116.797 39.9059 116.899 40.0084C117.104 40.3157 117.309 40.5719 117.463 40.8792C117.975 41.6476 118.487 42.4672 119 43.2356V39.701C119 39.4961 119.051 39.4961 119.205 39.4961H119.512C119.666 39.4961 119.717 39.5473 119.717 39.701V44.3114C119.768 44.6188 119.563 44.5675 119.358 44.5675Z" fill="#EE713A"/>
<path d="M127.042 42.8257H124.993C124.84 42.8257 124.788 42.7745 124.788 42.6208V42.4159C124.788 42.3134 124.891 42.2622 124.993 42.2622H127.094C127.247 42.2622 127.298 42.2622 127.298 42.4159V42.6208C127.247 42.7745 127.247 42.8257 127.042 42.8257Z" fill="#EE713A"/>
<path d="M135.751 44.0552C135.341 44.5675 134.88 44.7211 134.214 44.7211C133.599 44.7211 133.087 44.5675 132.677 44.0552C132.267 43.4917 132.165 42.7233 132.165 42.0573C132.165 41.3402 132.216 40.623 132.677 40.0595C133.087 39.5472 133.548 39.3936 134.214 39.3936C134.829 39.3936 135.341 39.5472 135.751 40.0595C136.161 40.623 136.263 41.3914 136.263 42.0573C136.263 42.7233 136.161 43.4405 135.751 44.0552ZM135.29 40.623C135.085 40.162 134.675 40.0595 134.265 40.0595C133.804 40.0595 133.394 40.2132 133.241 40.623C133.087 40.9816 133.036 41.6475 133.036 42.0573C133.036 42.4672 133.036 43.1331 133.241 43.4917C133.446 43.9527 133.856 44.1064 134.265 44.1064C134.726 44.1064 135.136 43.9527 135.29 43.4917C135.444 43.1331 135.495 42.4672 135.495 42.0573C135.444 41.6475 135.444 40.9816 135.29 40.623Z" fill="#EE713A"/>
<path d="M141.642 44.5675C141.488 44.5675 141.437 44.5675 141.335 44.4651C141.232 44.3626 141.181 44.209 141.078 44.1065C140.874 43.7991 140.669 43.4918 140.464 43.1844C139.951 42.416 139.49 41.6476 138.978 40.8792V44.3626C138.978 44.5163 138.927 44.5675 138.773 44.5675H138.466C138.261 44.5675 138.21 44.5675 138.21 44.3626V39.7522C138.21 39.5473 138.261 39.5473 138.466 39.5473H138.671C138.824 39.5473 138.876 39.5473 138.927 39.6498C139.029 39.7522 139.081 39.9059 139.183 40.0084C139.388 40.3157 139.593 40.5719 139.747 40.8792C140.259 41.6476 140.771 42.4672 141.283 43.2356V39.701C141.283 39.4961 141.335 39.4961 141.488 39.4961H141.796C141.949 39.4961 142.001 39.5473 142.001 39.701V44.3114C142.103 44.6188 141.898 44.5675 141.642 44.5675Z" fill="#EE713A"/>
<path d="M146.56 44.5676H144.459C144.254 44.5676 144.203 44.5164 144.203 44.3627V39.7523C144.203 39.5474 144.254 39.5474 144.459 39.5474H144.767C144.92 39.5474 144.972 39.5986 144.972 39.7523V43.9529C145.484 43.9529 146.047 43.9529 146.56 43.9529C146.765 43.9529 146.713 44.0553 146.713 44.209V44.4139C146.765 44.5164 146.713 44.5676 146.56 44.5676Z" fill="#EE713A"/>
<path d="M149.07 44.5676H148.762C148.558 44.5676 148.506 44.5676 148.506 44.3627V39.7523C148.506 39.5986 148.558 39.5474 148.711 39.5474H149.07C149.224 39.5474 149.275 39.5986 149.275 39.7523V44.3627C149.275 44.4651 149.224 44.5676 149.07 44.5676Z" fill="#EE713A"/>
<path d="M154.807 44.5675C154.654 44.5675 154.602 44.5675 154.5 44.4651C154.397 44.3626 154.346 44.209 154.244 44.1065C154.039 43.7991 153.834 43.4918 153.629 43.1844C153.117 42.416 152.656 41.6476 152.143 40.8792V44.3626C152.143 44.5163 152.092 44.5675 151.938 44.5675H151.631C151.426 44.5675 151.375 44.5675 151.375 44.3626V39.7522C151.375 39.5473 151.426 39.5473 151.631 39.5473H151.836C151.99 39.5473 152.041 39.5473 152.092 39.6498C152.195 39.7522 152.246 39.9059 152.348 40.0084C152.553 40.3157 152.758 40.5719 152.912 40.8792C153.424 41.6476 153.936 42.4672 154.449 43.2356V39.701C154.449 39.4961 154.5 39.4961 154.653 39.4961H154.961C155.115 39.4961 155.166 39.5473 155.166 39.701V44.3114C155.268 44.6188 155.063 44.5675 154.807 44.5675Z" fill="#EE713A"/>
<path d="M159.93 44.5676H157.625C157.42 44.5676 157.369 44.5164 157.369 44.3627V39.7523C157.369 39.5474 157.42 39.5474 157.625 39.5474H159.93C160.186 39.5474 160.135 39.7523 160.135 39.9572C160.135 40.1109 160.135 40.2133 159.93 40.2133C159.315 40.2133 158.7 40.2133 158.137 40.1621V41.6989C158.7 41.6989 159.264 41.6477 159.776 41.6477C159.981 41.6477 159.981 41.8526 159.981 42.0062C159.981 42.1599 159.981 42.2624 159.776 42.2624C159.213 42.2624 158.7 42.2624 158.137 42.2112V43.9529C158.752 43.9529 159.366 43.9016 159.981 43.9016C160.135 43.9016 160.186 44.0041 160.186 44.1578V44.3627C160.135 44.5164 160.084 44.5676 159.93 44.5676Z" fill="#EE713A"/>
<path d="M179.55 11.8335C172.224 11.8335 169.099 14.9583 169.099 22.2838C169.099 29.6092 172.224 32.734 179.55 32.734C186.875 32.734 190 29.6092 190 22.2838C190 14.9583 186.875 11.8335 179.55 11.8335ZM179.55 28.6359C174.478 28.6359 173.198 27.4064 173.198 22.2838C173.198 17.2635 174.478 15.9316 179.55 15.9316C184.57 15.9316 185.902 17.2123 185.902 22.2838C185.902 27.4064 184.621 28.6359 179.55 28.6359Z" fill="white"/>
<path d="M77.3011 29.814C75.6619 28.1748 75.2521 27.2015 75.2521 25.3061V6.71077C75.2521 6.60831 75.1496 6.50586 75.0472 6.50586H71.3588C71.2564 6.50586 71.1539 6.60831 71.1539 6.71077V13.1141C69.5659 12.2433 67.4656 11.8334 64.8018 11.8334C57.4764 11.8334 54.3516 14.9583 54.3516 22.2837C54.3516 29.6091 57.4764 32.734 64.8018 32.734C68.2852 32.734 70.8466 32.0168 72.5371 30.48C73.0493 31.2484 73.664 31.9656 74.3812 32.6827C74.4837 32.7852 74.6374 32.7852 74.6886 32.6827L77.3011 30.0702C77.4036 30.0189 77.4036 29.8653 77.3011 29.814ZM64.8018 28.6358C59.7304 28.6358 58.4497 27.4064 58.4497 22.2837C58.4497 17.2635 59.7304 15.9316 64.8018 15.9316C69.8733 15.9316 71.1539 17.2122 71.1539 22.2837C71.1539 27.4064 69.8733 28.6358 64.8018 28.6358Z" fill="white"/>
<path d="M158.752 6.71077C158.752 6.60831 158.854 6.50586 158.957 6.50586H162.645C162.747 6.50586 162.85 6.60831 162.85 6.71077V11.8847H167.921C168.024 11.8847 168.126 11.9871 168.126 12.0896V15.7779C168.126 15.8804 168.024 15.9828 167.921 15.9828H162.85V25.3061C162.85 27.2527 163.311 28.226 165.053 30.0189C165.155 30.1214 165.155 30.2238 165.053 30.3263L162.44 32.9389C162.338 33.0413 162.235 33.0413 162.133 32.9389C159.981 30.7873 158.7 28.8407 158.7 25.3573V6.71077H158.752Z" fill="white"/>
<path d="M88.9296 11.8335C81.6042 11.8335 78.4794 14.9583 78.4794 22.2838C78.4794 29.6092 81.6042 32.734 88.9296 32.734C92.618 32.734 95.0256 32.0168 96.7161 30.48C96.8185 30.3776 96.8185 30.2751 96.7161 30.1727L94.1548 27.5601C94.0523 27.4577 93.9498 27.4577 93.8474 27.5601C92.9765 28.3285 91.3885 28.6359 88.9809 28.6359C84.6778 28.6359 83.0898 27.765 82.7312 24.3328H99.175C99.2774 24.3328 99.3799 24.2304 99.3799 24.1279V22.2838C99.3799 14.9583 96.2551 11.8335 88.9296 11.8335ZM82.68 20.2347C83.0898 16.9049 84.6778 15.9316 88.9296 15.9316C93.1814 15.9316 94.7695 16.8537 95.1793 20.2347H82.68Z" fill="white"/>
<path d="M145.996 11.8335C138.671 11.8335 135.546 14.9583 135.546 22.2838C135.546 29.6092 138.671 32.734 145.996 32.734C149.684 32.734 152.092 32.0168 153.783 30.48C153.885 30.3776 153.885 30.2751 153.783 30.1727L151.221 27.5601C151.119 27.4577 151.016 27.4577 150.914 27.5601C150.043 28.3285 148.455 28.6359 146.047 28.6359C141.744 28.6359 140.156 27.765 139.798 24.3328H156.242C156.344 24.3328 156.446 24.2304 156.446 24.1279V22.2838C156.446 14.9583 153.322 11.8335 145.996 11.8335ZM139.798 20.2347C140.208 16.9049 141.796 15.9316 146.047 15.9316C150.299 15.9316 151.887 16.8537 152.297 20.2347H139.798Z" fill="white"/>
<path d="M112.135 15.9316C114.543 15.9316 116.131 16.2902 117.002 17.0074C117.104 17.1099 117.207 17.1099 117.309 17.0074L119.871 14.3948C119.973 14.2924 119.973 14.1899 119.871 14.0875C118.18 12.4994 115.772 11.8335 112.084 11.8335C104.759 11.8335 101.634 14.9583 101.634 22.2838C101.634 29.6092 104.759 32.734 112.084 32.734C115.772 32.734 118.18 32.0168 119.871 30.48C119.973 30.3776 119.973 30.2751 119.871 30.1727L117.309 27.5601C117.207 27.4577 117.104 27.4577 117.002 27.5601C116.131 28.3285 114.543 28.6359 112.135 28.6359C107.064 28.6359 105.783 27.4064 105.783 22.2838C105.834 17.2635 107.115 15.9316 112.135 15.9316Z" fill="white"/>
<path d="M134.419 11.8335C130.782 11.8335 128.221 12.6019 126.53 14.2412C126.018 13.524 125.403 12.8068 124.686 12.0896C124.583 11.9872 124.481 11.9872 124.378 12.0896L121.766 14.7022C121.663 14.8046 121.663 14.9071 121.766 15.0096C123.508 16.7513 123.969 17.7246 123.969 19.7224V32.4266C123.969 32.5291 124.071 32.6315 124.174 32.6315H127.862C127.964 32.6315 128.067 32.5291 128.067 32.4266V26.9966V22.2837C128.067 17.2635 129.347 15.9316 134.419 15.9316C134.521 15.9316 134.624 15.8292 134.624 15.7267V12.0384C134.675 11.9359 134.573 11.8335 134.419 11.8335Z" fill="white"/>
<path d="M30.8897 24.3327C30.8897 24.4864 30.7873 24.5889 30.6336 24.5889H13.6775C13.5238 24.5889 13.4214 24.4864 13.4214 24.3327V20.1834C13.4214 20.0297 13.5238 19.9272 13.6775 19.9272H30.6336C30.7873 19.9272 30.8897 20.0297 30.8897 20.1834V24.3327Z" fill="#EE713A"/>
<path d="M30.8897 16.4436C30.8897 16.5973 30.7872 16.6997 30.6335 16.6997H13.9336C13.7799 16.6997 13.6775 16.5973 13.6775 16.4436V12.2942C13.6775 12.1405 13.7799 12.0381 13.9336 12.0381H30.6335C30.7872 12.0381 30.8897 12.1405 30.8897 12.2942V16.4436Z" fill="#EE713A"/>
<path d="M24.3839 32.2727C24.3839 32.4264 24.2815 32.5288 24.1278 32.5288H13.6775C13.5238 32.5288 13.4214 32.4264 13.4214 32.2727V28.1233C13.4214 27.9696 13.5238 27.8672 13.6775 27.8672H24.1278C24.2815 27.8672 24.3839 27.9696 24.3839 28.1233V32.2727Z" fill="#EE713A"/>
<path d="M22.2836 0C9.98922 0 0 9.98922 0 22.2836C0 34.5781 9.98922 44.5673 22.2836 44.5673H28.8919C29.5066 44.5673 30.1213 44.3111 30.5311 43.9013L43.8501 30.5824C44.3111 30.1213 44.516 29.5578 44.516 28.9431V22.2836C44.5673 9.98922 34.5781 0 22.2836 0ZM22.2836 39.8544C12.6018 39.8544 4.71286 31.9655 4.71286 22.2836C4.71286 12.6018 12.6018 4.71286 22.2836 4.71286C31.9655 4.71286 39.8544 12.6018 39.8544 22.2836V27.9186L39.752 28.021H28.7894C28.3796 28.021 28.021 28.3796 28.021 28.7894V39.8032L27.9186 39.9056H22.2836V39.8544Z" fill="#ABD8D0"/>
</g>
<defs>
<clipPath id="clip0">
<rect width="190" height="44.721" fill="white"/>
</clipPath>
</defs>
</svg>
