<svg width="190" height="45" viewBox="0 0 190 45" fill="none" xmlns="http://www.w3.org/2000/svg">
<g clip-path="url(#clip0)">
<path d="M57.9374 44.4648C57.6813 44.516 57.3739 44.5673 57.0665 44.5673H55.7346C55.5297 44.5673 55.4785 44.516 55.4785 44.3624V39.752C55.4785 39.547 55.5297 39.547 55.7346 39.547H57.0665C57.4251 39.547 57.8349 39.547 58.1935 39.7007C59.1156 40.0593 59.1156 41.34 59.1156 42.1084C59.1156 43.0305 59.0132 44.1575 57.9374 44.4648ZM57.7837 40.2642C57.5788 40.1618 57.169 40.1618 56.9129 40.1618C56.708 40.1618 56.4518 40.1618 56.2469 40.213V43.9013C56.503 43.9013 56.8104 43.9525 57.1178 43.9525C58.296 43.9525 58.3472 43.1329 58.3472 42.1596C58.3472 41.5449 58.3984 40.5716 57.7837 40.2642Z" fill="#EE713A"/>
<path d="M61.7282 44.5673H61.4208C61.2159 44.5673 61.1647 44.5673 61.1647 44.3624V39.752C61.1647 39.5983 61.2159 39.547 61.3696 39.547H61.7282C61.8819 39.547 61.9331 39.5983 61.9331 39.752V44.3624C61.9331 44.4648 61.8819 44.5673 61.7282 44.5673Z" fill="#EE713A"/>
<path d="M67.5168 44.5673C67.3631 44.5673 67.3119 44.5673 67.2094 44.4648C67.107 44.3624 67.0557 44.2087 66.9533 44.1062C66.7484 43.7989 66.5435 43.4915 66.3386 43.1842C65.8263 42.4157 65.3653 41.6473 64.853 40.8789V44.3624C64.853 44.516 64.8018 44.5673 64.6481 44.5673H64.3407C64.1358 44.5673 64.0846 44.5673 64.0846 44.3624V39.752C64.0846 39.547 64.1358 39.547 64.3407 39.547H64.5456C64.6993 39.547 64.7505 39.5471 64.8018 39.6495C64.9042 39.752 64.9554 39.9056 65.0579 40.0081C65.2628 40.3155 65.4677 40.5716 65.6214 40.8789C66.1337 41.6473 66.6459 42.467 67.1582 43.2354V39.7007C67.1582 39.4958 67.2094 39.4958 67.3631 39.4958H67.6705C67.8241 39.4958 67.8754 39.5471 67.8754 39.7007V44.3111C67.9266 44.6185 67.7217 44.5673 67.5168 44.5673Z" fill="#EE713A"/>
<path d="M75.5594 44.4648C75.3032 44.516 74.9959 44.5673 74.6885 44.5673H73.3566C73.1517 44.5673 73.1005 44.516 73.1005 44.3624V39.752C73.1005 39.547 73.1517 39.547 73.3566 39.547H74.6885C75.0471 39.547 75.4569 39.547 75.8155 39.7007C76.7376 40.0593 76.7376 41.34 76.7376 42.1084C76.7376 43.0305 76.6351 44.1575 75.5594 44.4648ZM75.4057 40.2642C75.2008 40.1618 74.791 40.1618 74.5348 40.1618C74.3299 40.1618 74.0738 40.1618 73.8689 40.213V43.9013C74.125 43.9013 74.4324 43.9525 74.7397 43.9525C75.9179 43.9525 75.9692 43.1329 75.9692 42.1596C75.9692 41.5449 76.0204 40.5716 75.4057 40.2642Z" fill="#EE713A"/>
<path d="M82.3725 44.5673H81.9627C81.809 44.5673 81.7578 44.516 81.7066 44.3624L81.1943 42.928C80.6308 42.928 80.0673 42.928 79.5038 42.928L79.0428 44.3111C78.9916 44.4648 78.9404 44.5673 78.7867 44.5673H78.4281C78.3769 44.5673 78.2744 44.5673 78.2744 44.516C78.2744 44.4648 78.3256 44.3624 78.3256 44.3111L79.8624 39.752C79.9137 39.547 79.9649 39.4958 80.1698 39.4958H80.4772C80.6821 39.4958 80.7333 39.547 80.7845 39.752C80.9382 40.1105 82.4238 44.3624 82.4238 44.4648C82.475 44.516 82.4238 44.5673 82.3725 44.5673ZM80.3747 40.3667L79.76 42.3133C80.1698 42.3133 80.6308 42.3133 81.0406 42.3133L80.3747 40.3667Z" fill="#EE713A"/>
<path d="M87.2903 44.516C86.983 44.6185 86.4707 44.6697 86.1633 44.6697C85.856 44.6697 85.5486 44.6697 85.2925 44.5673C84.1655 44.2599 84.1143 43.0305 84.1143 42.1084C84.1143 41.2888 84.1655 40.0081 85.0363 39.6495C85.3949 39.4958 85.8047 39.4958 86.1633 39.4958C86.5219 39.4958 86.8805 39.4958 87.2391 39.547C87.3416 39.547 87.4952 39.5471 87.4952 39.7007V39.9569C87.4952 40.0593 87.4952 40.213 87.3416 40.213C87.1879 40.213 87.0342 40.1618 86.8805 40.1618C86.6756 40.1618 86.4707 40.1618 86.317 40.1618C86.0609 40.1618 85.6511 40.1618 85.4462 40.2642C84.8827 40.5204 84.8827 41.5961 84.8827 42.1596C84.8827 42.8256 84.8827 43.8501 85.7023 44.0038C85.9072 44.055 86.1121 44.055 86.317 44.055C86.4707 44.055 86.6244 44.0038 86.7781 44.0038V42.2621H85.9072C85.6511 42.2621 85.7023 42.0572 85.7023 41.9035C85.7023 41.7498 85.7023 41.6473 85.9072 41.6473H87.3416C87.4952 41.6473 87.5465 41.6986 87.5465 41.8523V44.2599C87.4952 44.4136 87.444 44.4648 87.2903 44.516Z" fill="#EE713A"/>
<path d="M92.1569 44.1062C91.9007 44.6185 91.2348 44.6185 90.7225 44.6185C90.3639 44.6185 90.0053 44.6185 89.6468 44.5673C89.5443 44.5673 89.3906 44.5673 89.3906 44.4136V44.1575C89.3906 44.0038 89.3906 43.9013 89.5443 43.9013C89.7492 43.9013 89.9541 43.9526 90.1078 43.9526C90.3639 43.9526 90.6201 43.9526 90.825 43.9526C91.3372 43.9526 91.5421 43.9013 91.5421 43.2866C91.5421 42.8768 91.5934 42.6207 91.1836 42.467C90.8762 42.3133 90.5688 42.2108 90.2615 42.0572C89.4931 41.6986 89.3906 41.5449 89.3906 40.7253C89.3906 40.3667 89.3906 39.9569 89.698 39.7007C90.0053 39.3934 90.5688 39.4446 91.0299 39.4446C91.3372 39.4446 91.6446 39.4446 91.952 39.4958C92.0544 39.4958 92.2081 39.4958 92.2081 39.6495V39.9056C92.2081 40.0593 92.2081 40.1618 92.0544 40.1618C91.952 40.1618 91.7983 40.1618 91.6958 40.1618C91.5421 40.1618 91.3885 40.1618 91.2348 40.1618C91.0299 40.1618 90.8762 40.1618 90.7225 40.1618C90.159 40.1618 90.159 40.4179 90.159 40.8789C90.159 41.2375 90.159 41.34 90.5176 41.4424C90.7225 41.5449 90.9274 41.6473 91.1323 41.6986C91.3372 41.801 91.5934 41.9035 91.7983 42.0059C92.2593 42.2621 92.3105 42.5694 92.3105 43.0817C92.2593 43.3378 92.2593 43.8501 92.1569 44.1062Z" fill="#EE713A"/>
<path d="M97.7405 44.055C97.3307 44.5673 96.8697 44.721 96.2037 44.721C95.589 44.721 95.0767 44.5673 94.6669 44.055C94.2571 43.4915 94.1547 42.7231 94.1547 42.0572C94.1547 41.34 94.2059 40.6228 94.6669 40.0593C95.0767 39.547 95.5378 39.3934 96.2037 39.3934C96.8185 39.3934 97.3307 39.547 97.7405 40.0593C98.1503 40.6228 98.2528 41.3912 98.2528 42.0572C98.2016 42.7231 98.1503 43.4403 97.7405 44.055ZM97.2795 40.6228C97.0746 40.1618 96.6648 40.0593 96.255 40.0593C95.8451 40.0593 95.3841 40.213 95.2304 40.6228C95.0767 40.9814 95.0255 41.6473 95.0255 42.0572C95.0255 42.467 95.0255 43.1329 95.2304 43.4915C95.4353 43.9525 95.8451 44.1062 96.255 44.1062C96.716 44.1062 97.1258 43.9525 97.2795 43.4915C97.4332 43.1329 97.4844 42.467 97.4844 42.0572C97.4332 41.6473 97.4332 40.9814 97.2795 40.6228Z" fill="#EE713A"/>
<path d="M103.58 44.5673H103.119C102.966 44.5673 102.863 44.5673 102.761 44.4136L101.429 42.6719H101.019V44.3624C101.019 44.516 100.968 44.5673 100.814 44.5673H100.507C100.302 44.5673 100.251 44.516 100.251 44.3624V39.752C100.251 39.547 100.302 39.547 100.507 39.547H101.89C102.351 39.547 102.761 39.4958 103.068 39.8544C103.375 40.213 103.427 40.8277 103.427 41.2375C103.427 42.0059 103.171 42.5694 102.3 42.6207L103.58 44.3111C103.632 44.3624 103.632 44.4136 103.632 44.4648C103.734 44.516 103.683 44.5673 103.58 44.5673ZM102.453 40.213C102.3 40.1618 102.044 40.1618 101.89 40.1618C101.634 40.1618 101.326 40.1618 101.019 40.1618V41.9547H101.992C102.607 41.9547 102.71 41.6986 102.71 41.1351C102.761 40.9302 102.761 40.3667 102.453 40.213Z" fill="#EE713A"/>
<path d="M108.037 44.4648C107.781 44.516 107.474 44.5673 107.166 44.5673H105.834C105.629 44.5673 105.578 44.516 105.578 44.3624V39.752C105.578 39.547 105.629 39.547 105.834 39.547H107.166C107.525 39.547 107.935 39.547 108.293 39.7007C109.215 40.0593 109.215 41.34 109.215 42.1084C109.215 43.0305 109.113 44.1575 108.037 44.4648ZM107.883 40.2642C107.679 40.1618 107.269 40.1618 107.013 40.1618C106.808 40.1618 106.552 40.1618 106.347 40.213V43.9013C106.603 43.9013 106.91 43.9525 107.218 43.9525C108.396 43.9525 108.447 43.1329 108.447 42.1596C108.396 41.5449 108.447 40.5716 107.883 40.2642Z" fill="#EE713A"/>
<path d="M113.774 44.5673H111.469C111.264 44.5673 111.213 44.516 111.213 44.3624V39.752C111.213 39.547 111.264 39.547 111.469 39.547H113.774C114.031 39.547 113.979 39.752 113.979 39.9569C113.979 40.1105 113.979 40.213 113.774 40.213C113.16 40.213 112.545 40.213 111.982 40.1618V41.6986C112.545 41.6986 113.109 41.6473 113.621 41.6473C113.826 41.6473 113.826 41.8523 113.826 42.0059C113.826 42.1596 113.826 42.2621 113.621 42.2621C113.057 42.2621 112.545 42.2621 111.982 42.2108V43.9525C112.596 43.9525 113.211 43.9013 113.826 43.9013C113.979 43.9013 114.031 44.0038 114.031 44.1575V44.3624C113.979 44.516 113.928 44.5673 113.774 44.5673Z" fill="#EE713A"/>
<path d="M119.358 44.5673C119.205 44.5673 119.153 44.5673 119.051 44.4648C118.948 44.3624 118.897 44.2087 118.795 44.1062C118.59 43.7989 118.385 43.4915 118.18 43.1842C117.668 42.4157 117.207 41.6473 116.694 40.8789V44.3624C116.694 44.516 116.643 44.5673 116.49 44.5673H116.182C115.977 44.5673 115.926 44.5673 115.926 44.3624V39.752C115.926 39.547 115.977 39.547 116.182 39.547H116.387C116.541 39.547 116.592 39.5471 116.643 39.6495C116.746 39.752 116.797 39.9056 116.899 40.0081C117.104 40.3155 117.309 40.5716 117.463 40.8789C117.975 41.6473 118.487 42.467 119 43.2354V39.7007C119 39.4958 119.051 39.4958 119.205 39.4958H119.512C119.666 39.4958 119.717 39.5471 119.717 39.7007V44.3111C119.768 44.6185 119.563 44.5673 119.358 44.5673Z" fill="#EE713A"/>
<path d="M127.042 42.8256H124.993C124.84 42.8256 124.788 42.7743 124.788 42.6207V42.4158C124.788 42.3133 124.891 42.2621 124.993 42.2621H127.094C127.247 42.2621 127.298 42.2621 127.298 42.4158V42.6207C127.247 42.7743 127.247 42.8256 127.042 42.8256Z" fill="#EE713A"/>
<path d="M135.751 44.055C135.341 44.5673 134.88 44.721 134.214 44.721C133.599 44.721 133.087 44.5673 132.677 44.055C132.267 43.4915 132.165 42.7231 132.165 42.0572C132.165 41.34 132.216 40.6228 132.677 40.0593C133.087 39.547 133.548 39.3934 134.214 39.3934C134.829 39.3934 135.341 39.547 135.751 40.0593C136.161 40.6228 136.263 41.3912 136.263 42.0572C136.263 42.7231 136.161 43.4403 135.751 44.055ZM135.29 40.6228C135.085 40.1618 134.675 40.0593 134.265 40.0593C133.804 40.0593 133.394 40.213 133.241 40.6228C133.087 40.9814 133.036 41.6473 133.036 42.0572C133.036 42.467 133.036 43.1329 133.241 43.4915C133.446 43.9525 133.856 44.1062 134.265 44.1062C134.726 44.1062 135.136 43.9525 135.29 43.4915C135.444 43.1329 135.495 42.467 135.495 42.0572C135.444 41.6473 135.444 40.9814 135.29 40.6228Z" fill="#EE713A"/>
<path d="M141.642 44.5673C141.488 44.5673 141.437 44.5673 141.335 44.4648C141.232 44.3624 141.181 44.2087 141.078 44.1062C140.874 43.7989 140.669 43.4915 140.464 43.1842C139.951 42.4157 139.49 41.6473 138.978 40.8789V44.3624C138.978 44.516 138.927 44.5673 138.773 44.5673H138.466C138.261 44.5673 138.21 44.5673 138.21 44.3624V39.752C138.21 39.547 138.261 39.547 138.466 39.547H138.671C138.824 39.547 138.876 39.5471 138.927 39.6495C139.029 39.752 139.081 39.9056 139.183 40.0081C139.388 40.3155 139.593 40.5716 139.747 40.8789C140.259 41.6473 140.771 42.467 141.283 43.2354V39.7007C141.283 39.4958 141.335 39.4958 141.488 39.4958H141.796C141.949 39.4958 142.001 39.5471 142.001 39.7007V44.3111C142.103 44.6185 141.898 44.5673 141.642 44.5673Z" fill="#EE713A"/>
<path d="M146.56 44.5673H144.459C144.254 44.5673 144.203 44.516 144.203 44.3624V39.752C144.203 39.547 144.254 39.547 144.459 39.547H144.767C144.92 39.547 144.972 39.5983 144.972 39.752V43.9525C145.484 43.9525 146.047 43.9525 146.56 43.9525C146.765 43.9525 146.713 44.055 146.713 44.2087V44.4136C146.765 44.516 146.713 44.5673 146.56 44.5673Z" fill="#EE713A"/>
<path d="M149.07 44.5673H148.762C148.558 44.5673 148.506 44.5673 148.506 44.3624V39.752C148.506 39.5983 148.558 39.547 148.711 39.547H149.07C149.224 39.547 149.275 39.5983 149.275 39.752V44.3624C149.275 44.4648 149.224 44.5673 149.07 44.5673Z" fill="#EE713A"/>
<path d="M154.807 44.5673C154.654 44.5673 154.602 44.5673 154.5 44.4648C154.397 44.3624 154.346 44.2087 154.244 44.1062C154.039 43.7989 153.834 43.4915 153.629 43.1842C153.117 42.4157 152.656 41.6473 152.143 40.8789V44.3624C152.143 44.516 152.092 44.5673 151.938 44.5673H151.631C151.426 44.5673 151.375 44.5673 151.375 44.3624V39.752C151.375 39.547 151.426 39.547 151.631 39.547H151.836C151.99 39.547 152.041 39.5471 152.092 39.6495C152.195 39.752 152.246 39.9056 152.348 40.0081C152.553 40.3155 152.758 40.5716 152.912 40.8789C153.424 41.6473 153.936 42.467 154.449 43.2354V39.7007C154.449 39.4958 154.5 39.4958 154.653 39.4958H154.961C155.115 39.4958 155.166 39.5471 155.166 39.7007V44.3111C155.268 44.6185 155.063 44.5673 154.807 44.5673Z" fill="#EE713A"/>
<path d="M159.93 44.5673H157.625C157.42 44.5673 157.369 44.516 157.369 44.3624V39.752C157.369 39.547 157.42 39.547 157.625 39.547H159.93C160.186 39.547 160.135 39.752 160.135 39.9569C160.135 40.1105 160.135 40.213 159.93 40.213C159.315 40.213 158.7 40.213 158.137 40.1618V41.6986C158.7 41.6986 159.264 41.6473 159.776 41.6473C159.981 41.6473 159.981 41.8523 159.981 42.0059C159.981 42.1596 159.981 42.2621 159.776 42.2621C159.213 42.2621 158.7 42.2621 158.137 42.2108V43.9525C158.752 43.9525 159.366 43.9013 159.981 43.9013C160.135 43.9013 160.186 44.0038 160.186 44.1575V44.3624C160.135 44.516 160.084 44.5673 159.93 44.5673Z" fill="#EE713A"/>
<path d="M179.55 11.8334C172.224 11.8334 169.099 14.9582 169.099 22.2836C169.099 29.6091 172.224 32.7339 179.55 32.7339C186.875 32.7339 190 29.6091 190 22.2836C190 14.9582 186.875 11.8334 179.55 11.8334ZM179.55 28.6358C174.478 28.6358 173.198 27.4063 173.198 22.2836C173.198 17.2634 174.478 15.9315 179.55 15.9315C184.57 15.9315 185.902 17.2122 185.902 22.2836C185.902 27.4063 184.621 28.6358 179.55 28.6358Z" fill="#374146"/>
<path d="M77.3011 29.814C75.6619 28.1747 75.2521 27.2014 75.2521 25.306V6.71071C75.2521 6.60825 75.1496 6.5058 75.0472 6.5058H71.3588C71.2564 6.5058 71.1539 6.60825 71.1539 6.71071V13.114C69.5659 12.2432 67.4656 11.8334 64.8018 11.8334C57.4764 11.8334 54.3516 14.9582 54.3516 22.2836C54.3516 29.6091 57.4764 32.7339 64.8018 32.7339C68.2852 32.7339 70.8466 32.0167 72.5371 30.4799C73.0493 31.2483 73.664 31.9655 74.3812 32.6827C74.4837 32.7851 74.6374 32.7851 74.6886 32.6827L77.3011 30.0701C77.4036 30.0189 77.4036 29.8652 77.3011 29.814ZM64.8018 28.6358C59.7304 28.6358 58.4497 27.4063 58.4497 22.2836C58.4497 17.2634 59.7304 15.9315 64.8018 15.9315C69.8733 15.9315 71.1539 17.2122 71.1539 22.2836C71.1539 27.4063 69.8733 28.6358 64.8018 28.6358Z" fill="#374146"/>
<path d="M158.752 6.71071C158.752 6.60825 158.854 6.5058 158.957 6.5058H162.645C162.747 6.5058 162.85 6.60825 162.85 6.71071V11.8846H167.921C168.024 11.8846 168.126 11.9871 168.126 12.0895V15.7778C168.126 15.8803 168.024 15.9827 167.921 15.9827H162.85V25.306C162.85 27.2526 163.311 28.2259 165.053 30.0189C165.155 30.1213 165.155 30.2238 165.053 30.3262L162.44 32.9388C162.338 33.0413 162.235 33.0413 162.133 32.9388C159.981 30.7873 158.7 28.8407 158.7 25.3572V6.71071H158.752Z" fill="#374146"/>
<path d="M88.9296 11.8334C81.6042 11.8334 78.4794 14.9582 78.4794 22.2836C78.4794 29.6091 81.6042 32.7339 88.9296 32.7339C92.618 32.7339 95.0256 32.0167 96.7161 30.4799C96.8185 30.3775 96.8185 30.275 96.7161 30.1726L94.1548 27.56C94.0523 27.4575 93.9498 27.4575 93.8474 27.56C92.9765 28.3284 91.3885 28.6358 88.9809 28.6358C84.6778 28.6358 83.0898 27.7649 82.7312 24.3327H99.175C99.2774 24.3327 99.3799 24.2303 99.3799 24.1278V22.2836C99.3799 14.9582 96.2551 11.8334 88.9296 11.8334ZM82.68 20.2346C83.0898 16.9048 84.6778 15.9315 88.9296 15.9315C93.1814 15.9315 94.7695 16.8536 95.1793 20.2346H82.68Z" fill="#374146"/>
<path d="M145.996 11.8334C138.671 11.8334 135.546 14.9582 135.546 22.2836C135.546 29.6091 138.671 32.7339 145.996 32.7339C149.684 32.7339 152.092 32.0167 153.783 30.4799C153.885 30.3775 153.885 30.275 153.783 30.1726L151.221 27.56C151.119 27.4575 151.016 27.4575 150.914 27.56C150.043 28.3284 148.455 28.6358 146.047 28.6358C141.744 28.6358 140.156 27.7649 139.798 24.3327H156.242C156.344 24.3327 156.446 24.2303 156.446 24.1278V22.2836C156.446 14.9582 153.322 11.8334 145.996 11.8334ZM139.798 20.2346C140.208 16.9048 141.796 15.9315 146.047 15.9315C150.299 15.9315 151.887 16.8536 152.297 20.2346H139.798Z" fill="#374146"/>
<path d="M112.135 15.9315C114.543 15.9315 116.131 16.2901 117.002 17.0073C117.104 17.1097 117.207 17.1097 117.309 17.0073L119.871 14.3947C119.973 14.2923 119.973 14.1898 119.871 14.0874C118.18 12.4993 115.772 11.8334 112.084 11.8334C104.759 11.8334 101.634 14.9582 101.634 22.2836C101.634 29.6091 104.759 32.7339 112.084 32.7339C115.772 32.7339 118.18 32.0167 119.871 30.4799C119.973 30.3775 119.973 30.275 119.871 30.1726L117.309 27.56C117.207 27.4575 117.104 27.4575 117.002 27.56C116.131 28.3284 114.543 28.6358 112.135 28.6358C107.064 28.6358 105.783 27.4063 105.783 22.2836C105.834 17.2634 107.115 15.9315 112.135 15.9315Z" fill="#374146"/>
<path d="M134.419 11.8334C130.782 11.8334 128.221 12.6018 126.53 14.241C126.018 13.5239 125.403 12.8067 124.686 12.0895C124.583 11.9871 124.481 11.9871 124.378 12.0895L121.766 14.7021C121.663 14.8045 121.663 14.907 121.766 15.0094C123.508 16.7511 123.969 17.7245 123.969 19.7223V32.4265C123.969 32.529 124.071 32.6314 124.174 32.6314H127.862C127.964 32.6314 128.067 32.529 128.067 32.4265V26.9965V22.2836C128.067 17.2634 129.347 15.9315 134.419 15.9315C134.521 15.9315 134.624 15.8291 134.624 15.7266V12.0383C134.675 11.9358 134.573 11.8334 134.419 11.8334Z" fill="#374146"/>
<path d="M30.8897 24.3327C30.8897 24.4864 30.7873 24.5888 30.6336 24.5888H13.6775C13.5238 24.5888 13.4214 24.4864 13.4214 24.3327V20.1833C13.4214 20.0297 13.5238 19.9272 13.6775 19.9272H30.6336C30.7873 19.9272 30.8897 20.0297 30.8897 20.1833V24.3327Z" fill="#EE713A"/>
<path d="M30.8897 16.4438C30.8897 16.5975 30.7872 16.6999 30.6335 16.6999H13.9336C13.7799 16.6999 13.6775 16.5975 13.6775 16.4438V12.2944C13.6775 12.1407 13.7799 12.0383 13.9336 12.0383H30.6335C30.7872 12.0383 30.8897 12.1407 30.8897 12.2944V16.4438Z" fill="#EE713A"/>
<path d="M24.3839 32.2729C24.3839 32.4265 24.2815 32.529 24.1278 32.529H13.6775C13.5238 32.529 13.4214 32.4265 13.4214 32.2729V28.1235C13.4214 27.9698 13.5238 27.8674 13.6775 27.8674H24.1278C24.2815 27.8674 24.3839 27.9698 24.3839 28.1235V32.2729Z" fill="#EE713A"/>
<path d="M22.2836 0C9.98922 0 0 9.98922 0 22.2836C0 34.5781 9.98922 44.5673 22.2836 44.5673H28.8919C29.5066 44.5673 30.1213 44.3111 30.5311 43.9013L43.8501 30.5824C44.3111 30.1213 44.516 29.5578 44.516 28.9431V22.2836C44.5673 9.98922 34.5781 0 22.2836 0ZM22.2836 39.8544C12.6018 39.8544 4.71286 31.9655 4.71286 22.2836C4.71286 12.6018 12.6018 4.71286 22.2836 4.71286C31.9655 4.71286 39.8544 12.6018 39.8544 22.2836V27.9186L39.752 28.021H28.7894C28.3796 28.021 28.021 28.3796 28.021 28.7894V39.8032L27.9186 39.9056H22.2836V39.8544Z" fill="#ABD8D0"/>
</g>
<defs>
<clipPath id="clip0">
<rect width="190" height="44.721" fill="white"/>
</clipPath>
</defs>
</svg>
