<svg width="502" height="509" viewBox="0 0 502 509" fill="none" xmlns="http://www.w3.org/2000/svg">
<g clip-path="url(#clip0)">
<path d="M342.561 6.44302H322.193C319.186 6.99273 316.178 8.77929 315.905 10.8407C315.768 12.215 315.495 13.3144 315.085 14.6887C314.948 15.5133 313.991 18.9489 311.121 21.9724C307.02 26.0952 301.826 26.37 300.595 26.37H256.99H205.319C204.089 26.37 198.894 26.0952 194.794 21.9724C191.786 18.9489 190.966 15.5133 190.829 14.6887C190.556 13.3144 190.283 12.215 190.009 10.8407C189.736 8.77929 186.729 6.99273 183.721 6.44302H161.577C144.9 6.44302 131.367 20.0484 131.367 36.8145V472.323C131.367 488.952 144.9 502.557 161.577 502.557H342.561C359.237 502.557 372.77 488.952 372.77 472.185V36.8145C372.633 20.0484 359.101 6.44302 342.561 6.44302Z" fill="white"/>
<path d="M129 94H401V518C401 533.464 388.464 546 373 546H157C141.536 546 129 533.464 129 518V94Z" fill="white"/>
<path d="M342.938 0H328.388H257.01H185.769H161.199C140.609 0 124 16.6008 124 37.1803V471.957C124 492.399 140.609 509 161.199 509H342.938C363.391 509 380.137 492.399 380.137 471.82V37.1803C380 16.6008 363.391 0 342.938 0ZM373.137 471.957C373.137 488.695 359.547 502.277 342.801 502.277H161.199C144.453 502.14 130.863 488.558 130.863 471.957V37.1803C130.863 20.4423 144.453 6.85984 161.199 6.85984H183.436C186.456 7.40863 189.476 9.19218 189.75 11.2501C189.887 12.6221 190.162 13.7197 190.574 15.0916C190.711 15.9148 191.672 19.3447 194.554 22.3631C198.672 26.479 203.888 26.7534 205.124 26.7534H252.892H300.661C301.896 26.7534 307.112 26.479 311.23 22.3631C314.25 19.3447 315.073 15.9148 315.211 15.0916C315.485 13.7197 315.76 12.6221 316.034 11.2501C316.309 9.19218 319.329 7.40863 322.349 6.85984H342.801C359.547 6.85984 373.137 20.4423 373.137 37.1803V471.957Z" fill="#727272"/>
<g clip-path="url(#clip1)">
<path d="M170.092 67.0811C169.978 67.1033 169.841 67.1254 169.704 67.1254H169.11C169.019 67.1254 168.996 67.1033 168.996 67.0369V65.0442C168.996 64.9556 169.019 64.9556 169.11 64.9556H169.704C169.864 64.9556 170.047 64.9556 170.207 65.022C170.618 65.177 170.618 65.7305 170.618 66.0626C170.618 66.4612 170.572 66.9483 170.092 67.0811ZM170.024 65.2656C169.933 65.2213 169.75 65.2213 169.636 65.2213C169.544 65.2213 169.43 65.2213 169.339 65.2434V66.8376C169.453 66.8376 169.59 66.8597 169.727 66.8597C170.252 66.8597 170.275 66.5055 170.275 66.0848C170.275 65.8191 170.298 65.3984 170.024 65.2656Z" fill="#EE713A"/>
<path d="M171.783 67.1254H171.645C171.554 67.1254 171.531 67.1254 171.531 67.0369V65.0442C171.531 64.9778 171.554 64.9556 171.623 64.9556H171.783C171.851 64.9556 171.874 64.9778 171.874 65.0442V67.0369C171.874 67.0812 171.851 67.1254 171.783 67.1254Z" fill="#EE713A"/>
<path d="M174.364 67.1254C174.296 67.1254 174.273 67.1254 174.227 67.0811C174.182 67.0368 174.159 66.9704 174.113 66.9261C174.022 66.7933 173.93 66.6604 173.839 66.5276C173.611 66.1955 173.405 65.8634 173.177 65.5312V67.0368C173.177 67.1033 173.154 67.1254 173.085 67.1254H172.948C172.857 67.1254 172.834 67.1254 172.834 67.0368V65.0441C172.834 64.9556 172.857 64.9556 172.948 64.9556H173.04C173.108 64.9556 173.131 64.9556 173.154 64.9999C173.199 65.0441 173.222 65.1106 173.268 65.1549C173.359 65.2877 173.451 65.3984 173.519 65.5312C173.748 65.8634 173.976 66.2176 174.204 66.5497V65.022C174.204 64.9334 174.227 64.9334 174.296 64.9334H174.433C174.501 64.9334 174.524 64.9556 174.524 65.022V67.0147C174.547 67.1475 174.456 67.1254 174.364 67.1254Z" fill="#EE713A"/>
<path d="M177.95 67.0812C177.836 67.1033 177.699 67.1254 177.562 67.1254H176.968C176.876 67.1254 176.854 67.1033 176.854 67.0369V65.0442C176.854 64.9556 176.876 64.9556 176.968 64.9556H177.562C177.721 64.9556 177.904 64.9556 178.064 65.0221C178.475 65.177 178.475 65.7306 178.475 66.0627C178.475 66.4612 178.43 66.9483 177.95 67.0812ZM177.881 65.2656C177.79 65.2213 177.607 65.2213 177.493 65.2213C177.402 65.2213 177.288 65.2213 177.196 65.2435V66.8376C177.31 66.8376 177.447 66.8598 177.584 66.8598C178.11 66.8598 178.133 66.5055 178.133 66.0848C178.133 65.8191 178.155 65.3984 177.881 65.2656Z" fill="#EE713A"/>
<path d="M180.987 67.1254H180.805C180.736 67.1254 180.713 67.1033 180.691 67.0368L180.462 66.4169C180.211 66.4169 179.96 66.4169 179.708 66.4169L179.503 67.0147C179.48 67.0811 179.457 67.1254 179.389 67.1254H179.229C179.206 67.1254 179.16 67.1254 179.16 67.1033C179.16 67.0811 179.183 67.0368 179.183 67.0147L179.868 65.0441C179.891 64.9556 179.914 64.9334 180.005 64.9334H180.142C180.234 64.9334 180.257 64.9556 180.279 65.0441C180.348 65.1991 181.01 67.0368 181.01 67.0811C181.033 67.1033 181.01 67.1254 180.987 67.1254ZM180.097 65.3098L179.823 66.1512C180.005 66.1512 180.211 66.1512 180.394 66.1512L180.097 65.3098Z" fill="#EE713A"/>
<path d="M183.181 67.1033C183.044 67.1475 182.815 67.1697 182.678 67.1697C182.541 67.1697 182.404 67.1697 182.29 67.1254C181.787 66.9926 181.765 66.4612 181.765 66.0626C181.765 65.7084 181.787 65.1549 182.176 64.9999C182.336 64.9334 182.518 64.9334 182.678 64.9334C182.838 64.9334 182.998 64.9334 183.158 64.9556C183.204 64.9556 183.272 64.9556 183.272 65.022V65.1327C183.272 65.177 183.272 65.2434 183.204 65.2434C183.135 65.2434 183.067 65.2213 182.998 65.2213C182.907 65.2213 182.815 65.2213 182.747 65.2213C182.633 65.2213 182.45 65.2213 182.359 65.2656C182.107 65.3763 182.107 65.8412 182.107 66.0848C182.107 66.3726 182.107 66.8154 182.473 66.8819C182.564 66.904 182.655 66.904 182.747 66.904C182.815 66.904 182.884 66.8819 182.952 66.8819V66.1291H182.564C182.45 66.1291 182.473 66.0405 182.473 65.9741C182.473 65.9076 182.473 65.8634 182.564 65.8634H183.204C183.272 65.8634 183.295 65.8855 183.295 65.9519V66.9926C183.272 67.059 183.249 67.0811 183.181 67.1033Z" fill="#EE713A"/>
<path d="M185.351 66.9261C185.236 67.1475 184.939 67.1475 184.711 67.1475C184.551 67.1475 184.391 67.1475 184.231 67.1254C184.186 67.1254 184.117 67.1254 184.117 67.0589V66.9482C184.117 66.8818 184.117 66.8375 184.186 66.8375C184.277 66.8375 184.368 66.8597 184.437 66.8597C184.551 66.8597 184.665 66.8597 184.757 66.8597C184.985 66.8597 185.077 66.8375 185.077 66.5718C185.077 66.3947 185.099 66.284 184.917 66.2176C184.78 66.1512 184.643 66.1069 184.505 66.0405C184.163 65.8855 184.117 65.819 184.117 65.4648C184.117 65.3098 184.117 65.1327 184.254 65.022C184.391 64.8891 184.643 64.9113 184.848 64.9113C184.985 64.9113 185.122 64.9113 185.259 64.9334C185.305 64.9334 185.373 64.9334 185.373 64.9998V65.1105C185.373 65.177 185.373 65.2212 185.305 65.2212C185.259 65.2212 185.191 65.2212 185.145 65.2212C185.077 65.2212 185.008 65.2212 184.939 65.2212C184.848 65.2212 184.78 65.2212 184.711 65.2212C184.46 65.2212 184.46 65.3319 184.46 65.5312C184.46 65.6862 184.46 65.7305 184.62 65.7748C184.711 65.819 184.802 65.8633 184.894 65.8855C184.985 65.9298 185.099 65.974 185.191 66.0183C185.396 66.129 185.419 66.2619 185.419 66.4833C185.396 66.594 185.396 66.8154 185.351 66.9261Z" fill="#EE713A"/>
<path d="M187.84 66.9039C187.657 67.1253 187.452 67.1917 187.155 67.1917C186.881 67.1917 186.652 67.1253 186.47 66.9039C186.287 66.6604 186.241 66.3282 186.241 66.0404C186.241 65.7304 186.264 65.4205 186.47 65.1769C186.652 64.9555 186.858 64.8891 187.155 64.8891C187.429 64.8891 187.657 64.9555 187.84 65.1769C188.023 65.4205 188.069 65.7526 188.069 66.0404C188.046 66.3282 188.023 66.6382 187.84 66.9039ZM187.635 65.4205C187.543 65.2212 187.36 65.1769 187.178 65.1769C186.995 65.1769 186.789 65.2433 186.721 65.4205C186.652 65.5754 186.63 65.8633 186.63 66.0404C186.63 66.2175 186.63 66.5054 186.721 66.6604C186.812 66.8596 186.995 66.926 187.178 66.926C187.383 66.926 187.566 66.8596 187.635 66.6604C187.703 66.5054 187.726 66.2175 187.726 66.0404C187.703 65.8633 187.703 65.5754 187.635 65.4205Z" fill="#EE713A"/>
<path d="M190.445 67.1254H190.239C190.171 67.1254 190.125 67.1254 190.079 67.059L189.485 66.3062H189.303V67.0369C189.303 67.1033 189.28 67.1254 189.211 67.1254H189.074C188.983 67.1254 188.96 67.1033 188.96 67.0369V65.0442C188.96 64.9556 188.983 64.9556 189.074 64.9556H189.691C189.896 64.9556 190.079 64.9335 190.216 65.0885C190.353 65.2435 190.376 65.5091 190.376 65.6863C190.376 66.0184 190.262 66.2619 189.874 66.2841L190.445 67.0147C190.468 67.0369 190.468 67.059 190.468 67.0812C190.513 67.1033 190.49 67.1254 190.445 67.1254ZM189.942 65.2435C189.874 65.2213 189.759 65.2213 189.691 65.2213C189.577 65.2213 189.44 65.2213 189.303 65.2213V65.9963H189.737C190.011 65.9963 190.056 65.8855 190.056 65.642C190.079 65.5534 190.079 65.3099 189.942 65.2435Z" fill="#EE713A"/>
<path d="M192.431 67.0812C192.317 67.1033 192.18 67.1254 192.043 67.1254H191.449C191.358 67.1254 191.335 67.1033 191.335 67.0369V65.0442C191.335 64.9556 191.358 64.9556 191.449 64.9556H192.043C192.203 64.9556 192.386 64.9556 192.546 65.0221C192.957 65.177 192.957 65.7306 192.957 66.0627C192.957 66.4612 192.911 66.9483 192.431 67.0812ZM192.363 65.2656C192.271 65.2213 192.089 65.2213 191.975 65.2213C191.883 65.2213 191.769 65.2213 191.678 65.2435V66.8376C191.792 66.8376 191.929 66.8598 192.066 66.8598C192.591 66.8598 192.614 66.5055 192.614 66.0848C192.591 65.8191 192.614 65.3984 192.363 65.2656Z" fill="#EE713A"/>
<path d="M194.99 67.1254H193.962C193.87 67.1254 193.848 67.1033 193.848 67.0369V65.0442C193.848 64.9556 193.87 64.9556 193.962 64.9556H194.99C195.104 64.9556 195.081 65.0442 195.081 65.1328C195.081 65.1992 195.081 65.2435 194.99 65.2435C194.716 65.2435 194.442 65.2435 194.19 65.2213V65.8856C194.442 65.8856 194.693 65.8634 194.921 65.8634C195.013 65.8634 195.013 65.952 195.013 66.0184C195.013 66.0848 195.013 66.1291 194.921 66.1291C194.67 66.1291 194.442 66.1291 194.19 66.107V66.8598C194.464 66.8598 194.738 66.8376 195.013 66.8376C195.081 66.8376 195.104 66.8819 195.104 66.9483V67.0369C195.081 67.1033 195.058 67.1254 194.99 67.1254Z" fill="#EE713A"/>
<path d="M197.48 67.1254C197.411 67.1254 197.388 67.1254 197.343 67.0811C197.297 67.0368 197.274 66.9704 197.228 66.9261C197.137 66.7933 197.046 66.6604 196.954 66.5276C196.726 66.1955 196.52 65.8634 196.292 65.5312V67.0368C196.292 67.1033 196.269 67.1254 196.2 67.1254H196.063C195.972 67.1254 195.949 67.1254 195.949 67.0368V65.0441C195.949 64.9556 195.972 64.9556 196.063 64.9556H196.155C196.223 64.9556 196.246 64.9556 196.269 64.9999C196.315 65.0441 196.338 65.1106 196.383 65.1549C196.475 65.2877 196.566 65.3984 196.634 65.5312C196.863 65.8634 197.091 66.2176 197.32 66.5497V65.022C197.32 64.9334 197.343 64.9334 197.411 64.9334H197.548C197.617 64.9334 197.639 64.9556 197.639 65.022V67.0147C197.662 67.1475 197.571 67.1254 197.48 67.1254Z" fill="#EE713A"/>
<path d="M200.905 66.373H199.992C199.923 66.373 199.9 66.3508 199.9 66.2843V66.1955C199.9 66.1512 199.946 66.129 199.992 66.129H200.928C200.997 66.129 201.02 66.129 201.02 66.1955V66.2843C200.997 66.3508 200.997 66.373 200.905 66.373Z" fill="#EE713A"/>
<path d="M204.788 66.9039C204.606 67.1253 204.4 67.1917 204.103 67.1917C203.829 67.1917 203.601 67.1253 203.418 66.9039C203.235 66.6604 203.189 66.3282 203.189 66.0404C203.189 65.7304 203.212 65.4205 203.418 65.1769C203.601 64.9555 203.806 64.8891 204.103 64.8891C204.377 64.8891 204.606 64.9555 204.788 65.1769C204.971 65.4205 205.017 65.7526 205.017 66.0404C205.017 66.3282 204.971 66.6382 204.788 66.9039ZM204.583 65.4205C204.491 65.2212 204.309 65.1769 204.126 65.1769C203.92 65.1769 203.738 65.2433 203.669 65.4205C203.601 65.5754 203.578 65.8633 203.578 66.0404C203.578 66.2175 203.578 66.5054 203.669 66.6604C203.76 66.8596 203.943 66.926 204.126 66.926C204.332 66.926 204.514 66.8596 204.583 66.6604C204.651 66.5054 204.674 66.2175 204.674 66.0404C204.651 65.8633 204.651 65.5754 204.583 65.4205Z" fill="#EE713A"/>
<path d="M207.415 67.1254C207.347 67.1254 207.324 67.1254 207.278 67.0811C207.232 67.0368 207.21 66.9704 207.164 66.9261C207.073 66.7933 206.981 66.6604 206.89 66.5276C206.661 66.1955 206.456 65.8634 206.227 65.5312V67.0368C206.227 67.1033 206.205 67.1254 206.136 67.1254H205.999C205.908 67.1254 205.885 67.1254 205.885 67.0368V65.0441C205.885 64.9556 205.908 64.9556 205.999 64.9556H206.09C206.159 64.9556 206.182 64.9556 206.205 64.9999C206.25 65.0441 206.273 65.1106 206.319 65.1549C206.41 65.2877 206.501 65.3984 206.57 65.5312C206.798 65.8634 207.027 66.2176 207.255 66.5497V65.022C207.255 64.9334 207.278 64.9334 207.347 64.9334H207.484C207.552 64.9334 207.575 64.9556 207.575 65.022V67.0147C207.621 67.1475 207.529 67.1254 207.415 67.1254Z" fill="#EE713A"/>
<path d="M209.608 67.1254H208.672C208.58 67.1254 208.558 67.1033 208.558 67.0369V65.0442C208.558 64.9556 208.58 64.9556 208.672 64.9556H208.809C208.877 64.9556 208.9 64.9778 208.9 65.0442V66.8598C209.129 66.8598 209.38 66.8598 209.608 66.8598C209.7 66.8598 209.677 66.904 209.677 66.9705V67.059C209.7 67.1033 209.677 67.1254 209.608 67.1254Z" fill="#EE713A"/>
<path d="M210.728 67.1254H210.591C210.499 67.1254 210.477 67.1254 210.477 67.0369V65.0442C210.477 64.9778 210.499 64.9556 210.568 64.9556H210.728C210.796 64.9556 210.819 64.9778 210.819 65.0442V67.0369C210.819 67.0812 210.796 67.1254 210.728 67.1254Z" fill="#EE713A"/>
<path d="M213.286 67.1254C213.218 67.1254 213.195 67.1254 213.149 67.0811C213.104 67.0368 213.081 66.9704 213.035 66.9261C212.944 66.7933 212.852 66.6604 212.761 66.5276C212.532 66.1955 212.327 65.8634 212.098 65.5312V67.0368C212.098 67.1033 212.076 67.1254 212.007 67.1254H211.87C211.779 67.1254 211.756 67.1254 211.756 67.0368V65.0441C211.756 64.9556 211.779 64.9556 211.87 64.9556H211.961C212.03 64.9556 212.053 64.9556 212.076 64.9999C212.121 65.0441 212.144 65.1106 212.19 65.1549C212.281 65.2877 212.373 65.3984 212.441 65.5312C212.67 65.8634 212.898 66.2176 213.126 66.5497V65.022C213.126 64.9334 213.149 64.9334 213.218 64.9334H213.355C213.423 64.9334 213.446 64.9556 213.446 65.022V67.0147C213.492 67.1475 213.4 67.1254 213.286 67.1254Z" fill="#EE713A"/>
<path d="M215.57 67.1254H214.542C214.451 67.1254 214.428 67.1033 214.428 67.0369V65.0442C214.428 64.9556 214.451 64.9556 214.542 64.9556H215.57C215.684 64.9556 215.661 65.0442 215.661 65.1328C215.661 65.1992 215.661 65.2435 215.57 65.2435C215.296 65.2435 215.022 65.2435 214.77 65.2213V65.8856C215.022 65.8856 215.273 65.8634 215.501 65.8634C215.593 65.8634 215.593 65.952 215.593 66.0184C215.593 66.0848 215.593 66.1291 215.501 66.1291C215.25 66.1291 215.022 66.1291 214.77 66.107V66.8598C215.044 66.8598 215.319 66.8376 215.593 66.8376C215.661 66.8376 215.684 66.8819 215.684 66.9483V67.0369C215.661 67.1033 215.638 67.1254 215.57 67.1254Z" fill="#EE713A"/>
<path d="M224.319 52.9772C221.053 52.9772 219.659 54.3278 219.659 57.4939C219.659 60.6601 221.053 62.0107 224.319 62.0107C227.585 62.0107 228.979 60.6601 228.979 57.4939C228.979 54.3278 227.585 52.9772 224.319 52.9772ZM224.319 60.2394C222.058 60.2394 221.487 59.708 221.487 57.4939C221.487 55.3241 222.058 54.7485 224.319 54.7485C226.557 54.7485 227.151 55.302 227.151 57.4939C227.151 59.708 226.58 60.2394 224.319 60.2394Z" fill="#374146"/>
<path d="M178.727 60.7487C177.996 60.0402 177.814 59.6195 177.814 58.8003V50.7631C177.814 50.7188 177.768 50.6745 177.722 50.6745H176.078C176.032 50.6745 175.986 50.7188 175.986 50.7631V53.5307C175.278 53.1543 174.342 52.9772 173.154 52.9772C169.887 52.9772 168.494 54.3278 168.494 57.494C168.494 60.6601 169.887 62.0107 173.154 62.0107C174.707 62.0107 175.849 61.7008 176.603 61.0365C176.831 61.3686 177.105 61.6786 177.425 61.9886C177.471 62.0329 177.539 62.0329 177.562 61.9886L178.727 60.8594C178.773 60.8373 178.773 60.7708 178.727 60.7487ZM173.154 60.2395C170.893 60.2395 170.321 59.7081 170.321 57.494C170.321 55.3241 170.893 54.7485 173.154 54.7485C175.415 54.7485 175.986 55.302 175.986 57.494C175.986 59.7081 175.415 60.2395 173.154 60.2395Z" fill="#374146"/>
<path d="M215.045 50.7631C215.045 50.7188 215.091 50.6745 215.137 50.6745H216.781C216.827 50.6745 216.873 50.7188 216.873 50.7631V52.9993H219.134C219.18 52.9993 219.225 53.0436 219.225 53.0879V54.6821C219.225 54.7263 219.18 54.7706 219.134 54.7706H216.873V58.8003C216.873 59.6416 217.078 60.0623 217.855 60.8373C217.901 60.8815 217.901 60.9258 217.855 60.9701L216.69 62.0993C216.644 62.1436 216.599 62.1436 216.553 62.0993C215.594 61.1694 215.022 60.328 215.022 58.8224V50.7631H215.045Z" fill="#374146"/>
<path d="M183.913 52.9772C180.646 52.9772 179.253 54.3278 179.253 57.4939C179.253 60.6601 180.646 62.0107 183.913 62.0107C185.557 62.0107 186.631 61.7007 187.385 61.0365C187.43 60.9922 187.43 60.9479 187.385 60.9037L186.242 59.7745C186.197 59.7302 186.151 59.7302 186.105 59.7745C185.717 60.1066 185.009 60.2394 183.935 60.2394C182.017 60.2394 181.309 59.863 181.149 58.3796H188.481C188.527 58.3796 188.572 58.3353 188.572 58.291V57.4939C188.572 54.3278 187.179 52.9772 183.913 52.9772ZM181.126 56.6083C181.309 55.1691 182.017 54.7485 183.913 54.7485C185.808 54.7485 186.517 55.147 186.699 56.6083H181.126Z" fill="#374146"/>
<path d="M209.358 52.9772C206.092 52.9772 204.698 54.3278 204.698 57.4939C204.698 60.6601 206.092 62.0107 209.358 62.0107C211.003 62.0107 212.076 61.7007 212.83 61.0365C212.876 60.9922 212.876 60.9479 212.83 60.9037L211.688 59.7745C211.642 59.7302 211.596 59.7302 211.551 59.7745C211.162 60.1066 210.454 60.2394 209.381 60.2394C207.462 60.2394 206.754 59.863 206.594 58.3796H213.926C213.972 58.3796 214.018 58.3353 214.018 58.291V57.4939C214.018 54.3278 212.624 52.9772 209.358 52.9772ZM206.594 56.6083C206.777 55.1691 207.485 54.7485 209.381 54.7485C211.277 54.7485 211.985 55.147 212.167 56.6083H206.594Z" fill="#374146"/>
<path d="M194.26 54.7485C195.333 54.7485 196.041 54.9034 196.43 55.2134C196.475 55.2577 196.521 55.2577 196.567 55.2134L197.709 54.0842C197.754 54.0399 197.754 53.9957 197.709 53.9514C196.955 53.265 195.881 52.9772 194.237 52.9772C190.97 52.9772 189.577 54.3278 189.577 57.4939C189.577 60.6601 190.97 62.0107 194.237 62.0107C195.881 62.0107 196.955 61.7007 197.709 61.0365C197.754 60.9922 197.754 60.9479 197.709 60.9037L196.567 59.7745C196.521 59.7302 196.475 59.7302 196.43 59.7745C196.041 60.1066 195.333 60.2394 194.26 60.2394C191.998 60.2394 191.427 59.708 191.427 57.4939C191.45 55.3241 192.021 54.7485 194.26 54.7485Z" fill="#374146"/>
<path d="M204.196 52.9772C202.574 52.9772 201.432 53.3093 200.678 54.0178C200.45 53.7078 200.176 53.3979 199.856 53.0879C199.81 53.0436 199.764 53.0436 199.719 53.0879L198.554 54.2171C198.508 54.2614 198.508 54.3056 198.554 54.3499C199.33 55.1027 199.536 55.5234 199.536 56.3869V61.8779C199.536 61.9221 199.582 61.9664 199.627 61.9664H201.272C201.318 61.9664 201.363 61.9221 201.363 61.8779V59.5309V57.4939C201.363 55.3241 201.934 54.7485 204.196 54.7485C204.241 54.7485 204.287 54.7042 204.287 54.6599V53.0657C204.31 53.0215 204.264 52.9772 204.196 52.9772Z" fill="#374146"/>
<path d="M158.032 58.3796C158.032 58.446 157.986 58.4903 157.918 58.4903H150.357C150.289 58.4903 150.243 58.446 150.243 58.3796V56.5861C150.243 56.5197 150.289 56.4754 150.357 56.4754H157.918C157.986 56.4754 158.032 56.5197 158.032 56.5861V58.3796Z" fill="#EE713A"/>
<path d="M158.031 54.9698C158.031 55.0363 157.986 55.0805 157.917 55.0805H150.471C150.402 55.0805 150.356 55.0363 150.356 54.9698V53.1764C150.356 53.11 150.402 53.0657 150.471 53.0657H157.917C157.986 53.0657 158.031 53.11 158.031 53.1764V54.9698Z" fill="#EE713A"/>
<path d="M155.131 61.8114C155.131 61.8778 155.086 61.9221 155.017 61.9221H150.357C150.289 61.9221 150.243 61.8778 150.243 61.8114V60.018C150.243 59.9515 150.289 59.9073 150.357 59.9073H155.017C155.086 59.9073 155.131 59.9515 155.131 60.018V61.8114Z" fill="#EE713A"/>
<path d="M154.195 47.8626C148.713 47.8626 144.259 52.1801 144.259 57.4939C144.259 62.8078 148.713 67.1253 154.195 67.1253H157.141C157.416 67.1253 157.69 67.0146 157.872 66.8374L163.811 61.0808C164.017 60.8815 164.108 60.638 164.108 60.3723V57.4939C164.131 52.1801 159.677 47.8626 154.195 47.8626ZM154.195 65.0883C149.878 65.0883 146.36 61.6786 146.36 57.4939C146.36 53.3093 149.878 49.8996 154.195 49.8996C158.512 49.8996 162.03 53.3093 162.03 57.4939V59.9294L161.984 59.9737H157.096C156.913 59.9737 156.753 60.1287 156.753 60.3058V65.0662L156.707 65.1104H154.195V65.0883Z" fill="#ABD8D0"/>
</g>
<rect x="325.59" y="18.4087" width="1.84174" height="2.7613" rx="0.920868" fill="#C4C4C4"/>
<rect x="328.353" y="16.5678" width="1.84171" height="4.60217" rx="0.920853" fill="#C4C4C4"/>
<rect x="331.115" y="14.727" width="1.84171" height="6.44304" rx="0.920853" fill="#C4C4C4"/>
<rect x="338.062" y="15.227" width="12.8129" height="5.44304" rx="2.5" fill="white" stroke="#BDBDBD"/>
<path d="M338.062 17.727C338.062 16.3462 339.181 15.227 340.562 15.227H342.587V20.67H340.562C339.181 20.67 338.062 19.5507 338.062 18.17V17.727Z" fill="#BDBDBD" stroke="#BDBDBD"/>
<path d="M154.28 20.8065C154.182 20.8065 154.109 20.7855 154.063 20.7435C154.021 20.6969 154 20.6245 154 20.5265V16.1865C154 16.0885 154.021 16.0185 154.063 15.9765C154.109 15.9299 154.182 15.9065 154.28 15.9065H155.666C156.235 15.9065 156.653 16.0162 156.919 16.2355C157.185 16.4549 157.318 16.7582 157.318 17.1455C157.318 17.3789 157.245 17.5935 157.101 17.7895C156.961 17.9809 156.781 18.1209 156.562 18.2095L156.569 18.2375C156.844 18.2935 157.07 18.4312 157.248 18.6505C157.425 18.8699 157.514 19.1149 157.514 19.3855C157.514 19.8429 157.367 20.1952 157.073 20.4425C156.783 20.6852 156.347 20.8065 155.764 20.8065H154.28ZM155.561 17.8595C155.766 17.8595 155.925 17.8105 156.037 17.7125C156.153 17.6145 156.212 17.4885 156.212 17.3345C156.212 16.9892 155.999 16.8165 155.575 16.8165H155.078V17.8595H155.561ZM155.764 19.8895C155.969 19.8895 156.128 19.8405 156.24 19.7425C156.352 19.6445 156.408 19.5045 156.408 19.3225C156.408 19.1405 156.342 19.0052 156.212 18.9165C156.081 18.8232 155.894 18.7765 155.652 18.7765H155.078V19.8895H155.764ZM159.738 20.8625C159.122 20.8625 158.663 20.6992 158.359 20.3725C158.061 20.0412 157.911 19.5839 157.911 19.0005C157.911 18.3425 158.061 17.8595 158.359 17.5515C158.663 17.2435 159.08 17.0895 159.612 17.0895C160.13 17.0895 160.511 17.2575 160.753 17.5935C161.001 17.9295 161.124 18.3635 161.124 18.8955C161.124 18.9515 161.075 19.0355 160.977 19.1475C160.884 19.2549 160.814 19.3085 160.767 19.3085H158.982C159.006 19.5745 159.085 19.7635 159.22 19.8755C159.356 19.9875 159.545 20.0435 159.787 20.0435C159.918 20.0435 160.037 20.0295 160.144 20.0015C160.252 19.9689 160.364 19.9292 160.48 19.8825C160.555 19.8452 160.606 19.8265 160.634 19.8265C160.681 19.8265 160.732 19.8615 160.788 19.9315C160.849 19.9969 160.898 20.0739 160.935 20.1625C160.977 20.2465 160.998 20.3119 160.998 20.3585C160.998 20.4659 160.926 20.5592 160.781 20.6385C160.637 20.7132 160.464 20.7692 160.263 20.8065C160.063 20.8439 159.888 20.8625 159.738 20.8625ZM160.116 18.6155C160.116 18.4009 160.074 18.2305 159.99 18.1045C159.906 17.9739 159.78 17.9085 159.612 17.9085C159.267 17.9085 159.057 18.1442 158.982 18.6155H160.116ZM162.854 20.8625C162.172 20.8625 161.832 20.4845 161.832 19.7285V15.7525C161.832 15.6032 161.972 15.5285 162.252 15.5285H162.448C162.728 15.5285 162.868 15.6032 162.868 15.7525V19.7425C162.868 19.8499 162.886 19.9269 162.924 19.9735C162.966 20.0202 163.031 20.0435 163.12 20.0435C163.143 20.0435 163.173 20.0389 163.211 20.0295C163.253 20.0202 163.285 20.0155 163.309 20.0155C163.351 20.0155 163.388 20.0505 163.421 20.1205C163.453 20.1905 163.479 20.2675 163.498 20.3515C163.516 20.4355 163.526 20.4915 163.526 20.5195C163.526 20.7482 163.302 20.8625 162.854 20.8625ZM164.932 20.8625C164.25 20.8625 163.91 20.4845 163.91 19.7285V15.7525C163.91 15.6032 164.05 15.5285 164.33 15.5285H164.526C164.806 15.5285 164.946 15.6032 164.946 15.7525V19.7425C164.946 19.8499 164.964 19.9269 165.002 19.9735C165.044 20.0202 165.109 20.0435 165.198 20.0435C165.221 20.0435 165.251 20.0389 165.289 20.0295C165.331 20.0202 165.363 20.0155 165.387 20.0155C165.429 20.0155 165.466 20.0505 165.499 20.1205C165.531 20.1905 165.557 20.2675 165.576 20.3515C165.594 20.4355 165.604 20.4915 165.604 20.5195C165.604 20.7482 165.38 20.8625 164.932 20.8625ZM167.605 20.8625C167.008 20.8625 166.564 20.7109 166.275 20.4075C165.986 20.0995 165.841 19.6305 165.841 19.0005C165.841 18.3659 165.986 17.8899 166.275 17.5725C166.569 17.2505 167.024 17.0895 167.64 17.0895C167.925 17.0895 168.188 17.1339 168.431 17.2225C168.678 17.3065 168.802 17.4232 168.802 17.5725C168.802 17.6425 168.753 17.7499 168.655 17.8945C168.562 18.0392 168.487 18.1115 168.431 18.1115C168.412 18.1115 168.37 18.0952 168.305 18.0625C168.212 18.0159 168.118 17.9785 168.025 17.9505C167.936 17.9225 167.827 17.9085 167.696 17.9085C167.421 17.9085 167.22 17.9949 167.094 18.1675C166.968 18.3402 166.905 18.6085 166.905 18.9725C166.905 19.3365 166.963 19.6072 167.08 19.7845C167.201 19.9572 167.393 20.0435 167.654 20.0435C167.775 20.0435 167.883 20.0319 167.976 20.0085C168.074 19.9805 168.153 19.9549 168.214 19.9315C168.279 19.9082 168.321 19.8919 168.34 19.8825C168.415 19.8545 168.457 19.8405 168.466 19.8405C168.513 19.8405 168.564 19.8755 168.62 19.9455C168.681 20.0109 168.73 20.0879 168.767 20.1765C168.809 20.2605 168.83 20.3259 168.83 20.3725C168.83 20.4892 168.751 20.5849 168.592 20.6595C168.438 20.7342 168.263 20.7855 168.067 20.8135C167.871 20.8462 167.717 20.8625 167.605 20.8625ZM170.939 20.8625C170.384 20.8625 169.962 20.7015 169.672 20.3795C169.383 20.0529 169.238 19.5839 169.238 18.9725C169.238 18.3612 169.383 17.8945 169.672 17.5725C169.962 17.2505 170.384 17.0895 170.939 17.0895C171.495 17.0895 171.915 17.2505 172.199 17.5725C172.489 17.8945 172.633 18.3612 172.633 18.9725C172.633 19.5839 172.489 20.0529 172.199 20.3795C171.915 20.7015 171.495 20.8625 170.939 20.8625ZM170.939 20.0435C171.159 20.0435 171.32 19.9549 171.422 19.7775C171.53 19.5955 171.583 19.3272 171.583 18.9725C171.583 18.6179 171.53 18.3519 171.422 18.1745C171.32 17.9972 171.159 17.9085 170.939 17.9085C170.72 17.9085 170.557 17.9972 170.449 18.1745C170.342 18.3519 170.288 18.6179 170.288 18.9725C170.288 19.6865 170.505 20.0435 170.939 20.0435ZM177.382 17.0895C177.732 17.0895 177.988 17.1829 178.152 17.3695C178.32 17.5515 178.404 17.8362 178.404 18.2235V20.5965C178.404 20.7459 178.264 20.8205 177.984 20.8205H177.788C177.508 20.8205 177.368 20.7459 177.368 20.5965V18.3775C177.368 18.2329 177.335 18.1255 177.27 18.0555C177.209 17.9809 177.104 17.9435 176.955 17.9435C176.74 17.9435 176.556 18.0765 176.402 18.3425V20.5965C176.402 20.7459 176.262 20.8205 175.982 20.8205H175.786C175.506 20.8205 175.366 20.7459 175.366 20.5965V18.3775C175.366 18.2329 175.333 18.1255 175.268 18.0555C175.207 17.9809 175.102 17.9435 174.953 17.9435C174.827 17.9435 174.717 17.9855 174.624 18.0695C174.53 18.1489 174.456 18.2422 174.4 18.3495V20.5965C174.4 20.7459 174.26 20.8205 173.98 20.8205H173.784C173.504 20.8205 173.364 20.7459 173.364 20.5965V18.3775C173.364 18.1722 173.357 18.0159 173.343 17.9085C173.333 17.7965 173.319 17.6729 173.301 17.5375C173.287 17.4722 173.28 17.4232 173.28 17.3905C173.28 17.3159 173.373 17.2599 173.56 17.2225C173.751 17.1852 173.919 17.1665 174.064 17.1665C174.148 17.1665 174.206 17.1992 174.239 17.2645C174.271 17.3252 174.295 17.3929 174.309 17.4675C174.327 17.5422 174.339 17.5935 174.344 17.6215C174.456 17.4722 174.603 17.3462 174.785 17.2435C174.971 17.1409 175.17 17.0895 175.38 17.0895C175.622 17.0895 175.818 17.1339 175.968 17.2225C176.122 17.3065 176.234 17.4395 176.304 17.6215C176.42 17.4722 176.574 17.3462 176.766 17.2435C176.957 17.1409 177.162 17.0895 177.382 17.0895Z" fill="#BDBDBD"/>
<ellipse cx="257.065" cy="59.368" rx="8.74821" ry="8.74413" fill="#E0E0E0"/>
<ellipse cx="280.086" cy="59.368" rx="8.74819" ry="8.74413" fill="#E0E0E0"/>
<ellipse cx="303.108" cy="59.368" rx="8.7482" ry="8.74413" fill="#E0E0E0"/>
<ellipse cx="326.129" cy="59.368" rx="8.7482" ry="8.74413" fill="#E0E0E0"/>
<ellipse cx="349.152" cy="59.368" rx="8.7482" ry="8.74413" fill="#AAD6CF"/>
</g>
<path d="M253.5 259C288.57 259 317 230.794 317 196C317 161.206 288.57 133 253.5 133C218.43 133 190 161.206 190 196C190 230.794 218.43 259 253.5 259Z" fill="#AAD6CF"/>
<path d="M321.5 177.5L439 139" stroke="#AAD6CF" stroke-width="2.5" stroke-miterlimit="10" stroke-linecap="round" stroke-dasharray="8 8"/>
<path d="M224.5 259L194 369.5" stroke="#AAD6CF" stroke-width="2.5" stroke-miterlimit="10" stroke-linecap="round" stroke-dasharray="8 8"/>
<path d="M273 263.5L305.5 393.5" stroke="#AAD6CF" stroke-width="2.5" stroke-miterlimit="10" stroke-linecap="round" stroke-dasharray="8 8"/>
<path d="M61.0005 124.5L185 177" stroke="#AAD6CF" stroke-width="2.5" stroke-miterlimit="10" stroke-linecap="round" stroke-dasharray="8 8"/>
<path d="M190.5 227.5L81.5 261.5" stroke="#AAD6CF" stroke-width="2.5" stroke-miterlimit="10" stroke-linecap="round" stroke-dasharray="8 8"/>
<path d="M313.5 234L408 280.5" stroke="#AAD6CF" stroke-width="2.5" stroke-miterlimit="10" stroke-linecap="round" stroke-dasharray="8 8"/>
<path d="M28.3 139.6C43.9297 139.6 56.6001 126.93 56.6001 111.3C56.6001 95.6703 43.9297 83 28.3 83C12.6704 83 0 95.6703 0 111.3C0 126.93 12.6704 139.6 28.3 139.6Z" fill="#EC7139"/>
<path d="M473.3 159.6C488.93 159.6 501.6 146.93 501.6 131.3C501.6 115.67 488.93 103 473.3 103C457.67 103 445 115.67 445 131.3C445 146.93 457.67 159.6 473.3 159.6Z" fill="#EC7139"/>
<path d="M314.3 455.6C329.93 455.6 342.6 442.93 342.6 427.3C342.6 411.67 329.93 399 314.3 399C298.67 399 286 411.67 286 427.3C286 442.93 298.67 455.6 314.3 455.6Z" fill="#EC7139"/>
<path d="M183.3 430.6C198.93 430.6 211.6 417.93 211.6 402.3C211.6 386.67 198.93 374 183.3 374C167.67 374 155 386.67 155 402.3C155 417.93 167.67 430.6 183.3 430.6Z" fill="#EC7139"/>
<g opacity="0.95">
<path d="M25.2824 122.901H15.4502V108.179C15.4502 106.982 16.3866 106.046 17.5831 106.046H25.2824V122.901V122.901Z" stroke="white" stroke-width="2.4" stroke-miterlimit="10"/>
<path d="M15.4502 111.508H25.2824" stroke="white" stroke-width="2.4" stroke-miterlimit="10"/>
<path d="M15.4502 117.179H25.2824" stroke="white" stroke-width="2.4" stroke-miterlimit="10"/>
<path d="M41.0967 108.907H33.6055V122.953H41.0967V108.907Z" stroke="white" stroke-width="2.4" stroke-miterlimit="10"/>
<path d="M41.0967 116.346H33.6055V102.3H39.0158C40.1603 102.3 41.0967 103.237 41.0967 104.381V116.346Z" stroke="white" stroke-width="2.4" stroke-miterlimit="10"/>
<path d="M31.5256 96.3698H27.4158C26.2714 96.3698 25.335 97.3061 25.335 98.4506V122.901H33.6585V98.4506C33.6065 97.3061 32.6701 96.3698 31.5256 96.3698Z" stroke="white" stroke-width="2.4" stroke-miterlimit="10"/>
<path d="M29.4443 122.901V117.179" stroke="white" stroke-width="2.4" stroke-miterlimit="10"/>
<path d="M29.4443 103.809V100.948" stroke="white" stroke-width="2.4" stroke-miterlimit="10"/>
<path d="M29.4443 110.312V107.45" stroke="white" stroke-width="2.4" stroke-miterlimit="10"/>
</g>
<path opacity="0.9" d="M171.542 410.363V405.421H179.658V407.45H187.669V405.421H195.784V406.878H198.021V405.421H199.166V398.242C199.166 395.849 197.189 393.872 194.796 393.872H193.651H189.906V392.988C189.906 390.283 187.721 388.098 185.016 388.098H182.415C179.71 388.098 177.525 390.283 177.525 392.988V393.872H173.623H172.478C170.189 393.872 168.265 395.745 168.265 398.086V405.421H169.409V410.363C169.409 412.757 171.386 414.733 173.779 414.733H189.178V412.496H173.779C172.478 412.496 171.542 411.56 171.542 410.363ZM185.38 403.184V404.277V405.213H181.79V404.277V403.184V401.936H185.38V403.184ZM179.605 392.936C179.605 391.479 180.802 390.283 182.259 390.283H184.86C186.316 390.283 187.513 391.479 187.513 392.936V393.82H179.553V392.936H179.605ZM170.398 403.184V398.034C170.398 396.942 171.282 396.057 172.374 396.057H173.519H177.421H189.802H193.547H194.692C195.888 396.057 196.877 397.046 196.877 398.242V403.184H195.732H187.617V399.699H179.605V403.184H171.49H170.398Z" fill="white"/>
<path opacity="0.9" d="M199.011 408.335L197.918 409.479L196.826 410.624L194.433 413.069L194.172 413.329L193.86 413.069L193.34 412.496L192.352 411.508L191.311 412.496L190.791 413.069L192.404 414.733L192.924 415.254L194.172 416.502L195.473 415.202L198.958 411.56L200.623 409.843L199.011 408.335Z" fill="white"/>
<g opacity="0.95">
<path d="M327.518 437.384C327.518 439.446 325.849 441.115 323.787 441.115H305.731C303.67 441.115 302 439.446 302 437.384V416.731C302 414.67 303.67 413 305.731 413H323.787C325.849 413 327.518 414.67 327.518 416.731V437.384V437.384Z" stroke="white" stroke-width="2.4"/>
<path d="M314.759 430.397C316.603 430.397 318.098 428.902 318.098 427.058C318.098 425.213 316.603 423.718 314.759 423.718C312.915 423.718 311.42 425.213 311.42 427.058C311.42 428.902 312.915 430.397 314.759 430.397Z" stroke="white" stroke-width="2.4"/>
<path d="M311.192 420.874L313.274 424.502" stroke="white" stroke-width="2.4"/>
<path d="M307.626 427.058H311.81" stroke="white" stroke-width="2.4"/>
<path d="M311.192 433.241L313.274 429.614" stroke="white" stroke-width="2.4"/>
<path d="M318.323 433.241L316.221 429.614" stroke="white" stroke-width="2.4"/>
<path d="M321.891 427.058H317.687" stroke="white" stroke-width="2.4"/>
<path d="M318.323 420.874L316.221 424.502" stroke="white" stroke-width="2.4"/>
</g>
<path opacity="0.9" d="M49.3 299.6C64.9297 299.6 77.6001 286.93 77.6001 271.3C77.6001 255.67 64.9297 243 49.3 243C33.6704 243 21 255.67 21 271.3C21 286.93 33.6704 299.6 49.3 299.6Z" fill="#EC7139"/>
<path d="M444.3 327.6C459.93 327.6 472.6 314.93 472.6 299.3C472.6 283.67 459.93 271 444.3 271C428.67 271 416 283.67 416 299.3C416 314.93 428.67 327.6 444.3 327.6Z" fill="#EC7139"/>
<path d="M473.119 127.238C475.394 127.238 477.238 125.394 477.238 123.119C477.238 120.844 475.394 119 473.119 119C470.844 119 469 120.844 469 123.119C469 125.394 470.844 127.238 473.119 127.238Z" stroke="white" stroke-width="2.6"/>
<path d="M473.425 130.493C467.679 130.493 463 135.222 463 141.121H483.85C483.85 135.222 479.171 130.493 473.425 130.493Z" stroke="white" stroke-width="2.6" stroke-miterlimit="10"/>
<circle cx="473.5" cy="132.5" r="1.5" fill="white"/>
<circle cx="473.5" cy="137.5" r="1.5" fill="white"/>
<g opacity="0.95">
<path d="M448.462 292.693C447.265 291.965 445.809 291.549 444.3 291.549C442.74 291.549 441.231 292.017 439.982 292.797" stroke="white" stroke-width="2.4" stroke-miterlimit="10"/>
<path d="M451.376 303.826C452.052 302.629 452.468 301.225 452.468 299.716C452.468 298.208 452.052 296.803 451.376 295.607" stroke="white" stroke-width="2.4" stroke-miterlimit="10"/>
<path d="M439.982 306.687C441.231 307.467 442.74 307.936 444.3 307.936C445.861 307.936 447.37 307.467 448.618 306.687" stroke="white" stroke-width="2.4" stroke-miterlimit="10"/>
<path d="M437.278 295.554C436.55 296.803 436.134 298.208 436.134 299.768C436.134 301.225 436.498 302.629 437.174 303.774" stroke="white" stroke-width="2.4" stroke-miterlimit="10"/>
<path d="M452.573 288.531C450.232 286.815 447.371 285.826 444.301 285.826C441.232 285.826 438.371 286.815 436.082 288.479" stroke="white" stroke-width="2.4" stroke-miterlimit="10"/>
<path d="M455.642 308.092C457.307 305.803 458.295 302.942 458.295 299.872C458.295 296.647 457.203 293.682 455.382 291.289" stroke="white" stroke-width="2.4" stroke-miterlimit="10"/>
<path d="M435.77 310.953C438.111 312.774 441.076 313.866 444.301 313.866C447.37 313.866 450.18 312.878 452.469 311.213" stroke="white" stroke-width="2.4" stroke-miterlimit="10"/>
<path d="M433.168 291.289C431.347 293.682 430.255 296.647 430.255 299.872C430.255 302.942 431.243 305.803 432.908 308.092" stroke="white" stroke-width="2.4" stroke-miterlimit="10"/>
<path d="M440.087 295.346C439.307 296.127 438.058 296.127 437.278 295.346L432.96 291.029C432.18 290.248 432.18 289 432.96 288.219C433.741 287.439 434.989 287.439 435.769 288.219L440.087 292.537C440.868 293.318 440.868 294.566 440.087 295.346Z" stroke="white" stroke-width="2.4" stroke-miterlimit="10"/>
<path d="M448.567 295.346C447.786 294.566 447.786 293.317 448.567 292.537L452.884 288.219C453.665 287.439 454.913 287.439 455.694 288.219C456.474 289 456.474 290.248 455.694 291.028L451.376 295.346C450.596 296.127 449.347 296.127 448.567 295.346Z" stroke="white" stroke-width="2.4" stroke-miterlimit="10"/>
<path d="M452.884 310.953L448.567 306.635C447.786 305.855 447.786 304.606 448.567 303.826C449.347 303.046 450.596 303.046 451.376 303.826L455.694 308.144C456.474 308.924 456.474 310.173 455.694 310.953C454.913 311.733 453.665 311.733 452.884 310.953Z" stroke="white" stroke-width="2.4" stroke-miterlimit="10"/>
<path d="M440.087 303.826C440.868 304.606 440.868 305.855 440.087 306.635L435.769 310.953C434.989 311.733 433.741 311.733 432.96 310.953C432.18 310.173 432.18 308.924 432.96 308.144L437.278 303.826C438.058 303.046 439.307 303.046 440.087 303.826Z" stroke="white" stroke-width="2.4" stroke-miterlimit="10"/>
</g>
<g opacity="0.95">
<path d="M55.4393 271.3C55.4393 274.681 52.6822 277.439 49.3007 277.439C45.9193 277.439 43.1621 274.681 43.1621 271.3C43.1621 267.919 45.9193 265.161 49.3007 265.161C52.6822 265.161 55.4393 267.919 55.4393 271.3Z" stroke="white" stroke-width="2.6"/>
<path d="M60.7971 273.641C60.9531 272.861 61.0572 272.08 61.0572 271.3C61.0572 270.52 60.9531 269.739 60.7971 268.959L62.8259 265.994L61.7335 264.121L60.641 262.248L57.0515 262.508C55.907 261.468 54.5024 260.687 52.9937 260.167L51.4331 256.942H49.3002H47.1673L45.6066 260.167C44.098 260.687 42.7454 261.468 41.5489 262.508L37.9594 262.248L36.8669 264.121L35.7744 265.994L37.8033 268.959C37.6472 269.739 37.5432 270.52 37.5432 271.3C37.5432 272.08 37.6472 272.861 37.8033 273.641L35.7744 276.606L36.8669 278.479L37.9594 280.352L41.5489 280.092C42.6934 281.132 44.098 281.913 45.6066 282.433L47.1673 285.658H49.3002H51.4331L52.9937 282.433C54.5024 281.913 55.855 281.132 57.0515 280.092L60.641 280.352L61.7335 278.479L62.8259 276.606L60.7971 273.641Z" stroke="white" stroke-width="2.6"/>
</g>
<g clip-path="url(#clip2)">
<rect x="225" y="161" width="58" height="70" fill="#AAD6CF"/>
<path d="M265.764 186.884H263.721V184.279C263.803 179.07 259.392 174.837 254 174.837C248.609 174.837 244.279 179.07 244.279 184.279V186.884H242.482C241.42 186.884 240.521 187.779 240.521 188.837V207.558C240.521 208.616 241.42 209.512 242.482 209.512H265.845C266.907 209.512 267.806 208.616 267.806 207.558V188.837C267.724 187.779 266.826 186.884 265.764 186.884ZM256.043 200.965C256.043 202.023 255.144 202.919 254.082 202.919C253.02 202.919 252.121 202.023 252.121 200.965V195.267C252.121 194.209 253.02 193.314 254.082 193.314C255.144 193.314 256.043 194.209 256.043 195.267V200.965ZM259.964 186.884H248.119V184.279C248.119 181.186 250.733 178.663 254 178.663C257.268 178.663 259.882 181.186 259.882 184.279V186.884H259.964Z" fill="#364045"/>
<path d="M281.368 166.651C281.15 166.434 280.932 166.325 280.715 166.217L279.627 165.782C263.086 159.369 244.914 159.369 228.373 165.891H228.047C226.197 166.651 225 168.391 225 170.456V210.238C225 211.76 225.762 213.173 226.959 213.934L251.552 230.238C252.313 230.673 253.075 230.999 253.946 230.999C254.816 230.999 255.578 230.782 256.34 230.238L280.824 213.934C282.129 213.064 282.891 211.651 282.891 210.021V168.717C283 167.738 282.238 166.869 281.368 166.651ZM229.244 170.347C229.244 170.13 229.353 170.021 229.462 169.912C237.405 166.869 245.675 165.347 253.946 165.347C262.216 165.347 270.486 166.869 278.43 169.912L278.647 170.021V210.13C278.647 210.238 278.538 210.347 278.43 210.456L254.163 226.543C254.054 226.651 253.837 226.651 253.728 226.543L229.462 210.456C229.353 210.347 229.244 210.238 229.244 210.13V170.347Z" fill="#364045"/>
</g>
<defs>
<clipPath id="clip0">
<rect x="124" width="256" height="509" fill="white"/>
</clipPath>
<clipPath id="clip1">
<rect x="144.259" y="47.8626" width="84.7194" height="19.3291" fill="white"/>
</clipPath>
<clipPath id="clip2">
<rect x="225" y="161" width="58" height="70" fill="white"/>
</clipPath>
</defs>
</svg>
