<?xml version="1.0" encoding="UTF-8"?>
<!-- Generator: Adobe Illustrator 20.1.0, SVG Export Plug-In . SVG Version: 6.00 Build 0)  -->
<svg version="1.1" id="Layer_1" xmlns="http://www.w3.org/2000/svg" xmlns:xlink="http://www.w3.org/1999/xlink" x="0px" y="0px" viewBox="0 0 127.9 52.6" style="enable-background:new 0 0 127.9 52.6;" xml:space="preserve">
<style type="text/css">
	.st0{fill:#181F4B;}
</style>
<path class="st0" d="M36.6,25.8c-0.5,9.3-4.4,21.4-20,26.1l0.2,0.6c6.9-2.1,12.1-5.8,15.6-11c2.9-4.3,4.5-9.6,4.8-15.7  c0,0,0.3-25.8,0.3-25.8l-0.7,0L36.6,25.8"/>
<path class="st0" d="M23.9,20.2l-4,2l0.1,0.5h1l2.8,2c0.5,0.3,2.2,1.1,5.2-0.4l4.4-2.1c0,0-3.6-1.4-4.7-1.7  C28.6,20.5,25.3,19.6,23.9,20.2"/>
<path class="st0" d="M28.5,28.5c0,0-2.8-1.2-4.2-0.7c0,0-3.9,1.6-3.9,1.6l0,0.5l1,0l2.3,2.3c0.4,0.3,1.8,1.3,4.7,0.1l4.2-1.7  C32.5,30.6,29.5,28.9,28.5,28.5"/>
<path class="st0" d="M26.2,36c0,0-2-1.3-3.3-0.8l-3.1,1.1l-0.1,0.5l0.7,0.1l1.6,1.9c0.3,0.4,1.4,1.2,3.7,0.4l3.4-1.2  C29.1,38,26.6,36.3,26.2,36"/>
<path class="st0" d="M4.7,15.5c1,0.6,3.1,1.9,5.3,1.6l5.5-0.8l-0.2-0.5l-1-0.2l-2.8-2.8c-0.5-0.5-2.1-1.6-5.9-1.1L0,12.6L4.7,15.5"/>
<path class="st0" d="M7,23.7c0.3,0.1,3.2,1.5,5.2,0.8l5-1.6l-0.1-0.4l-1.2-0.2l-3-2.2c-0.5-0.4-2.2-1.4-5.7-0.3l-5.1,1.6L7,23.7"/>
<path class="st0" d="M13.7,35.1c-0.4-0.3-1.7-0.9-4.1,0.3c0,0-3.5,1.8-3.5,1.8l3.6,1.4c0.1,0,2.4,0.9,3.7,0.2l3-1.6l0.2-0.6  c0,0-0.6,0-0.8,0.1C15.5,36.4,13.8,35.1,13.7,35.1"/>
<path class="st0" d="M16.5,29.7l-2.7-2.1c-0.4-0.3-2-1.2-5,0.2l-4.4,2l4.3,1.8c0.1,0,2.8,1.2,4.8,0.3l3.9-1.7l0-0.5L16.5,29.7"/>
<path class="st0" d="M22.8,17.4c0.6,0.2,2.6,0.6,5.8-1.8l4.6-3.4l-5.5-0.6c-0.1,0-3.6-0.4-5.5,1l-4,3.1l0.2,0.5h1  C19.5,16.3,22.8,17.4,22.8,17.4"/>
<path class="st0" d="M18.6,5.5l-2-4.5l-0.2,0.4l-1.7,4.1c-0.1,0.1-1.3,3-0.4,4.8c0,0,1.9,4.4,1.9,4.4l0.5-0.4l-0.1-0.9  c0.2-0.4,1.7-1.9,2.3-2.7l0.1-0.1C19.1,10.3,20,8.6,18.6,5.5"/>
<path class="st0" d="M16.9,15.4l-0.5,0.3c5.9,16.2-1.9,30.3-2,30.5l0.7,1.8c0.2-1.3,0.9-2.9,1.1-3.6C18.1,39.8,21.7,28.1,16.9,15.4"/>
<path class="st0" d="M55.1,16.7l-1.9-3.7h-1.7v3.7h-1.4V8h3.5c1.7,0,2.8,1.1,2.8,2.5c0,1.2-0.8,2-1.8,2.3l2.1,3.8H55.1 M53.5,9.2h-2  v2.7h2c0.9,0,1.5-0.5,1.5-1.4C55.1,9.7,54.5,9.2,53.5,9.2z"/>
<path class="st0" d="M62.5,16.8c-1.9,0-3.3-1.2-3.3-3V8h1.4v5.7c0,1.2,0.7,1.9,1.9,1.9c1.1,0,1.9-0.7,1.9-1.9V8h1.4v5.8  C65.7,15.6,64.3,16.8,62.5,16.8"/>
<path class="st0" d="M74.3,15.9c-0.6,0.5-1.4,0.8-2.4,0.8h-3.2V8H72c0.9,0,1.8,0.3,2.4,0.8c1,0.9,0.9,2.2,0.9,3.5  C75.3,13.6,75.3,15,74.3,15.9 M73.4,9.8c-0.4-0.4-0.9-0.6-1.5-0.6h-1.7v6.3h1.7c0.7,0,1.2-0.2,1.5-0.6c0.5-0.5,0.5-1.4,0.5-2.6  C73.9,11.1,73.9,10.3,73.4,9.8z"/>
<polyline class="st0" points="78.1,16.7 78.1,8 84,8 84,9.2 79.5,9.2 79.5,11.8 83.3,11.8 83.3,12.9 79.5,12.9 79.5,15.5 84,15.5   84,16.7 78.1,16.7 "/>
<path class="st0" d="M91.7,16.7l-1.9-3.7h-1.7v3.7h-1.4V8h3.5C92,8,93,9.1,93,10.6c0,1.2-0.8,2-1.8,2.3l2.1,3.8H91.7 M90.1,9.2h-2  v2.7h2c0.9,0,1.5-0.5,1.5-1.4C91.7,9.7,91,9.2,90.1,9.2z"/>
<path class="st0" d="M98.3,16.8c-1.4,0-2.4-0.3-3.2-1.1l0.9-0.9c0.7,0.6,1.4,0.8,2.3,0.8c1.2,0,1.9-0.5,1.9-1.3  c0-0.4-0.1-0.7-0.4-0.9c-0.2-0.2-0.5-0.3-1-0.4l-1.1-0.1c-0.7-0.1-1.3-0.3-1.7-0.7c-0.4-0.4-0.7-1-0.7-1.7c0-1.5,1.2-2.5,3-2.5  c1.2,0,2,0.3,2.8,1l-0.9,0.8c-0.6-0.5-1.2-0.7-2-0.7c-1.1,0-1.7,0.6-1.7,1.4c0,0.3,0.1,0.6,0.3,0.8c0.2,0.2,0.6,0.3,1,0.4l1,0.1  c0.8,0.1,1.3,0.3,1.7,0.6c0.5,0.4,0.7,1,0.7,1.8C101.6,15.9,100.2,16.8,98.3,16.8"/>
<path class="st0" d="M109.8,15.9c-0.6,0.5-1.4,0.8-2.4,0.8h-3.2V8h3.2c0.9,0,1.8,0.3,2.4,0.8c1,0.9,0.9,2.2,0.9,3.5  C110.8,13.6,110.8,15,109.8,15.9 M108.9,9.8c-0.4-0.4-0.9-0.6-1.5-0.6h-1.7v6.3h1.7c0.7,0,1.2-0.2,1.5-0.6c0.5-0.5,0.5-1.4,0.5-2.6  C109.4,11.1,109.4,10.3,108.9,9.8z"/>
<path class="st0" d="M118.7,16.7l-0.6-1.7h-3.6l-0.6,1.7h-1.5l3.3-8.7h1.1l3.3,8.7H118.7 M116.3,10l-1.4,3.9h2.8L116.3,10z"/>
<polyline class="st0" points="122.3,16.7 122.3,8 123.7,8 123.7,15.5 127.9,15.5 127.9,16.7 122.3,16.7 "/>
<polyline class="st0" points="53,26.3 50.8,28.7 50.8,30.9 50.1,30.9 50.1,22.6 50.8,22.6 50.8,27.8 55.4,22.6 56.2,22.6 53.4,25.8   56.7,30.9 55.9,30.9 53,26.3 "/>
<path class="st0" d="M65.1,30.1c-0.6,0.5-1.4,0.8-2.3,0.8c-0.9,0-1.7-0.3-2.3-0.8c-0.8-0.8-0.8-1.5-0.8-3.3c0-1.9,0-2.6,0.8-3.3  c0.6-0.5,1.4-0.8,2.3-0.8c0.9,0,1.7,0.3,2.3,0.8c0.8,0.8,0.8,1.5,0.8,3.3C66,28.6,65.9,29.4,65.1,30.1 M64.6,23.8  c-0.5-0.4-1.1-0.6-1.7-0.6c-0.7,0-1.3,0.2-1.7,0.6c-0.7,0.6-0.7,1.2-0.7,3c0,1.8,0.1,2.4,0.7,3c0.5,0.4,1.1,0.6,1.7,0.6  c0.7,0,1.3-0.2,1.7-0.6c0.7-0.6,0.7-1.2,0.7-3C65.3,25,65.2,24.4,64.6,23.8z"/>
<polyline class="st0" points="77.2,24.1 74.5,29.7 73.8,29.7 71,24.1 71,30.9 70.3,30.9 70.3,22.6 71,22.6 74.1,29 77.2,22.6   77.9,22.6 77.9,30.9 77.2,30.9 77.2,24.1 "/>
<polyline class="st0" points="89.5,24.1 86.8,29.7 86.1,29.7 83.3,24.1 83.3,30.9 82.6,30.9 82.6,22.6 83.3,22.6 86.4,29 89.5,22.6   90.2,22.6 90.2,30.9 89.5,30.9 89.5,24.1 "/>
<path class="st0" d="M97.9,31c-1.8,0-3.1-1.1-3.1-2.7v-5.6h0.7v5.5c0,1.4,1,2.3,2.4,2.3c1.5,0,2.4-0.9,2.4-2.3v-5.5h0.7v5.6  C101,29.8,99.7,31,97.9,31"/>
<polyline class="st0" points="106.3,23.7 106.3,30.9 105.6,30.9 105.6,22.6 106.3,22.6 111.5,29.8 111.5,22.6 112.2,22.6   112.2,30.9 111.5,30.9 106.3,23.7 "/>
<polyline class="st0" points="116.9,22.6 122.4,22.6 122.4,23.2 117.6,23.2 117.6,26.5 121.7,26.5 121.7,27 117.6,27 117.6,30.3   122.4,30.3 122.4,30.9 116.9,30.9 116.9,22.6 "/>
</svg>